<?xml version="1.0" encoding="utf-8"?>
<!-- Generator: Adobe Illustrator 26.5.0, SVG Export Plug-In . SVG Version: 6.00 Build 0)  -->
<svg version="1.1" id="Layer_1" xmlns="http://www.w3.org/2000/svg" xmlns:xlink="http://www.w3.org/1999/xlink" x="0px" y="0px"
	 viewBox="0 0 109.5 80" style="enable-background:new 0 0 109.5 80;" xml:space="preserve">
<style type="text/css">
	.st0{fill:#563422;}
</style>
<g>
	<path class="st0" d="M108.6,78.2h-6.8V23.7c0-2.3-1.9-4.2-4.2-4.2h-6.2v-3c0-2.2-1.8-3.9-3.9-3.9H73.1c-2.2,0-3.9,1.8-3.9,3.9v3H63
		c-1.6,0-2.9,0.9-3.7,2.2L34.9,0.2c-0.3-0.3-0.9-0.3-1.2,0L0.3,29.4c-0.4,0.3-0.4,0.9-0.1,1.3C0.4,30.9,0.7,31,0.9,31
		c0.2,0,0.4-0.1,0.6-0.2L9.3,24v42.9c0,0.5,0.4,0.9,0.9,0.9h14.5H44h14.8v10.4H52c-0.5,0-0.9,0.4-0.9,0.9c0,0.5,0.4,0.9,0.9,0.9
		h19.7h17.2h19.7c0.5,0,0.9-0.4,0.9-0.9C109.5,78.6,109.1,78.2,108.6,78.2z M71,16.5c0-1.1,0.9-2.1,2.1-2.1h14.4
		c1.1,0,2.1,0.9,2.1,2.1v3H71V16.5z M25.6,65.9V47.3c0-4.8,3.9-8.8,8.7-8.8c4.8,0,8.7,3.9,8.7,8.8v18.7H25.6z M44.9,65.9V47.3
		c0-5.8-4.7-10.6-10.6-10.6s-10.6,4.8-10.6,10.6v18.7H11.1V22.4L34.3,2.1l24.5,21.4c0,0,0,0.1,0,0.1v42.2H44.9z M73.6,78.2V65H87
		v13.2H73.6z M88.9,65h3.3c0.5,0,0.9-0.4,0.9-0.9c0-0.5-0.4-0.9-0.9-0.9h-3.3H71.7h-3.3c-0.5,0-0.9,0.4-0.9,0.9
		c0,0.5,0.4,0.9,0.9,0.9h3.3v13.2H60.6V23.7c0-1.3,1.1-2.4,2.4-2.4h34.6c1.3,0,2.4,1.1,2.4,2.4v54.4H88.9V65z"/>
	<path class="st0" d="M74.5,25.7h-2.1c-1.5,0-2.7,1.2-2.7,2.7c0,1.5,1.2,2.7,2.7,2.7h2.1c1.5,0,2.7-1.2,2.7-2.7
		C77.2,26.9,76,25.7,74.5,25.7z M74.5,29.2h-2.1c-0.5,0-0.8-0.4-0.8-0.8c0-0.5,0.4-0.8,0.8-0.8h2.1c0.5,0,0.8,0.4,0.8,0.8
		C75.4,28.8,75,29.2,74.5,29.2z"/>
	<path class="st0" d="M88.2,25.7h-2.1c-1.5,0-2.7,1.2-2.7,2.7c0,1.5,1.2,2.7,2.7,2.7h2.1c1.5,0,2.7-1.2,2.7-2.7
		C90.9,26.9,89.7,25.7,88.2,25.7z M88.2,29.2h-2.1c-0.5,0-0.8-0.4-0.8-0.8c0-0.5,0.4-0.8,0.8-0.8h2.1c0.5,0,0.8,0.4,0.8,0.8
		C89,28.8,88.6,29.2,88.2,29.2z"/>
	<path class="st0" d="M74.5,34.9h-2.1c-1.5,0-2.7,1.2-2.7,2.7c0,1.5,1.2,2.7,2.7,2.7h2.1c1.5,0,2.7-1.2,2.7-2.7
		C77.2,36.1,76,34.9,74.5,34.9z M74.5,38.4h-2.1c-0.5,0-0.8-0.4-0.8-0.8c0-0.5,0.4-0.8,0.8-0.8h2.1c0.5,0,0.8,0.4,0.8,0.8
		C75.4,38.1,75,38.4,74.5,38.4z"/>
	<path class="st0" d="M88.2,34.9h-2.1c-1.5,0-2.7,1.2-2.7,2.7c0,1.5,1.2,2.7,2.7,2.7h2.1c1.5,0,2.7-1.2,2.7-2.7
		C90.9,36.1,89.7,34.9,88.2,34.9z M88.2,38.4h-2.1c-0.5,0-0.8-0.4-0.8-0.8c0-0.5,0.4-0.8,0.8-0.8h2.1c0.5,0,0.8,0.4,0.8,0.8
		C89,38.1,88.6,38.4,88.2,38.4z"/>
	<path class="st0" d="M74.5,44.2h-2.1c-1.5,0-2.7,1.2-2.7,2.7c0,1.5,1.2,2.7,2.7,2.7h2.1c1.5,0,2.7-1.2,2.7-2.7
		C77.2,45.4,76,44.2,74.5,44.2z M74.5,47.7h-2.1c-0.5,0-0.8-0.4-0.8-0.8c0-0.5,0.4-0.8,0.8-0.8h2.1c0.5,0,0.8,0.4,0.8,0.8
		C75.4,47.3,75,47.7,74.5,47.7z"/>
	<path class="st0" d="M88.2,44.2h-2.1c-1.5,0-2.7,1.2-2.7,2.7c0,1.5,1.2,2.7,2.7,2.7h2.1c1.5,0,2.7-1.2,2.7-2.7
		C90.9,45.4,89.7,44.2,88.2,44.2z M88.2,47.7h-2.1c-0.5,0-0.8-0.4-0.8-0.8c0-0.5,0.4-0.8,0.8-0.8h2.1c0.5,0,0.8,0.4,0.8,0.8
		C89,47.3,88.6,47.7,88.2,47.7z"/>
	<path class="st0" d="M74.5,53.4h-2.1c-1.5,0-2.7,1.2-2.7,2.7c0,1.5,1.2,2.7,2.7,2.7h2.1c1.5,0,2.7-1.2,2.7-2.7
		C77.2,54.6,76,53.4,74.5,53.4z M74.5,56.9h-2.1c-0.5,0-0.8-0.4-0.8-0.8c0-0.5,0.4-0.8,0.8-0.8h2.1c0.5,0,0.8,0.4,0.8,0.8
		C75.4,56.5,75,56.9,74.5,56.9z"/>
	<path class="st0" d="M88.2,53.4h-2.1c-1.5,0-2.7,1.2-2.7,2.7c0,1.5,1.2,2.7,2.7,2.7h2.1c1.5,0,2.7-1.2,2.7-2.7
		C90.9,54.6,89.7,53.4,88.2,53.4z M88.2,56.9h-2.1c-0.5,0-0.8-0.4-0.8-0.8c0-0.5,0.4-0.8,0.8-0.8h2.1c0.5,0,0.8,0.4,0.8,0.8
		C89,56.5,88.6,56.9,88.2,56.9z"/>
</g>
</svg>
