<?xml version="1.0" encoding="utf-8"?>
<!-- Generator: Adobe Illustrator 26.5.0, SVG Export Plug-In . SVG Version: 6.00 Build 0)  -->
<svg version="1.1" id="Layer_1" xmlns="http://www.w3.org/2000/svg" xmlns:xlink="http://www.w3.org/1999/xlink" x="0px" y="0px"
	 viewBox="0 0 98.3 80" style="enable-background:new 0 0 98.3 80;" xml:space="preserve">
<style type="text/css">
	.st0{fill:#563422;}
</style>
<g>
	<g>
		<path class="st0" d="M83.7,62.7h-8.9v-8.5c0-0.4-0.2-0.7-0.5-0.9c-0.2-0.1-0.3-0.2-0.5-0.2c-0.3,0-0.5,0.1-0.7,0.3
			c-0.1,0.2-0.2,0.4-0.3,0.6c0,0.1,0,0.1,0,0.2V56v7.9c0,0.6,0.5,1.1,1.1,1.1h10c0.6,0,1.1-0.5,1.1-1.1S84.3,62.7,83.7,62.7z"/>
		<path class="st0" d="M98,69.3c-0.4-0.8-1.3-1.3-2.3-1.3h-0.2v-6.7c0-1.4-1.1-2.6-2.6-2.6h-0.7c-1.8-7.5-8.6-13.1-16.7-13.1
			c-0.5,0-1,0-1.5,0.1c-1.5-3.2-4.7-5.4-8.4-5.4c-0.6,0-1.3,0.1-1.9,0.2l1.2-4.3c0.3-1,0.1-2.1-0.5-3c-0.6-0.8-1.6-1.3-2.6-1.3H43.9
			c-1,0-2,0.5-2.6,1.3c-0.6,0.9-0.8,1.9-0.6,3l1.4,4.7c0.3,0.9,0.3,1.9,0.1,2.8L38,60.4c-0.3,1.1-0.1,2.2,0.5,3.2h-9l-0.6-42.1
			c0-1.5,0.5-2.9,1.6-3.9c1-1,2.3-1.6,3.7-1.6h2.6l2.9,7c0.5,1.1,1.6,1.9,2.8,1.9h20.7c1.2,0,2.3-0.7,2.8-1.8l3.1-7.1
			c2.9-0.4,5.1-2.8,5.1-5.9V5.9c0-3.3-2.6-5.9-5.8-5.9H7.4C3.3,0,0,3.4,0,7.6v56v10.8v0.5h63.3C66.4,78,70.8,80,75.5,80
			c4.8,0,9.2-2,12.3-5.3l1.6,2.2c0.5,0.6,1.3,1,2.1,1s1.7-0.4,2.1-1l4.1-5.5C98.3,70.8,98.4,70,98,69.3z M91.2,75.6L89.3,73
			l-0.1-0.2l-0.6-0.7l-0.7-0.9l-0.8-1c0,0,0.1-0.1,0.4-0.1h1.1h0.3c0.6,0,1.1-0.5,1.1-1.1V67v-5.7c0-0.2,0.2-0.4,0.4-0.4h0.1h1.1
			h1.1h0.3c0.2,0,0.4,0.2,0.4,0.4v7.8c0,0.6,0.5,1.1,1.1,1.1h1.3c0.2,0,0.3,0,0.3,0l-4,5.4C91.9,75.7,91.3,75.7,91.2,75.6z
			 M75.5,77.8c-3.3,0-6.4-1.1-8.9-2.9c-0.5-0.3-0.9-0.7-1.3-1.1c-0.4-0.3-0.7-0.7-1.1-1.1c-1.7-2-3-4.4-3.5-7
			c-0.1-0.4-0.1-0.7-0.2-1.1c0-0.4-0.1-0.7-0.1-1.1c0-0.2,0-0.5,0-0.7c0-3,0.9-5.9,2.5-8.2c0,0,0,0,0,0c0.2-0.4,0.5-0.7,0.8-1
			c0.2-0.3,0.5-0.6,0.8-0.9c0,0,0.1-0.1,0.1-0.1c0,0,0,0,0,0c0.3-0.3,0.6-0.6,0.9-0.9c0,0,0,0,0,0c0,0,0,0,0,0c2-1.8,4.4-3,7-3.5
			c0.4-0.1,0.7-0.1,1.1-0.2c0.4,0,0.7-0.1,1.1-0.1c0.3,0,0.5,0,0.8,0c6.9,0,12.7,4.7,14.5,11c-1.2,0.2-2.2,1.2-2.2,2.5V68h-0.2
			c-1,0-1.9,0.5-2.3,1.3c-0.3,0.7-0.3,1.5,0.2,2.1l1.1,1.5C83.8,75.9,79.9,77.8,75.5,77.8z M40.5,62.8c-0.4-0.5-0.6-1.2-0.4-1.9
			l1.7-7c0,0,0,0,0,0c0.2,0.2,0.4,0.3,0.6,0.5c0,0,0.1,0.1,0.1,0.1c0.2,0.1,0.4,0.2,0.6,0.3c0.1,0,0.2,0.1,0.2,0.1
			c0.2,0.1,0.4,0.1,0.6,0.2c0.1,0,0.2,0.1,0.3,0.1c0.3,0.1,0.6,0.1,1,0.1c2.4,0,3.6-1.5,4.6-2.8c1-1.2,1.6-1.9,2.9-1.9
			c1.3,0,1.9,0.7,2.9,1.9c0.9,1.2,2.1,2.6,4.3,2.7c-1.1,2.3-1.7,4.8-1.7,7.5c0,0.2,0,0.5,0,0.7H42.1C41.5,63.5,40.9,63.3,40.5,62.8z
			 M43,34.5c0.2-0.3,0.5-0.5,0.9-0.5h17.9c0.4,0,0.7,0.2,0.9,0.5c0.2,0.3,0.3,0.7,0.2,1.1l-1.4,4.7c-0.1,0.2-0.1,0.5-0.2,0.7h-17
			c0-0.2-0.1-0.5-0.2-0.7l-1.4-4.7C42.7,35.2,42.8,34.8,43,34.5z M71.7,46.1c-2.5,0.6-4.8,1.7-6.8,3.2l-1.4-5.5
			c-0.1-0.3-0.1-0.6-0.1-0.9c0.7-0.2,1.4-0.3,2.2-0.3C68.2,42.5,70.5,43.9,71.7,46.1z M44.4,43.2h16.8c0,0.4,0.1,0.7,0.2,1.1
			l1.6,6.7c-0.6,0.6-1.1,1.3-1.6,1.9c0,0,0,0,0,0c-0.1,0-0.2,0.1-0.3,0.1c-0.3,0.1-0.5,0.1-0.9,0.1c-1.3,0-1.9-0.7-2.9-1.9
			c-1-1.2-2.2-2.8-4.6-2.8c-2.4,0-3.6,1.5-4.6,2.8c-1,1.2-1.6,1.9-2.9,1.9c-0.3,0-0.6,0-0.9-0.1c-0.1,0-0.2-0.1-0.2-0.1
			c-0.2-0.1-0.3-0.1-0.5-0.2c-0.1-0.1-0.2-0.2-0.3-0.2c-0.1-0.1-0.2-0.2-0.4-0.3c-0.1-0.1-0.2-0.3-0.4-0.4c-0.1-0.1-0.2-0.2-0.2-0.3
			l1.7-7.1C44.4,43.9,44.4,43.6,44.4,43.2z M2.2,72.7v-7h40h16.5c0.4,2.6,1.5,5,2.9,7H2.2z M63.9,22.2c-0.1,0.3-0.4,0.5-0.8,0.5
			H42.4c-0.3,0-0.6-0.2-0.8-0.5L39.1,16h27.5L63.9,22.2z M2.2,7.6c0-3,2.4-5.4,5.3-5.4h60.8c2,0,3.7,1.7,3.7,3.8V10
			c0,2.1-1.6,3.8-3.7,3.8h-34c-2,0-3.8,0.8-5.2,2.2c-1.4,1.5-2.2,3.4-2.2,5.4l0.6,42.1H2.2V7.6z"/>
	</g>
	<g>
		<path class="st0" d="M83.7,62.7h-8.9v-8.5c0-0.4-0.2-0.7-0.5-0.9c-0.2-0.1-0.3-0.2-0.5-0.2c-0.3,0-0.5,0.1-0.7,0.3
			c-0.1,0.2-0.2,0.4-0.3,0.6c0,0.1,0,0.1,0,0.2V56v7.9c0,0.6,0.5,1.1,1.1,1.1h10c0.6,0,1.1-0.5,1.1-1.1S84.3,62.7,83.7,62.7z"/>
		<path class="st0" d="M98,69.3c-0.4-0.8-1.3-1.3-2.3-1.3h-0.2v-6.7c0-1.4-1.1-2.6-2.6-2.6h-0.7c-1.8-7.5-8.6-13.1-16.7-13.1
			c-0.5,0-1,0-1.5,0.1c-1.5-3.2-4.7-5.4-8.4-5.4c-0.6,0-1.3,0.1-1.9,0.2l1.2-4.3c0.3-1,0.1-2.1-0.5-3c-0.6-0.8-1.6-1.3-2.6-1.3H43.9
			c-1,0-2,0.5-2.6,1.3c-0.6,0.9-0.8,1.9-0.6,3l1.4,4.7c0.3,0.9,0.3,1.9,0.1,2.8L38,60.4c-0.3,1.1-0.1,2.2,0.5,3.2h-9l-0.6-42.1
			c0-1.5,0.5-2.9,1.6-3.9c1-1,2.3-1.6,3.7-1.6h2.6l2.9,7c0.5,1.1,1.6,1.9,2.8,1.9h20.7c1.2,0,2.3-0.7,2.8-1.8l3.1-7.1
			c2.9-0.4,5.1-2.8,5.1-5.9V5.9c0-3.3-2.6-5.9-5.8-5.9H7.4C3.3,0,0,3.4,0,7.6v56v10.8v0.5h63.3C66.4,78,70.8,80,75.5,80
			c4.8,0,9.2-2,12.3-5.3l1.6,2.2c0.5,0.6,1.3,1,2.1,1s1.7-0.4,2.1-1l4.1-5.5C98.3,70.8,98.4,70,98,69.3z M91.2,75.6L89.3,73
			l-0.1-0.2l-0.6-0.7l-0.7-0.9l-0.8-1c0,0,0.1-0.1,0.4-0.1h1.1h0.3c0.6,0,1.1-0.5,1.1-1.1V67v-5.7c0-0.2,0.2-0.4,0.4-0.4h0.1h1.1
			h1.1h0.3c0.2,0,0.4,0.2,0.4,0.4v7.8c0,0.6,0.5,1.1,1.1,1.1h1.3c0.2,0,0.3,0,0.3,0l-4,5.4C91.9,75.7,91.3,75.7,91.2,75.6z
			 M75.5,77.8c-3.3,0-6.4-1.1-8.9-2.9c-0.5-0.3-0.9-0.7-1.3-1.1c-0.4-0.3-0.7-0.7-1.1-1.1c-1.7-2-3-4.4-3.5-7
			c-0.1-0.4-0.1-0.7-0.2-1.1c0-0.4-0.1-0.7-0.1-1.1c0-0.2,0-0.5,0-0.7c0-3,0.9-5.9,2.5-8.2c0,0,0,0,0,0c0.2-0.4,0.5-0.7,0.8-1
			c0.2-0.3,0.5-0.6,0.8-0.9c0,0,0.1-0.1,0.1-0.1c0,0,0,0,0,0c0.3-0.3,0.6-0.6,0.9-0.9c0,0,0,0,0,0c0,0,0,0,0,0c2-1.8,4.4-3,7-3.5
			c0.4-0.1,0.7-0.1,1.1-0.2c0.4,0,0.7-0.1,1.1-0.1c0.3,0,0.5,0,0.8,0c6.9,0,12.7,4.7,14.5,11c-1.2,0.2-2.2,1.2-2.2,2.5V68h-0.2
			c-1,0-1.9,0.5-2.3,1.3c-0.3,0.7-0.3,1.5,0.2,2.1l1.1,1.5C83.8,75.9,79.9,77.8,75.5,77.8z M40.5,62.8c-0.4-0.5-0.6-1.2-0.4-1.9
			l1.7-7c0,0,0,0,0,0c0.2,0.2,0.4,0.3,0.6,0.5c0,0,0.1,0.1,0.1,0.1c0.2,0.1,0.4,0.2,0.6,0.3c0.1,0,0.2,0.1,0.2,0.1
			c0.2,0.1,0.4,0.1,0.6,0.2c0.1,0,0.2,0.1,0.3,0.1c0.3,0.1,0.6,0.1,1,0.1c2.4,0,3.6-1.5,4.6-2.8c1-1.2,1.6-1.9,2.9-1.9
			c1.3,0,1.9,0.7,2.9,1.9c0.9,1.2,2.1,2.6,4.3,2.7c-1.1,2.3-1.7,4.8-1.7,7.5c0,0.2,0,0.5,0,0.7H42.1C41.5,63.5,40.9,63.3,40.5,62.8z
			 M43,34.5c0.2-0.3,0.5-0.5,0.9-0.5h17.9c0.4,0,0.7,0.2,0.9,0.5c0.2,0.3,0.3,0.7,0.2,1.1l-1.4,4.7c-0.1,0.2-0.1,0.5-0.2,0.7h-17
			c0-0.2-0.1-0.5-0.2-0.7l-1.4-4.7C42.7,35.2,42.8,34.8,43,34.5z M71.7,46.1c-2.5,0.6-4.8,1.7-6.8,3.2l-1.4-5.5
			c-0.1-0.3-0.1-0.6-0.1-0.9c0.7-0.2,1.4-0.3,2.2-0.3C68.2,42.5,70.5,43.9,71.7,46.1z M44.4,43.2h16.8c0,0.4,0.1,0.7,0.2,1.1
			l1.6,6.7c-0.6,0.6-1.1,1.3-1.6,1.9c0,0,0,0,0,0c-0.1,0-0.2,0.1-0.3,0.1c-0.3,0.1-0.5,0.1-0.9,0.1c-1.3,0-1.9-0.7-2.9-1.9
			c-1-1.2-2.2-2.8-4.6-2.8c-2.4,0-3.6,1.5-4.6,2.8c-1,1.2-1.6,1.9-2.9,1.9c-0.3,0-0.6,0-0.9-0.1c-0.1,0-0.2-0.1-0.2-0.1
			c-0.2-0.1-0.3-0.1-0.5-0.2c-0.1-0.1-0.2-0.2-0.3-0.2c-0.1-0.1-0.2-0.2-0.4-0.3c-0.1-0.1-0.2-0.3-0.4-0.4c-0.1-0.1-0.2-0.2-0.2-0.3
			l1.7-7.1C44.4,43.9,44.4,43.6,44.4,43.2z M2.2,72.7v-7h40h16.5c0.4,2.6,1.5,5,2.9,7H2.2z M63.9,22.2c-0.1,0.3-0.4,0.5-0.8,0.5
			H42.4c-0.3,0-0.6-0.2-0.8-0.5L39.1,16h27.5L63.9,22.2z M2.2,7.6c0-3,2.4-5.4,5.3-5.4h60.8c2,0,3.7,1.7,3.7,3.8V10
			c0,2.1-1.6,3.8-3.7,3.8h-34c-2,0-3.8,0.8-5.2,2.2c-1.4,1.5-2.2,3.4-2.2,5.4l0.6,42.1H2.2V7.6z"/>
	</g>
</g>
</svg>
