<?xml version="1.0" encoding="utf-8"?>
<!-- Generator: Adobe Illustrator 26.5.0, SVG Export Plug-In . SVG Version: 6.00 Build 0)  -->
<svg version="1.1" id="Layer_1" xmlns="http://www.w3.org/2000/svg" xmlns:xlink="http://www.w3.org/1999/xlink" x="0px" y="0px"
	 viewBox="0 0 80 80" style="enable-background:new 0 0 80 80;" xml:space="preserve">
<style type="text/css">
	.st0{fill:#563422;}
</style>
<path class="st0" d="M71.5,68.3c0.8-1.1,1-2.4,0.7-3.6L71.8,63c4.7-0.8,8.2-4.8,8.2-9.7c0-5.5-4.4-9.9-9.8-9.9
	c-0.8,0-1.6,0.1-2.4,0.3l1.5-5.1c0.3-1,0.1-2.1-0.5-3c-0.6-0.8-1.6-1.3-2.6-1.3H47c-1,0-2,0.5-2.6,1.3c-0.6,0.9-0.8,1.9-0.5,3
	l1.5,5.1c0.3,1,0.3,2.1,0.1,3.2l-1.6,6.3v0l-2.9,11.5c-0.3,1.3,0,2.5,0.7,3.6H31.2l-0.6-45.5c0-1.7,0.6-3.2,1.7-4.4
	c1.1-1.1,2.6-1.7,4.1-1.7h2.9l3.1,7.7c0.5,1.1,1.6,1.9,2.8,1.9h22.3c1.2,0,2.3-0.7,2.8-1.8l3.3-7.8c3-0.3,5.4-2.9,5.4-6.1V6.1
	c0-3.4-2.7-6.1-6-6.1H7.7C3.5,0,0,3.5,0,7.9v60.4v11.4V80h78.5v-4.2C78.5,71.8,75.4,68.6,71.5,68.3z M67.2,55.9
	c-0.1,0.1-0.2,0.2-0.4,0.3c-0.1,0.1-0.2,0.2-0.4,0.3c-0.2,0.1-0.4,0.2-0.5,0.3c-0.1,0-0.2,0.1-0.3,0.1c-0.3,0.1-0.6,0.1-1,0.1
	c-1.5,0-2.2-0.8-3.3-2.2c-1.1-1.3-2.3-2.9-4.8-2.9c-2.5,0-3.7,1.5-4.8,2.9c-1.1,1.4-1.8,2.2-3.3,2.2c-0.4,0-0.7-0.1-1-0.1
	c-0.1,0-0.2-0.1-0.3-0.2c-0.2-0.1-0.4-0.2-0.5-0.3c-0.1-0.1-0.2-0.2-0.3-0.3c-0.1-0.1-0.3-0.2-0.4-0.4c-0.1-0.1-0.2-0.3-0.4-0.4
	c-0.1-0.1-0.2-0.3-0.4-0.4l1.9-7.7c0.1-0.4,0.2-0.9,0.2-1.4h18.5c0,0.5,0.1,0.9,0.2,1.4l1.9,7.7c-0.1,0.1-0.1,0.2-0.2,0.2
	C67.6,55.4,67.4,55.7,67.2,55.9z M78.2,53.2c0,4-2.9,7.4-6.8,8l-0.2-0.9l-3.3-13.4c-0.1-0.4-0.1-0.8-0.1-1.2
	c0.8-0.3,1.7-0.4,2.6-0.4C74.6,45.2,78.2,48.8,78.2,53.2z M45.8,36.7c0.3-0.4,0.7-0.6,1.2-0.6h19.2c0.5,0,0.9,0.2,1.2,0.6
	c0.3,0.4,0.4,0.9,0.2,1.4l-1.5,5.1c0,0,0,0.1,0,0.1c-0.1,0.3-0.1,0.5-0.2,0.8H47.2c-0.1-0.3-0.1-0.6-0.2-0.9l-1.5-5.1
	C45.4,37.6,45.5,37.1,45.8,36.7z M43.1,67.3c-0.5-0.6-0.7-1.4-0.5-2.2l2-7.9c0,0,0,0,0.1,0.1c0.2,0.2,0.4,0.3,0.5,0.5
	c0.1,0,0.1,0.1,0.2,0.1c0.2,0.2,0.5,0.4,0.8,0.5c0,0,0.1,0,0.1,0c0.2,0.1,0.5,0.2,0.8,0.3c0.1,0,0.2,0,0.3,0.1
	c0.3,0.1,0.7,0.1,1.1,0.1c2.5,0,3.7-1.5,4.8-2.9c1.1-1.4,1.8-2.2,3.3-2.2c1.5,0,2.2,0.8,3.3,2.2c1.1,1.3,2.3,2.9,4.8,2.9
	c0.4,0,0.8-0.1,1.1-0.1c0.1,0,0.2,0,0.3-0.1c0.3-0.1,0.6-0.2,0.8-0.3c0,0,0.1,0,0.1,0c0.3-0.1,0.5-0.3,0.8-0.5
	c0.1,0,0.1-0.1,0.2-0.1c0.2-0.2,0.4-0.3,0.5-0.5c0,0,0.1,0,0.1-0.1l0.4,1.8l1,4.2h0l0.5,2c0.2,0.8,0,1.6-0.5,2.2
	c-0.5,0.6-1.2,0.9-1.9,0.9H45C44.3,68.3,43.6,67.9,43.1,67.3z M68.7,23.7c-0.2,0.4-0.6,0.7-1.1,0.7H45.3c-0.5,0-0.9-0.3-1.1-0.7
	l-2.9-7h30.2L68.7,23.7z M1.9,7.9c0-3.3,2.6-6,5.9-6h65.3c2.3,0,4.2,1.9,4.2,4.3v4.4c0,2.4-1.9,4.3-4.2,4.3H36.5
	c-2.1,0-4,0.8-5.5,2.3c-1.5,1.5-2.3,3.5-2.3,5.7l0.6,45.5H1.9V7.9z M76.7,78.1H1.9v-8H45h23H71c3.1,0,5.7,2.6,5.7,5.7V78.1z"/>
</svg>
