<?xml version="1.0" encoding="utf-8"?>
<!-- Generator: Adobe Illustrator 26.5.0, SVG Export Plug-In . SVG Version: 6.00 Build 0)  -->
<svg version="1.1" id="Layer_1" xmlns="http://www.w3.org/2000/svg" xmlns:xlink="http://www.w3.org/1999/xlink" x="0px" y="0px"
	 viewBox="0 0 44.4 80" style="enable-background:new 0 0 44.4 80;" xml:space="preserve">
<style type="text/css">
	.st0{fill:#563422;}
</style>
<g>
	<path class="st0" d="M22.2,0C10,0,0,10,0,22.2v36.9c0,4.6,1.9,9.2,5.1,12.5l-1.6,1.7c-1.1,1.2-1.4,2.8-0.7,4.3
		C3.4,79.1,4.8,80,6.5,80H38c1.6,0,3-0.9,3.7-2.4c0.6-1.5,0.4-3.1-0.7-4.3l-1.6-1.7c3.2-3.3,5.1-7.8,5.1-12.5V22.2
		C44.4,10,34.5,0,22.2,0z M32.8,61.6c0,2.4-1.9,4.3-4.3,4.3H15.9c-2.4,0-4.3-1.9-4.3-4.3V34.5h21.2V61.6z M1.9,21.8h2.6
		c0,0.3,0.1,0.5,0.1,0.8c0.3,1.5,1,3,2,4.5c0,0,0,0,0,0H1.8v-4.8C1.8,22.1,1.9,21.9,1.9,21.8z M39.8,22.5c0.1-0.3,0.1-0.5,0.1-0.8
		h2.6c0,0.2,0,0.3,0,0.5v4.8h-4.8c0,0,0,0,0,0C38.8,25.6,39.5,24.1,39.8,22.5z M34.7,33.6c0-1,0.9-2.9,2-4.7h5.9v20.4h-7.9V33.6z
		 M38,22.1c-0.3,1.3-0.9,2.6-1.7,3.9c-0.5,0.7-2.7,4.2-3.3,6.6H11.5c-0.6-2.4-2.8-5.9-3.3-6.6c-0.9-1.3-1.4-2.6-1.7-3.9
		c-0.4-1.9,0-2.6,0.2-2.8h31.2C38.1,19.5,38.4,20.2,38,22.1z M7.8,28.9c1.1,1.8,2,3.7,2,4.7v15.7H1.8V28.9H7.8z M1.8,51.1h7.9v5.3
		H1.8V51.1z M34.7,51.1h7.9v5.3h-7.9V51.1z M22.2,1.8c10.5,0,19.1,7.9,20.2,18.1H40c-0.1-0.5-0.2-1-0.5-1.4
		c-0.5-0.8-1.3-0.9-1.4-0.9c0,0-0.1,0-0.1,0l-31.6,0c-0.1,0-0.9,0.2-1.4,0.9c-0.3,0.4-0.4,0.9-0.5,1.4H2C3.1,9.8,11.8,1.8,22.2,1.8z
		 M1.8,59.1v-0.8h7.9v3.4c0,1.7,0.7,3.2,1.8,4.3c-0.9,0.1-1.8,0.5-2.4,1.2l-2.9,3.1C3.5,67.3,1.8,63.2,1.8,59.1z M40,76.9
		c-0.4,0.8-1.1,1.3-2,1.3H6.5c-0.9,0-1.6-0.5-2-1.3c-0.4-0.8-0.2-1.7,0.4-2.3l5.7-6.1c0.4-0.4,1-0.7,1.6-0.7h3.8h12.7h3.8
		c0.6,0,1.2,0.3,1.6,0.7l5.7,6.1C40.2,75.2,40.3,76,40,76.9z M38.1,70.2l-2.8-3.1c-0.6-0.7-1.5-1.1-2.4-1.2c1.1-1.1,1.8-2.6,1.8-4.3
		v-3.4h7.9v0.8C42.6,63.2,40.9,67.3,38.1,70.2z"/>
	<path class="st0" d="M22.2,44.2c-0.5,0-0.9,0.4-0.9,0.9v10.4c0,0.5,0.4,0.9,0.9,0.9s0.9-0.4,0.9-0.9V45.1
		C23.1,44.6,22.7,44.2,22.2,44.2z"/>
</g>
</svg>
