<?xml version="1.0" encoding="utf-8"?>
<!-- Generator: Adobe Illustrator 26.5.0, SVG Export Plug-In . SVG Version: 6.00 Build 0)  -->
<svg version="1.1" id="Layer_1" xmlns="http://www.w3.org/2000/svg" xmlns:xlink="http://www.w3.org/1999/xlink" x="0px" y="0px"
	 viewBox="0 0 76.8 80" style="enable-background:new 0 0 76.8 80;" xml:space="preserve">
<style type="text/css">
	.st0{fill:#563422;}
</style>
<g>
	<path class="st0" d="M74.9,46.9L74.9,46.9c-2.5-4.3-6.9-6.9-11.9-7.1c-0.2,0-0.4,0-0.6,0c-1.7,0-3.4,0.4-5,1
		c-3.8-4.4-9.4-7.2-15.7-7.2h-1.6c5.5-3.1,9.2-9,9.2-15.7c0-9.9-8.1-18-18-18s-18,8.1-18,18c0,6.7,3.7,12.6,9.2,15.7h-1.6
		C9.3,33.7,0,43.1,0,54.6v15.1h55l4.7,8.6c0.6,1.1,1.7,1.7,3,1.7c1.2,0,2.4-0.6,3-1.8l9.4-17.2C77.5,56.6,77.4,51.3,74.9,46.9z
		 M15.6,18c0-8.7,7-15.7,15.7-15.7S47,9.4,47,18c0,8.7-7,15.7-15.7,15.7S15.6,26.7,15.6,18z M61.7,77.1l-4.1-7.5L57,68.5l-0.6-1.2
		l-4-7.4c-2-3.7-2-8.2,0.2-11.9c1.1-1.8,2.5-3.3,4.3-4.3c0.3-0.2,0.7-0.4,1.1-0.5c0.4-0.2,0.7-0.3,1.1-0.4c1.1-0.4,2.3-0.6,3.5-0.6
		c0.1,0,0.2,0,0.3,0c0.1,0,0.2,0,0.3,0c4.1,0.1,7.8,2.3,9.9,5.9v0c2.1,3.7,2.2,8.1,0.2,11.9l-9.4,17.2
		C63.2,77.8,62.1,77.8,61.7,77.1z M2.3,67.4V54.6C2.3,44.4,10.6,36,20.8,36h20.9c5.3,0,10.2,2.3,13.5,5.9c-1.9,1.2-3.6,2.9-4.8,4.9
		c-2.6,4.4-2.6,9.7-0.2,14.1l3.4,6.3H2.3z"/>
	<path class="st0" d="M62.7,46.9c-0.5,0-1,0.1-1.5,0.2c-0.4,0.1-0.7,0.2-1.1,0.4c-0.4,0.2-0.7,0.4-1,0.6c-1.4,1.1-2.3,2.7-2.3,4.6
		c0,2.4,1.4,4.4,3.4,5.3c0.4,0.2,0.8,0.3,1.2,0.4c0.4,0.1,0.8,0.1,1.2,0.1c0,0,0.1,0,0.1,0c3.2,0,5.9-2.6,5.9-5.9
		C68.5,49.5,65.9,46.9,62.7,46.9z M62.6,56.3c-0.4,0-0.8-0.1-1.2-0.2c-0.4-0.2-0.8-0.4-1.2-0.7c-0.7-0.6-1.1-1.5-1.1-2.6
		c0-0.8,0.3-1.5,0.7-2.1c0.3-0.4,0.6-0.7,1-0.9c0.3-0.2,0.7-0.4,1.1-0.5c0.3-0.1,0.5-0.1,0.8-0.1c2,0,3.5,1.6,3.5,3.5
		c0,2-1.6,3.5-3.5,3.5C62.6,56.3,62.6,56.3,62.6,56.3z"/>
</g>
</svg>
