<?xml version="1.0" encoding="utf-8"?>
<!-- Generator: Adobe Illustrator 26.5.0, SVG Export Plug-In . SVG Version: 6.00 Build 0)  -->
<svg version="1.1" id="Layer_1" xmlns="http://www.w3.org/2000/svg" xmlns:xlink="http://www.w3.org/1999/xlink" x="0px" y="0px"
	 viewBox="0 0 80 80" style="enable-background:new 0 0 80 80;" xml:space="preserve">
<style type="text/css">
	.st0{fill:#563422;}
</style>
<path class="st0" d="M80,32.2c0-3.8-3.1-6.8-7-6.8h-6.2H51.1l2.6-7.4c1.1-3.1,1.4-6.3,0.7-9.3c-1.4-6.4-5.9-8.9-8.8-8.7
	c-1.3,0.1-2.1,0.9-2.2,1.8C43,7.4,40.6,12.7,37,16.7L24.6,30.3c-1.5,1.7-3.5,2.6-5.7,2.9v-4.7c0-0.5-0.4-0.9-0.9-0.9H0.9
	c-0.5,0-0.9,0.4-0.9,0.9v50.6C0,79.6,0.4,80,0.9,80H18c0.5,0,0.9-0.4,0.9-0.9v-4.8h44.7c3.9,0,7-3.1,7-6.8c0-2-0.9-3.8-2.4-5.1
	c3.2-0.6,5.6-3.4,5.6-6.7c0-2.1-1-3.9-2.5-5.2c3.1-0.7,5.4-3.4,5.4-6.6c0-2-0.9-3.8-2.4-5.1C77.6,38.2,80,35.5,80,32.2z M17.1,78.2
	H1.8V29.4h15.3v4.8v39.2V78.2z M73,37.1h-3.2h-2.3h-3.9c-0.5,0-0.9,0.4-0.9,0.9s0.4,0.9,0.9,0.9h3.9h2.3c2.8,0,5.2,2.2,5.2,5
	s-2.3,5-5.2,5h-2.9h-2.7h-3.5c-0.5,0-0.9,0.4-0.9,0.9s0.4,0.9,0.9,0.9h3.5h2.7c2.8,0,5.2,2.2,5.2,5c0,2.7-2.3,5-5.2,5h-3.2h-2.3
	h-3.9c-0.5,0-0.9,0.4-0.9,0.9c0,0.5,0.4,0.9,0.9,0.9h3.9h2.3c2.8,0,5.2,2.2,5.2,5c0,2.7-2.3,5-5.2,5H18.9V35
	c2.7-0.2,5.2-1.5,7.1-3.5L38.3,18c3.9-4.3,6.4-10,7.1-16C45.5,1.9,46,1.7,47,2c2.1,0.5,4.7,2.7,5.7,7.1c0.6,2.6,0.3,5.4-0.7,8.3
	l-3.5,9.9h18.3H73c2.8,0,5.2,2.2,5.2,5C78.2,34.9,75.9,37.1,73,37.1z"/>
</svg>
