<?xml version="1.0" encoding="utf-8"?>
<!-- Generator: Adobe Illustrator 26.5.0, SVG Export Plug-In . SVG Version: 6.00 Build 0)  -->
<svg version="1.1" id="Layer_1" xmlns="http://www.w3.org/2000/svg" xmlns:xlink="http://www.w3.org/1999/xlink" x="0px" y="0px"
	 viewBox="0 0 214.6 400" style="enable-background:new 0 0 214.6 400;" xml:space="preserve">
<style type="text/css">
	.st0{clip-path:url(#SVGID_00000032607428502930042840000008436387011672533680_);}
	.st1{fill:#BE8056;}
	.st2{fill:#9A5F34;}
	.st3{clip-path:url(#SVGID_00000163054437522167531200000008113691357769817241_);}
	.st4{clip-path:url(#하체_00000075141437421077422860000002100998916920299931_);}
	.st5{fill:#9F744D;}
	.st6{fill:#886340;}
	.st7{fill:#785637;}
	.st8{fill:#B97341;}
	.st9{clip-path:url(#SVGID_00000122681838772310438260000007852554116505456824_);}
	.st10{fill:#E0965F;}
	.st11{fill:#3A2C19;}
	.st12{fill:#C28152;}
	.st13{fill:#E3514E;}
	.st14{fill:#945B32;}
	.st15{fill:#AF6D3D;}
</style>
<g id="겁쟁이_사자_2_">
	<g id="몸통_6_">
		<g id="왼팔_7_">
			<defs>
				<path id="SVGID_1_" d="M21.1,117.1c0,0-30.7,35.4-13.7,88.3c0.5,1.7,1.2,3.4,1.9,5c1,2.5,2.7,8.5,0.1,16.3
					c0,0-6.5,17.6,2.7,19.5c0,0,5.5,2,9.4-4.8c0,0,0.2,0.3,0.6,0.7c4.3,4.6,12.5,2.5,13.9-3.4c0-0.1,0-0.2,0.1-0.3
					c0,0,3.5,1.9,8.1,0.6c2.7-0.8,4.8-2.9,4.8-5.5c0,0,0.7-3.4-3.9-8.3c-2.5-2.7-4.8-5.6-6-9c-1.1-3.2-1.8-7.1-0.8-11.2
					c6.5-27.6,1.6-60.9,1.6-60.9S36.5,119.1,21.1,117.1z"/>
			</defs>
			<clipPath id="SVGID_00000036234935002196414300000010663856942414474931_">
				<use xlink:href="#SVGID_1_"  style="overflow:visible;"/>
			</clipPath>
			<g style="clip-path:url(#SVGID_00000036234935002196414300000010663856942414474931_);">
				<path class="st1" d="M21.1,117.1c0,0-30.7,35.4-13.7,88.3c0.5,1.7,1.2,3.4,1.9,5c1,2.5,2.7,8.5,0.1,16.3c0,0-6.5,17.6,2.7,19.5
					c0,0,5.5,2,9.4-4.8c0,0,0.2,0.3,0.6,0.7c4.3,4.6,12.5,2.5,13.9-3.4c0-0.1,0-0.2,0.1-0.3c0,0,3.5,1.9,8.1,0.6
					c2.7-0.8,4.8-2.9,4.8-5.5c0,0,0.7-3.4-3.9-8.3c-2.5-2.7-4.8-5.6-6-9c-1.1-3.2-1.8-7.1-0.8-11.2c6.5-27.6,1.6-60.9,1.6-60.9
					S36.5,119.1,21.1,117.1z"/>
				<path class="st2" d="M38,242c-0.2,0-0.4-0.1-0.6-0.2l-2-1.4c0,0-0.1-0.1-0.1-0.1c-3.1-3-2.2-6.2-2.2-6.3
					c0.2-0.5,0.7-0.8,1.2-0.7c0.5,0.2,0.8,0.7,0.7,1.2c0,0.1-0.5,2.1,1.6,4.3l2,1.4c0.4,0.3,0.6,0.9,0.2,1.4
					C38.6,241.9,38.3,242,38,242z"/>
				<path class="st2" d="M23.7,245.7c-0.2,0-0.5-0.1-0.7-0.2l-1.9-1.6c-3.1-3-2.6-7-2.6-7.1c0.1-0.5,0.6-0.9,1.1-0.9
					c0.5,0.1,0.9,0.6,0.9,1.1c0,0.1-0.4,3.1,1.9,5.4l1.8,1.6c0.4,0.4,0.5,1,0.1,1.4C24.3,245.6,24,245.7,23.7,245.7z"/>
			</g>
		</g>
		<g id="오른팔_6_">
			<defs>
				<path id="SVGID_00000080194136731041327450000014533936766729074314_" d="M193.5,117.1c0,0,30.7,35.4,13.7,88.3
					c-0.5,1.7-1.2,3.4-1.9,5c-1,2.5-2.7,8.5-0.1,16.3c0,0,6.5,17.6-2.7,19.5c0,0-5.5,2-9.4-4.8c0,0-0.2,0.3-0.6,0.7
					c-4.3,4.6-12.5,2.5-13.9-3.4c0-0.1,0-0.2-0.1-0.3c0,0-3.5,1.9-8.1,0.6c-2.7-0.8-4.8-2.9-4.8-5.5c0,0-0.7-3.4,3.9-8.3
					c2.5-2.7,4.8-5.6,6-9c1.1-3.2,1.8-7.1,0.8-11.2c-6.5-27.6-1.6-60.9-1.6-60.9S178.1,119.1,193.5,117.1z"/>
			</defs>
			<clipPath id="SVGID_00000170275270547952394850000018362458646136333488_">
				<use xlink:href="#SVGID_00000080194136731041327450000014533936766729074314_"  style="overflow:visible;"/>
			</clipPath>
			<g style="clip-path:url(#SVGID_00000170275270547952394850000018362458646136333488_);">
				<path class="st1" d="M193.5,117.1c0,0,30.7,35.4,13.7,88.3c-0.5,1.7-1.2,3.4-1.9,5c-1,2.5-2.7,8.5-0.1,16.3
					c0,0,6.5,17.6-2.7,19.5c0,0-5.5,2-9.4-4.8c0,0-0.2,0.3-0.6,0.7c-4.3,4.6-12.5,2.5-13.9-3.4c0-0.1,0-0.2-0.1-0.3
					c0,0-3.5,1.9-8.1,0.6c-2.7-0.8-4.8-2.9-4.8-5.5c0,0-0.7-3.4,3.9-8.3c2.5-2.7,4.8-5.6,6-9c1.1-3.2,1.8-7.1,0.8-11.2
					c-6.5-27.6-1.6-60.9-1.6-60.9S178.1,119.1,193.5,117.1z"/>
				<path class="st2" d="M176.6,242c-0.3,0-0.6-0.1-0.8-0.4c-0.3-0.4-0.2-1.1,0.2-1.4l2-1.4c2.1-2.1,1.6-4.2,1.6-4.3
					c-0.1-0.5,0.2-1.1,0.7-1.2c0.5-0.1,1.1,0.2,1.2,0.7c0,0.1,0.9,3.3-2.2,6.3c0,0-0.1,0.1-0.1,0.1l-2,1.4
					C177,242,176.8,242,176.6,242z M178.7,239.6L178.7,239.6L178.7,239.6z"/>
				<path class="st2" d="M190.9,245.7c-0.3,0-0.6-0.1-0.8-0.3c-0.4-0.4-0.3-1,0.1-1.4l1.9-1.6c2.2-2.2,1.9-5.2,1.9-5.3
					c-0.1-0.5,0.3-1,0.9-1.1c0.5-0.1,1,0.3,1.1,0.9c0,0.2,0.5,4.1-2.5,7.1l-1.9,1.7C191.3,245.6,191.1,245.7,190.9,245.7z"/>
			</g>
		</g>
		<path id="하체_6_" class="st1" d="M107.4,257.7c7.3,3.9,4.7,26,4.7,26c-2.3,14.5,1,30.8,3.1,38.8c0.7,2.5,1.6,5,2.6,7.4
			c5.5,12.7,5.1,37.6,5.1,37.6c0.5,9.5-4.4,13.8-4.4,13.8c-8.1,6.4-5.1,12.1-5.1,12.1c2.5,4.8,7.6,1.4,7.6,1.4
			c0.1,1.5,0.8,2.6,1.6,3.3c1.3,1.2,3.1,1.7,4.9,1.4c4-0.5,4.9-3.4,4.9-3.4c2.4,4.1,6.3,3.9,6.3,3.9c6.2,0,6.4-4.5,6.4-4.5
			c1,1.5,2.2,2.3,3.3,2.7c1.6,0.7,3.5,0.7,5-0.2c2.6-1.4,2.6-4.2,2.6-4.2c5.3,0.1,3.4-5.8-0.6-8.3c-0.9-0.6-1.8-1.2-2.5-2
			c-1.4-1.5-3.5-4.2-5.5-8.5c-4.5-16.1,11.3-44.9,11.3-44.9c11-20.5,11.1-37.4,9.3-47.8c-0.8-4.7-2.4-9.3-4.8-13.5
			c-12.3-22.2-10.6-42.9-10.6-42.9s1.4-19.7,6-27.6H56c4.6,7.9,6,27.6,6,27.6s1.7,20.7-10.6,42.9c-2.3,4.2-4,8.8-4.8,13.5
			c-1.8,10.4-1.7,27.4,9.3,47.8c0,0,15.8,28.8,11.3,44.9c-2,4.3-4.1,7-5.5,8.5c-0.7,0.8-1.6,1.4-2.5,2c-4,2.4-5.9,8.4-0.6,8.3
			c0,0,0.1,2.8,2.6,4.2c1.5,0.8,3.4,0.9,5,0.2c1.1-0.5,2.3-1.3,3.3-2.7c0,0,0.3,4.4,6.4,4.5c0,0,3.9,0.1,6.3-3.9c0,0,1,2.9,4.9,3.4
			c1.8,0.2,3.6-0.2,4.9-1.4c0.8-0.7,1.5-1.8,1.6-3.3c0,0,5,3.4,7.6-1.4c0,0,3.1-5.7-5.1-12.1c0,0-4.8-4.2-4.4-13.8
			c0,0-0.4-24.9,5.1-37.6c1-2.4,2-4.8,2.6-7.4c2.1-8,5.5-24.4,3.1-38.8C102.7,283.7,100.1,261.7,107.4,257.7"/>
		<g>
			<defs>
				<path id="하체_5_" d="M107.4,257.7c-7.3,3.9-4.7,26-4.7,26c2.3,14.5-1,30.8-3.1,38.8c-0.7,2.5-1.6,5-2.6,7.4
					c-5.5,12.7-5.1,37.6-5.1,37.6c-0.5,9.5,4.4,13.8,4.4,13.8c8.1,6.4,5.1,12.1,5.1,12.1c-2.5,4.8-7.6,1.4-7.6,1.4
					c-0.1,1.5-0.8,2.6-1.6,3.3c-1.3,1.2-3.1,1.7-4.9,1.4c-4-0.5-4.9-3.4-4.9-3.4c-2.4,4.1-6.3,3.9-6.3,3.9c-6.2,0-6.4-4.5-6.4-4.5
					c-1,1.5-2.2,2.3-3.3,2.7c-1.6,0.7-3.5,0.7-5-0.2c-2.6-1.4-2.6-4.2-2.6-4.2c-5.3,0.1-3.4-5.8,0.6-8.3c0.9-0.6,1.8-1.2,2.5-2
					c1.4-1.5,3.5-4.2,5.5-8.5c4.5-16.1-11.3-44.9-11.3-44.9c-11-20.5-11.1-37.4-9.3-47.8c0.8-4.7,2.4-9.3,4.8-13.5
					C63.7,246.8,61.9,226,61.9,226s-1.4-19.7-6-27.6h102.9c-4.6,7.9-6,27.6-6,27.6s-1.7,20.7,10.6,42.9c2.3,4.2,4,8.8,4.8,13.5
					c1.8,10.4,1.7,27.4-9.3,47.8c0,0-15.8,28.8-11.3,44.9c2,4.3,4.1,7,5.5,8.5c0.7,0.8,1.6,1.4,2.5,2c4,2.4,5.9,8.4,0.6,8.3
					c0,0-0.1,2.8-2.6,4.2c-1.5,0.8-3.4,0.9-5,0.2c-1.1-0.5-2.3-1.3-3.3-2.7c0,0-0.3,4.4-6.4,4.5c0,0-3.9,0.1-6.3-3.9
					c0,0-1,2.9-4.9,3.4c-1.8,0.2-3.6-0.2-4.9-1.4c-0.8-0.7-1.5-1.8-1.6-3.3c0,0-5,3.4-7.6-1.4c0,0-3.1-5.7,5.1-12.1
					c0,0,4.8-4.2,4.4-13.8c0,0,0.4-24.9-5.1-37.6c-1-2.4-2-4.8-2.6-7.4c-2.1-8-5.5-24.4-3.1-38.8
					C112.1,283.7,114.7,261.7,107.4,257.7"/>
			</defs>
			<clipPath id="하체_00000091703174839432780650000018256364560300970384_">
				<use xlink:href="#하체_5_"  style="overflow:visible;"/>
			</clipPath>
			<g id="왼쪽_발톱_2_" style="clip-path:url(#하체_00000091703174839432780650000018256364560300970384_);">
				<path class="st2" d="M57.8,395.7C57.8,395.7,57.8,395.7,57.8,395.7c-0.6,0-1-0.5-1-1c0.1-5.2,4.5-7.1,4.6-7.2
					c0.5-0.2,1.1,0,1.3,0.5c0.2,0.5,0,1.1-0.5,1.3l0,0c-0.1,0.1-3.3,1.5-3.4,5.4C58.8,395.3,58.3,395.7,57.8,395.7z"/>
				<path class="st2" d="M69,398.1c-0.4,0-0.8-0.3-1-0.7c-1.4-5.1,2.2-8.1,2.4-8.2c0.4-0.4,1.1-0.3,1.4,0.1c0.3,0.4,0.3,1.1-0.1,1.4
					c-0.1,0.1-2.8,2.4-1.7,6.2c0.1,0.5-0.2,1.1-0.7,1.2C69.2,398.1,69.1,398.1,69,398.1z"/>
				<path class="st2" d="M81.8,398.4c-0.4,0-0.8-0.2-0.9-0.6c-1.9-4.9,1.3-8.3,1.5-8.5c0.4-0.4,1-0.4,1.4,0c0.4,0.4,0.4,1,0,1.4
					c-0.1,0.1-2.5,2.7-1,6.3c0.2,0.5,0,1.1-0.6,1.3C82,398.4,81.9,398.4,81.8,398.4z"/>
				<path class="st2" d="M94.2,397.8c-0.3,0-0.5-0.1-0.7-0.3c-3.7-3.8-1.9-8.2-1.9-8.4c0.2-0.5,0.8-0.8,1.3-0.6
					c0.5,0.2,0.8,0.8,0.6,1.3l0,0c-0.1,0.1-1.3,3.4,1.4,6.2c0.4,0.4,0.4,1,0,1.4C94.7,397.7,94.4,397.8,94.2,397.8z"/>
			</g>
			<g id="오른쪽_발톱_2_" style="clip-path:url(#하체_00000091703174839432780650000018256364560300970384_);">
				<path class="st2" d="M157,395.7c-0.5,0-1-0.4-1-1c-0.1-3.9-3.3-5.3-3.4-5.4c-0.5-0.2-0.7-0.8-0.5-1.3c0.2-0.5,0.8-0.7,1.3-0.5
					c0.2,0.1,4.5,2,4.6,7.2C158,395.2,157.5,395.7,157,395.7C157,395.7,157,395.7,157,395.7z"/>
				<path class="st2" d="M145.8,398.1c-0.1,0-0.2,0-0.3,0c-0.5-0.1-0.8-0.7-0.7-1.2c1.1-3.8-1.7-6.1-1.7-6.2c-0.4-0.3-0.5-1-0.1-1.4
					c0.3-0.4,1-0.5,1.4-0.1c0.2,0.1,3.8,3.2,2.4,8.2C146.6,397.8,146.2,398.1,145.8,398.1z"/>
				<path class="st2" d="M133,398.4c-0.1,0-0.2,0-0.4-0.1c-0.5-0.2-0.8-0.8-0.6-1.3c1.5-3.7-1-6.3-1-6.3c-0.4-0.4-0.4-1,0-1.4
					c0.4-0.4,1-0.4,1.4,0c0.1,0.1,3.4,3.6,1.5,8.5C133.8,398.2,133.4,398.4,133,398.4z"/>
				<path class="st2" d="M120.6,397.8c-0.3,0-0.5-0.1-0.7-0.3c-0.4-0.4-0.4-1,0-1.4c2.7-2.8,1.5-6.1,1.4-6.2
					c-0.2-0.5,0.1-1.1,0.6-1.3c0.5-0.2,1.1,0,1.3,0.6c0.1,0.2,1.8,4.6-1.9,8.4C121.1,397.7,120.9,397.8,120.6,397.8z"/>
			</g>
		</g>
		<path id="_x31_단_3_" class="st5" d="M107.3,244.9c-7.8,0.2-9.7,2.9-12.9,5c-1.1,0.8-2.8,0.9-3.3-0.3c-2.2-5.3-0.7-11.4,0.4-14.6
			c0.4-1.1-1-2-2.3-1.7c-6.9,1.8-11.6,7.7-13.9,11.3c-0.7,1.1-2.9,1-3.3-0.2c-3.1-8,0.2-16.3,2.3-20.2c0.6-1.1-0.7-2.2-2.1-1.9
			c-7.5,1.7-13.5,7.1-16.4,10.1c-0.9,0.9-2.7,0.7-3.2-0.4c-2.8-6.9,0.4-15.1,2.1-18.7c0.4-0.9-0.5-1.9-1.8-1.9
			c-10.7,0.3-16.8,4.4-19.6,7.1c-0.9,0.9-2.8,0.5-3.1-0.6C25.6,201,54,173,54,173h106.6c0,0,28.4,28,23.8,45.1
			c-0.3,1.1-2.2,1.5-3.1,0.6c-2.9-2.7-8.9-6.8-19.6-7.1c-1.3,0-2.2,0.9-1.8,1.9c1.7,3.6,4.9,11.8,2.1,18.7c-0.4,1.1-2.3,1.4-3.2,0.4
			c-2.9-3-8.9-8.5-16.4-10.1c-1.4-0.3-2.7,0.8-2.1,1.9c2.1,3.9,5.4,12.2,2.3,20.2c-0.5,1.2-2.6,1.4-3.3,0.2
			c-2.3-3.7-7-9.5-13.9-11.3c-1.3-0.3-2.7,0.6-2.3,1.7c1.1,3.2,2.6,9.3,0.4,14.6c-0.5,1.2-2.2,1.1-3.3,0.3
			C117.1,247.8,115.1,245.1,107.3,244.9"/>
		<path id="_x32_단_2_" class="st6" d="M107.3,204.7c-6.3,1.6-10.3,6.3-12.4,9.2c-0.7,0.9-2.3,0.8-2.7-0.3
			c-2.9-7.9-1.1-14.5,0.5-18.2c0.5-1.1-0.8-2.2-2.1-1.7c-8.8,3.7-14.4,9.3-16.9,12.2c-0.7,0.8-2.3,0.6-2.6-0.4
			c-2.9-7.5-0.5-15.5,1-19.3c0.4-1.1-0.8-2.1-2-1.7c-7.7,2.6-15.1,10.1-18.4,13.8c-0.8,0.9-2.4,0.5-2.7-0.6
			c-1.7-7.6,2.3-16.7,4.2-20.5c0.5-0.9-0.4-2-1.6-1.8c-6.8,0.7-15.8,8-19.5,11.3c-0.9,0.8-2.3,0.4-2.6-0.7
			c-1.4-6.4,2.9-14.2,5.2-17.9c0.6-0.9-0.3-2.1-1.5-1.9c-8.1,1-14.4,5.5-17.6,8.4c-1,0.8-2.6,0.3-2.6-0.9
			c0.3-19.9,22.1-37.4,22.1-37.4h144.2c0,0,21.9,17.6,22.1,37.4c0,1.2-1.6,1.8-2.6,0.9c-3.2-2.9-9.5-7.4-17.6-8.4
			c-1.2-0.1-2.1,1-1.5,1.9c2.4,3.7,6.6,11.5,5.2,17.9c-0.2,1.1-1.7,1.5-2.6,0.7c-3.7-3.3-12.7-10.6-19.5-11.3
			c-1.2-0.1-2.1,0.9-1.6,1.8c1.9,3.8,5.9,12.9,4.2,20.5c-0.3,1.1-1.9,1.5-2.7,0.6c-3.3-3.7-10.7-11.2-18.4-13.8
			c-1.2-0.4-2.4,0.6-2,1.7c1.6,3.9,4,11.8,1,19.3c-0.4,1-1.9,1.2-2.6,0.4c-2.5-2.9-8.1-8.5-16.9-12.2c-1.2-0.5-2.6,0.6-2.1,1.7
			c1.6,3.7,3.5,10.3,0.5,18.2c-0.4,1.1-2,1.2-2.7,0.3C117.6,211,113.6,206.3,107.3,204.7"/>
		<path id="_x33_단_2_" class="st7" d="M107.3,159.7c-11.1,0.5-16.6,4-19.1,6.6c-0.8,0.9-2.3,0.3-2.4-0.9
			c-0.2-6.2,1.9-9.7,3.4-11.4c0.4-0.5,0-1.2-0.6-1.1c-10.8,0.5-15.9,5.5-18.1,8.4c-0.7,0.9-2.1,0.7-2.4-0.4
			c-1.3-4.5,0.1-9.7,1.1-12.4c0.3-1-0.4-1.9-1.4-1.8c-7.6,0.6-13.6,6-16.6,9.4c-0.9,1-2.4,0.3-2.4-1c0.1-5.2,2.6-10.5,4.2-13.5
			c0.6-1-0.3-2.2-1.4-2c-9.1,1.6-15.9,8.1-19,11.7c-0.8,0.9-2.3,0.4-2.4-0.8c-0.4-6.6,2.4-11.6,4.3-14.1c0.7-0.9,0-2.2-1.1-2.2
			c-6.5-0.1-14,4.8-17.8,7.6c-1,0.8-2.4-0.2-2.2-1.4c1.2-5.1,4.9-9.7,7.6-12.4c0.9-0.9,0.2-2.4-1.1-2.3c-7.9,0.7-13.9,4.4-17.5,7.3
			c-1.1,0.9-2.7-0.2-2.2-1.6c14.6-38.2,77.3-27.8,77.3-27.8h59.7c0,0,62.7-10.4,77.3,27.8c0.5,1.3-1.1,2.4-2.2,1.6
			c-3.6-2.9-9.7-6.7-17.5-7.3c-1.3-0.1-2,1.4-1.1,2.3c2.6,2.7,6.4,7.2,7.6,12.4c0.3,1.2-1.1,2.2-2.2,1.4c-3.8-2.8-11.4-7.6-17.8-7.6
			c-1.1,0-1.8,1.3-1.1,2.2c1.9,2.5,4.7,7.5,4.3,14.1c-0.1,1.2-1.6,1.8-2.4,0.8c-3.1-3.6-9.9-10.1-19-11.7c-1.1-0.2-2,1-1.4,2
			c1.6,2.9,4.1,8.2,4.2,13.5c0,1.3-1.5,1.9-2.4,1c-3-3.3-8.9-8.8-16.6-9.4c-1-0.1-1.8,0.9-1.4,1.8c1,2.7,2.4,7.9,1.1,12.4
			c-0.3,1.1-1.8,1.3-2.4,0.4c-2.1-3-7.3-7.9-18.1-8.4c-0.6,0-1,0.7-0.6,1.1c1.4,1.7,3.6,5.2,3.4,11.4c0,1.2-1.5,1.8-2.4,0.9
			C123.9,163.7,118.4,160.2,107.3,159.7"/>
	</g>
	<g id="머리_6_">
		<g>
			<path class="st8" d="M168.4,68.1c8-8.4-3.8-16.7-3.8-16.7c-5.3-4.5-5.5-10.4-5.3-13c0.2-2.3,0.1-4.7-0.4-7
				c-2.9-12.3-14.8-18-14.8-18c-18.2-8-36.7,2.9-36.7,2.9S88.9,5.5,70.6,13.4c0,0-11.9,5.7-14.8,18c-0.5,2.3-0.6,4.7-0.4,7
				c0.2,2.6,0,8.5-5.3,13c0,0-11.8,8.3-3.8,16.7c0,0,2.1,1.2-0.9,5.4c0,0-2.9,7.5,3.5,7.9c0,0-1.2,2.9,1.7,5.2c0,0,3.2,2.1,1.1,7.9
				c0,0-1.8,8,7,7.1c0,0-1.1,7.9,6.4,8.4c0,0,5.1-0.4,6.1-4.8c0,0-0.9,6,2,6.9c0,0,3.3,2.3-0.3,7.5c0,0-2.9,5.3,6.8,6
				c0,0-1.1,6.3,1.9,7.1c0,0,3.9,0.5,3.9,4.8c0,0,0.3,2.7,4.8,2.7c0,0,5.9,0.2,6.8-5.9c0,0,5.5-0.2,4.8,4.2c0,0-1.9,7.2,5.4,7.9
				c7.4-0.7,5.4-7.9,5.4-7.9c-0.7-4.4,4.8-4.2,4.8-4.2c1,6.2,6.8,5.9,6.8,5.9c4.5,0.1,4.8-2.7,4.8-2.7c0-4.3,3.9-4.8,3.9-4.8
				c2.9-0.8,1.9-7.1,1.9-7.1c9.7-0.7,6.8-6,6.8-6c-3.6-5.2-0.3-7.5-0.3-7.5c2.9-0.9,2-6.9,2-6.9c1.1,4.4,6.1,4.8,6.1,4.8
				c7.5-0.5,6.4-8.4,6.4-8.4c8.8,0.9,7-7.1,7-7.1c-2.1-5.7,1.1-7.9,1.1-7.9c2.9-2.2,1.7-5.2,1.7-5.2c6.4-0.4,3.5-7.9,3.5-7.9
				C166.3,69.3,168.4,68.1,168.4,68.1z"/>
		</g>
		<g>
			<defs>
				<path id="SVGID_00000179616337064909045440000004177322595040525460_" d="M168.4,68.1c8-8.4-3.8-16.7-3.8-16.7
					c-5.3-4.5-5.5-10.4-5.3-13c0.2-2.3,0.1-4.7-0.4-7c-2.9-12.3-14.8-18-14.8-18c-18.2-8-36.7,2.9-36.7,2.9S88.9,5.5,70.6,13.4
					c0,0-11.9,5.7-14.8,18c-0.5,2.3-0.6,4.7-0.4,7c0.2,2.6,0,8.5-5.3,13c0,0-11.8,8.3-3.8,16.7c0,0,2.1,1.2-0.9,5.4
					c0,0-2.9,7.5,3.5,7.9c0,0-1.2,2.9,1.7,5.2c0,0,3.2,2.1,1.1,7.9c0,0-1.8,8,7,7.1c0,0-1.1,7.9,6.4,8.4c0,0,5.1-0.4,6.1-4.8
					c0,0-0.9,6,2,6.9c0,0,3.3,2.3-0.3,7.5c0,0-2.9,5.3,6.8,6c0,0-1.1,6.3,1.9,7.1c0,0,3.9,0.5,3.9,4.8c0,0,0.3,2.7,4.8,2.7
					c0,0,5.9,0.2,6.8-5.9c0,0,5.5-0.2,4.8,4.2c0,0-1.9,7.2,5.4,7.9c7.4-0.7,5.4-7.9,5.4-7.9c-0.7-4.4,4.8-4.2,4.8-4.2
					c1,6.2,6.8,5.9,6.8,5.9c4.5,0.1,4.8-2.7,4.8-2.7c0-4.3,3.9-4.8,3.9-4.8c2.9-0.8,1.9-7.1,1.9-7.1c9.7-0.7,6.8-6,6.8-6
					c-3.6-5.2-0.3-7.5-0.3-7.5c2.9-0.9,2-6.9,2-6.9c1.1,4.4,6.1,4.8,6.1,4.8c7.5-0.5,6.4-8.4,6.4-8.4c8.8,0.9,7-7.1,7-7.1
					c-2.1-5.7,1.1-7.9,1.1-7.9c2.9-2.2,1.7-5.2,1.7-5.2c6.4-0.4,3.5-7.9,3.5-7.9C166.3,69.3,168.4,68.1,168.4,68.1z"/>
			</defs>
			<clipPath id="SVGID_00000175318781433896117470000013034991758000733343_">
				<use xlink:href="#SVGID_00000179616337064909045440000004177322595040525460_"  style="overflow:visible;"/>
			</clipPath>
			<g style="clip-path:url(#SVGID_00000175318781433896117470000013034991758000733343_);">
				<path class="st2" d="M53.5,73.7c5.4-6.3,2.7-11.8,2.1-12.7c-2-5.9,0.7-9.2,0.8-9.4l-0.8-0.6l-0.8-0.6c-0.1,0.2-3.6,4.3-1.1,11.4
					l0.1,0.2c0.1,0.2,3,4.8-1.9,10.5c-0.5,0.6-1.1,1.2-1.5,2c-1.5,2.3-4.8,8.2-2.9,14.3l1.9-0.6c-1.6-5.3,1.3-10.6,2.7-12.6
					C52.5,74.9,53,74.3,53.5,73.7z"/>
				<path class="st2" d="M69.3,79.3c0.5,1.8,1.6,3.1,3.2,3.7c0.7,0.3,1.4,0.4,2,0.4c1.5,0,3-0.7,4-1.9c0.9-1.1,1.7-3,1-6
					c-0.2-0.9-0.6-1.8-1.2-2.8c-0.9-1.5-2.3-4.6-0.7-8.2l-1.8-0.8c-2,4.5,0,8.5,0.9,10c0.5,0.8,0.8,1.5,1,2.2
					c0.4,1.8,0.2,3.2-0.6,4.3c-0.8,1-2.4,1.4-3.7,0.9c-1-0.4-1.7-1.2-2.1-2.4c-0.2-0.7-0.2-1.4-0.1-2.3c0.5-4.5-0.3-6.7-1.1-7.7
					c1.2-1.3,2.5-3.5,2-7c-0.2-1-0.5-2.1-1.1-3.2c-0.8-1.5-2.6-5.3-0.9-7.7l-1.6-1.1c-2.3,3.2-0.4,7.6,0.8,9.8
					c0.5,0.9,0.8,1.7,0.9,2.5c0.4,2.6-0.3,4.6-2.1,5.9c-0.8,0.6-1.8,0.8-2.7,0.7c-1.5-0.2-2.5-0.7-3.1-1.7c-1.3-1.9-0.6-4.8-0.6-4.8
					c0,0,0,0,0,0c2-5.7-1.1-8.6-1.2-8.8l-1.4,1.5c0,0,2.2,2.1,0.6,6.7c0,0.2-0.9,3.8,0.9,6.5c1,1.4,2.5,2.3,4.5,2.6
					c0.3,0,0.5,0.1,0.8,0.1c1,0,1.9-0.2,2.7-0.7c0.5,0.6,1.2,2.2,0.7,6.3C69,77.4,69.1,78.4,69.3,79.3z"/>
				<path class="st2" d="M63.1,78.7c-0.6-2.7,2.5-4.4,2.7-4.4l-0.5-0.9l-0.5-0.9c-1.7,0.8-4.5,3.3-3.7,6.8l0,0.2l0.1,0.1
					c0,0,2.6,4.1,0.1,6.9c0,0-0.1,0-0.1,0.1c-3.1,2.1-4.6,5.9-3.5,9.7c0.7,2.4,1,7.3-4.5,13.2l1.5,1.4c6.2-6.6,5.8-12.3,5-15.1
					c-0.8-2.9,0.3-5.9,2.7-7.5l0.4-0.3C66.2,84.4,63.7,79.6,63.1,78.7z"/>
				<path class="st2" d="M60.6,47.9c-0.3-13,2.9-22.6,9.4-28.6c5.6-5.1,12.4-6.3,16.5-6.5c-4.1,0.7-10.6,2.6-15.7,8.1
					c-5.8,6.2-8.3,15.4-7.4,27.1l2-0.2c-0.9-11.2,1.4-19.8,6.8-25.6c4.3-4.6,9.8-6.5,13.6-7.3c-2.9,0.9-6.6,2.8-9.9,6.2
					c-5.6,5.9-8.2,14.8-7.8,26.3l2-0.1c-0.4-11,2-19.3,7.2-24.8c6-6.4,13.9-6.7,13.9-6.7l0-2c-0.1,0-0.3,0-0.7,0l0-1.5
					c-0.1,0-0.3,0-0.6,0l0.2-1.6c-0.5-0.1-12.4-1.4-21.5,7c-7,6.4-10.4,16.5-10.1,30.1L60.6,47.9z"/>
				<path class="st2" d="M72.3,100.6c-0.2-0.8,0-1.9,0.4-3c0.6-1.6,0.7-3.2,0.4-4.7c-0.6-3.2-2.7-5.1-2.8-5.2L69,89.1
					c0,0,1.7,1.6,2.2,4.1c0.2,1.1,0.1,2.4-0.4,3.7c-0.4,1.1-0.8,2.6-0.5,4.1c0.1,0.6,0.3,1.4,0.2,2.1c-0.2,2.7-1.3,7.8-6.4,10.4
					l0.9,1.8c6-3.1,7.3-8.9,7.5-12C72.6,102.3,72.5,101.3,72.3,100.6z"/>
				<path class="st2" d="M164.3,74.4c-0.4-0.7-0.9-1.3-1.5-2c-4.9-5.7-2-10.3-1.9-10.5l0.1-0.2c2.5-7.1-1-11.3-1.1-11.4l-1.5,1.3
					c0.1,0.1,2.8,3.5,0.8,9.4c-0.5,0.9-3.3,6.5,2.1,12.7c0.5,0.6,1,1.2,1.4,1.8c1.3,2,4.3,7.3,2.7,12.6l1.9,0.6
					C169,82.6,165.8,76.6,164.3,74.4z"/>
				<path class="st2" d="M155.2,54l-0.7-0.7c-0.1,0.1-3.2,3-1.2,8.7c0,0,0.7,3-0.6,4.9c-0.6,0.9-1.7,1.5-3.1,1.7
					c-1,0.1-2-0.1-2.7-0.7c-1.8-1.3-2.5-3.3-2.1-5.9c0.1-0.8,0.4-1.6,0.9-2.5c1.3-2.3,3.1-6.6,0.8-9.8l-1.6,1.1
					c1.7,2.4-0.1,6.2-0.9,7.7c-0.6,1.1-1,2.1-1.1,3.2c-0.5,3.6,0.7,5.8,2,7c-0.8,1.1-1.6,3.3-1.1,7.7c0.1,0.9,0.1,1.6-0.1,2.3
					c-0.4,1.2-1.1,2-2.1,2.4c-1.3,0.5-2.9,0.2-3.7-0.9c-0.8-1-1-2.5-0.6-4.3c0.2-0.7,0.5-1.4,1-2.2c0.9-1.5,2.8-5.4,0.9-10l-1.8,0.8
					c1.5,3.6,0.2,6.6-0.7,8.2c-0.6,1-1,1.9-1.2,2.8c-0.7,3,0.2,4.9,1,6c1,1.2,2.5,1.9,4,1.9c0.7,0,1.4-0.1,2-0.4
					c1.6-0.7,2.7-1.9,3.2-3.7c0.3-0.9,0.3-2,0.2-3.1c-0.5-4.1,0.3-5.7,0.7-6.3c0.8,0.4,1.8,0.7,2.7,0.7c0.3,0,0.5,0,0.8-0.1
					c2-0.3,3.6-1.1,4.5-2.6c1.8-2.7,0.9-6.4,0.8-6.6c-1.6-4.4,0.6-6.5,0.7-6.6L155.2,54z"/>
				<path class="st2" d="M157,96.2c1-3.7-0.4-7.6-3.5-9.7c0,0-0.1-0.1-0.1-0.1c-2.5-2.7,0-6.7,0.1-6.9l0.1-0.1l0-0.2
					c0.9-3.5-2-6-3.7-6.8l-0.9,1.8c0.1,0.1,3.2,1.7,2.7,4.4c-0.5,0.9-3,5.7,0.3,9.3l0.4,0.3c2.4,1.6,3.5,4.6,2.7,7.5
					c-0.8,2.8-1.2,8.5,5,15.1l1.5-1.4C156,103.5,156.3,98.6,157,96.2z"/>
				<path class="st2" d="M144.6,47.5l2,0.1c0.4-11.5-2.2-20.4-7.8-26.3c-3.3-3.5-6.9-5.3-9.9-6.2c3.8,0.8,9.3,2.7,13.6,7.3
					c5.4,5.8,7.7,14.4,6.8,25.6l2,0.2c1-11.8-1.5-20.9-7.4-27.1c-5.1-5.5-11.6-7.4-15.7-8.1c4.1,0.2,10.9,1.4,16.5,6.5
					c6.5,5.9,9.7,15.6,9.4,28.6l2,0c0.3-13.6-3.1-23.8-10.1-30.1c-9.2-8.3-21-7-21.5-7l0.2,1.6c-0.3,0-0.5,0-0.6,0l0,1.5
					c-0.4,0-0.6,0-0.7,0l0,2c0.1,0,7.8,0.2,13.9,6.6C142.6,28.1,145,36.5,144.6,47.5z"/>
				<path class="st2" d="M144.2,103.1c-0.1-0.7,0.1-1.5,0.2-2.1c0.3-1.5-0.1-3-0.5-4.1c-0.5-1.3-0.6-2.5-0.4-3.7
					c0.5-2.5,2.2-4.1,2.2-4.1l-0.7-0.7l-0.7-0.7c-0.1,0.1-2.2,2-2.8,5.2c-0.3,1.5-0.1,3.1,0.4,4.7c0.4,1.2,0.6,2.2,0.4,3
					c-0.2,0.8-0.3,1.7-0.2,2.7c0.2,3.2,1.5,8.9,7.5,12l0.9-1.8C145.5,110.9,144.4,105.9,144.2,103.1z"/>
				<path class="st2" d="M128.6,121.8c-1.3-1.8-0.7-4-0.2-5.2c0.2-0.5,0.5-1,0.9-1.6c4.3-6,1.1-10.2,0.5-10.8
					c-1.9-2.6,0-5.6,1.9-7.7c3-3.3,3.2-8.2,0.6-11.8c-0.2-0.3-0.3-0.4-0.3-0.4l-1.5,1.3c0,0,0.1,0.1,0.2,0.3
					c2.1,2.8,1.9,6.6-0.5,9.2c-3.4,3.7-4.2,7.4-2.1,10.3l0.1,0.1c0,0,3,3.2-0.7,8.3c-0.5,0.7-0.9,1.4-1.2,2
					c-0.5,1.3-1.2,3.6-0.3,5.7c0.6,4.2-0.2,5.3-0.6,5.5c-0.7,0.5-2.1-0.2-2.6-0.5c-2.3-2.1-4.9-1.2-6-0.5l-0.1,0.1
					c-0.1,0.1-0.2,0.1-0.2,0.2c-0.7,0.5-1.5,0.5-2.2,0.1c-0.8-0.4-1.3-1.2-1.4-2c-0.1-3.1,1.7-7.3,1.7-7.5c1.6-4.8,0.6-8.6,0.2-9.9
					c1.9-3.1,0.6-6.7,0.5-6.9c-2.3-5,2.8-7.6,3-7.7l0.2-0.2c4.5-4.2,2-9.7,0.1-12l-1.5,1.3c0.2,0.2,4.3,5.2,0.2,9.1
					c-2.5,1.3-6.3,4.9-3.9,10.2c0,0,1,2.9-0.4,5.2c-1,1.6-3,2.5-5.9,2.9c-2.9-0.3-4.9-1.3-5.9-2.9c-1.4-2.2-0.4-5.1-0.4-5.1
					c0,0,0,0,0,0c2.5-5.3-1.4-9-3.8-10.3c-4.1-3.9,0-8.9,0.2-9.1l-0.8-0.6l-0.8-0.6c-2,2.3-4.5,7.8,0.1,12l0.2,0.2
					c0.2,0.1,5.3,2.7,3,7.8c-0.1,0.2-1.3,3.8,0.6,6.8c-0.5,1.4-1.4,5.1,0.2,10c0,0,1.8,4.3,1.7,7.4c0,0.9-0.5,1.6-1.4,2
					c-0.8,0.4-1.6,0.3-2.2-0.1c-0.1-0.1-0.2-0.1-0.2-0.2l-0.1-0.1c-1.1-0.7-3.7-1.6-6,0.5c-0.5,0.3-1.9,1-2.6,0.5
					c-0.4-0.3-1.2-1.3-0.6-5.5c0.9-2.2,0.2-4.5-0.3-5.7c-0.3-0.6-0.6-1.3-1.2-2c-3.6-5.1-0.8-8.2-0.7-8.3l0.1-0.1
					c2.1-2.9,1.4-6.6-2.1-10.3c-2.3-2.6-2.5-6.4-0.5-9.2c0.1-0.2,0.2-0.3,0.2-0.3L83.4,85l-0.8-0.7c0,0-0.1,0.1-0.3,0.4
					c-2.7,3.5-2.4,8.5,0.6,11.8c1.9,2.1,3.8,5.1,1.9,7.7c-0.5,0.6-3.8,4.8,0.5,10.8c0.4,0.6,0.7,1.1,0.9,1.6
					c0.5,1.2,1.1,3.4-0.2,5.2c-1.3,1.7-4.7,3.5-14.2,2.6l-0.2,2c1.7,0.2,3.3,0.2,4.7,0.2c4.5,0,7.8-0.8,9.9-2.3
					c0,2.2,0.6,3.7,1.8,4.5c0.6,0.4,1.1,0.5,1.7,0.5c1.5,0,2.9-0.9,3.1-1l0.1-0.1c1.1-1,2.2-0.9,2.9-0.6c-0.5,1.9-1.2,6.5,2.1,9.4
					l1.3-1.5c-2.2-1.9-1.9-5.1-1.6-6.9c1.1,0.4,2.3,0.4,3.4-0.2c1.5-0.7,2.4-2.2,2.5-3.8c0.1-3.6-1.8-8.1-1.8-8.2
					c-1.1-3.3-0.8-6-0.5-7.5c1.5,1.1,3.5,1.9,6.1,2.1c2.5-0.3,4.6-1,6.1-2.1c0.3,1.6,0.6,4.3-0.4,7.5c-0.1,0.2-2,4.7-1.8,8.2
					c0.1,1.6,1,3,2.5,3.8c1.1,0.5,2.3,0.6,3.4,0.2c0.3,1.7,0.6,5-1.6,6.9l1.3,1.5c3.3-2.9,2.5-7.5,2.1-9.4c0.7-0.2,1.8-0.4,2.9,0.6
					l0.1,0.1c0.2,0.1,1.6,1,3.1,1c0.6,0,1.2-0.1,1.7-0.5c1.2-0.7,1.7-2.2,1.8-4.5c2.1,1.5,5.4,2.3,9.9,2.3c1.5,0,3-0.1,4.7-0.2
					l-0.2-2C133.4,125.3,129.9,123.5,128.6,121.8z"/>
			</g>
		</g>
		<ellipse class="st10" cx="107.4" cy="47.5" rx="30.7" ry="37.5"/>
		<g>
			<path class="st11" d="M99.1,41.7c-0.5-2.4-3-4.3-5.6-5c-5.9-1.7-7.8,1.1-8.1,3.3L99.1,41.7z"/>
			<g>
				<polyline class="st12" points="107.3,45.8 101.8,45.8 103.4,56.1 111.2,56.1 112.8,45.8 107.3,45.8 				"/>
			</g>
			<path class="st11" d="M102.7,55.5l3.7,4.7c0.4,0.6,1.3,0.6,1.7,0l3.7-4.7c0.6-0.7,0.1-1.8-0.9-1.8h-7.5
				C102.6,53.7,102.1,54.7,102.7,55.5z"/>
			<path class="st13" d="M107.3,64.5H101c-0.7,0-1.1,0.8-0.7,1.4c1.2,1.5,3.5,3.7,7,3.7c3.5,0,5.8-2.2,7-3.7c0.4-0.6,0-1.4-0.7-1.4
				L107.3,64.5z"/>
			<path class="st11" d="M99.4,58.7C99.4,58.7,99.3,58.7,99.4,58.7l-11.6-1.9c-0.3,0-0.5-0.3-0.4-0.6c0-0.3,0.3-0.5,0.6-0.4
				l11.5,1.9c0.3,0,0.5,0.3,0.4,0.6C99.8,58.5,99.6,58.7,99.4,58.7z"/>
			<path class="st11" d="M87.9,62.9c-0.2,0-0.5-0.2-0.5-0.4c0-0.3,0.1-0.5,0.4-0.6L99.3,60c0.3,0,0.5,0.1,0.6,0.4s-0.1,0.5-0.4,0.6
				L87.9,62.9C87.9,62.9,87.9,62.9,87.9,62.9z"/>
			<path class="st11" d="M97.8,48.7c0-1.6-1.3-2.9-2.9-2.9c-1.6,0-2.9,1.3-2.9,2.9c0,1.6,1.3,2.9,2.9,2.9
				C96.5,51.6,97.8,50.3,97.8,48.7z"/>
			<path class="st11" d="M115.5,41.7c0.5-2.4,3-4.3,5.6-5c5.9-1.7,7.8,1.1,8.1,3.3L115.5,41.7z"/>
			<path class="st11" d="M115.2,58.7c-0.2,0-0.5-0.2-0.5-0.4c0-0.3,0.1-0.5,0.4-0.6l11.5-1.9c0.3,0,0.5,0.1,0.6,0.4
				c0,0.3-0.1,0.5-0.4,0.6L115.2,58.7C115.3,58.7,115.2,58.7,115.2,58.7z"/>
			<path class="st11" d="M126.7,62.9C126.7,62.9,126.6,62.9,126.7,62.9L115.1,61c-0.3,0-0.5-0.3-0.4-0.6s0.3-0.5,0.6-0.4l11.5,1.9
				c0.3,0,0.5,0.3,0.4,0.6C127.2,62.7,126.9,62.9,126.7,62.9z"/>
			<circle class="st11" cx="119.7" cy="48.7" r="2.9"/>
		</g>
		<path class="st14" d="M107.4,27.8c0,0,13.5-3.3,16.8-12c1.1-2.7,0.9-5.8-0.6-8.3c-1.3-2-3.7-3.9-8.2-3.8H99.4
			c-4.5-0.1-7,1.8-8.2,3.8c-1.6,2.5-1.7,5.6-0.6,8.3C93.9,24.5,107.4,27.8,107.4,27.8"/>
		<path class="st15" d="M116.3,6.6c0-3.6-4-6.6-8.9-6.6c-4.9,0-8.9,3-8.9,6.6c0,0.2-0.1,3.7,0.9,8.2c0.9,4.1,3,9.7,7.8,12.9l0.2,0.2
			l0.2-0.2c4.7-3.3,6.8-8.8,7.8-12.9C116.4,10.3,116.3,6.7,116.3,6.6z"/>
	</g>
</g>
</svg>
