<?xml version="1.0" encoding="utf-8"?>
<!-- Generator: Adobe Illustrator 26.5.0, SVG Export Plug-In . SVG Version: 6.00 Build 0)  -->
<svg version="1.1" id="Layer_1" xmlns="http://www.w3.org/2000/svg" xmlns:xlink="http://www.w3.org/1999/xlink" x="0px" y="0px"
	 viewBox="0 0 211.4 400" style="enable-background:new 0 0 211.4 400;" xml:space="preserve">
<style type="text/css">
	.st0{fill:#BCBABD;}
	.st1{fill:#DEDFDF;}
	.st2{fill:#9CA3AA;}
	.st3{fill:#ECECED;}
	.st4{fill:#CECCCF;}
	.st5{fill:#E0DDE0;}
	.st6{fill:#A8A6A9;}
	.st7{fill:#7F7D7F;}
	.st8{display:none;}
	.st9{display:inline;fill:#E0DDE0;}
	.st10{display:inline;fill:#BCBABD;}
	.st11{fill:#B2B0B3;}
	.st12{display:inline;fill:none;stroke:#231916;stroke-linecap:round;stroke-linejoin:round;stroke-miterlimit:10;}
	.st13{display:none;fill:#A8A6A9;}
	.st14{display:none;fill:#E0DDE0;}
	.st15{fill:#B0AEB1;}
	.st16{fill:#CBCCCD;}
	.st17{fill:#485754;}
	.st18{fill:#BABBB8;}
	.st19{fill:none;stroke:#231916;stroke-linecap:round;stroke-linejoin:round;stroke-miterlimit:10;}
	.st20{fill:#F4F5F5;}
	.st21{fill:#E6E7E8;}
</style>
<g>
	<g id="오른다리_4_">
		<g>
			<path class="st0" d="M113.7,400c15,0,11.8-8.9,11.8-8.9c-1.5-4.5-1.5-9.2-1.5-9.2h-20.7c0,0,0,4.7-1.5,9.2
				C101.9,391.1,98.7,400,113.7,400"/>
			<path class="st1" d="M104.5,370.2h9.2h9.2c0,0,2.4,8.7,5.1,14.2c0,0-6-1.7-14.3-1.7s-14.3,1.7-14.3,1.7
				C102.1,378.8,104.5,370.2,104.5,370.2z"/>
			<path class="st2" d="M112.3,379.9c0,0.8,0.7,1.5,1.5,1.5c0.8,0,1.5-0.7,1.5-1.5c0-0.8-0.7-1.5-1.5-1.5
				C112.9,378.5,112.3,379.1,112.3,379.9z"/>
			<circle class="st2" cx="119.8" cy="380.6" r="1.3"/>
			<path class="st2" d="M124.3,381.9c0,0.6,0.4,1,1,1c0.6,0,1-0.4,1-1c0-0.6-0.4-1-1-1C124.8,381,124.3,381.4,124.3,381.9z"/>
			<circle class="st2" cx="107.7" cy="380.6" r="1.3"/>
			<circle class="st2" cx="102.1" cy="381.9" r="1"/>
		</g>
		<g>
			<path class="st3" d="M98.8,252.4c-1.5,0-2.7-1.1-2.7-2.4c0-1.3,1.2-2.4,2.7-2.4h1.9v4.8H98.8z"/>
			<path class="st3" d="M98.8,263.2c-1.5,0-2.7-1.1-2.7-2.4c0-1.3,1.2-2.4,2.7-2.4h1.9v4.8H98.8z"/>
			<path class="st3" d="M98.8,274c-1.5,0-2.7-1.1-2.7-2.4s1.2-2.4,2.7-2.4h1.9v4.8H98.8z"/>
			<path class="st3" d="M98.8,284.8c-1.5,0-2.7-1.1-2.7-2.4s1.2-2.4,2.7-2.4h1.9v4.8H98.8z"/>
		</g>
		<g>
			<path class="st3" d="M126.3,324.7c1.5,0,2.7-1.1,2.7-2.4c0-1.3-1.2-2.4-2.7-2.4h-1.9v4.8H126.3z"/>
			<path class="st3" d="M126.3,335.5c1.5,0,2.7-1.1,2.7-2.4s-1.2-2.4-2.7-2.4h-1.9v4.8H126.3z"/>
			<path class="st3" d="M126.3,346.3c1.5,0,2.7-1.1,2.7-2.4c0-1.3-1.2-2.4-2.7-2.4h-1.9v4.8H126.3z"/>
			<path class="st3" d="M126.3,357.1c1.5,0,2.7-1.1,2.7-2.4s-1.2-2.4-2.7-2.4h-1.9v4.8H126.3z"/>
			<path class="st3" d="M126.3,367.9c1.5,0,2.7-1.1,2.7-2.4c0-1.3-1.2-2.4-2.7-2.4h-1.9v4.8H126.3z"/>
		</g>
		<g>
			<path class="st4" d="M113.7,314.3V373c-3.4,0-6.8,0.5-10,1.4l-3,0.9v-62.3l0.7,0.2C105.4,313.9,109.6,314.3,113.7,314.3z"/>
			<path class="st5" d="M126.1,313.1l0.7-0.2v62.3l-3-0.9c-3.3-0.9-6.7-1.4-10-1.4v-58.6C117.9,314.3,122,313.9,126.1,313.1z"/>
			<path class="st5" d="M113.7,290.1v-57.3H129v54.6l-1.4,0.5C123,289.4,118.4,290.1,113.7,290.1z"/>
			<path class="st4" d="M99.9,287.9l-1.4-0.5V245l10.8-12.1h4.5v57.3C109.1,290.1,104.4,289.4,99.9,287.9z"/>
			<path class="st0" d="M126.8,305.1c0.2-0.1,0.5-0.1,0.7-0.2l1.1-0.3v8l-1.8,0.4l-0.7,0.2c-4,0.8-8.2,1.2-12.3,1.2v-7.2
				C118.1,307.1,122.5,306.4,126.8,305.1z"/>
			<path class="st6" d="M99.9,304.9c0.2,0.1,0.5,0.1,0.7,0.2c4.3,1.3,8.7,2,13.1,2v7.2c-4.2,0-8.3-0.4-12.3-1.2l-0.7-0.2l-1.8-0.4
				v-8L99.9,304.9z"/>
			<path class="st0" d="M98.5,287.5l1.4,0.5c4.5,1.5,9.2,2.2,13.8,2.2v14.6v2.4c-4.4,0-8.8-0.7-13.1-2c-0.2-0.1-0.5-0.1-0.7-0.2
				l-1.1-0.3L97,304v-17L98.5,287.5z"/>
			<path class="st4" d="M127.5,287.9l1.4-0.5l1.5-0.5v17l-1.8,0.6l-1.1,0.3c-0.2,0.1-0.5,0.1-0.7,0.2c-4.3,1.3-8.7,2-13.1,2v-2.4
				v-14.6C118.4,290.1,123,289.4,127.5,287.9z"/>
		</g>
		<g id="오른다리_5_">
			<g>
				<path class="st0" d="M75.2,400c15,0,11.8-8.9,11.8-8.9c-1.5-4.5-1.5-9.2-1.5-9.2H64.8c0,0,0,4.7-1.5,9.2
					C63.4,391.1,60.1,400,75.2,400"/>
				<path class="st1" d="M84.4,370.2h-9.2h-9.2c0,0-2.4,8.7-5.1,14.2c0,0,6-1.7,14.3-1.7s14.3,1.7,14.3,1.7
					C86.8,378.8,84.4,370.2,84.4,370.2z"/>
				<path class="st2" d="M76.6,379.9c0,0.8-0.7,1.5-1.5,1.5c-0.8,0-1.5-0.7-1.5-1.5c0-0.8,0.7-1.5,1.5-1.5
					C76,378.5,76.6,379.1,76.6,379.9z"/>
				<path class="st2" d="M70.4,380.6c0,0.7-0.6,1.3-1.3,1.3c-0.7,0-1.3-0.6-1.3-1.3s0.6-1.3,1.3-1.3
					C69.9,379.4,70.4,379.9,70.4,380.6z"/>
				<path class="st2" d="M64.6,381.9c0,0.6-0.4,1-1,1c-0.6,0-1-0.4-1-1c0-0.6,0.4-1,1-1C64.1,381,64.6,381.4,64.6,381.9z"/>
				<circle class="st2" cx="81.2" cy="380.6" r="1.3"/>
				<circle class="st2" cx="86.8" cy="381.9" r="1"/>
			</g>
			<g>
				<path class="st3" d="M90,252.4c1.5,0,2.7-1.1,2.7-2.4c0-1.3-1.2-2.4-2.7-2.4h-1.9v4.8H90z"/>
				<path class="st3" d="M90,263.2c1.5,0,2.7-1.1,2.7-2.4c0-1.3-1.2-2.4-2.7-2.4h-1.9v4.8H90z"/>
				<path class="st3" d="M90,274c1.5,0,2.7-1.1,2.7-2.4s-1.2-2.4-2.7-2.4h-1.9v4.8H90z"/>
				<path class="st3" d="M90,284.8c1.5,0,2.7-1.1,2.7-2.4S91.5,280,90,280h-1.9v4.8H90z"/>
			</g>
			<g>
				<path class="st3" d="M62.6,324.7c-1.5,0-2.7-1.1-2.7-2.4c0-1.3,1.2-2.4,2.7-2.4h1.9v4.8H62.6z"/>
				<path class="st3" d="M62.6,335.5c-1.5,0-2.7-1.1-2.7-2.4s1.2-2.4,2.7-2.4h1.9v4.8H62.6z"/>
				<path class="st3" d="M62.6,346.3c-1.5,0-2.7-1.1-2.7-2.4c0-1.3,1.2-2.4,2.7-2.4h1.9v4.8H62.6z"/>
				<path class="st3" d="M62.6,357.1c-1.5,0-2.7-1.1-2.7-2.4s1.2-2.4,2.7-2.4h1.9v4.8H62.6z"/>
				<path class="st3" d="M62.6,367.9c-1.5,0-2.7-1.1-2.7-2.4c0-1.3,1.2-2.4,2.7-2.4h1.9v4.8H62.6z"/>
			</g>
			<g>
				<path class="st4" d="M75.2,314.3V373c3.4,0,6.8,0.5,10,1.4l3,0.9v-62.3l-0.7,0.2C83.5,313.9,79.3,314.3,75.2,314.3z"/>
				<path class="st5" d="M62.8,313.1l-0.7-0.2v62.3l3-0.9c3.3-0.9,6.7-1.4,10-1.4v-58.6C71,314.3,66.9,313.9,62.8,313.1z"/>
				<path class="st5" d="M75.2,290.1v-57.3H59.9v54.6l1.4,0.5C65.9,289.4,70.5,290.1,75.2,290.1z"/>
				<path class="st4" d="M89,287.9l1.4-0.5V245l-10.8-12.1h-4.5v57.3C79.8,290.1,84.5,289.4,89,287.9z"/>
				<path class="st0" d="M62.1,305.1c-0.2-0.1-0.5-0.1-0.7-0.2l-1.1-0.3v8l1.8,0.4l0.7,0.2c4,0.8,8.2,1.2,12.3,1.2v-7.2
					C70.8,307.1,66.4,306.4,62.1,305.1z"/>
				<path class="st6" d="M89,304.9c-0.2,0.1-0.5,0.1-0.7,0.2c-4.3,1.3-8.7,2-13.1,2v7.2c4.2,0,8.3-0.4,12.3-1.2l0.7-0.2l1.8-0.4v-8
					L89,304.9z"/>
				<path class="st0" d="M90.4,287.5l-1.4,0.5c-4.5,1.5-9.2,2.2-13.8,2.2v14.6v2.4c4.4,0,8.8-0.7,13.1-2c0.2-0.1,0.5-0.1,0.7-0.2
					l1.1-0.3l1.8-0.6v-17L90.4,287.5z"/>
				<path class="st4" d="M61.3,287.9l-1.4-0.5l-1.5-0.5v17l1.8,0.6l1.1,0.3c0.2,0.1,0.5,0.1,0.7,0.2c4.3,1.3,8.7,2,13.1,2v-2.4
					v-14.6C70.5,290.1,65.9,289.4,61.3,287.9z"/>
			</g>
			<polyline class="st0" points="90.4,245 90.4,239.7 82.6,230.3 79.5,230.3 79.5,238.3 82.5,245 90.7,245 			"/>
		</g>
		<polyline class="st0" points="98.5,245 98.5,239.7 106.3,230.3 109.4,230.3 109.4,238.3 106.4,245 98.2,245 		"/>
	</g>
	<g id="상체_1_">
		<g id="몸통_4_">
			<path class="st4" d="M138.5,112.8H50.2c0,0,8.7,15.7-4.9,60.1l8.7,65.5h40.3h40.5l8.7-65.5C129.8,128.4,138.5,112.8,138.5,112.8z
				"/>
			<g>
				<path class="st5" d="M50.2,112.8c0,0,8.7,15.7-4.9,60.1l8.7,65.5h40.3h0.1V112.8H50.2z"/>
			</g>
			<g>
				<path class="st0" d="M94.5,130.7C94.4,130.7,94.4,130.7,94.5,130.7c-0.1,0-0.2,0-0.2,0H94.5z"/>
				<path class="st0" d="M138.5,112.8l-12.7-8.1H62.9l-12.7,8.1c0,0,4.5,18,44.1,18C134,130.7,138.5,112.8,138.5,112.8z"/>
			</g>
			<g id="단추_2_">
				<path class="st6" d="M99.8,120.2c0,0.8-0.6,1.4-1.4,1.4s-1.4-0.6-1.4-1.4c0-0.8,0.6-1.4,1.4-1.4S99.8,119.4,99.8,120.2z"/>
				<path class="st6" d="M99.8,126.6c0,0.8-0.6,1.4-1.4,1.4s-1.4-0.6-1.4-1.4c0-0.8,0.6-1.4,1.4-1.4S99.8,125.8,99.8,126.6z"/>
				<path class="st7" d="M100.2,135.8c0,1-0.8,1.8-1.8,1.8s-1.8-0.8-1.8-1.8c0-1,0.8-1.8,1.8-1.8S100.2,134.9,100.2,135.8z"/>
				<circle class="st7" cx="98.4" cy="151.7" r="1.8"/>
				<circle class="st7" cx="98.4" cy="167.6" r="1.8"/>
				<circle class="st7" cx="98.4" cy="183.5" r="1.8"/>
				<circle class="st7" cx="98.4" cy="199.3" r="1.8"/>
				<circle class="st7" cx="98.4" cy="215.2" r="1.8"/>
				<path class="st7" d="M100.2,231.1c0,1-0.8,1.8-1.8,1.8s-1.8-0.8-1.8-1.8c0-1,0.8-1.8,1.8-1.8S100.2,230.1,100.2,231.1z"/>
			</g>
			<polygon class="st6" points="93.9,104.6 93.9,130.7 93.9,238.3 94.7,238.3 94.7,130.7 94.7,104.6 			"/>
		</g>
		<g id="왼팔_3_">
			<g class="st8">
				<path class="st9" d="M31,220.4l11.6,11.2c3.8,3.7,9.4,4.1,12.4,1l0,0c3-3.1,2.3-8.6-1.5-12.3l-11.7-11.1L31,220.4z"/>
				<path class="st9" d="M40.5,208.7l7.2,6.7c1.6,1.5,3.9,1.7,5.2,0.4l0,0c1.2-1.3,0.9-3.6-0.7-5.2l-4.9-4.5L40.5,208.7z"/>
				<path class="st10" d="M26.9,189l-8,4.7l-9.4,5.5l23.9,23.7c1-4.1,2.9-7.4,4.9-9.9c4.1-4.9,8.8-6.8,8.8-6.8L26.9,189z"/>
			</g>
			<g>
				<path class="st3" d="M60.6,216.6l-4.2-3.3c1.3,0.2,2.5-0.1,3.2-1c1.1-1.4,0.6-3.7-1.2-5.1l-7.8-6l-4,5.2l-8.1,10.8l1.2,2.7
					l11.4,9c4.2,3.3,9.7,3.1,12.4-0.3C66,225.3,64.8,219.9,60.6,216.6z"/>
				<path class="st0" d="M44.6,211c4.5-5.1,9.8-6.8,9.8-6.8l-14.2-10.8l-3.1-2.9l-11.1,6l-9.4,4.2l2.6,2.5l20.4,16.9
					C40.8,216.2,42.6,213.2,44.6,211z"/>
				<path class="st0" d="M44.6,211c4.5-5.1,9.8-6.8,9.8-6.8l-14.2-10.8l-3.1-2.9l-11.1,6l-9.4,4.2l2.6,2.5l20.4,16.9
					C40.8,216.2,42.6,213.2,44.6,211z"/>
			</g>
			<g>
				<path class="st11" d="M54.4,204.1l-14.2-10.8l-3.1-2.9l-10,5.4l18.2,14.5C49.6,205.8,54.4,204.1,54.4,204.1z"/>
			</g>
			<polygon class="st0" points="38.2,140 29.8,140.3 9.9,187.1 22.2,186.3 34.5,181.4 55.6,138.9 			"/>
			<g>
				<polygon class="st11" points="34.5,181.4 55.6,138.9 43,139.7 20.5,186.4 22.2,186.3 				"/>
			</g>
			<path class="st4" d="M45.4,141.2l-19.5,1.6c0,0-1.4-7.8,1.8-10.2l2.5-1.5l14.3,6.6L45.4,141.2z"/>
			<path class="st0" d="M33.8,121.5c0,0-7.2,3-8.7,10l20.3,9.8l0.4-7.5l-9.4-13.3L33.8,121.5z"/>
			<path class="st6" d="M45.4,141.2L32.4,119c7.9-9.6,20.9-5.6,20.9-5.6l2.9,25.1c0,0,0.4,5.2-3.4,6.2c0,0-2.3,1-5-0.9
				C46.8,143.1,46,142.2,45.4,141.2z"/>
			<path class="st7" d="M48.3,137.4c0.2-1.3,1.4-2.1,2.7-1.9c1.3,0.2,2.1,1.4,1.9,2.7c-0.2,1.3-1.4,2.1-2.7,1.9
				C49,139.9,48.1,138.7,48.3,137.4z"/>
			<g class="st8">
				<path class="st12" d="M47.3,206.1L26.9,189l-8,4.7L38.4,213C42.5,208.1,47.3,206.1,47.3,206.1z"/>
				<path class="st12" d="M9.6,199.2l23.9,23.7c1-4.1,2.9-7.4,4.9-9.9L19,193.7L9.6,199.2z"/>
			</g>
			<g class="st8">
				<polygon class="st12" points="23.2,139.8 0.5,191 14.7,185.3 30.7,139.1 				"/>
				<polygon class="st12" points="38.7,138.3 30.7,139.1 14.7,185.3 27.1,180.4 				"/>
			</g>
			<g>
				<path class="st6" d="M38.1,180.7l-27.6-4.8c0,0-8.3,20.2,8.4,29.7l23.4-13.4C42.3,192.3,39.2,186.6,38.1,180.7z"/>
				<g>
					<path class="st7" d="M38.1,186.8L38.1,186.8c-0.1-0.3-0.5-0.5-0.8-0.4l-1.3,0.4c-0.3,0.1-0.5,0.5-0.4,0.8l0,0
						c0.1,0.3,0.5,0.5,0.8,0.4l1.3-0.4C38,187.6,38.2,187.2,38.1,186.8z"/>
					<path class="st7" d="M39.3,189.7L39.3,189.7c-0.3-0.2-0.7-0.2-0.9,0.1l-0.9,1c-0.2,0.3-0.2,0.7,0.1,0.9l0,0
						c0.3,0.2,0.7,0.2,0.9-0.1l0.9-1C39.6,190.4,39.6,189.9,39.3,189.7z"/>
					<path class="st7" d="M34.4,183.2L34.4,183.2c-0.1,0.4,0.2,0.7,0.5,0.8l1.3,0.3c0.4,0.1,0.7-0.2,0.8-0.5l0,0
						c0.1-0.4-0.2-0.7-0.5-0.8l-1.3-0.3C34.8,182.6,34.5,182.8,34.4,183.2z"/>
				</g>
				<path class="st7" d="M26.5,195c2.6-1.4,7.2-4.2,6.4-7.2l0,0c-0.7-3-6-3.4-9-3.4c-2.2,0-4.3-0.4-6.3-1.3c-4.2-1.9-6.1-4.9-7-7.2
					l-0.1,0c0,0-8.2,20,8.2,29.6c0.3-2,1.1-4.3,2.9-6.5C22.9,197.3,24.6,196,26.5,195z"/>
				<path class="st5" d="M29.3,190.3c0.8-0.6,0.9-1.7,0.3-2.5c-0.6-0.8-1.7-0.9-2.5-0.3c-0.8,0.6-0.9,1.7-0.3,2.5
					C27.4,190.8,28.5,190.9,29.3,190.3z"/>
			</g>
		</g>
		<g id="오른팔_3_">
			<g>
				<polygon class="st0" points="153.8,145.3 150.5,141.7 150.5,141.7 135.6,141.7 134.7,195.1 142.5,206.9 145.8,203.5 
					159.1,189.5 				"/>
				<polygon class="st13" points="142.9,141.7 134.1,141.7 127.2,195.1 135,206.9 138.2,203.5 143,141.7 				"/>
				<polygon class="st14" points="149.3,145.7 143,141.7 138.2,203.5 151.5,189.5 				"/>
			</g>
			<g>
				<polygon class="st0" points="153.8,145.3 150.5,141.7 150.5,141.7 135.6,141.7 134.7,195.1 142.5,206.9 145.8,203.5 
					159.1,189.5 				"/>
				<polygon class="st13" points="142.9,141.7 134.1,141.7 127.2,195.1 135,206.9 138.2,203.5 143,141.7 				"/>
				<polygon class="st14" points="149.3,145.7 143,141.7 138.2,203.5 151.5,189.5 				"/>
			</g>
			<g>
				<polygon class="st11" points="135.6,141.7 134.7,195.1 142.5,206.9 145.8,203.5 146.8,202.5 145,141.7 				"/>
			</g>
			<path class="st4" d="M140.9,141.7l18.9,5c0,0,2.8-7.5,0-10.3l-2.3-1.9l-15.2,4.1L140.9,141.7z"/>
			<path class="st0" d="M155.7,124.2c0,0,6.5,4.1,6.9,11.3l-21.7,6.2l0.9-7.5l11.5-11.5L155.7,124.2z"/>
			<path class="st6" d="M140.9,141.7l16.7-19.7c-6.1-10.8-19.6-9.1-19.6-9.1l-7.2,24.3c0,0-1.3,5.1,2.3,6.7c0,0,2.1,1.3,5.1,0
				C139.2,143.3,140.1,142.6,140.9,141.7z"/>
			<circle class="st7" cx="136.3" cy="137.4" r="2.3"/>
			<path class="st3" d="M185.3,207.7l14.2-2.8c5.2-1.1,8.7-5.4,7.8-9.6l0,0c-0.9-4.2-5.8-6.8-11-5.7l-22.9,3.8L185.3,207.7z"/>
			<path class="st3" d="M179.5,193.7l9.6-2.1c2.2-0.5,3.6-2.3,3.3-4.1l0,0c-0.4-1.8-2.5-2.8-4.6-2.4l-9.6,2.1L179.5,193.7z"/>
			<g class="st8">
				<path class="st10" d="M173.4,198.1c-0.9-6.7,1.1-11.9,1.1-11.9l-17.5,3.8l-3-0.4l-3.9,13.2l-2.9,9.9l3.6-0.4l26.2-4.6
					C174.9,204.4,173.9,201.1,173.4,198.1z"/>
				<path class="st10" d="M174.6,186.2l-17.5,3.8l-3-0.4l-3.9,13.2l23.2-4.7C172.5,191.4,174.6,186.2,174.6,186.2z"/>
			</g>
			<path class="st0" d="M181.7,198.1c-0.9-6.7,1.1-11.9,1.1-11.9l-17.5,3.8l-3-0.4l-3.9,13.2l-2.9,9.9l3.6-0.4l26.2-4.6
				C183.2,204.4,182.1,201.1,181.7,198.1z"/>
			<g>
				<path class="st11" d="M181.6,197.1l-22.8,4.7l-0.3,1.1l-2.9,9.9l3.6-0.4l26.2-4.6c-2.1-3.3-3.1-6.6-3.6-9.6
					C181.7,197.8,181.6,197.4,181.6,197.1z"/>
			</g>
			<g>
				<path class="st6" d="M157.4,182.3l-25.6,11.3c0,0,4.4,21.4,23.5,20.1l12-24.2C167.4,189.5,161.6,186.5,157.4,182.3z"/>
				<g>
					<path class="st7" d="M155.1,213.7c-0.9-1.8-1.5-4.1-1.3-7c0.2-2.1,0.8-4.2,1.9-6.1c1.4-2.6,3.6-7.5,1.3-9.5l0,0
						c-2.2-2.1-6.9,0.6-9.3,2.2c-1.8,1.2-3.8,2-5.9,2.4c-4.5,0.8-7.8-0.7-9.8-2l-0.1,0C131.8,193.6,136.2,214.8,155.1,213.7z"/>
				</g>
				<path class="st5" d="M155.4,195.1c0.3-0.9-0.2-1.9-1.1-2.2c-0.9-0.3-1.9,0.2-2.2,1.1c-0.3,0.9,0.2,1.9,1.1,2.2
					C154.1,196.6,155.1,196.1,155.4,195.1z"/>
				<g>
					<path class="st7" d="M160.8,187.3L160.8,187.3c-0.3-0.2-0.7-0.2-0.9,0.1l-0.8,1.1c-0.2,0.3-0.2,0.7,0.1,0.9l0,0
						c0.3,0.2,0.7,0.2,0.9-0.1l0.8-1.1C161.2,188,161.1,187.6,160.8,187.3z"/>
					<path class="st7" d="M163.4,189L163.4,189c-0.4,0-0.7,0.2-0.7,0.6l-0.2,1.3c0,0.4,0.2,0.7,0.6,0.7l0,0c0.4,0,0.7-0.2,0.7-0.6
						l0.2-1.3C164.1,189.4,163.8,189.1,163.4,189z"/>
					<path class="st7" d="M155.7,186.3L155.7,186.3c0.1,0.3,0.5,0.5,0.9,0.4l1.2-0.5c0.3-0.1,0.5-0.5,0.4-0.9l0,0
						c-0.1-0.3-0.5-0.5-0.9-0.4l-1.2,0.5C155.8,185.6,155.6,186,155.7,186.3z"/>
				</g>
			</g>
		</g>
		<g id="도구_1_">
			<path class="st4" d="M157.6,106.2c8.1,5.5,9.6,12.2,12,21.4l27.5,102c0.3,0.9,1.2,1.5,2.2,1.2l11.3-3.6c1.2-0.4,1.2-2.1,0-2.4
				l-4.7-1.5c-1.1-0.3-1.9-1.2-2.1-2.3l-0.7-2.6l-25.4-92.8c-2.3-9.1-4.3-15.8,0.2-24.5"/>
			<path class="st15" d="M172.4,79.7c0,0,5.3-0.2,9.1-3.8c0,0,10.9-13,14.9,5l1.9,7.4c5.1,17.8-10.7,11.6-10.7,11.6
				c-5-1.3-9.8,1-9.8,1L172.4,79.7z"/>
			<path class="st0" d="M177.9,101.1L177.9,101.1c-6.1,3.6-13.1,5.4-20.2,5.2h0l-0.2-0.3c-4.4-6.1-6.3-13.6-5.2-21.1l0,0l0,0
				c6.1-3.5,13.1-5.3,20.2-5.2l0,0l0,0C178.2,85.1,180.3,93.5,177.9,101.1L177.9,101.1z"/>
		</g>
		<g>
			<path class="st3" d="M192.4,187.6c-0.4-1.8-2.5-2.8-4.6-2.4l-4.9,1.1c0,0-1.1,2.9-1.3,7l7.6-1.7
				C191.3,191.1,192.8,189.3,192.4,187.6z"/>
		</g>
	</g>
	<g id="머리_및_목_1_">
		<g>
			<path class="st4" d="M126.8,92.2c0,0-10,9.8-32.3,14.1C72.2,102,62.1,92.2,62.1,92.2c-1.7-1.7-2.6-3.2-3-4.4l3.8,16.9
				c0,0,3.5,4.9,31.5,4.9s31.5-4.9,31.5-4.9l3.8-16.9C129.4,89,128.5,90.5,126.8,92.2z"/>
			<path class="st6" d="M129.9,86.8c0.4-2.8-1.9-4.2-1.9-4.2s-6.6-4.8-33.5,11.3C67.5,77.8,60.9,82.6,60.9,82.6S58.6,84,59,86.8l0,0
				l0,0.1c0,0.3,0.1,0.5,0.2,0.8c0.4,1.2,1.3,2.7,3,4.4c0,0,10,9.8,32.3,14.1c22.3-4.3,32.3-14.1,32.3-14.1c1.7-1.7,2.6-3.2,3-4.4
				c0.1-0.3,0.1-0.6,0.2-0.8L129.9,86.8L129.9,86.8z"/>
		</g>
		<path class="st3" d="M127,61.5c-1.3-3-4.2-2.1-5.9-1.3v-9.2c0-12-9.7-21.8-21.8-21.8h-9.8c-12,0-21.8,9.7-21.8,21.8v9.1
			c-1.7-0.9-4.5-1.7-5.8,1.3c-0.3,0.7-0.4,1.6-0.4,2.4c0.1,2.2,0.8,7.1,5,8.8c0,0,0.5,0.3,1.2,0.5v0.1c0,12,9.7,21.8,21.8,21.8h9.8
			c12,0,21.8-9.7,21.8-21.8v-0.1c0.8-0.2,1.3-0.5,1.3-0.5c4.1-1.8,4.9-6.6,5-8.8C127.4,63,127.3,62.2,127,61.5z"/>
		<path class="st1" d="M99.3,29.3h-9.8c-12,0-21.8,9.7-21.8,21.8v2.6c0,0,6.3-14.5,26.7-14.5c20.3,0,26.7,14.5,26.7,14.5v-2.6
			C121.1,39,111.4,29.3,99.3,29.3z"/>
		<circle class="st2" cx="83.9" cy="37.3" r="1.1"/>
		<rect x="74.6" y="86.8" class="st16" width="39.7" height="20"/>
		<g>
			<path class="st4" d="M94.5,106.3C72.2,102,62.1,92.2,62.1,92.2c-1.7-1.7-2.6-3.2-3-4.4l3.8,16.9c0,0,3.5,4.9,31.5,4.9
				s31.5-4.9,31.5-4.9l3.8-16.9c-0.4,1.2-1.3,2.7-3,4.4C126.8,92.2,116.8,102,94.5,106.3z"/>
		</g>
		<path class="st2" d="M79.2,39.5c0,0.6-0.5,1.1-1.1,1.1c-0.6,0-1.1-0.5-1.1-1.1c0-0.6,0.5-1.1,1.1-1.1
			C78.8,38.4,79.2,38.9,79.2,39.5z"/>
		<path class="st2" d="M74.1,42.9c0,0.6-0.5,1.1-1.1,1.1S72,43.5,72,42.9c0-0.6,0.5-1.1,1.1-1.1S74.1,42.3,74.1,42.9z"/>
		<g>
			<ellipse class="st17" cx="83.5" cy="61.7" rx="2.8" ry="4"/>
			<path class="st2" d="M88.8,54.2c0.1,0,0.1-0.1,0-0.1l-6.4-2.4c-0.9-0.2-2,0-2.7,0.6l-1.6,1.2c-0.1,0.1,0,0.2,0.1,0.2L88.8,54.2z"
				/>
			<ellipse class="st17" cx="105.4" cy="61.7" rx="2.8" ry="4"/>
			<path class="st2" d="M100.1,54.2c-0.1,0-0.1-0.1,0-0.1l6.4-2.4c0.9-0.2,2,0,2.7,0.6l1.6,1.2c0.1,0.1,0,0.2-0.1,0.2L100.1,54.2z"
				/>
		</g>
		<g>
			<polyline class="st1" points="94.5,70.2 91.3,70.2 92.3,60.2 96.6,60.2 97.6,70.2 94.5,70.2 			"/>
			<circle class="st18" cx="94.5" cy="70.2" r="3.2"/>
		</g>
		<g>
			<path class="st1" d="M89.6,95h9.8c12,0,21.8-9.7,21.8-21.8v-1.1c-3.6,4.6-10.3,11.7-16.6,11.7c0,0-2.2,0.3-4.8-0.7
				c-0.9-0.4-2-0.4-2.9-0.1l-2.3,0.8l-2.3-0.8c-1-0.3-2-0.3-2.9,0.1c-2.6,1-4.8,0.7-4.8,0.7c-6.3,0-13-7.1-16.6-11.7v1.1
				C67.8,85.3,77.5,95,89.6,95z"/>
		</g>
		<path class="st19" d="M94.5,90.8"/>
		<path class="st20" d="M104.2,102.4l-9.5,2.8c-0.1,0-0.2,0.1-0.3,0.1c-0.1,0-0.2-0.1-0.3-0.1l-9.5-2.8c-1.4-0.4-2.7,0.6-2.7,2v7
			c0,1.5,1.5,2.5,2.9,2l9.5-3.5c0,0,0.1,0,0.1-0.1c0,0,0.1,0,0.1,0.1l9.5,3.5c1.4,0.5,2.9-0.5,2.9-2v-7
			C106.9,103,105.6,102,104.2,102.4z"/>
		<path class="st21" d="M94.5,105.2c-0.8,0.3-1.3,1.1-1.3,1.9v0.8c0,0.9,0.5,1.6,1.3,1.9c0.8-0.3,1.3-1.1,1.3-1.9v-0.8
			C95.7,106.3,95.2,105.6,94.5,105.2z"/>
		<path class="st17" d="M94.5,80.1c-5.5,0-8.2-4.3-8.3-4.5c-0.2-0.4-0.1-0.8,0.3-1c0.4-0.2,0.8-0.1,1,0.3c0.1,0.2,2.4,3.8,7,3.8
			c4.7,0,7-3.6,7-3.8c0.2-0.4,0.7-0.5,1-0.2c0.4,0.2,0.5,0.7,0.3,1C102.7,75.8,100,80.1,94.5,80.1z"/>
		<g>
			<path class="st4" d="M122.6,26.9c-0.2,0-0.3,0-0.5,0l0.8-15.2l-0.1,0l0.1,0l4.9-8.1l-5.6-3l-4.9,8.1l0,0l-0.1,0l-31.6,21
				c1.8,8.4,7.3,13.3,13.7,16.7c6.4,3.4,13.5,5.4,21.5,2.2l0.4-7c0.4,0.1,0.8,0.1,1.3,0.1c4.1,0,7.5-3.3,7.5-7.5
				C130.1,30.2,126.7,26.9,122.6,26.9z M122.6,39.1c-0.4,0-0.8-0.1-1.1-0.1l0.5-9.4c0.2,0,0.4,0,0.6,0c2.6,0,4.8,2.1,4.8,4.8
				C127.4,37,125.3,39.1,122.6,39.1z"/>
		</g>
		<path class="st0" d="M127.9,3.4c-0.4,0.8-2,0.8-3.5,0.1c-1.6-0.8-2.5-2-2.1-2.8c0.4-0.8,2-0.8,3.5-0.1
			C127.4,1.3,128.3,2.6,127.9,3.4z"/>
	</g>
</g>
</svg>
