<?xml version="1.0" encoding="utf-8"?>
<!-- Generator: Adobe Illustrator 26.5.0, SVG Export Plug-In . SVG Version: 6.00 Build 0)  -->
<svg version="1.1" id="Layer_1" xmlns="http://www.w3.org/2000/svg" xmlns:xlink="http://www.w3.org/1999/xlink" x="0px" y="0px"
	 viewBox="0 0 186.2 400" style="enable-background:new 0 0 186.2 400;" xml:space="preserve">
<style type="text/css">
	.st0{fill:none;}
	.st1{fill:#009EDE;}
	.st2{fill:#FFFFFF;}
	.st3{fill:#F9EAD8;}
	.st4{fill:#D71344;}
	.st5{fill:#F7F7F7;}
	.st6{fill:#F3DFAB;}
	.st7{fill:url(#SVGID_00000121963215402824909460000009138846854402723738_);}
	.st8{fill:url(#SVGID_00000098194603301290488900000002170879443330323111_);}
	.st9{fill:url(#SVGID_00000158738843201161417070000003138940306667057283_);}
	.st10{opacity:0.3;}
	.st11{fill:#BA8537;}
	.st12{display:none;clip-path:url(#SVGID_00000004546394946694477940000016356780039341496987_);}
	.st13{display:inline;}
	.st14{fill:none;stroke:#AA6E0B;stroke-width:1.3;stroke-linecap:round;stroke-linejoin:round;stroke-miterlimit:10;}
	.st15{clip-path:url(#SVGID_00000063610046044208850340000007061325175410225038_);}
	.st16{fill:#AA6E0B;}
	.st17{fill:#4B2813;}
	.st18{clip-path:url(#SVGID_00000023269092298501639470000018106872839844075933_);}
	.st19{fill:#EDDCAF;}
	.st20{fill:#331500;}
	.st21{fill:#613D2B;}
	.st22{fill:#F8B1AA;}
	.st23{fill:#F5908A;}
	.st24{fill:#946135;}
	.st25{fill:#F09BA5;}
	.st26{fill:#6A3907;}
	.st27{fill:#F0CDA4;}
	.st28{fill:#FCF7EB;}
	.st29{fill:#4D4397;}
	.st30{fill:url(#SVGID_00000001631826158200956710000016220142934935937437_);}
	.st31{fill:url(#SVGID_00000109744103400920442070000002277098590954753457_);}
	
		.st32{fill:none;stroke:url(#SVGID_00000159435409381578095460000013936927665418146696_);stroke-width:0.5669;stroke-miterlimit:10;}
	
		.st33{fill:none;stroke:url(#SVGID_00000061472639037044942940000016879927533098643097_);stroke-width:0.5669;stroke-miterlimit:10;}
	.st34{fill:url(#SVGID_00000136389661595200347160000016208019851391683499_);}
	.st35{fill:url(#SVGID_00000127026875709581592280000010614381888620346496_);}
	.st36{fill:url(#SVGID_00000156566432377533485620000003173875278897235888_);}
	.st37{fill:#824F1A;}
	.st38{fill:#6FC7E2;}
	.st39{fill:#4CB0D9;}
	.st40{fill:none;stroke:#F5E6C1;stroke-linecap:round;stroke-linejoin:round;stroke-miterlimit:10;}
</style>
<pattern  x="-16.3" y="434.9" width="45.4" height="45.4" patternUnits="userSpaceOnUse" id="SVGID_0000001677790864450494314" viewBox="0 -45.4 45.4 45.4" style="overflow:visible;">
	<g>
		<rect y="-45.4" class="st0" width="45.4" height="45.4"/>
		<g>
			<rect y="-45.4" class="st0" width="45.4" height="45.4"/>
			<rect y="-45.4" class="st1" width="45.4" height="45.4"/>
			<rect y="-5.7" class="st2" width="5.7" height="5.7"/>
			<rect x="11.3" y="-5.7" class="st2" width="5.7" height="5.7"/>
			<rect x="22.7" y="-5.7" class="st2" width="5.7" height="5.7"/>
			<rect x="34" y="-5.7" class="st2" width="5.7" height="5.7"/>
			<rect x="5.7" y="-11.4" class="st2" width="5.7" height="5.7"/>
			<rect x="17" y="-11.4" class="st2" width="5.7" height="5.7"/>
			<rect x="28.3" y="-11.4" class="st2" width="5.7" height="5.7"/>
			<rect x="39.7" y="-11.4" class="st2" width="5.7" height="5.7"/>
			<rect y="-17.1" class="st2" width="5.7" height="5.7"/>
			<rect x="11.3" y="-17.1" class="st2" width="5.7" height="5.7"/>
			<rect x="22.7" y="-17.1" class="st2" width="5.7" height="5.7"/>
			<rect x="34" y="-17.1" class="st2" width="5.7" height="5.7"/>
			<rect x="5.7" y="-22.7" class="st2" width="5.7" height="5.7"/>
			<rect x="17" y="-22.7" class="st2" width="5.7" height="5.7"/>
			<rect x="28.3" y="-22.7" class="st2" width="5.7" height="5.7"/>
			<rect x="39.7" y="-22.7" class="st2" width="5.7" height="5.7"/>
			<rect y="-28.4" class="st2" width="5.7" height="5.7"/>
			<rect x="11.3" y="-28.4" class="st2" width="5.7" height="5.7"/>
			<rect x="22.7" y="-28.4" class="st2" width="5.7" height="5.7"/>
			<rect x="34" y="-28.4" class="st2" width="5.7" height="5.7"/>
			<rect x="5.7" y="-34.1" class="st2" width="5.7" height="5.7"/>
			<rect x="17" y="-34.1" class="st2" width="5.7" height="5.7"/>
			<rect x="28.3" y="-34.1" class="st2" width="5.7" height="5.7"/>
			<rect x="39.7" y="-34.1" class="st2" width="5.7" height="5.7"/>
			<rect y="-39.7" class="st2" width="5.7" height="5.7"/>
			<rect x="11.3" y="-39.7" class="st2" width="5.7" height="5.7"/>
			<rect x="22.7" y="-39.7" class="st2" width="5.7" height="5.7"/>
			<rect x="34" y="-39.7" class="st2" width="5.7" height="5.7"/>
			<rect x="5.7" y="-45.4" class="st2" width="5.7" height="5.7"/>
			<rect x="17" y="-45.4" class="st2" width="5.7" height="5.7"/>
			<rect x="28.3" y="-45.4" class="st2" width="5.7" height="5.7"/>
			<rect x="39.7" y="-45.4" class="st2" width="5.7" height="5.7"/>
		</g>
	</g>
</pattern>
<pattern  x="-16.3" y="434.9" width="45.4" height="45.4" patternUnits="userSpaceOnUse" id="SVGID_0000001823806704241528438" viewBox="0 -45.4 45.4 45.4" style="overflow:visible;">
	<g>
		<rect y="-45.4" class="st0" width="45.4" height="45.4"/>
		<g>
			<rect y="-45.4" class="st0" width="45.4" height="45.4"/>
			<rect y="-45.4" class="st1" width="45.4" height="45.4"/>
			<rect y="-5.7" class="st2" width="5.7" height="5.7"/>
			<rect x="11.3" y="-5.7" class="st2" width="5.7" height="5.7"/>
			<rect x="22.7" y="-5.7" class="st2" width="5.7" height="5.7"/>
			<rect x="34" y="-5.7" class="st2" width="5.7" height="5.7"/>
			<rect x="5.7" y="-11.4" class="st2" width="5.7" height="5.7"/>
			<rect x="17" y="-11.4" class="st2" width="5.7" height="5.7"/>
			<rect x="28.3" y="-11.4" class="st2" width="5.7" height="5.7"/>
			<rect x="39.7" y="-11.4" class="st2" width="5.7" height="5.7"/>
			<rect y="-17.1" class="st2" width="5.7" height="5.7"/>
			<rect x="11.3" y="-17.1" class="st2" width="5.7" height="5.7"/>
			<rect x="22.7" y="-17.1" class="st2" width="5.7" height="5.7"/>
			<rect x="34" y="-17.1" class="st2" width="5.7" height="5.7"/>
			<rect x="5.7" y="-22.7" class="st2" width="5.7" height="5.7"/>
			<rect x="17" y="-22.7" class="st2" width="5.7" height="5.7"/>
			<rect x="28.3" y="-22.7" class="st2" width="5.7" height="5.7"/>
			<rect x="39.7" y="-22.7" class="st2" width="5.7" height="5.7"/>
			<rect y="-28.4" class="st2" width="5.7" height="5.7"/>
			<rect x="11.3" y="-28.4" class="st2" width="5.7" height="5.7"/>
			<rect x="22.7" y="-28.4" class="st2" width="5.7" height="5.7"/>
			<rect x="34" y="-28.4" class="st2" width="5.7" height="5.7"/>
			<rect x="5.7" y="-34.1" class="st2" width="5.7" height="5.7"/>
			<rect x="17" y="-34.1" class="st2" width="5.7" height="5.7"/>
			<rect x="28.3" y="-34.1" class="st2" width="5.7" height="5.7"/>
			<rect x="39.7" y="-34.1" class="st2" width="5.7" height="5.7"/>
			<rect y="-39.7" class="st2" width="5.7" height="5.7"/>
			<rect x="11.3" y="-39.7" class="st2" width="5.7" height="5.7"/>
			<rect x="22.7" y="-39.7" class="st2" width="5.7" height="5.7"/>
			<rect x="34" y="-39.7" class="st2" width="5.7" height="5.7"/>
			<rect x="5.7" y="-45.4" class="st2" width="5.7" height="5.7"/>
			<rect x="17" y="-45.4" class="st2" width="5.7" height="5.7"/>
			<rect x="28.3" y="-45.4" class="st2" width="5.7" height="5.7"/>
			<rect x="39.7" y="-45.4" class="st2" width="5.7" height="5.7"/>
		</g>
	</g>
</pattern>
<pattern  x="-16.3" y="434.9" width="45.4" height="45.4" patternUnits="userSpaceOnUse" id="SVGID_0000003911094941825382619" viewBox="0 -45.4 45.4 45.4" style="overflow:visible;">
	<g>
		<rect y="-45.4" class="st0" width="45.4" height="45.4"/>
		<g>
			<rect y="-45.4" class="st0" width="45.4" height="45.4"/>
			<rect y="-45.4" class="st1" width="45.4" height="45.4"/>
			<rect y="-5.7" class="st2" width="5.7" height="5.7"/>
			<rect x="11.3" y="-5.7" class="st2" width="5.7" height="5.7"/>
			<rect x="22.7" y="-5.7" class="st2" width="5.7" height="5.7"/>
			<rect x="34" y="-5.7" class="st2" width="5.7" height="5.7"/>
			<rect x="5.7" y="-11.4" class="st2" width="5.7" height="5.7"/>
			<rect x="17" y="-11.4" class="st2" width="5.7" height="5.7"/>
			<rect x="28.3" y="-11.4" class="st2" width="5.7" height="5.7"/>
			<rect x="39.7" y="-11.4" class="st2" width="5.7" height="5.7"/>
			<rect y="-17.1" class="st2" width="5.7" height="5.7"/>
			<rect x="11.3" y="-17.1" class="st2" width="5.7" height="5.7"/>
			<rect x="22.7" y="-17.1" class="st2" width="5.7" height="5.7"/>
			<rect x="34" y="-17.1" class="st2" width="5.7" height="5.7"/>
			<rect x="5.7" y="-22.7" class="st2" width="5.7" height="5.7"/>
			<rect x="17" y="-22.7" class="st2" width="5.7" height="5.7"/>
			<rect x="28.3" y="-22.7" class="st2" width="5.7" height="5.7"/>
			<rect x="39.7" y="-22.7" class="st2" width="5.7" height="5.7"/>
			<rect y="-28.4" class="st2" width="5.7" height="5.7"/>
			<rect x="11.3" y="-28.4" class="st2" width="5.7" height="5.7"/>
			<rect x="22.7" y="-28.4" class="st2" width="5.7" height="5.7"/>
			<rect x="34" y="-28.4" class="st2" width="5.7" height="5.7"/>
			<rect x="5.7" y="-34.1" class="st2" width="5.7" height="5.7"/>
			<rect x="17" y="-34.1" class="st2" width="5.7" height="5.7"/>
			<rect x="28.3" y="-34.1" class="st2" width="5.7" height="5.7"/>
			<rect x="39.7" y="-34.1" class="st2" width="5.7" height="5.7"/>
			<rect y="-39.7" class="st2" width="5.7" height="5.7"/>
			<rect x="11.3" y="-39.7" class="st2" width="5.7" height="5.7"/>
			<rect x="22.7" y="-39.7" class="st2" width="5.7" height="5.7"/>
			<rect x="34" y="-39.7" class="st2" width="5.7" height="5.7"/>
			<rect x="5.7" y="-45.4" class="st2" width="5.7" height="5.7"/>
			<rect x="17" y="-45.4" class="st2" width="5.7" height="5.7"/>
			<rect x="28.3" y="-45.4" class="st2" width="5.7" height="5.7"/>
			<rect x="39.7" y="-45.4" class="st2" width="5.7" height="5.7"/>
		</g>
	</g>
</pattern>
<pattern  x="-16.3" y="434.9" width="45.4" height="45.4" patternUnits="userSpaceOnUse" id="SVGID_0000004846919714607871391" viewBox="0 -45.4 45.4 45.4" style="overflow:visible;">
	<g>
		<rect y="-45.4" class="st0" width="45.4" height="45.4"/>
		<g>
			<rect y="-45.4" class="st0" width="45.4" height="45.4"/>
			<rect y="-45.4" class="st1" width="45.4" height="45.4"/>
		</g>
	</g>
</pattern>
<pattern  x="-16.3" y="434.9" width="45.4" height="45.4" patternUnits="userSpaceOnUse" id="SVGID_0000006431606667331096637" viewBox="0 -45.4 45.4 45.4" style="overflow:visible;">
	<g>
		<rect y="-45.4" class="st0" width="45.4" height="45.4"/>
		<g>
			<rect y="-45.4" class="st0" width="45.4" height="45.4"/>
			<rect y="-45.4" class="st1" width="45.4" height="45.4"/>
			<rect y="-5.7" class="st2" width="5.7" height="5.7"/>
			<rect x="11.3" y="-5.7" class="st2" width="5.7" height="5.7"/>
			<rect x="22.7" y="-5.7" class="st2" width="5.7" height="5.7"/>
			<rect x="34" y="-5.7" class="st2" width="5.7" height="5.7"/>
			<rect x="5.7" y="-11.4" class="st2" width="5.7" height="5.7"/>
			<rect x="17" y="-11.4" class="st2" width="5.7" height="5.7"/>
			<rect x="28.3" y="-11.4" class="st2" width="5.7" height="5.7"/>
			<rect x="39.7" y="-11.4" class="st2" width="5.7" height="5.7"/>
			<rect y="-17.1" class="st2" width="5.7" height="5.7"/>
			<rect x="11.3" y="-17.1" class="st2" width="5.7" height="5.7"/>
			<rect x="22.7" y="-17.1" class="st2" width="5.7" height="5.7"/>
			<rect x="34" y="-17.1" class="st2" width="5.7" height="5.7"/>
			<rect x="5.7" y="-22.7" class="st2" width="5.7" height="5.7"/>
			<rect x="17" y="-22.7" class="st2" width="5.7" height="5.7"/>
			<rect x="28.3" y="-22.7" class="st2" width="5.7" height="5.7"/>
			<rect x="39.7" y="-22.7" class="st2" width="5.7" height="5.7"/>
			<rect y="-28.4" class="st2" width="5.7" height="5.7"/>
			<rect x="11.3" y="-28.4" class="st2" width="5.7" height="5.7"/>
			<rect x="22.7" y="-28.4" class="st2" width="5.7" height="5.7"/>
			<rect x="34" y="-28.4" class="st2" width="5.7" height="5.7"/>
			<rect x="5.7" y="-34.1" class="st2" width="5.7" height="5.7"/>
			<rect x="17" y="-34.1" class="st2" width="5.7" height="5.7"/>
			<rect x="28.3" y="-34.1" class="st2" width="5.7" height="5.7"/>
			<rect x="39.7" y="-34.1" class="st2" width="5.7" height="5.7"/>
			<rect y="-39.7" class="st2" width="5.7" height="5.7"/>
			<rect x="11.3" y="-39.7" class="st2" width="5.7" height="5.7"/>
			<rect x="22.7" y="-39.7" class="st2" width="5.7" height="5.7"/>
			<rect x="34" y="-39.7" class="st2" width="5.7" height="5.7"/>
			<rect x="5.7" y="-45.4" class="st2" width="5.7" height="5.7"/>
			<rect x="17" y="-45.4" class="st2" width="5.7" height="5.7"/>
			<rect x="28.3" y="-45.4" class="st2" width="5.7" height="5.7"/>
			<rect x="39.7" y="-45.4" class="st2" width="5.7" height="5.7"/>
		</g>
	</g>
</pattern>
<pattern  x="-16.3" y="434.9" width="45.4" height="45.4" patternUnits="userSpaceOnUse" id="SVGID_0000008881700343471638804" viewBox="0 -45.4 45.4 45.4" style="overflow:visible;">
	<g>
		<rect y="-45.4" class="st0" width="45.4" height="45.4"/>
		<g>
			<rect y="-45.4" class="st0" width="45.4" height="45.4"/>
			<rect y="-45.4" class="st1" width="45.4" height="45.4"/>
			<rect y="-5.7" class="st2" width="5.7" height="5.7"/>
			<rect x="11.3" y="-5.7" class="st2" width="5.7" height="5.7"/>
			<rect x="22.7" y="-5.7" class="st2" width="5.7" height="5.7"/>
			<rect x="34" y="-5.7" class="st2" width="5.7" height="5.7"/>
			<rect x="5.7" y="-11.4" class="st2" width="5.7" height="5.7"/>
			<rect x="17" y="-11.4" class="st2" width="5.7" height="5.7"/>
			<rect x="28.3" y="-11.4" class="st2" width="5.7" height="5.7"/>
			<rect x="39.7" y="-11.4" class="st2" width="5.7" height="5.7"/>
			<rect y="-17.1" class="st2" width="5.7" height="5.7"/>
			<rect x="11.3" y="-17.1" class="st2" width="5.7" height="5.7"/>
			<rect x="22.7" y="-17.1" class="st2" width="5.7" height="5.7"/>
			<rect x="34" y="-17.1" class="st2" width="5.7" height="5.7"/>
			<rect x="5.7" y="-22.7" class="st2" width="5.7" height="5.7"/>
			<rect x="17" y="-22.7" class="st2" width="5.7" height="5.7"/>
			<rect x="28.3" y="-22.7" class="st2" width="5.7" height="5.7"/>
			<rect x="39.7" y="-22.7" class="st2" width="5.7" height="5.7"/>
			<rect y="-28.4" class="st2" width="5.7" height="5.7"/>
			<rect x="11.3" y="-28.4" class="st2" width="5.7" height="5.7"/>
			<rect x="22.7" y="-28.4" class="st2" width="5.7" height="5.7"/>
			<rect x="34" y="-28.4" class="st2" width="5.7" height="5.7"/>
			<rect x="5.7" y="-34.1" class="st2" width="5.7" height="5.7"/>
			<rect x="17" y="-34.1" class="st2" width="5.7" height="5.7"/>
			<rect x="28.3" y="-34.1" class="st2" width="5.7" height="5.7"/>
			<rect x="39.7" y="-34.1" class="st2" width="5.7" height="5.7"/>
			<rect y="-39.7" class="st2" width="5.7" height="5.7"/>
			<rect x="11.3" y="-39.7" class="st2" width="5.7" height="5.7"/>
			<rect x="22.7" y="-39.7" class="st2" width="5.7" height="5.7"/>
			<rect x="34" y="-39.7" class="st2" width="5.7" height="5.7"/>
			<rect x="5.7" y="-45.4" class="st2" width="5.7" height="5.7"/>
			<rect x="17" y="-45.4" class="st2" width="5.7" height="5.7"/>
			<rect x="28.3" y="-45.4" class="st2" width="5.7" height="5.7"/>
			<rect x="39.7" y="-45.4" class="st2" width="5.7" height="5.7"/>
		</g>
	</g>
</pattern>
<pattern  x="-16.3" y="434.9" width="45.4" height="45.4" patternUnits="userSpaceOnUse" id="SVGID_0000008884202079878181081" viewBox="0 -45.4 45.4 45.4" style="overflow:visible;">
	<g>
		<rect y="-45.4" class="st0" width="45.4" height="45.4"/>
		<g>
			<rect y="-45.4" class="st0" width="45.4" height="45.4"/>
			<rect y="-45.4" class="st1" width="45.4" height="45.4"/>
			<rect y="-5.7" class="st2" width="5.7" height="5.7"/>
			<rect x="11.3" y="-5.7" class="st2" width="5.7" height="5.7"/>
			<rect x="22.7" y="-5.7" class="st2" width="5.7" height="5.7"/>
			<rect x="34" y="-5.7" class="st2" width="5.7" height="5.7"/>
			<rect x="5.7" y="-11.4" class="st2" width="5.7" height="5.7"/>
			<rect x="17" y="-11.4" class="st2" width="5.7" height="5.7"/>
			<rect x="28.3" y="-11.4" class="st2" width="5.7" height="5.7"/>
			<rect x="39.7" y="-11.4" class="st2" width="5.7" height="5.7"/>
			<rect y="-17.1" class="st2" width="5.7" height="5.7"/>
			<rect x="11.3" y="-17.1" class="st2" width="5.7" height="5.7"/>
			<rect x="22.7" y="-17.1" class="st2" width="5.7" height="5.7"/>
			<rect x="34" y="-17.1" class="st2" width="5.7" height="5.7"/>
			<rect x="5.7" y="-22.7" class="st2" width="5.7" height="5.7"/>
			<rect x="17" y="-22.7" class="st2" width="5.7" height="5.7"/>
			<rect x="28.3" y="-22.7" class="st2" width="5.7" height="5.7"/>
			<rect x="39.7" y="-22.7" class="st2" width="5.7" height="5.7"/>
			<rect y="-28.4" class="st2" width="5.7" height="5.7"/>
			<rect x="11.3" y="-28.4" class="st2" width="5.7" height="5.7"/>
			<rect x="22.7" y="-28.4" class="st2" width="5.7" height="5.7"/>
			<rect x="34" y="-28.4" class="st2" width="5.7" height="5.7"/>
			<rect x="5.7" y="-34.1" class="st2" width="5.7" height="5.7"/>
			<rect x="17" y="-34.1" class="st2" width="5.7" height="5.7"/>
			<rect x="28.3" y="-34.1" class="st2" width="5.7" height="5.7"/>
			<rect x="39.7" y="-34.1" class="st2" width="5.7" height="5.7"/>
			<rect y="-39.7" class="st2" width="5.7" height="5.7"/>
			<rect x="11.3" y="-39.7" class="st2" width="5.7" height="5.7"/>
			<rect x="22.7" y="-39.7" class="st2" width="5.7" height="5.7"/>
			<rect x="34" y="-39.7" class="st2" width="5.7" height="5.7"/>
			<rect x="5.7" y="-45.4" class="st2" width="5.7" height="5.7"/>
			<rect x="17" y="-45.4" class="st2" width="5.7" height="5.7"/>
			<rect x="28.3" y="-45.4" class="st2" width="5.7" height="5.7"/>
			<rect x="39.7" y="-45.4" class="st2" width="5.7" height="5.7"/>
		</g>
	</g>
</pattern>
<pattern  x="-16.3" y="434.9" width="45.4" height="45.4" patternUnits="userSpaceOnUse" id="SVGID_0000009316457804079493869" viewBox="0 -45.4 45.4 45.4" style="overflow:visible;">
	<g>
		<rect y="-45.4" class="st0" width="45.4" height="45.4"/>
		<g>
			<rect y="-45.4" class="st0" width="45.4" height="45.4"/>
			<rect y="-45.4" class="st1" width="45.4" height="45.4"/>
			<rect y="-5.7" class="st2" width="5.7" height="5.7"/>
			<rect x="11.3" y="-5.7" class="st2" width="5.7" height="5.7"/>
			<rect x="22.7" y="-5.7" class="st2" width="5.7" height="5.7"/>
			<rect x="34" y="-5.7" class="st2" width="5.7" height="5.7"/>
			<rect x="5.7" y="-11.4" class="st2" width="5.7" height="5.7"/>
			<rect x="17" y="-11.4" class="st2" width="5.7" height="5.7"/>
			<rect x="28.3" y="-11.4" class="st2" width="5.7" height="5.7"/>
			<rect x="39.7" y="-11.4" class="st2" width="5.7" height="5.7"/>
			<rect y="-17.1" class="st2" width="5.7" height="5.7"/>
			<rect x="11.3" y="-17.1" class="st2" width="5.7" height="5.7"/>
			<rect x="22.7" y="-17.1" class="st2" width="5.7" height="5.7"/>
			<rect x="34" y="-17.1" class="st2" width="5.7" height="5.7"/>
			<rect x="5.7" y="-22.7" class="st2" width="5.7" height="5.7"/>
			<rect x="17" y="-22.7" class="st2" width="5.7" height="5.7"/>
			<rect x="28.3" y="-22.7" class="st2" width="5.7" height="5.7"/>
			<rect x="39.7" y="-22.7" class="st2" width="5.7" height="5.7"/>
			<rect y="-28.4" class="st2" width="5.7" height="5.7"/>
			<rect x="11.3" y="-28.4" class="st2" width="5.7" height="5.7"/>
			<rect x="22.7" y="-28.4" class="st2" width="5.7" height="5.7"/>
			<rect x="34" y="-28.4" class="st2" width="5.7" height="5.7"/>
			<rect x="5.7" y="-34.1" class="st2" width="5.7" height="5.7"/>
			<rect x="17" y="-34.1" class="st2" width="5.7" height="5.7"/>
			<rect x="28.3" y="-34.1" class="st2" width="5.7" height="5.7"/>
			<rect x="39.7" y="-34.1" class="st2" width="5.7" height="5.7"/>
			<rect y="-39.7" class="st2" width="5.7" height="5.7"/>
			<rect x="11.3" y="-39.7" class="st2" width="5.7" height="5.7"/>
			<rect x="22.7" y="-39.7" class="st2" width="5.7" height="5.7"/>
			<rect x="34" y="-39.7" class="st2" width="5.7" height="5.7"/>
			<rect x="5.7" y="-45.4" class="st2" width="5.7" height="5.7"/>
			<rect x="17" y="-45.4" class="st2" width="5.7" height="5.7"/>
			<rect x="28.3" y="-45.4" class="st2" width="5.7" height="5.7"/>
			<rect x="39.7" y="-45.4" class="st2" width="5.7" height="5.7"/>
		</g>
	</g>
</pattern>
<pattern  x="-16.3" y="434.9" width="45.4" height="45.4" patternUnits="userSpaceOnUse" id="SVGID_0000013061006539315327442" viewBox="0 -45.4 45.4 45.4" style="overflow:visible;">
	<g>
		<rect y="-45.4" class="st0" width="45.4" height="45.4"/>
		<g>
			<rect y="-45.4" class="st0" width="45.4" height="45.4"/>
			<rect y="-45.4" class="st1" width="45.4" height="45.4"/>
		</g>
	</g>
</pattern>
<pattern  x="-16.3" y="434.9" width="45.4" height="45.4" patternUnits="userSpaceOnUse" id="SVGID_1_" viewBox="0 -45.4 45.4 45.4" style="overflow:visible;">
	<g>
		<rect y="-45.4" class="st0" width="45.4" height="45.4"/>
		<g>
			<rect y="-45.4" class="st0" width="45.4" height="45.4"/>
			<rect y="-45.4" class="st1" width="45.4" height="45.4"/>
			<rect y="-5.7" class="st2" width="5.7" height="5.7"/>
			<rect x="11.3" y="-5.7" class="st2" width="5.7" height="5.7"/>
			<rect x="22.7" y="-5.7" class="st2" width="5.7" height="5.7"/>
			<rect x="34" y="-5.7" class="st2" width="5.7" height="5.7"/>
			<rect x="5.7" y="-11.4" class="st2" width="5.7" height="5.7"/>
			<rect x="17" y="-11.4" class="st2" width="5.7" height="5.7"/>
			<rect x="28.3" y="-11.4" class="st2" width="5.7" height="5.7"/>
			<rect x="39.7" y="-11.4" class="st2" width="5.7" height="5.7"/>
			<rect y="-17.1" class="st2" width="5.7" height="5.7"/>
			<rect x="11.3" y="-17.1" class="st2" width="5.7" height="5.7"/>
			<rect x="22.7" y="-17.1" class="st2" width="5.7" height="5.7"/>
			<rect x="34" y="-17.1" class="st2" width="5.7" height="5.7"/>
			<rect x="5.7" y="-22.7" class="st2" width="5.7" height="5.7"/>
			<rect x="17" y="-22.7" class="st2" width="5.7" height="5.7"/>
			<rect x="28.3" y="-22.7" class="st2" width="5.7" height="5.7"/>
			<rect x="39.7" y="-22.7" class="st2" width="5.7" height="5.7"/>
			<rect y="-28.4" class="st2" width="5.7" height="5.7"/>
			<rect x="11.3" y="-28.4" class="st2" width="5.7" height="5.7"/>
			<rect x="22.7" y="-28.4" class="st2" width="5.7" height="5.7"/>
			<rect x="34" y="-28.4" class="st2" width="5.7" height="5.7"/>
			<rect x="5.7" y="-34.1" class="st2" width="5.7" height="5.7"/>
			<rect x="17" y="-34.1" class="st2" width="5.7" height="5.7"/>
			<rect x="28.3" y="-34.1" class="st2" width="5.7" height="5.7"/>
			<rect x="39.7" y="-34.1" class="st2" width="5.7" height="5.7"/>
			<rect y="-39.7" class="st2" width="5.7" height="5.7"/>
			<rect x="11.3" y="-39.7" class="st2" width="5.7" height="5.7"/>
			<rect x="22.7" y="-39.7" class="st2" width="5.7" height="5.7"/>
			<rect x="34" y="-39.7" class="st2" width="5.7" height="5.7"/>
			<rect x="5.7" y="-45.4" class="st2" width="5.7" height="5.7"/>
			<rect x="17" y="-45.4" class="st2" width="5.7" height="5.7"/>
			<rect x="28.3" y="-45.4" class="st2" width="5.7" height="5.7"/>
			<rect x="39.7" y="-45.4" class="st2" width="5.7" height="5.7"/>
		</g>
	</g>
</pattern>
<g>
	<g id="다리_3_">
		<g>
			<path class="st3" d="M83.9,319.1l-2.3,55.7c-0.3,1.4-0.6,2.3-1.1,3.5c-1.9,4.5-9.5,14.6-17.8,12.3c0,0-3.9-1.6,0.4-7.7
				c1.4-2,2.6-4.4,3.1-6.9c1.9-7.9,2.6-25.3-10.7-56.9L83.9,319.1L83.9,319.1z"/>
			<path class="st4" d="M81.6,374.6v24.9c0,0.3-0.3,0.5-0.5,0.5h-3.6c-0.3,0-0.5-0.3-0.5-0.5v-7.4c0-0.4-0.5-0.7-0.9-0.3
				c-7.1,7.5-13.2,8.4-16.8,8.2c-3.3-0.3-5.3-1.5-4.8-5.2c0,0-0.1-1.5,3.2-5.8c0,0,8.3-9,10.6-14.3L81.6,374.6L81.6,374.6z"/>
			<path class="st5" d="M82,365.9l-0.3,8.9c-0.3,1.4-0.6,2.3-1.1,3.5c-1.9,4.5-9.5,14.6-17.8,12.3c0,0-3.9-1.6,0.4-7.7
				c1.4-2,2.6-4.4,3.1-6.9c0.6-2.5,1-5.8,1-10.1L82,365.9L82,365.9z"/>
			<path class="st4" d="M84.1,367.6L84.1,367.6c-6.2,1.8-12.8,1.8-18.9,0l0,0v-4.9l0,0c6.2,1.8,12.8,1.8,18.9,0l0,0V367.6z"/>
		</g>
		<g>
			<path class="st3" d="M101.9,319.1l2.3,55.7c0.3,1.4,0.6,2.3,1.1,3.5c1.9,4.5,9.5,14.6,17.8,12.3c0,0,3.9-1.6-0.4-7.7
				c-1.4-2-2.6-4.4-3.1-6.9c-1.9-7.9-2.6-25.3,10.7-56.9L101.9,319.1L101.9,319.1z"/>
			<path class="st4" d="M104.2,374.6v24.9c0,0.3,0.3,0.5,0.5,0.5h3.6c0.3,0,0.5-0.3,0.5-0.5v-7.4c0-0.4,0.5-0.7,0.9-0.3
				c7.1,7.5,13.2,8.4,16.8,8.2c3.3-0.3,5.3-1.5,4.8-5.2c0,0,0.1-1.5-3.2-5.8c0,0-8.3-9-10.6-14.3L104.2,374.6L104.2,374.6z"/>
			<path class="st5" d="M103.8,365.9l0.3,8.9c0.3,1.4,0.6,2.3,1.1,3.5c1.9,4.5,9.5,14.6,17.8,12.3c0,0,3.9-1.6-0.4-7.7
				c-1.4-2-2.6-4.4-3.1-6.9c-0.6-2.5-1-5.8-1-10.1L103.8,365.9L103.8,365.9z"/>
			<path class="st4" d="M101.7,367.6L101.7,367.6c6.2,1.8,12.8,1.8,18.9,0l0,0v-4.9l0,0c-6.2,1.8-12.8,1.8-18.9,0l0,0V367.6z"/>
		</g>
	</g>
	<path class="st3" d="M37.6,140.3c0,0-5.9,30.3-15.9,42.9c0,0-4,4.9-10.5,8.6c0,0-2.9,1.5-3.4,5.3c-0.9,5.7,4.9,10.2,10.3,8.2
		c1.6-0.6,3.4-1.7,5.4-3.3c0,0-2.8,5.2-0.3,6c0,0,2.9,1.4,7.5-5.7c0.6-0.9,1.3-1.9,2-2.8c4.2-5.5,19.9-28.1,22.6-59.1
		C55.1,140.3,49.9,142.8,37.6,140.3z"/>
	<path class="st6" d="M34.4,134l-2.7,6.7c0,0,13,5.8,28.4-0.3L58,134C58,134,39.8,137.3,34.4,134"/>
	<g id="하의_1_">
		<g>
			
				<pattern  id="SVGID_00000034790729425748055280000014065004638118403980_" xlink:href="#SVGID_1_" patternTransform="matrix(0.3404 0 0 -0.3404 -9488.6572 -7545.1865)">
			</pattern>
			<path style="fill:url(#SVGID_00000034790729425748055280000014065004638118403980_);" d="M137.8,195.7c-10.4-10.9-15-23-15-23
				l-5.4-3.8c-1.5-0.2-24.3,0-24.3,0s-22.8-0.2-24.3,0l-5.4,3.8c0,0-4.5,12-15,23c-5,5.3-9.8,10.7-14,16.6
				C20.1,232.1-4.1,272.4,0.6,313.5l10.1,2.6c54,13.4,110.6,13.4,164.7,0l10.2-2.6c4.7-41-19.5-81.4-33.8-101.3
				C147.6,206.4,142.8,200.9,137.8,195.7z"/>
		</g>
		<g>
			<path class="st1" d="M2.5,280.5c0.2-0.7,0.3-1.4,0.4-2.1C2.7,279.1,2.5,279.7,2.5,280.5z"/>
			<path class="st1" d="M184,281.6c0.2,0.9,0.3,1.9,0.5,2.8C184.3,283.5,184.2,282.6,184,281.6z"/>
			<path class="st1" d="M1.1,287.8c0.1-0.6,0.2-1.1,0.3-1.7C1.3,286.7,1.2,287.2,1.1,287.8z"/>
			<path class="st1" d="M1.6,284.6c0.2-1,0.3-2.1,0.6-3.1C2,282.6,1.8,283.6,1.6,284.6z"/>
			<path class="st1" d="M183.2,278.4c0.2,0.7,0.3,1.4,0.4,2C183.6,279.7,183.4,279.1,183.2,278.4z"/>
			<path class="st1" d="M185.5,291.4c-0.1-0.6-0.2-1.2-0.2-1.7c0.1,0.4,0.1,0.9,0.2,1.3c-60.8,14.5-124,14.5-184.8,0.1
				c0.1-0.5,0.1-1,0.2-1.5c-0.1,0.7-0.2,1.4-0.3,2c30.2,7.1,61.2,10.7,92.3,10.7S155.1,298.6,185.5,291.4z"/>
			<path class="st1" d="M4.8,270.7c58.1,13.1,118.4,13.1,176.4-0.1c0.7,2.3,1.3,4.7,1.9,7c-0.6-2.6-1.3-5-2-7.5
				c-28.9,6.6-58.6,9.9-88.3,9.9c-29.5,0-59.1-3.3-87.9-9.8c-0.8,2.5-1.4,5-2,7.6C3.6,275.4,4.2,273.1,4.8,270.7z"/>
			<path class="st1" d="M184.8,286.1c0.1,0.5,0.2,1,0.3,1.5C184.9,287.2,184.8,286.6,184.8,286.1z"/>
			<path class="st1" d="M184.5,284.4c0.1,0.6,0.2,1.2,0.3,1.8C184.7,285.6,184.6,285,184.5,284.4z"/>
			<path class="st1" d="M183.7,280.4c0.1,0.4,0.2,0.8,0.3,1.2C183.9,281.2,183.8,280.8,183.7,280.4z"/>
			<path class="st1" d="M1.4,286.1c0.1-0.5,0.2-1,0.3-1.5C1.5,285.1,1.4,285.6,1.4,286.1z"/>
			<path class="st1" d="M0.9,289.5c0.1-0.6,0.2-1.1,0.3-1.7C1,288.3,0.9,288.9,0.9,289.5z"/>
			<path class="st1" d="M183.1,277.7c0.1,0.3,0.1,0.4,0.2,0.7C183.2,278.1,183.1,277.9,183.1,277.7z"/>
			<path class="st1" d="M2.9,278.4c0.1-0.2,0.1-0.3,0.2-0.6C3,278,2.9,278.2,2.9,278.4z"/>
			<path class="st1" d="M185.3,289.7c-0.1-0.7-0.2-1.3-0.3-2C185.1,288.3,185.2,289,185.3,289.7z"/>
			<path class="st1" d="M2.2,281.5c0.1-0.3,0.2-0.7,0.2-1C2.4,280.9,2.3,281.2,2.2,281.5z"/>
			<path class="st1" d="M184.8,286.1c-0.1-0.6-0.2-1.2-0.3-1.8c-0.2-0.9-0.3-1.9-0.5-2.8c-0.1-0.4-0.2-0.8-0.3-1.2
				c-0.2-0.7-0.3-1.4-0.4-2c-0.1-0.3-0.1-0.4-0.2-0.7c-0.5-2.4-1.2-4.7-1.9-7c-58,13.2-118.2,13.2-176.3,0.1
				c-0.7,2.3-1.3,4.7-1.9,7.1c-0.1,0.2-0.1,0.3-0.2,0.6c-0.2,0.7-0.3,1.4-0.4,2.1c-0.1,0.3-0.2,0.7-0.2,1c-0.2,1-0.4,2.1-0.6,3.1
				c-0.1,0.5-0.2,1-0.3,1.5c-0.1,0.6-0.2,1.1-0.3,1.7c-0.1,0.6-0.2,1.1-0.3,1.7c-0.1,0.5-0.2,1-0.2,1.5
				c60.8,14.4,124,14.3,184.8-0.1c-0.1-0.4-0.1-0.9-0.2-1.3c-0.1-0.7-0.2-1.3-0.3-2S184.8,286.6,184.8,286.1z"/>
		</g>
		<g>
			
				<pattern  id="SVGID_00000183235831989357032670000015198252343430089647_" xlink:href="#SVGID_0000003911094941825382619" patternTransform="matrix(0.3404 0 0 -0.3404 -9488.6572 -7545.1865)">
			</pattern>
			<path style="fill:url(#SVGID_00000183235831989357032670000015198252343430089647_);" d="M4.8,270.7C3,277.3,1.5,284.1,0.7,291
				c60.8,14.4,124,14.3,184.8-0.1c-0.8-6.9-2.3-13.7-4.2-20.3C123.2,283.8,63,283.8,4.8,270.7z"/>
			
				<pattern  id="SVGID_00000034774134953663691820000009297652306446080141_" xlink:href="#SVGID_0000006431606667331096637" patternTransform="matrix(0.1702 -0.2948 -0.2948 -0.1702 -12418.208 -4694.9688)">
			</pattern>
			<path style="fill:url(#SVGID_00000034774134953663691820000009297652306446080141_);" d="M4.8,270.7C3,277.3,1.5,284.1,0.7,291
				c60.8,14.4,124,14.3,184.8-0.1c-0.8-6.9-2.3-13.7-4.2-20.3C123.2,283.8,63,283.8,4.8,270.7z"/>
		</g>
		<g class="st10">
			<path class="st2" d="M4.8,270.7C3,277.3,1.5,284.1,0.7,291c60.8,14.4,124,14.3,184.8-0.1c-0.8-6.9-2.3-13.7-4.2-20.3
				C123.2,283.8,63,283.8,4.8,270.7z"/>
			<path class="st2" d="M4.8,270.7C3,277.3,1.5,284.1,0.7,291c60.8,14.4,124,14.3,184.8-0.1c-0.8-6.9-2.3-13.7-4.2-20.3
				C123.2,283.8,63,283.8,4.8,270.7z"/>
		</g>
	</g>
	<g id="고양이_1_">
		<path class="st11" d="M131.4,203.2c-2.3-1.8-5.3-3.2-9.1-3.7c-3.8-0.4-7.1,0.3-9.7,1.4c-5.7,2.6-9.4,8.2-10.2,14.4l-3.1,25.2
			l3.3,0.4l2.7-22.8c0.7-5.6,3.7-10.7,8.4-13.2c2.1-1.1,4.8-1.8,7.9-1.4c3.1,0.3,5.5,1.6,7.3,3.2c3.9,3.5,5.8,9.1,5.1,14.8
			l-2.7,22.8l3.3,0.4l3.1-25.2C138.6,213.4,136.2,207.2,131.4,203.2z"/>
		<g>
			<g>
				<defs>
					<path id="SVGID_00000092432441199379185080000010692400414326860731_" d="M131.4,203.2c-2.3-1.8-5.3-3.2-9.1-3.7
						c-3.8-0.4-7.1,0.3-9.7,1.4c-5.7,2.6-9.4,8.2-10.2,14.4l-3.1,25.2l3.3,0.4l2.7-22.8c0.7-5.6,3.7-10.7,8.4-13.2
						c2.1-1.1,4.8-1.8,7.9-1.4c3.1,0.3,5.5,1.6,7.3,3.2c3.9,3.5,5.8,9.1,5.1,14.8l-2.7,22.8l3.3,0.4l3.1-25.2
						C138.6,213.4,136.2,207.2,131.4,203.2z"/>
				</defs>
				<clipPath id="SVGID_00000172437680109879099070000007995089916118896780_">
					<use xlink:href="#SVGID_00000092432441199379185080000010692400414326860731_"  style="overflow:visible;"/>
				</clipPath>
				<g style="display:none;clip-path:url(#SVGID_00000172437680109879099070000007995089916118896780_);">
					<g class="st13">
						<g>
							<path class="st14" d="M130.8,238.3c0,0,4.1-0.5,5.6,4.2"/>
							<path class="st14" d="M131.3,234.1c0,0,4.1-0.5,5.6,4.2"/>
							<path class="st14" d="M131.8,230c0,0,4.1-0.5,5.6,4.2"/>
							<path class="st14" d="M132.3,225.8c0,0,4.1-0.5,5.6,4.2"/>
							<path class="st14" d="M132.8,221.6c0,0,4.1-0.5,5.6,4.2"/>
							<path class="st14" d="M133.2,217.8c0,0,0.3-0.1,0.7-0.1s0.9,0,1.6,0.1c0.6,0.2,1.3,0.4,2,1c0.3,0.3,0.6,0.7,0.9,1.2
								c0.3,0.4,0.5,0.9,0.7,1.5"/>
							<path class="st14" d="M132.8,214.4c0,0,0.3-0.1,0.6-0.3c0.4-0.1,0.9-0.3,1.6-0.3c1.3,0,3.1,0.4,4.3,3.1"/>
							<path class="st14" d="M131.5,211.2c0,0,0.2-0.2,0.5-0.3c0.3-0.3,0.9-0.5,1.4-0.7c1.2-0.3,3.1-0.3,4.9,1.9"/>
							<path class="st14" d="M129.4,208.4c0,0,0.2-0.2,0.4-0.5c0.3-0.3,0.7-0.7,1.3-1c1.1-0.7,2.9-1.2,5.2,0.6"/>
							<path class="st14" d="M126.8,206.4c0,0,0.1-0.3,0.3-0.6c0.2-0.3,0.5-0.9,0.9-1.4s1-0.9,1.9-1.2c0.9-0.3,2-0.3,3.3,0.3"/>
							<path class="st14" d="M123.7,205.1c0,0,0-0.3,0.1-0.7c0.1-0.4,0.3-0.9,0.5-1.5c0.3-0.6,0.8-1.2,1.5-1.6
								c0.8-0.4,1.8-0.8,3.2-0.6"/>
							<path class="st14" d="M120.2,204.6c0,0-0.1-0.3-0.1-0.7s0-0.9,0.2-1.6c0.3-1.2,1.3-2.8,4.1-3.3"/>
							<path class="st14" d="M116.8,204.9c0,0-0.1-0.3-0.3-0.6c-0.1-0.4-0.3-0.9-0.3-1.6c0-1.3,0.5-3.1,3.1-4.2"/>
							<path class="st14" d="M113.6,206.1c0,0-0.2-0.2-0.3-0.5c-0.3-0.3-0.5-0.9-0.7-1.4c-0.3-1.2-0.3-3.1,2-4.9"/>
							<path class="st14" d="M110.9,208.2c0,0-0.2-0.2-0.5-0.4c-0.3-0.3-0.7-0.7-1-1.3c-0.6-1.1-1.2-2.9,0.6-5.2"/>
							<path class="st14" d="M108.8,210.8c0,0-0.3-0.1-0.6-0.3c-0.3-0.2-0.9-0.5-1.3-0.9c-0.9-0.9-1.9-2.5-0.9-5.2"/>
							<path class="st14" d="M107.4,214c0,0-0.3,0-0.7-0.1c-0.4-0.1-0.9-0.3-1.5-0.6c-1.1-0.6-2.4-2-2.1-4.9"/>
							<path class="st14" d="M106.8,217.6c0,0-1,0.2-2.2-0.3c-0.6-0.3-1.3-0.6-1.9-1.2c-0.6-0.6-1.1-1.6-1.3-3"/>
							<path class="st14" d="M106.3,221.8c0,0-4.1,0.5-5.6-4.2"/>
							<path class="st14" d="M105.8,226c0,0-4.1,0.5-5.6-4.2"/>
							<path class="st14" d="M105.3,230.2c0,0-4.1,0.5-5.6-4.2"/>
							<path class="st14" d="M104.8,234.4c0,0-4.1,0.5-5.6-4.2"/>
							<path class="st14" d="M104.2,238.6c0,0-4.1,0.5-5.6-4.2"/>
						</g>
					</g>
				</g>
			</g>
			<g>
				<defs>
					<path id="SVGID_00000026137281924693717770000015661792367545037486_" d="M131.4,203.2c-2.3-1.8-5.3-3.2-9.1-3.7
						c-3.8-0.4-7.1,0.3-9.7,1.4c-5.7,2.6-9.4,8.2-10.2,14.4l-3.1,25.2l3.3,0.4l2.7-22.8c0.7-5.6,3.7-10.7,8.4-13.2
						c2.1-1.1,4.8-1.8,7.9-1.4c3.1,0.3,5.5,1.6,7.3,3.2c3.9,3.5,5.8,9.1,5.1,14.8l-2.7,22.8l3.3,0.4l3.1-25.2
						C138.6,213.4,136.2,207.2,131.4,203.2z"/>
				</defs>
				<clipPath id="SVGID_00000109742151200773366590000004370888816458795425_">
					<use xlink:href="#SVGID_00000026137281924693717770000015661792367545037486_"  style="overflow:visible;"/>
				</clipPath>
				<g style="clip-path:url(#SVGID_00000109742151200773366590000004370888816458795425_);">
					<path class="st16" d="M136.4,243.1c-0.3,0-0.4-0.2-0.5-0.4c-1.4-4.2-4.9-3.8-5-3.8c-0.3,0-0.6-0.2-0.6-0.5
						c0-0.3,0.2-0.6,0.5-0.6c0.1,0,4.6-0.5,6.2,4.6c0.1,0.3-0.1,0.6-0.3,0.7C136.5,243.1,136.5,243.1,136.4,243.1z"/>
					<path class="st16" d="M136.9,238.9c-0.3,0-0.4-0.2-0.5-0.4c-1.4-4.2-4.9-3.8-5-3.8c-0.3,0-0.6-0.2-0.6-0.5
						c0-0.3,0.2-0.6,0.5-0.6c0.1,0,4.6-0.5,6.2,4.6c0.1,0.3-0.1,0.6-0.3,0.7C137,238.9,137,238.9,136.9,238.9z"/>
					<path class="st16" d="M137.4,234.7c-0.3,0-0.4-0.2-0.5-0.4c-1.4-4.2-4.9-3.8-5-3.8c-0.3,0-0.6-0.2-0.6-0.5s0.2-0.6,0.5-0.6
						c0.1,0,4.6-0.5,6.2,4.6c0.1,0.3-0.1,0.6-0.3,0.7C137.5,234.7,137.4,234.7,137.4,234.7z"/>
					<path class="st16" d="M138,230.6c-0.3,0-0.4-0.2-0.5-0.4c-1.4-4.2-4.9-3.8-5-3.8c-0.3,0-0.6-0.2-0.6-0.5s0.2-0.6,0.5-0.6
						c0.1,0,4.6-0.5,6.2,4.6c0.1,0.3-0.1,0.6-0.3,0.7C138,230.5,138,230.6,138,230.6z"/>
					<path class="st16" d="M138.5,226.3c-0.3,0-0.4-0.2-0.5-0.4c-1.4-4.2-4.9-3.8-5-3.8c-0.3,0-0.6-0.2-0.6-0.5s0.2-0.6,0.5-0.6
						c0.1,0,4.6-0.5,6.2,4.6c0.1,0.3-0.1,0.6-0.3,0.7C138.5,226.3,138.5,226.3,138.5,226.3z"/>
					<path class="st16" d="M139,222.1c-0.3,0-0.4-0.2-0.5-0.4c-0.2-0.5-0.3-0.9-0.6-1.4c-0.3-0.4-0.5-0.8-0.8-1
						c-0.5-0.4-1-0.8-1.7-0.9c-0.4-0.1-0.9-0.2-1.4-0.1c-0.3,0-0.6,0.1-0.6,0.1c-0.3,0.1-0.6-0.2-0.7-0.4s0.1-0.6,0.4-0.7
						c0,0,0.3-0.1,0.8-0.1c0.6,0,1.2,0,1.8,0.2c0.9,0.2,1.6,0.6,2.2,1.2c0.3,0.3,0.7,0.8,0.9,1.3c0.3,0.5,0.5,1.1,0.7,1.6
						c0.1,0.3-0.1,0.6-0.3,0.7C139.1,222.1,139,222.1,139,222.1z"/>
					<path class="st16" d="M139.2,217.4c-0.2,0-0.4-0.1-0.5-0.3c-1-2.3-2.6-2.8-3.7-2.7c-0.4,0-0.9,0.1-1.4,0.3
						c-0.3,0.1-0.5,0.2-0.5,0.2c-0.3,0.2-0.6,0-0.8-0.3c-0.2-0.3,0-0.6,0.3-0.8c0,0,0.3-0.1,0.7-0.3c0.6-0.2,1.2-0.3,1.8-0.3
						c1.2-0.1,3.4,0.4,4.8,3.4c0.1,0.3,0,0.6-0.3,0.8C139.4,217.4,139.3,217.4,139.2,217.4z"/>
					<path class="st16" d="M138.4,212.6c-0.2,0-0.3-0.1-0.4-0.2c-1.5-2-3.2-2-4.3-1.7c-0.4,0.1-0.9,0.3-1.4,0.6
						c-0.3,0.2-0.4,0.3-0.5,0.3c-0.3,0.2-0.6,0.2-0.8-0.1c-0.2-0.3-0.2-0.6,0.1-0.8c0,0,0.3-0.2,0.6-0.4c0.5-0.3,1.1-0.6,1.6-0.8
						c1.2-0.3,3.4-0.5,5.4,2.1c0.2,0.3,0.2,0.6-0.1,0.8C138.6,212.5,138.5,212.6,138.4,212.6z"/>
					<path class="st16" d="M129.4,209c-0.1,0-0.3,0-0.3-0.1c-0.3-0.2-0.3-0.5-0.2-0.8c0,0,0.2-0.3,0.5-0.6c0.4-0.4,0.9-0.9,1.4-1.1
						c1-0.6,3.1-1.4,5.9,0.6c0.3,0.2,0.3,0.5,0.1,0.8c-0.2,0.3-0.5,0.3-0.8,0.1c-2-1.5-3.7-1.1-4.6-0.5c-0.4,0.3-0.8,0.5-1.1,0.9
						c-0.3,0.3-0.3,0.4-0.3,0.4C129.8,208.9,129.6,209,129.4,209z"/>
					<path class="st16" d="M126.8,206.9c-0.1,0-0.1,0-0.2,0c-0.3-0.1-0.4-0.4-0.3-0.7c0,0,0.1-0.3,0.3-0.7c0.3-0.6,0.6-1,1-1.4
						c0.6-0.7,1.4-1.1,2.1-1.3c1.1-0.3,2.3-0.2,3.7,0.3c0.3,0.1,0.4,0.4,0.3,0.7c-0.1,0.3-0.4,0.4-0.7,0.3c-1.1-0.4-2-0.5-3-0.3
						c-0.6,0.2-1.2,0.5-1.6,1c-0.3,0.3-0.6,0.8-0.9,1.2c-0.2,0.3-0.3,0.5-0.3,0.5C127.2,206.8,127.1,206.9,126.8,206.9z"/>
					<path class="st16" d="M123.7,205.6L123.7,205.6c-0.3,0-0.6-0.3-0.6-0.6c0,0,0-0.3,0.1-0.8c0.2-0.6,0.3-1.2,0.6-1.7
						c0.4-0.8,1-1.4,1.7-1.9c1-0.6,2.2-0.9,3.6-0.7c0.3,0,0.5,0.3,0.5,0.6c0,0.3-0.3,0.5-0.6,0.5c-1.1-0.1-2.1,0.1-2.9,0.5
						c-0.6,0.3-1,0.8-1.4,1.4c-0.3,0.4-0.3,0.9-0.5,1.4c-0.1,0.3-0.1,0.6-0.1,0.6C124.2,205.4,123.9,205.6,123.7,205.6z"/>
					<path class="st16" d="M120.2,205.1c-0.3,0-0.5-0.2-0.5-0.4c0,0-0.1-0.3-0.1-0.8c0-0.6,0.1-1.2,0.2-1.8c0.3-1.4,1.4-3.1,4.5-3.7
						c0.3-0.1,0.6,0.2,0.7,0.4c0.1,0.3-0.2,0.6-0.4,0.7c-2,0.3-3.2,1.4-3.7,2.9c-0.1,0.4-0.2,0.9-0.2,1.4c0,0.3,0.1,0.6,0.1,0.6
						c0.1,0.3-0.2,0.6-0.4,0.7C120.2,205.1,120.2,205.1,120.2,205.1z"/>
					<path class="st16" d="M116.8,205.5c-0.2,0-0.4-0.1-0.5-0.3c0,0-0.1-0.3-0.3-0.7c-0.2-0.6-0.3-1.2-0.3-1.8
						c0-1.2,0.4-3.4,3.5-4.7c0.3-0.1,0.6,0,0.8,0.3c0.1,0.3,0,0.6-0.3,0.8c-2.3,1-2.8,2.6-2.8,3.7c0,0.4,0.1,0.9,0.3,1.4
						c0.1,0.3,0.2,0.5,0.2,0.5c0.1,0.3,0,0.6-0.3,0.8C116.9,205.5,116.8,205.5,116.8,205.5z"/>
					<path class="st16" d="M113.6,206.6c-0.2,0-0.3-0.1-0.4-0.2c0,0-0.2-0.3-0.4-0.6c-0.3-0.5-0.6-1.1-0.8-1.6
						c-0.3-1.2-0.4-3.5,2.1-5.4c0.3-0.2,0.6-0.2,0.8,0.1c0.2,0.3,0.2,0.6-0.1,0.8c-2,1.5-2,3.2-1.8,4.3c0.1,0.4,0.3,0.9,0.6,1.4
						c0.2,0.3,0.3,0.4,0.3,0.5c0.2,0.3,0.2,0.6-0.1,0.8C113.9,206.6,113.8,206.6,113.6,206.6z"/>
					<path class="st16" d="M110.9,208.7c-0.1,0-0.2,0-0.3-0.1c0,0-0.3-0.2-0.6-0.4c-0.4-0.4-0.9-0.9-1.1-1.4
						c-0.8-1.3-1.3-3.3,0.6-5.9c0.2-0.3,0.5-0.3,0.8-0.1c0.3,0.2,0.3,0.5,0.1,0.8c-1.2,1.6-1.4,3.1-0.5,4.6c0.3,0.4,0.5,0.8,0.9,1.1
						c0.3,0.3,0.4,0.3,0.4,0.3c0.3,0.2,0.3,0.5,0.2,0.8C111.3,208.6,111.1,208.7,110.9,208.7z"/>
					<path class="st16" d="M108.8,211.4c-0.1,0-0.1,0-0.2,0c0,0-0.3-0.1-0.7-0.3c-0.6-0.3-1-0.6-1.4-1c-1-1-2-2.9-0.9-5.8
						c0.1-0.3,0.4-0.4,0.7-0.3c0.3,0.1,0.4,0.4,0.3,0.7c-0.7,1.9-0.5,3.4,0.7,4.6c0.3,0.3,0.7,0.6,1.2,0.9c0.3,0.2,0.5,0.3,0.5,0.3
						c0.3,0.1,0.4,0.4,0.3,0.7C109.3,211.2,109,211.4,108.8,211.4z"/>
					<path class="st16" d="M107.4,214.6L107.4,214.6c-0.1,0-0.3,0-0.8-0.2c-0.6-0.2-1.2-0.3-1.6-0.7c-1.3-0.8-2.7-2.3-2.4-5.4
						c0-0.3,0.3-0.5,0.6-0.5c0.3,0,0.5,0.3,0.5,0.6c-0.3,2,0.4,3.4,1.9,4.3c0.4,0.3,0.9,0.4,1.4,0.5c0.3,0.1,0.5,0.1,0.6,0.1
						c0.3,0,0.5,0.3,0.5,0.6C108,214.3,107.7,214.6,107.4,214.6z"/>
					<path class="st16" d="M106.4,218.2c-0.4,0-1.2-0.1-2-0.3c-0.8-0.3-1.4-0.8-2-1.4c-0.5-0.6-1.2-1.6-1.4-3.3
						c0-0.3,0.2-0.6,0.5-0.6c0.3,0,0.6,0.2,0.6,0.5c0.2,1.4,0.8,2.2,1.1,2.7c0.4,0.5,1,0.9,1.6,1.1c1,0.4,2,0.3,2,0.3
						c0.3,0,0.6,0.2,0.6,0.5s-0.2,0.6-0.5,0.6C106.8,218.2,106.6,218.2,106.4,218.2z"/>
					<path class="st16" d="M106,222.4c-1.1,0-4.5-0.3-5.8-4.6c-0.1-0.3,0.1-0.6,0.3-0.7c0.3-0.1,0.6,0.1,0.7,0.3
						c1.4,4.2,4.9,3.8,5,3.8c0.3-0.1,0.6,0.2,0.6,0.5c0,0.3-0.2,0.6-0.5,0.6C106.4,222.4,106.2,222.4,106,222.4z"/>
					<path class="st16" d="M105.4,226.6c-1.1,0-4.5-0.3-5.8-4.6c-0.1-0.3,0.1-0.6,0.3-0.7c0.3-0.1,0.6,0.1,0.7,0.3
						c1.4,4.2,4.9,3.8,5,3.8c0.3,0,0.6,0.2,0.6,0.5c0,0.3-0.2,0.6-0.5,0.6C105.9,226.6,105.7,226.6,105.4,226.6z"/>
					<path class="st16" d="M104.9,230.7c-1.1,0-4.5-0.3-5.8-4.6c-0.1-0.3,0.1-0.6,0.3-0.7c0.3-0.1,0.6,0.1,0.7,0.3
						c1.4,4.2,4.9,3.8,5,3.8c0.3,0,0.6,0.2,0.6,0.5c0,0.3-0.2,0.6-0.5,0.6C105.4,230.7,105.2,230.7,104.9,230.7z"/>
					<path class="st16" d="M104.4,234.9c-1.1,0-4.5-0.3-5.8-4.6c-0.1-0.3,0.1-0.6,0.3-0.7c0.3-0.1,0.6,0.1,0.7,0.3
						c1.4,4.2,4.9,3.8,5,3.8c0.3-0.1,0.6,0.2,0.6,0.5c0,0.3-0.2,0.6-0.5,0.6C104.8,234.9,104.7,234.9,104.4,234.9z"/>
					<path class="st16" d="M103.9,239.2c-1.1,0-4.5-0.3-5.8-4.6c-0.1-0.3,0.1-0.6,0.3-0.7c0.3-0.1,0.6,0.1,0.7,0.3
						c1.4,4.2,4.9,3.8,5,3.8c0.3,0,0.6,0.2,0.6,0.5c0,0.3-0.2,0.6-0.5,0.6C104.3,239.1,104.2,239.2,103.9,239.2z"/>
				</g>
			</g>
		</g>
		<path class="st17" d="M100.3,236.9c0,0,24.9-12.9,39.2,2.7l-30,13.5L100.3,236.9z"/>
		<path class="st11" d="M133.2,271l-36.3-3.1c-3.1-0.3-5.4-2.9-5.8-6.3L89.9,248c-0.4-4.5,3-8.3,7.1-8l41.1,3.6
			c4.1,0.3,6.7,4.8,5.5,9.1l-3.6,13.1C139.1,269,136.2,271.2,133.2,271z"/>
		<g>
			<g>
				<defs>
					<path id="SVGID_00000144300399586489299640000005836524907738238607_" d="M133.2,271l-36.3-3.1c-3.1-0.3-5.4-2.9-5.8-6.3
						L89.9,248c-0.4-4.5,3-8.3,7.1-8l41.1,3.6c4.1,0.3,6.7,4.8,5.5,9.1l-3.6,13.1C139.1,269,136.2,271.2,133.2,271z"/>
				</defs>
				<clipPath id="SVGID_00000108275672229948893020000014432358418525218704_">
					<use xlink:href="#SVGID_00000144300399586489299640000005836524907738238607_"  style="overflow:visible;"/>
				</clipPath>
				<g style="clip-path:url(#SVGID_00000108275672229948893020000014432358418525218704_);">
					<g>
						<path class="st16" d="M121.7,224.9L121.7,224.9v0.2c1.9,1.3,4.3,1.5,6.4,0.7C126.2,224.4,123.8,224.1,121.7,224.9z"/>
						<path class="st16" d="M115.2,224.2L115.2,224.2v0.2c1.9,1.3,4.3,1.5,6.4,0.7C119.7,223.7,117.4,223.3,115.2,224.2z"/>
						<path class="st16" d="M134.7,226.4L134.7,226.4v0.2c1.9,1.3,4.3,1.5,6.4,0.7C139.2,225.9,136.8,225.6,134.7,226.4z"/>
						<path class="st16" d="M128.2,225.7L128.2,225.7v0.2c1.9,1.3,4.3,1.5,6.4,0.7C132.8,225.2,130.4,224.9,128.2,225.7z"/>
						<path class="st16" d="M102.2,222.6L102.2,222.6v0.2c1.9,1.3,4.3,1.5,6.4,0.7C106.7,222.1,104.3,221.9,102.2,222.6z"/>
						<path class="st16" d="M95.7,221.9L95.7,221.9v0.2c1.9,1.3,4.3,1.5,6.4,0.7C100.3,221.4,97.9,221.1,95.7,221.9z"/>
						<path class="st16" d="M108.8,223.4L108.8,223.4v0.2c1.9,1.3,4.3,1.5,6.4,0.7C113.3,222.9,110.9,222.6,108.8,223.4z"/>
						<path class="st16" d="M147.7,227.9L147.7,227.9v0.2c1.9,1.3,4.3,1.5,6.4,0.7C152.2,227.4,149.9,227.2,147.7,227.9z"/>
						<path class="st16" d="M141.3,227.2L141.3,227.2v0.2c1.9,1.3,4.3,1.5,6.4,0.7C145.8,226.6,143.4,226.4,141.3,227.2z"/>
					</g>
					<g>
						<path class="st16" d="M118,228.4L118,228.4v0.2c1.9,1.3,4.3,1.5,6.4,0.7C122.5,227.9,120.2,227.6,118,228.4z"/>
						<path class="st16" d="M111.5,227.7L111.5,227.7v0.2c1.9,1.3,4.3,1.5,6.4,0.7C116,227.2,113.6,226.8,111.5,227.7z"/>
						<path class="st16" d="M131.1,230L131.1,230v0.2c1.9,1.3,4.3,1.5,6.4,0.7C135.6,229.4,133.2,229.1,131.1,230z"/>
						<path class="st16" d="M124.5,229.2L124.5,229.2v0.2c1.9,1.3,4.3,1.5,6.4,0.7C129,228.7,126.6,228.3,124.5,229.2z"/>
						<path class="st16" d="M98.5,226.1L98.5,226.1v0.2c1.9,1.3,4.3,1.5,6.4,0.7C103.1,225.6,100.7,225.4,98.5,226.1z"/>
						<path class="st16" d="M92,225.4L92,225.4v0.2c1.9,1.3,4.3,1.5,6.4,0.7C96.5,224.9,94.1,224.6,92,225.4z"/>
						<path class="st16" d="M105,226.9L105,226.9v0.2c1.9,1.3,4.3,1.5,6.4,0.7C109.5,226.4,107.1,226.1,105,226.9z"/>
						<path class="st16" d="M144.1,231.4L144.1,231.4v0.2c1.9,1.3,4.3,1.5,6.4,0.7C148.6,230.9,146.2,230.6,144.1,231.4z"/>
						<path class="st16" d="M137.5,230.6L137.5,230.6v0.2c1.9,1.3,4.3,1.5,6.4,0.7C142,230.2,139.7,229.9,137.5,230.6z"/>
					</g>
					<g>
						<path class="st16" d="M120.8,232.7L120.8,232.7v0.2c1.9,1.3,4.3,1.5,6.4,0.7C125.4,232.2,123,231.8,120.8,232.7z"/>
						<path class="st16" d="M114.3,231.9L114.3,231.9v0.2c1.9,1.3,4.3,1.5,6.4,0.7C118.8,231.4,116.4,231.1,114.3,231.9z"/>
						<path class="st16" d="M133.9,234.2L133.9,234.2v0.2c1.9,1.3,4.3,1.5,6.4,0.7C138.4,233.7,136,233.4,133.9,234.2z"/>
						<path class="st16" d="M127.3,233.4L127.3,233.4v0.2c1.9,1.3,4.3,1.5,6.4,0.7C131.8,232.9,129.4,232.6,127.3,233.4z"/>
						<path class="st16" d="M101.3,230.4L101.3,230.4v0.2c1.9,1.3,4.3,1.5,6.4,0.7C105.9,229.9,103.5,229.6,101.3,230.4z"/>
						<path class="st16" d="M94.8,229.6L94.8,229.6v0.2c1.9,1.3,4.3,1.5,6.4,0.7C99.3,229.1,96.9,228.9,94.8,229.6z"/>
						<path class="st16" d="M107.8,231.2L107.8,231.2v0.2c1.9,1.3,4.3,1.5,6.4,0.7C112.3,230.6,110,230.4,107.8,231.2z"/>
						<path class="st16" d="M146.9,235.7L146.9,235.7v0.2c1.9,1.3,4.3,1.5,6.4,0.7C151.4,235.2,149,234.9,146.9,235.7z"/>
						<path class="st16" d="M140.3,234.9L140.3,234.9v0.2c1.9,1.3,4.3,1.5,6.4,0.7C144.8,234.4,142.5,234.1,140.3,234.9z"/>
					</g>
					<g>
						<path class="st16" d="M117.1,236.2L117.1,236.2v0.2c1.9,1.3,4.3,1.5,6.4,0.7C121.6,235.7,119.2,235.3,117.1,236.2z"/>
						<path class="st16" d="M110.6,235.4L110.6,235.4v0.2c1.9,1.3,4.3,1.5,6.4,0.7C115.1,234.9,112.8,234.6,110.6,235.4z"/>
						<path class="st16" d="M130.1,237.7L130.1,237.7v0.2c1.9,1.3,4.3,1.5,6.4,0.7C134.6,237.2,132.2,236.9,130.1,237.7z"/>
						<path class="st16" d="M123.7,236.9L123.7,236.9v0.2c1.9,1.3,4.3,1.5,6.4,0.7C128.2,236.4,125.8,236.1,123.7,236.9z"/>
						<path class="st16" d="M97.6,233.9L97.6,233.9v0.2c1.9,1.3,4.3,1.5,6.4,0.7C102.1,233.4,99.7,233.1,97.6,233.9z"/>
						<path class="st16" d="M91.1,233.1L91.1,233.1v0.2c1.9,1.3,4.3,1.5,6.4,0.7C95.7,232.6,93.3,232.3,91.1,233.1z"/>
						<path class="st16" d="M104.2,234.6L104.2,234.6v0.2c1.9,1.3,4.3,1.5,6.4,0.7C108.7,234.1,106.3,233.9,104.2,234.6z"/>
						<path class="st16" d="M143.1,239.2L143.1,239.2v0.2c1.9,1.3,4.3,1.5,6.4,0.7C147.7,238.7,145.3,238.4,143.1,239.2z"/>
						<path class="st16" d="M136.7,238.5L136.7,238.5v0.2c1.9,1.3,4.3,1.5,6.4,0.7C141.2,238,138.8,237.6,136.7,238.5z"/>
					</g>
					<g>
						<path class="st16" d="M119.9,240.4L119.9,240.4v0.2c1.9,1.3,4.3,1.5,6.4,0.7C124.4,239.9,122,239.6,119.9,240.4z"/>
						<path class="st16" d="M113.4,239.7L113.4,239.7v0.2c1.9,1.3,4.3,1.5,6.4,0.7C118,239.2,115.6,238.9,113.4,239.7z"/>
						<path class="st16" d="M132.9,242L132.9,242v0.2c1.9,1.3,4.3,1.5,6.4,0.7C137.4,241.4,135.1,241.1,132.9,242z"/>
						<path class="st16" d="M126.5,241.2L126.5,241.2v0.2c1.9,1.3,4.3,1.5,6.4,0.7C131,240.7,128.6,240.3,126.5,241.2z"/>
						<path class="st16" d="M100.4,238.1L100.4,238.1v0.2c1.9,1.3,4.3,1.5,6.4,0.7C104.9,237.6,102.5,237.4,100.4,238.1z"/>
						<path class="st16" d="M93.9,237.4L93.9,237.4v0.2c1.9,1.3,4.3,1.5,6.4,0.7C98.5,236.9,96,236.6,93.9,237.4z"/>
						<path class="st16" d="M106.9,238.9L106.9,238.9v0.2c1.9,1.3,4.3,1.5,6.4,0.7C111.4,238.4,109,238.1,106.9,238.9z"/>
						<path class="st16" d="M146,243.4L146,243.4v0.2c1.9,1.3,4.3,1.5,6.4,0.7C150.5,242.9,148.1,242.6,146,243.4z"/>
						<path class="st16" d="M139.5,242.7L139.5,242.7v0.2c1.9,1.3,4.3,1.5,6.4,0.7C144,242.2,141.6,241.9,139.5,242.7z"/>
					</g>
					<g>
						<path class="st16" d="M116.2,243.9L116.2,243.9v0.2c1.9,1.3,4.3,1.5,6.4,0.7C120.8,243.4,118.4,243.2,116.2,243.9z"/>
						<path class="st16" d="M109.7,243.2L109.7,243.2v0.2c1.9,1.3,4.3,1.5,6.4,0.7C114.2,242.6,111.8,242.4,109.7,243.2z"/>
						<path class="st16" d="M129.3,245.4L129.3,245.4v0.2c1.9,1.3,4.3,1.5,6.4,0.7C133.8,244.9,131.4,244.6,129.3,245.4z"/>
						<path class="st16" d="M122.7,244.7L122.7,244.7v0.2c1.9,1.3,4.3,1.5,6.4,0.7C127.2,244.2,124.8,243.8,122.7,244.7z"/>
						<path class="st16" d="M96.7,241.6L96.7,241.6v0.2c1.9,1.3,4.3,1.5,6.4,0.7C101.3,241.1,98.9,240.9,96.7,241.6z"/>
						<path class="st16" d="M90.2,240.9L90.2,240.9v0.2c1.9,1.3,4.3,1.5,6.4,0.7C94.7,240.4,92.3,240.1,90.2,240.9z"/>
						<path class="st16" d="M103.2,242.4L103.2,242.4v0.2c1.9,1.3,4.3,1.5,6.4,0.7C107.7,241.9,105.4,241.6,103.2,242.4z"/>
						<path class="st16" d="M142.3,247L142.3,247v0.2c1.9,1.3,4.3,1.5,6.4,0.7C146.8,246.5,144.4,246.1,142.3,247z"/>
						<path class="st16" d="M135.7,246.2L135.7,246.2v0.2c1.9,1.3,4.3,1.5,6.4,0.7C140.2,245.7,137.9,245.4,135.7,246.2z"/>
					</g>
					<g>
						<path class="st16" d="M119.1,248.2L119.1,248.2v0.2c1.9,1.3,4.3,1.5,6.4,0.7C123.6,247.7,121.2,247.4,119.1,248.2z"/>
						<path class="st16" d="M112.5,247.4L112.5,247.4v0.2c1.9,1.3,4.3,1.5,6.4,0.7C117,246.9,114.6,246.6,112.5,247.4z"/>
						<path class="st16" d="M132,249.7L132,249.7v0.2c1.9,1.3,4.3,1.5,6.4,0.7C136.6,249.2,134.2,248.9,132,249.7z"/>
						<path class="st16" d="M125.5,248.9L125.5,248.9v0.2c1.9,1.3,4.3,1.5,6.4,0.7C130,248.4,127.7,248.1,125.5,248.9z"/>
						<path class="st16" d="M99.5,245.9L99.5,245.9v0.2c1.9,1.3,4.3,1.5,6.4,0.7C104,245.4,101.6,245.1,99.5,245.9z"/>
						<path class="st16" d="M93,245.1L93,245.1v0.2c1.9,1.3,4.3,1.5,6.4,0.7C97.5,244.7,95.1,244.3,93,245.1z"/>
						<path class="st16" d="M106,246.6L106,246.6v0.2c1.9,1.3,4.3,1.5,6.4,0.7C110.5,246.1,108.2,245.9,106,246.6z"/>
						<path class="st16" d="M145,251.2L145,251.2v0.2c1.9,1.3,4.3,1.5,6.4,0.7C149.6,250.7,147.1,250.4,145,251.2z"/>
						<path class="st16" d="M138.5,250.5L138.5,250.5v0.2c1.9,1.3,4.3,1.5,6.4,0.7C143.1,250,140.7,249.6,138.5,250.5z"/>
					</g>
					<g>
						<path class="st16" d="M115.3,251.7L115.3,251.7v0.2c1.9,1.3,4.3,1.5,6.4,0.7C119.8,251.2,117.4,250.9,115.3,251.7z"/>
						<path class="st16" d="M108.8,250.9L108.8,250.9v0.2c1.9,1.3,4.3,1.5,6.4,0.7C113.4,250.4,111,250.1,108.8,250.9z"/>
						<path class="st16" d="M128.3,253.2L128.3,253.2v0.2c1.9,1.3,4.3,1.5,6.4,0.7C132.8,252.7,130.5,252.3,128.3,253.2z"/>
						<path class="st16" d="M121.9,252.4L121.9,252.4v0.2c1.9,1.3,4.3,1.5,6.4,0.7C126.4,251.9,124,251.7,121.9,252.4z"/>
						<path class="st16" d="M95.8,249.4L95.8,249.4v0.2c1.9,1.3,4.3,1.5,6.4,0.7C100.3,248.9,98,248.6,95.8,249.4z"/>
						<path class="st16" d="M89.3,248.7L89.3,248.7v0.2c1.9,1.3,4.3,1.5,6.4,0.7C93.9,248.2,91.4,247.8,89.3,248.7z"/>
						<path class="st16" d="M102.3,250.1L102.3,250.1v0.2c1.9,1.3,4.3,1.5,6.4,0.7C106.8,249.6,104.4,249.4,102.3,250.1z"/>
						<path class="st16" d="M141.4,254.7L141.4,254.7v0.2c1.9,1.3,4.3,1.5,6.4,0.7C145.9,254.2,143.5,253.9,141.4,254.7z"/>
						<path class="st16" d="M134.9,254L134.9,254v0.2c1.9,1.3,4.3,1.5,6.4,0.7C139.4,253.4,137,253.1,134.9,254z"/>
					</g>
					<g>
						<path class="st16" d="M118.1,255.9L118.1,255.9v0.2c1.9,1.3,4.3,1.5,6.4,0.7C122.6,255.4,120.2,255.2,118.1,255.9z"/>
						<path class="st16" d="M111.6,255.2L111.6,255.2v0.2c1.9,1.3,4.3,1.5,6.4,0.7C116.2,254.6,113.7,254.4,111.6,255.2z"/>
						<path class="st16" d="M131.1,257.4L131.1,257.4v0.2c1.9,1.3,4.3,1.5,6.4,0.7C135.7,256.9,133.3,256.6,131.1,257.4z"/>
						<path class="st16" d="M124.6,256.7L124.6,256.7v0.2c1.9,1.3,4.3,1.5,6.4,0.7C129.2,256.2,126.7,255.9,124.6,256.7z"/>
						<path class="st16" d="M98.6,253.6L98.6,253.6v0.2c1.9,1.3,4.3,1.5,6.4,0.7C103.1,253.2,100.8,252.9,98.6,253.6z"/>
						<path class="st16" d="M92.1,252.9L92.1,252.9v0.2c1.9,1.3,4.3,1.5,6.4,0.7C96.6,252.4,94.2,252.1,92.1,252.9z"/>
						<path class="st16" d="M105.1,254.4L105.1,254.4v0.2c1.9,1.3,4.3,1.5,6.4,0.7C109.6,253.9,107.2,253.6,105.1,254.4z"/>
						<path class="st16" d="M144.2,259L144.2,259v0.2c1.9,1.3,4.3,1.5,6.4,0.7C148.7,258.5,146.3,258.1,144.2,259z"/>
						<path class="st16" d="M137.6,258.2L137.6,258.2v0.2c1.9,1.3,4.3,1.5,6.4,0.7C142.1,257.7,139.7,257.4,137.6,258.2z"/>
					</g>
					<g>
						<path class="st16" d="M114.5,259.4L114.5,259.4v0.2c1.9,1.3,4.3,1.5,6.4,0.7C119,258.9,116.6,258.6,114.5,259.4z"/>
						<path class="st16" d="M107.9,258.6L107.9,258.6v0.2c1.9,1.3,4.3,1.5,6.4,0.7C112.4,258.1,110,257.9,107.9,258.6z"/>
						<path class="st16" d="M127.4,260.9L127.4,260.9v0.2c1.9,1.3,4.3,1.5,6.4,0.7C132,260.4,129.6,260.2,127.4,260.9z"/>
						<path class="st16" d="M120.9,260.2L120.9,260.2v0.2c1.9,1.3,4.3,1.5,6.4,0.7C125.4,259.7,123.1,259.4,120.9,260.2z"/>
						<path class="st16" d="M94.9,257.2L94.9,257.2v0.2c1.9,1.3,4.3,1.5,6.4,0.7C99.4,256.7,97,256.3,94.9,257.2z"/>
						<path class="st16" d="M88.4,256.4L88.4,256.4v0.2c1.9,1.3,4.3,1.5,6.4,0.7C92.9,255.9,90.5,255.6,88.4,256.4z"/>
						<path class="st16" d="M101.4,257.9L101.4,257.9v0.2c1.9,1.3,4.3,1.5,6.4,0.7C106,257.4,103.6,257.1,101.4,257.9z"/>
						<path class="st16" d="M140.4,262.5L140.4,262.5v0.2c1.9,1.3,4.3,1.5,6.4,0.7C145,262,142.5,261.6,140.4,262.5z"/>
						<path class="st16" d="M134,261.7L134,261.7v0.2c1.9,1.3,4.3,1.5,6.4,0.7C138.5,261.2,136.1,260.9,134,261.7z"/>
					</g>
					<g>
						<path class="st16" d="M117.2,263.7L117.2,263.7v0.2c1.9,1.3,4.3,1.5,6.4,0.7C121.7,263.2,119.3,262.9,117.2,263.7z"/>
						<path class="st16" d="M110.7,262.9L110.7,262.9v0.2c1.9,1.3,4.3,1.5,6.4,0.7C115.2,262.4,112.8,262.1,110.7,262.9z"/>
						<path class="st16" d="M130.2,265.2L130.2,265.2v0.2c1.9,1.3,4.3,1.5,6.4,0.7C134.7,264.7,132.3,264.4,130.2,265.2z"/>
						<path class="st16" d="M123.7,264.4L123.7,264.4v0.2c1.9,1.3,4.3,1.5,6.4,0.7C128.2,263.9,125.9,263.7,123.7,264.4z"/>
						<path class="st16" d="M97.7,261.4L97.7,261.4v0.2c1.9,1.3,4.3,1.5,6.4,0.7C102.2,260.9,99.8,260.6,97.7,261.4z"/>
						<path class="st16" d="M91.2,260.7L91.2,260.7v0.2c1.9,1.3,4.3,1.5,6.4,0.7C95.7,260.2,93.4,259.8,91.2,260.7z"/>
						<path class="st16" d="M104.2,262.1L104.2,262.1v0.2c1.9,1.3,4.3,1.5,6.4,0.7C108.8,261.7,106.4,261.4,104.2,262.1z"/>
						<path class="st16" d="M143.2,266.7L143.2,266.7v0.2c1.9,1.3,4.3,1.5,6.4,0.7C147.7,266.2,145.4,265.9,143.2,266.7z"/>
						<path class="st16" d="M136.8,266L136.8,266v0.2c1.9,1.3,4.3,1.5,6.4,0.7C141.3,265.4,138.9,265.1,136.8,266z"/>
					</g>
					<g>
						<path class="st16" d="M113.5,267.2L113.5,267.2v0.2c1.9,1.3,4.3,1.5,6.4,0.7C118,266.6,115.7,266.4,113.5,267.2z"/>
						<path class="st16" d="M107,266.4L107,266.4v0.2c1.9,1.3,4.3,1.5,6.4,0.7C111.6,266,109.1,265.6,107,266.4z"/>
						<path class="st16" d="M126.5,268.7L126.5,268.7v0.2c1.9,1.3,4.3,1.5,6.4,0.7C131.1,268.2,128.7,267.9,126.5,268.7z"/>
						<path class="st16" d="M120,267.9L120,267.9v0.2c1.9,1.3,4.3,1.5,6.4,0.7C124.6,267.4,122.1,267.2,120,267.9z"/>
						<path class="st16" d="M94,264.9L94,264.9v0.2c1.9,1.3,4.3,1.5,6.4,0.7C98.5,264.4,96.2,264.1,94,264.9z"/>
						<path class="st16" d="M87.5,264.2L87.5,264.2v0.2c1.9,1.3,4.3,1.5,6.4,0.7C92,263.7,89.6,263.3,87.5,264.2z"/>
						<path class="st16" d="M100.5,265.7L100.5,265.7v0.2c1.9,1.3,4.3,1.5,6.4,0.7C105,265.2,102.6,264.9,100.5,265.7z"/>
						<path class="st16" d="M139.6,270.2L139.6,270.2v0.2c1.9,1.3,4.3,1.5,6.4,0.7C144.1,269.7,141.7,269.4,139.6,270.2z"/>
						<path class="st16" d="M133,269.4L133,269.4v0.2c1.9,1.3,4.3,1.5,6.4,0.7C137.5,268.9,135.1,268.7,133,269.4z"/>
					</g>
					<path class="st16" d="M87.3,269.2l-0.6-0.3c9.5-23.7,8.3-50.7,8.3-51h0.7C95.7,218.2,96.9,245.3,87.3,269.2z"/>
					<path class="st16" d="M93.8,270l-0.6-0.3c9.5-23.7,8.3-50.7,8.3-51h0.7C102.2,219,103.4,246,93.8,270z"/>
					<path class="st16" d="M100.3,270.7l-0.6-0.3c9.5-23.7,8.3-50.7,8.3-51h0.7C108.7,219.7,109.9,246.8,100.3,270.7z"/>
					<path class="st16" d="M106.8,271.4l-0.6-0.3c9.5-23.7,8.3-50.7,8.3-51h0.7C115.1,220.4,116.4,247.6,106.8,271.4z"/>
					<path class="st16" d="M113.3,272.2l-0.6-0.3c9.5-23.7,8.3-50.7,8.3-51h0.7C121.6,221.2,122.9,248.3,113.3,272.2z"/>
					<path class="st16" d="M119.7,272.9l-0.6-0.3c9.5-23.7,8.3-50.7,8.3-51h0.7C128.1,222,129.4,249,119.7,272.9z"/>
					<path class="st16" d="M126.2,273.7l-0.6-0.3c9.5-23.7,8.3-50.7,8.3-51h0.7C134.5,222.7,135.8,249.8,126.2,273.7z"/>
					<path class="st16" d="M132.7,274.5l-0.6-0.3c9.5-23.7,8.3-50.7,8.3-51h0.7C141.1,223.5,142.3,250.6,132.7,274.5z"/>
					<path class="st16" d="M139.1,275.2l-0.6-0.3c9.5-23.7,8.3-50.7,8.3-51h0.7C147.6,224.3,148.8,251.3,139.1,275.2z"/>
				</g>
			</g>
		</g>
		<path class="st19" d="M89.8,244.3c-1.9,4.5-5.1,14-0.6,18.7c0.7,0.8,1.9,0.8,2.6,0c2.4-2.5,8.8-7.8,17.2-5.3c0,0,7,2.7,11.1-1.9
			c0,0,7-7.5,13.9-6c0,0,12.6,3,14.1-2c0,0,2.8-9.3-14.9-11.1l0,0c-13.4-0.3-26.9,1.3-40,4.6l0,0C91.7,241.7,90.4,242.8,89.8,244.3z
			"/>
		<path class="st17" d="M106.1,239.2c1.4,1,2.2,2.1,2.7,3c0.9,1.4,1,3.2,0.3,4.9c-0.2,0.4-0.4,0.9-0.8,1.2c0,0-1.7,1.5,0,2.8
			c0,0,6.1,2.3,8.3-5.6c0,0,1.3-4.9-1.7-7.2c0,0-3.2-2.4-6-2.2"/>
		<path class="st17" d="M93.9,238.1c0,0-8.9,2.1-8.3,8.3c0.1,1.2,0.6,2.3,1.3,3.2c1.6,2.1,5.2,5.5,10.6,2.2c0,0,2.1-1.5-0.6-2.6
			c0,0-5.4-2.5-3.5-5.8c0.2-0.3,0.4-0.5,0.8-0.7c0.9-0.3,2.8-0.9,5.7,0.3"/>
		<path class="st17" d="M113,224.2c-3.7-0.3-6,1.8-6,1.8c-3.2-1.8-8.9-1.2-8.9-1.2s-1.6-2.6-5.3-3.3c-0.9-0.2-2,0.4-2.2,1.4
			c-0.5,1.6-0.9,4.3,0.6,6.6c0,0,1.7,1.8,1.5,3.6l-0.1,6c0,0,0.2,1.6,2.7,3.2c2.6,1.7,5.9,2.3,8.9,1.4c3.5-0.9,4.3-2.6,4.3-2.6
			l1.5-5.7c0.3-1.7,2.5-3,2.5-3c2-1.9,2.4-4.5,2.3-6.1C114.7,225.1,114,224.3,113,224.2z"/>
		<g>
			<circle class="st20" cx="97.5" cy="232.2" r="1.7"/>
			<path class="st21" d="M97.5,230.6c0.9,0,1.4,0.7,1.4,1.4c0,0.9-0.7,1.4-1.4,1.4c-0.9,0-1.4-0.7-1.4-1.4
				C96,231.3,96.7,230.6,97.5,230.6 M97.5,230.2c-1,0-1.9,0.9-1.9,1.9s0.9,1.9,1.9,1.9s1.9-0.9,1.9-1.9
				C99.4,231.2,98.5,230.2,97.5,230.2L97.5,230.2z"/>
		</g>
		<g>
			<path class="st2" d="M98.5,231.7c0,0.3-0.2,0.4-0.4,0.4s-0.4-0.2-0.4-0.4c0-0.3,0.2-0.4,0.4-0.4
				C98.3,231.3,98.5,231.5,98.5,231.7z"/>
		</g>
		<g>
			<path class="st20" d="M101.6,234l0.9,0.1c0.5,0.1,0.9,0.6,0.5,0.9l-0.5,0.7l-0.5,0.7c-0.3,0.4-0.9,0.3-1.2-0.1l-0.4-0.8l-0.4-0.8
				c-0.3-0.4,0.2-0.9,0.7-0.9L101.6,234z"/>
		</g>
		<g>
			<path class="st22" d="M103.1,238.1c0.3,0,0.4,0.3,0.3,0.5c-0.3,1-1.3,1.7-2.4,1.6s-2-0.9-2-2c0-0.3,0.2-0.5,0.4-0.4L103.1,238.1z
				"/>
		</g>
		<g>
			<circle class="st20" cx="106.2" cy="233.1" r="1.7"/>
			<path class="st21" d="M106.2,231.7c0.9,0,1.4,0.7,1.4,1.4c0,0.9-0.7,1.4-1.4,1.4c-0.9,0-1.4-0.7-1.4-1.4
				C104.7,232.3,105.4,231.7,106.2,231.7 M106.2,231.2c-1,0-1.9,0.9-1.9,1.9c0,1,0.9,1.9,1.9,1.9s1.9-0.9,1.9-1.9
				C108.1,232.1,107.2,231.2,106.2,231.2L106.2,231.2z"/>
		</g>
		<g>
			<path class="st2" d="M107.1,232.7c0,0.3-0.2,0.4-0.4,0.4s-0.4-0.2-0.4-0.4c0-0.3,0.2-0.4,0.4-0.4
				C107,232.3,107.1,232.4,107.1,232.7z"/>
		</g>
		<g>
			<path class="st23" d="M100.2,239c-0.4,0-0.7,0.2-0.9,0.4c-0.3,0.3-0.4,0.6-0.5,0.9c-0.1,0.3-0.1,0.7,0.1,0.9
				c0.2,0.3,0.5,0.4,0.9,0.5c0.4,0.1,0.9,0,1.2-0.3c0.7-0.4,1-1.2,1.7-1.7c0.1-0.1,0.3-0.2,0.3-0.3c0.1-0.1,0.3-0.3,0.2-0.3
				c-0.1-0.1-0.3-0.2-0.4-0.2c-0.7,0-1.4-0.1-2-0.2L100.2,239z"/>
		</g>
	</g>
	<path class="st3" d="M133.1,140.7l7.1,27.1c0,0,2.1,3.7-20,26.1c0,0-0.6,1.3-5.1,2.6c0,0-3.3,1-2.8,3.7c0,0,0.3,3.7,6.8,1.1
		c0,0-9.2,7.9-1.9,13.3c0,0,7.7,6,18.9-10.6c0,0,18.1-22.8,22.4-30.8c0.6-1.1,0.8-2.4,0.4-3.6c-1.5-5.4-6.6-23.2-9.9-32.3
		L133.1,140.7z"/>
	<path class="st6" d="M151.4,130.9l3.9,6.1c0,0-11.7,8.1-28,5l0.9-6.7C128.2,135.2,146.7,135.1,151.4,130.9"/>
	<g id="얼굴_및_목_1_">
		<path class="st3" d="M128.2,18.4H92.8H57.6c0,0-4.9,51.1,20.3,65.4v11.5h30.3V83.6C132.9,68.9,128.2,18.4,128.2,18.4z"/>
		<path class="st24" d="M114.2,45.2c-0.2,0-0.3-0.1-0.5-0.2l-2-1.5c-0.7-0.5-1.5-0.7-2.4-0.5l-7.7,2.1c-0.4,0.1-0.9-0.2-1-0.6
			c-0.1-0.4,0.2-0.9,0.6-1l7.7-2.1c1.4-0.3,2.7,0,3.8,0.9l2,1.5c0.3,0.3,0.4,0.9,0.2,1.2C114.6,45,114.5,45.2,114.2,45.2z"/>
		<g>
			<path class="st25" d="M106.5,68.4c0,0.4-0.3,0.8-0.8,0.8c-0.4,0-0.8-0.3-0.8-0.8s0.3-0.8,0.8-0.8C106.2,67.7,106.5,68,106.5,68.4
				z"/>
			<path class="st25" d="M112.4,68.2c0,0.4-0.3,0.8-0.8,0.8s-0.8-0.3-0.8-0.8s0.3-0.8,0.8-0.8C112.1,67.4,112.4,67.8,112.4,68.2z"/>
			<path class="st25" d="M111,65.4c0,0.4-0.3,0.8-0.8,0.8c-0.4,0-0.8-0.3-0.8-0.8c0-0.4,0.3-0.8,0.8-0.8
				C110.5,64.6,111,64.9,111,65.4z"/>
			<circle class="st25" cx="106.4" cy="65.4" r="0.7"/>
			<circle class="st25" cx="113.9" cy="66" r="0.7"/>
			<circle class="st25" cx="108.3" cy="69.6" r="0.7"/>
			<path class="st25" d="M79.2,68.4c0,0.4,0.3,0.8,0.8,0.8c0.4,0,0.8-0.3,0.8-0.8s-0.3-0.8-0.8-0.8C79.6,67.7,79.2,68,79.2,68.4z"/>
			<path class="st25" d="M73.4,68.2c0,0.4,0.3,0.8,0.8,0.8s0.8-0.3,0.8-0.8s-0.3-0.8-0.8-0.8S73.4,67.8,73.4,68.2z"/>
			<path class="st25" d="M74.8,65.4c0,0.4,0.3,0.8,0.8,0.8c0.4,0,0.8-0.3,0.8-0.8c0-0.4-0.3-0.8-0.8-0.8
				C75.1,64.6,74.8,64.9,74.8,65.4z"/>
			<circle class="st25" cx="79.3" cy="65.4" r="0.7"/>
			<path class="st25" d="M71.2,66c0,0.3,0.3,0.7,0.7,0.7c0.3,0,0.7-0.3,0.7-0.7c0-0.3-0.3-0.7-0.7-0.7C71.5,65.4,71.2,65.7,71.2,66z
				"/>
			<circle class="st25" cx="77.4" cy="69.6" r="0.7"/>
		</g>
		<path class="st24" d="M92.8,74.4c-5.2,0-7.7-4.9-7.8-5.2c-0.2-0.4,0-0.9,0.4-1.1c0.4-0.2,0.9,0,1.1,0.4c0,0.1,2.2,4.3,6.3,4.3
			c4.2,0,6.3-4.2,6.3-4.3c0.2-0.4,0.7-0.6,1.1-0.4c0.4,0.2,0.6,0.7,0.4,1.1C100.6,69.5,98.1,74.4,92.8,74.4z"/>
		<path class="st26" d="M85,50.6c-0.1-0.1-4.9-4.2-11.1-2c-0.4-0.4-0.7-0.9-0.8-1.4c-0.1-0.2-0.3-0.2-0.4,0c-0.3,0.6-0.3,1.4-0.3,2
			c0,0,0,0-0.1,0c-0.5-0.3-0.9-0.9-1.1-1.2c-0.1-0.2-0.3-0.1-0.4,0.1c-0.3,1,0.2,2,0.4,2.6l0,0l0,0c0,0,0,0.1,0.1,0.1c0,0,0,0,0.1,0
			c0.3,0.3,0.7,0.3,1,0.2c1.4-0.9,2.8-1.3,4.1-1.4c-0.9,0.8-1.5,2.2-1.5,3.8c0,2.5,1.4,4.5,3.1,4.5c1.7,0,3.1-2,3.1-4.5
			c0-1.4-0.5-2.6-1.2-3.5c2.1,0.6,3.6,1.8,3.7,1.9c0.2,0.2,0.3,0.2,0.6,0.2c0.3,0,0.5-0.1,0.7-0.3C85.4,51.5,85.4,50.9,85,50.6z"/>
		<path class="st2" d="M80.3,52.1c0,0.9-0.4,1.4-1,1.4s-1-0.7-1-1.4c0-0.9,0.4-1.4,1-1.4C79.7,50.6,80.3,51.2,80.3,52.1z"/>
		<path class="st24" d="M71.6,45.2c-0.3,0-0.5-0.1-0.7-0.3c-0.3-0.3-0.3-0.9,0.2-1.2l2-1.5c1.1-0.9,2.5-1.1,3.8-0.9l7.7,2.1
			c0.4,0.1,0.7,0.6,0.6,1c-0.1,0.4-0.6,0.7-1,0.6l-7.7-2.1c-0.8-0.2-1.7,0-2.3,0.5l-2,1.5C71.9,45.1,71.7,45.2,71.6,45.2z"/>
		<path class="st26" d="M114.9,50.8c0.3-0.5,0.9-1.6,0.4-2.6c-0.1-0.2-0.3-0.3-0.4-0.1c-0.2,0.3-0.5,0.8-1.1,1.1l0,0
			c0.1-0.6,0.2-1.4-0.3-2c-0.1-0.2-0.3-0.2-0.4,0c-0.2,0.4-0.3,0.9-0.8,1.4c-6.2-2.2-11.1,2-11.1,2c-0.3,0.3-0.4,0.9-0.1,1.2
			c0.2,0.2,0.4,0.3,0.7,0.3c0.2,0,0.4-0.1,0.6-0.2c0,0,1.4-1.2,3.7-1.8c-0.7,0.9-1.2,2-1.2,3.5c0,2.5,1.4,4.5,3.1,4.5s3.1-2,3.1-4.5
			c0-1.6-0.6-3-1.4-3.8c1.3,0.2,2.6,0.5,4.1,1.4c0.3,0.2,0.8,0.1,1-0.2c0,0,0,0,0.1,0C114.9,50.9,114.9,50.8,114.9,50.8L114.9,50.8
			L114.9,50.8z"/>
		<ellipse class="st2" cx="108.9" cy="52.1" rx="1" ry="1.4"/>
		<path class="st27" d="M93,56.6c0,0-6.9,9.1-0.2,9C99.6,65.8,93,56.6,93,56.6z"/>
	</g>
	<path class="st28" d="M144.8,121.6c-1.6-4.3-3.7-6.9-6-8.3c0.3-0.6,0.4-0.9,0.4-0.9c-8.6-10.3-25.4-15.2-31.1-16.7v-4.9
		c-16.3,8.9-30.3,0-30.3,0v4.9c-5.6,1.4-22,6.3-30.7,16.3c-3.3,1.4-6.8,4.5-8,11.7c0,0-7.2,0.6-8.2,10.3c0,0,9.4,8.9,26.1,2.6
		c4.3,12.2,8,26.4,6.2,36.2H93h29.7c-1.8-9.5,1.7-23.3,6-35.3c18.3,3.6,26.1-7.2,26.1-7.2C152.1,120.9,144.8,121.6,144.8,121.6z"/>
	<g>
		<path class="st29" d="M33,134.9c-0.1-0.3-0.2-0.5-0.2-0.7c-0.1-0.3-0.3-0.5-0.7-0.4c-0.3,0-0.5,0.1-0.7,0.1c-0.2,0-0.3,0-0.5,0
			c0,0.1,0,0.1,0,0.2c0,0,0.8,0.8,2.2,1.6C33.1,135.4,33.1,135.2,33,134.9z"/>
		<path class="st29" d="M36.9,136.8c-0.1-0.3-0.2-0.4-0.3-0.7c-0.1-0.3-0.4-0.4-0.8-0.3c-0.3,0.1-0.4,0.2-0.7,0.3
			c-0.3,0.1-0.5,0.2-0.8,0.3c0.9,0.4,1.8,0.9,2.9,1.3C37.2,137.4,37.1,137,36.9,136.8z"/>
		<path class="st29" d="M41.2,137.9c-0.2-0.2-0.3-0.4-0.4-0.6c-0.2-0.3-0.5-0.3-0.8-0.2c-0.2,0.2-0.4,0.3-0.6,0.4
			c-0.3,0.2-0.5,0.3-0.8,0.4c0.9,0.3,2,0.5,3.1,0.7C41.5,138.4,41.4,138.1,41.2,137.9z"/>
		<path class="st29" d="M45.5,138.3c-0.2-0.2-0.3-0.3-0.5-0.5c-0.3-0.3-0.6-0.3-0.8,0c-0.2,0.2-0.3,0.3-0.5,0.5
			c-0.3,0.2-0.5,0.4-0.8,0.6c0.5,0.1,1,0.1,1.6,0.1h0.1h1.1c0.2,0,0.3,0,0.5,0C46,138.7,45.8,138.5,45.5,138.3z"/>
		<path class="st29" d="M49.9,138c-0.2-0.2-0.4-0.3-0.6-0.4c-0.3-0.2-0.6-0.2-0.8,0.1c-0.2,0.2-0.3,0.3-0.5,0.6
			c-0.2,0.3-0.4,0.4-0.6,0.7l1-0.1c0.7-0.1,1.3-0.2,2-0.3c0.1,0,0.2,0,0.3,0C50.4,138.3,50.1,138.1,49.9,138z"/>
		<path class="st29" d="M54.2,137c-0.3-0.1-0.4-0.3-0.7-0.3c-0.3-0.2-0.6-0.1-0.8,0.3c-0.1,0.3-0.3,0.4-0.4,0.6
			c-0.2,0.3-0.3,0.5-0.5,0.8c1-0.3,2-0.5,3.1-0.9C54.7,137.3,54.5,137.1,54.2,137z"/>
		<path class="st29" d="M58.3,135.6l-0.7-0.3c-0.3-0.1-0.6,0-0.8,0.3l-0.3,0.7l-0.3,0.8c0.9-0.3,2-0.7,2.9-1.1L58.3,135.6z"/>
	</g>
	<g>
		
			<pattern  id="SVGID_00000024682147709882989810000004970334058273927576_" xlink:href="#SVGID_0000009316457804079493869" patternTransform="matrix(0.3404 0 0 -0.3404 -9488.6572 -7545.1865)">
		</pattern>
		<path style="fill:url(#SVGID_00000024682147709882989810000004970334058273927576_);" d="M122.4,163.6c0.7-8.7,3.6-18.7,6.8-27.7
			H56.8c3.2,8.9,6.1,19,6.8,27.7c0.3,3.3,0.2,6.5-0.3,9.2H93h29.7C122.2,170,122.1,166.9,122.4,163.6z"/>
	</g>
	<g>
		
			<pattern  id="SVGID_00000067950735760753508750000013866470071223594907_" xlink:href="#SVGID_0000008881700343471638804" patternTransform="matrix(0.1702 -0.2948 -0.2948 -0.1702 -12418.208 -4694.9688)">
		</pattern>
		<path style="fill:url(#SVGID_00000067950735760753508750000013866470071223594907_);" d="M63.7,163.6c0.3,3.3,0.2,6.5-0.3,9.2H93
			h29.7c-0.5-2.7-0.6-5.9-0.3-9.2H63.7z"/>
	</g>
	<g>
		
			<pattern  id="SVGID_00000041257464747886634070000002048882920042882432_" xlink:href="#SVGID_0000013061006539315327442" patternTransform="matrix(0.851 0 0 -0.851 -1192.8698 -15876.4727)">
		</pattern>
		
			<polyline style="fill:none;stroke:url(#SVGID_00000041257464747886634070000002048882920042882432_);stroke-width:0.5669;stroke-miterlimit:10;" points="
			63.3,172.8 93,172.8 122.7,172.8 		"/>
		
			<pattern  id="SVGID_00000037688933837872851730000006457755802683652002_" xlink:href="#SVGID_0000004846919714607871391" patternTransform="matrix(0.851 0 0 -0.851 -1192.8698 -15876.4727)">
		</pattern>
		
			<line style="fill:none;stroke:url(#SVGID_00000037688933837872851730000006457755802683652002_);stroke-width:0.5669;stroke-miterlimit:10;" x1="122.4" y1="163.6" x2="63.7" y2="163.6"/>
	</g>
	<g>
		<path class="st29" d="M154.7,130.2c0-0.1,0-0.1-0.1-0.2c-0.3,0.1-0.8,0.1-1.1,0.1c-0.3,0-0.5,0.3-0.5,0.5c0,0.5,0,0.9-0.1,1.4
			C154.2,131.1,154.7,130.2,154.7,130.2z"/>
		<path class="st29" d="M149.7,133.4c-0.1,0.5-0.3,1-0.4,1.4c0.9-0.6,1.8-1.1,2.5-1.7c-0.5-0.1-0.9-0.1-1.4-0.2
			C150,132.9,149.8,133,149.7,133.4z"/>
		<path class="st29" d="M145.9,135.2c-0.2,0.5-0.4,1-0.7,1.4c1-0.3,2-0.8,2.9-1.2c-0.5-0.2-1-0.3-1.4-0.5
			C146.3,134.8,146,135,145.9,135.2z"/>
		<path class="st29" d="M141.8,136.4c-0.3,0.4-0.6,0.9-0.9,1.4c1.1-0.2,2.1-0.4,3.1-0.7c-0.5-0.3-0.9-0.5-1.4-0.8
			C142.3,136.2,142,136.2,141.8,136.4z"/>
		<path class="st29" d="M137.5,137c-0.3,0.4-0.8,0.8-1.2,1.2c0.1,0,0.2,0,0.3,0c0.8,0,1.4-0.1,2.1-0.2l0.6-0.1c0.1,0,0.2,0,0.2,0
			c-0.4-0.3-0.9-0.7-1.3-1C138,136.8,137.7,136.9,137.5,137z"/>
		<path class="st29" d="M134,137c-0.2-0.3-0.5-0.3-0.8-0.1c-0.4,0.3-0.9,0.7-1.3,1c0.1,0,0.3,0,0.3,0l1.2,0.1c0.6,0,1.1,0.1,1.7,0.1
			C134.7,137.9,134.4,137.5,134,137z"/>
		<path class="st29" d="M128.9,136.3l-1.4,0.9c0.4,0.1,0.9,0.2,1.4,0.3l0.8,0.2c0.3,0.1,0.7,0.1,1,0.2l-1-1.4
			C129.5,136.3,129.2,136.2,128.9,136.3z"/>
	</g>
	<g>
		<g>
			
				<pattern  id="SVGID_00000065040442960510511750000016006686549651292315_" xlink:href="#SVGID_0000008884202079878181081" patternTransform="matrix(0.1702 -0.2948 -0.2948 -0.1702 -12418.208 -4694.9688)">
			</pattern>
			<path style="fill:url(#SVGID_00000065040442960510511750000016006686549651292315_);" d="M129.2,135.9H56.8c1,2.9,2,6,3,9h66.4
				C127.1,141.9,128.2,138.8,129.2,135.9z"/>
		</g>
		<g>
			<path class="st0" d="M126.2,144.9c0.9-3.1,2-6.1,3-9C128.2,138.8,127.1,141.9,126.2,144.9L126.2,144.9z"/>
			<path class="st0" d="M59.8,144.9L59.8,144.9c-0.9-3.1-2-6.1-3-9C57.9,138.8,58.9,141.9,59.8,144.9z"/>
			<path class="st1" d="M56.8,135.9h72.3l0,0c0.1-0.2,0.1-0.3,0.2-0.5H56.7C56.8,135.6,56.8,135.7,56.8,135.9L56.8,135.9z"/>
			<path class="st1" d="M59.8,144.9c0.1,0.2,0.1,0.3,0.2,0.5h66.1c0.1-0.2,0.1-0.3,0.2-0.5H59.8z"/>
		</g>
	</g>
	<g>
		<path class="st1" d="M85.5,174.8c-1.3,0-2.5-0.6-3.7-1.7c-2.7-2.6-4.3-7.1-4.4-7.3c-3.7-9.8-18.3-44.7-24.4-59.2l-0.2-0.3l0.3-0.3
			c2.6-1.9,5.8-3.7,9.3-5.4l0.4-0.2l0.2,0.4c4.8,10,20.9,44.3,26,63.1c0.1,0.3,1.8,6-0.2,8.9c-0.5,0.8-1.1,1.3-2,1.5
			C86.5,174.7,86,174.8,85.5,174.8L85.5,174.8z"/>
		<path class="st1" d="M88.6,164.3c-5-18.6-20.6-52-25.9-63.1c-3.1,1.4-6.3,3.2-9.2,5.3c5.6,13.3,20.7,49.3,24.4,59.2
			c0,0,1.6,4.7,4.3,7.1c1.3,1.2,2.8,1.9,4.6,1.3c0.8-0.3,1.4-0.7,1.7-1.3C90.4,170,88.6,164.3,88.6,164.3z"/>
		
			<pattern  id="SVGID_00000145019618978677970040000009921530621494025661_" xlink:href="#SVGID_0000001677790864450494314" patternTransform="matrix(0.2948 -0.1702 0.1702 0.2948 -10028.6113 2872.1484)">
		</pattern>
		<path style="fill:url(#SVGID_00000145019618978677970040000009921530621494025661_);" d="M88.6,164.3c-5-18.6-20.6-52-25.9-63.1
			c-3.1,1.4-6.3,3.2-9.2,5.3c5.6,13.3,20.7,49.3,24.4,59.2c0,0,1.6,4.7,4.3,7.1c1.3,1.2,2.8,1.9,4.6,1.3c0.8-0.3,1.4-0.7,1.7-1.3
			C90.4,170,88.6,164.3,88.6,164.3z"/>
		<path class="st1" d="M100.5,174.8c-0.5,0-0.9-0.1-1.4-0.3c-0.9-0.3-1.4-0.8-2-1.5c-2-3-0.2-8.7-0.2-8.9
			c5.1-18.8,21.1-53.1,26-63.1l0.2-0.4l0.4,0.2c3.5,1.6,6.6,3.4,9.3,5.4l0.3,0.3l-0.2,0.3c-6.1,14.6-20.8,49.4-24.4,59.2
			c-0.1,0.2-1.7,4.8-4.4,7.3C103,174.2,101.8,174.8,100.5,174.8L100.5,174.8z"/>
		<path class="st1" d="M123.4,101.2c-5.3,11.1-20.9,44.4-25.9,63.1c0,0-1.8,5.7,0.1,8.5c0.4,0.6,0.9,1.1,1.7,1.3
			c1.7,0.6,3.3-0.1,4.6-1.3c2.6-2.5,4.3-7.1,4.3-7.1c3.7-10,18.9-46,24.4-59.2C129.7,104.3,126.5,102.6,123.4,101.2z"/>
		
			<pattern  id="SVGID_00000036963827142384850550000012166898075960185782_" xlink:href="#SVGID_0000001823806704241528438" patternTransform="matrix(0.2948 0.1702 -0.1702 0.2948 -10299.8213 2867.269)">
		</pattern>
		<path style="fill:url(#SVGID_00000036963827142384850550000012166898075960185782_);" d="M123.4,101.2
			c-5.3,11.1-20.9,44.4-25.9,63.1c0,0-1.8,5.7,0.1,8.5c0.4,0.6,0.9,1.1,1.7,1.3c1.7,0.6,3.3-0.1,4.6-1.3c2.6-2.5,4.3-7.1,4.3-7.1
			c3.7-10,18.9-46,24.4-59.2C129.7,104.3,126.5,102.6,123.4,101.2z"/>
	</g>
	<g>
		<path class="st2" d="M99.8,167.2c-0.4,1.2,0.1,2.5,1.1,2.8c1,0.3,2.2-0.3,2.6-1.5c0.3-1.2-0.1-2.5-1.1-2.8
			C101.4,165.3,100.3,166,99.8,167.2z"/>
		<path class="st1" d="M101.5,170.3c-0.2,0-0.4,0-0.6-0.1c-1.1-0.4-1.7-1.8-1.3-3.1l0,0c0.2-0.6,0.6-1.1,1.2-1.4
			c0.5-0.3,1.2-0.4,1.7-0.2c1.1,0.4,1.7,1.8,1.3,3.1C103.4,169.6,102.5,170.3,101.5,170.3z M101.9,165.8c-0.3,0-0.6,0.1-0.9,0.3
			c-0.4,0.3-0.8,0.7-0.9,1.2l0,0c-0.3,1.1,0.1,2.2,1,2.6c0.9,0.3,2-0.3,2.3-1.4c0.3-1.1-0.1-2.2-1-2.6
			C102.2,165.8,102,165.8,101.9,165.8z"/>
	</g>
	<g>
		<path class="st2" d="M86.2,167.2c0.4,1.2-0.1,2.5-1.1,2.8c-1,0.3-2.2-0.3-2.6-1.5c-0.4-1.2,0.1-2.5,1.1-2.8
			C84.7,165.3,85.8,166,86.2,167.2z"/>
		<path class="st1" d="M84.6,170.3c-0.9,0-1.9-0.7-2.2-1.8c-0.4-1.3,0.1-2.7,1.3-3.1c0.6-0.2,1.2-0.1,1.7,0.2
			c0.5,0.3,0.9,0.9,1.2,1.4l0,0c0.3,0.6,0.2,1.3,0,1.9c-0.3,0.6-0.7,1-1.2,1.2C84.9,170.2,84.8,170.3,84.6,170.3z M84.2,165.8
			c-0.2,0-0.3,0-0.5,0.1c-0.9,0.3-1.4,1.4-1,2.6c0.3,1.1,1.4,1.7,2.3,1.4c0.4-0.2,0.8-0.5,0.9-0.9c0.2-0.5,0.2-1,0-1.5l0,0
			c-0.2-0.5-0.5-0.9-0.9-1.2C84.8,165.9,84.5,165.8,84.2,165.8z"/>
	</g>
	<g id="머리_3_">
		<path class="st37" d="M158,94.6c-23.4-5.4-17.9-33.7-15.9-41.6c0.4-1.8,0.9-3.6,1-5.4c3.1-29-15.5-40.8-15.5-40.8
			C108.3-7.6,92.8,5.3,92.8,5.3S77.4-7.6,58.1,6.8c0,0-18.6,11.7-15.5,40.8c0.2,1.8,0.6,3.6,1,5.4c2,7.9,7.5,36.3-15.9,41.6
			c0,0-11.3,3.1-7,12.1c0,0,1.9,4.9,8.5,3.6c0,0-0.9,7.4,7,8.2c0,0,5.1,0.2,7.7-1.9c0,0,0.9,2.1,4.2,3.1c3.4,1.1,7.1,0.3,9.8-2
			c4-3.5,8.8-11.2,5.4-28c0,0-1.9-7.5,1.6-20.8c0,0-2.4-3.4-5.4-17.1c-0.3-1.7-0.6-3.4-0.6-5.2c0-17.9,19.5-16.3,19.5-16.3
			C92.3,30.6,92.8,19,92.8,19s0.4,11.7,14.2,11.3c0,0,19.5-1.6,19.5,16.3c0,1.7-0.3,3.5-0.6,5.2c-3,13.8-5.4,17.1-5.4,17.1
			c3.5,13.3,1.6,20.8,1.6,20.8c-3.3,16.8,1.4,24.6,5.4,28c2.7,2.3,6.5,3.1,9.8,2c3.2-1.1,4.2-3.1,4.2-3.1c2.6,2,7.7,1.9,7.7,1.9
			c7.9-0.8,7-8.2,7-8.2c6.6,1.4,8.5-3.6,8.5-3.6C169.4,97.6,158,94.6,158,94.6z"/>
		<g>
			<g>
				<path class="st38" d="M53.4,71.1l0.2-1c0.1-0.6-0.2-1.2-0.6-1.4l-8.5-4.3c-0.6-0.3-1.3,0.1-1.5,0.9l-1.4,5.2
					c-0.3,0.9,0.3,1.7,0.9,1.7l9.5,0.2c-1.6,1.7-5.3,4.4-11.4,3.1c-0.7-0.2-1.1,0.6-0.8,1.1l2,2.9c0.2,0.2,0.4,0.3,0.6,0.3
					c1.8-0.2,9.4-1,12.2-7.2l-1.3-1.1C53.3,71.2,53.4,71.2,53.4,71.1z"/>
				<path class="st38" d="M67.7,75l0.3-5.4c0.1-0.8-0.4-1.4-1.1-1.4l-9.4,1.1c-0.5,0.1-0.9,0.5-1,1.1l-0.2,1c0,0.1,0,0.2,0,0.3
					l-1.6,0.6c0.5,6.8,7.2,10.2,8.9,11c0.3,0.1,0.5,0.1,0.7-0.1l2.9-2c0.5-0.3,0.3-1.2-0.3-1.3c-6.2-0.9-8.7-4.7-9.6-6.9l9,3.1
					C66.9,76.5,67.6,75.9,67.7,75z"/>
			</g>
			<path class="st39" d="M61.4,70.8c0.1,0,0.2-0.1,0.2-0.3c0-0.1-0.1-0.2-0.3-0.2l-3.9,0.3l0.1-0.3c0.2-0.9-0.4-1.6-1.2-1.8
				l-1.9-0.3c-0.9-0.2-1.6,0.4-1.8,1.2l0,0.3l-3.4-1.7c-0.1-0.1-0.3,0-0.3,0.1c-0.1,0.1,0,0.3,0.1,0.3l3.5,1.8l-0.1,0.5l-4.1-0.3
				c-0.1,0-0.3,0.1-0.3,0.2s0.1,0.3,0.2,0.3l4,0.3v0.2c-0.2,0.9,0.4,1.6,1.2,1.8l1.9,0.3c0.9,0.2,1.6-0.4,1.8-1.2v-0.2l4,1.2
				c0,0,0,0,0.1,0s0.2-0.1,0.2-0.2s0-0.3-0.2-0.3l-4-1.2l0.1-0.5L61.4,70.8z"/>
		</g>
		<g>
			<g>
				<path class="st38" d="M145.3,75.3c-6.1,1.3-9.8-1.4-11.4-3.1l9.5-0.1c0.7,0,1.2-0.9,0.9-1.7l-1.4-5.2c-0.3-0.8-0.9-1.2-1.5-0.9
					l-8.5,4.3c-0.4,0.3-0.7,0.9-0.6,1.4l0.2,1c0,0.1,0.1,0.2,0.1,0.2l-1.3,1.1c2.8,6.2,10.3,7.1,12.2,7.2c0.3,0,0.5-0.1,0.6-0.3
					l2-2.9C146.4,75.9,146,75.2,145.3,75.3z"/>
				<path class="st38" d="M129.5,71.6l-0.2-1c-0.1-0.6-0.5-1.1-1-1.1l-9.4-1.1c-0.7-0.1-1.2,0.5-1.1,1.4l0.3,5.4
					c0.1,0.9,0.8,1.5,1.4,1.3l8.9-3.1c-0.9,2.1-3.4,6-9.6,6.9c-0.7,0.1-0.9,0.9-0.3,1.3l2.9,2c0.2,0.2,0.5,0.2,0.7,0.1
					c1.7-0.8,8.4-4.2,8.9-11l-1.6-0.6C129.5,71.8,129.5,71.7,129.5,71.6z"/>
			</g>
			<path class="st39" d="M137.4,70.5l-4.1,0.3l-0.1-0.5l3.5-1.8c0.1-0.1,0.2-0.2,0.1-0.3s-0.2-0.2-0.3-0.1l-3.4,1.7l-0.1-0.3
				c-0.2-0.9-0.9-1.4-1.8-1.2l-1.9,0.3c-0.9,0.2-1.4,0.9-1.2,1.8l0.1,0.3l-3.9-0.3c-0.1,0-0.3,0.1-0.3,0.2c0,0.1,0.1,0.3,0.2,0.3
				l4,0.3l0.1,0.5l-4,1.2c-0.1,0-0.2,0.2-0.2,0.3s0.1,0.2,0.2,0.2c0,0,0,0,0.1,0l4-1.2v0.2c0.2,0.9,0.9,1.4,1.8,1.2l1.9-0.3
				c0.9-0.2,1.4-0.9,1.2-1.8v-0.2l4-0.3c0.1,0,0.2-0.1,0.2-0.3C137.6,70.6,137.5,70.5,137.4,70.5z"/>
		</g>
	</g>
	<g>
		<path class="st3" d="M61.4,50.9c0,0-6.6-5-8.9,0.5c-0.4,0.9-0.5,2-0.4,2.9c0.2,2.7,1,8.8,6.1,10.9c0,0,3.5,2,7.4,0
			C65.6,65.3,62.2,58.5,61.4,50.9z"/>
		<path class="st3" d="M124.3,50.9c0,0,6.6-5,8.9,0.5c0.4,0.9,0.5,2,0.4,2.9c-0.1,2.7-0.9,8.8-6,11c0,0-3.5,2-7.4,0
			C120.2,65.3,123.6,58.5,124.3,50.9z"/>
	</g>
	<g>
		<g>
			<path class="st29" d="M78.9,97.8c0.5-0.2,1-0.3,1.5-0.6l-2.7-1.3c0.2,0.5,0.3,1,0.5,1.5C78.3,97.7,78.6,97.9,78.9,97.8z"/>
			<path class="st29" d="M82.9,99.3c0.5-0.3,0.9-0.5,1.4-0.8l-0.8-0.2l-0.7-0.3l-1.4-0.5c0.2,0.5,0.4,1,0.7,1.4
				C82.3,99.4,82.6,99.5,82.9,99.3z"/>
			<path class="st29" d="M87.1,100.3c0.4-0.3,0.9-0.7,1.3-0.9c-1-0.2-2-0.3-3-0.6c0.3,0.5,0.6,0.9,0.9,1.4
				C86.5,100.5,86.8,100.6,87.1,100.3z"/>
			<path class="st29" d="M91.3,100.9c0.4-0.3,0.8-0.8,1.2-1.1c-1,0-2-0.1-3-0.2c0.3,0.4,0.7,0.9,1,1.3C90.7,101,91.1,101,91.3,100.9
				z"/>
			<path class="st29" d="M95.6,100.8c0.3-0.4,0.7-0.9,1-1.3c-1,0.1-2,0.3-3,0.2c0.4,0.3,0.8,0.8,1.2,1.1C95,101,95.3,101,95.6,100.8
				z"/>
			<path class="st29" d="M99.7,100.2c0.3-0.4,0.6-0.9,0.9-1.4l-1.4,0.3c-0.5,0.1-1,0.2-1.4,0.3c0.4,0.3,0.9,0.7,1.4,0.9
				C99.2,100.5,99.6,100.4,99.7,100.2z"/>
			<path class="st29" d="M103.9,99.1c0.3-0.5,0.5-0.9,0.7-1.4c-0.9,0.3-1.9,0.7-2.9,0.9c0.4,0.3,0.9,0.5,1.4,0.8
				C103.4,99.4,103.7,99.3,103.9,99.1z"/>
			<path class="st29" d="M107.8,97.5c0.2-0.5,0.3-1,0.4-1.5c-0.9,0.5-1.8,0.9-2.7,1.3c0.5,0.3,1,0.4,1.5,0.6
				C107.4,97.9,107.7,97.7,107.8,97.5z"/>
		</g>
	</g>
	<g>
		<path class="st40" d="M86.3,103.6c0,0-2.4,9.4-7,14.9"/>
		<path class="st40" d="M79.3,101.5c0,0-2.5,4.4-8.4,6.9"/>
		<line class="st40" x1="92.8" y1="104.1" x2="92.8" y2="122.2"/>
		<path class="st40" d="M99.5,103.6c0,0,2.4,9.4,7,14.9"/>
		<path class="st40" d="M106.4,101.5c0,0,2.5,4.4,8.4,6.9"/>
	</g>
</g>
</svg>
