<?xml version="1.0" encoding="utf-8"?>
<!-- Generator: Adobe Illustrator 26.5.0, SVG Export Plug-In . SVG Version: 6.00 Build 0)  -->
<svg version="1.1" id="Layer_1" xmlns="http://www.w3.org/2000/svg" xmlns:xlink="http://www.w3.org/1999/xlink" x="0px" y="0px"
	 viewBox="0 0 422.6 171.3" style="enable-background:new 0 0 422.6 171.3;" xml:space="preserve">
<style type="text/css">
	.st0{fill:#FFFFFF;}
	.st1{fill:#231F20;}
	.st2{fill:none;stroke:#EC1C24;stroke-width:3.2986;stroke-linecap:round;stroke-linejoin:round;stroke-miterlimit:10;}
	.st3{fill:#FFFFFF;stroke:#231F20;stroke-width:3.5362;stroke-miterlimit:10;}
	.st4{fill:#0D0607;}
	.st5{fill:#FFFFFF;stroke:#231F20;stroke-width:3.2986;stroke-linecap:round;stroke-linejoin:round;stroke-miterlimit:10;}
	.st6{fill:none;stroke:#231F20;stroke-width:1.6823;stroke-linecap:round;stroke-linejoin:round;stroke-miterlimit:10;}
	.st7{fill:none;stroke:#231F20;stroke-width:1.0964;stroke-miterlimit:10;}
	.st8{fill:none;stroke:#231F20;stroke-width:3.5362;stroke-miterlimit:10;}
	.st9{fill:none;stroke:#231F20;stroke-width:2.0351;stroke-linecap:square;stroke-miterlimit:10;}
	.st10{fill:#FFFFFF;stroke:#F05A28;stroke-width:3.2986;stroke-linecap:round;stroke-linejoin:round;stroke-miterlimit:10;}
	.st11{clip-path:url(#XMLID_00000032622070172957534100000000862507842669727423_);}
	.st12{clip-path:url(#SVGID_00000157310575202269356510000016564823983028827529_);}
	.st13{fill:#FFFFFF;stroke:#231F20;stroke-width:3.5362;stroke-linecap:round;stroke-linejoin:round;stroke-miterlimit:10;}
	.st14{fill:none;}
	.st15{clip-path:url(#SVGID_00000091002254919587550760000007571609680358240938_);fill:#231F20;}
</style>
<g>
	<g>
		<g>
			<g>
				<g>
					<path class="st0" d="M281.5,157.8c-0.2,1.9-0.4,4.1,1,5.4c1.2,1.2,3.5,1.6,4,3.3c0.3,1.1-0.5,2.3-1.5,2.8s-2.3,0.7-3.4,0.8
						c-2.9,0.2-5.9,0.3-8.8-0.2c-0.8-0.1-1.7-0.3-2.2-0.9c-0.6-0.6-0.7-1.4-0.8-2.2c-0.4-2.8-0.5-5.6-0.5-8.5"/>
					<g>
						<path class="st1" d="M280.6,157.8c-0.1,1.2-0.2,2.4,0,3.6c0.2,1.2,0.9,2.2,1.9,3c0.8,0.6,1.8,1,2.6,1.6
							c-0.1-0.1,0.1,0.1,0.1,0.1c0.1,0.1,0.2,0.2,0.2,0.2c0,0,0.1,0.1,0,0c0,0,0.1,0.1,0.1,0.1c0,0,0.1,0.1,0.1,0.1
							c0.1,0.1,0-0.1,0,0c0,0.1,0,0.1,0,0.2c0,0.2,0-0.1,0,0c0,0.1,0,0.1,0,0.2c0,0,0,0.2,0,0.1c0,0.2-0.1,0.4-0.2,0.6
							c-0.3,0.4-0.7,0.7-1.2,0.9c-0.5,0.2-1.1,0.3-1.7,0.4c-1.4,0.2-2.9,0.2-4.3,0.2c-1.5,0-3,0-4.5-0.2c-0.6-0.1-1.2-0.2-1.8-0.4
							c-0.4-0.1-0.8-0.4-1-0.9c-0.2-0.5-0.3-1.3-0.3-1.9c-0.1-0.8-0.2-1.7-0.2-2.5c-0.1-1.7-0.2-3.5-0.2-5.2c0-1.2-1.8-1.2-1.8,0
							c0,1.6,0.1,3.3,0.2,4.9c0.1,0.8,0.1,1.6,0.2,2.4c0.1,0.8,0.1,1.6,0.3,2.3c0.2,0.7,0.5,1.4,1,1.9c0.6,0.5,1.2,0.8,2,0.9
							c1.6,0.3,3.2,0.5,4.8,0.5c1.6,0,3.2,0,4.8-0.1c1.4-0.1,3-0.2,4.3-1.1c1.1-0.8,2-2.2,1.6-3.6c-0.3-1.2-1.3-1.9-2.3-2.5
							c-0.5-0.3-1.1-0.6-1.6-0.9c0,0-0.1-0.1,0,0c-0.1-0.1-0.1-0.1-0.2-0.2c-0.1-0.1-0.2-0.2-0.3-0.3c0,0,0.1,0.1,0-0.1
							c-0.1-0.1-0.1-0.2-0.2-0.3c0-0.1-0.1-0.1-0.1-0.2c0,0-0.1-0.3-0.1-0.1c-0.3-0.6-0.3-1.1-0.3-1.8c0-0.7,0.1-1.4,0.1-2.1
							c0.1-0.5-0.5-0.9-0.9-0.9C281,156.9,280.6,157.3,280.6,157.8L280.6,157.8z"/>
					</g>
				</g>
				<g>
					<line class="st0" x1="287" y1="139.7" x2="281.8" y2="155.9"/>
					<path class="st1" d="M281.8,156.8c-0.1,0-0.2,0-0.3,0c-0.5-0.2-0.8-0.7-0.6-1.2l5.3-16.2c0.2-0.5,0.7-0.8,1.2-0.6
						c0.5,0.2,0.8,0.7,0.6,1.2l-5.3,16.2C282.5,156.6,282.1,156.8,281.8,156.8z"/>
				</g>
				<path class="st2" d="M280.5,153.5"/>
				<g>
					<line class="st0" x1="269.2" y1="158.2" x2="269.2" y2="145.1"/>
					<path class="st1" d="M269.2,159.2c-0.5,0-0.9-0.4-0.9-0.9v-13.1c0-0.5,0.4-0.9,0.9-0.9s0.9,0.4,0.9,0.9v13.1
						C270.1,158.8,269.7,159.2,269.2,159.2z"/>
				</g>
				<g>
					<ellipse class="st0" cx="282.8" cy="155.8" rx="2.6" ry="2.5"/>
					<path class="st1" d="M282.8,159.2c-1.9,0-3.5-1.5-3.5-3.4s1.6-3.4,3.5-3.4c1.9,0,3.5,1.5,3.5,3.4S284.7,159.2,282.8,159.2z
						 M282.8,154.3c-0.9,0-1.7,0.7-1.7,1.6s0.8,1.6,1.7,1.6c0.9,0,1.7-0.7,1.7-1.6S283.7,154.3,282.8,154.3z"/>
				</g>
				<g>
					<ellipse class="st0" cx="278.8" cy="155.9" rx="2.6" ry="2.5"/>
					<path class="st1" d="M278.8,159.3c-1.9,0-3.5-1.5-3.5-3.4c0-1.9,1.6-3.4,3.5-3.4s3.5,1.5,3.5,3.4
						C282.3,157.8,280.7,159.3,278.8,159.3z M278.8,154.3c-0.9,0-1.7,0.7-1.7,1.6c0,0.9,0.8,1.6,1.7,1.6c0.9,0,1.7-0.7,1.7-1.6
						C280.5,155,279.7,154.3,278.8,154.3z"/>
				</g>
				<g>
					<ellipse class="st0" cx="274.8" cy="156" rx="2.6" ry="2.5"/>
					<path class="st1" d="M274.8,159.4c-1.9,0-3.5-1.5-3.5-3.4s1.6-3.4,3.5-3.4s3.5,1.5,3.5,3.4S276.7,159.4,274.8,159.4z
						 M274.8,154.4c-0.9,0-1.7,0.7-1.7,1.6s0.8,1.6,1.7,1.6c0.9,0,1.7-0.7,1.7-1.6S275.7,154.4,274.8,154.4z"/>
				</g>
				<g>
					<ellipse class="st0" cx="270.1" cy="156" rx="2.6" ry="2.5"/>
					<path class="st1" d="M270.1,159.4c-1.9,0-3.5-1.5-3.5-3.4c0-1.9,1.6-3.4,3.5-3.4c1.9,0,3.5,1.5,3.5,3.4
						C273.6,157.9,272,159.4,270.1,159.4z M270.1,154.5c-0.9,0-1.7,0.7-1.7,1.6c0,0.9,0.8,1.6,1.7,1.6c0.9,0,1.7-0.7,1.7-1.6
						C271.8,155.2,271,154.5,270.1,154.5z"/>
				</g>
			</g>
			<g>
				<g>
					<path class="st0" d="M251.8,157.8c0.2,1.9,0.4,4.1-1,5.4c-1.2,1.2-3.5,1.6-4,3.3c-0.3,1.1,0.5,2.3,1.5,2.8
						c1,0.6,2.3,0.7,3.4,0.8c2.9,0.2,5.9,0.3,8.8-0.2c0.8-0.1,1.7-0.3,2.2-0.9c0.6-0.6,0.7-1.4,0.8-2.2c0.4-2.8,0.5-5.6,0.5-8.5"/>
					<g>
						<path class="st1" d="M250.9,157.8c0.1,0.6,0.1,1.2,0.1,1.9c0,0.7,0,1.1-0.2,1.7c-0.1,0.5-0.4,0.9-0.7,1.3
							c-0.3,0.3-0.7,0.5-1.2,0.8c-1,0.5-2,1.1-2.6,2c-0.8,1.2-0.4,2.7,0.5,3.8c1,1.1,2.5,1.5,3.9,1.7c1.6,0.2,3.2,0.2,4.7,0.2
							c1.6,0,3.2-0.1,4.9-0.3c1.4-0.2,3-0.6,3.7-2c0.4-0.8,0.5-1.6,0.6-2.4c0.1-0.9,0.2-1.8,0.3-2.7c0.1-1.8,0.2-3.6,0.2-5.5
							c0-1.2-1.8-1.2-1.8,0c0,1.5,0,3.1-0.2,4.6c-0.1,0.8-0.1,1.5-0.2,2.3c-0.1,0.7-0.1,1.4-0.2,2c-0.1,0.6-0.2,1-0.6,1.4
							c-0.1,0.1-0.4,0.2-0.5,0.3c-0.3,0.1-0.6,0.2-0.9,0.2c-1.4,0.3-2.9,0.4-4.3,0.4c-1.5,0-3,0-4.5-0.1c-0.6,0-1.2-0.1-1.8-0.2
							c-0.5-0.1-1.1-0.3-1.5-0.6c-0.4-0.3-0.6-0.7-0.7-1.2c0,0.1,0-0.2,0-0.2c0-0.2,0-0.1,0,0c0-0.1,0-0.1,0-0.2c0-0.2,0-0.1,0,0
							c0,0,0-0.1,0.1-0.1c0,0,0.1-0.1,0.1-0.1c0.1-0.2-0.1,0.1,0-0.1c0.1-0.1,0.1-0.2,0.2-0.2c0,0,0.3-0.2,0.1-0.1
							c0.2-0.1,0.4-0.3,0.6-0.4c0.4-0.3,0.9-0.5,1.3-0.7c1.2-0.7,2-1.6,2.4-3c0.4-1.3,0.3-2.7,0.1-4c-0.1-0.5-0.4-0.9-0.9-0.9
							C251.4,156.9,250.9,157.3,250.9,157.8L250.9,157.8z"/>
					</g>
				</g>
				<g>
					<line class="st0" x1="246.3" y1="139.7" x2="251.6" y2="155.9"/>
					<path class="st1" d="M251.6,156.8c-0.4,0-0.8-0.2-0.9-0.6l-5.3-16.2c-0.2-0.5,0.1-1,0.6-1.2c0.5-0.2,1,0.1,1.2,0.6l5.3,16.2
						c0.2,0.5-0.1,1-0.6,1.2C251.8,156.8,251.7,156.8,251.6,156.8z"/>
				</g>
				<path class="st2" d="M252.9,153.5"/>
				<g>
					<line class="st0" x1="264.2" y1="158.2" x2="264.2" y2="145.1"/>
					<path class="st1" d="M264.2,159.2c-0.5,0-0.9-0.4-0.9-0.9v-13.1c0-0.5,0.4-0.9,0.9-0.9s0.9,0.4,0.9,0.9v13.1
						C265.1,158.8,264.7,159.2,264.2,159.2z"/>
				</g>
				<g>
					<ellipse class="st0" cx="250.6" cy="155.8" rx="2.6" ry="2.5"/>
					<path class="st1" d="M250.6,159.2c-1.9,0-3.5-1.5-3.5-3.4s1.6-3.4,3.5-3.4c1.9,0,3.5,1.5,3.5,3.4S252.5,159.2,250.6,159.2z
						 M250.6,154.3c-0.9,0-1.7,0.7-1.7,1.6s0.8,1.6,1.7,1.6c0.9,0,1.7-0.7,1.7-1.6S251.5,154.3,250.6,154.3z"/>
				</g>
				<g>
					<ellipse class="st0" cx="254.6" cy="155.9" rx="2.6" ry="2.5"/>
					<path class="st1" d="M254.6,159.3c-1.9,0-3.5-1.5-3.5-3.4c0-1.9,1.6-3.4,3.5-3.4c1.9,0,3.5,1.5,3.5,3.4
						C258.1,157.8,256.5,159.3,254.6,159.3z M254.6,154.3c-0.9,0-1.7,0.7-1.7,1.6c0,0.9,0.8,1.6,1.7,1.6c0.9,0,1.7-0.7,1.7-1.6
						C256.3,155,255.5,154.3,254.6,154.3z"/>
				</g>
				<g>
					<ellipse class="st0" cx="258.6" cy="156" rx="2.6" ry="2.5"/>
					<path class="st1" d="M258.6,159.4c-1.9,0-3.5-1.5-3.5-3.4s1.6-3.4,3.5-3.4s3.5,1.5,3.5,3.4S260.5,159.4,258.6,159.4z
						 M258.6,154.4c-0.9,0-1.7,0.7-1.7,1.6s0.8,1.6,1.7,1.6c0.9,0,1.7-0.7,1.7-1.6S259.5,154.4,258.6,154.4z"/>
				</g>
				<g>
					<ellipse class="st0" cx="263.3" cy="156" rx="2.6" ry="2.5"/>
					<path class="st1" d="M263.3,159.4c-1.9,0-3.5-1.5-3.5-3.4c0-1.9,1.6-3.4,3.5-3.4c1.9,0,3.5,1.5,3.5,3.4
						C266.8,157.9,265.2,159.4,263.3,159.4z M263.3,154.5c-0.9,0-1.7,0.7-1.7,1.6c0,0.9,0.8,1.6,1.7,1.6c0.9,0,1.7-0.7,1.7-1.6
						C265,155.2,264.2,154.5,263.3,154.5z"/>
				</g>
			</g>
			<g>
				<path class="st0" d="M247.8,99.7l-6.3,24l-12.8,14.1c0,0,5.6,3.8,14.6,6.7l7-8l2.5,10.3c7.2,1.2,15.6,1.4,24.6-0.8l0.3-9.5
					l8.6,6.6c5-2,10.1-4.8,15.3-8.6L288,122.9l-8-24"/>
				<path class="st1" d="M263.3,148.6c-3.5,0-7.1-0.3-10.6-0.9c-0.4-0.1-0.7-0.4-0.8-0.7l-2-8.5l-5.7,6.6c-0.3,0.3-0.7,0.4-1,0.3
					c-9.1-2.9-14.7-6.7-14.9-6.8c-0.2-0.2-0.4-0.4-0.4-0.7c0-0.3,0.1-0.6,0.3-0.8l12.6-13.9l6.2-23.8c0.1-0.5,0.7-0.8,1.2-0.7
					c0.5,0.1,0.8,0.7,0.7,1.2l-6.3,24c0,0.2-0.1,0.3-0.2,0.4l-12,13.2c1.9,1.1,6.4,3.7,12.8,5.8l6.6-7.6c0.2-0.3,0.6-0.4,1-0.3
					c0.4,0.1,0.6,0.4,0.7,0.7l2.3,9.7c7.7,1.2,15.4,1,22.8-0.7l0.3-8.7c0-0.4,0.2-0.7,0.6-0.9c0.3-0.2,0.7-0.1,1,0.1l8.2,6.3
					c4.6-1.9,9.2-4.5,13.5-7.6l-12.7-10.7c-0.1-0.1-0.2-0.3-0.3-0.4l-8-24c-0.2-0.5,0.1-1.1,0.6-1.3c0.5-0.2,1.1,0.1,1.3,0.6
					l7.9,23.8l13.4,11.3c0.2,0.2,0.4,0.5,0.4,0.8c0,0.3-0.2,0.6-0.4,0.8c-5,3.6-10.2,6.6-15.5,8.7c-0.3,0.1-0.7,0.1-1-0.1l-7.1-5.4
					l-0.2,7.5c0,0.4-0.3,0.8-0.8,0.9C272.9,148,268.1,148.6,263.3,148.6z"/>
			</g>
			<g>
				<path class="st3" d="M244.6,92.8"/>
				<g>
					<path class="st0" d="M244.6,92.8c-9-3.4-9.6-17.4-9.6-17.4c-4.7-2.5-5.3-11.4-2.7-13.2c1.1-0.8,2.7-0.8,4-0.6"/>
					<path class="st1" d="M244.2,93.7c-8.6-3.2-10-15-10.2-17.7c-2.9-1.8-4.1-5.6-4.3-8.5c-0.2-2.8,0.5-5.1,1.9-6.1
						c1.2-0.8,2.9-1.1,4.7-0.7l-0.4,1.9c-1.2-0.3-2.5-0.1-3.2,0.4c-0.6,0.4-1.2,2-1.1,4.4c0.2,2.5,1.2,5.8,3.7,7.2l0.5,0.3l0,0.6
						c0,0.1,0.6,13.4,8.9,16.5L244.2,93.7z"/>
				</g>
			</g>
			<path class="st1" d="M234.5,76.9c-12.1,0-16.9-8.6-17.1-8.9c0,0,0-0.1-0.1-0.1c-0.9-2.3-0.3-4.9,1.4-6.6c0.1-0.1,0.3-0.3,0.4-0.4
				c3.6-3.1,8.7-7.7,12.7-11.9c2.9-3,5.2-6.6,6.8-10.6c6.5-15.8,14.3-23.9,23.3-24c0,0,0,0,0.1,0c0.5,0,12.8,0.9,22.2,22.2
				c2.4,5.5,5.6,10.2,9.5,14.1c3.6,3.6,7.3,6.4,11,8.1c1.8,0.9,3.1,2.4,3.7,4.3c0.6,2,0.4,4.1-0.7,5.9c0,0,0,0,0,0.1
				c-0.2,0.3-5.4,7.8-16.5,7.3c-0.5,0-0.9-0.4-0.9-0.9c0-0.5,0.4-0.9,0.9-0.9c9.8,0.5,14.5-5.9,14.9-6.5c0.8-1.3,0.9-3,0.5-4.5
				c-0.3-1-1-2.3-2.8-3.2c-3.8-1.9-7.7-4.7-11.5-8.5c-4.1-4-7.4-9-9.9-14.7c-8.7-19.8-20-21.1-20.6-21.2
				c-8.2,0.2-15.5,7.9-21.6,22.9c-1.7,4.2-4.1,8-7.2,11.1c-4,4.2-9.2,8.8-12.8,12c-0.1,0.1-0.2,0.2-0.3,0.3c-1.2,1.2-1.6,3-1,4.7
				c0.4,0.8,4.9,7.9,15.5,7.9c0.5,0,0.9,0.4,0.9,0.9C235.4,76.5,235,76.9,234.5,76.9z"/>
			<path class="st1" d="M280.2,33C280.1,33,280.1,33,280.2,33l-8.7-1c-2.1-0.2-3.7-2.1-3.5-4.3l0.8-8.6c0-0.4,0.4-0.7,0.8-0.7
				c0.4,0,0.7,0.4,0.7,0.8l-0.8,8.6c-0.1,1.3,0.8,2.5,2.2,2.6l8.6,1c0.4,0,0.7,0.4,0.7,0.8C280.9,32.7,280.5,33,280.2,33z"/>
			<path class="st1" d="M277.1,35c-0.3,0-0.5-0.2-0.6-0.5l-0.6-3.8c0-0.3,0.2-0.6,0.5-0.7c0.3,0,0.6,0.2,0.7,0.5l0.6,3.8
				C277.8,34.6,277.6,34.9,277.1,35C277.2,35,277.2,35,277.1,35z"/>
			<path class="st1" d="M272.4,33.5c-0.1,0-0.1,0-0.2,0c-0.3-0.1-0.5-0.4-0.4-0.7L273,29c0.1-0.3,0.4-0.5,0.7-0.4
				c0.3,0.1,0.5,0.4,0.4,0.7l-1.1,3.8C272.9,33.4,272.7,33.5,272.4,33.5z"/>
			<path class="st1" d="M270.7,24.1c-0.1,0-0.1,0-0.2,0l-3.8-1.1c-0.3-0.1-0.5-0.4-0.4-0.7c0.1-0.3,0.4-0.5,0.7-0.4l3.8,1.1
				c0.3,0.1,0.5,0.4,0.4,0.7C271.2,24,271,24.1,270.7,24.1z"/>
			<path class="st1" d="M266.7,27.3c-0.3,0-0.5-0.2-0.6-0.5c0-0.3,0.2-0.6,0.5-0.7l3.9-0.5c0.3,0,0.6,0.2,0.7,0.5
				c0,0.3-0.2,0.6-0.5,0.7L266.7,27.3C266.7,27.3,266.7,27.3,266.7,27.3z"/>
			<path class="st1" d="M236.1,46.4c-0.2,0-0.5-0.1-0.7-0.3c-0.3-0.4-0.3-0.9,0.1-1.3c0.2-0.2,4.2-3.8,12.7-5.8
				c7.8-1.8,20.9-2.5,39.4,4.6c0.5,0.2,0.7,0.7,0.5,1.2c-0.2,0.5-0.7,0.7-1.2,0.5c-34.4-13.2-50.2,0.7-50.3,0.8
				C236.5,46.3,236.3,46.4,236.1,46.4z"/>
			<path class="st1" d="M284.9,40.6c-0.1,0-0.2,0-0.3-0.1c-32.6-11.4-44.6-0.3-44.7-0.2c-0.4,0.3-0.9,0.3-1.3,0
				c-0.3-0.4-0.3-0.9,0-1.3c0.5-0.5,12.8-12,46.6-0.2c0.5,0.2,0.7,0.7,0.6,1.1C285.7,40.3,285.3,40.6,284.9,40.6z"/>
			<g>
				<path class="st1" d="M249.9,73.9c-2.5,0-4.7-1.6-5.1-3.9c-0.4-2.6,1.5-5.1,4.4-5.6c1.4-0.2,2.8,0,3.9,0.7
					c1.2,0.7,1.9,1.8,2.1,3.1l0,0c0.2,1.3-0.1,2.6-1,3.6c-0.8,1.1-2.1,1.8-3.5,2C250.6,73.8,250.2,73.9,249.9,73.9z M250.3,64.9
					c-0.3,0-0.6,0-0.9,0.1c-2.5,0.4-4.3,2.6-3.9,4.9c0.4,2.2,2.7,3.7,5.3,3.3c1.2-0.2,2.3-0.8,3.1-1.8c0.7-0.9,1-2,0.8-3.1l0,0
					c-0.2-1.1-0.8-2-1.8-2.6C252.1,65.2,251.2,64.9,250.3,64.9z"/>
				<circle class="st4" cx="251.1" cy="68.9" r="3.6"/>
				<circle class="st0" cx="252.5" cy="66.8" r="2.1"/>
				<path class="st1" d="M256.5,69.9l-0.2-0.4c-1.7-4.1-5.2-4.6-5.2-4.6c-4.6-0.5-6.1,3.3-6.2,3.5l-0.2,0.4l-0.8-0.3l0.1-0.4
					c0,0,1.7-4.6,7.1-4.1c0.2,0,4,0.5,5.9,5.1l0.2,0.4L256.5,69.9z"/>
			</g>
			<g>
				<path class="st1" d="M275.1,73.9c-1,0-2.1-0.3-2.9-0.8c-1.2-0.7-1.9-1.8-2.1-3.1c-0.4-2.6,1.5-5.1,4.4-5.6
					c1.4-0.2,2.8,0,3.9,0.7c1.2,0.7,1.9,1.8,2.1,3.1l0,0c0.2,1.3-0.1,2.6-1,3.6c-0.8,1.1-2.1,1.8-3.5,2
					C275.8,73.8,275.5,73.9,275.1,73.9z M275.5,64.9c-0.3,0-0.6,0-0.9,0.1c-2.5,0.4-4.3,2.6-3.9,4.9c0.2,1.1,0.8,2,1.8,2.6
					c1,0.6,2.2,0.9,3.5,0.6c1.2-0.2,2.3-0.8,3.1-1.8c0.7-0.9,1-2,0.8-3.1l0,0c-0.2-1.1-0.8-2-1.8-2.6
					C277.3,65.2,276.4,64.9,275.5,64.9z"/>
				<circle class="st4" cx="276.4" cy="68.9" r="3.6"/>
				<path class="st0" d="M275.7,67.2c-0.2-1.1,0.6-2.2,1.7-2.4c1.1-0.2,2.2,0.6,2.4,1.7s-0.6,2.2-1.7,2.4c-0.5,0.1-1.1,0-1.5-0.3
					C276.1,68.3,275.8,67.8,275.7,67.2z"/>
				<path class="st1" d="M281.7,69.9l-0.2-0.4c-1.7-4.1-5.2-4.6-5.2-4.6c-4.6-0.5-6.1,3.3-6.2,3.5l-0.2,0.4l-0.8-0.3l0.1-0.4
					c0,0,1.8-4.6,7.1-4.1c0.2,0,4,0.5,5.9,5.1l0.2,0.4L281.7,69.9z"/>
			</g>
			<g>
				<path class="st1" d="M260.2,82.3c-1.4-0.5-3-0.5-4.1,0.5c-1,0.9-1.4,2.3-0.8,3.5c1.2,2.7,5,3.1,7.5,3.1c3,0,6.7-0.4,8.9-2.6
					c1.8-1.9,1.6-5.3-1.3-5.9c-1.6-0.3-2.9,0.4-4.2,1.2c-1.8,1-3.7,0.8-5.6,0.4c-0.8-0.2-1.2,1.1-0.4,1.3c2.4,0.6,4.6,0.7,6.8-0.6
					c0.9-0.6,1.9-1.1,3.1-0.9c1.1,0.2,1.6,1.2,1.4,2.3c-0.5,2.4-3.7,3.1-5.7,3.4c-2.4,0.3-5.3,0.5-7.6-0.6c-0.9-0.5-2.1-1.4-1.8-2.6
					c0.4-1.5,2.2-1.6,3.4-1.1C260.6,83.9,261,82.6,260.2,82.3L260.2,82.3z"/>
			</g>
			<path class="st1" d="M265.2,78.5h-3.6c-1,0-1.7-0.7-1.8-1.7c-0.3-4.9,0.3-8,1.7-9.4c0.7-0.7,1.4-0.7,1.5-0.7c0,0,0,0,0,0
				c0.7,0,1.4,0.3,2,0.9c1.9,1.9,2,6.5,1.9,9.1C266.9,77.8,266.1,78.5,265.2,78.5z M263,68.2c0,0-2.2,0.4-1.8,8.6
				c0,0.2,0.2,0.4,0.4,0.4h3.6c0.2,0,0.4-0.2,0.4-0.4c0.1-4-0.5-7-1.5-8.1C263.7,68.3,263.4,68.2,263,68.2z"/>
			<g>
				<path class="st1" d="M273,61.7c0.2-0.5,0.6-0.8,1-1.1c0.4-0.3,0.9-0.7,1.4-0.9c0.5-0.2,1,0.1,1.4,0.4c0.6,0.3,1.1,0.7,1.6,1.1
					c0.3,0.2,0.7,0,0.9-0.2c0.2-0.3,0-0.7-0.2-0.9c-0.6-0.5-1.3-0.9-2-1.3c-0.7-0.4-1.4-0.6-2.1-0.3c-0.6,0.2-1.2,0.7-1.7,1.1
					c-0.6,0.4-1,0.9-1.4,1.5c-0.2,0.3-0.1,0.7,0.2,0.9C272.4,62.1,272.9,62.1,273,61.7L273,61.7z"/>
			</g>
			<g>
				<path class="st1" d="M254.4,60.9c-0.3-0.6-0.8-1.1-1.4-1.5c-0.5-0.4-1.1-0.8-1.7-1.1c-0.7-0.3-1.5-0.1-2.1,0.3
					c-0.7,0.4-1.3,0.8-2,1.3c-0.3,0.2-0.4,0.6-0.2,0.9c0.2,0.3,0.6,0.4,0.9,0.2c0.5-0.4,1-0.7,1.6-1.1c0.4-0.3,0.9-0.6,1.5-0.4
					c0.5,0.2,1,0.6,1.4,0.9c0.4,0.3,0.7,0.7,1,1.1c0.2,0.3,0.6,0.4,0.9,0.2C254.5,61.6,254.6,61.2,254.4,60.9L254.4,60.9z"/>
			</g>
			<g>
				<g>
					<path class="st0" d="M231.4,63.3l0.2,10.1c0,0.8,0.5,1.6,1.2,1.7l0,0c0.7,0.1,1.4-0.5,1.6-1.4l1.6-11.5
						c0.2-1.5-1.1-2.5-2.2-1.7l-1.8,1.5C231.6,62.2,231.3,62.7,231.4,63.3z"/>
					<path class="st1" d="M233,75.7c-0.1,0-0.2,0-0.3,0c-1-0.2-1.8-1.1-1.8-2.3l-0.2-10.1c0-0.8,0.3-1.5,0.9-2l1.8-1.5
						c0.6-0.5,1.4-0.6,2.1-0.2c0.8,0.5,1.3,1.5,1.1,2.5L235,73.7c-0.1,0.7-0.4,1.3-0.9,1.6C233.8,75.6,233.4,75.7,233,75.7z
						 M234.5,60.7c-0.1,0-0.2,0-0.4,0.1l-1.8,1.5c-0.2,0.2-0.4,0.6-0.4,0.9l0,0l0.2,10.1c0,0.5,0.3,1,0.7,1c0.1,0,0.3,0,0.4-0.1
						c0.2-0.2,0.3-0.4,0.4-0.7l1.6-11.5c0.1-0.6-0.2-1-0.5-1.2C234.7,60.8,234.6,60.7,234.5,60.7z"/>
				</g>
				<g>
					<path class="st0" d="M232.3,77.9l3,6.3c0.2,0.5,0.6,0.7,1,0.5l2.4-1.3c0.4-0.2,0.5-0.9,0.3-1.5l-3.1-6.8
						c-0.2-0.5-0.7-0.8-1.1-0.5l-2.4,1.8C232.1,76.6,232,77.3,232.3,77.9z"/>
					<path class="st1" d="M236,85.5c-0.1,0-0.3,0-0.4-0.1c-0.4-0.1-0.8-0.5-1-0.9l-3-6.3l0,0c-0.4-0.9-0.2-1.9,0.4-2.4l2.4-1.8
						c0.3-0.2,0.7-0.3,1.1-0.2c0.5,0.1,0.9,0.5,1.1,1l3.1,6.8c0.4,1,0.2,2.1-0.6,2.5l-2.4,1.3C236.4,85.4,236.2,85.5,236,85.5z
						 M232.9,77.6l3,6.3c0,0.1,0.1,0.1,0.1,0.1l2.3-1.2c0,0,0.1-0.3-0.1-0.6l-3.1-6.8c0-0.1-0.1-0.1-0.1-0.1l-2.3,1.7
						C232.8,77,232.8,77.3,232.9,77.6L232.9,77.6z"/>
				</g>
				<g>
					<path class="st0" d="M232.1,78.4l-3.1,3.9c-0.5,0.6-1.2,0.7-1.8,0.2l-1.4-1.1c-0.7-0.6-0.8-1.7-0.3-2.5l3.5-5.2
						c0.7-1,1.9-0.8,2.4,0.4l0.9,2.4C232.6,77.1,232.5,77.9,232.1,78.4z"/>
					<path class="st1" d="M228,83.5c-0.4,0-0.9-0.2-1.2-0.4l-1.4-1.1c-1-0.8-1.2-2.3-0.4-3.4l3.5-5.2c0.4-0.6,1.1-1,1.8-0.9
						c0.7,0.1,1.4,0.6,1.7,1.4l0.9,2.4c0.3,0.9,0.2,1.9-0.3,2.6l0,0l-3.1,3.9c-0.3,0.4-0.8,0.7-1.3,0.8
						C228.2,83.5,228.1,83.5,228,83.5z M230.1,73.8c-0.2,0-0.4,0.1-0.5,0.3l-3.5,5.2c-0.3,0.5-0.2,1.3,0.2,1.6l1.4,1.1
						c0.1,0.1,0.3,0.2,0.4,0.1c0.2,0,0.3-0.1,0.4-0.3l3.1-3.9c0.3-0.3,0.3-0.8,0.2-1.3l-0.9-2.4C230.7,74,230.5,73.8,230.1,73.8
						C230.2,73.8,230.2,73.8,230.1,73.8z M232.1,78.4L232.1,78.4L232.1,78.4z"/>
				</g>
				<g>
					<path class="st0" d="M233.7,70.8l0.8,4.7c0.2,1,1.1,1.7,1.9,1.4l1.3-0.5c0.8-0.3,1.1-1.3,0.8-2.2l-2.2-5.8
						c-0.7-1.8-2.8-1.3-2.7,0.6l0.1,1.5C233.6,70.7,233.6,70.8,233.7,70.8z"/>
					<path class="st1" d="M236,77.7c-0.3,0-0.7-0.1-1-0.3c-0.6-0.4-1.1-1-1.2-1.8l-0.8-4.7c0,0,0,0,0,0c0-0.1,0-0.2,0-0.2l-0.1-1.5
						c-0.1-1.4,0.7-2.2,1.6-2.4c1-0.2,2,0.4,2.4,1.5l2.2,5.8c0.3,0.7,0.2,1.4,0,2c-0.2,0.5-0.6,0.9-1.1,1.1l-1.3,0.5
						C236.4,77.7,236.2,77.7,236,77.7z M234.3,70.7l0.8,4.7c0.1,0.4,0.3,0.7,0.5,0.9c0.1,0.1,0.3,0.1,0.5,0.1l1.3-0.5
						c0.2-0.1,0.3-0.2,0.4-0.4c0.1-0.3,0.1-0.7,0-1l-2.2-5.8c-0.2-0.6-0.6-0.7-0.9-0.7c-0.4,0.1-0.6,0.5-0.5,1l0.1,1.5
						C234.3,70.6,234.3,70.7,234.3,70.7z"/>
				</g>
				<g>
					<path class="st0" d="M229.4,77.4l0,6.8c0,0.9,0.5,1.6,1.3,1.7l1.6,0.2c0.8,0.1,1.5-0.7,1.6-1.6l0.3-11c0-0.6-0.2-1.2-0.7-1.5
						l-0.6-0.4c-0.8-0.6-1.8-0.1-2.1,0.9l-1.3,4.5C229.4,77,229.4,77.2,229.4,77.4z"/>
					<path class="st1" d="M232.4,86.7c-0.1,0-0.2,0-0.2,0l-1.6-0.2c-1-0.1-1.8-1.1-1.8-2.3l0-6.8c0-0.3,0-0.5,0.1-0.8l1.3-4.5
						c0.2-0.7,0.7-1.3,1.4-1.5c0.6-0.2,1.2-0.1,1.7,0.3l0.6,0.4c0.6,0.4,1,1.2,0.9,2.1l-0.3,11c0,0.7-0.3,1.4-0.8,1.8
						C233.3,86.5,232.9,86.7,232.4,86.7z M232.1,71.8c-0.1,0-0.1,0-0.2,0c-0.2,0.1-0.4,0.3-0.5,0.6l-1.3,4.5c0,0.1-0.1,0.3-0.1,0.4
						c0,0,0,0,0,0l0,6.8c0,0.5,0.3,1,0.7,1l1.6,0.2c0.2,0,0.3-0.1,0.4-0.1c0.2-0.2,0.4-0.5,0.4-0.9l0.3-11c0-0.4-0.1-0.8-0.4-1
						l-0.6-0.4C232.3,71.8,232.2,71.8,232.1,71.8z"/>
				</g>
				<g>
					<path class="st0" d="M229.6,66.1l-2.6,5.5c-0.4,0.8-0.2,1.7,0.4,2.2l0.8,0.7c0.7,0.6,1.7,0.3,2.1-0.7l1.7-4.5
						c0.1-0.2,0.1-0.4,0.1-0.7l0.1-1.7C232.3,65.2,230.4,64.6,229.6,66.1z"/>
					<path class="st1" d="M229.1,75.6c-0.5,0-0.9-0.2-1.3-0.5l-0.8-0.7c-0.8-0.7-1-2-0.5-3l2.6-5.5c0,0,0,0,0,0
						c0.4-0.9,1.3-1.4,2.2-1.2c1,0.2,1.7,1.2,1.6,2.4l-0.1,1.7c0,0.3-0.1,0.6-0.2,0.9l-1.7,4.5c-0.3,0.7-0.8,1.2-1.5,1.4
						C229.3,75.5,229.2,75.6,229.1,75.6z M230.2,66.4l-2.6,5.5c-0.2,0.5-0.1,1.1,0.2,1.5l0.8,0.7c0.2,0.1,0.3,0.2,0.5,0.2
						c0.2-0.1,0.4-0.3,0.5-0.5l1.7-4.5c0.1-0.1,0.1-0.3,0.1-0.4l0.1-1.7c0-0.6-0.3-1-0.6-1.1C230.7,65.9,230.4,66,230.2,66.4
						L230.2,66.4z"/>
				</g>
			</g>
			<path class="st1" d="M229.3,67.1c-0.1,0-0.1,0-0.2,0c-0.5-0.1-0.8-0.6-0.7-1.1c1.8-9.5,15.2-10,15.8-10c6.9,0.2,7.6-0.1,12.7-5.2
				c0.2-0.2,4-4,9.5-4c0,0,0.1,0,0.1,0c3.7,0,7.2,1.8,10.4,5.2c0,0,4.7,4.6,8.1,4.8c0.4,0,9.2,0.9,12.2,8.4c0.2,0.5,0,1-0.5,1.2
				c-0.5,0.2-1,0-1.2-0.5c-2.7-6.5-10.6-7.3-10.7-7.3c-4.1-0.2-9.1-5.1-9.3-5.3c-2.9-3.1-6-4.6-9.1-4.7c0,0-0.1,0-0.1,0
				c-4.7,0-8.2,3.4-8.2,3.5c-5.5,5.5-6.6,5.9-13.9,5.7c-0.1,0-12.4,0.5-14,8.6C230.1,66.8,229.8,67.1,229.3,67.1z"/>
			<g>
				<path class="st0" d="M262.8,57l4.6-3.6c0.1-0.1,0.3-0.2,0.3-0.4l1.6-2.9c0.4-0.7,0.1-1.5-0.6-1.8l-1.6-0.7
					c-0.6-0.2-1.2,0-1.6,0.5l-4.6,7.1c-0.4,0.7-0.2,1.6,0.6,1.9l0,0C261.9,57.4,262.4,57.3,262.8,57z"/>
				<path class="st1" d="M262,58c-0.3,0-0.5-0.1-0.8-0.2c-0.5-0.2-0.9-0.7-1.1-1.2c-0.2-0.6-0.1-1.1,0.2-1.6l4.6-7.1
					c0.5-0.8,1.5-1.1,2.4-0.7l1.6,0.7c0.5,0.2,0.9,0.6,1.1,1.2c0.2,0.5,0.1,1.1-0.1,1.6l-1.6,2.9c-0.1,0.2-0.3,0.4-0.5,0.6l-4.6,3.6
					l0,0C262.9,57.8,262.5,58,262,58z M262.8,57L262.8,57L262.8,57z M266.7,48.3c-0.2,0-0.4,0.1-0.5,0.3l-4.6,7.1
					c-0.1,0.2-0.1,0.4-0.1,0.5c0,0.1,0.1,0.3,0.3,0.4c0.2,0.1,0.5,0.1,0.6-0.1l4.6-3.6c0.1-0.1,0.1-0.1,0.2-0.2l1.6-2.9
					c0.1-0.2,0.1-0.3,0-0.5c-0.1-0.2-0.2-0.3-0.4-0.4l-1.6-0.7C266.8,48.3,266.8,48.3,266.7,48.3z"/>
			</g>
			<g>
				<path class="st1" d="M242.7,119.8c11.6,0,23.2,0,34.8,0c3.3,0,6.6,0,9.9,0c1.4,0,1.4-2.1,0-2.1c-11.6,0-23.2,0-34.8,0
					c-3.3,0-6.6,0-9.9,0C241.3,117.7,241.3,119.8,242.7,119.8L242.7,119.8z"/>
			</g>
			<g>
				<path class="st0" d="M269.3,50.1l-0.9,4.9c-0.2,0.9,0.7,1.7,1.6,1.5l1.4-0.4c0.5-0.1,0.9-0.5,1-1.1l0.6-3.9
					c0.1-0.5-0.1-1-0.6-1.3l-1.1-0.7C270.5,48.8,269.5,49.2,269.3,50.1z"/>
				<path class="st1" d="M269.7,57.2c-0.5,0-1-0.2-1.3-0.5c-0.5-0.5-0.7-1.1-0.6-1.8l0.9-4.9c0.1-0.6,0.5-1.2,1.1-1.4
					c0.6-0.3,1.3-0.2,1.8,0.1l1.1,0.7c0.7,0.4,1,1.2,0.9,1.9l-0.6,3.9c-0.1,0.8-0.7,1.4-1.5,1.6l-1.4,0.4
					C270,57.2,269.8,57.2,269.7,57.2z M270.6,49.7c-0.1,0-0.2,0-0.2,0.1c-0.2,0.1-0.3,0.3-0.4,0.5l0,0l-0.9,4.9c0,0.2,0,0.4,0.2,0.6
					c0.2,0.1,0.4,0.2,0.6,0.2l1.4-0.4c0.2-0.1,0.4-0.3,0.5-0.5l0.6-3.9c0-0.2-0.1-0.5-0.3-0.6l-1.1-0.7
					C270.8,49.7,270.7,49.7,270.6,49.7z M269.3,50.1L269.3,50.1L269.3,50.1z"/>
			</g>
			<g>
				<path class="st0" d="M288.9,96.9c0,0,15.4,5.6,11.8,19.3c-0.3,1-0.9,1.9-2,2.2l-11.6,2.6c-2,0.4-3.7-1.3-3.1-3.2
					c1.8-5.6,5.8-14.4-2-14.6"/>
				<path class="st1" d="M286.5,121.9c-1,0-2-0.4-2.7-1.2c-0.8-0.9-1.1-2.1-0.7-3.3c0.2-0.7,0.4-1.4,0.7-2.1
					c1.2-3.6,2.7-8.1,1.3-10.1c-0.6-0.8-1.6-1.2-3.1-1.2c-0.5,0-0.9-0.4-0.9-0.9c0-0.5,0.4-0.9,0.9-0.9c0,0,0,0,0,0
					c2.2,0,3.7,0.7,4.6,2c2,2.8,0.3,7.5-1.1,11.8c-0.2,0.7-0.5,1.4-0.7,2c-0.2,0.5,0,1.1,0.3,1.5c0.4,0.5,1.1,0.7,1.7,0.5l11.6-2.6
					c0.9-0.2,1.2-1,1.3-1.5c3.4-12.7-10.6-17.9-11.2-18.2c-0.5-0.2-0.7-0.7-0.6-1.2c0.2-0.5,0.7-0.7,1.2-0.6
					c0.2,0.1,16.2,6.1,12.4,20.4c-0.4,1.5-1.4,2.5-2.7,2.8l-11.6,2.6C287,121.9,286.7,121.9,286.5,121.9z"/>
			</g>
			<path class="st3" d="M245.2,84.6"/>
			<path class="st5" d="M245.4,124"/>
			<g>
				<path class="st1" d="M248.8,81.3c0.8,0,0.8-1.3,0-1.3C248,80.1,248,81.3,248.8,81.3L248.8,81.3z"/>
			</g>
			<g>
				<path class="st1" d="M251.5,84.3c0.8,0,0.8-1.3,0-1.3C250.7,83.1,250.7,84.3,251.5,84.3L251.5,84.3z"/>
			</g>
			<g>
				<path class="st1" d="M246.1,84.3c0.8,0,0.8-1.3,0-1.3C245.3,83.1,245.3,84.3,246.1,84.3L246.1,84.3z"/>
			</g>
			<g>
				<path class="st1" d="M247.7,87.3c0.8,0,0.8-1.3,0-1.3C246.9,86.1,246.9,87.3,247.7,87.3L247.7,87.3z"/>
			</g>
			<g>
				<path class="st1" d="M250.5,87.6c0.8,0,0.8-1.3,0-1.3C249.6,86.3,249.6,87.6,250.5,87.6L250.5,87.6z"/>
			</g>
			<g>
				<path class="st1" d="M279.4,79.5c-0.1,0-0.2,0-0.3,0c-0.1,0-0.2,0-0.2,0.1c-0.1,0-0.1,0.1-0.2,0.1c-0.1,0.1-0.1,0.1-0.1,0.2
					c0,0.1-0.1,0.2-0.1,0.2c0,0.1,0,0.1,0,0.2c0,0.1,0.1,0.2,0.2,0.3c0,0,0.1,0.1,0.1,0.1c0.1,0.1,0.2,0.1,0.3,0.1
					c0.1,0,0.2,0,0.3,0c0.1,0,0.2,0,0.2-0.1c0.1,0,0.1-0.1,0.2-0.1c0.1-0.1,0.1-0.1,0.1-0.2c0-0.1,0.1-0.2,0.1-0.2
					c0-0.1,0-0.1,0-0.2c0-0.1-0.1-0.2-0.2-0.3c0,0-0.1-0.1-0.1-0.1C279.6,79.6,279.5,79.5,279.4,79.5L279.4,79.5z"/>
			</g>
			<g>
				<path class="st1" d="M276.4,83.5c0.8,0,0.8-1.3,0-1.3C275.6,82.3,275.6,83.5,276.4,83.5L276.4,83.5z"/>
			</g>
			<g>
				<path class="st1" d="M278.5,85.4c0.8,0,0.8-1.3,0-1.3C277.7,84.2,277.7,85.4,278.5,85.4L278.5,85.4z"/>
			</g>
			<g>
				<path class="st1" d="M281.5,83.5c0.8,0,0.8-1.3,0-1.3C280.7,82.3,280.7,83.5,281.5,83.5L281.5,83.5z"/>
			</g>
			<g>
				<path class="st1" d="M241.5,124.7c12.7,0,25.5,0,38.2,0c3.6,0,7.2,0,10.8,0c1.4,0,1.4-2.1,0-2.1c-12.7,0-25.5,0-38.2,0
					c-3.6,0-7.2,0-10.8,0C240.2,122.6,240.2,124.7,241.5,124.7L241.5,124.7z"/>
			</g>
			<g>
				<polygon class="st0" points="262.3,121.5 258.1,132.2 261.6,133.4 265.3,124.3 				"/>
				<path class="st1" d="M261.6,134.1c-0.1,0-0.1,0-0.2,0l-3.5-1.2c-0.2-0.1-0.3-0.2-0.4-0.4c-0.1-0.2-0.1-0.4,0-0.5l4.2-10.7
					c0.1-0.2,0.3-0.4,0.5-0.4c0.2,0,0.5,0,0.6,0.2l2.9,2.8c0.2,0.2,0.3,0.5,0.2,0.8l-3.7,9.1C262.1,133.9,261.8,134.1,261.6,134.1z
					 M259,131.8l2.2,0.7l3.3-8.1l-1.9-1.8L259,131.8z"/>
			</g>
			<g>
				<polygon class="st0" points="268.3,121.5 272.5,132.2 269,133.4 265.3,124.3 				"/>
				<path class="st1" d="M269,134.1c-0.3,0-0.5-0.2-0.6-0.4l-3.7-9.1c-0.1-0.3,0-0.6,0.2-0.8l2.9-2.8c0.2-0.2,0.4-0.2,0.6-0.2
					c0.2,0,0.4,0.2,0.5,0.4l4.2,10.7c0.1,0.2,0.1,0.4,0,0.5c-0.1,0.2-0.2,0.3-0.4,0.4l-3.5,1.2C269.2,134.1,269.1,134.1,269,134.1z
					 M266.1,124.5l3.3,8.1l2.2-0.7l-3.6-9.1L266.1,124.5z"/>
			</g>
			<g>
				<ellipse class="st0" cx="265.3" cy="121.5" rx="2.9" ry="2.8"/>
				<path class="st1" d="M265.3,125c-2,0-3.6-1.6-3.6-3.5s1.6-3.5,3.6-3.5c2,0,3.6,1.6,3.6,3.5S267.3,125,265.3,125z M265.3,119.4
					c-1.2,0-2.3,0.9-2.3,2.1c0,1.2,1,2.1,2.3,2.1c1.2,0,2.3-0.9,2.3-2.1C267.5,120.3,266.5,119.4,265.3,119.4z"/>
			</g>
			<g>
				<path class="st0" d="M239.9,97.4c0,0-15.9,4.7-12.3,18.4c0.3,1,0.9,1.9,2,2.2l11.6,2.6c2,0.4,3.7-1.3,3.1-3.2
					c-1.8-5.6-5.8-14.4,2-14.6"/>
				<path class="st1" d="M241.8,121.6c-0.3,0-0.5,0-0.8-0.1l-11.6-2.6c-1.3-0.3-2.3-1.3-2.7-2.8c-3.8-14.4,12.7-19.4,12.9-19.5
					c0.5-0.1,1,0.1,1.1,0.6c0.1,0.5-0.1,1-0.6,1.1c-0.6,0.2-15,4.6-11.6,17.2c0.1,0.5,0.5,1.3,1.3,1.5l11.6,2.6
					c0.6,0.1,1.3,0,1.7-0.5c0.4-0.4,0.5-1,0.3-1.5c-0.2-0.6-0.4-1.3-0.7-2c-1.4-4.2-3-9-1.1-11.8c0.9-1.3,2.5-2,4.6-2
					c0.5,0,0.9,0.4,0.9,0.9c0,0.5-0.4,0.9-0.9,0.9c-1.6,0-2.6,0.4-3.1,1.2c-1.4,2,0.1,6.5,1.3,10.1c0.2,0.7,0.5,1.4,0.7,2.1
					c0.4,1.2,0.1,2.4-0.7,3.3C243.8,121.2,242.8,121.6,241.8,121.6z"/>
			</g>
			<g>
				<path class="st0" d="M231.4,119.3c-0.1,2.5,1.1,5.1,3.1,6.7c1.2,0.9,2.7,1.6,4.2,1.4s3-1.3,3.1-2.8c0.1-1.3-0.8-2.5-0.7-3.8"/>
				<g>
					<path class="st1" d="M230.4,119.3c-0.1,3.1,1.5,6.1,4,7.8c1.4,0.9,3,1.4,4.7,1.1c1.4-0.2,2.8-1.2,3.3-2.5
						c0.3-0.8,0.3-1.7,0.1-2.6c-0.2-0.8-0.6-1.5-0.5-2.3c0-0.5-0.4-0.9-0.9-0.9c-0.5,0-0.9,0.4-0.9,0.9c0,0.7,0.1,1.4,0.3,2.1
						c0.2,0.6,0.4,1.2,0.4,1.8c0-0.2,0,0.2-0.1,0.2c0,0.1,0,0.1-0.1,0.2c0-0.1,0,0,0,0c-0.1,0.1-0.1,0.2-0.2,0.3
						c0,0.1-0.1,0.1-0.2,0.3c-0.3,0.4-0.8,0.6-1.2,0.7c-0.5,0.1-1.1,0.2-1.7,0c-0.6-0.1-1.2-0.4-1.7-0.7c-1.1-0.6-1.9-1.6-2.5-2.6
						c-0.7-1.2-1-2.4-0.9-3.8c0-0.5-0.4-0.9-0.9-0.9C230.8,118.3,230.5,118.8,230.4,119.3L230.4,119.3z"/>
				</g>
			</g>
			<g>
				<path class="st1" d="M244.3,91.8c-1.4,0.5-2.5,1.6-3.4,2.7c-0.5,0.6-0.9,1.2-1.4,1.7c-0.4,0.5-0.8,1-1,1.6
					c-0.4,1.4,0.4,2.9,1.7,3.4c1.3,0.6,2.6,0.3,3.9-0.1c1.2-0.4,2.5-0.9,3.8-1c1.3-0.1,2,1.2,2.9,2c2.4,2,5.8,0.5,8-1.1
					c1.1-0.8,2.3-1.7,3.6-1.9c1.2-0.2,2.4,0.5,3.5,0.9c1.3,0.6,2.6,1.3,4,1.5c1.6,0.3,2.9-0.4,4.3-1.1c0.7-0.4,1.4-0.7,2.2-1
					c0.8-0.3,1.7-0.6,2.5-0.4c0.7,0.1,1.3,0.5,1.9,0.8c0.4,0.2,0.7,0.3,1.1,0.4c0.2,0,0.4,0.1,0.6,0c0,0,0.6-0.1,0.4-0.1
					c1.4-0.1,2.8-0.1,4.1-0.7c1-0.4,1.9-1.2,2.3-2.2c0.4-1.1,0.3-2.4-0.5-3.2c-0.9-0.9-2.1-1.5-3.2-2.1c-0.9-0.5-1.9-1-2.9-1.5
					c-0.1,0.6-0.1,1.1-0.2,1.7c1.2-0.4,2.3-1.1,3.2-1.9c2.5-1.9,4.3-4.5,5.8-7.3c1.3-2.5,2.2-5.2,3-7.9c0.3-1.2-1.5-1.7-1.8-0.5
					c-1,4-2.6,8-5.2,11.3c-1.3,1.7-2.8,3.1-4.7,4.1c-0.1,0.1-0.3,0.1-0.4,0.2c-0.1,0.1-0.4,0.2-0.1,0.1c-0.1,0-0.2,0.1-0.3,0.1
					c-0.7,0.2-1,1.3-0.2,1.7c1.7,0.9,3.5,1.8,5.1,2.9c0.3,0.2,0.5,0.4,0.8,0.6c0.1,0.1-0.1-0.2,0,0c0.1,0.1,0-0.3,0,0.1
					c0,0.2,0,0.5,0,0.7c-0.1,0.6-0.5,1-1.2,1.4c-1.1,0.5-2.2,0.5-3.5,0.6c-0.3,0-0.6,0.1-0.9,0c-0.7-0.2-1.3-0.6-1.9-0.8
					c-1.4-0.6-3-0.3-4.4,0.3c-0.7,0.3-1.5,0.6-2.2,0.9c-0.7,0.4-1.3,0.8-2.1,1c-1.1,0.3-2.2-0.2-3.2-0.6c-2.3-1-4.6-2.4-7.2-1.5
					c-2.6,0.9-4.3,3.4-7.2,3.6c-0.5,0-1,0.1-1.5-0.2c-0.5-0.2-0.8-0.7-1.2-1c-0.9-1-2-1.7-3.4-1.7c-1.4,0.1-2.7,0.6-4,1
					c-1,0.3-2.7,1-3.5,0c-0.7-0.9,0.6-2,1.1-2.6c0.8-1.1,1.9-2.5,3.2-3C246,93.3,245.5,91.5,244.3,91.8L244.3,91.8z"/>
			</g>
			<path class="st6" d="M252.2,143.4"/>
			<path class="st6" d="M256.1,144.5"/>
			<path class="st6" d="M253.2,145"/>
			<path class="st6" d="M277.9,143.7"/>
			<path class="st1" d="M283.9,141.2c-0.1,0-0.2,0-0.3-0.1l-2.3-1.8c-0.2-0.2-0.2-0.5-0.1-0.7c0.2-0.2,0.5-0.2,0.7-0.1l2.3,1.8
				c0.2,0.2,0.2,0.5,0.1,0.7C284.2,141.2,284,141.2,283.9,141.2z"/>
		</g>
		<g>
			<g>
				<path class="st0" d="M294.3,63.3l-0.2,10.1c0,0.8-0.5,1.6-1.2,1.7l0,0c-0.7,0.1-1.4-0.5-1.6-1.4l-1.6-11.5
					c-0.2-1.5,1.1-2.5,2.2-1.7l1.8,1.5C294.1,62.2,294.4,62.7,294.3,63.3z"/>
				<path class="st1" d="M292.7,75.7c-0.4,0-0.8-0.1-1.1-0.4c-0.5-0.4-0.8-1-0.9-1.6l-1.6-11.5c-0.1-1,0.3-2,1.1-2.5
					c0.7-0.4,1.5-0.3,2.1,0.2l1.8,1.5c0.6,0.5,0.9,1.2,0.9,2l0,0l-0.2,10.1c0,1.2-0.8,2.1-1.8,2.3C292.9,75.7,292.8,75.7,292.7,75.7
					z M291.2,60.7c-0.1,0-0.2,0-0.3,0.1c-0.3,0.2-0.5,0.6-0.5,1.2l1.6,11.5c0,0.3,0.2,0.6,0.4,0.7c0.1,0.1,0.3,0.1,0.4,0.1
					c0.4-0.1,0.7-0.5,0.7-1l0.2-10.1c0-0.4-0.1-0.7-0.4-0.9l-1.8-1.5C291.4,60.8,291.3,60.7,291.2,60.7z M294.3,63.3L294.3,63.3
					L294.3,63.3z"/>
			</g>
			<g>
				<path class="st0" d="M293.5,77.9l-3,6.3c-0.2,0.5-0.6,0.7-1,0.5l-2.4-1.3c-0.4-0.2-0.5-0.9-0.3-1.5l3.1-6.8
					c0.2-0.5,0.7-0.8,1.1-0.5l2.4,1.8C293.6,76.6,293.7,77.3,293.5,77.9z"/>
				<path class="st1" d="M289.7,85.5c-0.2,0-0.4,0-0.6-0.1l-2.4-1.3c-0.8-0.4-1-1.5-0.6-2.5l3.1-6.8c0.2-0.5,0.6-0.9,1.1-1
					c0.4-0.1,0.8,0,1.1,0.2l2.4,1.8c0.7,0.5,0.8,1.5,0.4,2.4l0,0l-3,6.3c-0.2,0.5-0.6,0.8-1,0.9C289.9,85.5,289.8,85.5,289.7,85.5z
					 M289.8,84L289.8,84C289.8,84,289.8,84,289.8,84z M290.5,75.3c0,0-0.1,0.1-0.1,0.1l-3.1,6.8c-0.1,0.3-0.1,0.5,0,0.6l2.3,1.2
					c0,0,0.1-0.1,0.1-0.1l3-6.3c0.1-0.3,0.1-0.5,0-0.6L290.5,75.3z M293.5,77.9L293.5,77.9L293.5,77.9z"/>
			</g>
			<g>
				<path class="st0" d="M293.6,78.4l3.1,3.9c0.5,0.6,1.2,0.7,1.8,0.2l1.4-1.1c0.7-0.6,0.8-1.7,0.3-2.5l-3.5-5.2
					c-0.7-1-1.9-0.8-2.4,0.4l-0.9,2.4C293.1,77.1,293.2,77.9,293.6,78.4z"/>
				<path class="st1" d="M297.7,83.5c-0.1,0-0.1,0-0.2,0c-0.5-0.1-1-0.3-1.3-0.8l-3.1-3.9c-0.5-0.7-0.7-1.7-0.3-2.6l0.9-2.4
					c0.3-0.8,0.9-1.3,1.7-1.4c0.7-0.1,1.4,0.3,1.8,0.9l3.5,5.2c0.7,1.1,0.5,2.6-0.4,3.4l-1.4,1.1C298.5,83.4,298.1,83.5,297.7,83.5z
					 M295.6,73.8C295.5,73.8,295.5,73.8,295.6,73.8c-0.3,0-0.5,0.2-0.7,0.6l-0.9,2.4c-0.2,0.4-0.1,0.9,0.2,1.3l0,0l3.1,3.9
					c0.1,0.2,0.3,0.3,0.4,0.3c0.1,0,0.3,0,0.4-0.1l1.4-1.1c0.4-0.3,0.5-1.1,0.2-1.6l-3.5-5.2C295.9,73.9,295.8,73.8,295.6,73.8z"/>
			</g>
			<g>
				<path class="st0" d="M290.9,71.1l-0.8,4.7c-0.2,1-1.1,1.7-1.9,1.4l-1.3-0.5c-0.8-0.3-1.1-1.3-0.8-2.2l2.2-5.8
					c0.7-1.8,2.8-1.3,2.7,0.6l-0.1,1.5C290.9,71,290.9,71.1,290.9,71.1z"/>
				<path class="st1" d="M288.6,78.1c-0.2,0-0.4,0-0.6-0.1l-1.3-0.5c-0.5-0.2-0.9-0.6-1.1-1.1c-0.3-0.6-0.3-1.3,0-2l2.2-5.8
					c0.4-1.1,1.4-1.7,2.4-1.5c0.8,0.2,1.7,1,1.6,2.4l-0.1,1.5c0,0.1,0,0.2,0,0.3l-0.8,4.7c-0.1,0.8-0.6,1.4-1.2,1.8
					C289.2,78,288.9,78.1,288.6,78.1z M289.7,68.4c-0.3,0-0.6,0.2-0.8,0.7l-2.2,5.8c-0.1,0.3-0.1,0.7,0,1c0.1,0.1,0.2,0.3,0.4,0.4
					l1.3,0.5c0.2,0.1,0.4,0,0.5-0.1c0.3-0.2,0.5-0.5,0.5-0.9l0.8-4.7c0,0,0,0,0,0c0,0,0-0.1,0-0.1l0.1-1.5c0-0.5-0.2-0.9-0.5-1
					C289.8,68.4,289.7,68.4,289.7,68.4z"/>
			</g>
			<g>
				<path class="st0" d="M296.3,77.4l0,6.8c0,0.9-0.5,1.6-1.3,1.7l-1.6,0.2c-0.8,0.1-1.5-0.7-1.6-1.6l-0.3-11c0-0.6,0.2-1.2,0.7-1.5
					l0.6-0.4c0.8-0.6,1.8-0.1,2.1,0.9l1.3,4.5C296.3,77,296.3,77.2,296.3,77.4z"/>
				<path class="st1" d="M293.3,86.7c-0.4,0-0.9-0.2-1.2-0.5c-0.5-0.4-0.8-1.1-0.8-1.8l-0.3-11c0-0.8,0.3-1.6,0.9-2.1l0.6-0.4
					c0.5-0.4,1.1-0.5,1.7-0.3c0.6,0.2,1.2,0.8,1.4,1.5l1.3,4.5c0.1,0.2,0.1,0.5,0.1,0.8c0,0,0,0,0,0l0,6.8c0,1.2-0.8,2.2-1.8,2.3
					l-1.6,0.2C293.4,86.7,293.3,86.7,293.3,86.7z M293.6,71.8c-0.1,0-0.2,0-0.3,0.1l-0.6,0.4c-0.3,0.2-0.4,0.6-0.4,1l0.3,11
					c0,0.3,0.1,0.7,0.4,0.9c0.1,0.1,0.2,0.2,0.4,0.1l1.6-0.2c0.4,0,0.7-0.5,0.7-1l0-6.8c0-0.1,0-0.3-0.1-0.4l-1.3-4.5
					c-0.1-0.3-0.3-0.6-0.5-0.6C293.7,71.8,293.6,71.8,293.6,71.8z M296.3,77.4L296.3,77.4L296.3,77.4z"/>
			</g>
			<g>
				<path class="st0" d="M296.1,66.1l2.6,5.5c0.4,0.8,0.2,1.7-0.4,2.2l-0.8,0.7c-0.7,0.6-1.7,0.3-2.1-0.7l-1.7-4.5
					c-0.1-0.2-0.1-0.4-0.1-0.7l-0.1-1.7C293.4,65.2,295.3,64.6,296.1,66.1z"/>
				<path class="st1" d="M296.6,75.6c-0.1,0-0.3,0-0.4-0.1c-0.7-0.2-1.2-0.7-1.5-1.4l-1.7-4.5c-0.1-0.3-0.2-0.6-0.2-0.9l-0.1-1.7
					c0-1.2,0.6-2.2,1.6-2.4c0.9-0.2,1.8,0.2,2.2,1.2l2.6,5.5c0.5,1,0.3,2.3-0.5,3l-0.8,0.7C297.6,75.4,297.1,75.6,296.6,75.6z
					 M294.9,65.9c0,0-0.1,0-0.1,0c-0.3,0.1-0.6,0.4-0.6,1.1l0.1,1.7c0,0.2,0,0.3,0.1,0.4l1.7,4.5c0.1,0.3,0.3,0.5,0.5,0.5
					c0.2,0,0.4,0,0.5-0.2l0.8-0.7c0.4-0.3,0.5-1,0.2-1.5l-2.6-5.5v0C295.3,66.1,295.1,65.9,294.9,65.9z"/>
			</g>
		</g>
		<g>
			<path class="st0" d="M296.9,119.6c0.1,2.5-1.1,5.1-3.1,6.7c-1.2,0.9-2.7,1.6-4.2,1.4c-1.5-0.2-3-1.3-3.1-2.8
				c-0.1-1.3,0.8-2.5,0.7-3.8"/>
			<g>
				<path class="st1" d="M296,119.6c0.1,2.3-1,4.7-3,6.1c-0.5,0.4-1.1,0.7-1.7,0.9c-0.3,0.1-0.6,0.2-0.8,0.2c-0.2,0-0.3,0-0.5,0
					c-0.1,0-0.2,0-0.2,0c0,0-0.3,0-0.2,0c-0.6-0.1-1-0.3-1.4-0.6c0.1,0.1-0.1-0.1-0.1-0.1c0,0-0.1-0.1-0.1-0.1c0,0-0.1-0.1-0.1-0.1
					c0,0-0.1-0.2-0.1-0.1c-0.2-0.2-0.3-0.4-0.3-0.6c0-0.1,0-0.1,0-0.2c0-0.2,0,0,0-0.1c0-0.2,0-0.4,0-0.5c0-0.3,0.2-0.7,0.3-1
					c0.2-0.8,0.5-1.5,0.4-2.3c0-0.5-0.4-0.9-0.9-0.9c-0.5,0-1,0.4-0.9,0.9c0,0.4,0,0.6-0.1,1c-0.1,0.4-0.2,0.7-0.3,1.1
					c-0.2,0.8-0.4,1.6-0.2,2.4c0.3,1.4,1.6,2.5,3,2.9c3.1,0.9,6.4-1.4,7.9-4c0.9-1.5,1.3-3.2,1.2-4.9c0-0.5-0.4-0.9-0.9-0.9
					C296.4,118.7,296,119.1,296,119.6L296,119.6z"/>
			</g>
		</g>
	</g>
	<g>
		<path class="st1" d="M29.8,116.6v-2c1.6,0,2.9-1.3,2.9-2.9c0-1.6-1.3-2.9-2.9-2.9c-2.9,0-2.9,0.9-2.9,2.9h-2c0-2.1,0-4.9,4.9-4.9
			c2.7,0,4.9,2.2,4.9,4.9S32.6,116.6,29.8,116.6z"/>
		<path class="st1" d="M59.7,116c-2.7,0-4.9-2.2-4.9-4.9c0-2.7,2.2-4.9,4.9-4.9c4.9,0,4.9,2.8,4.9,4.9h-2c0-2,0-2.9-2.9-2.9
			c-1.6,0-2.9,1.3-2.9,2.9c0,1.6,1.3,2.9,2.9,2.9V116z"/>
		<g>
			<g>
				<path class="st0" d="M45.5,41.6c0,0-13,21.4-28.4,18.3c-1.3-0.3-2.9-0.2-4,0.6c-2.6,1.8-2,10.7,2.7,13.2c0,0,0.5,14,9.6,17.4
					l-4.8,3.4c0,0,5.8,2.5,2.8,10.6c0,0,17.7,9.5,3,31.1c0,0-6.3-6.7-11.9-7.3c0,0-11.9-4.8-5-19.3c0,0-4.8-8.7-2-13.7
					c0,0-8-9.5-1.9-21c0,0-7.6-19.6,7-38.1c0,0,15.1-21.8,32.8-12.3c0,0,19.9-11.2,35.1,15.7c0,0,10.8,19.6,3.8,39.2
					c0,0,9.3,6.7-1.8,19.9c0,0,5.3,7.6-0.8,13.2c0,0,4,12.3-6.3,16.5c0,0-10.3,1.1-10.6,8.1c0,0-16.1-17.4-0.2-30.2
					c0,0-2.2-9.2,3.8-12.2l-9.1-3.3c0,0,13-4.4,12-16.2c0,0,7.3-6.2,2.6-13.5c-1.2-1.8-3.7-1.8-5.6-1.8
					C63.7,59.7,53.2,51.9,45.5,41.6z"/>
				<path class="st1" d="M65.6,139.4l-1.6-1.8c-0.3-0.4-8.2-8.9-7.4-18.7c0.3-4.8,2.7-9,6.9-12.6c-0.4-2-1.1-8.2,2.8-11.6l-10-3.6
					l2.7-0.9c0.5-0.2,12.3-4.3,11.3-15.1l0-0.5l0.4-0.3C70.9,74,77.2,68.5,73,62c-0.9-1.4-3-1.4-4.8-1.4c-5.1,0-15.2-7.8-22.7-17.3
					c-3.1,4.6-14.8,20.4-28.7,17.5c-1.2-0.3-2.5-0.1-3.2,0.4c-0.6,0.4-1.2,2-1.1,4.4c0.2,2.5,1.2,5.8,3.7,7.2l0.5,0.3l0,0.6
					c0,0.1,0.6,13.4,8.9,16.5l1.8,0.7l-5.1,3.6c1.7,1.4,4.1,4.5,2.2,10.2c1.8,1.2,6.5,4.8,8.1,11.3c1.5,6.2-0.3,13.2-5.5,20.8
					l-0.7,1l-0.8-0.9c-0.1-0.1-6.1-6.5-11.2-7l-0.1,0l-0.1-0.1c-0.2-0.1-4.9-2-6.9-7.1c-1.5-3.7-1.1-8.2,1.1-13.1
					c-0.9-1.8-4.2-8.8-2.1-13.6c-1.6-2.2-7-11-1.9-21.2c-1-3-6.3-21.4,7.3-38.6c0.7-0.9,15.9-21.9,33.6-12.8c1.5-0.7,6-2.6,11.9-2.1
					c6.5,0.5,16,4.2,24,18.4C81.7,40.4,92,59.4,85.3,79c1,0.9,3,3.2,3.4,6.7c0.5,4.2-1.2,8.7-5.1,13.5c1.2,2,4.1,8.3-0.9,13.4
					c0.7,2.6,2.6,13.2-7,17.1l-0.1,0.1l-0.1,0c-0.1,0-9.5,1.1-9.7,7.2L65.6,139.4z M61.9,91.1l9,3.2l-2,1c-5.3,2.7-3.3,11-3.3,11.1
					l0.1,0.6l-0.5,0.4c-4.1,3.3-6.3,7.2-6.6,11.6c-0.5,6.6,3.5,12.8,5.6,15.6c1.9-5.5,9.7-6.7,10.9-6.8c9.2-3.9,5.8-14.8,5.6-15.2
					l-0.2-0.6l0.5-0.4c5.3-4.9,0.8-11.6,0.6-11.9l-0.4-0.6l0.5-0.6c3.9-4.6,5.6-8.8,5.1-12.6c-0.5-3.9-3.2-5.8-3.2-5.9L83,79.6
					l0.3-0.7c6.8-19-3.6-38.2-3.7-38.4c-6.1-10.8-13.6-16.6-22.3-17.4c-6.5-0.6-11.3,2.1-11.4,2.1l-0.5,0.3l-0.5-0.3
					c-16.7-9-31.4,11.8-31.5,12l0,0.1C-0.8,55.1,6.4,74.3,6.5,74.5l0.2,0.4l-0.2,0.4C0.8,86,7.9,94.8,8.2,95.2l0.4,0.5l-0.3,0.6
					c-2.5,4.5,2,12.7,2,12.8l0.2,0.4l-0.2,0.5c-2.2,4.6-2.6,8.6-1.3,12c1.5,3.9,5,5.7,5.7,6c4.6,0.6,9.5,4.8,11.4,6.7
					c4.3-6.7,5.8-12.8,4.5-18.2c-1.7-7-7.8-10.4-7.9-10.4l-0.8-0.4l0.3-0.8c2.6-7.1-2-9.3-2.2-9.4l-1.6-0.7l4.8-3.4
					c-7.1-4-8.3-14.4-8.5-17c-2.9-1.8-4.1-5.6-4.3-8.5c-0.2-2.8,0.5-5.1,1.9-6.1c1.2-0.8,2.9-1.1,4.7-0.7
					c14.5,3,27.2-17.6,27.3-17.8l0.8-1.3l0.9,1.2c7.6,10.1,17.9,17.7,22,17.7c2.1,0,5,0,6.4,2.3c4.4,6.9-0.9,12.9-2.4,14.4
					C72.8,84.3,65.7,89.1,61.9,91.1z"/>
			</g>
			<g id="XMLID_10_">
				<g>
					<g>
						<path class="st0" d="M24.9,91.8c0.2,1.3,0.1,2.7-0.2,4c-0.1,0.3-0.1,0.6-0.3,0.8c-0.2,0.3-0.6,0.3-1,0.4
							c-2,0.2-4.1-0.2-5.9-1.2l-0.8-0.1c0.1-0.8-0.1-1.7-0.5-2.4l0.1-0.1c0.7-1.3,1.5-2.7,2.6-3.6c1.1-0.9,2.6-1.4,3.9-0.8
							C23.9,89.2,24.6,90.5,24.9,91.8z"/>
						<path class="st1" d="M22.3,98c-1.8,0-3.6-0.5-5.2-1.3l-1.6-0.3l0.1-0.9c0.1-0.6-0.1-1.3-0.4-1.8l-0.4-0.7l0.7-0.5
							c0.7-1.3,1.5-2.6,2.7-3.7c1.5-1.3,3.4-1.7,4.9-1c1.3,0.6,2.3,2,2.6,3.8c0.2,1.2,0.2,2.6-0.2,4.4c-0.1,0.3-0.2,0.8-0.6,1.2
							c-0.5,0.6-1.2,0.6-1.5,0.7C23.1,97.9,22.7,98,22.3,98z M17.5,94.8l0.2,0l0.1,0.1c1.6,0.9,3.5,1.3,5.4,1.1
							c0.3,0,0.3-0.1,0.4-0.1c0-0.1,0.1-0.3,0.1-0.4c0.3-1.5,0.4-2.6,0.2-3.6v0c-0.2-1.1-0.8-2.1-1.6-2.4c-1-0.5-2.2,0.1-2.9,0.7
							c-0.9,0.8-1.6,2-2.3,3.1C17.4,93.8,17.5,94.3,17.5,94.8z"/>
					</g>
					<g>
						<path class="st0" d="M16.1,93.2c0.4,0.7,0.6,1.6,0.5,2.4c0,0.3-0.1,0.6-0.2,0.9c-0.5,1.2-1.8,1.9-3,1.9c-1.2,0-3.1,0-3.9-1
							l-0.4-0.7c0.1-0.7,0.1-1.5,0-2.2v-0.6c0-0.2,0-0.3,0.1-0.5c0.3-1.1,1.5-1.9,2.6-2c1.3-0.2,2.8,0.1,3.7,1.2
							C15.8,92.7,16,92.9,16.1,93.2z"/>
						<path class="st1" d="M13.4,99.4C13.4,99.4,13.4,99.4,13.4,99.4c-1.5,0-3.6-0.1-4.7-1.3l-0.1-0.2l-0.5-1l0-0.3
							c0.1-0.6,0.1-1.3,0-2.1l0-0.7l0,0c0-0.2,0.1-0.5,0.1-0.7c0.4-1.4,1.7-2.4,3.4-2.7c1.7-0.3,3.4,0.3,4.6,1.4
							c0.3,0.3,0.5,0.6,0.7,0.9c0.5,0.9,0.7,2,0.6,2.9c0,0.4-0.2,0.8-0.3,1.2C16.6,98.4,15.1,99.4,13.4,99.4z M10.2,96.9
							c0.6,0.6,2.2,0.6,3.1,0.6c0,0,0,0,0,0c0.9,0,1.8-0.5,2.1-1.3c0.1-0.2,0.2-0.4,0.2-0.7c0.1-0.6-0.1-1.3-0.4-1.8l0,0
							c-0.1-0.2-0.2-0.4-0.4-0.5c-0.7-0.7-1.8-1.1-2.9-0.9c-0.7,0.1-1.6,0.6-1.9,1.4c0,0.1,0,0.2-0.1,0.3v0.6c0,0.7,0,1.4,0,2
							L10.2,96.9z"/>
					</g>
					<g>
						<path class="st0" d="M8.8,93.1l0.4,0.2c0,0.2-0.1,0.3-0.1,0.5v0.6c0,0.7,0.1,1.5,0,2.2C9,97.4,8.9,98,8.7,98.6
							c-0.4,1.3-1.3,2.5-2.4,3c-0.9,0.4-1.9,0.3-2.9,0.3c-0.3,0-0.6,0-0.9-0.2s-0.4-0.5-0.6-0.8c-1.1-2.5-1.3-5.5-0.6-8.2
							c0.1-0.3,0.2-0.6,0.4-0.8c0.2-0.2,0.5-0.4,0.8-0.5C4.8,90.6,7.2,91.4,8.8,93.1z"/>
						<path class="st1" d="M4.4,102.8c-0.3,0-0.7,0-1,0c-0.4,0-0.9-0.1-1.4-0.4c-0.4-0.3-0.7-0.8-0.9-1.2c-1.2-2.7-1.4-5.9-0.6-8.8
							c0.1-0.4,0.3-0.8,0.6-1.2c0.4-0.5,0.9-0.6,1.3-0.7c2.5-0.7,5.2,0.1,7,2l1,0.5l-0.2,0.8c0,0.1,0,0.2-0.1,0.3v0.6
							c0,0.9,0,1.6,0,2.3c-0.1,0.7-0.2,1.4-0.4,2.1c-0.6,1.7-1.6,3-3,3.5C5.9,102.7,5.1,102.8,4.4,102.8z M4.2,92
							c-0.4,0-0.9,0.1-1.3,0.2c-0.2,0.1-0.3,0.1-0.4,0.2c-0.1,0.1-0.1,0.3-0.2,0.5c-0.7,2.5-0.5,5.2,0.5,7.6
							c0.1,0.3,0.2,0.4,0.3,0.4c0.1,0,0.3,0,0.4,0.1c0.9,0,1.7,0.1,2.4-0.2c0.8-0.4,1.5-1.2,1.9-2.4c0.2-0.5,0.3-1.1,0.3-1.7
							c0.1-0.6,0.1-1.3,0-2.1l0-0.7l-0.1-0.1C7.1,92.6,5.6,92,4.2,92z"/>
					</g>
				</g>
			</g>
			<g id="XMLID_9_">
				<g>
					<g>
						<path class="st0" d="M88.7,95c-0.1,1.3-0.7,2.6-1.4,3.7c-0.1,0.3-0.3,0.5-0.6,0.7c-0.3,0.2-0.7,0.1-1,0
							c-2-0.5-3.8-1.7-5.3-3.3l-0.8-0.4c0.3-0.7,0.4-1.6,0.2-2.4l0.2,0c1.1-1,2.2-2,3.5-2.5c1.3-0.5,2.9-0.4,4,0.6
							C88.5,92.2,88.8,93.7,88.7,95z"/>
						<path class="st1" d="M86.3,100.4c-0.3,0-0.6-0.1-0.8-0.1c-2.1-0.5-4.1-1.8-5.6-3.4l-1.4-0.8l0.3-0.8c0.2-0.5,0.3-1.2,0.2-1.9
							l-0.2-0.9l0.8-0.2c1-0.9,2.2-2,3.6-2.5c1.8-0.7,3.7-0.4,5,0.8c1,1,1.6,2.7,1.4,4.5c-0.1,1.3-0.6,2.6-1.5,4.1
							c-0.2,0.3-0.4,0.7-0.9,1C86.9,100.3,86.6,100.4,86.3,100.4z M80.8,95.2l0.2,0.1l0.1,0.1c1.3,1.5,3,2.5,4.8,3
							c0.2,0.1,0.3,0.1,0.4,0.1c0,0,0.1-0.2,0.2-0.3c0.7-1.3,1.1-2.3,1.2-3.3v0c0.1-1.2-0.2-2.3-0.8-2.9c-0.8-0.8-2.1-0.7-3-0.4
							c-1.1,0.4-2.1,1.3-3,2.1C81,94.2,80.9,94.7,80.8,95.2z"/>
					</g>
					<g>
						<path class="st0" d="M79.9,93.2c0.2,0.8,0.1,1.7-0.2,2.4c-0.1,0.3-0.3,0.6-0.5,0.8c-0.8,1-2.2,1.2-3.4,0.7
							c-0.5-0.2-1.1-0.4-1.7-0.7c-0.9-0.5-1.6-1.4-1.9-2.4l0,0c0.3-0.7,0.5-1.4,0.6-2.1l0.2-0.6c0.1-0.2,0.1-0.3,0.2-0.4
							c0.7-0.9,2-1.2,3.1-1c1.3,0.3,2.6,1.1,3.2,2.4C79.8,92.6,79.9,92.9,79.9,93.2z"/>
						<path class="st1" d="M77,98.4c-0.5,0-1-0.1-1.5-0.3L75.3,98c-0.5-0.2-1.1-0.4-1.6-0.7c-1.2-0.6-2-1.7-2.3-3L71.3,94l0.1-0.3
							c0.2-0.5,0.4-1.2,0.6-2l0.2-0.7c0.1-0.2,0.2-0.4,0.3-0.6c0.8-1.2,2.4-1.7,4-1.4c1.7,0.3,3.1,1.4,3.9,2.9
							c0.2,0.4,0.3,0.7,0.4,1.1c0.2,1,0.1,2.1-0.3,3c-0.2,0.4-0.4,0.7-0.7,1C79.2,97.9,78.1,98.4,77,98.4z M73.3,94.1
							c0.2,0.7,0.7,1.2,1.3,1.6c0.5,0.2,1,0.5,1.4,0.6l0.1,0.1c0.8,0.3,1.8,0.1,2.3-0.5c0.1-0.2,0.3-0.3,0.3-0.6
							c0.2-0.5,0.3-1.2,0.2-1.9l0,0c0-0.2-0.1-0.5-0.2-0.7c-0.5-1-1.4-1.7-2.6-1.9c-0.7-0.1-1.7,0-2.1,0.6c0,0.1-0.1,0.1-0.1,0.2
							l-0.2,0.6C73.6,92.9,73.5,93.6,73.3,94.1z"/>
					</g>
					<g>
						<path class="st0" d="M73,90.6l0.3,0.3c-0.1,0.1-0.2,0.3-0.2,0.4L72.9,92c-0.2,0.7-0.4,1.4-0.6,2.1c-0.2,0.6-0.5,1.1-0.9,1.6
							c-0.8,1.1-1.9,1.9-3.2,1.9c-1,0-1.9-0.4-2.8-0.7c-0.3-0.1-0.6-0.3-0.8-0.5c-0.2-0.3-0.3-0.6-0.3-1c-0.3-2.8,0.3-5.7,1.8-8
							c0.2-0.3,0.4-0.5,0.6-0.7c0.3-0.2,0.6-0.2,0.9-0.1C69.9,86.8,72,88.3,73,90.6z"/>
						<path class="st1" d="M68.1,98.6c-1.1,0-2.1-0.4-3-0.8c-0.4-0.2-0.8-0.4-1.2-0.8c-0.3-0.4-0.4-0.9-0.5-1.4
							c-0.4-3,0.4-6.1,2-8.6c0.2-0.3,0.5-0.7,0.9-1c0.5-0.3,1.1-0.3,1.5-0.3c2.5,0.2,4.9,1.9,6,4.4l0.8,0.8l-0.4,0.6
							c-0.1,0.1-0.1,0.2-0.1,0.2l-0.2,0.6c-0.2,0.8-0.4,1.5-0.7,2.2c-0.3,0.7-0.6,1.3-1,1.8c-1,1.4-2.4,2.3-3.9,2.3
							C68.2,98.6,68.2,98.6,68.1,98.6z M67.5,87.5c-0.1,0-0.2,0-0.2,0c-0.1,0-0.2,0.3-0.3,0.4c-1.4,2.1-2,4.8-1.7,7.3
							c0,0.3,0.1,0.5,0.1,0.5c0.1,0.1,0.3,0.2,0.4,0.2c0.8,0.3,1.6,0.7,2.4,0.7c0.9,0,1.8-0.6,2.4-1.5c0.3-0.4,0.6-0.9,0.8-1.4
							c0.2-0.5,0.4-1.2,0.6-2l0.2-0.7l-0.1-0.1c-0.8-1.9-2.7-3.3-4.5-3.4C67.6,87.5,67.5,87.5,67.5,87.5z"/>
					</g>
				</g>
			</g>
			<g>
				<path class="st1" d="M53.7,60.7c1.8-1.1,3.8-1.6,5.9-1.6c0.5,0,0.9-0.4,0.9-0.9c0-0.5-0.4-0.9-0.9-0.9c-2.4,0-4.8,0.7-6.8,1.9
					c-0.4,0.3-0.6,0.8-0.3,1.3C52.6,60.8,53.2,60.9,53.7,60.7L53.7,60.7z"/>
			</g>
			<g>
				<path class="st1" d="M36.5,59.7c-1.9-1-4-1.6-6.1-1.8c-0.5-0.1-1,0.5-0.9,0.9c0,0.6,0.4,0.9,0.9,0.9c0.1,0,0.1,0,0.2,0
					c0.1,0,0.1,0,0.1,0c0.1,0,0.2,0,0.3,0c0.2,0,0.5,0.1,0.7,0.1c0.5,0.1,0.9,0.2,1.4,0.4c0.5,0.1,0.9,0.3,1.3,0.5
					c0.2,0.1,0.3,0.1,0.5,0.2c0.2,0.1,0.4,0.2,0.6,0.3c0.4,0.2,1,0.1,1.3-0.3C37.1,60.6,37,59.9,36.5,59.7L36.5,59.7z"/>
			</g>
			<path class="st1" d="M57.1,73.1c-2.9,0-5.3-2.2-5.3-4.8s2.4-4.8,5.3-4.8c2.9,0,5.3,2.2,5.3,4.8S60,73.1,57.1,73.1z M57.1,64.2
				c-2.6,0-4.7,1.9-4.7,4.1s2.1,4.1,4.7,4.1c2.6,0,4.7-1.9,4.7-4.1S59.6,64.2,57.1,64.2z"/>
			<circle class="st4" cx="56" cy="68.3" r="3.6"/>
			<circle class="st0" cx="54.3" cy="66.5" r="2.1"/>
			<path class="st1" d="M51.8,69L51,68.8l0.1-0.4c0,0,0.9-4.9,6.3-5.2c0.2,0,4.1-0.2,6.7,4.1l0.2,0.4l-0.7,0.5l-0.2-0.4
				c-2.3-3.8-5.7-3.7-5.9-3.7c-4.7,0.3-5.5,4.3-5.5,4.5L51.8,69z"/>
			<g>
				<path class="st1" d="M46.8,76.6c-0.6-0.9-1.6-1.8-2.8-1.8c-1.1,0-2.2,0.9-2.2,2.1c0,0.3,0.3,0.6,0.6,0.6c0.3,0,0.6-0.3,0.6-0.6
					c0-0.1,0-0.1,0-0.2c0-0.1,0,0.1,0,0c0,0,0-0.1,0-0.1c0-0.1-0.1,0.1,0,0c0,0,0-0.1,0.1-0.1c0-0.1,0.1-0.1,0,0
					c0.1-0.1,0.1-0.1,0.2-0.2c0-0.1-0.1,0.1,0,0c0,0,0.1-0.1,0.1-0.1c0,0,0.1,0,0.1-0.1c0.1,0-0.1,0,0,0c0.1,0,0.2,0,0.3-0.1
					c0.1,0-0.1,0,0,0c0.1,0,0.1,0,0.2,0c0,0,0.2,0,0.1,0c-0.1,0,0.1,0,0.1,0c0.1,0,0.2,0.1,0.3,0.1c0.1,0-0.1,0,0,0
					c0.1,0,0.1,0.1,0.2,0.1c0.1,0,0.2,0.1,0.2,0.2c0,0,0.2,0.1,0.1,0c0,0,0.1,0.1,0.1,0.1c0.1,0.1,0.2,0.1,0.2,0.2
					c0.1,0.1,0.1,0.1,0.2,0.2c0.1,0.1-0.1-0.1,0,0.1c0,0,0.1,0.1,0.1,0.1c0.2,0.3,0.6,0.4,0.9,0.2C46.8,77.3,47,76.9,46.8,76.6
					L46.8,76.6z"/>
			</g>
			<g>
				<path class="st1" d="M35.5,80.8c1,1.5,2.6,2.4,4.2,3c1.8,0.7,3.8,1.1,5.8,1c3.4-0.3,6.6-2.1,8.1-5.3c0.3-0.7-0.7-1.4-1.1-0.6
					c-1.3,2.7-4,4.4-7,4.7c-1.7,0.1-3.3-0.1-4.9-0.7c-1.5-0.5-3.1-1.3-4-2.7C36.1,79.5,35.1,80.2,35.5,80.8L35.5,80.8z"/>
			</g>
			<g>
				<path class="st1" d="M24.2,76.2c0.1,0.4,0.2,0.7,0.4,1.1c0.1,0.2,0.1,0.3,0.3,0.4c0.1,0.1,0.3,0.1,0.5,0.1
					c0.2,0,0.3-0.1,0.4-0.3c0.1-0.1,0.1-0.3,0.1-0.5c-0.1-0.4-0.2-0.7-0.4-1.1c-0.1-0.2-0.1-0.3-0.3-0.4c-0.1-0.1-0.3-0.1-0.5-0.1
					c-0.2,0-0.3,0.1-0.4,0.3C24.2,75.8,24.1,76,24.2,76.2L24.2,76.2z"/>
			</g>
			<g>
				<path class="st1" d="M27.7,77.7c-0.1,0.1-0.1,0.2-0.2,0.4c0,0.1-0.1,0.1-0.1,0.2c0,0.1,0,0.2,0,0.3c0,0.1,0.1,0.2,0.1,0.2
					c0,0.1,0.1,0.1,0.2,0.2c0.1,0,0.1,0,0.2,0.1c0.1,0,0.2,0,0.3,0c0.1,0,0.1,0,0.2-0.1c0.1-0.1,0.2-0.1,0.2-0.2
					c0.1-0.1,0.1-0.2,0.2-0.4c0-0.1,0.1-0.1,0.1-0.2c0-0.1,0-0.2,0-0.3c0-0.1-0.1-0.2-0.1-0.2c0-0.1-0.1-0.1-0.2-0.2
					c-0.1,0-0.1,0-0.2-0.1c-0.1,0-0.2,0-0.3,0c-0.1,0-0.1,0-0.2,0.1C27.8,77.5,27.7,77.6,27.7,77.7L27.7,77.7z"/>
			</g>
			<g>
				<path class="st1" d="M22.7,81.2c0.8,0,0.8-1.3,0-1.3C21.9,79.9,21.9,81.2,22.7,81.2L22.7,81.2z"/>
			</g>
			<g>
				<path class="st1" d="M25.5,81c-0.1,0.1-0.1,0.2-0.2,0.4c0,0.1-0.1,0.1-0.1,0.2c0,0.1,0,0.2,0,0.3c0,0.1,0.1,0.2,0.1,0.2
					c0,0.1,0.1,0.1,0.2,0.2c0.1,0,0.1,0,0.2,0.1c0.1,0,0.2,0,0.3,0c0.1,0,0.1,0,0.2-0.1c0.1-0.1,0.2-0.1,0.2-0.2
					c0.1-0.1,0.1-0.2,0.2-0.4c0-0.1,0.1-0.1,0.1-0.2c0-0.1,0-0.2,0-0.3c0-0.1-0.1-0.2-0.1-0.2c0-0.1-0.1-0.1-0.2-0.2
					c-0.1,0-0.1,0-0.2-0.1c-0.1,0-0.2,0-0.3,0c-0.1,0-0.1,0-0.2,0.1C25.6,80.8,25.5,80.9,25.5,81L25.5,81z"/>
			</g>
			<g>
				<path class="st1" d="M28.6,82.7c0.8,0,0.8-1.3,0-1.3C27.8,81.4,27.8,82.7,28.6,82.7L28.6,82.7z"/>
			</g>
			<g>
				<path class="st1" d="M31.3,80.7c0.8,0,0.8-1.3,0-1.3C30.5,79.4,30.5,80.7,31.3,80.7L31.3,80.7z"/>
			</g>
			<g>
				<path class="st1" d="M26.4,84.9c0.8,0,0.8-1.3,0-1.3C25.6,83.6,25.6,84.9,26.4,84.9L26.4,84.9z"/>
			</g>
			<g>
				<path class="st1" d="M62.4,76.6c-0.1,0.1-0.1,0.2-0.2,0.4c0,0.1-0.1,0.1-0.1,0.2c0,0.1,0,0.2,0,0.3c0,0.1,0.1,0.2,0.1,0.2
					c0,0.1,0.1,0.1,0.2,0.2c0.1,0,0.1,0,0.2,0.1c0.1,0,0.2,0,0.3,0c0.1,0,0.1,0,0.2-0.1c0.1-0.1,0.2-0.1,0.2-0.2
					c0.1-0.1,0.1-0.2,0.2-0.4c0-0.1,0.1-0.1,0.1-0.2c0-0.1,0-0.2,0-0.3c0-0.1-0.1-0.2-0.1-0.2c0-0.1-0.1-0.1-0.2-0.2
					c-0.1,0-0.1,0-0.2-0.1c-0.1,0-0.2,0-0.3,0c-0.1,0-0.1,0-0.2,0.1C62.5,76.4,62.5,76.5,62.4,76.6L62.4,76.6z"/>
			</g>
			<g>
				<path class="st1" d="M60.7,80.3c0.8,0,0.8-1.3,0-1.3C59.9,79,59.9,80.3,60.7,80.3L60.7,80.3z"/>
			</g>
			<g>
				<path class="st1" d="M64.4,81.2c0.8,0,0.8-1.3,0-1.3C63.6,79.9,63.6,81.2,64.4,81.2L64.4,81.2z"/>
			</g>
			<g>
				<path class="st1" d="M64.7,76.4c-0.1,0.2-0.1,0.4-0.2,0.5c0,0.1,0,0.2,0,0.3c0,0.1,0,0.2,0.1,0.2c0,0.1,0.1,0.1,0.2,0.2
					c0.1,0.1,0.1,0.1,0.2,0.1c0.1,0,0.1,0,0.2,0c0.1,0,0.2,0,0.3-0.1c0,0,0.1-0.1,0.1-0.1c0.1-0.1,0.1-0.2,0.2-0.3
					c0.1-0.2,0.1-0.4,0.2-0.5c0-0.1,0-0.2,0-0.3c0-0.1,0-0.2-0.1-0.2c0-0.1-0.1-0.1-0.2-0.2C65.7,76,65.6,76,65.5,76
					c-0.1,0-0.1,0-0.2,0c-0.1,0-0.2,0-0.3,0.1c0,0-0.1,0.1-0.1,0.1C64.8,76.2,64.8,76.3,64.7,76.4L64.7,76.4z"/>
			</g>
			<g>
				<path class="st1" d="M61.5,81.3c0,0.1-0.1,0.1-0.1,0.1C61.4,81.4,61.4,81.4,61.5,81.3c-0.1,0.1-0.1,0.2-0.2,0.2
					c0,0,0.1-0.1,0.1-0.1c-0.1,0.1-0.2,0.1-0.3,0.1c0.1,0,0.1,0,0.2-0.1c-0.1,0-0.2,0.1-0.3,0.1c0.1,0,0.1,0,0.2,0c0,0-0.1,0-0.1,0
					c-0.2,0-0.3,0.1-0.4,0.2c-0.1,0.1-0.1,0.1-0.1,0.2c0,0.1-0.1,0.2-0.1,0.2c0,0.2,0.1,0.3,0.2,0.4c0.1,0.1,0.3,0.2,0.4,0.2
					c0.3,0,0.6-0.1,0.8-0.3c0.2-0.2,0.5-0.4,0.6-0.6c0.1-0.1,0.1-0.3,0.1-0.5c0-0.1-0.2-0.3-0.3-0.4C62.2,81,62,81,61.8,81.1
					C61.7,81.1,61.6,81.2,61.5,81.3L61.5,81.3z"/>
			</g>
			<g>
				<path class="st1" d="M58.7,78.1c0.8,0,0.8-1.3,0-1.3C57.9,76.8,57.9,78.1,58.7,78.1L58.7,78.1z"/>
			</g>
			<g>
				<path class="st1" d="M67.1,80.1c0.8,0,0.8-1.3,0-1.3C66.3,78.8,66.3,80.1,67.1,80.1L67.1,80.1z"/>
			</g>
			<g>
				<path class="st1" d="M43.4,94.8c-0.6,0.8-1.8,1.2-2.8,1.4c-1.2,0.3-2.4,0.3-3.6,0.5c-0.2,0-0.5,0.1-0.7,0.1c-0.3,0-0.5,0-0.6,0
					c-0.3,0-0.6-0.2-0.9-0.6c-0.5-0.5-0.9-1-1.3-1.6c-0.4-0.5-0.9-1.2-1-1.8c-0.1-0.7-0.5-1.2-1.2-1.2c-0.6,0-1.3,0.6-1.2,1.2
					c0.3,2,1.6,3.6,2.9,5c1.1,1.1,2.3,1.5,3.8,1.3c1.3-0.2,2.9-0.3,4.4-0.6c1.6-0.4,3.2-1.1,4.1-2.5c0.4-0.5,0.1-1.4-0.4-1.7
					C44.5,94,43.8,94.2,43.4,94.8L43.4,94.8z"/>
			</g>
			<g>
				<path class="st1" d="M43.6,95.7c1,1.4,2.5,2.1,4.1,2.5c1.5,0.3,3.1,0.5,4.4,0.6c1.5,0.2,2.8-0.2,3.8-1.3c1.3-1.4,2.7-3.1,2.9-5
					c0.1-0.7-0.6-1.2-1.2-1.2c-0.7,0-1.1,0.6-1.2,1.2c-0.1,0.7-0.6,1.3-1,1.8c-0.4,0.5-0.8,1.1-1.3,1.6c-0.2,0.2-0.3,0.3-0.4,0.4
					c-0.3,0.2-0.2,0.2-0.5,0.2c-0.1,0-0.2,0-0.5,0c-0.3,0-0.5,0-0.8-0.1c-1.2-0.2-2.3-0.2-3.5-0.5c-1-0.2-2.2-0.5-2.9-1.4
					c-0.4-0.5-1.1-0.8-1.7-0.4C43.5,94.4,43.2,95.2,43.6,95.7L43.6,95.7z"/>
			</g>
			<g>
				<path class="st1" d="M30.7,93.1c0.1,4.1,0.6,8.3,1.4,12.3c0.3,1.7,0.7,3.3,2.6,4c0.8,0.3,1.7,0.4,2.6,0.5c1,0.1,2,0.3,3.1,0.4
					c3.9,0.4,7.7,0.3,11.6,0.1c1.5-0.1,2.8-0.4,3.7-1.8c0.8-1.2,0.9-2.7,1.2-4.1c0.7-3.7,0.8-7.5,1.5-11.2c0.2-1.1-1.5-1.6-1.7-0.5
					c-0.6,3-0.8,6.1-1.2,9.1c-0.2,1.3-0.4,2.7-0.7,4c-0.3,1.2-0.7,2.4-2.1,2.6c-1.5,0.2-3,0.2-4.5,0.3c-1.9,0.1-3.7,0-5.6-0.1
					c-1.9-0.1-3.8-0.3-5.7-0.6c-0.7-0.1-1.4-0.2-2-0.5c-0.7-0.4-0.8-1.2-1-1.9c-0.9-4.2-1.3-8.4-1.5-12.7C32.4,92,30.7,92,30.7,93.1
					L30.7,93.1z"/>
			</g>
			<g>
				<path class="st1" d="M31.8,117.2c8.7,1.5,17.8,1.7,26.5,0c1.5-0.3,0.8-2.5-0.6-2.2c-8.2,1.6-17,1.5-25.3,0
					c-0.6-0.1-1.2,0.2-1.4,0.8C30.8,116.4,31.2,117.1,31.8,117.2L31.8,117.2z"/>
			</g>
			<g>
				<path class="st1" d="M31.8,121.8c4.2,0.8,8.4,1.4,12.6,1.4c4.5,0,8.9-0.5,13.3-1.2c0.6-0.1,1-0.9,0.8-1.4
					c-0.2-0.7-0.8-0.9-1.4-0.8c-4.2,0.7-8.5,1.2-12.7,1.1c-4,0-8-0.6-12-1.3C31,119.3,30.3,121.5,31.8,121.8L31.8,121.8z"/>
			</g>
			<g>
				<path class="st1" d="M5.6,119.3c-2.3,2.6-3.4,6.1-2.9,9.6c0.2,1.5,0.9,3.1,2.2,4c1.4,1,3.3,0.9,4.8,0.3c1.9-0.8,3.1-2.3,4.4-3.9
					c0.3-0.4,0.4-0.9,0-1.3c-0.3-0.3-1-0.4-1.3,0c-1,1.3-2.2,2.9-3.8,3.5c-1.6,0.6-3.2,0.2-3.9-1.3c-0.7-1.4-0.7-3.3-0.3-4.8
					c0.4-1.7,1.1-3.4,2.3-4.7C7.7,119.7,6.4,118.4,5.6,119.3L5.6,119.3z"/>
			</g>
			<g>
				<path class="st1" d="M82.5,120.6c1.2,1.3,1.9,2.9,2.3,4.6c0.3,1.6,0.4,3.4-0.3,4.9c-0.7,1.5-2.3,1.9-3.8,1.4
					c-1.7-0.6-2.8-2.2-3.9-3.5c-0.3-0.4-1-0.3-1.3,0c-0.4,0.4-0.3,0.9,0,1.3c1.1,1.4,2.2,2.8,3.7,3.6c1.5,0.8,3.3,1,4.8,0.3
					c3.1-1.5,3.2-5.9,2.5-8.8c-0.5-1.9-1.4-3.7-2.7-5.1C83,118.4,81.7,119.7,82.5,120.6L82.5,120.6z"/>
			</g>
			<g>
				<path class="st1" d="M57.8,170.5c-2.9,0-5.5-0.7-5.6-0.7c-7.8-2.5-3.7-19.1-3.5-19.9c0.1-0.4,0.5-0.7,0.9-0.7
					c1.5,0.1,8.5,0.1,8.6,0.1c0,0,0,0,0,0c0.3,0,0.5,0.1,0.7,0.3c0.2,0.2,0.2,0.5,0.2,0.8c-1.2,4.9,2.8,7.1,4.1,7.8l0.2,0.1
					c0.4,0.2,0.8,0.5,1.2,0.9c0.8,0.8,1.4,1.7,1.7,2.8c1,3.4-1,6.9-4.4,8C60.5,170.4,59.1,170.5,57.8,170.5z M50.1,151.1
					c-1.1,4.8-2.4,15.4,2.5,17c0,0,5,1.3,8.7,0.2c2.5-0.7,3.9-3.3,3.2-5.8c-0.2-0.8-0.6-1.4-1.2-2c-0.3-0.2-0.6-0.4-0.9-0.6
					l-0.2-0.1c-4-2.1-5.7-5.1-5.2-8.7C55.3,151.1,51.9,151.2,50.1,151.1z"/>
				<path class="st1" d="M54.4,165.6c-3.9,0-6.5-4.6-6.6-4.9c-0.2-0.4-0.1-1,0.4-1.2c0.4-0.2,1-0.1,1.2,0.4c0,0.1,2.8,5,6.2,3.7
					c0.5-0.2,1,0.1,1.1,0.5c0.2,0.5-0.1,1-0.5,1.1C55.6,165.5,55,165.6,54.4,165.6z"/>
				<path class="st1" d="M53.3,157.5c-2.8,0-4.6-1.1-4.8-1.2c-0.4-0.3-0.6-0.8-0.3-1.2c0.3-0.4,0.8-0.6,1.2-0.3
					c0.2,0.1,3.9,2.3,8.6-0.4c0.4-0.2,1-0.1,1.2,0.3c0.2,0.4,0.1,1-0.3,1.2C56.9,157.1,55,157.5,53.3,157.5z"/>
				<g>
					<path class="st1" d="M58.4,161.5c-1.3-0.4-3.6,0.1-3.4,1.8c0.1,0.7,0.2,1.5,0.7,2.1c0.4,0.6,1.2,0.9,1.9,0.7
						c0.7-0.2,1.2-0.8,1.6-1.4c0.2-0.3,0.1-0.7-0.2-0.8c-0.3-0.2-0.6-0.1-0.8,0.2c0,0-0.1,0.1-0.1,0.1c0,0,0,0.1-0.1,0.1
						c0,0-0.1,0.1,0,0c0,0-0.1,0.1-0.1,0.1c0,0.1-0.1,0.1-0.1,0.2c-0.1,0.1-0.2,0.2-0.2,0.2c0,0-0.1,0.1,0,0c-0.1,0-0.1,0.1-0.2,0.1
						c0,0-0.1,0.1,0,0c-0.1,0-0.1,0-0.2,0.1c0,0,0,0-0.1,0c0,0,0.1,0,0,0c0,0,0,0-0.1,0c0,0-0.2,0-0.1,0c0.1,0-0.1,0-0.1,0
						c-0.1,0,0,0,0,0c0,0-0.1,0-0.1,0c0,0-0.1-0.1-0.1-0.1c0,0,0.1,0.1,0,0c0,0-0.1-0.1-0.1-0.1c0,0-0.1-0.1,0,0
						c0,0-0.1-0.1-0.1-0.1c0-0.1-0.1-0.1-0.1-0.2c0-0.1,0,0,0,0c0,0,0-0.1,0-0.1c-0.1-0.3-0.1-0.5-0.2-0.8c0-0.1,0-0.1,0-0.2
						c0,0.1,0-0.1,0-0.1c0-0.1,0-0.1,0-0.2c0,0.1,0,0,0,0c0-0.1,0-0.1,0,0c0,0,0.1-0.1,0,0c0,0,0.1-0.1,0.1-0.1c0,0,0,0,0,0
						c0,0,0,0,0.1,0c0.1,0,0.1-0.1,0.2-0.1c0.1,0,0,0,0,0c0,0,0.1,0,0.1,0c0.1,0,0.2,0,0.2-0.1c0.1,0,0.1,0,0.2,0c0.1,0-0.1,0,0,0
						c0,0,0.1,0,0.1,0c0.1,0,0.3,0,0.4,0c0,0-0.1,0,0,0c0,0,0.1,0,0.1,0c0.1,0,0.2,0,0.2,0.1c0.3,0.1,0.7-0.1,0.7-0.4
						C58.9,161.9,58.7,161.6,58.4,161.5L58.4,161.5z"/>
				</g>
				<g>
					<path class="st1" d="M58.7,164.3c0.4,0.7,1.3,0.9,2,0.5c0.9-0.4,0.8-1.5,0.7-2.3c-0.1-0.8-0.7-1.4-1.5-1.5
						c-0.4-0.1-0.8,0-1.2,0.2c-0.3,0.2-0.6,0.4-0.7,0.7c-0.2,0.4-0.2,0.8-0.1,1.3C58,163.6,58.3,164,58.7,164.3
						c0.2,0.1,0.6,0,0.7-0.3c0.2-0.3,0.1-0.6-0.2-0.8c-0.1-0.1,0.1,0.1,0,0c0,0,0,0-0.1-0.1c0,0,0,0-0.1-0.1c-0.1-0.1,0.1,0.1,0,0
						c0,0-0.1-0.1-0.1-0.1c0,0,0-0.1,0,0c0,0,0-0.1,0-0.1c0-0.1,0-0.1,0-0.2c0-0.1,0,0.2,0,0c0,0,0-0.1,0-0.1c0-0.1,0-0.1,0-0.2
						c0-0.1,0,0.2,0,0c0,0,0-0.1,0-0.1c0-0.1,0.1-0.2,0,0c0,0,0-0.1,0.1-0.1c0,0,0,0,0-0.1c-0.1,0.1-0.1,0.1,0,0c0,0,0,0,0.1-0.1
						c0,0,0,0,0,0c0,0,0,0-0.1,0c0,0,0.1-0.1,0.1-0.1c0.1,0,0.1,0,0,0c0,0,0,0,0.1,0c0.1,0,0.1,0,0.2,0c0.1,0-0.2,0-0.1,0
						c0,0,0.1,0,0.1,0c0.1,0,0.1,0,0.2,0c-0.2,0-0.1,0,0,0c0,0,0.1,0,0.1,0c0.1,0,0.1,0,0.2,0c0.1,0-0.1-0.1,0,0c0,0,0.1,0,0.1,0.1
						c0,0,0,0,0.1,0c0,0,0.1,0.1,0,0c0,0,0.1,0.1,0.1,0.1c0,0,0,0,0.1,0.1c-0.1-0.1-0.1-0.1,0,0c0,0,0,0,0,0.1c0.1,0.1,0-0.1,0,0
						c0,0.1,0,0.2,0.1,0.2c0,0,0,0.1,0,0.1c0,0,0-0.1,0-0.1c0,0,0,0.1,0,0.1c0,0.1,0,0.3,0,0.4c0,0.1,0,0.1,0,0.2c0,0.1,0-0.1,0,0
						c0,0,0,0.1,0,0.1c0,0,0,0.1,0,0.1c0,0,0-0.1,0-0.1c0,0,0,0,0,0.1c0,0,0,0.1-0.1,0.1c0.1-0.1,0.1-0.1,0,0c0,0-0.1,0,0,0
						c0,0-0.1,0-0.1,0.1c0,0-0.1,0,0,0c0,0-0.1,0-0.1,0c0,0,0,0-0.1,0c-0.1,0,0.2,0,0,0c-0.1,0-0.1,0-0.2,0c0.2,0,0.1,0,0.1,0
						c0,0-0.1,0-0.1,0c-0.1,0-0.1-0.1,0,0c0,0-0.1,0-0.1,0c0,0,0,0-0.1,0c0.2,0.1,0.1,0.1,0,0c0,0-0.1-0.1,0,0c0,0,0-0.1-0.1-0.1
						c-0.2-0.3-0.5-0.4-0.8-0.2C58.7,163.7,58.6,164,58.7,164.3L58.7,164.3z"/>
				</g>
				<g>
					<path class="st1" d="M61.4,161.1c0-0.1,0-0.2,0-0.2C61.4,160.9,61.4,161,61.4,161.1c0-0.2,0-0.3,0.1-0.4c0,0,0,0.1-0.1,0.1
						c0-0.1,0.1-0.1,0.1-0.2c0,0,0,0,0,0c0,0,0,0,0,0.1c0,0,0-0.1,0.1-0.1c0,0,0,0,0.1-0.1c0,0,0,0,0,0c-0.1,0.1-0.1,0.1-0.1,0
						c0.1,0,0.1-0.1,0.2-0.1c0,0-0.1,0-0.1,0.1c0.1,0,0.2-0.1,0.3-0.1c-0.1,0-0.1,0-0.2,0c0.1,0,0.2,0,0.3,0c-0.1,0-0.1,0-0.2,0
						c0.1,0,0.2,0,0.3,0.1c0,0-0.1,0-0.1-0.1c0.1,0,0.1,0.1,0.2,0.1c0,0,0.1,0.1,0,0c-0.1-0.1,0,0,0,0c0.2,0.2,0.6,0.2,0.8,0
						c0.2-0.2,0.2-0.6,0-0.8c-0.6-0.5-1.3-0.6-2-0.3c-0.6,0.3-1,1-1,1.7c0,0.3,0.3,0.6,0.6,0.6C61.1,161.7,61.4,161.4,61.4,161.1
						L61.4,161.1z"/>
				</g>
				<g>
					<path class="st1" d="M61,164c0.5,0.1,1,0.1,1.5,0.1c0.5-0.1,1-0.2,1.4-0.4c0.4-0.3,0.6-0.8,0.7-1.3c0-0.4,0-0.8-0.1-1.2
						c-0.1-0.3-0.4-0.5-0.7-0.4c-0.3,0.1-0.5,0.4-0.4,0.7c0,0.1,0,0.2,0,0.2c0,0,0.1,0.2,0,0c0,0,0,0.1,0,0.1c0,0.2,0,0.3,0,0.5
						c0,0,0,0,0,0.1c0,0,0,0,0-0.1c0,0,0,0.1,0,0.1c0,0,0,0.1,0,0.1c0,0.1,0,0,0,0c0,0,0,0.1,0,0.1c0,0,0,0,0,0.1c0,0,0,0,0-0.1
						c0,0-0.1,0.1-0.1,0.1c-0.1,0.1,0.1-0.1,0,0c0,0-0.1,0-0.1,0.1c0,0-0.1,0.1,0,0c0.1,0-0.1,0-0.1,0c0,0-0.1,0-0.1,0
						c-0.1,0-0.2,0-0.3,0.1c0,0-0.1,0-0.1,0c-0.1,0,0.1,0,0,0c-0.2,0-0.4,0-0.6,0c-0.1,0-0.2,0-0.3,0c-0.1,0,0.1,0,0,0
						c0,0-0.1,0-0.1,0c-0.3-0.1-0.6,0.1-0.7,0.4C60.6,163.6,60.7,164,61,164L61,164z"/>
				</g>
				<g>
					<path class="st1" d="M62.7,160.3c0.2,0.2,0.3,0.4,0.5,0.5c0,0-0.1-0.1-0.1-0.1c0.3,0.4,0.6,0.8,0.8,1.3
						c0.1,0.1,0.2,0.2,0.4,0.3c0.1,0,0.3,0,0.5-0.1c0.1-0.1,0.2-0.2,0.3-0.4c0-0.2,0-0.3-0.1-0.5c-0.3-0.7-0.8-1.4-1.3-1.9
						c-0.2-0.2-0.6-0.2-0.8,0C62.5,159.8,62.5,160.1,62.7,160.3L62.7,160.3z"/>
				</g>
			</g>
			<g>
				<path class="st1" d="M33.8,170.5c-1.3,0-2.8-0.1-4.1-0.5c-3.4-1-5.4-4.6-4.4-8c0.3-1.1,0.9-2,1.7-2.8c0.4-0.4,0.8-0.6,1.2-0.9
					l0.2-0.1c1.3-0.7,5.4-2.9,4.1-7.8c-0.1-0.3,0-0.6,0.2-0.8c0.2-0.2,0.4-0.3,0.7-0.3c0,0,0,0,0,0c0.1,0,7.1,0.1,8.6-0.1
					c0.4,0,0.8,0.2,0.9,0.7c0.2,0.7,4.3,17.4-3.5,19.8C39.3,169.8,36.7,170.5,33.8,170.5z M34.5,151.1c0.5,3.6-1.3,6.5-5.2,8.7
					l-0.2,0.1c-0.3,0.2-0.6,0.4-0.9,0.6c-0.6,0.5-1,1.2-1.2,2c-0.7,2.4,0.7,5,3.2,5.8c3.7,1.1,8.7-0.2,8.8-0.2
					c4.8-1.5,3.5-12.2,2.4-17C39.6,151.2,36.2,151.1,34.5,151.1z"/>
				<path class="st1" d="M37.1,165.6c-0.6,0-1.2-0.1-1.8-0.3c-0.5-0.2-0.7-0.7-0.5-1.1c0.2-0.5,0.7-0.7,1.1-0.5
					c3.5,1.2,6.2-3.7,6.2-3.7c0.2-0.4,0.8-0.6,1.2-0.4c0.4,0.2,0.6,0.8,0.4,1.2C43.6,160.9,41,165.6,37.1,165.6z"/>
				<path class="st1" d="M38.2,157.5c-1.6,0-3.6-0.4-5.7-1.6c-0.4-0.2-0.6-0.8-0.3-1.2c0.2-0.4,0.8-0.6,1.2-0.3
					c4.7,2.7,8.5,0.5,8.6,0.4c0.4-0.3,1-0.1,1.2,0.3c0.3,0.4,0.1,1-0.3,1.2C42.8,156.4,41,157.5,38.2,157.5z"/>
				<g>
					<path class="st1" d="M33.4,162.7c0.1,0,0.2-0.1,0.4-0.1c0.1,0,0,0,0,0c0,0,0.1,0,0.1,0c0.1,0,0.2,0,0.2,0c0.1,0,0.1,0,0.2,0
						c0,0,0.1,0,0.1,0c-0.1,0,0,0,0,0c0.1,0,0.3,0.1,0.4,0.1c0,0,0.2,0.1,0.1,0c0.1,0,0.1,0.1,0.2,0.1c0,0,0.1,0.1,0.1,0.1
						c-0.1,0,0,0,0,0c0,0,0.1,0.1,0.1,0.1c0,0,0,0,0,0c0,0,0,0,0,0.1c0,0,0,0,0,0c0,0,0,0.1,0,0.1c0-0.1,0,0.1,0,0.1
						c0,0,0,0.1,0,0.1c0,0,0,0.1,0,0.1c0,0.3-0.1,0.5-0.2,0.8c0,0.1,0,0.1-0.1,0.2c0,0-0.1,0.1,0,0.1c0,0,0,0,0,0c0,0,0,0.1-0.1,0.1
						c0,0.1-0.1,0.1-0.1,0.1c0,0.1,0,0,0,0c0,0,0,0.1-0.1,0.1c0,0-0.1,0.1-0.1,0.1c0.1-0.1,0,0,0,0c0,0-0.1,0-0.1,0c-0.1,0,0,0,0,0
						c0,0-0.1,0-0.1,0c0.1,0,0,0-0.1,0c0,0,0,0-0.1,0c0,0,0.1,0,0,0c-0.1,0-0.1,0-0.2-0.1c-0.1,0,0,0,0,0c0,0-0.1,0-0.1,0
						c-0.1,0-0.1-0.1-0.2-0.1c0.1,0.1,0,0-0.1,0c-0.1,0-0.1-0.1-0.1-0.1c-0.1-0.1-0.2-0.2-0.3-0.3c0,0-0.1-0.1,0,0
						c0,0.1,0-0.1,0-0.1c0-0.1-0.1-0.1-0.1-0.2c-0.2-0.3-0.5-0.4-0.8-0.2c-0.3,0.2-0.4,0.5-0.2,0.8c0.4,0.5,0.8,1.1,1.3,1.3
						c0.7,0.3,1.4,0.2,2-0.3c0.5-0.5,0.7-1.2,0.8-1.9c0.1-0.4,0.1-0.9-0.1-1.3c-0.1-0.3-0.5-0.6-0.8-0.7c-0.8-0.4-1.7-0.4-2.5-0.2
						c-0.3,0.1-0.5,0.4-0.4,0.7C32.8,162.6,33.1,162.8,33.4,162.7L33.4,162.7z"/>
				</g>
				<g>
					<path class="st1" d="M31.8,163.7C31.8,163.7,31.8,163.7,31.8,163.7C31.7,163.9,31.9,163.7,31.8,163.7
						C31.8,163.7,31.8,163.8,31.8,163.7C31.7,163.8,31.9,163.7,31.8,163.7c-0.1,0.1-0.1,0.1-0.2,0.1c0.1-0.1,0.1,0,0,0
						c0,0-0.1,0-0.1,0c-0.1,0-0.1,0,0.1,0c0,0-0.1,0-0.1,0c-0.1,0-0.1,0-0.2,0c0.2,0,0,0,0,0c0,0,0,0-0.1,0c0.2,0.1,0.1,0,0,0
						c0,0,0,0-0.1,0c0.1,0.1,0.1,0.1,0,0c0,0,0,0-0.1-0.1c0.1,0.1,0.1,0.1,0,0c0,0,0-0.1-0.1-0.1c0,0,0,0.1,0,0.1c0,0,0,0,0-0.1
						c0,0,0-0.1,0-0.1c0,0,0,0,0-0.1c0,0.1,0,0.1,0,0c0-0.1,0-0.3,0-0.4c0-0.1,0-0.2,0-0.2c0,0,0-0.1,0-0.1c0,0.1,0,0.1,0,0
						c0,0,0-0.1,0-0.1c0-0.1,0-0.2,0.1-0.2c0-0.1-0.1,0.1,0,0c0,0,0,0,0-0.1c0,0,0,0,0-0.1c-0.1,0.1-0.1,0.1,0,0
						c0,0,0.1-0.1,0.1-0.1c-0.1,0.1-0.1,0.1,0,0c0,0,0,0,0.1,0c0.1,0,0.2-0.1,0,0c0.1,0,0.1,0,0.2-0.1c0,0,0.1,0,0.1,0
						c0.1,0,0.2,0,0,0c0.1,0,0.1,0,0.2,0c0,0,0.1,0,0.1,0c0.1,0,0.1,0,0,0c0.1,0,0.1,0,0.2,0c0,0,0,0,0.1,0c0.1,0-0.1-0.1,0,0
						c0,0,0.1,0.1,0.1,0.1c-0.1-0.1-0.1-0.1,0,0c0,0,0,0,0.1,0.1c0,0,0,0,0.1,0.1c-0.1-0.1-0.1-0.1,0,0c0,0.1,0.1,0.1,0.1,0.2
						c-0.1-0.2,0-0.1,0,0c0,0,0,0.1,0,0.1c0,0,0,0.1,0,0.1c0,0.1,0-0.2,0,0c0,0.1,0,0.1,0,0.2c0,0.1,0,0.1,0,0c0,0,0,0.1,0,0.1
						c0,0.1,0,0.1-0.1,0.2c0-0.2,0-0.1,0,0c0,0,0,0.1-0.1,0.1c0,0,0,0,0,0.1c0.1-0.2,0-0.1,0,0c0,0,0,0-0.1,0.1
						c-0.1,0.1,0.1-0.1,0,0c-0.1,0.1-0.2,0.2-0.3,0.4c0,0.1,0,0.3,0.1,0.5c0.2,0.2,0.5,0.4,0.8,0.2c0.3-0.2,0.6-0.5,0.7-0.9
						c0.1-0.3,0.1-0.7,0-1.1c-0.2-0.8-0.9-1.3-1.7-1.3c-0.3,0-0.7,0.1-1,0.3c-0.4,0.2-0.6,0.5-0.7,0.9c-0.1,0.2-0.1,0.5-0.1,0.7
						c0,0.2,0,0.4,0,0.6c0,0.4,0.2,0.9,0.5,1.2c0.7,0.6,1.8,0.4,2.3-0.4c0.2-0.3,0.1-0.7-0.2-0.8C32.3,163.3,32,163.4,31.8,163.7
						L31.8,163.7z"/>
				</g>
				<g>
					<path class="st1" d="M31.3,161.1c0-0.7-0.4-1.4-1-1.7c-0.7-0.3-1.5-0.2-2,0.3c-0.2,0.2-0.2,0.6,0,0.8c0.2,0.2,0.6,0.2,0.8,0
						c0,0,0,0,0.1-0.1c-0.1,0.1-0.1,0,0,0c0.1,0,0.1-0.1,0.2-0.1c0,0-0.1,0-0.1,0.1c0.1,0,0.2-0.1,0.3-0.1c-0.1,0-0.1,0-0.2,0
						c0.1,0,0.2,0,0.3,0c-0.1,0-0.1,0-0.2,0c0.1,0,0.2,0,0.3,0.1c0,0-0.1,0-0.1-0.1c0.1,0,0.1,0.1,0.2,0.1c0.1,0.1-0.1-0.1,0,0
						c0,0,0,0,0.1,0.1c0,0,0,0.1,0.1,0.1c-0.1-0.1,0-0.1,0,0c0,0.1,0.1,0.1,0.1,0.2c0,0,0-0.1-0.1-0.1c0,0.1,0.1,0.2,0.1,0.3
						c0-0.1,0-0.1,0-0.2c0,0.1,0,0.2,0,0.2c0,0.3,0.3,0.6,0.6,0.6C31.1,161.7,31.3,161.4,31.3,161.1L31.3,161.1z"/>
				</g>
				<g>
					<path class="st1" d="M30.2,162.9c0,0-0.1,0-0.1,0c-0.2,0,0.1,0,0,0c-0.1,0-0.2,0-0.3,0c-0.2,0-0.4,0-0.6,0c-0.2,0,0.1,0,0,0
						c0,0-0.1,0-0.1,0c-0.1,0-0.2,0-0.2-0.1c-0.1,0-0.2,0-0.2-0.1c0.1,0.1,0,0,0,0c0,0-0.1,0-0.1-0.1c-0.1-0.1,0.1,0.1,0,0
						c0,0,0-0.1-0.1-0.1c0,0,0,0,0,0c0,0,0,0,0,0c0,0,0-0.1,0-0.1c-0.1-0.1,0,0.1,0,0c0,0,0-0.1,0-0.1c0,0,0-0.1,0-0.1
						c0,0,0,0.1,0,0.1c0,0,0-0.1,0-0.1c0-0.1,0-0.3,0-0.4c0,0,0-0.1,0-0.1c0,0.2,0,0,0,0c0-0.1,0-0.2,0-0.2c0.1-0.3-0.1-0.7-0.4-0.7
						c-0.3-0.1-0.7,0.1-0.7,0.4c-0.1,0.4-0.1,0.8-0.1,1.2c0.1,0.5,0.3,1,0.7,1.3c0.4,0.3,0.9,0.4,1.4,0.4c0.5,0.1,1,0,1.5-0.1
						c0.3-0.1,0.5-0.4,0.4-0.7C30.8,163,30.5,162.8,30.2,162.9L30.2,162.9z"/>
				</g>
				<g>
					<path class="st1" d="M28,159.5c-0.5,0.6-1,1.2-1.3,1.9c-0.1,0.1-0.1,0.3-0.1,0.5c0,0.1,0.1,0.3,0.3,0.4
						c0.3,0.1,0.7,0.1,0.8-0.2c0.2-0.4,0.5-0.9,0.8-1.3c0,0-0.1,0.1-0.1,0.1c0.1-0.2,0.3-0.4,0.5-0.5c0.2-0.2,0.2-0.6,0-0.8
						C28.6,159.3,28.2,159.3,28,159.5L28,159.5z"/>
				</g>
			</g>
			<path class="st1" d="M63.6,68.2l-0.3-0.8l0.4-0.2c0.1,0,1.1-0.4,1.1-1.7v-0.4h0.9v0.4c0,1.8-1.6,2.5-1.6,2.5L63.6,68.2z"/>
			<path class="st1" d="M62.4,66.4l-0.2-0.8l0.4-0.1c0.1,0,0.7-0.2,0.6-1.2l0-0.4l0.9-0.1l0,0.4c0.1,1.4-0.8,2-1.3,2.1L62.4,66.4z"
				/>
			<path class="st1" d="M32.2,73.1c-2.9,0-5.3-2.2-5.3-4.8s2.4-4.8,5.3-4.8c2.9,0,5.3,2.2,5.3,4.8S35.1,73.1,32.2,73.1z M32.2,64.2
				c-2.6,0-4.7,1.9-4.7,4.1s2.1,4.1,4.7,4.1s4.7-1.9,4.7-4.1S34.7,64.2,32.2,64.2z"/>
			<circle class="st4" cx="31.1" cy="68.3" r="3.6"/>
			<circle class="st0" cx="29.4" cy="66.5" r="2.1"/>
			<path class="st1" d="M37.4,69l-0.1-0.4c0-0.2-0.8-4.2-5.5-4.5c-0.1,0-3.6-0.1-5.9,3.7l-0.2,0.4L25,67.6l0.2-0.4
				c2.6-4.2,6.5-4.1,6.7-4.1c5.4,0.3,6.3,5.1,6.3,5.2l0.1,0.4L37.4,69z"/>
			<path class="st1" d="M25.6,68.2l-0.4-0.2c-0.1,0-1.6-0.6-1.6-2.5v-0.4h0.9v0.4c0,1.2,1,1.6,1.1,1.7l0.4,0.2L25.6,68.2z"/>
			<path class="st1" d="M26.9,66.4l-0.4-0.1c-0.5-0.1-1.4-0.7-1.3-2.1l0-0.4l0.9,0.1l0,0.4c-0.1,1,0.6,1.1,0.6,1.2l0.4,0.1
				L26.9,66.4z"/>
			<g>
				<path class="st1" d="M70.4,130.5c0.9,0.9,1.6,2,2.3,3.1c1.3,2.1,2.5,4.5,2.7,7c0,0.6,0,1.3,0,1.9c-0.1,0.7-0.1,1.5-0.7,1.9
					c-0.6,0.5-1.4,0.7-2.1,1c-0.8,0.4-1.7,0.7-2.5,1.1c-3.2,1.3-6.4,2-9.9,2.1c-6.9,0.1-13.9,0.4-20.8,0.3c-7-0.1-14-0.5-20.9-1.9
					c-1.5-0.3-3.2-0.7-4-2.2c-0.8-1.5-0.7-3.6-0.5-5.3c0.3-3.5,1.8-6.9,4.1-9.5c0.7-0.8-0.5-2-1.2-1.2c-2.2,2.6-3.8,5.7-4.4,9.1
					c-0.3,1.7-0.4,3.3-0.2,5c0.2,1.7,0.7,3.3,2.1,4.4c1.2,0.9,2.8,1.2,4.3,1.5c1.9,0.4,3.7,0.7,5.6,0.9c3.8,0.5,7.6,0.7,11.4,0.9
					c7.6,0.3,15.1,0,22.7-0.2c1.9,0,3.7-0.1,5.6-0.3c1.7-0.3,3.4-0.7,5.1-1.3c1.8-0.6,3.5-1.4,5.2-2.2c0.7-0.3,1.4-0.7,1.9-1.3
					c0.5-0.6,0.6-1.4,0.7-2.2c0.7-5-2.1-10.1-5.4-13.7C70.8,128.5,69.6,129.7,70.4,130.5L70.4,130.5z"/>
			</g>
			<g>
				<path class="st0" d="M25.4,91c0,0,18.1,4.1,33.9,0.1"/>
				<path class="st1" d="M43.7,93.9c-10,0-18.1-1.8-18.6-1.9l0.4-1.9c0.2,0,18,4,33.4,0.1l0.5,1.9C54.2,93.5,48.7,93.9,43.7,93.9z"
					/>
			</g>
		</g>
		<path class="st7" d="M18.4,129.3"/>
		<g>
			<line class="st0" x1="37.6" y1="122.4" x2="34.6" y2="129.3"/>
			<path class="st1" d="M34.6,130.1c-0.1,0-0.2,0-0.3-0.1c-0.4-0.2-0.6-0.6-0.4-1l3-7c0.2-0.4,0.6-0.6,1-0.4c0.4,0.2,0.6,0.6,0.4,1
				l-3,7C35.2,130,34.9,130.1,34.6,130.1z"/>
		</g>
		<g>
			<line class="st0" x1="43.4" y1="122.2" x2="43.4" y2="129.8"/>
			<path class="st1" d="M43.4,130.6c-0.4,0-0.8-0.4-0.8-0.8l-0.1-7.6c0-0.4,0.4-0.8,0.8-0.8c0,0,0,0,0,0c0.4,0,0.8,0.4,0.8,0.8
				l0.1,7.6C44.2,130.2,43.9,130.6,43.4,130.6C43.4,130.6,43.4,130.6,43.4,130.6z"/>
		</g>
		<g>
			<line class="st0" x1="50.8" y1="122.4" x2="53.8" y2="129.3"/>
			<path class="st1" d="M53.8,130.1c-0.3,0-0.6-0.2-0.7-0.5l-3-7c-0.2-0.4,0-0.9,0.4-1c0.4-0.2,0.9,0,1,0.4l3,7c0.2,0.4,0,0.9-0.4,1
				C54,130.1,53.9,130.1,53.8,130.1z"/>
		</g>
	</g>
	<g>
		<g>
			<polygon class="st0" points="176.5,8.5 180.8,1.5 185.9,4 181.9,11.2 			"/>
			<path class="st1" d="M182.4,12.7l-7.5-3.7l5.5-8.9l7.1,3.6L182.4,12.7z M178.1,8l3.4,1.7l2.9-5.2l-3.1-1.6L178.1,8z"/>
		</g>
		<g>
			<path class="st1" d="M123.5,73c-3.1-0.2-5.4-5.1-5.6-5.7l0-0.1c-1.3-3.6-1.2-6.3,0.1-8c1.7-2.2,4.7-2,4.8-2l-0.1,2
				c0,0-2.1-0.1-3.1,1.2c-0.9,1.2-0.8,3.3,0.1,6.1c0.7,1.4,2.5,4.4,4,4.5L123.5,73z"/>
			<g>
				<path class="st0" d="M130.6,99.7L119,92.5c0,0,3.3-7.9,11.4-6.7l6.2,3L130.6,99.7z"/>
				<path class="st1" d="M130.9,101l-13.1-8.1l0.3-0.7c0-0.1,3.7-8.6,12.4-7.3l0.1,0l7.2,3.5L130.9,101z M120.2,92.2l10,6.2l5-9.2
					l-5.2-2.5C124.2,85.9,121.2,90.4,120.2,92.2z"/>
			</g>
			<g>
				<line class="st0" x1="114.5" y1="109.3" x2="121.5" y2="93.4"/>
				
					<rect x="109.3" y="100.4" transform="matrix(0.4034 -0.915 0.915 0.4034 -22.3393 168.4536)" class="st1" width="17.5" height="1.9"/>
			</g>
			<path class="st1" d="M184.1,137.1h-57.8l-0.2-0.7c-6.2-23.5,11.4-47.8,11.6-48L138,88h34.4l0.3,0.4c0.2,0.2,17.8,24.5,11.6,48
				L184.1,137.1z M156.1,135.3h26.6c5.2-21-9.1-42.5-11.2-45.5h-15.4L156.1,135.3z M127.7,135.3h26.6l0-45.5h-15.4
				C136.8,92.8,122.5,114.3,127.7,135.3z"/>
			<g>
				<path class="st0" d="M185.1,48.8C179.2,29,166.9,24.1,160,23.5c-2.8-0.2-4.5-0.2-4.8-0.2c-0.3,0-2-0.1-4.8,0.2
					c-6.9,0.6-19.2,5.5-25.2,25.3c0,0-14.2,43.1,29.9,43.1v0c0,0,0,0,0,0c0,0,0,0,0,0v0C199.3,91.8,185.1,48.8,185.1,48.8z"/>
				<path class="st1" d="M155.2,92.9c-13.2,0-22.6-3.8-27.9-11.3c-9.4-13-3.2-32.3-3-33.2c6.8-22.6,21.6-25.6,26-25.9
					c2.7-0.2,4.4-0.2,4.9-0.2c0.4,0,2.2-0.1,4.9,0.2c4.4,0.4,19.3,3.4,26,26c0.3,1,6.4,20.2-3,33.1C177.7,89,168.4,92.8,155.2,92.9
					L155.2,92.9z M155.2,90.9L155.2,90.9c12.5,0,21.3-3.5,26.3-10.4c8.8-12.2,2.7-31.2,2.7-31.4l0,0c-6.4-21.4-20.2-24.2-24.3-24.6
					c-2.7-0.2-4.5-0.2-4.7-0.2l0,0l0,0c-0.2,0-1.9-0.1-4.7,0.2c-4.1,0.3-17.9,3.2-24.3,24.6c-0.1,0.2-6.2,19.2,2.7,31.4
					C133.8,87.4,142.7,90.9,155.2,90.9L155.2,90.9z"/>
			</g>
			<path class="st1" d="M186.9,73l-0.1-2c1.5-0.1,3.3-3,4-4.5c1-2.8,1-4.9,0.1-6.1c-1-1.4-3.1-1.2-3.1-1.2l-0.1-2
				c0.1,0,3.1-0.2,4.8,2c1.4,1.8,1.4,4.5,0.1,8l0,0.1C192.3,67.9,189.9,72.8,186.9,73z"/>
			<path class="st8" d="M183,105.7"/>
			<path class="st9" d="M133,57.6"/>
			<path class="st10" d="M139,91.4"/>
			<path class="st1" d="M153.6,85.7c-13,0-19.9-9.1-21.5-11.3h-8.5v-2h9.6l0.3,0.5c0.3,0.5,7,11.6,21.6,10.7l0.1,0l0.1,0
				c0.1,0,15,1.1,23.1-11.4l0.3-0.5h7.9v2h-6.8c-8.5,12.6-23.3,12-24.5,11.9C154.7,85.7,154.1,85.7,153.6,85.7z"/>
			<path class="st1" d="M160.8,29.8c-1.3,0-2.3-1-2.3-2.3c0-1.3,1-2.3,2.3-2.3c1.3,0,2.3,1,2.3,2.3C163.1,28.7,162,29.8,160.8,29.8z
				 M160.8,26.4c-0.6,0-1.1,0.5-1.1,1.1c0,0.6,0.5,1.1,1.1,1.1c0.6,0,1.1-0.5,1.1-1.1C161.9,26.9,161.4,26.4,160.8,26.4z"/>
			<path class="st1" d="M160.8,36c-1.3,0-2.3-1-2.3-2.3c0-1.3,1-2.3,2.3-2.3c1.3,0,2.3,1,2.3,2.3C163.1,34.9,162,36,160.8,36z
				 M160.8,32.6c-0.6,0-1.1,0.5-1.1,1.1c0,0.6,0.5,1.1,1.1,1.1c0.6,0,1.1-0.5,1.1-1.1C161.9,33.1,161.4,32.6,160.8,32.6z"/>
			<path class="st1" d="M160.8,42.2c-1.3,0-2.3-1-2.3-2.3c0-1.3,1-2.3,2.3-2.3c1.3,0,2.3,1,2.3,2.3C163.1,41.1,162,42.2,160.8,42.2z
				 M160.8,38.8c-0.6,0-1.1,0.5-1.1,1.1c0,0.6,0.5,1.1,1.1,1.1c0.6,0,1.1-0.5,1.1-1.1C161.9,39.3,161.4,38.8,160.8,38.8z"/>
			<circle class="st1" cx="169" cy="69.2" r="1"/>
			<circle class="st1" cx="171.8" cy="66.7" r="1"/>
			<circle class="st1" cx="174.7" cy="69.2" r="1"/>
			<circle class="st1" cx="135.6" cy="69.2" r="1"/>
			<circle class="st1" cx="138.4" cy="66.7" r="1"/>
			<circle class="st1" cx="171.8" cy="71.7" r="1"/>
			<circle class="st1" cx="138.4" cy="71.7" r="1"/>
			<circle class="st1" cx="141.2" cy="69.2" r="1"/>
			<path class="st1" d="M160.3,99.9c-1.3,0-2.3-1-2.3-2.3s1-2.3,2.3-2.3c1.3,0,2.3,1,2.3,2.3S161.6,99.9,160.3,99.9z M160.3,96.5
				c-0.6,0-1.1,0.5-1.1,1.1s0.5,1.1,1.1,1.1c0.6,0,1.1-0.5,1.1-1.1S160.9,96.5,160.3,96.5z"/>
			<path class="st1" d="M160.3,116.2c-1.3,0-2.3-1-2.3-2.3c0-1.3,1-2.3,2.3-2.3c1.3,0,2.3,1,2.3,2.3
				C162.6,115.2,161.6,116.2,160.3,116.2z M160.3,112.9c-0.6,0-1.1,0.5-1.1,1.1c0,0.6,0.5,1.1,1.1,1.1c0.6,0,1.1-0.5,1.1-1.1
				C161.4,113.3,160.9,112.9,160.3,112.9z"/>
			<path class="st1" d="M160.3,132.5c-1.3,0-2.3-1-2.3-2.3c0-1.3,1-2.3,2.3-2.3c1.3,0,2.3,1,2.3,2.3
				C162.6,131.5,161.6,132.5,160.3,132.5z M160.3,129.2c-0.6,0-1.1,0.5-1.1,1.1c0,0.6,0.5,1.1,1.1,1.1c0.6,0,1.1-0.5,1.1-1.1
				C161.4,129.7,160.9,129.2,160.3,129.2z"/>
			<rect x="154.2" y="22.4" class="st1" width="1.9" height="62.2"/>
			<g>
				<polygon class="st0" points="151.4,64 155.2,52.2 159.9,64 				"/>
				<path class="st1" d="M161,64.8h-10.7l4.9-14.8L161,64.8z M152.4,63.3h6.4l-3.5-8.8L152.4,63.3z"/>
			</g>
			<g>
				<path class="st0" d="M147.9,74.6c1.4,2.4,4.5,3.1,7.3,3.1c2.6,0,5.4-0.7,6.9-2.7c0.8-1,1.1-2.7,0.1-3.5c-0.6-0.4-1.3-0.4-2-0.4
					c-3.1,0-6.2,0-9.3,0c-0.4,0-0.8,0-1.2,0.1c-1.4,0.3-2.3,1.9-1.9,3.3"/>
				<g>
					<path class="st1" d="M147,75.1c1.4,2.3,4,3.2,6.6,3.5c2.5,0.2,5.5-0.1,7.6-1.6c1-0.7,1.9-1.7,2.3-2.9c0.4-1.1,0.2-2.5-0.8-3.3
						c-1.2-1-3-0.7-4.4-0.7c-1.7,0-3.5,0-5.2,0c-1.6,0-3.6-0.3-5,0.7c-1.2,0.9-1.7,2.4-1.4,3.9c0.3,1.2,2.1,0.7,1.8-0.5
						c-0.2-0.8,0.2-1.7,1-2c0.5-0.2,1-0.2,1.5-0.2c0.7,0,1.4,0,2,0c1.3,0,2.6,0,3.9,0c1.2,0,2.6-0.2,3.8,0c0.9,0.1,1.1,0.9,0.8,1.7
						c-0.3,0.8-1,1.5-1.8,1.9c-1.7,1-3.8,1.2-5.7,1.1c-2.1-0.1-4.4-0.7-5.5-2.6C148,73.1,146.4,74.1,147,75.1L147,75.1z"/>
				</g>
			</g>
			<g>
				<g id="XMLID_8_">
					<g>
						<path d="M182.9,20.1c3.5,0.1,6.4,3,6.4,6.5c0,3.5-2.8,6.4-6.4,6.5v9l-34.5-18.6l28.1-16.2l6.4,3.2V20.1z M187.4,26.6
							c0-2.5-2-4.6-4.5-4.7c-0.1,0-0.1,0-0.2,0h-0.8h-1v-1.8v-8.3l-4.4-2.2l-24.1,13.9l28.5,15.4v-5.7v-1.8h1h0.8c0.1,0,0.1,0,0.2,0
							C185.4,31.2,187.4,29.1,187.4,26.6z"/>
						<path class="st0" d="M182.9,21.9c2.5,0.1,4.5,2.1,4.5,4.7s-2,4.6-4.5,4.7c-0.1,0-0.1,0-0.2,0h-0.8h-1v1.8v5.7l-28.5-15.4
							l24.1-13.9l4.4,2.2v8.3v1.8h1h0.8C182.8,21.9,182.8,21.9,182.9,21.9z M185.8,26.6c0-1.7-1.3-3-2.9-3.2c-0.1,0-0.3,0-0.4,0
							h-0.6h-1v1.5v3.5v1.5h1h0.6c0.1,0,0.3,0,0.4,0C184.5,29.6,185.8,28.3,185.8,26.6z"/>
						<path d="M182.9,23.4c1.6,0.2,2.9,1.6,2.9,3.2s-1.3,3-2.9,3.2c-0.1,0-0.3,0-0.4,0h-0.6h-1v-1.5v-3.5v-1.5h1h0.6
							C182.6,23.3,182.8,23.4,182.9,23.4z M184.2,26.6c0-0.8-0.6-1.5-1.3-1.7c-0.1,0-0.3-0.1-0.4-0.1h-0.6v3.5h0.6
							c0.1,0,0.3,0,0.4-0.1C183.7,28.1,184.2,27.4,184.2,26.6z"/>
					</g>
				</g>
			</g>
			<g>
				<g>
					<circle class="st4" cx="140.9" cy="54.6" r="4.7"/>
					<circle class="st0" cx="139.9" cy="53.4" r="2.4"/>
				</g>
				<g>
					<circle class="st4" cx="169.4" cy="54.6" r="4.7"/>
					<circle class="st0" cx="168.4" cy="53.4" r="2.4"/>
				</g>
			</g>
			<g>
				<g>
					<path class="st0" d="M178.2,99.7l11.6-7.2c0,0-3.3-7.9-11.4-6.7l-6.2,3L178.2,99.7z"/>
					<path class="st1" d="M177.9,101L171,88.3l7.2-3.5l0.1,0c8.8-1.3,12.3,7.2,12.4,7.3l0.3,0.7L177.9,101z M173.6,89.2l5,9.2
						l10-6.2c-1-1.8-4-6.3-9.9-5.5L173.6,89.2z"/>
				</g>
				<g>
					<line class="st0" x1="194.3" y1="109.3" x2="187.3" y2="93.4"/>
					
						<rect x="189.9" y="92.6" transform="matrix(0.915 -0.4035 0.4035 0.915 -24.6751 85.6094)" class="st1" width="1.9" height="17.5"/>
				</g>
				<g>
					<polyline class="st0" points="194.6,116.8 178.6,128.2 175.3,118.9 183.2,113.1 					"/>
					<polygon class="st1" points="178,130.1 173.9,118.4 182.5,112.2 183.9,114.1 176.8,119.3 179.2,126.3 193.9,115.9 195.3,117.8 
											"/>
				</g>
				<g>
					<path class="st0" d="M183,112.7c2.6-1.9,8.2-5.2,13.2-2.1l-1.8,7.3c0,0-5.6-6.3-11.2-4.7C182.9,113.2,182.8,112.8,183,112.7z"
						/>
					<path class="st1" d="M195,120.2l-1.5-1.6c-0.1-0.1-5.2-5.7-10-4.3c-0.6,0.2-1.3-0.1-1.6-0.7c-0.3-0.6-0.1-1.4,0.4-1.8l0,0
						c2.5-1.8,8.8-5.6,14.5-2.2l0.7,0.4L195,120.2z M186.5,111.8c3,0.5,5.7,2.4,7.2,3.8l1.1-4.5C192,109.8,189,110.6,186.5,111.8z"
						/>
				</g>
				<g>
					<path class="st1" d="M177.9,126.8c-1.4,0.5-2.9,1.1-4.4,0.7c-1-0.3-2-1.1-2.4-2c-0.4-1-0.2-2.2,0.5-3c0.9-1.1,2.3-1.3,3.6-1.6
						c0.6-0.1,0.9-0.8,0.8-1.3c-0.2-0.6-0.8-0.9-1.3-0.8c-1.4,0.3-2.8,0.7-4,1.6c-1.1,0.8-1.7,2.1-1.9,3.5c-0.4,2.7,1.7,5.4,4.4,5.9
						c1.8,0.3,3.6-0.2,5.2-0.8c0.5-0.2,0.9-0.7,0.8-1.3C179.1,127,178.4,126.6,177.9,126.8L177.9,126.8z"/>
				</g>
			</g>
			<g>
				<polygon class="st0" points="122.3,62.3 144.3,123.5 148.9,121.9 126.3,61.1 				"/>
				<path class="st1" d="M143.8,124.5l-22.5-62.6l5.4-1.7l23.2,62.2L143.8,124.5z M123.3,62.8l21.4,59.8l3.3-1.1L125.8,62
					L123.3,62.8z"/>
			</g>
			<g>
				<defs>
					<path id="XMLID_00000083056229354963606160000008131282419606966195_" d="M110.9,67.6l16.9-2.6l4.5,12.2l-15.4,7
						C116.9,84.2,110.4,80.4,110.9,67.6z"/>
				</defs>
				<defs>
					<path id="SVGID_1_" d="M116.9,85.1l-0.3-0.2c-0.3-0.2-6.9-4.2-6.3-17.3l0-0.6l18.1-2.8l4.9,13.4L116.9,85.1z M111.7,68.3
						c-0.2,10.1,4.1,14.2,5.3,15.1l14.3-6.5l-4-10.9L111.7,68.3z"/>
				</defs>
				<use xlink:href="#XMLID_00000083056229354963606160000008131282419606966195_"  style="overflow:visible;fill:#FFFFFF;"/>
				<use xlink:href="#SVGID_1_"  style="overflow:visible;fill:#231F20;"/>
				<clipPath id="XMLID_00000160155868497005703140000018079699877620816515_">
					<use xlink:href="#XMLID_00000083056229354963606160000008131282419606966195_"  style="overflow:visible;"/>
				</clipPath>
				
					<clipPath id="SVGID_00000074408283844225943750000002072039770041494713_" style="clip-path:url(#XMLID_00000160155868497005703140000018079699877620816515_);">
					<use xlink:href="#SVGID_1_"  style="overflow:visible;"/>
				</clipPath>
				<g style="clip-path:url(#SVGID_00000074408283844225943750000002072039770041494713_);">
					<path class="st1" d="M112,66c2.4,1,4.5,3.9,2.6,6.4c-0.4,0.5,0.2,1.1,0.7,1.2c1.8,0.2,2.4,2.2,1.4,3.6c-0.3,0.5,0.1,1,0.5,1.2
						c1.3,0.5,2.6,1.1,3.6,2.1c0.9,0.9,1.3,2.3,0.7,3.4c-0.5,0.9,0.8,1.7,1.4,0.8c0.9-1.6,0.6-3.5-0.5-4.9c-1.2-1.5-3-2.3-4.7-3
						c0.2,0.4,0.3,0.8,0.5,1.2c1.8-2.4,0.1-5.6-2.8-5.9c0.2,0.4,0.5,0.8,0.7,1.2c1.1-1.5,1.2-3.5,0.4-5.1c-0.8-1.7-2.3-2.9-4-3.6
						C111.5,64.1,111.1,65.6,112,66L112,66z"/>
				</g>
			</g>
			<g>
				<path class="st0" d="M132.3,98.6c1.5-0.8,3.9-1.8,5.6-1.6c1.7,0.2,3.1,1.4,3.6,2.9s0,3.3-1.3,4.4c-0.9,0.8-3.3,1.7-4.4,2.1"/>
				<g>
					<path class="st1" d="M132.8,99.6c1.1-0.6,2.3-1.1,3.5-1.4c1.1-0.2,2.1-0.1,3,0.6c0.9,0.7,1.3,1.7,1.2,2.8
						c-0.1,0.6-0.3,1.1-0.6,1.5c-0.1,0.1-0.2,0.2-0.3,0.3c-0.1,0-0.1,0.1-0.2,0.1c0,0-0.2,0.2-0.1,0.1c0.1-0.1-0.1,0.1-0.2,0.1
						c-0.1,0.1-0.3,0.2-0.4,0.2c-1.1,0.6-2.2,1.1-3.4,1.5c-0.6,0.2-0.9,0.7-0.8,1.3c0.1,0.5,0.8,0.9,1.3,0.8c1.3-0.4,2.6-1,3.8-1.6
						c1.4-0.8,2.4-2,2.7-3.5c0.4-1.7-0.1-3.4-1.2-4.7c-1.1-1.2-2.8-1.9-4.4-1.8c-1.8,0.2-3.6,0.9-5.2,1.8
						C130.5,98.3,131.6,100.2,132.8,99.6L132.8,99.6z"/>
				</g>
			</g>
			<g>
				<path class="st0" d="M131.3,96.6l-14.9,6.5c-1.2,0.5-2.1,1.4-2.7,2.5c-1.4,2.7-2.9,7.6,3.5,9.1c1.2,0.3,2.5,0.2,3.6-0.3
					l15.3-6.7L131.3,96.6z"/>
				<path class="st1" d="M118.5,115.9c-0.5,0-1-0.1-1.5-0.2c-2.6-0.6-4.2-1.8-5-3.5c-1.1-2.4-0.1-5.1,0.9-7c0.7-1.3,1.8-2.4,3.2-3
					l15.8-6.9l5.5,12.9l-16.2,7.1C120.3,115.8,119.4,115.9,118.5,115.9z M130.8,97.9l-14.1,6.1c-1,0.4-1.8,1.2-2.3,2.1
					c-0.7,1.2-1.6,3.6-0.8,5.3c0.5,1.2,1.8,2,3.7,2.5c1,0.2,2.1,0.1,3-0.3l14.5-6.3L130.8,97.9z"/>
			</g>
			<g>
				<g>
					<path class="st0" d="M158.4,136.5l0.3,28.8c0,0.3,0.3,0.4,0.5,0.3l15.9-7.7l-3.8-21.4H158.4z"/>
					<path class="st1" d="M159,166.7c-0.2,0-0.5-0.1-0.7-0.2c-0.4-0.3-0.7-0.7-0.7-1.2l-0.3-29.9h14.8l4.1,23l-16.6,8.1
						C159.5,166.6,159.3,166.7,159,166.7z M159.4,137.5l0.3,26.6l14.2-6.9l-3.5-19.7H159.4z"/>
				</g>
				<g>
					<path class="st0" d="M172.8,157.7c7.3-1.1,9.4,5.3,9.9,7.7c0.1,0.6-0.1,1.1-0.5,1.5c-1.8,1.6-9.8,5.1-22.4,0
						c-0.9-0.4-1.2-1.5-0.7-2.3C160.5,162.5,166.1,158.7,172.8,157.7z"/>
					<path class="st1" d="M172.3,170.7c-3.6,0-7.9-0.7-12.9-2.7c-0.7-0.3-1.3-0.9-1.5-1.7c-0.2-0.8-0.1-1.6,0.3-2.3
						c1.5-2.3,7.2-6.3,14.5-7.4c8.3-1.3,10.6,6.2,11.1,8.6c0.2,1-0.1,1.9-0.8,2.6C181.6,168.9,178,170.7,172.3,170.7z M174.3,158.7
						c-0.4,0-0.9,0-1.4,0.1l0,0c-6.2,0.9-11.6,4.4-13,6.4c-0.1,0.2-0.1,0.3-0.1,0.4c0,0.1,0.1,0.2,0.2,0.3c12,4.8,19.6,1.7,21.3,0.2
						c0.1-0.1,0.2-0.3,0.1-0.4C181.1,163.5,179.5,158.7,174.3,158.7z"/>
				</g>
				<g>
					<path class="st0" d="M172.8,145.1c0,0-6.5,4.1-14.7,0.7"/>
					<path class="st1" d="M164.7,148.3c-2.1,0-4.5-0.4-7.1-1.4l0.9-2.1c7.6,3.1,13.6-0.6,13.6-0.6l1.2,1.9
						C173.2,146.2,169.8,148.3,164.7,148.3z"/>
				</g>
				<g>
					<ellipse class="st0" cx="167.3" cy="146.9" rx="2" ry="3.4"/>
					<path class="st1" d="M167.3,151c-1.5,0-2.7-1.8-2.7-4.1s1.2-4.1,2.7-4.1c1.5,0,2.7,1.8,2.7,4.1S168.8,151,167.3,151z
						 M167.3,144.2c-0.5,0-1.2,1-1.2,2.7c0,1.6,0.7,2.7,1.2,2.7c0.5,0,1.2-1,1.2-2.7C168.5,145.3,167.8,144.2,167.3,144.2z"/>
				</g>
			</g>
			<g>
				<g>
					<path class="st0" d="M152,136.5l-0.3,28.8c0,0.3-0.3,0.4-0.5,0.3l-15.9-7.7l3.8-21.4H152z"/>
					<path class="st1" d="M151.4,166.7c-0.2,0-0.5-0.1-0.7-0.2l-16.6-8.1l4.1-23h14.8l-0.3,29.9c0,0.5-0.3,1-0.7,1.2
						C151.9,166.6,151.6,166.7,151.4,166.7z M136.5,157.2l14.2,6.9l0.3-26.6h-10.9L136.5,157.2z"/>
				</g>
				<g>
					<path class="st0" d="M137.6,157.7c-7.3-1.1-9.4,5.3-9.9,7.7c-0.1,0.6,0.1,1.1,0.5,1.5c1.8,1.6,9.8,5.1,22.4,0
						c0.9-0.4,1.2-1.5,0.7-2.3C149.9,162.5,144.4,158.7,137.6,157.7z"/>
					<path class="st1" d="M138.2,170.7c-5.7,0-9.3-1.8-10.6-3c-0.7-0.6-1-1.6-0.8-2.6c0.5-2.3,2.8-9.8,11.1-8.6
						c7.3,1.1,12.9,5.1,14.5,7.4c0.4,0.7,0.6,1.5,0.3,2.3c-0.2,0.8-0.8,1.4-1.5,1.7C146,170,141.7,170.7,138.2,170.7z M136.1,158.7
						c-5.1,0-6.8,4.8-7.2,7c0,0.2,0,0.3,0.1,0.4c1.7,1.5,9.3,4.7,21.3-0.2c0.1-0.1,0.2-0.2,0.2-0.3c0-0.1,0.1-0.2-0.1-0.4
						c-1.3-2-6.7-5.5-13-6.4h0C137,158.8,136.5,158.7,136.1,158.7z"/>
				</g>
				<g>
					<path class="st0" d="M137.6,145.1c0,0,6.5,4.1,14.7,0.7"/>
					<path class="st1" d="M145.7,148.3c-5,0-8.4-2.1-8.6-2.2l1.2-1.9l-0.6,0.9l0.6-1c0.2,0.2,6.1,3.7,13.6,0.6l0.9,2.1
						C150.2,147.9,147.8,148.3,145.7,148.3z"/>
				</g>
				<g>
					<ellipse class="st0" cx="143.1" cy="146.9" rx="2" ry="3.4"/>
					<path class="st1" d="M143.1,151c-1.5,0-2.7-1.8-2.7-4.1s1.2-4.1,2.7-4.1c1.5,0,2.7,1.8,2.7,4.1S144.6,151,143.1,151z
						 M143.1,144.2c-0.5,0-1.2,1-1.2,2.7c0,1.6,0.7,2.7,1.2,2.7c0.5,0,1.2-1,1.2-2.7C144.3,145.3,143.6,144.2,143.1,144.2z"/>
				</g>
			</g>
			<g>
				<path class="st1" d="M136.6,47.8c1.7,0,3.3,0,5,0c0.5,0,1-0.5,1-1c0-0.5-0.4-1-1-1c-1.7,0-3.3,0-5,0c-0.5,0-1,0.5-1,1
					C135.6,47.3,136,47.8,136.6,47.8L136.6,47.8z"/>
			</g>
			<g>
				<path class="st1" d="M164.4,47.8c1.7,0,3.3,0,5,0c0.5,0,1-0.5,1-1c0-0.5-0.4-1-1-1c-1.7,0-3.3,0-5,0c-0.5,0-1,0.5-1,1
					C163.4,47.3,163.8,47.8,164.4,47.8L164.4,47.8z"/>
			</g>
		</g>
	</g>
	<g>
		<g>
			<g>
				<path class="st1" d="M379.8,142.2c1.9,1.9,4.3,3.2,7,3.2c2.6,0.1,5.3-0.8,7.5-2.2c2.2-1.4,3.9-3.4,5.3-5.6
					c0.7-1.2,1.3-2.4,1.7-3.7c0.5-1.4,0.8-2.9,1.4-4.3c1.1-2.7,3.4-4.9,6.3-5.5c1.2-0.3,0.7-2.2-0.5-1.9c-2.4,0.6-4.6,2-6.1,4
					c-1.8,2.3-2.3,5.1-3.3,7.8c-1.7,4.6-5.5,8.6-10.5,9.5c-2.8,0.5-5.4-0.5-7.4-2.5C380.3,139.9,378.9,141.3,379.8,142.2
					L379.8,142.2z"/>
			</g>
			<g>
				<path class="st1" d="M378.8,147.1c3.6,4.4,10.4,4.3,15.2,2.2c2.5-1.1,4.8-2.8,6.6-4.9c1.9-2.4,3.1-5.2,4.4-7.9
					c0.7-1.6,1.4-3.2,2.4-4.6c0.7-1.1,1.9-2.5,3.4-2.2c1.2,0.2,1.8-1.7,0.5-1.9c-2.9-0.5-5,2-6.3,4.3c-1.4,2.7-2.5,5.6-4,8.3
					c-2.6,4.7-7.2,8.2-12.7,8.4c-3,0.1-6.1-0.6-8-3C379.4,144.7,378,146.1,378.8,147.1L378.8,147.1z"/>
			</g>
			<g>
				<path class="st1" d="M411.3,116.2c-1.9,1.2-3.2,3.1-3.6,5.4c-0.4,2.4,0.4,5,1.8,7c0.6,0.9,1.4,1.7,2.4,2.2
					c1.2,0.6,2.4,0.6,3.7,0.4c2.1-0.4,4.4-1.3,5.8-3c0.7-0.9,1.5-2.1,1.1-3.3c-0.2-0.6-0.7-1.1-1.4-1.3c-0.5-0.2-1.1,0-1.5-0.3
					c0.1,0.6,0.1,1.1,0.2,1.7c0.8-1,1.6-2.3,0.9-3.6c-0.7-1.3-2.3-1.2-3.6-1.4c0.2,0.5,0.4,1,0.6,1.6c0.5-0.8,0.9-1.6,1.2-2.4
					c0.3-0.8,0.5-1.6-0.1-2.3c-0.4-0.4-1-0.5-1.6-0.5c-0.2,0-0.5,0-0.7,0.1c-0.1,0-0.3,0-0.3,0c0.1-0.1,0.2,0.6,0.3,0.3
					c0-0.3-0.3-1.1-0.5-1.3c-0.4-0.5-0.9-0.6-1.5-0.6c-1.2,0.1-2.5,0.8-3.4,1.6c-1,0.9,0.5,2.4,1.5,1.5c0.3-0.3,0.7-0.5,1.1-0.7
					c0.3-0.2,0.7-0.2,1-0.4c-0.1,0,0,0,0.1,0c-0.2,0-0.4-0.2-0.5-0.4c0,0.1,0.1,0.3,0.1,0.4c0.1,0.4,0.2,0.8,0.5,1.1
					c0.6,0.7,1.5,0.5,2.3,0.5c0.1,0,0.4,0,0.3,0c-0.3-0.6-0.4-0.6-0.5-0.2c-0.1,0.2-0.1,0.3-0.2,0.5c-0.2,0.6-0.6,1.2-0.9,1.8
					c-0.3,0.5,0,1.5,0.6,1.6c0.4,0.1,0.8,0.1,1.2,0.2c0.2,0,0.9,0,1,0.2c0.3,0.3-0.3,0.9-0.5,1.1c-0.4,0.5-0.5,1.3,0.2,1.7
					c0.5,0.3,1,0.3,1.6,0.4c0.1,0,0.4,0.1,0.4,0.1c-0.2-0.2-0.1,0.1-0.2,0.2c-0.3,0.8-1,1.5-1.8,2c-1.6,1-4.2,2-6,1
					c-1.7-1-2.7-3.6-2.8-5.5c-0.1-2.1,0.8-4.1,2.6-5.3C413.5,117.3,412.5,115.5,411.3,116.2L411.3,116.2z"/>
			</g>
		</g>
		<path class="st1" d="M348.2,171.3c-2.6,0-5-0.5-6.5-1c-1.8-0.5-3.3-1.8-4-3.4c-1.6-3.5,1-6.1,2.6-6.9c0.2-0.1,0.3-0.2,0.5-0.3
			c2.7-1.8,4.3-5,4.3-8.5l0-4.9c-0.1-5.5-1.5-10.8-4.1-15.4c-1.2-2-2.1-3.2-2.2-3.2c-0.3-0.4-0.3-1,0.1-1.4c0.4-0.3,1-0.3,1.4,0.1
			c0,0.1,1.1,1.3,2.4,3.5c2.8,4.8,4.3,10.5,4.3,16.3l0,4.9c0,4.1-1.9,8-5.2,10.1c-0.2,0.1-0.4,0.3-0.6,0.4c-0.3,0.2-3,1.8-1.8,4.4
			c0.5,1.1,1.5,2,2.8,2.4c2.7,0.8,7.8,1.8,12.5-0.5c1.7-0.9,2.9-2.8,2.9-4.9l0.4-9.6c0.1-1.8,0.6-3.4,1.5-4.7
			c1.1-1.6,3.8-3.4,7.6-3.4c0.5,0,1,0.4,1,1s-0.4,1-1,1c-2.9,0-5.1,1.3-6,2.6c-0.7,1-1.1,2.3-1.2,3.7l-0.4,9.6
			c0,2.8-1.5,5.3-3.9,6.5C353.2,170.9,350.6,171.3,348.2,171.3z"/>
		<g>
			<path class="st0" d="M395.7,127.1c0,0-1,1.2-2.3,3.4c-2.7,4.8-4.1,10.3-4.2,15.8l0,4.9c0,3.7,1.7,7.3,4.7,9.3
				c0.2,0.1,0.4,0.2,0.6,0.4c0,0,3.8,2.1,2.2,5.7c-0.7,1.4-1.9,2.5-3.4,2.9c-2.7,0.8-8.2,1.9-13.2-0.6c-2.1-1.1-3.4-3.3-3.4-5.7
				l-0.4-9.6c-0.1-1.5-0.5-3-1.4-4.2c-1.1-1.5-4.2-3-7.5-3"/>
			<path class="st1" d="M387.1,171.3c-2.3,0-4.9-0.4-7.4-1.7c-2.4-1.2-3.9-3.8-3.9-6.6l-0.4-9.5c-0.1-1.4-0.5-2.7-1.2-3.7
				c-0.9-1.3-3.8-2.6-6.7-2.6c-0.5,0-1-0.4-1-1s0.4-1,1-1c3.3,0,6.9,1.5,8.2,3.4c0.9,1.3,1.5,3,1.5,4.7l0.4,9.6c0,2.1,1.1,4,2.9,4.9
				c4.7,2.4,9.8,1.4,12.5,0.5c1.3-0.4,2.3-1.3,2.8-2.4c1.2-2.7-1.5-4.3-1.8-4.4c-0.2-0.1-0.5-0.3-0.7-0.4c-3.2-2.1-5.2-6-5.2-10.1
				l0-4.9c0.1-5.8,1.5-11.5,4.3-16.3c1.3-2.2,2.3-3.5,2.4-3.5c0.3-0.4,0.9-0.5,1.4-0.1c0.4,0.3,0.5,0.9,0.1,1.4c0,0-1,1.2-2.2,3.2
				c-2.6,4.6-4,9.9-4.1,15.4l0,4.9c0,3.5,1.6,6.8,4.3,8.5c0.2,0.1,0.4,0.2,0.5,0.3c1.6,0.9,4.2,3.4,2.6,6.9c-0.7,1.6-2.2,2.9-4,3.4
				C392.1,170.8,389.7,171.3,387.1,171.3z"/>
		</g>
		<path class="st13" d="M405.3,99.2"/>
		<path class="st3" d="M368.2,24.5"/>
		<path class="st14" d="M342.3,35.1"/>
		<g>
			<g>
				<path class="st0" d="M351.2,136.2c-4.3-0.2-9.1-2.5-11.9-5.9c-0.1,0.8-0.1,1.5-0.2,2.3c-2.3-0.8-4.3-2.7-5.3-5
					c-0.5,0.7-1.1,1.4-1.6,2.1c-0.1,0.2-0.3,0.4-0.5,0.4c-0.2,0-0.4-0.2-0.5-0.4c-3.5-5.5-3.5-14.2-0.5-20l6.9-3.1l5.3,1.7l2.7,7
					c2.1,1,4.3,1.7,6.6,1.9c0.2,0,0.3,0,0.4,0.2c0.1,0.1,0,0.3-0.1,0.5c-0.3,0.6-0.8,1.1-1.3,1.5c2.4,0.7,5,0.8,7.5,0.3
					c-0.4,1-1.1,1.9-2.1,2.4c2.3,0.8,3.7,2.4,4.6,3.7c1.3,2,0.9,4.7-0.9,6.2c-0.9,0.7-2,1.3-3.1,1.6c-2.4,0.7-5-0.1-6.9-1.8
					c0,0.3,0,0.6,0,0.9"/>
				<g>
					<path class="st1" d="M351.2,135.2c-4.3-0.2-8.5-2.3-11.2-5.6c-0.6-0.7-1.6-0.1-1.6,0.7c-0.1,0.8-0.1,1.5-0.2,2.3
						c0.4-0.3,0.8-0.6,1.2-0.9c-2.2-0.8-3.8-2.5-4.7-4.6c-0.3-0.7-1.3-0.5-1.6,0c-0.3,0.4-0.5,0.7-0.8,1.1c-0.2,0.2-0.5,0.6-0.6,0.9
						c0,0.1-0.1,0.1-0.1,0.2c0.2,0,0.3,0,0.5,0c0,0-0.2-0.4-0.3-0.4c-0.2-0.3-0.3-0.6-0.5-0.9c-0.5-1.1-0.9-2.3-1.2-3.5
						c-0.6-2.5-0.7-5.2-0.5-7.8c0.1-1.2,0.4-2.5,0.7-3.6c0.2-0.6,0.4-1.2,0.6-1.7c0.1-0.3,0.2-0.5,0.3-0.8c0,0,0-0.1,0-0.1
						c0.1-0.2,0.1-0.2,0-0.1c0.1,0.3-0.2,0.1-0.1,0.1c0.3,0,0.9-0.4,1.2-0.5c0.7-0.3,1.4-0.6,2.1-0.9c1.2-0.5,2.4-1.1,3.6-1.6
						c-0.2,0-0.5,0.1-0.7,0.1c1.8,0.6,3.6,1.1,5.3,1.7c-0.2-0.2-0.4-0.4-0.7-0.7c0.8,2,1.5,3.9,2.3,5.9c0.1,0.3,0.3,0.7,0.4,1
						c0.3,0.8,1.2,1,2,1.3c1.2,0.5,2.4,0.8,3.7,1.1c0.3,0.1,0.6,0.1,0.9,0.1c0.2,0,0.9,0.2,1,0.1c-0.2-0.8-0.4-1-0.6-0.6
						c-0.1,0.1-0.2,0.2-0.3,0.3c-0.2,0.2-0.4,0.4-0.6,0.6c-0.6,0.5-0.6,1.5,0.2,1.7c2.6,0.8,5.3,0.9,8,0.3c-0.4-0.4-0.8-0.8-1.2-1.2
						c-0.3,0.8-0.9,1.4-1.7,1.8c-0.8,0.4-0.5,1.5,0.2,1.7c2.7,1,5.9,4.2,4.1,7.3c-0.8,1.5-2.8,2.5-4.5,2.6c-1.8,0.2-3.7-0.5-5.1-1.7
						c-0.6-0.5-1.6-0.2-1.6,0.7c0,0.3,0,0.6,0,0.9c0,1.2,1.9,1.2,1.9,0c0-0.3,0-0.6,0-0.9c-0.5,0.2-1.1,0.4-1.6,0.7
						c1.4,1.2,3.1,2,5,2.2c1.9,0.2,3.8-0.4,5.3-1.4c1.5-1,2.6-2.4,2.9-4.2c0.2-1.7-0.3-3.2-1.3-4.5c-1.2-1.6-2.8-2.8-4.7-3.5
						c0.1,0.6,0.2,1.1,0.2,1.7c1.2-0.6,2.1-1.7,2.6-2.9c0.3-0.7-0.5-1.3-1.2-1.2c-2.3,0.5-4.7,0.4-7-0.3c0.1,0.6,0.2,1.1,0.2,1.7
						c0.7-0.5,1.5-1.2,1.8-2.1c0.4-1-0.3-1.7-1.3-1.8c-2.1-0.2-4.2-0.8-6.1-1.7c0.1,0.2,0.3,0.4,0.4,0.6c-0.9-2.2-1.7-4.5-2.6-6.7
						c-0.2-0.4-0.3-0.8-0.8-1c-0.5-0.2-1-0.3-1.4-0.5c-1.3-0.4-2.5-0.9-3.8-1.2c-0.4-0.1-0.8,0.1-1.1,0.2c-0.5,0.2-1.1,0.5-1.6,0.7
						c-1.4,0.6-2.7,1.2-4.1,1.8c-0.3,0.1-0.6,0.2-0.8,0.4c-0.5,0.3-0.7,1.1-0.9,1.6c-0.2,0.6-0.5,1.1-0.6,1.7
						c-0.8,2.3-1.1,4.8-1.1,7.3c0,2.8,0.5,5.6,1.5,8.2c0.3,0.6,0.5,1.2,0.9,1.8c0.3,0.6,0.7,1.3,1.3,1.5c0.7,0.2,1.3-0.2,1.7-0.7
						c0.6-0.7,1.1-1.5,1.7-2.2c-0.5,0-1.1,0-1.6,0c1.1,2.5,3.3,4.5,5.9,5.4c0.6,0.2,1.2-0.3,1.2-0.9c0.1-0.8,0.1-1.5,0.2-2.3
						c-0.5,0.2-1.1,0.4-1.6,0.7c3,3.6,7.8,5.9,12.6,6.2C352.4,137.2,352.4,135.3,351.2,135.2L351.2,135.2z"/>
				</g>
			</g>
			<g>
				<path class="st1" d="M349.3,132.7c0.1,1.4,0.4,2.7,1.1,3.9c0.2,0.4,0.8,0.6,1.2,0.4c0.4-0.2,0.7-0.7,0.5-1.1c-0.3-1-0.5-2-0.8-3
					c0-0.1-0.1-0.3-0.1-0.4c-0.1-0.5-0.7-0.8-1.2-0.7c-0.5,0.2-0.8,0.6-0.7,1.2c0.3,1,0.5,2,0.8,3c0,0.1,0.1,0.3,0.1,0.4
					c0.6-0.2,1.1-0.5,1.7-0.7c-0.1-0.1-0.1-0.3-0.2-0.4c0,0,0-0.1-0.1-0.1c0-0.1,0-0.1,0,0.1c0,0-0.1-0.1-0.1-0.2
					c-0.1-0.3-0.2-0.5-0.3-0.8c-0.1-0.3-0.1-0.6-0.2-0.9c0-0.2,0,0.2,0,0c0-0.1,0-0.2,0-0.2c0-0.1,0-0.3,0-0.4c0-0.5-0.4-1-0.9-0.9
					C349.8,131.8,349.3,132.2,349.3,132.7z"/>
			</g>
		</g>
		<g>
			<g>
				<path class="st0" d="M382.6,136.2c4.3-0.2,9.1-2.5,11.9-5.9c0.1,0.8,0.1,1.5,0.2,2.3c2.3-0.8,4.3-2.7,5.3-5
					c0.5,0.7,1.1,1.4,1.6,2.1c0.1,0.2,0.3,0.4,0.5,0.4c0.2,0,0.4-0.2,0.5-0.4c3.5-5.5,3.5-14.2,0.5-20l-6.9-3.1l-5.3,1.7l-2.7,7
					c-2.1,1-4.3,1.7-6.6,1.9c-0.2,0-0.3,0-0.4,0.2c-0.1,0.1,0,0.3,0.1,0.5c0.3,0.6,0.8,1.1,1.3,1.5c-2.4,0.7-5,0.8-7.5,0.3
					c0.4,1,1.1,1.9,2.1,2.4c-2.3,0.8-3.7,2.4-4.6,3.7c-1.3,2-0.9,4.7,0.9,6.2c0.9,0.7,2,1.3,3.1,1.6c2.4,0.7,5-0.1,6.9-1.8
					c0,0.3,0,0.6,0,0.9"/>
				<g>
					<path class="st1" d="M382.6,137.1c4.7-0.2,9.5-2.5,12.6-6.2c-0.5-0.2-1.1-0.4-1.6-0.7c0.1,0.8,0.1,1.5,0.2,2.3
						c0,0.6,0.6,1.1,1.2,0.9c2.6-1,4.7-2.9,5.9-5.4c-0.5,0-1.1,0-1.6,0c0.5,0.6,1,1.3,1.4,1.9c0.4,0.5,0.8,1.1,1.5,1.1
						c1.2,0,1.8-1.6,2.2-2.5c1-2.3,1.6-4.7,1.8-7.1c0.2-2.5,0-5-0.5-7.4c-0.3-1.2-0.7-2.4-1.1-3.5c-0.3-0.6-0.5-1.4-1.2-1.7
						c-1.2-0.6-2.4-1.1-3.6-1.6c-1-0.5-2-1-3.1-1.4c-0.5-0.2-0.8-0.1-1.3,0.1c-0.7,0.2-1.4,0.4-2.1,0.7c-0.7,0.2-1.4,0.4-2.1,0.7
						c-0.5,0.2-1,0.3-1.3,0.9c-1,2.3-1.8,4.7-2.7,7c0.1-0.2,0.3-0.4,0.4-0.6c-1.9,0.9-4,1.5-6.1,1.7c-0.9,0.1-1.6,0.7-1.3,1.7
						c0.3,0.9,1.1,1.6,1.8,2.2c0.1-0.6,0.2-1.1,0.2-1.7c-2.3,0.7-4.6,0.8-7,0.3c-0.6-0.1-1.4,0.4-1.2,1.2c0.5,1.3,1.3,2.3,2.6,2.9
						c0.1-0.6,0.2-1.1,0.2-1.7c-3,1.2-6.1,3.9-6,7.4c0.1,3.7,4,6.3,7.5,6.3c2.1,0,4.1-0.9,5.7-2.3c-0.5-0.2-1.1-0.4-1.6-0.7
						c0,0.3,0,0.6,0,0.9c0,1.2,1.9,1.2,1.9,0c0-0.3,0-0.6,0-0.9c-0.1-0.8-1-1.2-1.6-0.7c-1.4,1.1-3.2,1.9-5,1.7
						c-1.7-0.1-3.7-1.2-4.6-2.6c-1.8-3.1,1.5-6.3,4.1-7.3c0.7-0.3,1-1.3,0.2-1.7c-0.8-0.4-1.4-1-1.7-1.8c-0.4,0.4-0.8,0.8-1.2,1.2
						c2.7,0.5,5.4,0.5,8-0.3c0.8-0.2,0.9-1.3,0.2-1.7c-0.2-0.2-0.4-0.4-0.6-0.6c-0.1-0.1-0.2-0.2-0.3-0.3c-0.2-0.4-0.4-0.3-0.6,0.6
						c0.2,0.1,0.8-0.1,1-0.1c0.3,0,0.5-0.1,0.8-0.1c1.3-0.2,2.5-0.6,3.7-1c0.8-0.3,1.8-0.5,2.1-1.4c0.1-0.3,0.3-0.7,0.4-1
						c0.8-2,1.5-3.9,2.3-5.9c-0.2,0.2-0.4,0.4-0.7,0.7c1.8-0.6,3.6-1.1,5.3-1.7c-0.2,0-0.5-0.1-0.7-0.1c2.2,1,4.4,2.1,6.7,3
						c0,0,0.1,0.1,0.1,0.1c0.2,0-0.2-0.3-0.2-0.1c0,0.2,0.3,0.6,0.4,0.8c0.1,0.3,0.2,0.6,0.3,0.9c0.4,1.2,0.7,2.4,0.9,3.7
						c0.4,2.5,0.4,5.1-0.1,7.6c-0.3,1.4-0.7,2.8-1.2,4.1c-0.1,0.3-0.3,0.6-0.4,0.9c-0.1,0.1-0.5,0.7-0.5,0.8c0.2,0,0.3,0,0.5,0
						c-0.1-0.1-0.1-0.2-0.2-0.3c-0.1-0.2-0.3-0.4-0.4-0.5c-0.3-0.4-0.6-0.9-1-1.3c-0.4-0.5-1.3-0.7-1.6,0c-0.9,2.1-2.6,3.8-4.7,4.6
						c0.4,0.3,0.8,0.6,1.2,0.9c-0.1-0.8-0.1-1.5-0.2-2.3c-0.1-0.7-1-1.3-1.6-0.7c-2.7,3.3-7,5.4-11.2,5.6
						C381.4,135.3,381.4,137.2,382.6,137.1L382.6,137.1z"/>
				</g>
			</g>
			<g>
				<path class="st1" d="M382.6,132.7c0,0.1,0,0.3,0,0.4c0,0.1,0,0.2,0,0.2c0,0.2,0-0.2,0,0c0,0.3-0.1,0.6-0.2,0.9
					c-0.1,0.3-0.2,0.6-0.3,0.8c0,0.1,0,0.1-0.1,0.2c0.1-0.3,0,0,0,0.1c-0.1,0.1-0.1,0.3-0.2,0.4c0.6,0.2,1.1,0.5,1.7,0.7
					c0.3-1,0.5-2,0.8-3c0-0.1,0.1-0.3,0.1-0.4c0.1-0.5-0.2-1-0.7-1.2c-0.5-0.1-1,0.1-1.2,0.7c-0.3,1-0.5,2-0.8,3
					c0,0.1-0.1,0.3-0.1,0.4c-0.1,0.5,0.1,0.9,0.5,1.1c0.4,0.2,1,0,1.2-0.4c0.6-1.2,1-2.6,1.1-3.9c0-0.5-0.4-1-0.9-0.9
					C383,131.8,382.6,132.2,382.6,132.7z"/>
			</g>
		</g>
		<g>
			<path class="st0" d="M393.8,91.3c4.3,1.4,10.1,3.9,13.2,7.2c3.1,3.3,4.9,7.9,3.9,12.3c-1.5-0.9-3.1-1.6-4.7-2.2
				c-0.7-0.2-1.4-0.5-2,0c-0.5,0.3-0.6,1-0.6,1.5c-0.2,1.3-0.3,2.6-0.5,3.9c-2.9-1-5.8-2-8.7-3c-0.5-0.2-1-0.3-1.4-0.1
				c-0.9,0.5-0.2,2-0.6,2.9c-0.3,0.7-1.2,1-2,0.9s-1.5-0.5-2.1-0.9c-2-1.1-4.1-1.8-6.4-2.1"/>
			<g>
				<path class="st1" d="M393.6,92.2c4.1,1.3,8.5,3.1,11.8,6c3.4,3,5.6,7.8,4.6,12.3c0.5-0.2,0.9-0.4,1.4-0.6
					c-1.1-0.6-2.3-1.2-3.5-1.8c-1-0.5-2.3-1.1-3.5-0.8c-1.1,0.3-1.6,1.3-1.7,2.3c-0.2,1.4-0.3,2.8-0.5,4.2c0.4-0.3,0.8-0.6,1.2-0.9
					c-2.4-0.8-4.7-1.6-7.1-2.5c-1-0.3-2.3-1-3.3-0.7c-0.9,0.3-1.3,1.1-1.4,2c0,0.6,0.3,1.6-0.4,1.9c-0.8,0.4-1.8-0.4-2.5-0.7
					c-2-1.1-4.2-1.8-6.5-2.1c-0.5-0.1-1,0.1-1.2,0.7c-0.1,0.4,0.2,1.1,0.7,1.2c2.2,0.3,4.3,1,6.3,2.1c0.9,0.5,1.9,1,2.9,0.9
					c0.9-0.1,1.8-0.5,2.2-1.3c0.4-0.8,0.3-1.6,0.3-2.4c0-0.4,0.2-0.3,0.5-0.2c0.6,0.2,1.1,0.4,1.7,0.6c2.4,0.8,4.8,1.7,7.2,2.5
					c0.6,0.2,1.1-0.3,1.2-0.9c0.1-1,0.2-2,0.4-3c0.1-0.4,0.1-0.9,0.2-1.3c0.1-0.3,0.3-0.3,0.6-0.3c0.9,0.1,1.8,0.6,2.5,1
					c0.9,0.4,1.8,0.9,2.7,1.4c0.5,0.3,1.3,0,1.4-0.6c0.9-4-0.3-8.2-2.7-11.5c-2.3-3.1-5.6-5.2-9.1-6.8c-1.9-0.9-3.9-1.7-6-2.4
					C392.9,90,392.4,91.8,393.6,92.2L393.6,92.2z"/>
			</g>
		</g>
		<g>
			<path class="st0" d="M339.5,91.2c-4.3,1.4-10.1,3.9-13.2,7.2c-3.1,3.3-4.9,7.9-3.9,12.3c1.5-0.9,3.1-1.6,4.7-2.2
				c0.7-0.2,1.4-0.5,2,0c0.5,0.3,0.6,1,0.6,1.5c0.2,1.3,0.3,2.6,0.5,3.9c2.9-1,5.8-2,8.7-3c0.5-0.2,1-0.3,1.4-0.1
				c0.9,0.5,0.2,2,0.6,2.9c0.3,0.7,1.2,1,2,0.9c0.8-0.1,1.5-0.5,2.1-0.9c2-1.1,4.1-1.8,6.4-2.1"/>
			<g>
				<path class="st1" d="M339.3,90.2c-3.6,1.2-7.3,2.7-10.5,4.9c-3.2,2.2-5.8,5.3-6.9,9c-0.7,2.2-0.8,4.5-0.3,6.7
					c0.1,0.6,0.9,0.8,1.4,0.6c0.8-0.5,1.7-0.9,2.6-1.3c0.8-0.4,1.8-0.9,2.7-1c0.8-0.1,0.7,0.9,0.8,1.5c0.1,1.1,0.3,2.1,0.4,3.2
					c0.1,0.6,0.6,1.1,1.2,0.9c2.4-0.8,4.7-1.6,7.1-2.5c0.6-0.2,1.2-0.4,1.8-0.6c0.4-0.1,0.5-0.2,0.5,0.2c0.1,0.8-0.1,1.7,0.3,2.4
					c1.1,2,3.5,1.3,5,0.5c2-1.1,4.2-1.8,6.4-2.2c0.5-0.1,0.8-0.7,0.7-1.2c-0.1-0.5-0.7-0.7-1.2-0.7c-2.2,0.3-4.4,1-6.4,2.1
					c-0.7,0.4-1.8,1.2-2.6,0.8c-0.7-0.3-0.3-1.3-0.4-1.9c-0.1-0.9-0.5-1.7-1.4-2c-1-0.3-2.2,0.3-3.2,0.6c-2.4,0.8-4.8,1.7-7.2,2.5
					c0.4,0.3,0.8,0.6,1.2,0.9c-0.2-1.3-0.3-2.7-0.5-4c-0.1-1.1-0.6-2.2-1.7-2.5c-1.1-0.3-2.3,0.3-3.4,0.8c-1.2,0.5-2.5,1.1-3.6,1.8
					c0.5,0.2,0.9,0.4,1.4,0.6c-1-4.5,1.2-9.3,4.6-12.3c3.3-2.9,7.7-4.7,11.8-6C340.9,91.7,340.4,89.9,339.3,90.2L339.3,90.2z"/>
			</g>
		</g>
		<g>
			<path class="st0" d="M365,26.2c0,0-6.6-8-17.4-2.5c0,0,1.9,1.1,2.7,3.8c0,0-32-0.8-22.7,50.8c0,0,0.5-2,3.2-2.5
				c0,0-1.6,12.9,5.6,19.1c0,0-1.3-3.6,1.3-4.5c0,0,3.4,9.5,15.6,9.5c0,0,10.6-0.9,12.2,5.1c0,0,6.3-5.5,14.6-5.8
				c2.6-0.1,5.1-0.6,7.4-1.6c3.4-1.6,7.5-4.3,7.9-8.4c0,0,2.7,3,2.1,4.8c0,0,4.8-4.8,5-15.9c0,0,2.4,0,2.9,3.1c0,0,9-46.3-23.5-54.8
				c0,0,0.5-2.5,3.4-2.9C385.5,23.3,373.1,19.1,365,26.2z"/>
			<path class="st1" d="M365.7,105.8c-0.1,0-0.2,0-0.3,0c-0.3-0.1-0.6-0.4-0.7-0.7c-1.4-5.1-11.1-4.4-11.2-4.4c0,0-0.1,0-0.1,0
				c-10.1,0-14.6-6.3-16-8.9c-0.6,1,0,2.7,0,2.7c0.1,0.4,0,0.9-0.4,1.1c-0.4,0.3-0.9,0.2-1.2-0.1c-6.1-5.2-6.3-14.7-6.1-18.4
				c-0.9,0.6-1.1,1.3-1.2,1.3c-0.1,0.4-0.5,0.8-1,0.7c-0.5,0-0.8-0.3-0.9-0.8c-3.6-19.9-1.6-34.5,6-43.4c5.8-6.8,13.1-8.2,16.2-8.4
				c-0.8-1.4-1.8-2-1.8-2c-0.3-0.2-0.5-0.5-0.5-0.9c0-0.4,0.2-0.7,0.5-0.9c9.3-4.7,15.8,0.2,17.9,2.1c8.4-6.6,20.2-2.7,20.7-2.5
				c0.4,0.1,0.7,0.6,0.7,1c0,0.5-0.4,0.8-0.9,0.9c-1.2,0.1-1.8,0.7-2.2,1.3c13.1,3.8,21.2,14.6,23.6,31.1
				c1.8,12.7-0.3,24.1-0.4,24.5c-0.1,0.5-0.5,0.8-1,0.8c-0.5,0-0.9-0.4-1-0.8c-0.2-1-0.6-1.6-1-1.9c-0.5,10.4-5,15.1-5.2,15.3
				c-0.3,0.3-0.8,0.4-1.2,0.1c-0.4-0.2-0.6-0.7-0.4-1.2c0.2-0.5-0.2-1.4-0.7-2.3c-1.1,2.8-3.8,5.2-7.9,7.1c-2.3,1.1-4.9,1.6-7.8,1.7
				c-7.8,0.2-13.9,5.5-14,5.5C366.1,105.7,365.9,105.8,365.7,105.8z M354.9,98.6c2.9,0,9,0.5,11.2,4.5c2.2-1.6,7.6-5,14.1-5.1
				c2.6-0.1,5-0.6,7-1.5c3.1-1.5,6.9-4,7.3-7.7c0-0.4,0.3-0.7,0.7-0.8c0.4-0.1,0.8,0,1,0.3c0.3,0.3,1.4,1.6,2,3
				c1.4-2.3,3.3-6.6,3.4-13.4c0-0.5,0.4-1,1-1c0.6,0,1.6,0.2,2.4,1c0.5-4.2,1.2-12.4,0-21c-2.4-16.3-10.2-26.3-23.2-29.7
				c-0.5-0.1-0.8-0.6-0.7-1.1c0.1-0.6,0.5-1.6,1.4-2.4c-3.9-0.8-11.5-1.4-16.8,3.4c-0.2,0.2-0.5,0.3-0.7,0.2c-0.3,0-0.5-0.1-0.7-0.4
				c-0.3-0.3-5.7-6.7-14.8-2.9c0.7,0.7,1.4,1.8,1.9,3.3c0.1,0.3,0,0.6-0.2,0.9c-0.2,0.3-0.5,0.4-0.8,0.4c-0.1,0-9.4-0.1-16.1,7.8
				c-6.9,8.1-8.9,21.4-6,39.5c0.6-0.5,1.4-0.9,2.4-1.1c0.3-0.1,0.6,0,0.9,0.2c0.2,0.2,0.3,0.5,0.3,0.8c0,0.1-1.2,10,3.4,16.2
				c0.2-1.3,1-2.3,2.2-2.7c0.5-0.2,1.1,0.1,1.3,0.6c0.1,0.4,3.3,8.8,14.6,8.8C353.6,98.7,354.1,98.6,354.9,98.6z"/>
		</g>
		<g>
			<path class="st0" d="M401.8,52.9c4.6-3.6,6.6-9.8,3.4-14.8c-3.1-5.1-10.2-7.1-14.8-3.5"/>
			<path class="st1" d="M401.8,53.9c-0.3,0-0.6-0.1-0.8-0.4c-0.3-0.4-0.3-1.1,0.2-1.4c4.6-3.6,5.9-9.2,3.2-13.5
				c-1.5-2.5-4.2-4.2-7-4.7c-2.4-0.4-4.6,0.1-6.3,1.5c-0.4,0.3-1.1,0.3-1.4-0.2c-0.3-0.4-0.3-1.1,0.2-1.4c2.2-1.7,5-2.4,7.9-1.9
				c3.4,0.6,6.5,2.7,8.4,5.6c3.2,5.1,1.7,11.9-3.6,16.1C402.2,53.8,402,53.9,401.8,53.9z"/>
		</g>
		<g>
			<path class="st0" d="M330.3,52.9c-4.6-3.6-6.6-9.8-3.4-14.8c3.1-5.1,10.2-7.1,14.8-3.5"/>
			<path class="st1" d="M330.3,53.9c-0.2,0-0.4-0.1-0.6-0.2c-5.3-4.2-6.8-11-3.6-16.1c1.8-2.9,5-5,8.4-5.6c2.9-0.5,5.7,0.2,7.9,1.9
				c0.4,0.3,0.5,1,0.2,1.4c-0.3,0.4-1,0.5-1.4,0.2c-1.7-1.4-4-1.9-6.3-1.5c-2.9,0.5-5.5,2.3-7,4.7c-2.7,4.3-1.4,9.9,3.2,13.5
				c0.4,0.3,0.5,1,0.2,1.4C330.9,53.8,330.6,53.9,330.3,53.9z"/>
		</g>
		<path class="st1" d="M368.3,94.2c-0.2,0-0.3,0-0.3,0c-0.1,0-0.3,0-0.4,0c-20,0-27.8-11.1-28.5-12.1c-3.2-3.9-3.5-7.6-3.1-10.1
			c0.3-1.9,1.2-3.8,2.6-5.5c3.6-4.4,2.6-9.9,2.6-10c-0.1-0.3,0-0.5,0.2-0.7c0.1-0.2,0.4-0.4,0.6-0.4c7.3-1.4,9.4-10.3,9.5-10.4
			c0.1-0.4,0.4-0.7,0.8-0.8c0.4-0.1,0.8,0.2,1,0.5c3.9,7.2,16.3,9.4,21.4,10.1c-2.2-3.6-2.2-8.3-2.2-8.5c0-0.4,0.3-0.8,0.7-1
			c0.4-0.1,0.9,0,1.1,0.4c4.7,7.3,16.2,8.2,16.3,8.2c0.3,0,0.6,0.2,0.7,0.4c0.2,0.2,0.2,0.5,0.2,0.8c-0.6,2.7,0.1,5.7,0.8,7.8
			c0.3,1,0.8,2.1,1.5,3.2l0.1,0.1c2.1,3.6,2.4,8.4,0.8,12.8C389.5,93.7,370.8,94.2,368.3,94.2z M368.1,92.2
			c0.2,0,19.7,0.4,24.8-13.8c1.4-3.8,1.1-8-0.7-11.1l-0.1-0.1c-0.7-1.3-1.3-2.4-1.7-3.6c-0.7-2-1.3-5-1-7.8
			c-2.7-0.3-9.8-1.6-14.6-6.3c0.4,1.9,1.2,4.2,2.7,5.8c0.3,0.3,0.4,0.7,0.2,1.1c-0.2,0.4-0.6,0.6-1,0.6c-0.8,0-17.5-1.1-24.1-9.5
			c-1.1,2.9-3.8,8.1-9.5,9.6c0.2,2,0.2,6.7-3.2,10.7c-1.2,1.4-1.9,3-2.2,4.6c-0.5,3,0.4,5.9,2.7,8.5c0,0,0.1,0.1,0.1,0.1
			c0.1,0.1,7.4,11.3,26.9,11.3C367.8,92.2,367.9,92.2,368.1,92.2z"/>
		<g>
			<defs>
				<path id="SVGID_00000158027257520443349700000001019422870122373765_" d="M367.3,86.1c-2.7,0-7.7-1.3-8-6.2
					c0-0.1-0.1-2.1,1.4-3.2c1.1-0.8,2.6-0.8,4.6-0.1c0.3,0.1,2.8,0.7,4.8-0.2c0.3-0.2,1.5-0.8,2.8-0.4c0.9,0.3,1.6,1,2,2.2
					c0,0.1,1,3-0.7,5.2C373,85.1,370.7,86.1,367.3,86.1C367.3,86.1,367.3,86.1,367.3,86.1z M362.8,77.8c-0.4,0-0.8,0.1-1.1,0.3
					c-0.7,0.5-0.7,1.7-0.7,1.7c0.2,4.4,6,4.5,6.2,4.4c2.7,0,4.6-0.7,5.5-1.9c1.1-1.5,0.5-3.6,0.5-3.6c-0.2-0.6-0.5-1-0.9-1.1
					c-0.5-0.2-1.2,0.2-1.3,0.3c0,0-0.1,0-0.1,0.1c-2.8,1.3-6,0.3-6.1,0.3c0,0,0,0-0.1,0C364,78,363.4,77.8,362.8,77.8z"/>
			</defs>
			<use xlink:href="#SVGID_00000158027257520443349700000001019422870122373765_"  style="overflow:visible;fill:#231F20;"/>
			<clipPath id="SVGID_00000080171408881879372110000016345031620052804749_">
				<use xlink:href="#SVGID_00000158027257520443349700000001019422870122373765_"  style="overflow:visible;"/>
			</clipPath>
			<path style="clip-path:url(#SVGID_00000080171408881879372110000016345031620052804749_);fill:#231F20;" d="M374.1,86.4
				c-0.3,0-0.5-0.1-0.7-0.4c-1.8-2.3-3.8-3.6-6-3.8c-3.9-0.3-7.3,2.8-7.3,2.8c-0.4,0.3-0.9,0.3-1.3,0c-0.3-0.4-0.3-0.9,0-1.3
				c0.2-0.1,4-3.7,8.7-3.3c2.8,0.2,5.2,1.8,7.3,4.5c0.3,0.4,0.2,1-0.2,1.3C374.4,86.3,374.2,86.4,374.1,86.4z"/>
		</g>
		<path class="st1" d="M366.3,89c-3.5,0-6.3-0.9-8.2-2.7c-2.6-2.4-2.6-5.5-2.6-5.7c0-10.9,7-13.3,10-13.9c1.6-0.3,3.3-0.2,4.8,0.3
			l0,0c8.1,2.4,8.4,11.9,8.5,12.6c0.1,2.2-0.5,4.1-1.8,5.6c-3,3.4-8.7,3.6-8.9,3.6C367.5,89,366.9,89,366.3,89z M367.4,68.6
			c-0.5,0-1,0-1.5,0.1c-3.1,0.6-8.4,2.9-8.4,11.9c0,0,0,2.4,2,4.2c1.8,1.7,4.7,2.4,8.5,2.1c0.1,0,5.1-0.2,7.6-3
			c1-1.1,1.4-2.5,1.3-4.2c0,0,0,0,0-0.1c0-0.4-0.1-8.7-7.1-10.8l0,0C369,68.7,368.2,68.6,367.4,68.6z"/>
		<g>
			<path class="st0" d="M366.1,65.5c-1.5,1.4-3.6,3.9-3.6,6.8c0,0.9,0.5,1.7,1.2,2.1c1.5,0.8,4.2,1.7,7.5-0.2
				c0.9-0.5,1.3-1.6,1.1-2.6c-0.4-1.8-1.3-4.6-3.1-6.2C368.3,64.6,366.9,64.6,366.1,65.5z"/>
			<path class="st1" d="M367.3,76.3c-1.7,0-3.1-0.6-4-1.1c-1.1-0.6-1.8-1.7-1.8-2.9c0-3.2,2.1-5.9,3.9-7.6c1.2-1.2,3.2-1.2,4.5-0.1
				c1.9,1.7,2.9,4.6,3.4,6.7c0.3,1.4-0.3,2.9-1.6,3.6C370.1,76,368.6,76.3,367.3,76.3z M367.7,65.8c-0.3,0-0.7,0.1-0.9,0.4l0,0
				c-1.2,1.2-3.3,3.5-3.3,6.1c0,0.5,0.3,1,0.7,1.2c1.5,0.8,3.8,1.4,6.5-0.2c0.5-0.3,0.8-0.9,0.6-1.5c-0.3-1.5-1.2-4.3-2.8-5.7
				C368.3,65.9,368,65.8,367.7,65.8z M366.1,65.5L366.1,65.5L366.1,65.5z"/>
		</g>
		<g>
			<g>
				<circle class="st4" cx="352.2" cy="65" r="4.7"/>
				<circle class="st0" cx="351.2" cy="63.9" r="2.4"/>
			</g>
			<g>
				<circle class="st4" cx="380.8" cy="65" r="4.7"/>
				<circle class="st0" cx="379.7" cy="63.9" r="2.4"/>
			</g>
		</g>
		<g>
			<path class="st1" d="M349.9,75.5c0.8,0,0.8-1.3,0-1.3C349.1,74.2,349.1,75.5,349.9,75.5L349.9,75.5z"/>
		</g>
		<g>
			<path class="st1" d="M352.1,77c0.8,0,0.8-1.3,0-1.3C351.3,75.8,351.3,77,352.1,77L352.1,77z"/>
		</g>
		<g>
			<path class="st1" d="M349.6,79.8c0.8,0,0.8-1.3,0-1.3C348.8,78.5,348.8,79.8,349.6,79.8L349.6,79.8z"/>
		</g>
		<g>
			<path class="st1" d="M346.7,77.3c0.8,0,0.8-1.3,0-1.3C345.9,76,345.9,77.3,346.7,77.3L346.7,77.3z"/>
		</g>
		<g>
			<path class="st1" d="M345.8,80.2c0.8,0,0.8-1.3,0-1.3C345,79,345,80.2,345.8,80.2L345.8,80.2z"/>
		</g>
		<g>
			<path class="st1" d="M383.9,75.5c0.8,0,0.8-1.3,0-1.3C383.1,74.2,383.1,75.5,383.9,75.5L383.9,75.5z"/>
		</g>
		<g>
			<path class="st1" d="M381.6,77c0.8,0,0.8-1.3,0-1.3C380.8,75.8,380.8,77,381.6,77L381.6,77z"/>
		</g>
		<g>
			<path class="st1" d="M384.1,79.8c0.8,0,0.8-1.3,0-1.3C383.3,78.5,383.3,79.8,384.1,79.8L384.1,79.8z"/>
		</g>
		<g>
			<path class="st1" d="M387.1,77.3c0.8,0,0.8-1.3,0-1.3C386.3,76,386.3,77.3,387.1,77.3L387.1,77.3z"/>
		</g>
		<g>
			<path class="st1" d="M388,80.2c0.8,0,0.8-1.3,0-1.3C387.2,79,387.2,80.2,388,80.2L388,80.2z"/>
		</g>
	</g>
</g>
</svg>
