<?xml version="1.0" encoding="utf-8"?>
<!-- Generator: Adobe Illustrator 26.5.0, SVG Export Plug-In . SVG Version: 6.00 Build 0)  -->
<svg version="1.1" id="Layer_1" xmlns="http://www.w3.org/2000/svg" xmlns:xlink="http://www.w3.org/1999/xlink" x="0px" y="0px"
	 viewBox="0 0 87 87" style="enable-background:new 0 0 87 87;" xml:space="preserve">
<style type="text/css">
	.st0{fill:#FFFFFF;stroke:#815130;stroke-width:2;stroke-linecap:round;stroke-linejoin:round;stroke-miterlimit:10;}
	.st1{fill:#FFE79A;}
	.st2{fill:none;stroke:#815130;stroke-width:2;stroke-linecap:round;stroke-linejoin:round;stroke-miterlimit:10;}
	.st3{fill:#EFEFEF;}
	.st4{fill:none;stroke:#EFEFEF;stroke-width:2;stroke-miterlimit:10;}
	.st5{fill:none;stroke:#815130;stroke-width:3;stroke-linecap:round;stroke-linejoin:round;stroke-miterlimit:10;}
</style>
<g>
	<rect x="1" y="1" class="st0" width="85" height="85"/>
	<g id="XMLID_5_">
		<g>
			<path class="st1" d="M71.8,47.4c-1.4,1.4-3.1,2.5-5.1,3.2c-0.9,0.3-1.9,0.5-2.9,0.7L43.9,66.8c-0.5,1-0.9,1.8-1.5,2.6
				c-4.2,6-11.9,7.4-17.8,3.1c-6-4.2-7.4-12.5-3.1-18.5c0.6-0.8,1.2-1.6,2-2.3c-1-0.1-2.1-0.3-3-0.6c-6.9-2.2-10.9-10-8.7-17
				c2.2-7,9.6-10.9,16.6-8.7c0.9,0.3,1.9,0.7,2.8,1.2c-0.2-1-0.3-2-0.3-3c-0.1-7.4,5.2-13.3,12.5-13.4c7.3-0.1,12.4,5.7,12.5,13.1
				c0,1-0.1,2-0.3,3c0.9-0.5,1.8-0.9,2.8-1.3c6.9-2.3,14.5,1.4,16.8,8.3C76.7,38.4,75.3,43.9,71.8,47.4z"/>
		</g>
		<g>
			<path class="st2" d="M63.8,51.3c1-0.1,2-0.4,2.9-0.7c2-0.7,3.7-1.8,5.1-3.2c3.5-3.5,4.9-9,3.2-14c-2.3-6.9-9.9-10.6-16.8-8.3
				c-0.9,0.3-1.8,0.7-2.8,1.3c0.2-1,0.3-2,0.3-3c-0.1-7.4-5.2-13.2-12.5-13.1c-7.3,0.1-12.6,6-12.5,13.4c0,1,0.1,2,0.3,3
				c-0.9-0.5-1.9-0.9-2.8-1.2c-7-2.2-14.4,1.7-16.6,8.7c-2.2,7.1,1.8,14.9,8.7,17c0.9,0.3,1.9,0.5,3,0.6c-0.8,0.7-1.4,1.5-2,2.3
				c-4.2,6-2.8,14.3,3.1,18.5c6,4.2,13.6,2.8,17.8-3.1c0.6-0.8,1.1-1.7,1.5-2.6L63.8,51.3z"/>
		</g>
	</g>
	<g id="XMLID_6_">
		<g>
			<path class="st3" d="M44.5,69.4c4.2,6,11.9,7.4,17.9,3.1c6-4.2,7.4-12.5,3.2-18.5L44.5,69.4z"/>
		</g>
		<g>
			<path class="st4" d="M44.5,69.4c4.2,6,11.9,7.4,17.9,3.1c6-4.2,7.4-12.5,3.2-18.5L44.5,69.4z"/>
		</g>
	</g>
	<path class="st0" d="M64.7,53.8L44.9,69.3c0,0-7.1-5.9-4.2-13.9c2-5.4,7.2-9.1,13-8.8C57.1,46.8,61.2,48.4,64.7,53.8z"/>
	<path class="st5" d="M44.5,69.4"/>
</g>
</svg>
