<?xml version="1.0" encoding="utf-8"?>
<!-- Generator: Adobe Illustrator 26.5.0, SVG Export Plug-In . SVG Version: 6.00 Build 0)  -->
<svg version="1.1" id="Layer_1" xmlns="http://www.w3.org/2000/svg" xmlns:xlink="http://www.w3.org/1999/xlink" x="0px" y="0px"
	 viewBox="0 0 88.4 82" style="enable-background:new 0 0 88.4 82;" xml:space="preserve">
<style type="text/css">
	.st0{fill:#FFFFFF;}
	.st1{fill:none;stroke:#815130;stroke-width:2;stroke-miterlimit:10;}
	.st2{fill:none;stroke:#815130;stroke-width:2;stroke-linecap:round;stroke-linejoin:round;stroke-miterlimit:10;}
	.st3{fill:#FFE79A;stroke:#815130;stroke-width:2;stroke-linecap:round;stroke-linejoin:round;stroke-miterlimit:10;}
	.st4{fill:#815130;}
	.st5{fill:none;stroke:#815130;stroke-width:2;stroke-linejoin:round;stroke-miterlimit:10;}
	.st6{fill:#815130;stroke:#815130;stroke-width:2;stroke-linejoin:round;stroke-miterlimit:10;}
</style>
<g>
	<path class="st0" d="M7.5,52.5h73.3c8.7-1.1,6.5,2.9,6.5,6.5l0,0c0,3.6-2.9,6.5-6.5,6.5H7.5C3.9,65.6,1,62.6,1,59l0,0
		C1,55.4-0.1,51.3,7.5,52.5z"/>
	<path class="st1" d="M1,46.9v13.3c0,2.9,3.2,5.3,7.1,5.3h72.2c3.9,0,7.1-2.4,7.1-5.3V6.3c0-2.9-3.2-5.3-7.1-5.3H8.1
		C4.2,1,1,3.4,1,6.3v6.2V46.9z"/>
	<line class="st1" x1="87.4" y1="52.5" x2="1" y2="52.5"/>
	<polyline class="st2" points="48.3,65.6 48.3,75.8 40.7,75.8 40.7,65.6 	"/>
	<path class="st2" d="M61.2,81L61.2,81c0-2.9-2.5-5.2-5.6-5.2H32.8c-3.1,0-5.6,2.3-5.6,5.2l0,0H61.2z"/>
	<polygon class="st3" points="17.9,52.1 17.9,28.6 23.6,28.6 29.4,28.6 29.4,52.1 	"/>
	<line class="st1" x1="23.6" y1="52.5" x2="23.6" y2="28.6"/>
	<path class="st3" d="M44.2,17.1l-4.1,7.2c-1.2,2-1.5,4.5-0.6,6.7c0.7,1.7,2,3.3,4.7,3.3c0,0,6.1,0.7,5.7-5.8
		c-0.1-1.8-0.7-3.6-1.7-5.1L44.2,17.1z"/>
	<path class="st1" d="M41,33.2c0,0-1.2,12-0.8,18.9h8.3c0,0,0.2-11-1.2-18.2C47.3,33.8,43.1,35.6,41,33.2z"/>
	<line class="st1" x1="39.8" y1="45.9" x2="48.7" y2="45.9"/>
	<polyline class="st3" points="58.7,52.1 58.7,17.1 70.3,17.1 70.3,52.1 	"/>
	<path class="st4" d="M69.4,24h-1.8c-0.8,0-1.4-0.6-1.4-1.4l0,0c0-0.8,0.6-1.4,1.4-1.4h1.8c0.8,0,1.4,0.6,1.4,1.4l0,0
		C70.8,23.3,70.1,24,69.4,24z"/>
	<path class="st4" d="M69.4,31.4h-1.8c-0.8,0-1.4-0.6-1.4-1.4l0,0c0-0.8,0.6-1.4,1.4-1.4h1.8c0.8,0,1.4,0.6,1.4,1.4l0,0
		C70.8,30.8,70.1,31.4,69.4,31.4z"/>
	<path class="st4" d="M69.4,38.8h-1.8c-0.8,0-1.4-0.6-1.4-1.4l0,0c0-0.8,0.6-1.4,1.4-1.4h1.8c0.8,0,1.4,0.6,1.4,1.4l0,0
		C70.8,38.2,70.1,38.8,69.4,38.8z"/>
	<path class="st4" d="M69.4,46.2h-1.8c-0.8,0-1.4-0.6-1.4-1.4l0,0c0-0.8,0.6-1.4,1.4-1.4h1.8c0.8,0,1.4,0.6,1.4,1.4l0,0
		C70.8,45.6,70.1,46.2,69.4,46.2z"/>
	<polygon class="st5" points="29.4,27.8 23.6,16.1 17.9,27.8 	"/>
	<polyline class="st6" points="25.7,20.3 23.6,17.1 21.6,20.2 25.6,20.2 	"/>
</g>
</svg>
