<?xml version="1.0" encoding="utf-8"?>
<!-- Generator: Adobe Illustrator 26.5.0, SVG Export Plug-In . SVG Version: 6.00 Build 0)  -->
<svg version="1.1" id="Layer_1" xmlns="http://www.w3.org/2000/svg" xmlns:xlink="http://www.w3.org/1999/xlink" x="0px" y="0px"
	 viewBox="0 0 97 82.4" style="enable-background:new 0 0 97 82.4;" xml:space="preserve">
<style type="text/css">
	.st0{fill:none;stroke:#815130;stroke-width:2;stroke-linecap:round;stroke-linejoin:round;stroke-miterlimit:10;}
	.st1{fill:#FFFFFF;stroke:#815130;stroke-width:2;stroke-linecap:round;stroke-linejoin:round;stroke-miterlimit:10;}
	.st2{fill:#FFE79A;}
	.st3{fill:none;stroke:#815130;stroke-width:1.5;stroke-linecap:round;stroke-linejoin:round;stroke-miterlimit:10;}
	.st4{fill:#FFE79A;stroke:#815130;stroke-width:2;stroke-linecap:round;stroke-linejoin:round;stroke-miterlimit:10;}
	.st5{fill:none;stroke:#815130;stroke-width:2;stroke-miterlimit:10;}
</style>
<g>
	<g>
		<path class="st0" d="M31.1,40.9c0,0,1.3,0,2.3,0.7c0.8,0.5,1.9,0.6,2.7,0.1l0,0c0,0,1.5-1.6,3.6-0.5c0.5,0.3,1.1,0.6,1.7,0.7
			c0.4,0.1,0.8,0.2,1.9-0.5c0,0,1.8-1.7,3.9-0.2c0.4,0.3,0.9,0.5,1.4,0.5l0.2,0c0.6,0,1.1-0.3,1.6-0.6c0.3-0.3,0.9-0.5,1.6-0.5"/>
		<path class="st0" d="M31.1,51.3c0,0,1.3,0,2.3,0.7c0.8,0.5,1.9,0.6,2.7,0.1l0,0c0,0,1.5-1.6,3.6-0.5c0.5,0.3,1.1,0.6,1.7,0.7
			c0.4,0.1,0.8,0.2,1.9-0.5c0,0,1.8-1.7,3.9-0.2c0.4,0.3,0.9,0.5,1.4,0.5l0.2,0c0.6,0,1.1-0.3,1.6-0.6c0.3-0.3,0.9-0.5,1.6-0.5"/>
		<path class="st0" d="M31.1,61.7c0,0,1.3,0,2.3,0.7c0.8,0.5,1.9,0.6,2.7,0.1l0,0c0,0,1.5-1.6,3.6-0.5c0.5,0.3,1.1,0.6,1.7,0.7
			c0.4,0.1,0.8,0.2,1.9-0.5c0,0,1.8-1.7,3.9-0.2c0.4,0.3,0.9,0.5,1.4,0.5l0.2,0c0.6,0,1.1-0.3,1.6-0.6c0.3-0.3,0.9-0.5,1.6-0.5"/>
		<path class="st0" d="M31.1,72.2c0,0,1.3,0,2.3,0.7c0.8,0.5,1.9,0.6,2.7,0.1l0,0c0,0,1.5-1.6,3.6-0.5c0.5,0.3,1.1,0.6,1.7,0.7
			c0.4,0.1,0.8,0.2,1.9-0.5c0,0,1.8-1.7,3.9-0.2c0.4,0.3,0.9,0.5,1.4,0.5l0.2,0c0.6,0,1.1-0.3,1.6-0.6c0.3-0.3,0.9-0.5,1.6-0.5"/>
	</g>
	<g>
		<g>
			<path class="st1" d="M72.2,22.9c-5.4-4.1-11.4-5.4-13.4-2.8c-2,2.6,0.9,8,6.3,12.1c5.4,4.1,11.4,5.4,13.4,2.8
				C80.5,32.4,77.7,27,72.2,22.9z M67.2,29.4c-2.1-1.6-3.2-3.7-2.5-4.8c0.8-1,3.1-0.5,5.2,1.1c2.1,1.6,3.2,3.7,2.5,4.8
				C71.7,31.5,69.3,31,67.2,29.4z"/>
		</g>
		<g id="XMLID_14_">
			<g>
				<path class="st2" d="M70.6,35.4l-7.4,9.5l-0.5-0.6l0-3.5l5.3-6.7C69.2,34.9,70.6,35.4,70.6,35.4z"/>
			</g>
			<g>
				<path class="st3" d="M62.7,40.8l0,3.5l0.5,0.6l7.4-9.5c0,0-1.4-0.5-2.6-1.3L62.7,40.8z"/>
				<line class="st0" x1="58.8" y1="20.1" x2="51.1" y2="30.4"/>
			</g>
		</g>
		<path class="st0" d="M78.5,35l-6.6,8.7c-0.4,0.5-1,1-1.6,1.2c-1.4,0.5-3.8,1.2-6.6-0.1"/>
	</g>
	<g>
		<path class="st4" d="M32,30.5l-0.5-0.7c-0.5-0.6-0.6-1.4-0.3-2.1l1.3-3.9c0.6-1.8-1.1-3.5-2.9-2.9l-3.9,1.3
			c-0.7,0.2-1.5,0.1-2.1-0.3l-3.3-2.4c-1.5-1.1-3.7,0-3.7,1.9l0.1,4.1c0,0.8-0.4,1.5-1,1.9l-3.3,2.4c-1.6,1.1-1.2,3.5,0.6,4.1L17,35
			c0.7,0.2,1.3,0.8,1.5,1.5l1.2,3.9c0.2,0.7,0.7,1.2,1.3,1.4V30.5H32z"/>
		<polyline class="st5" points="62,48.5 62,30.5 32,30.5 		"/>
		<polyline class="st5" points="20.9,41.8 20.9,81.4 62,81.4 62,75.8 		"/>
	</g>
	<polyline class="st5" points="20.9,62.8 9.3,65.3 1.1,14.3 42.6,7.6 44.7,23.8 	"/>
	<polyline class="st5" points="39.7,30.5 61.8,1.4 95.6,25.4 66.4,66.4 	"/>
	<polyline class="st0" points="69.9,80.1 58.7,69.1 64.1,64.1 69.9,69.8 	"/>
	<line class="st5" x1="61.8" y1="67.2" x2="57.4" y2="62.6"/>
	<circle class="st5" cx="48" cy="56" r="11.6"/>
</g>
</svg>
