<?xml version="1.0" encoding="utf-8"?>
<!-- Generator: Adobe Illustrator 26.5.0, SVG Export Plug-In . SVG Version: 6.00 Build 0)  -->
<svg version="1.1" id="Layer_1" xmlns="http://www.w3.org/2000/svg" xmlns:xlink="http://www.w3.org/1999/xlink" x="0px" y="0px"
	 viewBox="0 0 104.3 82" style="enable-background:new 0 0 104.3 82;" xml:space="preserve">
<style type="text/css">
	.st0{fill:none;stroke:#815130;stroke-width:2;stroke-linecap:round;stroke-linejoin:round;stroke-miterlimit:10;}
	.st1{fill:#FFE79A;stroke:#815130;stroke-width:2;stroke-linecap:round;stroke-linejoin:round;stroke-miterlimit:10;}
	.st2{fill:#FFFFFF;stroke:#815130;stroke-width:2;stroke-linecap:round;stroke-linejoin:round;stroke-miterlimit:10;}
</style>
<g>
	<g>
		<path class="st0" d="M36.9,23.7c-4.9,3.2-8.3,9.9-8.3,17.5c0,8.1,3.7,15,8.9,18"/>
	</g>
	<path class="st0" d="M84.9,59c-10,21.6-25,22-25,22H33.9"/>
	<path class="st1" d="M66.6,35c4.1,24.5,15.9,24,15.9,24h20.7c0.6-2.9-2.1-4-2.1-4c-11.8-4.3-12.8-16.3-12.8-16.3
		C84.7,3.9,59.4,1,59.4,1H33.9C33.9,1,60.8,0.1,66.6,35z"/>
	<g>
		<path class="st2" d="M33.9,1C15.8,1,1,18.9,1,41s14.8,40,32.9,40s32.9-17.9,32.9-40C67,18.9,52.2,1,33.9,1z M31,61
			c-8.2,0-14.8-8.8-14.8-19.6S22.8,21.9,31,21.9s14.8,8.8,14.8,19.6C45.8,52.3,39.1,61,31,61z"/>
	</g>
</g>
</svg>
