<?xml version="1.0" encoding="utf-8"?>
<!-- Generator: Adobe Illustrator 26.5.0, SVG Export Plug-In . SVG Version: 6.00 Build 0)  -->
<svg version="1.1" id="Layer_1" xmlns="http://www.w3.org/2000/svg" xmlns:xlink="http://www.w3.org/1999/xlink" x="0px" y="0px"
	 viewBox="0 0 100.9 82" style="enable-background:new 0 0 100.9 82;" xml:space="preserve">
<style type="text/css">
	.st0{fill:none;stroke:#815130;stroke-width:2;stroke-linecap:round;stroke-linejoin:round;stroke-miterlimit:10;}
	.st1{fill:#FFE79A;stroke:#815130;stroke-width:2;stroke-linecap:round;stroke-linejoin:round;stroke-miterlimit:10;}
	.st2{fill:none;stroke:#815130;stroke-miterlimit:10;}
	.st3{fill:#815130;}
</style>
<g>
	<g>
		<path class="st0" d="M29.5,75.2c-1.4-0.5-2,5.8-2,5.8H4.2c-0.3,0-0.5-0.4-0.3-0.7c1.4-2,2.9-7.8,3.7-10.7c0.3-1.1,0.1-2.2-0.4-3.2
			c-1.8-3.2-5.7-10.9-5.9-16.5c0,0-3.5-25.2,21.5-26.3c0,0,12.5-1.4,20.1,10.2c0,0,5.1,6.2,3.4,14.9c0,0-0.9,5.2,0.6,8.2l2.9,4.6
			c0,0-0.1,1.2-2.3,1.4c-0.6,0-1.2,0.4-1.5,1c-0.3,0.7-0.5,1.8-0.4,3.3c0,0-0.3,1.2-2.2,0.6c0,0,4,1.5-0.6,3.4v2.1
			c0,1.8-1.3,3.5-3.1,3.7C37.7,77.2,34.5,77,29.5,75.2z"/>
		<path class="st0" d="M21.9,70.4c0,0,3.1,2.6,7.5,4.8"/>
		<path class="st0" d="M37.6,47c0,0,0.1-0.1,0.3-0.2c1.6-0.7,3.4-0.7,4.9,0.1l3.4,1.7"/>
	</g>
	<g>
		<path class="st1" d="M53.9,14.1c0,0-4.8,3.5-2.8,8.5c0.7,1.7,2,3.1,3.6,4c1.1,0.6,2.6,1.1,4.4,1c0,0,1.3,5.2,7.4,5.4
			c0,0,3.3,0.2,5.5-2.4c0,0,3.2,3.2,7.6,3.2c0.7,0,1.4-0.1,2.1-0.2c1.3-0.2,3.1-0.7,4.1-1.8c0,0,2.7,1.9,5.9,0.8
			c0,0,5.8-1.4,5.7-7.1c0,0,1.2,0,2-1.1c0.4-0.6,0.6-1.3,0.5-2c-0.1-0.7-0.4-1.6-1.5-2.1c0,0,3.1-4.5-0.1-8.6c0,0-2.1-3-5.5-3.4
			c0,0-1.2-4.7-6.4-6.7c-1.8-0.7-3.8-0.8-5.7-0.5c-2.2,0.4-5.2,1.5-6.5,4.3c0,0-1.1-2.8-4.7-4c-2.2-0.7-4.6-0.6-6.8,0.3
			c-2.1,0.9-4.5,2.7-5.3,6.6C57.4,8.4,52.7,9.3,53.9,14.1z"/>
		<circle class="st0" cx="71.3" cy="40.8" r="3.1"/>
		<path class="st2" d="M58.4,51.9c0,0.4-0.4,0.8-0.8,0.8c-0.4,0-0.8-0.4-0.8-0.8c0-0.4,0.4-0.8,0.8-0.8C58,51.1,58.4,51.5,58.4,51.9
			z"/>
		<path class="st0" d="M65.6,47c0,1.3-1.1,2.4-2.4,2.4c-1.3,0-2.4-1.1-2.4-2.4c0-1.3,1.1-2.4,2.4-2.4C64.5,44.6,65.6,45.7,65.6,47z"
			/>
		<g>
			<path class="st3" d="M59.2,17.9c0,0.2,0,0.4,0.1,0.5c0.1,0.1,0.1,0.3,0.2,0.4c0.1,0.1,0.2,0.2,0.3,0.2c0.1,0,0.3,0.1,0.4,0.1
				c0.2,0,0.3,0,0.4,0c0.1,0,0.2-0.1,0.3-0.1c0.1,0,0.1-0.1,0.2-0.1c0.1,0,0.1-0.1,0.2-0.1c0.1,0,0.3,0,0.4,0c0.1,0,0.2,0.1,0.3,0.3
				c0.1,0.2,0.1,0.3,0.1,0.5c0,0.2-0.1,0.3-0.3,0.4c-0.2,0.2-0.5,0.3-0.7,0.4c-0.3,0.1-0.6,0.1-0.9,0.1c-0.3,0-0.6,0-0.9-0.1
				c-0.3-0.1-0.6-0.2-0.8-0.4c-0.2-0.2-0.4-0.5-0.6-0.8c-0.1-0.3-0.2-0.7-0.2-1.2v-1.7c0-0.5,0.1-0.8,0.2-1.2
				c0.1-0.3,0.3-0.6,0.6-0.8c0.2-0.2,0.5-0.4,0.8-0.4c0.3-0.1,0.6-0.1,0.9-0.1c0.3,0,0.6,0,0.9,0.1c0.2,0.1,0.4,0.2,0.6,0.3
				c0.2,0.1,0.3,0.3,0.3,0.4c0.1,0.2,0,0.4,0,0.5c-0.1,0.1-0.2,0.2-0.3,0.3c-0.1,0.1-0.2,0.1-0.4,0c-0.1,0-0.2,0-0.2-0.1
				c-0.1,0-0.1-0.1-0.2-0.1c-0.1,0-0.2-0.1-0.3-0.1c-0.1,0-0.2,0-0.4,0c-0.1,0-0.3,0-0.4,0.1c-0.1,0-0.2,0.1-0.3,0.2
				c-0.1,0.1-0.2,0.2-0.2,0.4s-0.1,0.3-0.1,0.5V17.9z"/>
			<path class="st3" d="M62.5,16.2c0-0.5,0.1-0.9,0.2-1.2c0.2-0.3,0.4-0.6,0.6-0.8c0.2-0.2,0.5-0.3,0.8-0.4c0.3-0.1,0.6-0.1,0.9-0.1
				c0.3,0,0.6,0,0.8,0.1c0.3,0.1,0.6,0.2,0.8,0.4c0.2,0.2,0.4,0.5,0.6,0.8c0.2,0.3,0.2,0.7,0.2,1.2V18c0,0.5-0.1,0.9-0.2,1.2
				c-0.2,0.3-0.4,0.6-0.6,0.8c-0.2,0.2-0.5,0.3-0.8,0.4s-0.6,0.1-0.8,0.1s-0.6,0-0.8-0.1c-0.3-0.1-0.6-0.2-0.8-0.4
				c-0.2-0.2-0.4-0.5-0.6-0.8c-0.2-0.3-0.2-0.7-0.2-1.2V16.2z M65.9,16.1c0-0.2,0-0.3-0.1-0.5c-0.1-0.1-0.1-0.2-0.2-0.3
				s-0.2-0.2-0.3-0.2c-0.1,0-0.2-0.1-0.3-0.1c-0.1,0-0.2,0-0.3,0.1c-0.1,0-0.2,0.1-0.3,0.2c-0.1,0.1-0.2,0.2-0.2,0.3
				C64,15.8,64,15.9,64,16.1V18c0,0.2,0,0.3,0.1,0.4c0.1,0.1,0.1,0.2,0.2,0.3c0.1,0.1,0.2,0.2,0.3,0.2c0.1,0,0.2,0.1,0.3,0.1
				c0.1,0,0.2,0,0.3-0.1c0.1,0,0.2-0.1,0.3-0.2c0.1-0.1,0.2-0.2,0.2-0.3c0.1-0.1,0.1-0.3,0.1-0.4V16.1z"/>
			<path class="st3" d="M71.5,17.7v-3.3c0-0.3,0.1-0.4,0.2-0.6c0.1-0.1,0.3-0.2,0.5-0.2c0.2,0,0.3,0.1,0.5,0.2
				c0.1,0.1,0.2,0.3,0.2,0.6v5.2c0,0.1,0,0.2-0.1,0.3c0,0.1-0.1,0.2-0.2,0.2s-0.1,0.1-0.2,0.2s-0.2,0.1-0.3,0.1
				c-0.2,0-0.4,0-0.5-0.1c-0.2-0.1-0.3-0.2-0.4-0.4l-1.8-3.6v3.9H68v-5.8c0-0.1,0-0.2,0.1-0.3c0-0.1,0.1-0.2,0.2-0.3
				c0.1-0.1,0.2-0.1,0.2-0.2c0.1,0,0.2-0.1,0.3-0.1c0.2,0,0.4,0,0.5,0.1c0.2,0.1,0.3,0.2,0.4,0.4L71.5,17.7z"/>
			<path class="st3" d="M74.9,17.9c0,0.2,0,0.4,0.1,0.5c0.1,0.1,0.1,0.3,0.2,0.4s0.2,0.2,0.3,0.2c0.1,0,0.3,0.1,0.4,0.1
				c0.2,0,0.3,0,0.4,0c0.1,0,0.2-0.1,0.3-0.1c0.1,0,0.1-0.1,0.2-0.1c0.1,0,0.1-0.1,0.2-0.1c0.1,0,0.3,0,0.4,0c0.1,0,0.2,0.1,0.3,0.3
				c0.1,0.2,0.1,0.3,0.1,0.5c0,0.2-0.1,0.3-0.3,0.4c-0.2,0.2-0.5,0.3-0.7,0.4c-0.3,0.1-0.6,0.1-0.9,0.1c-0.3,0-0.6,0-0.9-0.1
				c-0.3-0.1-0.6-0.2-0.8-0.4c-0.2-0.2-0.4-0.5-0.6-0.8c-0.1-0.3-0.2-0.7-0.2-1.2v-1.7c0-0.5,0.1-0.8,0.2-1.2
				c0.1-0.3,0.3-0.6,0.6-0.8c0.2-0.2,0.5-0.4,0.8-0.4c0.3-0.1,0.6-0.1,0.9-0.1c0.3,0,0.6,0,0.9,0.1c0.2,0.1,0.4,0.2,0.6,0.3
				c0.2,0.1,0.3,0.3,0.3,0.4c0.1,0.2,0,0.4,0,0.5c-0.1,0.1-0.2,0.2-0.3,0.3c-0.1,0.1-0.2,0.1-0.4,0c-0.1,0-0.2,0-0.2-0.1
				c-0.1,0-0.1-0.1-0.2-0.1c-0.1,0-0.2-0.1-0.3-0.1c-0.1,0-0.2,0-0.4,0c-0.1,0-0.3,0-0.4,0.1c-0.1,0-0.2,0.1-0.3,0.2
				s-0.2,0.2-0.2,0.4s-0.1,0.3-0.1,0.5V17.9z"/>
			<path class="st3" d="M79.8,16.3h2c0.1,0,0.2,0,0.3,0.1c0.1,0,0.1,0.1,0.2,0.2c0,0.1,0.1,0.2,0.1,0.2c0,0.1,0,0.2,0,0.3
				c0,0.1,0,0.2,0,0.2c0,0.1-0.1,0.2-0.1,0.2c0,0.1-0.1,0.1-0.2,0.2c-0.1,0-0.2,0.1-0.3,0.1h-2v1c0,0.1,0,0.2,0,0.2c0,0,0.1,0,0.2,0
				H82c0.1,0,0.2,0,0.3,0.1c0.1,0,0.1,0.1,0.2,0.2c0,0.1,0.1,0.1,0.1,0.2c0,0.1,0,0.2,0,0.3c0,0.1,0,0.2,0,0.3
				c0,0.1-0.1,0.2-0.1,0.2s-0.1,0.1-0.2,0.2c-0.1,0-0.2,0.1-0.3,0.1h-2.5c-0.2,0-0.4,0-0.6-0.1c-0.1,0-0.3-0.1-0.4-0.2
				c-0.1-0.1-0.2-0.2-0.2-0.4c0-0.2-0.1-0.4-0.1-0.6v-4c0-0.2,0-0.4,0.1-0.6c0-0.2,0.1-0.3,0.2-0.4c0.1-0.1,0.2-0.2,0.4-0.2
				c0.1,0,0.3-0.1,0.6-0.1h2.5c0.1,0,0.2,0,0.3,0.1c0.1,0,0.1,0.1,0.2,0.2c0,0.1,0.1,0.2,0.1,0.2c0,0.1,0,0.2,0,0.3
				c0,0.1,0,0.2,0,0.3c0,0.1-0.1,0.2-0.1,0.2c0,0.1-0.1,0.1-0.2,0.2c-0.1,0-0.2,0.1-0.3,0.1h-1.9c-0.1,0-0.1,0-0.2,0
				c0,0,0,0.1,0,0.2V16.3z"/>
			<path class="st3" d="M84.6,18.4v2h-1.5V15c0-0.2,0-0.4,0.1-0.6c0-0.2,0.1-0.3,0.2-0.4c0.1-0.1,0.2-0.2,0.4-0.2
				c0.1,0,0.3-0.1,0.6-0.1h1.3c0.3,0,0.6,0,0.9,0.1c0.3,0.1,0.5,0.2,0.7,0.4c0.2,0.2,0.4,0.4,0.5,0.7c0.1,0.3,0.2,0.6,0.2,1v0.1
				c0,0.4-0.1,0.7-0.2,1c-0.1,0.3-0.3,0.5-0.5,0.7c-0.2,0.2-0.4,0.3-0.7,0.4c-0.3,0.1-0.6,0.1-0.9,0.1H84.6z M84.6,16.9h0.8
				c0.1,0,0.2,0,0.3-0.1c0.1,0,0.2-0.1,0.2-0.2c0.1-0.1,0.1-0.2,0.2-0.3c0-0.1,0.1-0.2,0.1-0.3V16c0-0.1,0-0.2-0.1-0.3
				c0-0.1-0.1-0.2-0.2-0.3c-0.1-0.1-0.1-0.1-0.2-0.2c-0.1,0-0.2-0.1-0.3-0.1h-0.6c-0.1,0-0.1,0-0.2,0c0,0,0,0.1,0,0.2V16.9z"/>
			<path class="st3" d="M89.6,20.3v-5.2h-1.1c-0.1,0-0.2,0-0.3-0.1S88,15,88,14.9s-0.1-0.2-0.1-0.2c0-0.1,0-0.2,0-0.3
				c0-0.1,0-0.2,0-0.3c0-0.1,0.1-0.2,0.1-0.2s0.1-0.1,0.2-0.2s0.2-0.1,0.3-0.1h3.8c0.1,0,0.2,0,0.3,0.1c0.1,0,0.1,0.1,0.2,0.2
				c0,0.1,0.1,0.1,0.1,0.2c0,0.1,0,0.2,0,0.3c0,0.1,0,0.2,0,0.3c0,0.1-0.1,0.2-0.1,0.2s-0.1,0.1-0.2,0.2c-0.1,0-0.2,0.1-0.3,0.1
				h-1.1v5.2H89.6z"/>
		</g>
	</g>
</g>
</svg>
