<?xml version="1.0" encoding="utf-8"?>
<!-- Generator: Adobe Illustrator 26.5.0, SVG Export Plug-In . SVG Version: 6.00 Build 0)  -->
<svg version="1.1" id="Layer_1" xmlns="http://www.w3.org/2000/svg" xmlns:xlink="http://www.w3.org/1999/xlink" x="0px" y="0px"
	 viewBox="0 0 92.1 82" style="enable-background:new 0 0 92.1 82;" xml:space="preserve">
<style type="text/css">
	.st0{fill:#FFFFFF;stroke:#815130;stroke-width:2;stroke-linecap:round;stroke-linejoin:round;stroke-miterlimit:10;}
	.st1{fill:#FFE79A;}
	.st2{fill:none;stroke:#815130;stroke-width:2;stroke-linecap:round;stroke-linejoin:round;stroke-miterlimit:10;}
</style>
<g>
	<g>
		<path class="st0" d="M46.1,1C21.1,1,1,10.6,1,22.4s20.1,21.4,45.1,21.4s45.1-9.6,45.1-21.4C91,10.6,70.9,1,46.1,1z M45.7,31
			c-9.7,0-17.6-3.8-17.6-8.4s7.9-8.4,17.6-8.4s17.6,3.8,17.6,8.4C63.4,27.2,55.5,31,45.7,31z"/>
	</g>
	<g id="XMLID_8_">
		<g>
			<path class="st1" d="M68.8,41L69,80.5l-10.4,0.5l-0.1-37.8C63.6,42.5,68.8,41,68.8,41z"/>
			<path class="st1" d="M58.6,80.9L69,80.5C65.3,80.7,61.9,80.9,58.6,80.9z"/>
		</g>
		<g>
			<path class="st2" d="M1,22.4l0.2,37c0,2.4,0.8,4.9,2.2,6.9c4.4,5.8,17.4,15.5,55.2,14.7c3.3-0.1,6.8-0.2,10.4-0.5L68.8,41
				c0,0-5.2,1.6-10.3,2.1l0.1,37.9L69,80.5"/>
		</g>
	</g>
	<path class="st2" d="M91,22.4v35.8c0,2.3-0.7,4.4-2,6.2c-2.8,4-9.1,10.7-20.1,12.9"/>
</g>
</svg>
