<?xml version="1.0" encoding="utf-8"?>
<!-- Generator: Adobe Illustrator 26.5.0, SVG Export Plug-In . SVG Version: 6.00 Build 0)  -->
<svg version="1.1" id="Layer_1" xmlns="http://www.w3.org/2000/svg" xmlns:xlink="http://www.w3.org/1999/xlink" x="0px" y="0px"
	 viewBox="0 0 62.8 82" style="enable-background:new 0 0 62.8 82;" xml:space="preserve">
<style type="text/css">
	.st0{fill:#FFFFFF;stroke:#815130;stroke-width:2;stroke-linecap:round;stroke-linejoin:round;stroke-miterlimit:10;}
	.st1{fill:none;stroke:#815130;stroke-width:2;stroke-linecap:round;stroke-linejoin:round;stroke-miterlimit:10;}
	.st2{fill:#FFE79A;}
	.st3{fill:none;stroke:#815130;stroke-width:1.5;stroke-linecap:round;stroke-linejoin:round;stroke-miterlimit:10;}
</style>
<g>
	<polygon class="st0" points="1,1 1,70.6 41.1,70.6 51.1,60.1 51.1,1 	"/>
	<polyline class="st1" points="41.1,70.6 41.1,60.3 51.1,60.3 	"/>
	<polyline class="st1" points="11,74.2 11,81 61.8,81 61.8,10.9 55.1,10.9 	"/>
	<g id="XMLID_1_">
		<g>
			<path class="st2" d="M10.5,9.4c1.5-1.5,3.8-1.4,5.4,0.2c0.2,0.2,0.4,0.4,0.6,0.7c0.1-0.3,0.2-0.6,0.3-0.8c1-1.9,3.4-2.7,5.3-1.7
				c2,1,2.8,3.5,1.8,5.4c-0.1,0.3-0.3,0.5-0.5,0.8c0.3,0,0.6,0,0.9,0.1c2.2,0.3,3.6,2.4,3.3,4.5c-0.3,2.1-2.2,3.4-4.3,3.1
				c-0.3,0-0.6-0.1-0.9-0.2c0.1,0.3,0.2,0.6,0.2,0.9c0.3,2.2-1,4-3.2,4.4c-2.2,0.3-4.2-1.1-4.5-3.3c0-0.3-0.1-0.6,0-0.9
				c-0.2,0.2-0.5,0.4-0.8,0.5c-1.9,1-4.4,0.1-5.4-1.8c-1-1.9-0.2-4.3,1.7-5.3c0.3-0.1,0.5-0.2,0.8-0.3c-0.3-0.2-0.5-0.4-0.7-0.6
				C9.1,13.3,9,10.9,10.5,9.4z"/>
		</g>
		<g>
			<path class="st3" d="M23.9,13.1c1-1.9,0.1-4.4-1.8-5.4c-1.9-1-4.3-0.2-5.3,1.7c-0.1,0.3-0.2,0.5-0.3,0.8
				c-0.2-0.3-0.4-0.5-0.6-0.7c-1.6-1.5-3.9-1.7-5.4-0.2c-1.5,1.5-1.4,3.9,0.1,5.5c0.2,0.2,0.4,0.4,0.7,0.6c-0.3,0.1-0.6,0.2-0.8,0.3
				c-1.9,1-2.7,3.4-1.7,5.3c1,2,3.5,2.8,5.4,1.8c0.3-0.1,0.5-0.3,0.8-0.5c0,0.3,0,0.6,0,0.9c0.3,2.2,2.4,3.6,4.5,3.3
				c2.1-0.3,3.5-2.2,3.2-4.4c0-0.3-0.1-0.6-0.2-0.9c0.3,0.1,0.6,0.2,0.9,0.2c2.2,0.3,4-1,4.3-3.1c0.3-2.2-1.1-4.2-3.3-4.5
				c-0.3,0-0.6-0.1-0.9-0.1C23.6,13.6,23.8,13.4,23.9,13.1z"/>
		</g>
	</g>
	<g id="XMLID_2_">
		<g>
			<path class="st2" d="M32,46.6c-2.1-0.7-3.2-2.9-2.5-5c0.1-0.3,0.2-0.6,0.4-0.8c-0.3,0.1-0.6,0.1-0.9,0.1c-2.2,0-3.9-1.6-3.9-3.8
				c0-2.2,1.7-3.7,3.9-3.7c0.3,0,0.6,0,0.9,0.1c-0.2-0.3-0.3-0.6-0.4-0.8c-0.7-2.1,0.5-4.3,2.5-5c2.1-0.7,4.4,1.2,5.1,3.2l0-0.7
				c0.1,0.3,0.2,0.6,0.2,0.9c0.2-0.2,0.4-0.4,0.7-0.6c1.8-1.3,4.2-0.9,5.5,0.9c1.3,1.8,0.9,4-0.9,5.3c-0.2,0.2-0.5,0.3-0.8,0.4
				c0.3,0.1,0.5,0.3,0.8,0.5c1.8,1.3,2.2,3.6,0.9,5.3c-1.3,1.8-3.8,2.2-5.5,0.9c-0.2-0.2-0.5-0.4-0.7-0.6c0,0.3-0.1,0.6-0.2,0.9
				C36.4,46.1,34.1,47.3,32,46.6z"/>
		</g>
		<g>
			<path class="st3" d="M37.1,31c-0.7-2.1-3-3.9-5.1-3.2c-2.1,0.7-3.2,2.9-2.5,5c0.1,0.3,0.2,0.6,0.4,0.8c-0.3-0.1-0.6-0.1-0.9-0.1
				c-2.2,0-3.9,1.5-3.9,3.7c0,2.2,1.8,3.8,3.9,3.8c0.3,0,0.6,0,0.9-0.1c-0.2,0.3-0.3,0.6-0.4,0.8c-0.7,2.1,0.5,4.3,2.5,5
				c2.1,0.7,4.4-0.5,5.1-2.5c0.1-0.3,0.2-0.6,0.2-0.9c0.2,0.2,0.4,0.4,0.7,0.6c1.8,1.3,4.2,0.9,5.5-0.9c1.3-1.8,0.9-4-0.9-5.3
				c-0.2-0.2-0.5-0.3-0.8-0.5c0.3-0.1,0.5-0.3,0.8-0.4c1.8-1.3,2.2-3.5,0.9-5.3c-1.3-1.8-3.8-2.2-5.5-0.9c-0.2,0.2-0.5,0.4-0.7,0.6
				c0-0.3-0.1-0.6-0.2-0.9L37.1,31z"/>
		</g>
	</g>
	<g id="XMLID_3_">
		<g>
			<path class="st2" d="M14.9,47c0.8-2,3.1-3.1,5.1-2.3c2.1,0.8,3.1,3.2,2.4,5.2c-0.1,0.3-0.2,0.5-0.4,0.8c0.3,0,0.6-0.1,0.9,0
				c2.2,0.1,3.9,2,3.7,4.1c-0.1,2.2-1.8,3.6-4,3.5c-0.3,0-0.6-0.1-0.9-0.1c0.1,0.3,0.2,0.6,0.3,0.8c0.6,2.1-0.6,4.8-2.7,5.4
				c-2.1,0.6-4.3-1.4-4.8-3.5c-0.1-0.3-0.1-0.6-0.1-0.9c-0.2,0.2-0.5,0.4-0.7,0.6c-1.8,1.2-4.4,0.6-5.6-1.2C7,57.6,7.5,55.1,9.3,54
				c0.2-0.2,0.5-0.3,0.8-0.4c-0.3-0.1-0.5-0.3-0.7-0.5c-1.7-1.4-2.1-3.7-0.7-5.4c1.4-1.7,3.7-1.8,5.4-0.4c0.2,0.2,0.4,0.4,0.6,0.6
				C14.7,47.6,14.8,47.3,14.9,47z"/>
		</g>
		<g>
			<path class="st3" d="M22.4,49.9c0.8-2-0.3-4.4-2.4-5.2C18,44,15.7,45,14.9,47c-0.1,0.3-0.2,0.6-0.2,0.9c-0.2-0.2-0.4-0.5-0.6-0.6
				c-1.7-1.4-4-1.3-5.4,0.4c-1.4,1.7-1,4,0.7,5.4c0.2,0.2,0.5,0.3,0.7,0.5c-0.3,0.1-0.6,0.3-0.8,0.4c-1.8,1.2-2.3,3.6-1.2,5.5
				c1.2,1.8,3.8,2.4,5.6,1.2c0.2-0.2,0.5-0.4,0.7-0.6c0,0.3,0.1,0.6,0.1,0.9c0.6,2.1,2.7,4.1,4.8,3.5c2.1-0.6,3.2-3.3,2.7-5.4
				c-0.1-0.3-0.2-0.6-0.3-0.8c0.3,0.1,0.6,0.1,0.9,0.1c2.2,0.1,3.9-1.4,4-3.5c0.1-2.2-1.6-4-3.7-4.1c-0.3,0-0.6,0-0.9,0
				C22.1,50.5,22.3,50.2,22.4,49.9z"/>
		</g>
	</g>
</g>
</svg>
