<?xml version="1.0" encoding="utf-8"?>
<!-- Generator: Adobe Illustrator 26.5.0, SVG Export Plug-In . SVG Version: 6.00 Build 0)  -->
<svg version="1.1" id="Layer_1" xmlns="http://www.w3.org/2000/svg" xmlns:xlink="http://www.w3.org/1999/xlink" x="0px" y="0px"
	 viewBox="0 0 81.2 82" style="enable-background:new 0 0 81.2 82;" xml:space="preserve">
<style type="text/css">
	.st0{fill:#FFFFFF;stroke:#815130;stroke-width:2;stroke-miterlimit:10;}
	.st1{fill:none;stroke:#815130;stroke-width:2;stroke-linecap:round;stroke-linejoin:round;stroke-miterlimit:10;}
</style>
<g>
	<path class="st0" d="M1,31.4"/>
	<path class="st1" d="M1,30.7C1,25,5.6,20.3,11.4,20.3c5.7,0,10.4,4.6,10.4,10.4"/>
	<path class="st1" d="M21.7,51.3c0,5.7-4.6,10.4-10.4,10.4C5.6,61.7,1,57,1,51.3"/>
	<path class="st1" d="M14.7,41c0,1.8-1.5,3.3-3.3,3.3C9.5,44.3,8,42.8,8,41s1.5-3.3,3.3-3.3C13.2,37.7,14.7,39.2,14.7,41z"/>
	<line class="st1" x1="30" y1="1" x2="51.8" y2="1"/>
	<line class="st1" x1="30" y1="81" x2="51.8" y2="81"/>
	<line class="st1" x1="40.9" y1="1" x2="40.9" y2="81"/>
	<line class="st1" x1="58.5" y1="24.1" x2="80.2" y2="24.1"/>
	<line class="st1" x1="58.5" y1="40.9" x2="73.5" y2="40.9"/>
	<line class="st1" x1="58.5" y1="57.7" x2="66.4" y2="57.7"/>
</g>
</svg>
