<?xml version="1.0" encoding="utf-8"?>
<!-- Generator: Adobe Illustrator 26.5.0, SVG Export Plug-In . SVG Version: 6.00 Build 0)  -->
<svg version="1.1" id="Layer_1" xmlns="http://www.w3.org/2000/svg" xmlns:xlink="http://www.w3.org/1999/xlink" x="0px" y="0px"
	 viewBox="0 0 80.2 81.5" style="enable-background:new 0 0 80.2 81.5;" xml:space="preserve">
<style type="text/css">
	.st0{fill:none;stroke:#815130;stroke-width:2;stroke-linecap:round;stroke-linejoin:round;stroke-miterlimit:10;}
	.st1{fill:#FFE79A;stroke:#815130;stroke-width:1.5;stroke-linecap:round;stroke-linejoin:round;stroke-miterlimit:10;}
	.st2{fill:#FFFFFF;stroke:#815130;stroke-linecap:round;stroke-linejoin:round;stroke-miterlimit:10;}
	.st3{fill:none;stroke:#815130;stroke-linecap:round;stroke-linejoin:round;stroke-miterlimit:10;}
</style>
<g>
	<path class="st0" d="M53.6,65.6H13c-6.6,0-12-5.4-12-12V13C1,6.4,6.4,1,13,1h40.6c6.6,0,12,5.4,12,12v40.6
		C65.6,60.2,60.2,65.6,53.6,65.6z"/>
	<path class="st1" d="M49.7,5.3v10.3c0,2.9-0.7,5.8-2.4,8.3C42.6,31.1,33.7,31,33.7,31c-8.4,0-12.4-4.6-14.3-8.7
		c-1.1-2.5-1.7-5.2-1.7-7.9V5.3l4,0v9c0,0-0.2,11.7,11.6,12c0,0,12.2-0.1,12.2-12.7V5.3H49.7z"/>
	<g>
		<path class="st2" d="M73.9,40.4H41.8c-3.2,0-5.9,2.6-5.9,5.9v19c0,3.2,2.6,5.9,5.9,5.9h11.3l3.9,9.1c0,0,0.3,0.8,0.9,0.8
			c0,0,0,0,0,0c0.6,0,0.9-0.8,0.9-0.8l3.9-9.1h11.2c3.2,0,5.9-2.6,5.9-5.9v-19C79.7,43,77.1,40.4,73.9,40.4z M49.7,57.2
			c0,3.5-3.6,3.6-3.6,3.6c-1.4,0-2.2-0.9-2.2-0.9v0.6h-2.6V49.7l2.6,0v4.1c0.3-0.5,0.9-0.8,1.5-0.9c0.6-0.1,1.3-0.1,1.9,0.1
			C50.1,53.8,49.7,57.2,49.7,57.2z M54.3,60.5h-2.6l0-7.4c-0.1-0.9-1.2-1.2-1.2-1.2v-2.6c3.9,0.1,3.8,3.5,3.8,3.5L54.3,60.5z
			 M60.4,60.8c-2.4,0-4.3-1.8-4.3-4c0-2.2,1.9-4,4.3-4c2.4,0,4.3,1.8,4.3,4C64.7,59,62.8,60.8,60.4,60.8z M69.5,64.6v-2.4h0.7
			c0,0,1.5,0.1,1.6-2.3c0,0,0,0,0,0c-0.1,0.2-0.7,1.1-2.5,1c0,0-3.3,0-3.2-4c0,0-0.3-3.8,3.6-4.1c0,0,1.5-0.1,2.2,1V53h2.6v8.2
			C74.5,61.2,74.4,65.1,69.5,64.6z"/>
		<path class="st3" d="M60.4,55.2c-0.9,0-1.6,0.7-1.6,1.6c0,0.9,0.7,1.6,1.6,1.6c0.9,0,1.6-0.7,1.6-1.6C62,56,61.3,55.2,60.4,55.2z"
			/>
		<path class="st3" d="M45.5,55.4c-0.8,0-1.5,0.7-1.5,1.5c0,0.8,0.7,1.5,1.5,1.5c0.8,0,1.5-0.7,1.5-1.5C47,56.1,46.4,55.4,45.5,55.4
			z"/>
		<path class="st3" d="M70.4,55.3c-0.9,0-1.6,0.7-1.6,1.6c0,0.9,0.7,1.6,1.6,1.6s1.6-0.7,1.6-1.6C72,56,71.3,55.3,70.4,55.3z"/>
	</g>
</g>
</svg>
