<?xml version="1.0" encoding="utf-8"?>
<!-- Generator: Adobe Illustrator 26.5.0, SVG Export Plug-In . SVG Version: 6.00 Build 0)  -->
<svg version="1.1" id="Layer_1" xmlns="http://www.w3.org/2000/svg" xmlns:xlink="http://www.w3.org/1999/xlink" x="0px" y="0px"
	 viewBox="0 0 82 82" style="enable-background:new 0 0 82 82;" xml:space="preserve">
<style type="text/css">
	.st0{fill:#FFFFFF;stroke:#815130;stroke-width:2;stroke-linecap:round;stroke-linejoin:round;stroke-miterlimit:10;}
	.st1{fill:#FFE79A;stroke:#815130;stroke-width:2;stroke-linecap:round;stroke-linejoin:round;stroke-miterlimit:10;}
</style>
<g>
	<circle class="st0" cx="41" cy="41" r="40"/>
	<path class="st1" d="M37,50.7c-1.6,8.2-3.5,16.1-9.2,20.2c-1.8-12.4,2.6-21.8,4.6-31.7c-3.4-5.8,0.4-17.4,7.6-14.5
		c8.9,3.5-7.7,21.4,3.4,23.7c11.6,2.3,16.4-20.2,9.2-27.5c-10.4-10.6-30.3-0.2-27.9,14.9c0.6,3.7,4.4,4.8,1.5,9.9
		C19.7,44.3,17.7,39,18,32c0.4-11.5,10.3-19.5,20.2-20.6C50.7,10,62.5,16,64.1,27.8c1.8,13.3-5.7,27.7-19.1,26.7
		C41.4,54.2,39.9,52.4,37,50.7z"/>
</g>
</svg>
