<?xml version="1.0" encoding="utf-8"?>
<!-- Generator: Adobe Illustrator 26.5.0, SVG Export Plug-In . SVG Version: 6.00 Build 0)  -->
<svg version="1.1" id="Layer_1" xmlns="http://www.w3.org/2000/svg" xmlns:xlink="http://www.w3.org/1999/xlink" x="0px" y="0px"
	 viewBox="0 0 57.9 82" style="enable-background:new 0 0 57.9 82;" xml:space="preserve">
<style type="text/css">
	.st0{fill:none;stroke:#815130;stroke-width:2;stroke-miterlimit:10;}
	.st1{fill:#FFFFFF;stroke:#815130;stroke-width:2;stroke-miterlimit:10;}
	.st2{fill:#FFE79A;stroke:#815130;stroke-width:2;stroke-miterlimit:10;}
	.st3{fill:#FFE79A;stroke:#815130;stroke-width:2;stroke-linecap:round;stroke-linejoin:round;stroke-miterlimit:10;}
</style>
<g>
	<rect x="5.8" y="38.5" class="st0" width="46.9" height="29.1"/>
	<path class="st1" d="M44.8,47.5H13.6c-4.7,0-8.6-3.9-8.6-8.6V9.6C4.9,4.9,8.8,1,13.6,1h31.2c4.7,0,8.6,3.9,8.6,8.6v29.3
		C53.4,43.7,49.5,47.5,44.8,47.5z"/>
	<g>
		<g>
			<path class="st2" d="M53.4,8.8c0-4.3-3.5-7.8-7.8-7.8H12.7C8.4,1,4.9,4.5,4.9,8.8V9h48.5V8.8z"/>
		</g>
		<path class="st0" d="M2.6,70.5V77h53.1v-6.4c0,0-0.3-2.5-3.1-2.5c-2.8,0-46.9,0-46.9,0S2.6,68,2.6,70.5z"/>
		<path class="st3" d="M54.9,81H3c-1.1,0-2-0.9-2-2l0,0c0-1.1,0.9-2,2-2h51.9c1.1,0,2,0.9,2,2l0,0C56.9,80.1,56,81,54.9,81z"/>
		<path class="st0" d="M35.3,57.3v7.2h13.2v-7.2c0-0.4-0.1-0.8-0.3-1.1c-0.6-1.1-2.2-3.1-6.3-3.3c0,0-4.9-0.1-6.4,3.3
			C35.4,56.5,35.3,56.9,35.3,57.3z"/>
		<g>
			<path class="st0" d="M25.5,55.5c0,0,0.1,0,0.1,0c-0.8-3.1-3.9-5.4-7.6-5.4c-3.7,0-6.8,2.3-7.6,5.4c0,0,0.1,0,0.1,0H25.5z"/>
			<path class="st0" d="M10.5,58.7C10.5,58.7,10.5,58.7,10.5,58.7c0.8,3,3.8,5.2,7.5,5.2c3.6,0,6.7-2.2,7.5-5.2c0,0,0,0-0.1,0H10.5z
				"/>
			<path class="st0" d="M10.4,55.5c-0.8,0.1-1.5,0.7-1.5,1.6c0,0.8,0.7,1.5,1.5,1.6"/>
			<path class="st0" d="M25.5,58.6c0.8,0,1.5-0.7,1.5-1.6c0-0.8-0.6-1.5-1.5-1.6"/>
			<path class="st0" d="M10.5,58.6C10.5,58.7,10.5,58.7,10.5,58.6l15,0c0,0,0,0,0.1,0"/>
			<path class="st0" d="M25.6,55.5c0,0-0.1,0-0.1,0H10.5c0,0-0.1,0-0.1,0"/>
		</g>
	</g>
</g>
</svg>
