<?xml version="1.0" encoding="utf-8"?>
<!-- Generator: Adobe Illustrator 26.5.0, SVG Export Plug-In . SVG Version: 6.00 Build 0)  -->
<svg version="1.1" id="Layer_1" xmlns="http://www.w3.org/2000/svg" xmlns:xlink="http://www.w3.org/1999/xlink" x="0px" y="0px"
	 viewBox="0 0 112.8 82" style="enable-background:new 0 0 112.8 82;" xml:space="preserve">
<style type="text/css">
	.st0{fill:#FFE79A;stroke:#815130;stroke-width:2;stroke-linecap:round;stroke-linejoin:round;stroke-miterlimit:10;}
	.st1{fill:#815130;}
	.st2{fill:#FFE79A;}
	.st3{fill:none;stroke:#815130;stroke-width:2;stroke-miterlimit:10;}
	.st4{fill:#FFFFFF;stroke:#815130;stroke-width:2;stroke-miterlimit:10;}
</style>
<g>
	<g>
		<polygon class="st0" points="104,21.6 111.8,21.6 111.8,72.3 61.1,72.3 61.1,64.5 103.7,64.5 		"/>
		<path class="st1" d="M107.2,29.6h-3.3v-2.7h3.3c0.7,0,1.3,0.6,1.3,1.3v0C108.6,29,108,29.6,107.2,29.6z"/>
		<path class="st1" d="M107.2,36.9h-3.3v-2.7h3.3c0.7,0,1.3,0.6,1.3,1.3v0C108.6,36.2,108,36.9,107.2,36.9z"/>
		<path class="st1" d="M107.2,44.1h-3.3v-2.7h3.3c0.7,0,1.3,0.6,1.3,1.3v0C108.6,43.5,108,44.1,107.2,44.1z"/>
		<path class="st1" d="M107.2,51.4h-3.3v-2.7h3.3c0.7,0,1.3,0.6,1.3,1.3v0C108.6,50.8,108,51.4,107.2,51.4z"/>
		<path class="st1" d="M107.2,58.7h-3.3V56h3.3c0.7,0,1.3,0.6,1.3,1.3v0C108.6,58.1,108,58.7,107.2,58.7z"/>
		<path class="st1" d="M95.9,67.7v-3.3h2.7v3.3c0,0.7-0.6,1.3-1.3,1.3h0C96.5,69,95.9,68.4,95.9,67.7z"/>
		<path class="st1" d="M88.7,67.7v-3.3h2.7v3.3c0,0.7-0.6,1.3-1.3,1.3l0,0C89.3,69,88.7,68.4,88.7,67.7z"/>
		<path class="st1" d="M81.5,67.7v-3.3h2.7v3.3c0,0.7-0.6,1.3-1.3,1.3h0C82.1,69,81.5,68.4,81.5,67.7z"/>
		<path class="st1" d="M74.3,67.7v-3.3H77v3.3c0,0.7-0.6,1.3-1.3,1.3l0,0C74.9,69,74.3,68.4,74.3,67.7z"/>
		<path class="st1" d="M67.1,67.7v-3.3h2.7v3.3c0,0.7-0.6,1.3-1.3,1.3l0,0C67.7,69,67.1,68.4,67.1,67.7z"/>
	</g>
	<g>
		<path class="st2" d="M47.8,76.1l-5.4-5.4l0.6-0.6c1.1-1.1,1.1-3-0.1-4.1l-8.2-8.2l-2,15.9l1.3,1.3c1,1,2.6,1,3.6,0l0.4-0.4l6,6
			c0,0,1.9,1.3,3.7-0.7C47.8,79.8,49.7,77.8,47.8,76.1z"/>
		<g>
			<path class="st3" d="M5.8,46.7l-1.9,1.9c-1.2,1.2-1.2,3,0,4.2l0.5,0.5c1.2,1.2,3,1.2,4.2,0l1.9-1.9"/>
			<path class="st3" d="M19.4,42.4l1.9-1.9c1.2-1.2,1.2-3,0-4.2l-0.5-0.5c-1.2-1.2-3-1.2-4.2,0l-1.9,1.9l-9,9"/>
			<path class="st3" d="M11.7,34.7c-2.3-2.3-6-2.3-8.3,0l-0.7,0.7c-2.3,2.3-2.3,6,0,8.3l3.1,3.1l9-9L11.7,34.7z"/>
			<path class="st3" d="M47.8,76.1l-5.4-5.4l0.6-0.6c1.1-1.1,1.1-3-0.1-4.1L19.4,42.4l-9,9L34,74.9c1,1,2.6,1,3.6,0l0.4-0.4l6,6
				c0,0,1.9,1.3,3.7-0.7C47.8,79.8,49.7,77.8,47.8,76.1z"/>
			<path class="st3" d="M10.5,51.4"/>
		</g>
		<line class="st4" x1="34.7" y1="57.8" x2="32.7" y2="73.6"/>
	</g>
	<g>
		<path class="st3" d="M45.8,4.5v48.4c0,1.9,1.6,3.5,3.5,3.5h35.4c1.9,0,3.5-1.6,3.5-3.5V15.4c0-0.9-0.3-1.7-0.9-2.4L77.4,2.1
			C76.7,1.4,75.8,1,74.8,1H49.4C47.4,1,45.8,2.6,45.8,4.5z"/>
		<path class="st3" d="M76.4,1.4V13c0,0.8,0.7,1.5,1.5,1.5h10.3"/>
		<path class="st4" d="M67.2,46.2H42.4c-2.8,0-5-2.3-5-5v-7c0-2.8,2.3-5,5-5h24.9c2.8,0,5,2.3,5,5v7C72.2,44,70,46.2,67.2,46.2z"/>
		<g>
			<path class="st1" d="M44.7,38.6c0,0.2,0,0.4,0.1,0.5c0.1,0.2,0.1,0.3,0.2,0.4c0.1,0.1,0.2,0.2,0.3,0.2c0.1,0.1,0.3,0.1,0.4,0.1
				c0.2,0,0.3,0,0.5,0c0.1,0,0.2-0.1,0.4-0.1c0.1,0,0.1-0.1,0.2-0.1c0.1,0,0.1-0.1,0.2-0.1c0.1,0,0.3,0,0.4,0
				c0.1,0.1,0.2,0.2,0.3,0.3c0.1,0.2,0.1,0.4,0.1,0.5c0,0.2-0.1,0.3-0.3,0.4c-0.2,0.2-0.5,0.3-0.8,0.4c-0.3,0.1-0.6,0.1-0.9,0.1
				c-0.3,0-0.7,0-1-0.1c-0.3-0.1-0.6-0.3-0.9-0.5c-0.3-0.2-0.5-0.5-0.6-0.8c-0.2-0.3-0.2-0.7-0.2-1.2v-1.8c0-0.5,0.1-0.9,0.2-1.2
				c0.2-0.3,0.4-0.6,0.6-0.8s0.5-0.4,0.9-0.5c0.3-0.1,0.6-0.1,1-0.1c0.3,0,0.7,0,0.9,0.1c0.3,0.1,0.5,0.2,0.6,0.3
				c0.2,0.1,0.3,0.3,0.3,0.5c0.1,0.2,0,0.4,0,0.6c-0.1,0.1-0.2,0.3-0.3,0.3C47.2,36,47.1,36,46.9,36c-0.1,0-0.2,0-0.2-0.1
				c-0.1,0-0.1-0.1-0.2-0.1c-0.1,0-0.2-0.1-0.3-0.1c-0.1,0-0.2,0-0.4,0c-0.1,0-0.3,0-0.4,0.1c-0.1,0.1-0.2,0.1-0.3,0.2
				c-0.1,0.1-0.2,0.2-0.2,0.4c-0.1,0.2-0.1,0.3-0.1,0.5V38.6z"/>
			<path class="st1" d="M51.7,40.8c-0.1,0-0.2,0-0.2,0c-0.1,0-0.2,0-0.3-0.1c-0.1,0-0.2-0.1-0.2-0.1c-0.1-0.1-0.1-0.1-0.1-0.2
				l-0.8-3.2l-0.4,3.9h-1.5l0.7-6.1c0-0.1,0-0.3,0.1-0.4c0.1-0.1,0.1-0.2,0.2-0.3c0.1-0.1,0.2-0.1,0.3-0.2c0.1,0,0.2-0.1,0.3-0.1
				c0.1,0,0.2,0,0.3,0c0.1,0,0.2,0.1,0.3,0.1c0.1,0.1,0.2,0.1,0.3,0.2c0.1,0.1,0.1,0.2,0.2,0.4l0.9,4l0.9-4c0-0.1,0.1-0.3,0.2-0.4
				c0.1-0.1,0.2-0.2,0.3-0.2s0.2-0.1,0.3-0.1c0.1,0,0.2,0,0.3,0c0.1,0,0.2,0,0.3,0.1c0.1,0,0.2,0.1,0.3,0.2c0.1,0.1,0.1,0.2,0.2,0.3
				c0.1,0.1,0.1,0.2,0.1,0.4l0.7,6.1h-1.5l-0.3-3.9l-0.8,3.2c0,0.1-0.1,0.1-0.1,0.2c-0.1,0.1-0.1,0.1-0.2,0.1
				c-0.1,0-0.2,0.1-0.3,0.1C51.9,40.8,51.8,40.8,51.7,40.8z"/>
			<path class="st1" d="M58.7,38.6v2.5h-1.6v-2.6l-1.8-3.1c-0.1-0.1-0.1-0.3-0.1-0.4c0-0.1,0-0.2,0-0.4c0-0.1,0.1-0.2,0.2-0.3
				c0.1-0.1,0.2-0.1,0.2-0.2c0.2-0.1,0.5-0.1,0.7,0c0.2,0.1,0.4,0.3,0.5,0.5l1.1,2l1-2c0.1-0.1,0.1-0.2,0.2-0.3
				c0.1-0.1,0.2-0.2,0.2-0.2c0.1-0.1,0.2-0.1,0.3-0.1c0.1,0,0.2,0,0.4,0.1c0.1,0,0.2,0.1,0.3,0.2c0.1,0.1,0.1,0.2,0.2,0.3
				c0,0.1,0.1,0.2,0.1,0.4c0,0.1-0.1,0.3-0.1,0.4L58.7,38.6z"/>
			<path class="st1" d="M61.1,35c0-0.1,0-0.3,0.1-0.4c0-0.1,0.1-0.2,0.2-0.3s0.2-0.1,0.2-0.2c0.1,0,0.2-0.1,0.3-0.1
				c0.1,0,0.2,0,0.3,0.1c0.1,0,0.2,0.1,0.2,0.2c0.1,0.1,0.1,0.2,0.2,0.3c0,0.1,0.1,0.2,0.1,0.4v2l1.8-2.5c0.1-0.1,0.2-0.2,0.3-0.2
				c0.1-0.1,0.2-0.1,0.3-0.1c0.1,0,0.2,0,0.3,0c0.1,0,0.2,0.1,0.3,0.1c0.1,0.1,0.2,0.1,0.2,0.2c0.1,0.1,0.1,0.2,0.1,0.3
				c0,0.1,0,0.2,0,0.3c0,0.1-0.1,0.2-0.2,0.3l-1.5,1.8l2.2,3.8h-1.8l-1.4-2.5l-0.6,0.8v1.8h-1.6V35z"/>
		</g>
	</g>
</g>
</svg>
