<?xml version="1.0" encoding="utf-8"?>
<!-- Generator: Adobe Illustrator 26.5.0, SVG Export Plug-In . SVG Version: 6.00 Build 0)  -->
<svg version="1.1" id="Layer_1" xmlns="http://www.w3.org/2000/svg" xmlns:xlink="http://www.w3.org/1999/xlink" x="0px" y="0px"
	 viewBox="0 0 97.1 82" style="enable-background:new 0 0 97.1 82;" xml:space="preserve">
<style type="text/css">
	.st0{fill:none;stroke:#815130;stroke-width:2;stroke-miterlimit:10;}
	.st1{fill:#FFFFFF;stroke:#815130;stroke-width:2;stroke-miterlimit:10;}
	.st2{fill:#815130;}
	.st3{fill:#FFE79A;stroke:#815130;stroke-width:2;stroke-linecap:round;stroke-linejoin:round;stroke-miterlimit:10;}
	.st4{fill:none;stroke:#815130;stroke-width:2;stroke-linecap:round;stroke-linejoin:round;stroke-miterlimit:10;}
</style>
<g>
	<g>
		<path class="st0" d="M8.5,4.1v42.9c0,1.7,1.4,3.1,3.1,3.1h31.4c1.7,0,3.1-1.4,3.1-3.1V13.7c0-0.8-0.3-1.5-0.8-2.1L36.6,2
			c-0.6-0.6-1.4-1-2.3-1H11.7C9.9,1,8.5,2.4,8.5,4.1z"/>
		<path class="st0" d="M35.7,1.4v10.3c0,0.7,0.6,1.3,1.3,1.3h9.1"/>
		<path class="st1" d="M27,41.2H6c-2.8,0-5-2.3-5-5v-5.1c0-2.8,2.3-5,5-5h21c2.8,0,5,2.3,5,5v5.1C32,38.9,29.7,41.2,27,41.2z"/>
		<g>
			<path class="st2" d="M7.5,34.3c0,0.2,0,0.3,0.1,0.5c0.1,0.1,0.1,0.2,0.2,0.3c0.1,0.1,0.2,0.2,0.3,0.2c0.1,0,0.2,0.1,0.4,0.1
				c0.2,0,0.3,0,0.4,0c0.1,0,0.2-0.1,0.3-0.1c0.1,0,0.1-0.1,0.2-0.1c0.1,0,0.1-0.1,0.2-0.1c0.1,0,0.2,0,0.3,0c0.1,0,0.2,0.1,0.3,0.3
				c0.1,0.2,0.1,0.3,0.1,0.5c0,0.2-0.1,0.3-0.2,0.4c-0.2,0.2-0.4,0.3-0.7,0.4c-0.3,0.1-0.5,0.1-0.8,0.1c-0.3,0-0.6,0-0.9-0.1
				c-0.3-0.1-0.5-0.2-0.8-0.4c-0.2-0.2-0.4-0.4-0.5-0.7c-0.1-0.3-0.2-0.7-0.2-1.1v-1.6c0-0.4,0.1-0.8,0.2-1.1
				c0.1-0.3,0.3-0.5,0.5-0.7c0.2-0.2,0.5-0.3,0.8-0.4c0.3-0.1,0.6-0.1,0.9-0.1c0.3,0,0.6,0,0.8,0.1c0.2,0.1,0.4,0.2,0.5,0.3
				c0.1,0.1,0.2,0.3,0.3,0.4c0.1,0.2,0,0.3,0,0.5C10.1,31.9,10,32,9.8,32c-0.1,0.1-0.2,0.1-0.4,0c-0.1,0-0.1,0-0.2-0.1
				c-0.1,0-0.1-0.1-0.2-0.1c-0.1,0-0.2-0.1-0.3-0.1c-0.1,0-0.2,0-0.3,0c-0.1,0-0.2,0-0.4,0.1c-0.1,0-0.2,0.1-0.3,0.2
				c-0.1,0.1-0.2,0.2-0.2,0.3c-0.1,0.1-0.1,0.3-0.1,0.5V34.3z"/>
			<path class="st2" d="M13.8,36.4c-0.1,0-0.1,0-0.2,0c-0.1,0-0.2,0-0.2-0.1c-0.1,0-0.1-0.1-0.2-0.1c-0.1,0-0.1-0.1-0.1-0.2
				l-0.7-2.8L12,36.6h-1.3l0.6-5.4c0-0.1,0-0.2,0.1-0.3c0-0.1,0.1-0.2,0.2-0.2c0.1-0.1,0.1-0.1,0.2-0.1c0.1,0,0.2-0.1,0.2-0.1
				c0.1,0,0.2,0,0.3,0c0.1,0,0.2,0,0.3,0.1c0.1,0,0.2,0.1,0.2,0.2c0.1,0.1,0.1,0.2,0.2,0.3l0.8,3.5l0.8-3.5c0-0.1,0.1-0.2,0.1-0.3
				c0.1-0.1,0.1-0.2,0.2-0.2c0.1,0,0.2-0.1,0.3-0.1c0.1,0,0.2,0,0.3,0c0.1,0,0.2,0,0.2,0.1c0.1,0,0.2,0.1,0.2,0.1
				c0.1,0.1,0.1,0.1,0.2,0.2c0,0.1,0.1,0.2,0.1,0.3l0.6,5.4h-1.3l-0.3-3.5L14.5,36c0,0.1-0.1,0.1-0.1,0.2c-0.1,0-0.1,0.1-0.2,0.1
				c-0.1,0-0.1,0.1-0.2,0.1C13.9,36.4,13.8,36.4,13.8,36.4z"/>
			<path class="st2" d="M20,34.4v2.3h-1.4v-2.3L17,31.6c-0.1-0.1-0.1-0.2-0.1-0.3c0-0.1,0-0.2,0-0.3c0-0.1,0.1-0.2,0.1-0.3
				c0.1-0.1,0.1-0.1,0.2-0.2c0.2-0.1,0.4-0.1,0.6,0c0.2,0.1,0.3,0.3,0.5,0.5l1,1.8l0.9-1.8c0.1-0.1,0.1-0.2,0.2-0.3
				c0.1-0.1,0.1-0.1,0.2-0.2c0.1,0,0.2-0.1,0.3-0.1c0.1,0,0.2,0,0.3,0c0.1,0,0.2,0.1,0.2,0.1c0.1,0.1,0.1,0.2,0.2,0.3
				c0,0.1,0.1,0.2,0,0.3c0,0.1,0,0.2-0.1,0.4L20,34.4z"/>
			<path class="st2" d="M22.1,31.2c0-0.1,0-0.2,0.1-0.3c0-0.1,0.1-0.2,0.2-0.2c0.1-0.1,0.1-0.1,0.2-0.1c0.1,0,0.2,0,0.3,0
				c0.1,0,0.2,0,0.3,0c0.1,0,0.2,0.1,0.2,0.1c0.1,0.1,0.1,0.1,0.2,0.2c0,0.1,0.1,0.2,0.1,0.3V33l1.6-2.2c0.1-0.1,0.1-0.2,0.2-0.2
				c0.1-0.1,0.2-0.1,0.3-0.1c0.1,0,0.2,0,0.3,0c0.1,0,0.2,0.1,0.2,0.1c0.1,0.1,0.1,0.1,0.2,0.2c0.1,0.1,0.1,0.2,0.1,0.3
				c0,0.1,0,0.2,0,0.3c0,0.1-0.1,0.2-0.1,0.3l-1.3,1.6l1.9,3.4h-1.6L24,34.4l-0.6,0.7v1.6h-1.4V31.2z"/>
		</g>
	</g>
	<g>
		
			<ellipse transform="matrix(0.7705 -0.6374 0.6374 0.7705 -21.2615 62.1644)" class="st3" cx="75.7" cy="60.6" rx="20.4" ry="20.4"/>
		<g>
			<path class="st2" d="M66.9,58.8h0.7L67,55.1c-0.2-1.3,0.2-2.2,1.2-2.4c1-0.2,1.8,0.2,2,1.5l0.7,4.6h2l1-4.5
				c0.3-1.3,1.3-1.6,2-1.6s1.7,0.3,2,1.6l0.9,4.5h2l0.7-4.6c0.2-1.3,1-1.7,2-1.5c0.9,0.2,1.4,1.1,1.2,2.4l-0.6,3.7h0.7
				c0.9,0,1.2,0.6,1.2,1.2c0,0.6-0.3,1.3-1.2,1.3h-1.2l-1.1,6.4c-0.2,1.3-1.1,2-1.9,2.1c-0.9,0.1-2-0.3-2.3-1.8l-1.4-6.8h-2
				l-1.4,6.8c-0.3,1.4-1.4,1.8-2.3,1.8c-0.9-0.1-1.7-0.9-1.9-2.1L68,61.3h-1.2c-0.8,0-1.2-0.6-1.2-1.3C65.7,59.4,66,58.8,66.9,58.8z
				 M71.6,64.5l0.7-3.2h-1.1L71.6,64.5z M75.2,58.8h1l-0.5-2.5L75.2,58.8z M79.8,64.5l0.4-3.1h-1.1L79.8,64.5z"/>
		</g>
	</g>
	<g>
		<path class="st4" d="M43.1,67.8l5.6,6.2c-16.5,0.8-26-16.6-26-16.6"/>
		<line class="st4" x1="42.4" y1="79.4" x2="48.7" y2="73.9"/>
	</g>
	<g>
		<path class="st4" d="M61.2,23l-5.6-6.2c16.5-0.8,26,16.6,26,16.6"/>
		<line class="st4" x1="61.9" y1="11.4" x2="55.7" y2="16.9"/>
	</g>
</g>
</svg>
