<?xml version="1.0" encoding="utf-8"?>
<!-- Generator: Adobe Illustrator 26.5.0, SVG Export Plug-In . SVG Version: 6.00 Build 0)  -->
<svg version="1.1" id="Layer_1" xmlns="http://www.w3.org/2000/svg" xmlns:xlink="http://www.w3.org/1999/xlink" x="0px" y="0px"
	 viewBox="0 0 68.2 82" style="enable-background:new 0 0 68.2 82;" xml:space="preserve">
<style type="text/css">
	.st0{fill:#FFFFFF;stroke:#815130;stroke-width:2;stroke-linecap:round;stroke-linejoin:round;stroke-miterlimit:10;}
	.st1{fill:none;stroke:#815130;stroke-width:2;stroke-miterlimit:10;}
	.st2{fill:#815130;}
</style>
<g>
	<rect x="1" y="1" class="st0" width="66.2" height="80"/>
	<g>
		<line class="st1" x1="1" y1="10.3" x2="11.1" y2="10.3"/>
		<path class="st2" d="M14.4,10.3c0,1.8-1.5,3.3-3.3,3.3s-3.3-1.5-3.3-3.3S9.3,7,11.1,7S14.4,8.5,14.4,10.3z"/>
	</g>
	<g>
		<line class="st1" x1="1" y1="22.6" x2="11.1" y2="22.6"/>
		<path class="st2" d="M14.4,22.6c0,1.8-1.5,3.3-3.3,3.3s-3.3-1.5-3.3-3.3s1.5-3.3,3.3-3.3S14.4,20.8,14.4,22.6z"/>
	</g>
	<g>
		<line class="st1" x1="1" y1="34.9" x2="11.1" y2="34.9"/>
		<path class="st2" d="M14.4,34.9c0,1.8-1.5,3.3-3.3,3.3s-3.3-1.5-3.3-3.3s1.5-3.3,3.3-3.3S14.4,33.1,14.4,34.9z"/>
	</g>
	<g>
		<line class="st1" x1="1" y1="47.2" x2="11.1" y2="47.2"/>
		<path class="st2" d="M14.4,47.2c0,1.8-1.5,3.3-3.3,3.3S7.8,49,7.8,47.2c0-1.8,1.5-3.3,3.3-3.3S14.4,45.4,14.4,47.2z"/>
	</g>
	<g>
		<line class="st1" x1="1" y1="59.5" x2="11.1" y2="59.5"/>
		<path class="st2" d="M14.4,59.5c0,1.8-1.5,3.3-3.3,3.3s-3.3-1.5-3.3-3.3c0-1.8,1.5-3.3,3.3-3.3S14.4,57.7,14.4,59.5z"/>
	</g>
	<g>
		<line class="st1" x1="1" y1="71.8" x2="11.1" y2="71.8"/>
		<path class="st2" d="M14.4,71.8c0,1.8-1.5,3.3-3.3,3.3s-3.3-1.5-3.3-3.3c0-1.8,1.5-3.3,3.3-3.3S14.4,70,14.4,71.8z"/>
	</g>
</g>
</svg>
