<?xml version="1.0" encoding="utf-8"?>
<!-- Generator: Adobe Illustrator 26.5.0, SVG Export Plug-In . SVG Version: 6.00 Build 0)  -->
<svg version="1.1" id="Layer_1" xmlns="http://www.w3.org/2000/svg" xmlns:xlink="http://www.w3.org/1999/xlink" x="0px" y="0px"
	 viewBox="0 0 81.9 82" style="enable-background:new 0 0 81.9 82;" xml:space="preserve">
<style type="text/css">
	.st0{fill:#FFE79A;}
	.st1{fill:none;stroke:#815130;stroke-width:2;stroke-linecap:round;stroke-linejoin:round;stroke-miterlimit:10;}
	.st2{fill:#FFFFFF;}
</style>
<g>
	<path class="st0" d="M41,75.9c0,0,16.6-7.6,34.3,0V20.6h5.6v55c0,3-2.4,5.4-5.4,5.4H6.4c-3,0-5.4-2.4-5.4-5.4v-55h5.4v54.4
		C6.4,75.1,32.1,69.3,41,75.9V81"/>
	<path class="st1" d="M1,20.6v55c0,3,2.4,5.4,5.4,5.4h69.2c3,0,5.4-2.4,5.4-5.4v-55"/>
	<polygon class="st2" points="41.1,14.5 41.9,69.5 67.3,57.2 67.3,1 	"/>
	<path class="st1" d="M72.2,14l3.1,1v60.9c-21-8.3-34.3,0-34.3,0c-9.4-7.3-34.5-0.8-34.5-0.8V15c0,0,22.8-7.3,34.4-0.3L41,69.4
		c0,0,20.5-11.1,26.4-12.2V1c0,0-11.9,3.6-22.8,11.9"/>
	<path class="st1" d="M14.8,27.2c0,0,8.8-3,17.4-0.8"/>
	<path class="st1" d="M14.8,35.5c0,0,8.8-3,17.4-0.8"/>
	<path class="st1" d="M14.8,43.7c0,0,8.8-3,17.4-0.8"/>
	<path class="st1" d="M14.8,52c0,0,8.8-3,17.4-0.8"/>
	<path class="st1" d="M14.8,60.2c0,0,8.8-3,17.4-0.8"/>
	<path class="st1" d="M47.8,21.6c0,0,10.7-5.8,12.5-5.4"/>
	<path class="st1" d="M47.8,30.1c0,0,10.7-5.8,12.5-5.4"/>
	<path class="st1" d="M47.8,38.6c0,0,10.7-5.8,12.5-5.4"/>
	<path class="st1" d="M47.8,47.1c0,0,10.7-5.8,12.5-5.4"/>
	<path class="st1" d="M47.8,55.6c0,0,10.7-5.8,12.5-5.4"/>
	<line class="st1" x1="41" y1="75.9" x2="41" y2="81"/>
</g>
</svg>
