<?xml version="1.0" encoding="utf-8"?>
<!-- Generator: Adobe Illustrator 26.5.0, SVG Export Plug-In . SVG Version: 6.00 Build 0)  -->
<svg version="1.1" id="Layer_1" xmlns="http://www.w3.org/2000/svg" xmlns:xlink="http://www.w3.org/1999/xlink" x="0px" y="0px"
	 viewBox="0 0 79.8 82" style="enable-background:new 0 0 79.8 82;" xml:space="preserve">
<style type="text/css">
	.st0{fill:#FFFFFF;}
	.st1{fill:none;stroke:#815130;stroke-width:2;stroke-linecap:round;stroke-linejoin:round;stroke-miterlimit:10;}
	.st2{fill:#FFFFFF;stroke:#815130;stroke-width:2;stroke-linecap:round;stroke-linejoin:round;stroke-miterlimit:10;}
	.st3{fill:#FFE79A;}
</style>
<g>
	<g>
		<g id="XMLID_10_">
			<g>
				<path class="st0" d="M31.4,81C3.6,79.3,1,53.1,1,53.1V34.7c1.7-7.5,11.6-10.8,20.4-12.3C20,29.4,21,35.3,21,35.3
					c16.6,1.3,25.3-4.3,29.8-11.3c13,4.3,12.7,12,12.7,12V54C58.1,83,31.4,81,31.4,81z"/>
			</g>
			<g>
				<path class="st1" d="M50.7,24c-4.5,7-13.2,12.6-29.8,11.3c0,0-1-5.9,0.4-12.8C12.6,23.9,2.7,27.2,1,34.7v18.4
					c0,0,2.6,26.2,30.4,27.9c0,0,26.7,2,32-26.9V36C63.4,36,63.7,28.3,50.7,24z"/>
			</g>
		</g>
		<g>
			<path class="st2" d="M6.4,34.7c0,0.9,0.4,1.8,1.1,2.6c0.8-3.1,5.9-5.8,13.1-7.2c0-1.1,0-2.3,0.2-3.5C12.3,28.1,6.4,31.2,6.4,34.7
				z"/>
			<path class="st2" d="M48,27.5c-0.9,1-2,1.9-3.2,2.8c6.8,1.5,11.6,4,12.3,7.1c0.7-0.8,1.1-1.7,1.1-2.6
				C58.2,31.8,54.2,29.1,48,27.5z"/>
		</g>
	</g>
	<path class="st0" d="M63.4,54c5.9-2.9,9.4-12.2,9.4-12.2c-1-8.5-11.9-6.2-11.9-6.2l-2.7-5.4c0,0,17.5-6.5,20.6,10.3"/>
	<polyline class="st0" points="63.4,54 62.7,60.1 73.4,53.1 77.7,47 78.8,40.6 	"/>
	<path class="st3" d="M57.2,36.2c0,3.8-11.1,6.9-24.8,6.9c-13.7,0-24.8-3.1-24.8-6.9c0,0,9.7-6.7,13.1-6.1c3.4,0.6,0,0,0,0l0.3,5.2
		c0,0,16.1,1.2,23.9-5.1c7.8-6.3,0,0,0,0S55.7,31.4,57.2,36.2"/>
	<g>
		<path class="st1" d="M50.7,24C57.1,14,55,1.2,55,1.2C30.8-0.7,23.4,12,21.4,22.5"/>
		<g id="XMLID_7_">
			<g>
			</g>
			<g>
				<path class="st1" d="M50.7,24c-4.5,7-13.2,12.6-29.8,11.3c0,0-1-5.9,0.4-12.8C12.6,23.9,2.7,27.2,1,34.7v18.4
					c0,0,2.6,26.2,30.4,27.9c0,0,26.7,2,32-26.9V36C63.4,36,63.7,28.3,50.7,24z"/>
			</g>
		</g>
		<g>
			<path class="st1" d="M6.4,34.7c0,0.9,0.4,1.8,1.1,2.6c0.8-3.1,5.9-5.8,13.1-7.2c0-1.1,0-2.3,0.2-3.5C12.3,28.1,6.4,31.2,6.4,34.7
				z"/>
			<path class="st1" d="M48,27.5c-0.9,1-2,1.9-3.2,2.8c6.8,1.5,11.6,4,12.3,7.1c0.7-0.8,1.1-1.7,1.1-2.6
				C58.2,31.8,54.2,29.1,48,27.5z"/>
		</g>
	</g>
	<path class="st1" d="M7.5,37.3c3.2,3.8,13.1,6.5,24.8,6.5c11.8,0,21.7-2.8,24.8-6.6"/>
	<g id="XMLID_9_">
		<g>
		</g>
		<g>
			<path class="st1" d="M61.2,61.8l10.6-6.9c3.1-2,5.5-5.1,6.5-8.7c0.5-1.9,0.7-4.1,0.1-6.4c-0.4-1.8-1.3-3.5-2.4-5
				c-2.3-3-7.3-7.3-15.2-4.6"/>
			<path class="st1" d="M63.4,35.7h1.4c1.2,0,2.4,0.2,3.5,0.8c0.7,0.3,1.3,0.8,1.8,1.3c0.4,0.4,0.9,1,1.1,1.6
				c1.7,3.7,0.6,7.8-2.8,10l-5.2,3.7"/>
		</g>
	</g>
</g>
</svg>
