<?xml version="1.0" encoding="utf-8"?>
<!-- Generator: Adobe Illustrator 26.5.0, SVG Export Plug-In . SVG Version: 6.00 Build 0)  -->
<svg version="1.1" id="Layer_1" xmlns="http://www.w3.org/2000/svg" xmlns:xlink="http://www.w3.org/1999/xlink" x="0px" y="0px"
	 viewBox="0 0 90.1 82" style="enable-background:new 0 0 90.1 82;" xml:space="preserve">
<style type="text/css">
	.st0{fill:#FFE79A;}
	.st1{fill:none;stroke:#815130;stroke-width:2;stroke-linecap:round;stroke-linejoin:round;stroke-miterlimit:10;}
	.st2{fill:#FFFFFF;}
	.st3{fill:none;stroke:#815130;stroke-width:2;stroke-miterlimit:10;}
	.st4{fill:none;stroke:#815130;stroke-miterlimit:10;}
</style>
<g>
	<g id="XMLID_00000183965581625589297240000016341262759171916435_">
		<g>
			<path class="st0" d="M49,34.9c5.3-1.6,11,1.5,12.6,6.8c1.6,5.4-1.5,11.3-6.8,12.9c-0.7,0.2-1.5,0.4-2.3,0.4
				c0.6,0.6,1.1,1.1,1.5,1.7c3.2,4.6,2,10.9-2.6,14.1c-4.6,3.1-10.2,2-13.4-2.6c-0.4-0.6-0.8-1.3-1.1-2c-0.3,0.7-0.8,1.4-1.2,2
				c-3.4,4.4-9.3,5.3-13.7,1.9c-4.4-3.4-5.3-9.7-1.9-14.2c0.4-0.6,1-1.1,1.6-1.7c-0.8-0.1-1.6-0.3-2.2-0.6c-5.2-1.8-8-7.9-6.1-13.2
				c1.8-5.3,7.6-8,12.9-6.2c0.7,0.2,1.4,0.6,2.1,1c-0.1-0.8-0.2-1.6-0.2-2.3c0.1-5.6,4.3-10,9.9-9.8c5.5,0.1,9.3,4.7,9.2,10.3
				c0,0.7-0.1,1.5-0.3,2.3C47.6,35.5,48.3,35.2,49,34.9z"/>
		</g>
		<g>
			<path class="st1" d="M54.7,54.6c5.3-1.6,8.4-7.5,6.8-12.9c-1.6-5.3-7.2-8.4-12.6-6.8c-0.7,0.2-1.4,0.5-2.1,0.9
				c0.2-0.8,0.3-1.6,0.3-2.3c0.1-5.6-3.6-10.2-9.2-10.3c-5.5-0.2-9.8,4.2-9.9,9.8c0,0.7,0,1.5,0.2,2.3c-0.7-0.4-1.4-0.7-2.1-1
				c-5.2-1.9-11,0.9-12.9,6.2c-1.9,5.3,0.9,11.4,6.1,13.2c0.7,0.2,1.4,0.4,2.2,0.6c-0.6,0.5-1.1,1.1-1.6,1.7
				c-3.4,4.4-2.6,10.8,1.9,14.2c4.4,3.4,10.3,2.6,13.7-1.9c0.4-0.6,0.9-1.2,1.2-2c0.3,0.7,0.7,1.4,1.1,2c3.2,4.6,8.8,5.7,13.4,2.6
				c4.6-3.2,5.7-9.5,2.6-14.1c-0.4-0.6-0.9-1.2-1.5-1.7C53.2,55,54,54.8,54.7,54.6z"/>
		</g>
	</g>
	<path class="st2" d="M74.9,13.1H7.1C-1,14.2,1,10.4,1,7.1l0,0C1,3.7,3.7,1,7.1,1h67.9C78.3,1,81,3.7,81,7.1l0,0
		C81,10.4,82,14.2,74.9,13.1z"/>
	<path class="st3" d="M81,24.1V7.6C81,4,78,1,74.4,1H7.6C4,1,1,4,1,7.6v66.8C1,78,4,81,7.6,81h66.8c3.6,0,6.6-3,6.6-6.6v-7.7"/>
	<line class="st3" x1="1" y1="13.1" x2="81" y2="13.1"/>
	<polyline class="st1" points="89.1,74.7 73.4,59.2 81,52.1 89.1,60.1 	"/>
	<line class="st3" x1="77.1" y1="55.8" x2="72.9" y2="51.4"/>
	<ellipse transform="matrix(0.2315 -0.9728 0.9728 0.2315 8.855 87.3214)" class="st3" cx="59.7" cy="38.1" rx="18.7" ry="18.7"/>
	<circle class="st4" cx="9.3" cy="6.9" r="1.2"/>
	<circle class="st4" cx="15.8" cy="6.9" r="1.2"/>
	<path class="st4" d="M23.5,6.9c0,0.7-0.6,1.2-1.2,1.2c-0.7,0-1.2-0.6-1.2-1.2s0.6-1.2,1.2-1.2C22.9,5.7,23.5,6.3,23.5,6.9z"/>
</g>
</svg>
