<?xml version="1.0" encoding="utf-8"?>
<!-- Generator: Adobe Illustrator 26.5.0, SVG Export Plug-In . SVG Version: 6.00 Build 0)  -->
<svg version="1.1" id="Layer_1" xmlns="http://www.w3.org/2000/svg" xmlns:xlink="http://www.w3.org/1999/xlink" x="0px" y="0px"
	 viewBox="0 0 89 82" style="enable-background:new 0 0 89 82;" xml:space="preserve">
<style type="text/css">
	.st0{fill:#FFE79A;}
	.st1{fill:none;stroke:#815130;stroke-width:2;stroke-linecap:round;stroke-linejoin:round;stroke-miterlimit:10;}
	.st2{fill:#FFFFFF;}
</style>
<g>
	<path class="st0" d="M8.6,1l1.6,41.7c0,0,5.2,21.4,12.6,22.9L88,64.9C88,64.9,75,53.6,76.8,1H8.6z"/>
	<polygon class="st1" points="8.6,1 8.6,74.5 78.2,74.5 66.1,81 1,81 1,12.3 	"/>
	<path class="st1" d="M8.6,1h68.2v21.6c0,0,0.3,35.4,11.3,42.3H22.8c0,0-13.7-4.7-14.2-46"/>
	<g>
		<g id="XMLID_4_">
			<g>
				<path class="st2" d="M42.9,8c5.6-0.6,10,3.5,10.5,9.2c0.1,0.7,0.1,1.5,0,2.3c0.7-0.5,1.3-0.9,2-1.2c5.2-2.3,11.2,0.1,13.5,5.2
					c2.3,5.2-0.1,11.6-5.2,13.8c-0.7,0.3-1.4,0.6-2.2,0.7c0.6,0.5,1.2,1,1.7,1.6c3.8,4.2,3.4,10.7-0.8,14.5
					c-4.2,3.8-10,3.4-13.8-0.9c-0.5-0.6-1-1.2-1.4-1.9c-0.3,0.8-0.6,1.5-1,2.1c-2.8,4.9-8.6,6.5-13.5,3.7c-4.9-2.8-6.5-9.1-3.7-14
					c0.4-0.6,0.8-1.3,1.4-1.9c-0.8,0-1.6-0.1-2.3-0.3c-5.5-1.2-9.1-6.9-7.9-12.5c1.2-5.5,6.6-9,12.2-7.9c0.7,0.2,1.5,0.4,2.2,0.7
					c-0.2-0.8-0.4-1.5-0.5-2.3C33.7,13.5,37.3,8.6,42.9,8z"/>
			</g>
			<g>
				<path class="st1" d="M63.8,37.4c5.1-2.3,7.5-8.6,5.2-13.8c-2.3-5.2-8.4-7.5-13.5-5.2c-0.7,0.3-1.4,0.7-2,1.2
					c0.1-0.8,0.1-1.6,0-2.3c-0.6-5.7-5-9.8-10.5-9.2c-5.6,0.6-9.3,5.5-8.7,11.2c0.1,0.7,0.2,1.5,0.5,2.3c-0.7-0.3-1.5-0.6-2.2-0.7
					c-5.5-1.2-11,2.3-12.2,7.9c-1.2,5.6,2.4,11.3,7.9,12.5c0.7,0.1,1.5,0.2,2.3,0.3c-0.5,0.6-1,1.2-1.4,1.9
					c-2.8,4.9-1.2,11.2,3.7,14c4.9,2.8,10.7,1.2,13.5-3.7c0.4-0.6,0.7-1.4,1-2.1c0.4,0.7,0.9,1.3,1.4,1.9c3.8,4.2,9.6,4.6,13.8,0.9
					c4.2-3.8,4.6-10.3,0.8-14.5c-0.5-0.5-1.1-1.1-1.7-1.6C62.4,38,63.1,37.7,63.8,37.4z"/>
			</g>
		</g>
		<path class="st1" d="M34.7,28.5c0,0,1.4,0,2.4,0.7c0.8,0.6,1.9,0.6,2.8,0.1l0,0c0,0,1.6-1.6,3.7-0.5c0.6,0.3,1.2,0.6,1.8,0.8
			c0.4,0.1,0.8,0.2,1.9-0.5c0,0,1.8-1.8,4-0.2c0.4,0.3,0.9,0.5,1.5,0.5l0.2,0c0.6,0,1.2-0.3,1.6-0.6c0.3-0.3,0.9-0.6,1.7-0.5"/>
		<path class="st1" d="M34.7,33.1c0,0,1.4,0,2.4,0.7c0.8,0.6,1.9,0.6,2.8,0.1l0,0c0,0,1.6-1.6,3.7-0.5c0.6,0.3,1.2,0.6,1.8,0.8
			c0.4,0.1,0.8,0.2,1.9-0.5c0,0,1.8-1.8,4-0.2c0.4,0.3,0.9,0.5,1.5,0.5l0.2,0c0.6,0,1.2-0.3,1.6-0.6c0.3-0.3,0.9-0.6,1.7-0.5"/>
		<path class="st1" d="M34.7,37.8c0,0,1.4,0,2.4,0.7c0.8,0.6,1.9,0.6,2.8,0.1l0,0c0,0,1.6-1.6,3.7-0.5c0.6,0.3,1.2,0.6,1.8,0.8
			c0.4,0.1,0.8,0.2,1.9-0.5c0,0,1.8-1.8,4-0.2c0.4,0.3,0.9,0.5,1.5,0.5l0.2,0c0.6,0,1.2-0.3,1.6-0.6c0.3-0.3,0.9-0.6,1.7-0.5"/>
	</g>
</g>
</svg>
