<?xml version="1.0" encoding="utf-8"?>
<!-- Generator: Adobe Illustrator 26.5.0, SVG Export Plug-In . SVG Version: 6.00 Build 0)  -->
<svg version="1.1" id="Layer_1" xmlns="http://www.w3.org/2000/svg" xmlns:xlink="http://www.w3.org/1999/xlink" x="0px" y="0px"
	 viewBox="0 0 81.2 81.2" style="enable-background:new 0 0 81.2 81.2;" xml:space="preserve">
<style type="text/css">
	.st0{fill:#FFE79A;}
	.st1{fill:none;stroke:#815130;stroke-width:1.5;stroke-miterlimit:10;}
	.st2{fill:#FFFFFF;}
	.st3{fill:none;stroke:#815130;stroke-width:2;stroke-miterlimit:10;}
	.st4{fill:none;stroke:#815130;stroke-miterlimit:10;}
	.st5{fill:none;stroke:#815130;stroke-width:0.5;stroke-miterlimit:10;}
</style>
<g>
	<g id="XMLID_13_">
		<g>
			<path class="st0" d="M33.3,35.5c0-4.3,3.2-7.7,7.4-7.7c4.2,0,7.2,3.5,7.2,7.8c0,0.6-0.1,1.2-0.2,1.8c0.5-0.3,1.1-0.5,1.6-0.7
				c4.1-1.3,8.4,1,9.7,5c1.3,4.1-1,8.7-5,10c-0.5,0.2-1.1,0.3-1.7,0.4c0.5,0.4,0.8,0.9,1.2,1.3c2.5,3.5,1.7,8.3-1.8,10.8
				c-3.5,2.5-7.8,1.7-10.3-1.8c-0.3-0.5-0.6-1-0.9-1.5c-0.3,0.6-0.6,1.1-0.9,1.5c-2.5,3.5-7,4.2-10.5,1.7c-3.5-2.5-4.2-7.4-1.7-10.8
				c0.3-0.5,0.7-0.9,1.2-1.3c-0.6-0.1-1.2-0.2-1.7-0.4c-4-1.3-6.3-5.9-4.9-10.1c1.3-4.1,5.7-6.3,9.8-4.9c0.5,0.2,1.1,0.4,1.6,0.7
				C33.3,36.7,33.3,36.1,33.3,35.5z"/>
		</g>
		<g>
		</g>
	</g>
	<path class="st1" d="M47.6,68.7c-2.6,0.1-5.1-0.9-7.1-2.7c-1.9,1.7-4.2,2.6-6.7,2.6c-2.3,0-4.5-0.7-6.5-2.1
		c-4.2-3.1-5.5-8.5-3.5-13.1c-4.2-2.6-6.4-8-4.7-12.9c1.4-4.3,5.5-7.3,10.1-7.4c0.4,0,0.8,0,1.3,0c1-4.8,5-8.3,10-8.4l0.3,0
		c5.1,0,9.1,3.5,10,8.5c0.2,0,0.5,0,0.7,0c4.8-0.1,9.1,3,10.5,7.5c1.6,4.9-0.6,10.3-4.8,12.9c2,4.6,0.6,10-3.6,13.1
		C51.7,67.9,49.7,68.6,47.6,68.7C47.6,68.7,47.6,68.7,47.6,68.7z"/>
	<g>
		<path class="st2" d="M74.2,13H7c-8,1-6-2.7-6-6v0c0-3.3,2.7-6,6-6h67.2c3.3,0,6,2.7,6,6v0C80.2,10.3,81.2,14,74.2,13z"/>
		<path class="st3" d="M80.2,66v7.6c0,3.6-2.9,6.5-6.5,6.5H7.5c-3.6,0-6.5-2.9-6.5-6.5V7.5C1,3.9,3.9,1,7.5,1h66.1
			c3.6,0,6.5,2.9,6.5,6.5v16.4V66z"/>
		<line class="st3" x1="1" y1="13" x2="80.2" y2="13"/>
		<path class="st4" d="M10.4,6.9c0,0.7-0.6,1.2-1.2,1.2C8.5,8.1,8,7.6,8,6.9c0-0.7,0.6-1.2,1.2-1.2C9.9,5.7,10.4,6.2,10.4,6.9z"/>
		<path class="st4" d="M16.8,6.9c0,0.7-0.6,1.2-1.2,1.2c-0.7,0-1.2-0.6-1.2-1.2c0-0.7,0.6-1.2,1.2-1.2C16.3,5.7,16.8,6.2,16.8,6.9z"
			/>
		<path class="st4" d="M23.3,6.9c0,0.7-0.6,1.2-1.2,1.2c-0.7,0-1.2-0.6-1.2-1.2c0-0.7,0.6-1.2,1.2-1.2C22.7,5.7,23.3,6.2,23.3,6.9z"
			/>
	</g>
	<line class="st5" x1="1" y1="21" x2="80.2" y2="21"/>
	<line class="st5" x1="1" y1="73" x2="79.8" y2="73"/>
	<line class="st5" x1="9.2" y1="13.3" x2="9.2" y2="80.3"/>
	<line class="st5" x1="72.4" y1="14" x2="72.4" y2="81"/>
</g>
</svg>
