<?xml version="1.0" encoding="utf-8"?>
<!-- Generator: Adobe Illustrator 26.5.0, SVG Export Plug-In . SVG Version: 6.00 Build 0)  -->
<svg version="1.1" id="Layer_1" xmlns="http://www.w3.org/2000/svg" xmlns:xlink="http://www.w3.org/1999/xlink" x="0px" y="0px"
	 viewBox="0 0 127.6 113.4" style="enable-background:new 0 0 127.6 113.4;" xml:space="preserve">
<style type="text/css">
	.st0{fill:#E9E9E9;}
	.st1{display:none;fill:#FCE8D5;}
	.st2{display:none;fill:#FFFFFF;}
	.st3{fill:#FFFFFF;}
	
		.st4{display:none;fill:none;stroke:#EEC7AB;stroke-width:0.75;stroke-linecap:round;stroke-linejoin:round;stroke-miterlimit:10;stroke-dasharray:1,3;}
	.st5{display:none;fill:none;stroke:#FFFFFF;stroke-miterlimit:10;}
	.st6{clip-path:url(#SVGID_00000134951896523977150860000018303297155115296928_);fill:#E2B892;}
	.st7{clip-path:url(#SVGID_00000134951896523977150860000018303297155115296928_);fill:#D0CFCE;}
	.st8{clip-path:url(#SVGID_00000134951896523977150860000018303297155115296928_);fill:#BBBBBB;}
	.st9{clip-path:url(#SVGID_00000134951896523977150860000018303297155115296928_);fill:#E8E8E8;}
	
		.st10{clip-path:url(#SVGID_00000134951896523977150860000018303297155115296928_);fill:none;stroke:#BB855E;stroke-width:0.75;stroke-miterlimit:10;stroke-dasharray:2,3;}
	.st11{clip-path:url(#SVGID_00000134951896523977150860000018303297155115296928_);}
	.st12{fill:#BBBBBB;}
	.st13{fill:#68482E;}
	.st14{fill:#FDFDF7;}
	.st15{fill:#FBE7EC;}
	.st16{fill:#D0CFCE;}
	.st17{fill:#317091;}
	.st18{fill:#205F7B;}
	.st19{fill:#4884AC;}
	.st20{fill:#C5D5DD;}
	.st21{fill:#010000;}
	.st22{fill:#303030;}
	.st23{fill:#BBBBBA;}
</style>
<g id="고양이_1_">
	<g>
		<circle class="st0" cx="56.7" cy="56.7" r="56.7"/>
		<g id="스칼럽_3_">
			<path class="st1" d="M56.7,0C25.4,0,0,25.4,0,56.7s25.4,56.7,56.7,56.7c31.3,0,56.7-25.4,56.7-56.7S88,0,56.7,0z M102.6,65.2
				c-0.3,1.6-1.3,2.8-2.6,3.5c0.8,1.3,1,2.8,0.5,4.3c-0.5,1.5-1.7,2.6-3.1,3c0.6,1.4,0.5,3-0.3,4.3c-0.8,1.4-2.2,2.2-3.6,2.4
				c0.3,1.4,0,3-1,4.2c-1,1.2-2.5,1.8-4,1.8c0.1,1.5-0.5,3-1.8,4c-1.2,1-2.8,1.3-4.2,1c-0.2,1.5-1,2.8-2.4,3.6
				c-1.4,0.8-3,0.9-4.3,0.3c-0.5,1.4-1.5,2.6-3,3.1c-1.5,0.5-3.1,0.3-4.3-0.5c-0.7,1.3-2,2.3-3.5,2.6c-1.6,0.3-3.1-0.2-4.2-1.2
				c-0.9,1.2-2.3,1.9-3.9,1.9c-1.6,0-3-0.8-3.9-1.9c-1.1,1-2.6,1.5-4.2,1.2c-1.6-0.3-2.8-1.3-3.5-2.6c-1.3,0.8-2.8,1-4.3,0.5
				c-1.5-0.5-2.6-1.7-3-3.1c-1.4,0.6-3,0.5-4.3-0.3c-1.4-0.8-2.2-2.2-2.4-3.6c-1.4,0.3-3,0-4.2-1c-1.2-1-1.8-2.5-1.8-4
				c-1.5,0.1-3-0.5-4-1.8c-1-1.2-1.3-2.8-1-4.2c-1.5-0.2-2.8-1.1-3.6-2.4c-0.8-1.4-0.9-3-0.3-4.3c-1.4-0.5-2.6-1.5-3.1-3
				c-0.5-1.5-0.3-3.1,0.5-4.3c-1.3-0.7-2.3-2-2.6-3.5C10.5,63.6,11,62.1,12,61c-1.2-0.9-1.9-2.3-1.9-3.9c0-1.6,0.8-3,1.9-3.9
				c-1-1.1-1.5-2.6-1.2-4.2c0.3-1.6,1.3-2.8,2.6-3.5c-0.8-1.3-1-2.8-0.5-4.3c0.5-1.5,1.7-2.6,3.1-3c-0.6-1.4-0.5-3,0.3-4.3
				c0.8-1.4,2.2-2.2,3.6-2.4c-0.3-1.4,0-3,1-4.2c1-1.2,2.5-1.8,4-1.8c-0.1-1.5,0.5-3,1.8-4c1.2-1,2.8-1.3,4.2-1
				c0.2-1.5,1-2.8,2.4-3.6c1.4-0.8,3-0.9,4.3-0.3c0.5-1.4,1.5-2.6,3-3.1c1.5-0.5,3.1-0.3,4.3,0.5c0.7-1.3,2-2.3,3.5-2.6
				c1.6-0.3,3.1,0.2,4.2,1.2c0.9-1.2,2.3-1.9,3.9-1.9c1.6,0,3,0.8,3.9,1.9c1.1-1,2.6-1.5,4.2-1.2c1.6,0.3,2.8,1.3,3.5,2.6
				c1.3-0.8,2.8-1,4.3-0.5c1.5,0.5,2.6,1.7,3,3.1c1.4-0.6,3-0.5,4.3,0.3c1.4,0.8,2.2,2.2,2.4,3.6c1.4-0.3,3,0,4.2,1
				c1.2,1,1.8,2.5,1.8,4c1.5-0.1,3,0.5,4,1.8c1,1.2,1.3,2.8,1,4.2c1.5,0.2,2.8,1,3.6,2.4c0.8,1.4,0.9,3,0.3,4.3
				c1.4,0.5,2.6,1.5,3.1,3c0.5,1.5,0.3,3.1-0.5,4.3c1.3,0.7,2.3,2,2.6,3.5c0.3,1.6-0.2,3.1-1.2,4.2c1.2,0.9,1.9,2.3,1.9,3.9
				c0,1.6-0.8,3-1.9,3.9C102.4,62.1,102.9,63.6,102.6,65.2z"/>
			<path class="st1" d="M92.9,50.7c-0.2-1.3,0.1-2.5,0.7-3.5c-1-0.6-1.9-1.5-2.3-2.7c-0.4-1.2-0.4-2.5,0.1-3.6
				c-1.1-0.4-2.1-1.1-2.8-2.2c-0.6-1.1-0.8-2.4-0.5-3.5c-1.2-0.2-2.3-0.7-3.1-1.7c-0.8-1-1.2-2.2-1.1-3.4c-1.2,0-2.4-0.3-3.4-1.1
				c-1-0.8-1.5-1.9-1.7-3.1c-1.2,0.3-2.4,0.1-3.5-0.5c-1.1-0.6-1.9-1.6-2.2-2.8c-1.1,0.4-2.4,0.5-3.6,0.1c-1.2-0.4-2.1-1.3-2.7-2.3
				c-1,0.6-2.2,0.9-3.5,0.7c-1.3-0.2-2.3-0.9-3.1-1.8c-0.9,0.8-2,1.3-3.3,1.3c-1.3,0-2.4-0.5-3.3-1.3c-0.7,0.9-1.8,1.6-3.1,1.8
				c-1.3,0.2-2.5-0.1-3.5-0.7c-0.6,1-1.5,1.9-2.7,2.3c-1.2,0.4-2.5,0.4-3.6-0.1c-0.4,1.1-1.1,2.1-2.2,2.8c-1.1,0.6-2.4,0.8-3.5,0.5
				c-0.2,1.2-0.7,2.3-1.7,3.1c-1,0.8-2.2,1.2-3.4,1.1c0,1.2-0.3,2.4-1.1,3.4c-0.8,1-1.9,1.5-3.1,1.7c0.3,1.2,0.1,2.4-0.5,3.5
				c-0.6,1.1-1.6,1.9-2.8,2.2c0.4,1.1,0.5,2.4,0.1,3.6c-0.4,1.2-1.3,2.1-2.3,2.7c0.6,1,0.9,2.2,0.7,3.5c-0.2,1.3-0.9,2.3-1.8,3.1
				c0.8,0.9,1.3,2,1.3,3.3c0,1.3-0.5,2.4-1.3,3.3c0.9,0.7,1.6,1.8,1.8,3.1c0.2,1.3-0.1,2.5-0.7,3.5c1,0.6,1.9,1.5,2.3,2.7
				c0.4,1.2,0.4,2.5-0.1,3.6c1.1,0.4,2.1,1.1,2.8,2.2c0.6,1.1,0.8,2.4,0.5,3.5c1.2,0.2,2.3,0.7,3.1,1.7c0.8,1,1.2,2.2,1.1,3.4
				c1.2,0,2.4,0.3,3.4,1.1c1,0.8,1.5,1.9,1.7,3.1c1.2-0.3,2.4-0.1,3.5,0.5c1.1,0.6,1.9,1.6,2.2,2.8c1.1-0.4,2.4-0.5,3.6-0.1
				c1.2,0.4,2.1,1.3,2.7,2.3c1-0.6,2.2-0.9,3.5-0.7c1.3,0.2,2.3,0.9,3.1,1.8c0.9-0.8,2-1.3,3.3-1.3c1.3,0,2.4,0.5,3.3,1.3
				c0.7-0.9,1.8-1.6,3.1-1.8c1.3-0.2,2.5,0.1,3.5,0.7c0.6-1,1.5-1.9,2.7-2.3c1.2-0.4,2.5-0.4,3.6,0.1c0.4-1.1,1.1-2.1,2.2-2.8
				c1.1-0.6,2.4-0.8,3.5-0.5c0.2-1.2,0.7-2.3,1.7-3.1c1-0.8,2.2-1.2,3.4-1.1c0-1.2,0.3-2.4,1.1-3.4c0.8-1,1.9-1.5,3.1-1.7
				c-0.3-1.2-0.1-2.4,0.5-3.5c0.6-1.1,1.6-1.9,2.8-2.2c-0.4-1.1-0.5-2.4-0.1-3.6c0.4-1.2,1.3-2.1,2.3-2.7c-0.6-1-0.9-2.2-0.7-3.5
				c0.2-1.3,0.9-2.3,1.8-3.1c-0.8-0.9-1.3-2-1.3-3.3c0-1.3,0.5-2.4,1.3-3.3C93.8,53,93.1,52,92.9,50.7z"/>
			<path class="st2" d="M103.3,57.1c0-1.6-0.8-3-1.9-3.9c1-1.1,1.5-2.6,1.2-4.2c-0.3-1.6-1.3-2.8-2.6-3.5c0.8-1.3,1-2.8,0.5-4.3
				c-0.5-1.5-1.7-2.6-3.1-3c0.6-1.4,0.5-3-0.3-4.3c-0.8-1.4-2.2-2.2-3.6-2.4c0.3-1.4,0-3-1-4.2c-1-1.2-2.5-1.8-4-1.8
				c0.1-1.5-0.5-3-1.8-4c-1.2-1-2.8-1.3-4.2-1c-0.2-1.5-1-2.8-2.4-3.6c-1.4-0.8-3-0.9-4.3-0.3c-0.5-1.4-1.5-2.6-3-3.1
				c-1.5-0.5-3.1-0.3-4.3,0.5c-0.7-1.3-2-2.3-3.5-2.6c-1.6-0.3-3.1,0.2-4.2,1.2c-0.9-1.2-2.3-1.9-3.9-1.9c-1.6,0-3,0.8-3.9,1.9
				c-1.1-1-2.6-1.5-4.2-1.2c-1.6,0.3-2.8,1.3-3.5,2.6c-1.3-0.8-2.8-1-4.3-0.5c-1.5,0.5-2.6,1.7-3,3.1c-1.4-0.6-3-0.5-4.3,0.3
				c-1.4,0.8-2.2,2.2-2.4,3.6c-1.4-0.3-3,0-4.2,1c-1.2,1-1.8,2.5-1.8,4c-1.5-0.1-3,0.5-4,1.8c-1,1.2-1.3,2.8-1,4.2
				c-1.5,0.2-2.8,1-3.6,2.4c-0.8,1.4-0.9,3-0.3,4.3c-1.4,0.5-2.6,1.5-3.1,3c-0.5,1.5-0.3,3.1,0.5,4.3c-1.3,0.7-2.3,2-2.6,3.5
				c-0.3,1.6,0.2,3.1,1.2,4.2c-1.2,0.9-1.9,2.3-1.9,3.9c0,1.6,0.8,3,1.9,3.9c-1,1.1-1.5,2.6-1.2,4.2c0.3,1.6,1.3,2.8,2.6,3.5
				c-0.8,1.3-1,2.8-0.5,4.3c0.5,1.5,1.7,2.6,3.1,3c-0.6,1.4-0.5,3,0.3,4.3c0.8,1.4,2.2,2.2,3.6,2.4c-0.3,1.4,0,3,1,4.2
				c1,1.2,2.5,1.8,4,1.8c-0.1,1.5,0.5,3,1.8,4c1.2,1,2.8,1.3,4.2,1c0.2,1.5,1,2.8,2.4,3.6c1.4,0.8,3,0.9,4.3,0.3
				c0.5,1.4,1.5,2.6,3,3.1c1.5,0.5,3.1,0.3,4.3-0.5c0.7,1.3,2,2.3,3.5,2.6c1.6,0.3,3.1-0.2,4.2-1.2c0.9,1.2,2.3,1.9,3.9,1.9
				c1.6,0,3-0.8,3.9-1.9c1.1,1,2.6,1.5,4.2,1.2c1.6-0.3,2.8-1.3,3.5-2.6c1.3,0.8,2.8,1,4.3,0.5c1.5-0.5,2.6-1.7,3-3.1
				c1.4,0.6,3,0.5,4.3-0.3c1.4-0.8,2.2-2.2,2.4-3.6c1.4,0.3,3,0,4.2-1c1.2-1,1.8-2.5,1.8-4c1.5,0.1,3-0.5,4-1.8c1-1.2,1.3-2.8,1-4.2
				c1.5-0.2,2.8-1.1,3.6-2.4c0.8-1.4,0.9-3,0.3-4.3c1.4-0.5,2.6-1.5,3.1-3c0.5-1.5,0.3-3.1-0.5-4.3c1.3-0.7,2.3-2,2.6-3.5
				c0.3-1.6-0.2-3.1-1.2-4.2C102.6,60.1,103.3,58.7,103.3,57.1z M94.7,60.4c-0.9,0.7-1.6,1.8-1.8,3.1c-0.2,1.3,0.1,2.5,0.7,3.5
				c-1,0.6-1.9,1.5-2.3,2.7c-0.4,1.2-0.4,2.5,0.1,3.6c-1.1,0.4-2.1,1.1-2.8,2.2c-0.6,1.1-0.8,2.4-0.5,3.5c-1.2,0.2-2.3,0.7-3.1,1.7
				c-0.8,1-1.2,2.2-1.1,3.4c-1.2,0-2.4,0.3-3.4,1.1c-1,0.8-1.5,1.9-1.7,3.1c-1.2-0.3-2.4-0.1-3.5,0.5c-1.1,0.6-1.9,1.6-2.2,2.8
				c-1.1-0.4-2.4-0.5-3.6-0.1c-1.2,0.4-2.1,1.3-2.7,2.3c-1-0.6-2.2-0.9-3.5-0.7c-1.3,0.2-2.3,0.9-3.1,1.8c-0.9-0.8-2-1.3-3.3-1.3
				c-1.3,0-2.4,0.5-3.3,1.3c-0.7-0.9-1.8-1.6-3.1-1.8c-1.3-0.2-2.5,0.1-3.5,0.7c-0.6-1-1.5-1.9-2.7-2.3c-1.2-0.4-2.5-0.4-3.6,0.1
				c-0.4-1.1-1.1-2.1-2.2-2.8c-1.1-0.6-2.4-0.8-3.5-0.5c-0.2-1.2-0.7-2.3-1.7-3.1c-1-0.8-2.2-1.2-3.4-1.1c0-1.2-0.3-2.4-1.1-3.4
				c-0.8-1-1.9-1.5-3.1-1.7c0.3-1.2,0.1-2.4-0.5-3.5c-0.6-1.1-1.6-1.9-2.8-2.2c0.4-1.1,0.5-2.4,0.1-3.6c-0.4-1.2-1.3-2.1-2.3-2.7
				c0.6-1,0.9-2.2,0.7-3.5c-0.2-1.3-0.9-2.3-1.8-3.1c0.8-0.9,1.3-2,1.3-3.3c0-1.3-0.5-2.4-1.3-3.3c0.9-0.7,1.6-1.8,1.8-3.1
				c0.2-1.3-0.1-2.5-0.7-3.5c1-0.6,1.9-1.5,2.3-2.7c0.4-1.2,0.4-2.5-0.1-3.6c1.1-0.4,2.1-1.1,2.8-2.2c0.6-1.1,0.8-2.4,0.5-3.5
				c1.2-0.2,2.3-0.7,3.1-1.7c0.8-1,1.2-2.2,1.1-3.4c1.2,0,2.4-0.3,3.4-1.1c1-0.8,1.5-1.9,1.7-3.1c1.2,0.3,2.4,0.1,3.5-0.5
				c1.1-0.6,1.9-1.6,2.2-2.8c1.1,0.4,2.4,0.5,3.6,0.1c1.2-0.4,2.1-1.3,2.7-2.3c1,0.6,2.2,0.9,3.5,0.7c1.3-0.2,2.3-0.9,3.1-1.8
				c0.9,0.8,2,1.3,3.3,1.3c1.3,0,2.4-0.5,3.3-1.3c0.7,0.9,1.8,1.6,3.1,1.8c1.3,0.2,2.5-0.1,3.5-0.7c0.6,1,1.5,1.9,2.7,2.3
				c1.2,0.4,2.5,0.4,3.6-0.1c0.4,1.1,1.1,2.1,2.2,2.8c1.1,0.6,2.4,0.8,3.5,0.5c0.2,1.2,0.7,2.3,1.7,3.1c1,0.8,2.2,1.2,3.4,1.1
				c0,1.2,0.3,2.4,1.1,3.4c0.8,1,1.9,1.5,3.1,1.7c-0.3,1.2-0.1,2.4,0.5,3.5c0.6,1.1,1.6,1.9,2.8,2.2c-0.4,1.1-0.5,2.4-0.1,3.6
				c0.4,1.2,1.3,2.1,2.3,2.7c-0.6,1-0.9,2.2-0.7,3.5c0.2,1.3,0.9,2.3,1.8,3.1c-0.8,0.9-1.3,2-1.3,3.3C93.4,58.4,93.9,59.5,94.7,60.4
				z"/>
			<path class="st3" d="M103.3,57.1c0-1.6-0.8-3-1.9-3.9c1-1.1,1.5-2.6,1.2-4.2c-0.3-1.6-1.3-2.8-2.6-3.5c0.8-1.3,1-2.8,0.5-4.3
				c-0.5-1.5-1.7-2.6-3.1-3c0.6-1.4,0.5-3-0.3-4.3c-0.8-1.4-2.2-2.2-3.6-2.4c0.3-1.4,0-3-1-4.2c-1-1.2-2.5-1.8-4-1.8
				c0.1-1.5-0.5-3-1.8-4c-1.2-1-2.8-1.3-4.2-1c-0.2-1.5-1-2.8-2.4-3.6c-1.4-0.8-3-0.9-4.3-0.3c-0.5-1.4-1.5-2.6-3-3.1
				c-1.5-0.5-3.1-0.3-4.3,0.5c-0.7-1.3-2-2.3-3.5-2.6c-1.6-0.3-3.1,0.2-4.2,1.2c-0.9-1.2-2.3-1.9-3.9-1.9c-1.6,0-3,0.8-3.9,1.9
				c-1.1-1-2.6-1.5-4.2-1.2c-1.6,0.3-2.8,1.3-3.5,2.6c-1.3-0.8-2.8-1-4.3-0.5c-1.5,0.5-2.6,1.7-3,3.1c-1.4-0.6-3-0.5-4.3,0.3
				c-1.4,0.8-2.2,2.2-2.4,3.6c-1.4-0.3-3,0-4.2,1c-1.2,1-1.8,2.5-1.8,4c-1.5-0.1-3,0.5-4,1.8c-1,1.2-1.3,2.8-1,4.2
				c-1.5,0.2-2.8,1-3.6,2.4c-0.8,1.4-0.9,3-0.3,4.3c-1.4,0.5-2.6,1.5-3.1,3c-0.5,1.5-0.3,3.1,0.5,4.3c-1.3,0.7-2.3,2-2.6,3.5
				c-0.3,1.6,0.2,3.1,1.2,4.2c-1.2,0.9-1.9,2.3-1.9,3.9c0,1.6,0.8,3,1.9,3.9c-1,1.1-1.5,2.6-1.2,4.2c0.3,1.6,1.3,2.8,2.6,3.5
				c-0.8,1.3-1,2.8-0.5,4.3c0.5,1.5,1.7,2.6,3.1,3c-0.6,1.4-0.5,3,0.3,4.3c0.8,1.4,2.2,2.2,3.6,2.4c-0.3,1.4,0,3,1,4.2
				c1,1.2,2.5,1.8,4,1.8c-0.1,1.5,0.5,3,1.8,4c1.2,1,2.8,1.3,4.2,1c0.2,1.5,1,2.8,2.4,3.6c1.4,0.8,3,0.9,4.3,0.3
				c0.5,1.4,1.5,2.6,3,3.1c1.5,0.5,3.1,0.3,4.3-0.5c0.7,1.3,2,2.3,3.5,2.6c1.6,0.3,3.1-0.2,4.2-1.2c0.9,1.2,2.3,1.9,3.9,1.9
				c1.6,0,3-0.8,3.9-1.9c1.1,1,2.6,1.5,4.2,1.2c1.6-0.3,2.8-1.3,3.5-2.6c1.3,0.8,2.8,1,4.3,0.5c1.5-0.5,2.6-1.7,3-3.1
				c1.4,0.6,3,0.5,4.3-0.3c1.4-0.8,2.2-2.2,2.4-3.6c1.4,0.3,3,0,4.2-1c1.2-1,1.8-2.5,1.8-4c1.5,0.1,3-0.5,4-1.8c1-1.2,1.3-2.8,1-4.2
				c1.5-0.2,2.8-1.1,3.6-2.4c0.8-1.4,0.9-3,0.3-4.3c1.4-0.5,2.6-1.5,3.1-3c0.5-1.5,0.3-3.1-0.5-4.3c1.3-0.7,2.3-2,2.6-3.5
				c0.3-1.6-0.2-3.1-1.2-4.2C102.6,60.1,103.3,58.7,103.3,57.1z"/>
			<path class="st4" d="M56.7,105.2c-1.5,0-2.9-0.5-4.1-1.5c-1,0.5-2,0.8-3.2,0.8c-0.4,0-0.7,0-1.1-0.1c-1.5-0.3-2.8-1-3.8-2.2
				c-0.7,0.2-1.4,0.4-2.2,0.4c-0.7,0-1.5-0.1-2.2-0.4c-1.4-0.5-2.6-1.5-3.3-2.8c-0.4,0.1-0.7,0.1-1.1,0.1c-1.1,0-2.2-0.3-3.2-0.9
				c-1.3-0.8-2.3-1.9-2.8-3.3c-1.5,0-2.9-0.5-4.1-1.5c-1.2-1-1.9-2.3-2.2-3.8c-1.5-0.3-2.8-1-3.8-2.2c-1-1.2-1.5-2.6-1.5-4.1
				c-1.4-0.5-2.6-1.5-3.3-2.8c-0.8-1.3-1-2.8-0.8-4.3C13,76.1,12,75,11.5,73.5c-0.5-1.4-0.5-2.9,0-4.3c-1.1-1-1.9-2.3-2.2-3.8
				c-0.3-1.5,0-3,0.7-4.3c-0.9-1.1-1.5-2.6-1.5-4.1c0-1.5,0.5-2.9,1.5-4.1c-0.7-1.3-1-2.8-0.7-4.3c0.3-1.5,1-2.8,2.2-3.8
				c-0.5-1.4-0.5-2.9,0-4.3c0.5-1.4,1.5-2.6,2.8-3.3c-0.3-1.5,0-3,0.8-4.3c0.8-1.3,1.9-2.3,3.3-2.8c0-1.5,0.5-2.9,1.5-4.1
				c1-1.1,2.3-1.9,3.8-2.2c0.3-1.5,1-2.8,2.2-3.8c1.1-1,2.6-1.5,4.1-1.5c0.5-1.4,1.5-2.6,2.8-3.3c1-0.6,2.1-0.9,3.2-0.9
				c0.4,0,0.7,0,1.1,0.1c0.7-1.3,1.9-2.3,3.3-2.8c0.7-0.3,1.4-0.4,2.2-0.4c0.7,0,1.5,0.1,2.2,0.4c1-1.1,2.3-1.9,3.8-2.2
				c0.4-0.1,0.7-0.1,1.1-0.1c1.1,0,2.2,0.3,3.2,0.8C53.8,9.6,55.2,9,56.7,9c1.5,0,2.9,0.5,4.1,1.5c1-0.5,2-0.8,3.2-0.8
				c0.4,0,0.7,0,1.1,0.1c1.5,0.3,2.8,1,3.8,2.2c0.7-0.2,1.4-0.4,2.2-0.4c0.7,0,1.5,0.1,2.2,0.4c1.4,0.5,2.6,1.5,3.3,2.8
				c0.4-0.1,0.7-0.1,1.1-0.1c1.1,0,2.2,0.3,3.2,0.9c1.3,0.8,2.3,1.9,2.8,3.3c1.5,0,2.9,0.5,4.1,1.5c1.2,1,1.9,2.3,2.2,3.8
				c1.5,0.3,2.8,1,3.8,2.2c1,1.2,1.5,2.6,1.5,4.1c1.4,0.5,2.6,1.5,3.3,2.8c0.8,1.3,1,2.8,0.8,4.3c1.3,0.7,2.3,1.9,2.8,3.3
				c0.5,1.4,0.5,2.9,0,4.3c1.1,1,1.9,2.3,2.2,3.8c0.3,1.5,0,3-0.7,4.3c0.9,1.1,1.5,2.6,1.5,4.1c0,1.5-0.5,2.9-1.5,4.1
				c0.7,1.3,1,2.8,0.7,4.3c-0.3,1.5-1,2.8-2.2,3.8c0.5,1.4,0.5,2.9,0,4.3c-0.5,1.4-1.5,2.6-2.8,3.3c0.3,1.5,0,3-0.8,4.3
				c-0.8,1.3-1.9,2.3-3.3,2.8c0,1.5-0.5,2.9-1.5,4.1c-1,1.1-2.3,1.9-3.8,2.2c-0.3,1.5-1,2.8-2.2,3.8c-1.1,1-2.6,1.5-4.1,1.5
				C83,96.8,82,98,80.7,98.7c-1,0.6-2.1,0.9-3.2,0.9c-0.4,0-0.7,0-1.1-0.1c-0.7,1.3-1.9,2.3-3.3,2.8c-0.7,0.3-1.4,0.4-2.2,0.4
				c-0.7,0-1.5-0.1-2.2-0.4c-1,1.1-2.3,1.9-3.8,2.2c-0.4,0.1-0.7,0.1-1.1,0.1c-1.1,0-2.2-0.3-3.2-0.8
				C59.6,104.6,58.2,105.2,56.7,105.2z"/>
			<path class="st5" d="M103.3,57.1c0-1.6-0.8-3-1.9-3.9c1-1.1,1.5-2.6,1.2-4.2c-0.3-1.6-1.3-2.8-2.6-3.5c0.8-1.3,1-2.8,0.5-4.3
				c-0.5-1.5-1.7-2.6-3.1-3c0.6-1.4,0.5-3-0.3-4.3c-0.8-1.4-2.2-2.2-3.6-2.4c0.3-1.4,0-3-1-4.2c-1-1.2-2.5-1.8-4-1.8
				c0.1-1.5-0.5-3-1.8-4c-1.2-1-2.8-1.3-4.2-1c-0.2-1.5-1-2.8-2.4-3.6c-1.4-0.8-3-0.9-4.3-0.3c-0.5-1.4-1.5-2.6-3-3.1
				c-1.5-0.5-3.1-0.3-4.3,0.5c-0.7-1.3-2-2.3-3.5-2.6c-1.6-0.3-3.1,0.2-4.2,1.2c-0.9-1.2-2.3-1.9-3.9-1.9c-1.6,0-3,0.8-3.9,1.9
				c-1.1-1-2.6-1.5-4.2-1.2c-1.6,0.3-2.8,1.3-3.5,2.6c-1.3-0.8-2.8-1-4.3-0.5c-1.5,0.5-2.6,1.7-3,3.1c-1.4-0.6-3-0.5-4.3,0.3
				c-1.4,0.8-2.2,2.2-2.4,3.6c-1.4-0.3-3,0-4.2,1c-1.2,1-1.8,2.5-1.8,4c-1.5-0.1-3,0.5-4,1.8c-1,1.2-1.3,2.8-1,4.2
				c-1.5,0.2-2.8,1-3.6,2.4c-0.8,1.4-0.9,3-0.3,4.3c-1.4,0.5-2.6,1.5-3.1,3c-0.5,1.5-0.3,3.1,0.5,4.3c-1.3,0.7-2.3,2-2.6,3.5
				c-0.3,1.6,0.2,3.1,1.2,4.2c-1.2,0.9-1.9,2.3-1.9,3.9c0,1.6,0.8,3,1.9,3.9c-1,1.1-1.5,2.6-1.2,4.2c0.3,1.6,1.3,2.8,2.6,3.5
				c-0.8,1.3-1,2.8-0.5,4.3c0.5,1.5,1.7,2.6,3.1,3c-0.6,1.4-0.5,3,0.3,4.3c0.8,1.4,2.2,2.2,3.6,2.4c-0.3,1.4,0,3,1,4.2
				c1,1.2,2.5,1.8,4,1.8c-0.1,1.5,0.5,3,1.8,4c1.2,1,2.8,1.3,4.2,1c0.2,1.5,1,2.8,2.4,3.6c1.4,0.8,3,0.9,4.3,0.3
				c0.5,1.4,1.5,2.6,3,3.1c1.5,0.5,3.1,0.3,4.3-0.5c0.7,1.3,2,2.3,3.5,2.6c1.6,0.3,3.1-0.2,4.2-1.2c0.9,1.2,2.3,1.9,3.9,1.9
				c1.6,0,3-0.8,3.9-1.9c1.1,1,2.6,1.5,4.2,1.2c1.6-0.3,2.8-1.3,3.5-2.6c1.3,0.8,2.8,1,4.3,0.5c1.5-0.5,2.6-1.7,3-3.1
				c1.4,0.6,3,0.5,4.3-0.3c1.4-0.8,2.2-2.2,2.4-3.6c1.4,0.3,3,0,4.2-1c1.2-1,1.8-2.5,1.8-4c1.5,0.1,3-0.5,4-1.8c1-1.2,1.3-2.8,1-4.2
				c1.5-0.2,2.8-1.1,3.6-2.4c0.8-1.4,0.9-3,0.3-4.3c1.4-0.5,2.6-1.5,3.1-3c0.5-1.5,0.3-3.1-0.5-4.3c1.3-0.7,2.3-2,2.6-3.5
				c0.3-1.6-0.2-3.1-1.2-4.2C102.6,60.1,103.3,58.7,103.3,57.1z"/>
		</g>
		<g id="얼굴_및_몸통_3_">
			<defs>
				<circle id="SVGID_1_" cx="56.7" cy="56.7" r="56.7"/>
			</defs>
			<clipPath id="SVGID_00000042726586380548451360000007034408110139767219_">
				<use xlink:href="#SVGID_1_"  style="overflow:visible;"/>
			</clipPath>
			<path style="clip-path:url(#SVGID_00000042726586380548451360000007034408110139767219_);fill:#E2B892;" d="M34.1,77.2l-16,28.6
				c0,0,37.3,20.2,62,10.7l-7.7-42L34.1,77.2z"/>
			<path style="clip-path:url(#SVGID_00000042726586380548451360000007034408110139767219_);fill:#D0CFCE;" d="M90.5,45.1
				c-1.3-3.3-3.4-6.6-6.1-9.6l-4.6-18.7c-0.4-1.5-2-2.4-3.5-1.7L59.2,23c-3.4-0.3-7-0.1-10.6,0.7c-3.8,0.9-7.4,2.4-10.6,4.3H18.8
				c-1.6,0-2.8,1.5-2.4,3.1l5.2,18.7c-1.3,4.8-1.6,9.7-0.6,14.2c1.5,7,5.9,12.1,11.9,15.3l-14.8,26.5c0,0,37.3,20.2,62,10.7L73,77.9
				C86.4,70.8,95.3,57.3,90.5,45.1z"/>
			<path style="clip-path:url(#SVGID_00000042726586380548451360000007034408110139767219_);fill:#BBBBBB;" d="M21.6,50l-4.2-15.3
				c-0.3-1.1-0.6-2.2,0.5-2.2h11.9c1.3,0,2.1,1.5,1.3,2.6L21.6,50z"/>
			<path style="clip-path:url(#SVGID_00000042726586380548451360000007034408110139767219_);fill:#BBBBBB;" d="M84.6,36.3l-3.8-15.4
				c-0.3-1.1-0.5-2.2-1.6-1.7L68.9,25c-1.2,0.6-1.1,2.3,0.1,2.9L84.6,36.3z"/>
			<path style="clip-path:url(#SVGID_00000042726586380548451360000007034408110139767219_);fill:#E8E8E8;" d="M54.9,53.9
				c-6.1,20-29,19.9-29,19.9l0,0C33.3,82.4,47.6,85.2,62,82c13.2-3,24.7-12.2,28.5-22.8C69.2,69.4,54.9,53.9,54.9,53.9z"/>
			
				<path style="clip-path:url(#SVGID_00000042726586380548451360000007034408110139767219_);fill:none;stroke:#BB855E;stroke-width:0.75;stroke-miterlimit:10;stroke-dasharray:2,3;" d="
				M45.2,56.7"/>
			<g style="clip-path:url(#SVGID_00000042726586380548451360000007034408110139767219_);">
				<path class="st12" d="M45.5,34.2c0.7-0.1,1.1-0.8,0.9-1.5l-1.8-7.8c-0.8,0.3-1.6,0.6-2.3,0.9l1.7,7.5
					C44.2,33.9,44.8,34.3,45.5,34.2z"/>
				<path class="st12" d="M49.9,33.2c0.7-0.1,1.1-0.8,0.9-1.5L49,23.6c-0.1,0-0.3,0-0.4,0.1c-0.7,0.2-1.3,0.3-2,0.5l1.8,8
					C48.6,32.9,49.2,33.3,49.9,33.2z"/>
				<path class="st12" d="M54.3,32.2c0.7-0.1,1.1-0.8,0.9-1.5L53.4,23c-0.8,0.1-1.6,0.2-2.4,0.3l1.8,8C53,31.9,53.6,32.3,54.3,32.2z
					"/>
			</g>
		</g>
		<g id="표정_2_">
			<path class="st13" d="M50.7,56.9c0.3,1.5-0.6,3-2.1,3.4c-1.5,0.3-3-0.6-3.4-2.1c-0.3-1.5,0.6-3,2.1-3.4
				C48.9,54.4,50.4,55.4,50.7,56.9z"/>
			<path class="st13" d="M66.3,53.3c0.3,1.5-0.6,3-2.1,3.4c-1.5,0.3-3-0.6-3.4-2.1c-0.3-1.5,0.6-3,2.1-3.4
				C64.4,50.8,65.9,51.8,66.3,53.3z"/>
			<path class="st14" d="M61.2,57c0.6,2.5-1.2,4.9-3.9,5.5c-2.7,0.6-5.3-0.9-5.9-3.3c-0.6-2.5,1.2-4.9,3.9-5.5
				C58,53.1,60.7,54.6,61.2,57z"/>
			<path class="st13" d="M59.2,57.5c-0.6,0.4-1.1,0.6-1.5,0.5c-0.2-0.1-0.4-0.2-0.6-0.4c0.4-0.3,0.6-0.6,0.5-1
				c-0.1-0.6-0.9-0.9-1.8-0.8c-0.9,0.2-1.5,0.8-1.4,1.3c0.1,0.4,0.5,0.7,1.1,0.8c0,0.3-0.1,0.6-0.3,0.8c-0.3,0.3-0.8,0.5-1.5,0.5
				l0,1c0.1,0,0.1,0,0.2,0c1,0,1.7-0.3,2.1-0.9c0.2-0.3,0.4-0.6,0.4-0.9c0.2,0.2,0.5,0.4,0.9,0.5c0.2,0.1,0.4,0.1,0.6,0.1
				c0.6,0,1.2-0.2,1.8-0.7L59.2,57.5z"/>
			<path class="st15" d="M46.4,65.7c0,3-2.4,5.4-5.4,5.4c-3,0-5.4-2.4-5.4-5.4c0-3,2.4-5.4,5.4-5.4C44,60.3,46.4,62.7,46.4,65.7z"/>
			<path class="st15" d="M78.3,58.7c0,3-2.4,5.4-5.4,5.4c-3,0-5.4-2.4-5.4-5.4c0-3,2.4-5.4,5.4-5.4C75.9,53.3,78.3,55.7,78.3,58.7z"
				/>
		</g>
		<path id="뒷_손_3_" class="st16" d="M70.2,103.2c0,0,14.6-2.7,20.2-8.6c3.2-3.4,1.5-9-3-9.9c-1.1-0.2-2.5-0.2-4.2,0.1L66.3,91
			L70.2,103.2z"/>
		<g id="물고기_1_">
			<path class="st17" d="M84,86.5c-5.7-0.3-9.7-0.2-13.9,1.5c4.8,2.3,10.6,5.2,10.6,5.2c3.4,3,8.5,8.1,8.5,8.1
				c0.1,0.3-0.1-7.1-2.7-12.9C86.5,88.5,84.7,87,84,86.5z"/>
			<path class="st18" d="M84.5,95C84.5,95,84.4,95,84.5,95c-0.4-0.1-0.5-0.3-0.5-0.6c0.3-1.7,0.5-3.8,0.5-5.5c0-0.3,0.2-0.5,0.5-0.5
				c0,0,0,0,0,0c0.3,0,0.5,0.2,0.5,0.5c0,2.7-0.4,4.9-0.5,5.7C84.9,94.8,84.7,95,84.5,95z"/>
			<g>
				<path class="st17" d="M78.6,44.4c-1.4-1.6-3.8-3.6-5.8-4.2c-3-0.9-2.5,1-2.8,3.5c-0.1,1.3-0.1,2.9-0.4,4.1
					c-0.5,2-2.2,2.9-2.9,4.6c2.1,3.1,5.9,1,7.4-0.2"/>
				<path class="st18" d="M76.9,47.1c-0.2,0-0.4-0.1-0.5-0.3c-0.5-1.1-3.1-2.9-4.2-3.3c-0.3-0.1-0.4-0.4-0.3-0.6
					c0.1-0.3,0.4-0.4,0.6-0.3c1.2,0.4,4.2,2.3,4.8,3.9c0.1,0.3,0,0.5-0.3,0.7C77,47.1,77,47.1,76.9,47.1z"/>
				<path class="st18" d="M75.6,48.8c-0.1,0-0.3-0.1-0.4-0.2c-0.8-1-2.7-2.5-3.8-2.7c-0.3,0-0.5-0.3-0.4-0.6c0-0.3,0.3-0.5,0.6-0.4
					c1.5,0.3,3.6,2.1,4.4,3.1c0.2,0.2,0.1,0.5-0.1,0.7C75.8,48.8,75.7,48.8,75.6,48.8z"/>
				<path class="st18" d="M73.8,50.7c-0.1,0-0.2,0-0.3-0.1c-0.2-0.1-0.3-0.3-0.5-0.4c-0.6-0.5-1.4-1.2-2.6-1.7
					c-0.3-0.1-0.4-0.4-0.2-0.7c0.1-0.3,0.4-0.4,0.7-0.2c1.3,0.6,2.2,1.3,2.8,1.9c0.2,0.2,0.3,0.3,0.5,0.4c0.2,0.2,0.3,0.5,0.1,0.7
					C74.1,50.6,74,50.7,73.8,50.7z"/>
				<path class="st18" d="M72.4,52.6c0,0-0.1,0-0.1,0c-0.4-0.1-1.3-0.6-2.1-0.9c-0.3-0.1-0.5-0.2-0.7-0.3c-0.3-0.1-0.4-0.4-0.2-0.7
					c0.1-0.3,0.4-0.4,0.7-0.2c0.2,0.1,0.4,0.2,0.7,0.3c0.6,0.3,1.6,0.8,1.9,0.9c0.3,0.1,0.4,0.4,0.3,0.6
					C72.8,52.4,72.6,52.6,72.4,52.6z"/>
			</g>
			<g>
				<path class="st19" d="M85.4,87.7c0,0,7.2-5.1,12-11.4c2.8-3.7,4-8.3,3.7-12.9c-0.5-7.1-0.8-22.1,5-25.9
					c-19.3-4.7-26.9,4.8-26.9,4.8c-3.5,3.7-5.3,8.1-6.2,12c-1.2,5.3-0.8,10.9,1,16.1C75.8,75.8,79.2,83,85.4,87.7"/>
			</g>
			<g>
				<path class="st20" d="M127.4,57.7c-0.7-9.8-10.7-15.7-16.7-18.4l-4,2.7l-0.7-4.5c-5.8,3.8-7.8,17.8-7.3,24.9
					C99,67,98.2,72.3,95.5,76c-4.7,6.3-10.1,11.8-10.1,11.8c5.2,4.4,10,3.9,10,3.9c14.6-0.5,21.8-8.4,21.8-8.4
					C129.7,71.4,127.4,57.7,127.4,57.7z"/>
			</g>
			<path class="st18" d="M106.2,61c-16,0-24.9-7.7-25.1-7.8c-0.2-0.2-0.2-0.5,0-0.7c0.2-0.2,0.5-0.2,0.7,0
				c0.1,0.1,13.8,11.9,37.5,5.9c0.3-0.1,0.5,0.1,0.6,0.4c0.1,0.3-0.1,0.5-0.4,0.6C114.7,60.6,110.3,61,106.2,61z"/>
			<g>
				<path class="st17" d="M98.7,64.9c-4.1-0.2-10.1,8.3-7,11.4c3.1,2.1,6,1.8,9.6,1.2C106.3,76.6,102.9,66.7,98.7,64.9z"/>
				<path class="st18" d="M94.2,73.9C94.2,73.9,94.2,73.9,94.2,73.9c-0.4-0.1-0.5-0.3-0.5-0.6c0.6-3.2,3.7-6.3,3.9-6.4
					c0.2-0.2,0.5-0.2,0.7,0c0.2,0.2,0.2,0.5,0,0.7c0,0-3,3-3.6,5.9C94.7,73.7,94.5,73.9,94.2,73.9z"/>
				<path class="st18" d="M100.5,75.6c-0.2,0-0.3-0.1-0.4-0.2c-1.8-2.9-1-7.3-1-7.5c0.1-0.3,0.3-0.4,0.6-0.4
					c0.3,0.1,0.4,0.3,0.4,0.6c0,0-0.8,4.3,0.8,6.8c0.2,0.2,0.1,0.5-0.1,0.7C100.6,75.6,100.5,75.6,100.5,75.6z"/>
			</g>
			<path class="st21" d="M98,48.2c1.8,0.6,3.7-0.1,4.1-1.5c0.4-1.4-0.8-3-2.6-3.5c-1.8-0.6-3.7,0.1-4.1,1.5
				C94.9,46.1,96.1,47.7,98,48.2z"/>
		</g>
		<path class="st22" d="M32.6,79.2l-1.4,3.1c0,0,15.1,6.8,38.1-4C69.4,78.2,42.4,84,32.6,79.2z"/>
		<g id="앞_손_2_">
			<path class="st16" d="M72.2,77.2c0,0,8.6-3.9,12.6,2.2c0,0,4,6.9-2.7,12.2c0,0-15.8,10.9-23.2,10.6l-2-19.3L72.2,77.2z"/>
			<path class="st23" d="M58.9,102.2c0,0,25.7-8.4,27.1-18.9C86,83.3,88.6,97.7,58.9,102.2z"/>
		</g>
	</g>
</g>
</svg>
