<?xml version="1.0" encoding="utf-8"?>
<!-- Generator: Adobe Illustrator 26.5.0, SVG Export Plug-In . SVG Version: 6.00 Build 0)  -->
<svg version="1.1" id="Layer_1" xmlns="http://www.w3.org/2000/svg" xmlns:xlink="http://www.w3.org/1999/xlink" x="0px" y="0px"
	 viewBox="0 0 127.6 113.7" style="enable-background:new 0 0 127.6 113.7;" xml:space="preserve">
<style type="text/css">
	.st0{fill:#F8DF92;}
	.st1{display:none;fill:#FCE8D5;}
	.st2{display:none;fill:#FFFFFF;}
	.st3{fill:#FFFFFF;}
	
		.st4{display:none;fill:none;stroke:#EEC7AB;stroke-width:0.75;stroke-linecap:round;stroke-linejoin:round;stroke-miterlimit:10;stroke-dasharray:1,3;}
	.st5{display:none;fill:none;stroke:#FFFFFF;stroke-miterlimit:10;}
	.st6{clip-path:url(#SVGID_00000061458079466620541460000013244948088770417831_);fill:#FDF5E2;}
	.st7{clip-path:url(#SVGID_00000061458079466620541460000013244948088770417831_);fill:#E6B94F;}
	.st8{clip-path:url(#SVGID_00000061458079466620541460000013244948088770417831_);fill:#FCECCD;}
	.st9{clip-path:url(#SVGID_00000061458079466620541460000013244948088770417831_);}
	.st10{fill:#E6B94F;}
	.st11{fill:#C59B3F;}
	.st12{fill:#68482E;}
	.st13{fill:#FDFDF7;}
	.st14{fill:#F7CBD1;}
	.st15{fill:#FDF5E2;}
	.st16{fill:#423D3C;}
	.st17{clip-path:url(#heart_15do_00000077289485559682760040000013407840067050062507_);}
	.st18{fill:#FDF9E5;}
	.st19{fill:#F3EBDD;}
	.st20{fill:#ECDFC5;}
	.st21{display:none;fill:none;stroke:#E3007F;stroke-width:0.5;stroke-miterlimit:10;}
</style>
<g id="햄스터">
	<circle class="st0" cx="56.8" cy="56.7" r="56.7"/>
	<g id="스칼럽_2_">
		<path class="st1" d="M56.8,0C25.5,0,0.1,25.4,0.1,56.7s25.4,56.7,56.7,56.7s56.7-25.4,56.7-56.7S88.1,0,56.8,0z M102.7,65.2
			c-0.3,1.6-1.3,2.8-2.6,3.5c0.8,1.3,1,2.8,0.5,4.3c-0.5,1.5-1.7,2.6-3.1,3c0.6,1.4,0.5,3-0.3,4.3c-0.8,1.4-2.2,2.2-3.6,2.4
			c0.3,1.4,0,3-1,4.2c-1,1.2-2.5,1.8-4,1.8c0.1,1.5-0.5,3-1.8,4c-1.2,1-2.8,1.3-4.2,1c-0.2,1.5-1,2.8-2.4,3.6
			c-1.4,0.8-3,0.9-4.3,0.3c-0.5,1.4-1.5,2.6-3,3.1c-1.5,0.5-3.1,0.3-4.3-0.5c-0.7,1.3-2,2.3-3.5,2.6c-1.6,0.3-3.1-0.2-4.2-1.2
			c-0.9,1.2-2.3,1.9-3.9,1.9c-1.6,0-3-0.8-3.9-1.9c-1.1,1-2.6,1.5-4.2,1.2c-1.6-0.3-2.8-1.3-3.5-2.6c-1.3,0.8-2.8,1-4.3,0.5
			c-1.5-0.5-2.6-1.7-3-3.1c-1.4,0.6-3,0.5-4.3-0.3c-1.4-0.8-2.2-2.2-2.4-3.6c-1.4,0.3-3,0-4.2-1c-1.2-1-1.8-2.5-1.8-4
			c-1.5,0.1-3-0.5-4-1.8c-1-1.2-1.3-2.8-1-4.2c-1.5-0.2-2.8-1.1-3.6-2.4c-0.8-1.4-0.9-3-0.3-4.3c-1.4-0.5-2.6-1.5-3.1-3
			c-0.5-1.5-0.3-3.1,0.5-4.3c-1.3-0.7-2.3-2-2.6-3.5c-0.3-1.6,0.2-3.1,1.2-4.2c-1.2-0.9-1.9-2.3-1.9-3.9c0-1.6,0.8-3,1.9-3.9
			c-1-1.1-1.5-2.6-1.2-4.2c0.3-1.6,1.3-2.8,2.6-3.5c-0.8-1.3-1-2.8-0.5-4.3c0.5-1.5,1.7-2.6,3.1-3c-0.6-1.4-0.5-3,0.3-4.3
			c0.8-1.4,2.2-2.2,3.6-2.4c-0.3-1.4,0-3,1-4.2c1-1.2,2.5-1.8,4-1.8c-0.1-1.5,0.5-3,1.8-4c1.2-1,2.8-1.3,4.2-1
			c0.2-1.5,1-2.8,2.4-3.6c1.4-0.8,3-0.9,4.3-0.3c0.5-1.4,1.5-2.6,3-3.1c1.5-0.5,3.1-0.3,4.3,0.5c0.7-1.3,2-2.3,3.5-2.6
			c1.6-0.3,3.1,0.2,4.2,1.2c0.9-1.2,2.3-1.9,3.9-1.9c1.6,0,3,0.8,3.9,1.9c1.1-1,2.6-1.5,4.2-1.2c1.6,0.3,2.8,1.3,3.5,2.6
			c1.3-0.8,2.8-1,4.3-0.5c1.5,0.5,2.6,1.7,3,3.1c1.4-0.6,3-0.5,4.3,0.3c1.4,0.8,2.2,2.2,2.4,3.6c1.4-0.3,3,0,4.2,1
			c1.2,1,1.8,2.5,1.8,4c1.5-0.1,3,0.5,4,1.8c1,1.2,1.3,2.8,1,4.2c1.5,0.2,2.8,1,3.6,2.4c0.8,1.4,0.9,3,0.3,4.3
			c1.4,0.5,2.6,1.5,3.1,3c0.5,1.5,0.3,3.1-0.5,4.3c1.3,0.7,2.3,2,2.6,3.5c0.3,1.6-0.2,3.1-1.2,4.2c1.2,0.9,1.9,2.3,1.9,3.9
			c0,1.6-0.8,3-1.9,3.9C102.5,62.1,103,63.6,102.7,65.2z"/>
		<path class="st1" d="M93,50.7c-0.2-1.3,0.1-2.5,0.7-3.5c-1-0.6-1.9-1.5-2.3-2.7c-0.4-1.2-0.4-2.5,0.1-3.6
			c-1.1-0.4-2.1-1.1-2.8-2.2c-0.6-1.1-0.8-2.4-0.5-3.5c-1.2-0.2-2.3-0.7-3.1-1.7c-0.8-1-1.2-2.2-1.1-3.4c-1.2,0-2.4-0.3-3.4-1.1
			c-1-0.8-1.5-1.9-1.7-3.1c-1.2,0.3-2.4,0.1-3.5-0.5c-1.1-0.6-1.9-1.6-2.2-2.8c-1.1,0.4-2.4,0.5-3.6,0.1c-1.2-0.4-2.1-1.3-2.7-2.3
			c-1,0.6-2.2,0.9-3.5,0.7c-1.3-0.2-2.3-0.9-3.1-1.8c-0.9,0.8-2,1.3-3.3,1.3c-1.3,0-2.4-0.5-3.3-1.3c-0.7,0.9-1.8,1.6-3.1,1.8
			c-1.3,0.2-2.5-0.1-3.5-0.7c-0.6,1-1.5,1.9-2.7,2.3C43,23,41.8,23,40.7,22.5c-0.4,1.1-1.1,2.1-2.2,2.8c-1.1,0.6-2.4,0.8-3.5,0.5
			c-0.2,1.2-0.7,2.3-1.7,3.1c-1,0.8-2.2,1.2-3.4,1.1c0,1.2-0.3,2.4-1.1,3.4c-0.8,1-1.9,1.5-3.1,1.7c0.3,1.2,0.1,2.4-0.5,3.5
			c-0.6,1.1-1.6,1.9-2.8,2.2c0.4,1.1,0.5,2.4,0.1,3.6c-0.4,1.2-1.3,2.1-2.3,2.7c0.6,1,0.9,2.2,0.7,3.5c-0.2,1.3-0.9,2.3-1.8,3.1
			c0.8,0.9,1.3,2,1.3,3.3c0,1.3-0.5,2.4-1.3,3.3c0.9,0.7,1.6,1.8,1.8,3.1c0.2,1.3-0.1,2.5-0.7,3.5c1,0.6,1.9,1.5,2.3,2.7
			c0.4,1.2,0.4,2.5-0.1,3.6c1.1,0.4,2.1,1.1,2.8,2.2c0.6,1.1,0.8,2.4,0.5,3.5c1.2,0.2,2.3,0.7,3.1,1.7c0.8,1,1.2,2.2,1.1,3.4
			c1.2,0,2.4,0.3,3.4,1.1c1,0.8,1.5,1.9,1.7,3.1c1.2-0.3,2.4-0.1,3.5,0.5c1.1,0.6,1.9,1.6,2.2,2.8c1.1-0.4,2.4-0.5,3.6-0.1
			c1.2,0.4,2.1,1.3,2.7,2.3c1-0.6,2.2-0.9,3.5-0.7c1.3,0.2,2.3,0.9,3.1,1.8c0.9-0.8,2-1.3,3.3-1.3c1.3,0,2.4,0.5,3.3,1.3
			c0.7-0.9,1.8-1.6,3.1-1.8c1.3-0.2,2.5,0.1,3.5,0.7c0.6-1,1.5-1.9,2.7-2.3c1.2-0.4,2.5-0.4,3.6,0.1c0.4-1.1,1.1-2.1,2.2-2.8
			c1.1-0.6,2.4-0.8,3.5-0.5c0.2-1.2,0.7-2.3,1.7-3.1c1-0.8,2.2-1.2,3.4-1.1c0-1.2,0.3-2.4,1.1-3.4c0.8-1,1.9-1.5,3.1-1.7
			c-0.3-1.2-0.1-2.4,0.5-3.5c0.6-1.1,1.6-1.9,2.8-2.2c-0.4-1.1-0.5-2.4-0.1-3.6c0.4-1.2,1.3-2.1,2.3-2.7c-0.6-1-0.9-2.2-0.7-3.5
			c0.2-1.3,0.9-2.3,1.8-3.1c-0.8-0.9-1.3-2-1.3-3.3c0-1.3,0.5-2.4,1.3-3.3C93.9,53,93.2,52,93,50.7z"/>
		<path class="st2" d="M103.5,57.1c0-1.6-0.8-3-1.9-3.9c1-1.1,1.5-2.6,1.2-4.2c-0.3-1.6-1.3-2.8-2.6-3.5c0.8-1.3,1-2.8,0.5-4.3
			c-0.5-1.5-1.7-2.6-3.1-3c0.6-1.4,0.5-3-0.3-4.3c-0.8-1.4-2.2-2.2-3.6-2.4c0.3-1.4,0-3-1-4.2c-1-1.2-2.5-1.8-4-1.8
			c0.1-1.5-0.5-3-1.8-4c-1.2-1-2.8-1.3-4.2-1c-0.2-1.5-1-2.8-2.4-3.6c-1.4-0.8-3-0.9-4.3-0.3c-0.5-1.4-1.5-2.6-3-3.1
			c-1.5-0.5-3.1-0.3-4.3,0.5c-0.7-1.3-2-2.3-3.5-2.6c-1.6-0.3-3.1,0.2-4.2,1.2c-0.9-1.2-2.3-1.9-3.9-1.9c-1.6,0-3,0.8-3.9,1.9
			c-1.1-1-2.6-1.5-4.2-1.2c-1.6,0.3-2.8,1.3-3.5,2.6c-1.3-0.8-2.8-1-4.3-0.5c-1.5,0.5-2.6,1.7-3,3.1c-1.4-0.6-3-0.5-4.3,0.3
			c-1.4,0.8-2.2,2.2-2.4,3.6c-1.4-0.3-3,0-4.2,1c-1.2,1-1.8,2.5-1.8,4c-1.5-0.1-3,0.5-4,1.8c-1,1.2-1.3,2.8-1,4.2
			c-1.5,0.2-2.8,1-3.6,2.4c-0.8,1.4-0.9,3-0.3,4.3c-1.4,0.5-2.6,1.5-3.1,3c-0.5,1.5-0.3,3.1,0.5,4.3c-1.3,0.7-2.3,2-2.6,3.5
			c-0.3,1.6,0.2,3.1,1.2,4.2c-1.2,0.9-1.9,2.3-1.9,3.9c0,1.6,0.8,3,1.9,3.9c-1,1.1-1.5,2.6-1.2,4.2c0.3,1.6,1.3,2.8,2.6,3.5
			c-0.8,1.3-1,2.8-0.5,4.3c0.5,1.5,1.7,2.6,3.1,3c-0.6,1.4-0.5,3,0.3,4.3c0.8,1.4,2.2,2.2,3.6,2.4c-0.3,1.4,0,3,1,4.2
			c1,1.2,2.5,1.8,4,1.8c-0.1,1.5,0.5,3,1.8,4c1.2,1,2.8,1.3,4.2,1c0.2,1.5,1,2.8,2.4,3.6c1.4,0.8,3,0.9,4.3,0.3
			c0.5,1.4,1.5,2.6,3,3.1c1.5,0.5,3.1,0.3,4.3-0.5c0.7,1.3,2,2.3,3.5,2.6c1.6,0.3,3.1-0.2,4.2-1.2c0.9,1.2,2.3,1.9,3.9,1.9
			c1.6,0,3-0.8,3.9-1.9c1.1,1,2.6,1.5,4.2,1.2c1.6-0.3,2.8-1.3,3.5-2.6c1.3,0.8,2.8,1,4.3,0.5c1.5-0.5,2.6-1.7,3-3.1
			c1.4,0.6,3,0.5,4.3-0.3c1.4-0.8,2.2-2.2,2.4-3.6c1.4,0.3,3,0,4.2-1c1.2-1,1.8-2.5,1.8-4c1.5,0.1,3-0.5,4-1.8c1-1.2,1.3-2.8,1-4.2
			c1.5-0.2,2.8-1.1,3.6-2.4c0.8-1.4,0.9-3,0.3-4.3c1.4-0.5,2.6-1.5,3.1-3c0.5-1.5,0.3-3.1-0.5-4.3c1.3-0.7,2.3-2,2.6-3.5
			c0.3-1.6-0.2-3.1-1.2-4.2C102.7,60.1,103.5,58.7,103.5,57.1z M94.8,60.4c-0.9,0.7-1.6,1.8-1.8,3.1C92.7,64.7,93,66,93.7,67
			c-1,0.6-1.9,1.5-2.3,2.7c-0.4,1.2-0.4,2.5,0.1,3.6c-1.1,0.4-2.1,1.1-2.8,2.2c-0.6,1.1-0.8,2.4-0.5,3.5c-1.2,0.2-2.3,0.7-3.1,1.7
			c-0.8,1-1.2,2.2-1.1,3.4c-1.2,0-2.4,0.3-3.4,1.1c-1,0.8-1.5,1.9-1.7,3.1c-1.2-0.3-2.4-0.1-3.5,0.5c-1.1,0.6-1.9,1.6-2.2,2.8
			c-1.1-0.4-2.4-0.5-3.6-0.1c-1.2,0.4-2.1,1.3-2.7,2.3c-1-0.6-2.2-0.9-3.5-0.7c-1.3,0.2-2.3,0.9-3.1,1.8c-0.9-0.8-2-1.3-3.3-1.3
			c-1.3,0-2.4,0.5-3.3,1.3c-0.7-0.9-1.8-1.6-3.1-1.8c-1.3-0.2-2.5,0.1-3.5,0.7c-0.6-1-1.5-1.9-2.7-2.3c-1.2-0.4-2.5-0.4-3.6,0.1
			c-0.4-1.1-1.1-2.1-2.2-2.8c-1.1-0.6-2.4-0.8-3.5-0.5c-0.2-1.2-0.7-2.3-1.7-3.1c-1-0.8-2.2-1.2-3.4-1.1c0-1.2-0.3-2.4-1.1-3.4
			c-0.8-1-1.9-1.5-3.1-1.7c0.3-1.2,0.1-2.4-0.5-3.5c-0.6-1.1-1.6-1.9-2.8-2.2c0.4-1.1,0.5-2.4,0.1-3.6C21.9,68.4,21,67.5,20,67
			c0.6-1,0.9-2.2,0.7-3.5c-0.2-1.3-0.9-2.3-1.8-3.1c0.8-0.9,1.3-2,1.3-3.3c0-1.3-0.5-2.4-1.3-3.3c0.9-0.7,1.6-1.8,1.8-3.1
			c0.2-1.3-0.1-2.5-0.7-3.5c1-0.6,1.9-1.5,2.3-2.7c0.4-1.2,0.4-2.5-0.1-3.6c1.1-0.4,2.1-1.1,2.8-2.2c0.6-1.1,0.8-2.4,0.5-3.5
			c1.2-0.2,2.3-0.7,3.1-1.7c0.8-1,1.2-2.2,1.1-3.4c1.2,0,2.4-0.3,3.4-1.1c1-0.8,1.5-1.9,1.7-3.1c1.2,0.3,2.4,0.1,3.5-0.5
			c1.1-0.6,1.9-1.6,2.2-2.8c1.1,0.4,2.4,0.5,3.6,0.1c1.2-0.4,2.1-1.3,2.7-2.3c1,0.6,2.2,0.9,3.5,0.7c1.3-0.2,2.3-0.9,3.1-1.8
			c0.9,0.8,2,1.3,3.3,1.3c1.3,0,2.4-0.5,3.3-1.3c0.7,0.9,1.8,1.6,3.1,1.8c1.3,0.2,2.5-0.1,3.5-0.7c0.6,1,1.5,1.9,2.7,2.3
			c1.2,0.4,2.5,0.4,3.6-0.1c0.4,1.1,1.1,2.1,2.2,2.8c1.1,0.6,2.4,0.8,3.5,0.5c0.2,1.2,0.7,2.3,1.7,3.1c1,0.8,2.2,1.2,3.4,1.1
			c0,1.2,0.3,2.4,1.1,3.4c0.8,1,1.9,1.5,3.1,1.7c-0.3,1.2-0.1,2.4,0.5,3.5c0.6,1.1,1.6,1.9,2.8,2.2c-0.4,1.1-0.5,2.4-0.1,3.6
			c0.4,1.2,1.3,2.1,2.3,2.7c-0.6,1-0.9,2.2-0.7,3.5c0.2,1.3,0.9,2.3,1.8,3.1c-0.8,0.9-1.3,2-1.3,3.3C93.5,58.4,94,59.5,94.8,60.4z"
			/>
		<path class="st3" d="M103.5,57.1c0-1.6-0.8-3-1.9-3.9c1-1.1,1.5-2.6,1.2-4.2c-0.3-1.6-1.3-2.8-2.6-3.5c0.8-1.3,1-2.8,0.5-4.3
			c-0.5-1.5-1.7-2.6-3.1-3c0.6-1.4,0.5-3-0.3-4.3c-0.8-1.4-2.2-2.2-3.6-2.4c0.3-1.4,0-3-1-4.2c-1-1.2-2.5-1.8-4-1.8
			c0.1-1.5-0.5-3-1.8-4c-1.2-1-2.8-1.3-4.2-1c-0.2-1.5-1-2.8-2.4-3.6c-1.4-0.8-3-0.9-4.3-0.3c-0.5-1.4-1.5-2.6-3-3.1
			c-1.5-0.5-3.1-0.3-4.3,0.5c-0.7-1.3-2-2.3-3.5-2.6c-1.6-0.3-3.1,0.2-4.2,1.2c-0.9-1.2-2.3-1.9-3.9-1.9c-1.6,0-3,0.8-3.9,1.9
			c-1.1-1-2.6-1.5-4.2-1.2c-1.6,0.3-2.8,1.3-3.5,2.6c-1.3-0.8-2.8-1-4.3-0.5c-1.5,0.5-2.6,1.7-3,3.1c-1.4-0.6-3-0.5-4.3,0.3
			c-1.4,0.8-2.2,2.2-2.4,3.6c-1.4-0.3-3,0-4.2,1c-1.2,1-1.8,2.5-1.8,4c-1.5-0.1-3,0.5-4,1.8c-1,1.2-1.3,2.8-1,4.2
			c-1.5,0.2-2.8,1-3.6,2.4c-0.8,1.4-0.9,3-0.3,4.3c-1.4,0.5-2.6,1.5-3.1,3c-0.5,1.5-0.3,3.1,0.5,4.3c-1.3,0.7-2.3,2-2.6,3.5
			c-0.3,1.6,0.2,3.1,1.2,4.2c-1.2,0.9-1.9,2.3-1.9,3.9c0,1.6,0.8,3,1.9,3.9c-1,1.1-1.5,2.6-1.2,4.2c0.3,1.6,1.3,2.8,2.6,3.5
			c-0.8,1.3-1,2.8-0.5,4.3c0.5,1.5,1.7,2.6,3.1,3c-0.6,1.4-0.5,3,0.3,4.3c0.8,1.4,2.2,2.2,3.6,2.4c-0.3,1.4,0,3,1,4.2
			c1,1.2,2.5,1.8,4,1.8c-0.1,1.5,0.5,3,1.8,4c1.2,1,2.8,1.3,4.2,1c0.2,1.5,1,2.8,2.4,3.6c1.4,0.8,3,0.9,4.3,0.3
			c0.5,1.4,1.5,2.6,3,3.1c1.5,0.5,3.1,0.3,4.3-0.5c0.7,1.3,2,2.3,3.5,2.6c1.6,0.3,3.1-0.2,4.2-1.2c0.9,1.2,2.3,1.9,3.9,1.9
			c1.6,0,3-0.8,3.9-1.9c1.1,1,2.6,1.5,4.2,1.2c1.6-0.3,2.8-1.3,3.5-2.6c1.3,0.8,2.8,1,4.3,0.5c1.5-0.5,2.6-1.7,3-3.1
			c1.4,0.6,3,0.5,4.3-0.3c1.4-0.8,2.2-2.2,2.4-3.6c1.4,0.3,3,0,4.2-1c1.2-1,1.8-2.5,1.8-4c1.5,0.1,3-0.5,4-1.8c1-1.2,1.3-2.8,1-4.2
			c1.5-0.2,2.8-1.1,3.6-2.4c0.8-1.4,0.9-3,0.3-4.3c1.4-0.5,2.6-1.5,3.1-3c0.5-1.5,0.3-3.1-0.5-4.3c1.3-0.7,2.3-2,2.6-3.5
			c0.3-1.6-0.2-3.1-1.2-4.2C102.7,60.1,103.5,58.7,103.5,57.1z"/>
		<path class="st4" d="M56.8,105.2c-1.5,0-2.9-0.5-4.1-1.5c-1,0.5-2,0.8-3.2,0.8c-0.4,0-0.7,0-1.1-0.1c-1.5-0.3-2.8-1-3.8-2.2
			c-0.7,0.2-1.4,0.4-2.2,0.4c-0.7,0-1.5-0.1-2.2-0.4c-1.4-0.5-2.6-1.5-3.3-2.8c-0.4,0.1-0.7,0.1-1.1,0.1c-1.1,0-2.2-0.3-3.2-0.9
			c-1.3-0.8-2.3-1.9-2.8-3.3c-1.5,0-2.9-0.5-4.1-1.5c-1.2-1-1.9-2.3-2.2-3.8c-1.5-0.3-2.8-1-3.8-2.2c-1-1.2-1.5-2.6-1.5-4.1
			c-1.4-0.5-2.6-1.5-3.3-2.8c-0.8-1.3-1-2.8-0.8-4.3c-1.3-0.7-2.3-1.9-2.8-3.3c-0.5-1.4-0.5-2.9,0-4.3c-1.1-1-1.9-2.3-2.2-3.8
			c-0.3-1.5,0-3,0.7-4.3c-0.9-1.1-1.5-2.6-1.5-4.1c0-1.5,0.5-2.9,1.5-4.1c-0.7-1.3-1-2.8-0.7-4.3c0.3-1.5,1-2.8,2.2-3.8
			c-0.5-1.4-0.5-2.9,0-4.3c0.5-1.4,1.5-2.6,2.8-3.3c-0.3-1.5,0-3,0.8-4.3c0.8-1.3,1.9-2.3,3.3-2.8c0-1.5,0.5-2.9,1.5-4.1
			c1-1.1,2.3-1.9,3.8-2.2c0.3-1.5,1-2.8,2.2-3.8c1.1-1,2.6-1.5,4.1-1.5c0.5-1.4,1.5-2.6,2.8-3.3c1-0.6,2.1-0.9,3.2-0.9
			c0.4,0,0.7,0,1.1,0.1c0.7-1.3,1.9-2.3,3.3-2.8c0.7-0.3,1.4-0.4,2.2-0.4c0.7,0,1.5,0.1,2.2,0.4c1-1.1,2.3-1.9,3.8-2.2
			c0.4-0.1,0.7-0.1,1.1-0.1c1.1,0,2.2,0.3,3.2,0.8C53.9,9.6,55.3,9,56.8,9c1.5,0,2.9,0.5,4.1,1.5c1-0.5,2-0.8,3.2-0.8
			c0.4,0,0.7,0,1.1,0.1c1.5,0.3,2.8,1,3.8,2.2c0.7-0.2,1.4-0.4,2.2-0.4c0.7,0,1.5,0.1,2.2,0.4c1.4,0.5,2.6,1.5,3.3,2.8
			c0.4-0.1,0.7-0.1,1.1-0.1c1.1,0,2.2,0.3,3.2,0.9c1.3,0.8,2.3,1.9,2.8,3.3c1.5,0,2.9,0.5,4.1,1.5c1.2,1,1.9,2.3,2.2,3.8
			c1.5,0.3,2.8,1,3.8,2.2c1,1.2,1.5,2.6,1.5,4.1c1.4,0.5,2.6,1.5,3.3,2.8c0.8,1.3,1,2.8,0.8,4.3c1.3,0.7,2.3,1.9,2.8,3.3
			c0.5,1.4,0.5,2.9,0,4.3c1.1,1,1.9,2.3,2.2,3.8c0.3,1.5,0,3-0.7,4.3c0.9,1.1,1.5,2.6,1.5,4.1c0,1.5-0.5,2.9-1.5,4.1
			c0.7,1.3,1,2.8,0.7,4.3c-0.3,1.5-1,2.8-2.2,3.8c0.5,1.4,0.5,2.9,0,4.3c-0.5,1.4-1.5,2.6-2.8,3.3c0.3,1.5,0,3-0.8,4.3
			c-0.8,1.3-1.9,2.3-3.3,2.8c0,1.5-0.5,2.9-1.5,4.1c-1,1.1-2.3,1.9-3.8,2.2c-0.3,1.5-1,2.8-2.2,3.8c-1.1,1-2.6,1.5-4.1,1.5
			c-0.5,1.4-1.5,2.6-2.8,3.3c-1,0.6-2.1,0.9-3.2,0.9c-0.4,0-0.7,0-1.1-0.1c-0.7,1.3-1.9,2.3-3.3,2.8c-0.7,0.3-1.4,0.4-2.2,0.4
			c-0.7,0-1.5-0.1-2.2-0.4c-1,1.1-2.3,1.9-3.8,2.2c-0.4,0.1-0.7,0.1-1.1,0.1c-1.1,0-2.2-0.3-3.2-0.8
			C59.8,104.6,58.3,105.2,56.8,105.2z"/>
		<path class="st5" d="M103.5,57.1c0-1.6-0.8-3-1.9-3.9c1-1.1,1.5-2.6,1.2-4.2c-0.3-1.6-1.3-2.8-2.6-3.5c0.8-1.3,1-2.8,0.5-4.3
			c-0.5-1.5-1.7-2.6-3.1-3c0.6-1.4,0.5-3-0.3-4.3c-0.8-1.4-2.2-2.2-3.6-2.4c0.3-1.4,0-3-1-4.2c-1-1.2-2.5-1.8-4-1.8
			c0.1-1.5-0.5-3-1.8-4c-1.2-1-2.8-1.3-4.2-1c-0.2-1.5-1-2.8-2.4-3.6c-1.4-0.8-3-0.9-4.3-0.3c-0.5-1.4-1.5-2.6-3-3.1
			c-1.5-0.5-3.1-0.3-4.3,0.5c-0.7-1.3-2-2.3-3.5-2.6c-1.6-0.3-3.1,0.2-4.2,1.2c-0.9-1.2-2.3-1.9-3.9-1.9c-1.6,0-3,0.8-3.9,1.9
			c-1.1-1-2.6-1.5-4.2-1.2c-1.6,0.3-2.8,1.3-3.5,2.6c-1.3-0.8-2.8-1-4.3-0.5c-1.5,0.5-2.6,1.7-3,3.1c-1.4-0.6-3-0.5-4.3,0.3
			c-1.4,0.8-2.2,2.2-2.4,3.6c-1.4-0.3-3,0-4.2,1c-1.2,1-1.8,2.5-1.8,4c-1.5-0.1-3,0.5-4,1.8c-1,1.2-1.3,2.8-1,4.2
			c-1.5,0.2-2.8,1-3.6,2.4c-0.8,1.4-0.9,3-0.3,4.3c-1.4,0.5-2.6,1.5-3.1,3c-0.5,1.5-0.3,3.1,0.5,4.3c-1.3,0.7-2.3,2-2.6,3.5
			c-0.3,1.6,0.2,3.1,1.2,4.2c-1.2,0.9-1.9,2.3-1.9,3.9c0,1.6,0.8,3,1.9,3.9c-1,1.1-1.5,2.6-1.2,4.2c0.3,1.6,1.3,2.8,2.6,3.5
			c-0.8,1.3-1,2.8-0.5,4.3c0.5,1.5,1.7,2.6,3.1,3c-0.6,1.4-0.5,3,0.3,4.3c0.8,1.4,2.2,2.2,3.6,2.4c-0.3,1.4,0,3,1,4.2
			c1,1.2,2.5,1.8,4,1.8c-0.1,1.5,0.5,3,1.8,4c1.2,1,2.8,1.3,4.2,1c0.2,1.5,1,2.8,2.4,3.6c1.4,0.8,3,0.9,4.3,0.3
			c0.5,1.4,1.5,2.6,3,3.1c1.5,0.5,3.1,0.3,4.3-0.5c0.7,1.3,2,2.3,3.5,2.6c1.6,0.3,3.1-0.2,4.2-1.2c0.9,1.2,2.3,1.9,3.9,1.9
			c1.6,0,3-0.8,3.9-1.9c1.1,1,2.6,1.5,4.2,1.2c1.6-0.3,2.8-1.3,3.5-2.6c1.3,0.8,2.8,1,4.3,0.5c1.5-0.5,2.6-1.7,3-3.1
			c1.4,0.6,3,0.5,4.3-0.3c1.4-0.8,2.2-2.2,2.4-3.6c1.4,0.3,3,0,4.2-1c1.2-1,1.8-2.5,1.8-4c1.5,0.1,3-0.5,4-1.8c1-1.2,1.3-2.8,1-4.2
			c1.5-0.2,2.8-1.1,3.6-2.4c0.8-1.4,0.9-3,0.3-4.3c1.4-0.5,2.6-1.5,3.1-3c0.5-1.5,0.3-3.1-0.5-4.3c1.3-0.7,2.3-2,2.6-3.5
			c0.3-1.6-0.2-3.1-1.2-4.2C102.7,60.1,103.5,58.7,103.5,57.1z"/>
	</g>
	<g id="얼굴_및_몸통_2_">
		<defs>
			
				<ellipse id="SVGID_1_" transform="matrix(0.1574 -0.9875 0.9875 0.1574 -8.3322 103.854)" cx="56.7" cy="56.8" rx="56.7" ry="56.7"/>
		</defs>
		<clipPath id="SVGID_00000096050033151103997990000014944113109950187455_">
			<use xlink:href="#SVGID_1_"  style="overflow:visible;"/>
		</clipPath>
		<path style="clip-path:url(#SVGID_00000096050033151103997990000014944113109950187455_);fill:#FDF5E2;" d="M89.5,45.6
			c-10.2-16-22-26-40.9-21.7c-18.9,4.3-26.1,21-27.5,37.3c-0.7,8,4.3,14.3,11.9,18.2L18.1,106c0,0,37.3,20.2,62,10.7l-7-38.1
			C86.9,71.1,96.7,56.8,89.5,45.6z"/>
		<path style="clip-path:url(#SVGID_00000096050033151103997990000014944113109950187455_);fill:#FDF5E2;" d="M48.6,23.8
			c2.3-0.5,4.7-0.8,7-1C53.3,23,51,23.3,48.6,23.8z"/>
		<path style="clip-path:url(#SVGID_00000096050033151103997990000014944113109950187455_);fill:#E6B94F;" d="M82.3,35.7
			c3.8-3.2,5.7-8.1,4.6-13c-1.6-7.2-9.2-11.6-17-9.9c-5.5,1.2-9.5,5.3-10.9,10c-1.2-0.1-2.3-0.1-3.5,0c-2.3,0.1-4.6,0.4-7,1
			c-4,0.9-7.5,2.4-10.5,4.3c-3.2-4-8.8-6-14.5-4.7c-7.7,1.8-12.7,9-11,16.2c1.2,5.2,5.4,8.9,10.6,9.9c-1.1,3.8-1.8,7.7-2.1,11.6
			c0,1.2-0.2,2.7,0.1,4c0,0,30.5,0,34.1-11.2c0,0,10.7,9.8,34.2-8.3C87.2,42,84.8,38.7,82.3,35.7z"/>
		<path style="clip-path:url(#SVGID_00000096050033151103997990000014944113109950187455_);fill:#FCECCD;" d="M34.9,37.9
			c1.2,5.1-2.3,10.2-7.8,11.5c-5.5,1.2-10.8-1.9-12-7C14,37.3,17.5,32.2,23,30.9C28.4,29.7,33.8,32.8,34.9,37.9z"/>
		<path style="clip-path:url(#SVGID_00000096050033151103997990000014944113109950187455_);fill:#FCECCD;" d="M86,26.1
			c1.2,5.1-2.3,10.2-7.8,11.5c-5.5,1.2-10.8-1.9-12-7c-1.2-5.1,2.3-10.2,7.8-11.5C79.5,17.9,84.9,21,86,26.1z"/>
		<g style="clip-path:url(#SVGID_00000096050033151103997990000014944113109950187455_);">
			<path class="st10" d="M33.6,78.4l-3.8,6.7l2.2,1.2c0.4,0.2,0.5,0.7,0.3,1c-0.2,0.4-0.7,0.5-1,0.3L29,86.4l-1.1,2l3.5,1.9
				c0.4,0.2,0.5,0.7,0.3,1c-0.2,0.4-0.7,0.5-1,0.3l-3.5-1.9l-1.2,2.1l2.3,1.2c0.4,0.2,0.5,0.7,0.3,1c-0.2,0.4-0.7,0.5-1,0.3
				l-2.3-1.3l-4.2,7.4C42.6,97.5,33.6,78.4,33.6,78.4z"/>
			<path class="st11" d="M32.3,87.3c0.2-0.4,0.1-0.8-0.3-1l-2.2-1.2L29,86.4l2.2,1.2C31.6,87.8,32.1,87.7,32.3,87.3z"/>
			<path class="st11" d="M31.7,91.4c0.2-0.4,0.1-0.8-0.3-1l-3.5-1.9l-0.8,1.3l3.5,1.9C31,91.9,31.5,91.7,31.7,91.4z"/>
			<path class="st11" d="M28.5,94.2c0.2-0.4,0.1-0.8-0.3-1l-2.3-1.2l-0.8,1.3l2.3,1.3C27.9,94.7,28.3,94.6,28.5,94.2z"/>
		</g>
		<g style="clip-path:url(#SVGID_00000096050033151103997990000014944113109950187455_);">
			<path class="st11" d="M44.2,32.6l0.3-0.1c0.6-0.1,1-0.7,0.8-1.3l-1.4-6c-0.8,0.3-1.6,0.6-2.4,1l1.3,5.5
				C43,32.3,43.6,32.7,44.2,32.6z"/>
			<path class="st11" d="M51.6,29.8c0.1,0.6,0.7,1,1.3,0.8l0.3-0.1c0.6-0.1,1-0.7,0.8-1.3l-1.4-6.1c-0.8,0.1-1.7,0.2-2.5,0.4
				L51.6,29.8z"/>
			<path class="st11" d="M47.7,32.4c0.1,0.6,0.7,1,1.3,0.8l0.3-0.1c0.6-0.1,1-0.7,0.8-1.3l-1.7-7.6c0-0.1-0.1-0.2-0.2-0.3
				c-0.8,0.2-1.6,0.4-2.3,0.6c0,0.1,0,0.2,0,0.3L47.7,32.4z"/>
		</g>
		<g id="표정_1_" style="clip-path:url(#SVGID_00000096050033151103997990000014944113109950187455_);">
			<path class="st12" d="M50.8,56.9c0.3,1.5-0.6,3-2.1,3.4c-1.5,0.3-3-0.6-3.4-2.1c-0.3-1.5,0.6-3,2.1-3.4
				C49,54.4,50.5,55.4,50.8,56.9z"/>
			<path class="st12" d="M66.4,53.3c0.3,1.5-0.6,3-2.1,3.4c-1.5,0.3-3-0.6-3.4-2.1c-0.3-1.5,0.6-3,2.1-3.4
				C64.5,50.8,66,51.8,66.4,53.3z"/>
			<path class="st13" d="M61.3,57c0.6,2.5-1.2,4.9-3.9,5.5s-5.3-0.9-5.9-3.3c-0.6-2.5,1.2-4.9,3.9-5.5S60.8,54.6,61.3,57z"/>
			<path class="st12" d="M59.3,57.5c-0.6,0.4-1.1,0.6-1.5,0.5c-0.2-0.1-0.4-0.2-0.6-0.4c0.4-0.3,0.6-0.6,0.5-1
				c-0.1-0.6-0.9-0.9-1.8-0.8c-0.9,0.2-1.5,0.8-1.4,1.3c0.1,0.4,0.5,0.7,1.1,0.8c0,0.3-0.1,0.6-0.3,0.8c-0.3,0.3-0.8,0.5-1.5,0.5
				l0,1c0.1,0,0.1,0,0.2,0c1,0,1.7-0.3,2.1-0.9c0.2-0.3,0.4-0.6,0.4-0.9c0.2,0.2,0.5,0.4,0.9,0.5c0.2,0.1,0.4,0.1,0.6,0.1
				c0.6,0,1.2-0.2,1.8-0.7L59.3,57.5z"/>
			<path class="st14" d="M46.5,65.7c0,3-2.4,5.4-5.4,5.4c-3,0-5.4-2.4-5.4-5.4c0-3,2.4-5.4,5.4-5.4C44.1,60.3,46.5,62.7,46.5,65.7z"
				/>
			<path class="st14" d="M78.4,58.7c0,3-2.4,5.4-5.4,5.4c-3,0-5.4-2.4-5.4-5.4c0-3,2.4-5.4,5.4-5.4C76,53.3,78.4,55.7,78.4,58.7z"/>
		</g>
	</g>
	<path id="뒷_손_2_" class="st15" d="M70.3,103.2c0,0,14.6-2.7,20.2-8.6c3.2-3.4,1.5-9-3-9.9c-1.1-0.2-2.5-0.2-4.2,0.1L66.4,91
		L70.3,103.2z"/>
	<g id="해바라기씨">
		<path id="heart_15do_4_" class="st16" d="M126.3,69.1c-6.5,19.4-23.2,22.3-30.7,22.5c-2.5,0.1-5-0.6-7.1-1.9
			C82,85.7,68.9,74.9,73,54.9c0,0,0.6-16.8,31.8-29.8c3-1.2,6.4-0.2,8.3,2.3C119.4,35.6,131.8,54.6,126.3,69.1z"/>
		<g>
			<defs>
				<path id="heart_15do_6_" d="M123.9,68.4c-6,18.1-21.6,20.7-28.6,21c-2.3,0.1-4.6-0.5-6.6-1.8c-6-3.7-18.1-13.8-14.3-32.5
					c0,0,0.6-15.7,29.6-27.7c2.7-1.1,5.9-0.2,7.7,2.1C117.5,37.2,129.1,54.8,123.9,68.4z"/>
			</defs>
			<clipPath id="heart_15do_00000106148412355005961840000006138206955697321369_">
				<use xlink:href="#heart_15do_6_"  style="overflow:visible;"/>
			</clipPath>
			<g style="clip-path:url(#heart_15do_00000106148412355005961840000006138206955697321369_);">
				<path class="st18" d="M108.3,24.2c0.1-0.6-0.4-0.8-0.5-0.3C103.8,34.1,87.8,91.6,94,92.1C94,92.1,100.8,98.2,108.3,24.2z"/>
				<path class="st18" d="M115.8,33.8c1.6,7.5,6.1,33.4-2,51.7c-0.1,0.3,0.2,0.6,0.4,0.4c3.9-3.9,17.2-20.6,2-52.3
					C116.2,33.3,115.8,33.4,115.8,33.8z"/>
				<path class="st18" d="M109.8,26.7c0.7,9.7,2.4,43.1-5.4,65.8c-0.1,0.4,0.1,0.7,0.3,0.5c3.4-4.7,15.4-25,5.5-66.5
					C110.1,26.1,109.7,26.2,109.8,26.7z"/>
				<path class="st18" d="M104.3,26.4c-4.8,8.4-20.1,37.5-18,63.3c0,0.4-0.4,0.6-0.6,0.2c-2.9-6.5-7-40.3,18.1-64
					C104.1,25.7,104.5,26,104.3,26.4z"/>
				<path class="st18" d="M92.4,32c-3.3,6.3-15.4,19.5-14.5,46.4c0,0.3,0.1,0.2,0,0c-1.3-4.5-7.8-25.6,14.2-46.7
					C92.3,31.5,92.5,31.7,92.4,32z"/>
			</g>
		</g>
	</g>
	<path class="st19" d="M57,82.9c8,0,15.5,17.9,15.3,28.5c0,0-7.5,3.3-13.3,2.2v-11.3L57,82.9"/>
	<g id="앞_손_1_">
		<path class="st15" d="M72.3,77.2c0,0,8.6-3.9,12.6,2.2c0,0,4,6.9-2.7,12.2c0,0-16.3,9.3-23.2,10.6l-2-19.3L72.3,77.2z"/>
		<path class="st20" d="M59,102.2c0,0,25.7-8.4,27.1-18.9C86.1,83.3,88.7,97.7,59,102.2z"/>
	</g>
	<path class="st21" d="M113.1,26.1c-1.9-2.5-5.3-3.5-8.3-2.3c-0.2,0.1-0.5,0.2-0.7,0.3C93.9,8.8,76.5-1.3,56.8-1.3
		C25.5-1.3,0.1,24.1,0.1,55.4s25.4,56.7,56.7,56.7c18.5,0,34.9-8.8,45.2-22.5c8.3-1.7,19.2-6.8,24.2-21.7
		C131.8,53.3,119.4,34.3,113.1,26.1z"/>
</g>
</svg>
