<?xml version="1.0" encoding="utf-8"?>
<!-- Generator: Adobe Illustrator 26.5.0, SVG Export Plug-In . SVG Version: 6.00 Build 0)  -->
<svg version="1.1" id="Layer_1" xmlns="http://www.w3.org/2000/svg" xmlns:xlink="http://www.w3.org/1999/xlink" x="0px" y="0px"
	 viewBox="0 0 113.4 155.9" style="enable-background:new 0 0 113.4 155.9;" xml:space="preserve">
<style type="text/css">
	.st0{fill:#1F2A6A;}
	.st1{fill:#658BC7;}
	.st2{fill:#FFFFFF;}
	.st3{fill:#F1C40B;}
	.st4{fill:#C3970B;}
	.st5{fill:#2554A3;}
	.st6{fill:#FCE8D5;}
	.st7{clip-path:url(#SVGID_00000018206333968319173400000009728321058274600075_);}
	.st8{clip-path:url(#SVGID_00000047740922308809753690000005846709659626777986_);}
	.st9{clip-path:url(#SVGID_00000016774038960224472950000017661866350776608177_);fill:#658BC7;}
	.st10{clip-path:url(#SVGID_00000016774038960224472950000017661866350776608177_);fill:#2554A3;}
	.st11{clip-path:url(#SVGID_00000016774038960224472950000017661866350776608177_);}
	.st12{clip-path:url(#SVGID_00000170976701956304265760000000187976026281107846_);fill:#FCE8D5;}
	.st13{clip-path:url(#SVGID_00000170976701956304265760000000187976026281107846_);}
	.st14{fill:#1D3374;}
	.st15{fill:#123590;}
	.st16{fill:#231916;}
	.st17{fill:#F0969C;}
	.st18{fill:#E5093F;}
	.st19{display:none;fill:none;stroke:#000000;stroke-width:0.5;stroke-linecap:round;stroke-linejoin:round;stroke-miterlimit:10;}
	.st20{clip-path:url(#SVGID_00000170976701956304265760000000187976026281107846_);fill:#F1C40B;}
	.st21{clip-path:url(#SVGID_00000170976701956304265760000000187976026281107846_);fill:none;stroke:#B2AB8F;stroke-miterlimit:10;}
	
		.st22{clip-path:url(#SVGID_00000170976701956304265760000000187976026281107846_);fill:none;stroke:#C3970B;stroke-width:0.5;stroke-linecap:round;stroke-miterlimit:10;}
	.st23{clip-path:url(#SVGID_00000170976701956304265760000000187976026281107846_);fill:#C3970B;}
</style>
<g>
	<path class="st0" d="M19.6,47.7c0,4.9-0.8,9.9-3.5,14.1l0,0.1C6.1,71.8,0,85.4,0,100.5c0,30.6,25.4,55.4,56.7,55.4
		c31.3,0,56.7-24.8,56.7-55.4c0-15-6.1-28.7-16.1-38.7l0-0.1c-2.7-4.1-3.5-9.2-3.5-14.1l-0.1-9l0-0.2c0-0.8,0-1.4,0-2.2
		c0-20-16.5-36.3-37-36.3c-20.5,0-37,16.2-37,36.2c0,0.8,0,1.6,0,2.5L19.6,47.7z"/>
	<g>
		<g>
			<path class="st1" d="M64.9,135.7c0-0.2,0.1-0.4,0.3-0.4l0,0c0.2,0,0.4,0.1,0.4,0.3l0,0c0,0.2-0.1,0.4-0.3,0.4l0,0l0,0l0,0
				c0,0,0,0,0,0l0,0C65.1,136.1,64.9,135.9,64.9,135.7z M66.9,135.5c0-0.2,0.1-0.4,0.3-0.4l0,0c0.2,0,0.4,0.1,0.4,0.3l0,0
				c0,0.2-0.1,0.4-0.3,0.4l0,0c0,0,0,0,0,0l0,0c0,0,0,0,0,0l0,0C67.1,135.9,66.9,135.7,66.9,135.5z M68.9,135.3
				c0-0.2,0.1-0.4,0.3-0.4l0,0c0.2,0,0.4,0.1,0.4,0.3l0,0c0,0.2-0.1,0.4-0.3,0.4l0,0l0,0l0,0c0,0,0,0,0,0l0,0
				C69,135.6,68.9,135.5,68.9,135.3z M47.3,135.5c-0.2,0-0.4-0.2-0.3-0.4l0,0c0-0.2,0.2-0.4,0.4-0.3l0,0c0.2,0,0.4,0.2,0.3,0.4l0,0
				C47.7,135.4,47.5,135.6,47.3,135.5L47.3,135.5C47.3,135.6,47.3,135.5,47.3,135.5z M70.8,135c0-0.2,0.1-0.4,0.3-0.4l0,0
				c0.2,0,0.4,0.1,0.4,0.3l0,0c0,0.2-0.1,0.4-0.3,0.4l0,0c0,0,0,0-0.1,0l0,0C71,135.3,70.9,135.1,70.8,135z M45.3,135.2
				c-0.2,0-0.3-0.2-0.3-0.4l0,0c0-0.2,0.2-0.3,0.4-0.3l0,0c0.2,0,0.3,0.2,0.3,0.4l0,0C45.7,135.1,45.5,135.2,45.3,135.2L45.3,135.2
				C45.3,135.2,45.3,135.2,45.3,135.2z M72.8,134.6c0-0.2,0.1-0.4,0.3-0.4l0,0c0.2,0,0.4,0.1,0.4,0.3l0,0c0,0.2-0.1,0.4-0.3,0.5l0,0
				l0,0l0,0c0,0,0,0-0.1,0l0,0C73,134.9,72.8,134.8,72.8,134.6z M43.3,134.9L43.3,134.9L43.3,134.9c-0.2,0-0.3-0.2-0.3-0.4l0,0
				c0-0.2,0.2-0.3,0.4-0.3l0,0c0.2,0,0.3,0.2,0.3,0.4l0,0C43.7,134.7,43.5,134.9,43.3,134.9L43.3,134.9
				C43.3,134.9,43.3,134.9,43.3,134.9z M41.3,134.5c-0.2-0.1-0.3-0.2-0.3-0.5l0,0c0-0.2,0.2-0.3,0.4-0.3l0,0c0.2,0,0.3,0.2,0.3,0.4
				l0,0C41.7,134.3,41.6,134.5,41.3,134.5L41.3,134.5C41.4,134.5,41.4,134.5,41.3,134.5z M74.8,134.2c-0.1-0.2,0.1-0.4,0.3-0.5l0,0
				c0.2,0,0.4,0.1,0.5,0.3l0,0c0,0.2-0.1,0.4-0.3,0.5l0,0c0,0-0.1,0-0.1,0l0,0C75,134.5,74.8,134.3,74.8,134.2z M39.4,134
				c-0.2,0-0.3-0.2-0.3-0.4l0,0c0-0.2,0.3-0.3,0.5-0.3l0,0c0.2,0,0.3,0.2,0.3,0.5l0,0C39.8,133.9,39.6,134,39.4,134L39.4,134
				C39.4,134,39.4,134,39.4,134z M76.7,133.7c-0.1-0.2,0.1-0.4,0.3-0.5l0,0c0.2,0,0.4,0.1,0.5,0.3l0,0c0,0.2-0.1,0.4-0.3,0.5l0,0
				l0,0l0,0c0,0-0.1,0-0.1,0l0,0C76.9,134,76.7,133.9,76.7,133.7z M37.4,133.5c-0.2-0.1-0.3-0.3-0.3-0.5l0,0
				c0.1-0.2,0.3-0.3,0.5-0.3l0,0c0.2,0.1,0.3,0.3,0.3,0.5l0,0c0,0.2-0.2,0.3-0.4,0.3l0,0C37.5,133.5,37.5,133.5,37.4,133.5z
				 M78.6,133.2c-0.1-0.2,0.1-0.4,0.3-0.5l0,0c0.2-0.1,0.4,0.1,0.5,0.2l0,0c0.1,0.2,0,0.4-0.2,0.5l0,0l0,0l0,0c0,0-0.1,0-0.1,0l0,0
				C78.8,133.4,78.7,133.3,78.6,133.2z M35.5,132.9c-0.2-0.1-0.3-0.3-0.2-0.5l0,0c0.1-0.2,0.3-0.3,0.5-0.2l0,0
				c0.2,0.1,0.3,0.3,0.3,0.5l0,0c-0.1,0.2-0.2,0.3-0.4,0.3l0,0C35.6,133,35.5,133,35.5,132.9z M80.5,132.6c-0.1-0.2,0-0.4,0.2-0.5v0
				c0.2-0.1,0.4,0,0.5,0.2l0,0c0.1,0.2,0,0.4-0.2,0.5l0,0l0,0l0,0c0,0-0.1,0-0.1,0l0,0C80.7,132.9,80.6,132.8,80.5,132.6z
				 M33.6,132.4L33.6,132.4L33.6,132.4c-0.2-0.1-0.3-0.3-0.2-0.5l0,0c0.1-0.2,0.3-0.3,0.5-0.2l0,0c0.2,0.1,0.3,0.3,0.2,0.5l0,0
				c-0.1,0.2-0.2,0.3-0.4,0.3l0,0C33.7,132.4,33.6,132.4,33.6,132.4z M82.4,132c-0.1-0.2,0-0.4,0.2-0.5l0,0c0.2-0.1,0.4,0,0.5,0.2
				l0,0c0.1,0.2,0,0.4-0.2,0.5l0,0l0,0l0,0c0,0-0.1,0-0.1,0l0,0C82.6,132.2,82.5,132.1,82.4,132z M31.7,131.7
				c-0.2-0.1-0.3-0.3-0.2-0.5l0,0c0.1-0.2,0.3-0.3,0.5-0.2l0,0c0.2,0.1,0.3,0.3,0.2,0.5l0,0c0,0.2-0.2,0.2-0.3,0.2l0,0
				C31.8,131.7,31.7,131.7,31.7,131.7z M84.3,131.3c-0.1-0.2,0-0.4,0.2-0.5l0,0c0.2-0.1,0.4,0,0.5,0.2l0,0c0.1,0.2,0,0.4-0.2,0.5
				l0,0c0,0-0.1,0-0.1,0l0,0C84.5,131.5,84.4,131.4,84.3,131.3z M29.8,131L29.8,131L29.8,131c-0.2-0.1-0.3-0.3-0.2-0.5l0,0
				c0.1-0.2,0.3-0.3,0.5-0.2l0,0c0.2,0.1,0.3,0.3,0.2,0.5l0,0c-0.1,0.2-0.2,0.2-0.4,0.2l0,0C29.9,131.1,29.8,131.1,29.8,131z
				 M86.2,130.6c-0.1-0.2,0-0.4,0.2-0.5l0,0c0.2-0.1,0.4,0,0.5,0.2l0,0c0.1,0.2,0,0.4-0.2,0.5l0,0l0,0l0,0c-0.1,0-0.1,0-0.1,0l0,0
				C86.4,130.8,86.2,130.7,86.2,130.6z M27.9,130.3c-0.2-0.1-0.3-0.3-0.2-0.5l0,0c0.1-0.2,0.3-0.3,0.5-0.2l0,0
				c0.2,0.1,0.3,0.3,0.2,0.5l0,0c-0.1,0.2-0.2,0.2-0.4,0.2l0,0C28,130.4,27.9,130.3,27.9,130.3z M88,129.8c-0.1-0.2,0-0.4,0.2-0.5
				l0,0c0.2-0.1,0.4,0,0.5,0.2l0,0c0.1,0.2,0,0.4-0.2,0.5l0,0c-0.1,0-0.1,0-0.2,0l0,0C88.2,130,88.1,129.9,88,129.8z M26,129.6
				c-0.2-0.1-0.3-0.3-0.2-0.5l0,0c0.1-0.2,0.3-0.3,0.5-0.2l0,0c0.2,0.1,0.3,0.3,0.2,0.5l0,0c-0.1,0.1-0.2,0.2-0.4,0.2l0,0
				C26.1,129.6,26.1,129.6,26,129.6z M89.8,129c-0.1-0.2,0-0.4,0.2-0.5l0,0c0.2-0.1,0.4,0,0.5,0.2l0,0c0.1,0.2,0,0.4-0.2,0.5l0,0
				l0,0l0,0c0,0-0.1,0-0.2,0l0,0C90,129.2,89.9,129.1,89.8,129z M24.2,128.8L24.2,128.8L24.2,128.8c-0.2-0.1-0.3-0.3-0.2-0.5l0,0
				c0.1-0.2,0.3-0.3,0.5-0.2l0,0c0.2,0.1,0.3,0.3,0.2,0.5l0,0c-0.1,0.1-0.2,0.2-0.3,0.2l0,0C24.3,128.8,24.2,128.8,24.2,128.8z
				 M91.6,128.1c-0.1-0.2,0-0.4,0.2-0.5l0,0c0.2-0.1,0.4,0,0.5,0.2l0,0c0.1,0.2,0,0.4-0.2,0.5l0,0c-0.1,0-0.1,0-0.2,0l0,0
				C91.8,128.3,91.7,128.2,91.6,128.1z M22.4,128L22.4,128L22.4,128c-0.2-0.1-0.3-0.3-0.2-0.5l0,0c0.1-0.2,0.3-0.3,0.5-0.2l0,0
				c0.2,0.1,0.3,0.3,0.2,0.5l0,0c-0.1,0.1-0.2,0.2-0.3,0.2l0,0C22.5,128,22.4,128,22.4,128z M93.4,127.2c-0.1-0.2,0-0.4,0.2-0.5l0,0
				c0.2-0.1,0.4,0,0.5,0.2l0,0c0.1,0.2,0,0.4-0.2,0.5l0,0l0,0l0,0c0,0-0.1,0.1-0.2,0.1l0,0C93.6,127.4,93.5,127.3,93.4,127.2z
				 M20.5,127.1c-0.2-0.1-0.3-0.3-0.2-0.5l0,0c0.1-0.2,0.3-0.3,0.5-0.2l0,0c0.2,0.1,0.3,0.3,0.2,0.5l0,0c-0.1,0.1-0.2,0.2-0.3,0.2
				l0,0C20.7,127.1,20.6,127.1,20.5,127.1z M95.2,126.2c-0.1-0.2,0-0.4,0.1-0.5v0c0.2-0.1,0.4,0,0.5,0.1l0,0c0.1,0.2,0,0.4-0.1,0.5
				l0,0l0,0l0,0c-0.1,0-0.1,0.1-0.2,0.1l0,0C95.4,126.4,95.3,126.3,95.2,126.2z M18.8,126.2c-0.2-0.1-0.3-0.3-0.2-0.5l0,0
				c0.1-0.2,0.3-0.3,0.5-0.2l0,0c0.2,0.1,0.3,0.3,0.2,0.5l0,0c-0.1,0.1-0.2,0.2-0.3,0.2l0,0C18.9,126.2,18.8,126.2,18.8,126.2z
				 M96.9,125.2c-0.1-0.2,0-0.4,0.1-0.5l0,0c0.2-0.1,0.4,0,0.5,0.1l0,0c0.1,0.2,0,0.4-0.1,0.5l0,0c-0.1,0-0.1,0-0.2,0l0,0
				C97.1,125.4,97,125.3,96.9,125.2z M17,125.3c-0.2-0.1-0.2-0.3-0.1-0.5l0,0c0.1-0.2,0.3-0.2,0.5-0.1h0c0.2,0.1,0.3,0.3,0.2,0.5
				l0,0c-0.1,0.1-0.2,0.2-0.3,0.2l0,0C17.1,125.3,17,125.3,17,125.3z M98.6,124.2c-0.1-0.2-0.1-0.4,0.1-0.5l0,0
				c0.2-0.1,0.4-0.1,0.5,0.1l0,0c0.1,0.2,0.1,0.4-0.1,0.5l0,0c-0.1,0-0.1,0.1-0.2,0.1l0,0C98.8,124.4,98.7,124.3,98.6,124.2z
				 M15.2,124.3c-0.2-0.1-0.2-0.3-0.1-0.5l0,0c0.1-0.2,0.3-0.2,0.5-0.1l0,0c0.2,0.1,0.2,0.3,0.1,0.5l0,0c-0.1,0.1-0.2,0.2-0.3,0.2
				l0,0C15.3,124.3,15.3,124.3,15.2,124.3z M13.5,123.3L13.5,123.3L13.5,123.3c-0.2-0.1-0.2-0.3-0.1-0.5l0,0
				c0.1-0.2,0.3-0.2,0.5-0.1l0,0c0.2,0.1,0.2,0.3,0.1,0.5l0,0c-0.1,0.1-0.2,0.2-0.3,0.2l0,0C13.6,123.3,13.5,123.3,13.5,123.3z
				 M100.3,123.1c-0.1-0.2-0.1-0.4,0.1-0.5l0,0c0.2-0.1,0.4-0.1,0.5,0.1l0,0c0.1,0.2,0.1,0.4-0.1,0.5l0,0c-0.1,0-0.1,0.1-0.2,0.1
				l0,0C100.5,123.3,100.4,123.2,100.3,123.1z M11.8,122.2C11.8,122.2,11.8,122.2,11.8,122.2L11.8,122.2c-0.2-0.1-0.2-0.3-0.1-0.5
				l0,0c0.1-0.2,0.3-0.2,0.5-0.1l0,0c0.2,0.1,0.2,0.3,0.1,0.5l0,0c-0.1,0.1-0.2,0.2-0.3,0.2l0,0C11.9,122.3,11.8,122.3,11.8,122.2z
				 M102,122c-0.1-0.2-0.1-0.4,0.1-0.5l0,0c0.2-0.1,0.4-0.1,0.5,0.1l0,0c0.1,0.2,0.1,0.4-0.1,0.5l0,0l0,0l0,0
				c-0.1,0-0.1,0.1-0.2,0.1l0,0C102.2,122.2,102.1,122.1,102,122z M10.1,121.2L10.1,121.2L10.1,121.2c-0.2-0.1-0.2-0.3-0.1-0.5l0,0
				c0.1-0.2,0.3-0.2,0.5-0.1l0,0c0.2,0.1,0.2,0.4,0.1,0.5l0,0c-0.1,0.1-0.2,0.2-0.3,0.2l0,0C10.2,121.2,10.1,121.2,10.1,121.2z
				 M103.6,120.9c-0.1-0.2-0.1-0.4,0.1-0.5v0c0.2-0.1,0.4-0.1,0.5,0.1l0,0c0.1,0.2,0.1,0.4-0.1,0.5l0,0c-0.1,0-0.1,0.1-0.2,0.1l0,0
				C103.8,121,103.7,121,103.6,120.9z M8.4,120.1c-0.2-0.1-0.2-0.3-0.1-0.5l0,0c0.1-0.2,0.3-0.2,0.5-0.1l0,0
				c0.2,0.1,0.2,0.3,0.1,0.5l0,0c-0.1,0.1-0.2,0.2-0.3,0.2l0,0C8.5,120.1,8.4,120.1,8.4,120.1z M105.2,119.7
				c-0.1-0.2-0.1-0.4,0.1-0.5l0,0c0.2-0.1,0.4-0.1,0.5,0.1l0,0c0.1,0.2,0.1,0.4-0.1,0.5l0,0c-0.1,0-0.1,0.1-0.2,0.1l0,0
				C105.4,119.8,105.3,119.8,105.2,119.7z M6.7,118.9c-0.2-0.1-0.2-0.4-0.1-0.5l0,0c0.1-0.2,0.4-0.2,0.5-0.1l0,0
				c0.2,0.1,0.2,0.4,0.1,0.5l0,0c-0.1,0.1-0.2,0.2-0.3,0.2l0,0C6.9,119,6.8,119,6.7,118.9z M106.8,118.5c-0.1-0.2-0.1-0.4,0.1-0.5
				l0,0c0.2-0.1,0.4-0.1,0.5,0.1l0,0c0.1,0.2,0.1,0.4-0.1,0.5l0,0c-0.1,0.1-0.2,0.1-0.2,0.1l0,0C107,118.6,106.9,118.6,106.8,118.5z
				 M5.1,117.7c-0.2-0.1-0.2-0.4-0.1-0.5l0,0c0.1-0.2,0.4-0.2,0.5-0.1l0,0c0.2,0.1,0.2,0.4,0.1,0.5l0,0c-0.1,0.1-0.2,0.2-0.3,0.2
				l0,0C5.2,117.8,5.2,117.8,5.1,117.7z M108.4,117.2c-0.1-0.2-0.1-0.4,0.1-0.5l0,0c0.2-0.1,0.4-0.1,0.5,0l0,0
				c0.1,0.2,0.1,0.4,0,0.5l0,0c-0.1,0.1-0.2,0.1-0.2,0.1l0,0C108.6,117.4,108.5,117.3,108.4,117.2z M3.5,116.5
				c-0.2-0.1-0.2-0.4-0.1-0.5l0,0c0.1-0.2,0.4-0.2,0.5-0.1l0,0c0.2,0.1,0.2,0.4,0.1,0.5l0,0c-0.1,0.1-0.2,0.1-0.3,0.1l0,0
				C3.7,116.6,3.6,116.5,3.5,116.5z M109.9,116c-0.1-0.2-0.1-0.4,0.1-0.5l0,0c0.2-0.1,0.4-0.1,0.5,0l0,0c0.1,0.2,0.1,0.4,0,0.5l0,0
				l0,0l0,0c-0.1,0.1-0.2,0.1-0.2,0.1l0,0C110.1,116.1,110,116,109.9,116z"/>
		</g>
		<g>
			<path class="st2" d="M40.4,88.3c0,0-4.2-2-4.3-4.2c0,0,0.2-0.5,0.8-0.2c0,0-0.4-0.8-1.1-0.3c0,0-0.6,0.6,0.2,2
				c0.2,0.4,0.6,0.8,0.9,1.1C37.6,87.2,38.8,88.1,40.4,88.3z"/>
			<path class="st2" d="M35.6,83.5c0,0-0.4-1.8-0.1-2.3c0,0,0.4-1-0.1-1.6c0,0-0.7-0.7-1,0.2C34.4,79.7,33.6,80.8,35.6,83.5z"/>
			<path class="st2" d="M35.1,83.7c0,0-0.8-1.2-1.6-1.6c0,0-0.8-0.4-0.5-0.8c0,0,0.6-0.5,1.2,0.4C34.2,81.6,34.7,82.3,35.1,83.7z"/>
			<path class="st2" d="M34.2,81.3c0,0-0.6-1.5-0.4-2.3c0,0,0.2-2-0.7-2.3c-0.3-0.1-0.6,0-0.7,0.2c-0.1,0.2-0.2,0.6,0,1.2
				C32.3,78.1,32.6,80,34.2,81.3z"/>
			<path class="st2" d="M43.9,88.8c0,0-1.7-0.9-2.2-1.8c-0.5-0.8-1.3-0.8-1.6-0.5c-0.3,0.3-0.2,1.1,1.1,1.7
				C42.3,88.8,43.4,88.9,43.9,88.8z"/>
			<path class="st2" d="M42.7,89.8c0,0-1.4-0.6-1.8-0.9c0,0-1.4-0.9-2.1-0.1c-0.2,0.2-0.1,0.5,0.1,0.6
				C39.4,89.6,40.4,89.8,42.7,89.8z"/>
		</g>
		<g>
			<path class="st2" d="M74,88.3c0,0,4.2-2,4.3-4.2c0,0-0.2-0.5-0.8-0.2c0,0,0.4-0.8,1.2-0.3c0,0,0.6,0.6-0.2,2
				c-0.2,0.4-0.6,0.8-0.9,1.1C76.8,87.2,75.6,88.1,74,88.3z"/>
			<path class="st2" d="M78.9,83.5c0,0,0.4-1.8,0.1-2.3c0,0-0.4-1,0.1-1.6c0,0,0.7-0.7,1,0.2C80,79.7,80.8,80.8,78.9,83.5z"/>
			<path class="st2" d="M79.4,83.7c0,0,0.8-1.2,1.6-1.6c0,0,0.8-0.4,0.5-0.8c0,0-0.6-0.5-1.2,0.4C80.2,81.6,79.8,82.3,79.4,83.7z"/>
			<path class="st2" d="M80.2,81.3c0,0,0.6-1.5,0.4-2.3c0,0-0.2-2,0.7-2.3c0.3-0.1,0.6,0,0.7,0.2c0.1,0.2,0.2,0.6,0,1.2
				C82.2,78.1,81.8,80,80.2,81.3z"/>
			<path class="st2" d="M70.5,88.8c0,0,1.7-0.9,2.2-1.8c0.5-0.8,1.3-0.8,1.6-0.5c0.3,0.3,0.2,1.1-1.1,1.7
				C72.1,88.8,71,88.9,70.5,88.8z"/>
			<path class="st2" d="M71.7,89.8c0,0,1.4-0.6,1.8-0.9c0,0,1.4-0.9,2.1-0.1c0.2,0.2,0.1,0.5-0.1,0.6C75,89.6,74,89.8,71.7,89.8z"/>
		</g>
		<g>
			<path class="st3" d="M76.3,75.2c0-8-8.8-14.5-19.6-14.5s-19.6,6.5-19.6,14.5c0,6.1,5,11.3,12.2,13.4v50.1h1V88.9
				c2,0.5,4.2,0.8,6.4,0.8c2,0,4-0.2,5.9-0.7v49.7h1V88.8C71,86.7,76.3,81.4,76.3,75.2z M56.7,87.7c-9.7,0-17.6-5.6-17.6-12.5
				S47,62.7,56.7,62.7s17.6,5.6,17.6,12.5S66.4,87.7,56.7,87.7z"/>
			<g>
				<path class="st2" d="M56.7,63.1c-9.3,0-16.9,5.4-16.9,12.1c0,6.7,7.6,12.1,16.9,12.1c9.3,0,16.8-5.4,16.8-12.1
					C73.5,68.5,66,63.1,56.7,63.1z"/>
				<path class="st4" d="M56.7,62.1c-9.8,0-17.9,5.9-17.9,13.1c0,7.2,8,13.1,17.9,13.1c9.8,0,17.8-5.9,17.8-13.1
					C74.5,67.9,66.5,62.1,56.7,62.1z M56.7,87.2c-9.3,0-16.9-5.4-16.9-12.1c0-6.6,7.6-12.1,16.9-12.1c9.3,0,16.8,5.4,16.8,12.1
					C73.5,81.8,66,87.2,56.7,87.2z"/>
			</g>
			<g>
				<g>
					<path class="st5" d="M54.6,85.3c-0.4,0-0.7-0.4-0.7-0.8l0,0c0-0.4,0.4-0.7,0.8-0.7l0,0c0.4,0,0.7,0.4,0.7,0.8l0,0
						C55.4,85,55.1,85.3,54.6,85.3L54.6,85.3C54.7,85.3,54.7,85.3,54.6,85.3z M57.9,84.7c0-0.4,0.3-0.8,0.7-0.8l0,0
						c0.4,0,0.8,0.3,0.8,0.7l0,0c0,0.4-0.3,0.8-0.7,0.8l0,0l0,0l0,0c0,0,0,0-0.1,0l0,0C58.2,85.3,57.9,85,57.9,84.7z M50.7,84.5
						c-0.4-0.1-0.6-0.5-0.5-0.9l0,0c0.1-0.4,0.5-0.6,0.9-0.5l0,0c0.4,0.1,0.6,0.5,0.5,0.9l0,0c-0.1,0.3-0.4,0.5-0.7,0.5l0,0
						C50.8,84.6,50.7,84.6,50.7,84.5z M61.8,84c-0.1-0.4,0.1-0.8,0.5-0.9l0,0c0.4-0.1,0.8,0.1,0.9,0.5l0,0c0.1,0.4-0.1,0.8-0.5,0.9
						l0,0l0,0l0,0c-0.1,0-0.1,0-0.2,0l0,0C62.1,84.6,61.9,84.4,61.8,84z M46.9,82.9L46.9,82.9L46.9,82.9c-0.4-0.2-0.5-0.7-0.3-1l0,0
						c0.2-0.4,0.7-0.5,1-0.3l0,0c0.4,0.2,0.5,0.7,0.3,1l0,0c-0.1,0.2-0.4,0.4-0.6,0.4l0,0C47.2,83,47,83,46.9,82.9z M65.4,82.6
						c-0.2-0.4-0.1-0.8,0.3-1l0,0c0.4-0.2,0.8-0.1,1,0.3l0,0c0.2,0.4,0.1,0.8-0.3,1l0,0C66.3,82.9,66.2,83,66,83l0,0
						C65.8,83,65.5,82.8,65.4,82.6z M43.7,80.3c-0.3-0.3-0.3-0.8,0-1.1l0,0c0.3-0.3,0.8-0.3,1.1,0l0,0c0.3,0.3,0.3,0.8,0,1.1l0,0
						c-0.1,0.1-0.3,0.2-0.5,0.2l0,0C44,80.6,43.8,80.5,43.7,80.3z M68.6,80.3c-0.3-0.3-0.3-0.8,0-1.1l0,0c0.3-0.3,0.8-0.3,1.1,0l0,0
						c0.3,0.3,0.3,0.8,0,1.1l0,0c-0.1,0.2-0.4,0.2-0.5,0.2l0,0C68.9,80.5,68.7,80.5,68.6,80.3z M41.4,76.9c-0.2-0.4,0-0.8,0.4-1l0,0
						c0.4-0.2,0.8,0,1,0.4l0,0c0.2,0.4,0,0.8-0.4,1l0,0c-0.1,0-0.2,0.1-0.3,0.1l0,0C41.8,77.3,41.5,77.2,41.4,76.9z M71,77.2
						c-0.4-0.2-0.6-0.6-0.4-1l0,0c0.2-0.4,0.6-0.6,1-0.4l0,0c0.4,0.2,0.6,0.6,0.4,1l0,0c0,0,0,0,0,0l0,0c-0.1,0.3-0.4,0.5-0.7,0.5
						l0,0C71.2,77.3,71.1,77.3,71,77.2z M40.5,72.8c0-0.4,0.3-0.8,0.8-0.8l0,0c0.4,0,0.8,0.3,0.8,0.7l0,0c0,0.4-0.3,0.8-0.7,0.8l0,0
						C40.8,73.5,40.5,73.2,40.5,72.8z M71.3,72.8L71.3,72.8L71.3,72.8C71.3,72.7,71.3,72.7,71.3,72.8L71.3,72.8
						c0-0.5,0.3-0.8,0.7-0.8l0,0c0.4,0,0.8,0.3,0.8,0.7l0,0c0,0,0,0,0,0l0,0c0,0,0,0,0,0l0,0c0,0.4-0.3,0.8-0.8,0.8l0,0
						C71.7,73.5,71.3,73.2,71.3,72.8z M41.7,69.7c-0.4-0.2-0.6-0.6-0.4-1l0,0c0.2-0.4,0.6-0.6,1-0.4l0,0c0.4,0.2,0.6,0.6,0.4,1l0,0
						c-0.1,0.3-0.4,0.5-0.7,0.5l0,0C41.9,69.7,41.8,69.7,41.7,69.7z M70.6,69.2c-0.2-0.4,0-0.8,0.4-1l0,0c0.4-0.2,0.8,0,1,0.4l0,0
						c0.2,0.4,0,0.8-0.4,1l0,0c-0.1,0-0.2,0.1-0.3,0.1l0,0C71,69.6,70.7,69.5,70.6,69.2z M43.7,66.3c-0.3-0.3-0.3-0.8,0-1.1l0,0
						c0.3-0.3,0.8-0.3,1.1,0l0,0c0.3,0.3,0.3,0.8,0,1.1l0,0c-0.1,0.2-0.3,0.2-0.5,0.2l0,0C44,66.5,43.8,66.4,43.7,66.3z M68.5,66.2
						L68.5,66.2c-0.3-0.3-0.3-0.8,0-1.1l0,0c0.3-0.3,0.8-0.3,1.1,0l0,0c0.3,0.3,0.3,0.8,0,1.1l0,0c-0.1,0.1-0.3,0.2-0.5,0.2l0,0
						C68.9,66.4,68.7,66.3,68.5,66.2z M46.6,63.7c-0.2-0.4-0.1-0.8,0.3-1l0,0c0.4-0.2,0.8-0.1,1,0.3l0,0c0.2,0.4,0.1,0.8-0.3,1l0,0
						c-0.1,0.1-0.2,0.1-0.4,0.1l0,0C47,64.1,46.7,63.9,46.6,63.7z M65.6,63.9c-0.4-0.2-0.5-0.7-0.3-1l0,0c0.2-0.4,0.7-0.5,1-0.3l0,0
						c0.4,0.2,0.5,0.7,0.3,1l0,0C66.5,63.9,66.3,64,66,64l0,0C65.9,64,65.7,64,65.6,63.9z M50.1,61.9c-0.1-0.4,0.1-0.8,0.5-0.9l0,0
						c0.4-0.1,0.8,0.1,0.9,0.5l0,0c0.1,0.4-0.1,0.8-0.5,0.9l0,0c-0.1,0-0.1,0-0.2,0l0,0C50.5,62.5,50.2,62.3,50.1,61.9z M62.2,62.4
						c-0.4-0.1-0.6-0.5-0.5-0.9l0,0c0.1-0.4,0.5-0.6,0.9-0.5l0,0c0.4,0.1,0.6,0.5,0.5,0.9l0,0c-0.1,0.3-0.4,0.5-0.7,0.5l0,0
						C62.3,62.4,62.3,62.4,62.2,62.4z M53.9,61c0-0.4,0.3-0.8,0.7-0.8l0,0c0.4,0,0.8,0.3,0.8,0.7l0,0c0,0.4-0.3,0.8-0.7,0.8l0,0
						c0,0-0.1,0-0.1,0l0,0C54.3,61.7,54,61.4,53.9,61z M58.5,61.7c-0.4,0-0.7-0.4-0.7-0.8l0,0c0-0.4,0.4-0.7,0.8-0.7l0,0l0,0l0,0
						c0.4,0,0.7,0.4,0.7,0.8l0,0C59.3,61.4,59,61.7,58.5,61.7L58.5,61.7C58.6,61.7,58.5,61.7,58.5,61.7z"/>
				</g>
			</g>
			<path class="st5" d="M56.7,82.1c-7.4,0-13.5-4.4-13.5-9.9s6-9.9,13.5-9.9s13.5,4.4,13.5,9.9S64.1,82.1,56.7,82.1z M56.7,62.8
				c-7.1,0-13,4.2-13,9.4c0,5.2,5.8,9.4,13,9.4s13-4.2,13-9.4C69.7,67,63.8,62.8,56.7,62.8z"/>
			<g>
				<path class="st2" d="M48.4,92.3c-1.1,0-1.9-0.9-1.9-1.9s0.9-1.9,1.9-1.9"/>
				<path class="st2" d="M48.4,96.1c-1.1,0-1.9-0.9-1.9-1.9c0-1.1,0.9-1.9,1.9-1.9"/>
				<path class="st2" d="M48.4,99.9c-1.1,0-1.9-0.9-1.9-1.9c0-1.1,0.9-1.9,1.9-1.9"/>
				<path class="st2" d="M48.4,103.7c-1.1,0-1.9-0.9-1.9-1.9s0.9-1.9,1.9-1.9"/>
				<path class="st2" d="M48.4,107.6c-1.1,0-1.9-0.9-1.9-1.9s0.9-1.9,1.9-1.9"/>
				<path class="st2" d="M48.4,111.4c-1.1,0-1.9-0.9-1.9-1.9c0-1.1,0.9-1.9,1.9-1.9"/>
				<path class="st2" d="M48.4,115.2c-1.1,0-1.9-0.9-1.9-1.9c0-1.1,0.9-1.9,1.9-1.9"/>
				<path class="st2" d="M48.4,119c-1.1,0-1.9-0.9-1.9-1.9s0.9-1.9,1.9-1.9"/>
				<path class="st2" d="M48.4,122.8c-1.1,0-1.9-0.9-1.9-1.9c0-1.1,0.9-1.9,1.9-1.9"/>
				<path class="st2" d="M48.4,126.7c-1.1,0-1.9-0.9-1.9-1.9c0-1.1,0.9-1.9,1.9-1.9"/>
				<path class="st2" d="M48.4,130.5c-1.1,0-1.9-0.9-1.9-1.9c0-1.1,0.9-1.9,1.9-1.9"/>
				<path class="st2" d="M48.4,134.3c-1.1,0-1.9-0.9-1.9-1.9s0.9-1.9,1.9-1.9"/>
				<path class="st2" d="M48.4,138.1c-1.1,0-1.9-0.9-1.9-1.9s0.9-1.9,1.9-1.9"/>
				<path class="st2" d="M48.4,141.9c-1.1,0-1.9-0.9-1.9-1.9s0.9-1.9,1.9-1.9"/>
			</g>
			<g>
				<path class="st2" d="M64.5,92.3c1.1,0,1.9-0.9,1.9-1.9s-0.9-1.9-1.9-1.9"/>
				<path class="st2" d="M64.5,96.1c1.1,0,1.9-0.9,1.9-1.9c0-1.1-0.9-1.9-1.9-1.9"/>
				<path class="st2" d="M64.5,99.9c1.1,0,1.9-0.9,1.9-1.9c0-1.1-0.9-1.9-1.9-1.9"/>
				<path class="st2" d="M64.5,103.7c1.1,0,1.9-0.9,1.9-1.9s-0.9-1.9-1.9-1.9"/>
				<path class="st2" d="M64.5,107.6c1.1,0,1.9-0.9,1.9-1.9s-0.9-1.9-1.9-1.9"/>
				<path class="st2" d="M64.5,111.4c1.1,0,1.9-0.9,1.9-1.9c0-1.1-0.9-1.9-1.9-1.9"/>
				<path class="st2" d="M64.5,115.2c1.1,0,1.9-0.9,1.9-1.9c0-1.1-0.9-1.9-1.9-1.9"/>
				<path class="st2" d="M64.5,119c1.1,0,1.9-0.9,1.9-1.9s-0.9-1.9-1.9-1.9"/>
				<path class="st2" d="M64.5,122.8c1.1,0,1.9-0.9,1.9-1.9c0-1.1-0.9-1.9-1.9-1.9"/>
				<path class="st2" d="M64.5,126.7c1.1,0,1.9-0.9,1.9-1.9c0-1.1-0.9-1.9-1.9-1.9"/>
				<path class="st2" d="M64.5,130.5c1.1,0,1.9-0.9,1.9-1.9c0-1.1-0.9-1.9-1.9-1.9"/>
				<path class="st2" d="M64.5,134.3c1.1,0,1.9-0.9,1.9-1.9s-0.9-1.9-1.9-1.9"/>
				<path class="st2" d="M64.5,138.1c1.1,0,1.9-0.9,1.9-1.9s-0.9-1.9-1.9-1.9"/>
				<path class="st2" d="M64.5,141.9c1.1,0,1.9-0.9,1.9-1.9s-0.9-1.9-1.9-1.9"/>
			</g>
			<g>
				<g>
					<path class="st2" d="M58.3,135.5c0,0-0.8-1.1,0-1.4c0,0,0.9-0.5,2.1,0c0,0,1.3,0.5,0.6,1c0,0,0.9-0.2,0.1-1
						c-0.6-0.7-1.5-1-2.4-0.8c-0.4,0.1-0.8,0.2-1.1,0.6C57.7,133.8,56.8,134.8,58.3,135.5z"/>
					<path class="st2" d="M56.6,135.3c0,0-4.3-1.3-4.4,1.1c0,0.4,0.3,1,1.5,0.4c0,0-0.9,0.1-0.8-0.4
						C52.9,136.3,52.8,135.3,56.6,135.3z"/>
					<path class="st2" d="M57.1,134.2c0,0-0.4-0.7,0.1-1.2c0,0,0.6-0.5,0.6-1c0,0,0-0.9-0.8-0.9c0,0-0.8-0.1-0.8,1.2
						C56.1,132.3,56,133.7,57.1,134.2z"/>
					<path class="st2" d="M56,134.1c0,0-0.7-2.2-1.8-2.3c0,0-0.9,0-0.9,0.8c0,0,0,0.7,0.8,0.8C54.1,133.4,55.2,133.4,56,134.1z"/>
					<path class="st2" d="M55.7,134.7c0,0-1.8-1.1-2.7-1c0,0-0.8,0-0.8,0.5c0,0,0,0.4,0.8,0.3C53,134.5,54.5,134.4,55.7,134.7z"/>
					<path class="st2" d="M58.6,128.8c0,0-1.4-1.5-2.7,0c0,0-1.2,1-0.3,3.4c0,0-1.4-1.4-0.8-3.1c0.2-0.5,0.6-0.9,1.1-1.2
						C56.7,127.4,57.8,127.2,58.6,128.8z"/>
					<path class="st2" d="M55.5,126.1c0,0-1,0.5-1.1,1.4c0,0-0.1,1.3,0.1,2.4c0,0-1-1.1-0.6-2.7C53.9,127.3,54.1,126.2,55.5,126.1z"
						/>
					<path class="st2" d="M54.4,130.9c0,0-0.9-2.9-2.2-2.7c0,0-0.6,0.1-0.5,0.6c0,0,0,0.5,0.7,0.7C52.4,129.6,54.2,130.4,54.4,130.9
						z"/>
					<path class="st2" d="M54.3,131.6c0,0-1.3-1.3-2.3-1.2c0,0-0.7,0-0.6,0.5c0,0,0,0.3,0.7,0.3C52.1,131.2,53.9,131.3,54.3,131.6z"
						/>
				</g>
				<g>
					<path class="st2" d="M54.5,115.8c0,0,0.8,1.1,0,1.4c0,0-0.9,0.5-2.1,0c0,0-1.3-0.5-0.6-1c0,0-0.9,0.2-0.1,1
						c0.6,0.7,1.5,1,2.4,0.8c0.4-0.1,0.8-0.2,1.1-0.6C55.2,117.4,56,116.4,54.5,115.8z"/>
					<path class="st2" d="M56.2,115.9c0,0,4.3,1.3,4.4-1.1c0-0.4-0.3-1-1.5-0.4c0,0,0.9-0.1,0.8,0.4C60,114.9,60,116,56.2,115.9z"/>
					<path class="st2" d="M55.8,117c0,0,0.4,0.7-0.1,1.2c0,0-0.6,0.5-0.6,1c0,0,0,0.9,0.8,0.9c0,0,0.8,0.1,0.8-1.2
						C56.7,118.9,56.9,117.5,55.8,117z"/>
					<path class="st2" d="M56.9,117.1c0,0,0.7,2.2,1.8,2.3c0,0,0.9,0,0.9-0.8c0,0,0-0.7-0.8-0.8C58.7,117.8,57.7,117.8,56.9,117.1z"
						/>
					<path class="st2" d="M57.1,116.6c0,0,1.8,1.1,2.7,1c0,0,0.8,0,0.8-0.5c0,0,0-0.4-0.8-0.3C59.8,116.7,58.3,116.9,57.1,116.6z"/>
					<path class="st2" d="M54.2,122.5c0,0,1.4,1.5,2.7,0c0,0,1.2-1,0.3-3.4c0,0,1.4,1.4,0.8,3.1c-0.2,0.5-0.6,0.9-1.1,1.2
						C56.2,123.8,55.1,124,54.2,122.5z"/>
					<path class="st2" d="M57.4,125.1c0,0,1-0.5,1.1-1.4c0,0,0.1-1.3-0.1-2.4c0,0,1,1.1,0.6,2.7C58.9,123.9,58.7,125.1,57.4,125.1z"
						/>
					<path class="st2" d="M58.4,120.3c0,0,0.9,2.9,2.2,2.7c0,0,0.6-0.1,0.5-0.6c0,0,0-0.5-0.7-0.7C60.4,121.7,58.6,120.9,58.4,120.3
						z"/>
					<path class="st2" d="M58.5,119.6c0,0,1.3,1.3,2.3,1.2c0,0,0.7,0,0.6-0.5c0,0,0-0.3-0.7-0.3C60.7,120,59,119.9,58.5,119.6z"/>
				</g>
				<g>
					<path class="st2" d="M58.1,111.7c0,0-0.8-1.1,0-1.4c0,0,0.9-0.5,2.1,0c0,0,1.3,0.5,0.6,1c0,0,0.9-0.2,0.1-1
						c-0.6-0.7-1.5-1-2.4-0.8c-0.4,0.1-0.8,0.2-1.1,0.6C57.4,110,56.6,111,58.1,111.7z"/>
					<path class="st2" d="M56.4,111.5c0,0-4.3-1.3-4.4,1.1c0,0.4,0.3,1,1.5,0.4c0,0-0.9,0.1-0.8-0.4
						C52.6,112.5,52.6,111.5,56.4,111.5z"/>
					<path class="st2" d="M56.8,110.5c0,0-0.4-0.7,0.1-1.2c0,0,0.6-0.5,0.6-1c0,0,0-0.9-0.8-0.9c0,0-0.8-0.1-0.8,1.2
						C55.9,108.5,55.7,109.9,56.8,110.5z"/>
					<path class="st2" d="M55.7,110.3c0,0-0.7-2.2-1.8-2.3c0,0-0.9,0-0.9,0.8c0,0,0,0.7,0.8,0.8C53.9,109.6,54.9,109.6,55.7,110.3z"
						/>
					<path class="st2" d="M55.5,110.9c0,0-1.8-1.1-2.7-1c0,0-0.8,0-0.8,0.5c0,0,0,0.4,0.8,0.3C52.8,110.7,54.3,110.6,55.5,110.9z"/>
					<path class="st2" d="M58.4,105c0,0-1.4-1.5-2.7,0c0,0-1.2,1-0.3,3.4c0,0-1.4-1.4-0.8-3.1c0.2-0.5,0.6-0.9,1.1-1.2
						C56.4,103.6,57.5,103.4,58.4,105z"/>
					<path class="st2" d="M55.3,102.4c0,0-1,0.5-1.1,1.4c0,0-0.1,1.3,0.1,2.4c0,0-1-1.1-0.6-2.7C53.7,103.5,53.9,102.4,55.3,102.4z"
						/>
					<path class="st2" d="M54.2,107.1c0,0-0.9-2.9-2.2-2.7c0,0-0.6,0.1-0.5,0.6c0,0,0,0.5,0.7,0.7C52.2,105.8,54,106.6,54.2,107.1z"
						/>
					<path class="st2" d="M54.1,107.8c0,0-1.3-1.3-2.3-1.2c0,0-0.7,0-0.6,0.5c0,0,0,0.3,0.7,0.3C51.9,107.4,53.7,107.5,54.1,107.8z"
						/>
				</g>
				<g>
					<path class="st2" d="M54.3,92c0,0,0.8,1.1,0,1.4c0,0-0.9,0.5-2.1,0c0,0-1.3-0.5-0.6-1c0,0-0.9,0.2-0.1,1c0.6,0.7,1.5,1,2.4,0.8
						c0.4-0.1,0.8-0.2,1.1-0.6C54.9,93.6,55.8,92.6,54.3,92z"/>
					<path class="st2" d="M56,92.1c0,0,4.3,1.3,4.4-1.1c0-0.4-0.3-1-1.5-0.4c0,0,0.9-0.1,0.8,0.4C59.7,91.1,59.8,92.2,56,92.1z"/>
					<path class="st2" d="M55.5,93.2c0,0,0.4,0.7-0.1,1.2c0,0-0.6,0.5-0.6,1c0,0,0,0.9,0.8,0.9c0,0,0.8,0.1,0.8-1.2
						C56.5,95.1,56.6,93.7,55.5,93.2z"/>
					<path class="st2" d="M56.6,93.3c0,0,0.7,2.2,1.8,2.3c0,0,0.9,0,0.9-0.8c0,0,0-0.7-0.8-0.8C58.5,94,57.4,94,56.6,93.3z"/>
					<path class="st2" d="M56.9,92.8c0,0,1.8,1.1,2.7,1c0,0,0.8,0,0.8-0.5c0,0,0-0.4-0.8-0.3C59.6,93,58.1,93.1,56.9,92.8z"/>
					<path class="st2" d="M54,98.7c0,0,1.4,1.5,2.7,0c0,0,1.2-1,0.3-3.4c0,0,1.4,1.4,0.8,3.1c-0.2,0.5-0.6,0.9-1.1,1.2
						C55.9,100,54.8,100.2,54,98.7z"/>
					<path class="st2" d="M57.1,101.3c0,0,1-0.5,1.1-1.4c0,0,0.1-1.3-0.1-2.4c0,0,1,1.1,0.6,2.7C58.7,100.1,58.5,101.3,57.1,101.3z"
						/>
					<path class="st2" d="M58.2,96.5c0,0,0.9,2.9,2.2,2.7c0,0,0.6-0.1,0.5-0.6c0,0,0-0.5-0.7-0.7C60.2,97.9,58.4,97.1,58.2,96.5z"/>
					<path class="st2" d="M58.3,95.9c0,0,1.3,1.3,2.3,1.2c0,0,0.7,0,0.6-0.5c0,0,0-0.3-0.7-0.3C60.5,96.2,58.7,96.2,58.3,95.9z"/>
				</g>
			</g>
		</g>
	</g>
	<g>
		<g id="왼쪽_손">
			<path class="st6" d="M19.5,116.2c0,0,3.6,10.8,9.8,8.2c1.6-0.7,2.5-2.5,1.8-4.1c-0.3-0.8-1.1-1.8-2.3-2.7c0,0,1.5-3.6-4.3-4.9
				L19.5,116.2z"/>
			<g>
				<defs>
					<path id="SVGID_1_" d="M24.9,60.9c0,0-10.2-2.7-13.8,8.2c0,0-13.6,21.1-10.6,30.7c0,0,2.5,5.3,12.5,12.8
						c1.8,1.3,4.1,1.6,6.1,0.7c1.5-0.7,3.3-1.5,5.1-2.4c1.9-0.9,2.6-3.2,1.7-5.1c0-0.1-0.1-0.1-0.1-0.2c-4.6-9.3-4.6-20.2-0.3-29.7
						C28.2,69.7,30.5,61.8,24.9,60.9z"/>
				</defs>
				<clipPath id="SVGID_00000018216637946927054690000013904173395002735753_">
					<use xlink:href="#SVGID_1_"  style="overflow:visible;"/>
				</clipPath>
				<g style="clip-path:url(#SVGID_00000018216637946927054690000013904173395002735753_);">
					<path class="st2" d="M24.9,60.9c0,0-10.9-3.2-14.5,7.7c0,0-14.1,22.1-10,31.2c0,0,2.5,5.3,12.5,12.8c1.8,1.3,4.1,1.6,6.1,0.7
						c1.5-0.7,3.3-1.5,5.1-2.4c1.9-0.9,2.6-3.2,1.7-5.1c0-0.1-0.1-0.1-0.1-0.2c-4.6-9.3-4.6-20.2-0.3-29.7
						C28.2,69.7,30.5,61.8,24.9,60.9z"/>
				</g>
				<g style="clip-path:url(#SVGID_00000018216637946927054690000013904173395002735753_);">
					<g>
						<path class="st1" d="M4,60.2c0-1.4,1.3-2.6,3-2.6c1.7,0,3,1.2,3,2.6c0,1.4-1.3,2.6-3,2.6C5.3,62.8,4,61.7,4,60.2z"/>
						<path class="st1" d="M4,101.8c0-1.4,1.3-2.6,3-2.6c1.7,0,3,1.2,3,2.6c0,1.4-1.3,2.6-3,2.6C5.3,104.4,4,103.2,4,101.8z"/>
						<path class="st1" d="M-1.7,61.7c-0.4-1.4,0.6-2.8,2.2-3.2c1.6-0.4,3.2,0.4,3.6,1.8S3.5,63,1.9,63.4C0.3,63.8-1.3,63-1.7,61.7z
							"/>
						<path class="st1" d="M9.8,101.8c-0.4-1.4,0.6-2.8,2.2-3.2c1.6-0.4,3.2,0.4,3.6,1.8c0.4,1.4-0.6,2.8-2.2,3.2
							C11.8,104,10.2,103.2,9.8,101.8z"/>
						<path class="st1" d="M-6.7,64.4c-0.8-1.2-0.2-2.9,1.2-3.6s3.2-0.4,4,0.8c0.8,1.2,0.2,2.9-1.2,3.6S-5.9,65.7-6.7,64.4z"/>
						<path class="st1" d="M15.4,100.4c-0.8-1.2-0.2-2.9,1.2-3.6c1.4-0.8,3.2-0.4,4,0.8c0.8,1.2,0.2,2.9-1.2,3.6
							C18,102,16.2,101.7,15.4,100.4z"/>
						<path class="st1" d="M-10.8,68.3c-1.1-1-1-2.7,0.2-3.8c1.2-1.1,3-1.2,4.1-0.2c1.1,1,1,2.7-0.2,3.8
							C-7.9,69.2-9.7,69.3-10.8,68.3z"/>
						<path class="st1" d="M20.5,97.7c-1.1-1-1-2.7,0.2-3.8c1.2-1.1,3-1.2,4.1-0.2c1.1,1,1,2.7-0.2,3.8
							C23.4,98.6,21.6,98.7,20.5,97.7z"/>
						<path class="st1" d="M-13.7,73.1c-1.3-0.7-1.7-2.4-0.9-3.7s2.6-1.9,3.9-1.2c1.3,0.7,1.7,2.4,0.9,3.7
							C-10.7,73.3-12.4,73.8-13.7,73.1z"/>
						<path class="st1" d="M24.6,93.9c-1.3-0.7-1.7-2.4-0.9-3.7c0.8-1.3,2.6-1.9,3.9-1.2c1.3,0.7,1.7,2.4,0.9,3.7
							C27.7,94,25.9,94.6,24.6,93.9z"/>
						<path class="st1" d="M-15.2,78.4c-1.5-0.4-2.3-1.9-1.9-3.4c0.4-1.5,2-2.4,3.4-2.1s2.3,1.9,1.9,3.4
							C-12.2,77.8-13.7,78.7-15.2,78.4z"/>
						<path class="st1" d="M27.6,89.1c-1.5-0.4-2.3-1.9-1.9-3.4c0.4-1.5,2-2.4,3.4-2.1c1.5,0.4,2.3,1.9,1.9,3.4
							C30.6,88.6,29,89.5,27.6,89.1z"/>
						<path class="st1" d="M-15.2,83.8c-1.5,0-2.7-1.3-2.7-2.8s1.2-2.8,2.7-2.8c1.5,0,2.7,1.3,2.7,2.8S-13.7,83.8-15.2,83.8z"/>
						<ellipse class="st1" cx="29.1" cy="81" rx="2.7" ry="2.8"/>
						<path class="st1" d="M-13.6,89.1c-1.5,0.4-3-0.6-3.4-2.1c-0.4-1.5,0.4-3,1.9-3.4c1.5-0.4,3,0.6,3.4,2.1
							C-11.3,87.2-12.2,88.8-13.6,89.1z"/>
						<path class="st1" d="M29.1,78.4c-1.5,0.4-3-0.6-3.4-2.1c-0.4-1.5,0.4-3,1.9-3.4c1.5-0.4,3,0.6,3.4,2.1
							C31.4,76.5,30.6,78,29.1,78.4z"/>
						<path class="st1" d="M-10.7,93.9c-1.3,0.7-3.1,0.2-3.9-1.2c-0.8-1.3-0.4-3,0.9-3.7c1.3-0.7,3.1-0.2,3.9,1.2
							C-9,91.5-9.4,93.1-10.7,93.9z"/>
						<path class="st1" d="M27.6,73.1c-1.3,0.7-3.1,0.2-3.9-1.2c-0.8-1.3-0.4-3,0.9-3.7c1.3-0.7,3.1-0.2,3.9,1.2
							C29.3,70.7,28.9,72.4,27.6,73.1z"/>
						<path class="st1" d="M-6.6,97.7c-1.1,1-2.9,0.9-4.1-0.2c-1.2-1.1-1.3-2.8-0.2-3.8c1.1-1,2.9-0.9,4.1,0.2
							C-5.6,95-5.5,96.7-6.6,97.7z"/>
						<path class="st1" d="M24.7,68.3c-1.1,1-2.9,0.9-4.1-0.2c-1.2-1.1-1.3-2.8-0.2-3.8c1.1-1,2.9-0.9,4.1,0.2
							C25.7,65.6,25.8,67.3,24.7,68.3z"/>
						<path class="st1" d="M-1.5,100.4c-0.8,1.2-2.5,1.6-4,0.8c-1.4-0.8-2-2.4-1.2-3.6c0.8-1.2,2.5-1.6,4-0.8S-0.7,99.2-1.5,100.4z"
							/>
						<path class="st1" d="M20.6,64.4c-0.8,1.2-2.5,1.6-4,0.8c-1.4-0.8-2-2.4-1.2-3.6c0.8-1.2,2.5-1.6,4-0.8S21.4,63.2,20.6,64.4z"
							/>
						<path class="st1" d="M4.1,101.8c-0.4,1.4-2,2.2-3.6,1.8s-2.6-1.8-2.2-3.2c0.4-1.4,2-2.2,3.6-1.8C3.5,99,4.5,100.4,4.1,101.8z"
							/>
						<path class="st1" d="M15.6,61.7c-0.4,1.4-2,2.2-3.6,1.8c-1.6-0.4-2.6-1.8-2.2-3.2c0.4-1.4,2-2.2,3.6-1.8
							C15,58.8,16,60.3,15.6,61.7z"/>
					</g>
					<g>
						<path class="st5" d="M4.2,61.7c0-1.3,1.2-2.4,2.8-2.4s2.8,1.1,2.8,2.4c0,1.3-1.2,2.4-2.8,2.4S4.2,63,4.2,61.7z"/>
						<path class="st5" d="M4.2,100.3c0-1.3,1.2-2.4,2.8-2.4s2.8,1.1,2.8,2.4c0,1.3-1.2,2.4-2.8,2.4S4.2,101.6,4.2,100.3z"/>
						<path class="st5" d="M-1,63.1c-0.4-1.3,0.5-2.6,2-3c1.5-0.4,3,0.4,3.4,1.6c0.4,1.3-0.5,2.6-2,3C0.8,65.1-0.7,64.3-1,63.1z"/>
						<path class="st5" d="M9.6,100.3c-0.4-1.3,0.5-2.6,2-3c1.5-0.4,3,0.4,3.4,1.6c0.4,1.3-0.5,2.6-2,3
							C11.4,102.3,9.9,101.6,9.6,100.3z"/>
						<path class="st5" d="M-5.7,65.6c-0.7-1.1-0.2-2.7,1.1-3.4c1.3-0.7,3-0.4,3.7,0.8c0.7,1.1,0.2,2.7-1.1,3.4
							C-3.4,67.1-5,66.8-5.7,65.6z"/>
						<path class="st5" d="M14.8,99c-0.7-1.1-0.2-2.7,1.1-3.4c1.3-0.7,3-0.4,3.7,0.8c0.7,1.1,0.2,2.7-1.1,3.4
							C17.2,100.5,15.5,100.2,14.8,99z"/>
						<path class="st5" d="M-9.5,69.2c-1-0.9-0.9-2.5,0.2-3.5c1.1-1,2.8-1.1,3.8-0.2c1,0.9,0.9,2.5-0.2,3.5
							C-6.8,70.1-8.5,70.2-9.5,69.2z"/>
						<path class="st5" d="M19.5,96.5c-1-0.9-0.9-2.5,0.2-3.5c1.1-1,2.8-1.1,3.8-0.2s0.9,2.5-0.2,3.5C22.2,97.4,20.5,97.4,19.5,96.5
							z"/>
						<path class="st5" d="M-12.2,73.6c-1.2-0.7-1.6-2.2-0.8-3.5s2.4-1.7,3.6-1.1c1.2,0.7,1.6,2.2,0.8,3.5S-11,74.3-12.2,73.6z"/>
						<path class="st5" d="M23.4,92.9c-1.2-0.7-1.6-2.2-0.8-3.5c0.8-1.3,2.4-1.7,3.6-1.1c1.2,0.7,1.6,2.2,0.8,3.5
							C26.2,93.1,24.6,93.6,23.4,92.9z"/>
						<path class="st5" d="M-13.6,78.6c-1.4-0.3-2.1-1.8-1.7-3.1c0.4-1.4,1.8-2.3,3.2-1.9s2.1,1.8,1.7,3.1
							C-10.8,78-12.2,78.9-13.6,78.6z"/>
						<path class="st5" d="M26.1,88.5c-1.4-0.3-2.1-1.8-1.7-3.1s1.8-2.3,3.2-1.9c1.4,0.3,2.1,1.8,1.7,3.1
							C28.9,88,27.4,88.9,26.1,88.5z"/>
						<path class="st5" d="M-13.6,83.6c-1.4,0-2.6-1.2-2.6-2.6c0-1.4,1.1-2.6,2.6-2.6c1.4,0,2.6,1.2,2.6,2.6
							C-11,82.5-12.2,83.6-13.6,83.6z"/>
						<ellipse class="st5" cx="27.5" cy="81" rx="2.6" ry="2.6"/>
						<path class="st5" d="M-12.2,88.5c-1.4,0.3-2.8-0.5-3.2-1.9c-0.4-1.4,0.4-2.8,1.7-3.1c1.4-0.3,2.8,0.5,3.2,1.9
							C-10,86.8-10.8,88.2-12.2,88.5z"/>
						<path class="st5" d="M27.5,78.6c-1.4,0.3-2.8-0.5-3.2-1.9s0.4-2.8,1.7-3.1s2.8,0.5,3.2,1.9C29.7,76.8,28.9,78.2,27.5,78.6z"/>
						<path class="st5" d="M-9.4,92.9c-1.2,0.7-2.8,0.2-3.6-1.1s-0.4-2.8,0.8-3.5c1.2-0.7,2.8-0.2,3.6,1.1
							C-7.8,90.7-8.2,92.3-9.4,92.9z"/>
						<path class="st5" d="M26.1,73.6c-1.2,0.7-2.8,0.2-3.6-1.1s-0.4-2.8,0.8-3.5c1.2-0.7,2.8-0.2,3.6,1.1
							C27.7,71.4,27.4,73,26.1,73.6z"/>
						<path class="st5" d="M-5.6,96.5c-1,0.9-2.7,0.9-3.8-0.2c-1.1-1-1.2-2.6-0.2-3.5c1-0.9,2.7-0.9,3.8,0.2
							C-4.7,94-4.6,95.6-5.6,96.5z"/>
						<path class="st5" d="M23.5,69.2c-1,0.9-2.7,0.9-3.8-0.2c-1.1-1-1.2-2.6-0.2-3.5c1-0.9,2.7-0.9,3.8,0.2
							C24.4,66.7,24.4,68.3,23.5,69.2z"/>
						<path class="st5" d="M-0.9,99c-0.7,1.1-2.4,1.5-3.7,0.8c-1.3-0.7-1.8-2.2-1.1-3.4c0.7-1.1,2.4-1.5,3.7-0.8
							C-0.7,96.4-0.2,97.9-0.9,99z"/>
						<path class="st5" d="M19.6,65.6c-0.7,1.1-2.4,1.5-3.7,0.8c-1.3-0.7-1.8-2.2-1.1-3.4c0.7-1.1,2.4-1.5,3.7-0.8
							C19.8,63,20.3,64.5,19.6,65.6z"/>
						<path class="st5" d="M4.3,100.3c-0.4,1.3-1.9,2-3.4,1.6c-1.5-0.4-2.4-1.7-2-3c0.4-1.3,1.9-2,3.4-1.6
							C3.8,97.7,4.7,99,4.3,100.3z"/>
						<path class="st5" d="M15,63.1c-0.4,1.3-1.9,2-3.4,1.6c-1.5-0.4-2.4-1.7-2-3c0.4-1.3,1.9-2,3.4-1.6
							C14.4,60.4,15.3,61.8,15,63.1z"/>
					</g>
					<ellipse class="st2" cx="7" cy="81" rx="21.3" ry="19.5"/>
				</g>
				<g style="clip-path:url(#SVGID_00000018216637946927054690000013904173395002735753_);">
					<g>
						<path class="st1" d="M3,53.5c0-1.4,1.3-2.6,3-2.6c1.7,0,3,1.2,3,2.6c0,1.4-1.3,2.6-3,2.6C4.3,56.1,3,54.9,3,53.5z"/>
						<path class="st1" d="M3,95.1c0-1.4,1.3-2.6,3-2.6c1.7,0,3,1.2,3,2.6c0,1.4-1.3,2.6-3,2.6C4.3,97.7,3,96.5,3,95.1z"/>
						<path class="st1" d="M-2.7,54.9c-0.4-1.4,0.6-2.8,2.2-3.2c1.6-0.4,3.2,0.4,3.6,1.8s-0.6,2.8-2.2,3.2
							C-0.7,57.1-2.3,56.3-2.7,54.9z"/>
						<path class="st1" d="M8.8,95.1c-0.4-1.4,0.6-2.8,2.2-3.2c1.6-0.4,3.2,0.4,3.6,1.8c0.4,1.4-0.6,2.8-2.2,3.2
							C10.8,97.3,9.2,96.5,8.8,95.1z"/>
						<path class="st1" d="M-7.7,57.7c-0.8-1.2-0.2-2.9,1.2-3.6s3.2-0.4,4,0.8c0.8,1.2,0.2,2.9-1.2,3.6S-6.9,58.9-7.7,57.7z"/>
						<path class="st1" d="M14.4,93.7c-0.8-1.2-0.2-2.9,1.2-3.6s3.2-0.4,4,0.8c0.8,1.2,0.2,2.9-1.2,3.6C17,95.3,15.2,94.9,14.4,93.7
							z"/>
						<path class="st1" d="M-11.8,61.6c-1.1-1-1-2.7,0.2-3.8c1.2-1.1,3-1.2,4.1-0.2c1.1,1,1,2.7-0.2,3.8
							C-8.9,62.5-10.7,62.6-11.8,61.6z"/>
						<path class="st1" d="M19.5,91c-1.1-1-1-2.7,0.2-3.8c1.2-1.1,3-1.2,4.1-0.2c1.1,1,1,2.7-0.2,3.8S20.6,92,19.5,91z"/>
						<path class="st1" d="M-14.7,66.3c-1.3-0.7-1.7-2.4-0.9-3.7c0.8-1.3,2.6-1.9,3.9-1.2c1.3,0.7,1.7,2.4,0.9,3.7
							C-11.7,66.5-13.4,67-14.7,66.3z"/>
						<path class="st1" d="M23.6,87.1c-1.3-0.7-1.7-2.4-0.9-3.7c0.8-1.3,2.6-1.9,3.9-1.2c1.3,0.7,1.7,2.4,0.9,3.7
							C26.7,87.3,24.9,87.8,23.6,87.1z"/>
						<path class="st1" d="M-16.2,71.6c-1.5-0.4-2.3-1.9-1.9-3.4c0.4-1.5,2-2.4,3.4-2.1c1.5,0.4,2.3,1.9,1.9,3.4
							C-13.2,71.1-14.7,72-16.2,71.6z"/>
						<path class="st1" d="M26.6,82.4c-1.5-0.4-2.3-1.9-1.9-3.4c0.4-1.5,2-2.4,3.4-2.1s2.3,1.9,1.9,3.4C29.6,81.8,28,82.8,26.6,82.4
							z"/>
						<ellipse class="st1" cx="-16.2" cy="74.3" rx="2.7" ry="2.8"/>
						<ellipse class="st1" cx="28.1" cy="74.3" rx="2.7" ry="2.8"/>
						<path class="st1" d="M-14.6,82.4c-1.5,0.4-3-0.6-3.4-2.1c-0.4-1.5,0.4-3,1.9-3.4s3,0.6,3.4,2.1C-12.3,80.5-13.2,82-14.6,82.4z
							"/>
						<path class="st1" d="M28.1,71.6c-1.5,0.4-3-0.6-3.4-2.1c-0.4-1.5,0.4-3,1.9-3.4c1.5-0.4,3,0.6,3.4,2.1
							C30.4,69.7,29.6,71.3,28.1,71.6z"/>
						<path class="st1" d="M-11.7,87.1c-1.3,0.7-3.1,0.2-3.9-1.2c-0.8-1.3-0.4-3,0.9-3.7c1.3-0.7,3.1-0.2,3.9,1.2
							C-10,84.7-10.4,86.4-11.7,87.1z"/>
						<path class="st1" d="M26.6,66.3c-1.3,0.7-3.1,0.2-3.9-1.2c-0.8-1.3-0.4-3,0.9-3.7c1.3-0.7,3.1-0.2,3.9,1.2
							C28.3,63.9,27.9,65.6,26.6,66.3z"/>
						<path class="st1" d="M-7.6,91c-1.1,1-2.9,0.9-4.1-0.2c-1.2-1.1-1.3-2.8-0.2-3.8c1.1-1,2.9-0.9,4.1,0.2
							C-6.6,88.3-6.5,90-7.6,91z"/>
						<path class="st1" d="M23.7,61.6c-1.1,1-2.9,0.9-4.1-0.2c-1.2-1.1-1.3-2.8-0.2-3.8c1.1-1,2.9-0.9,4.1,0.2
							C24.7,58.9,24.8,60.6,23.7,61.6z"/>
						<path class="st1" d="M-2.5,93.7c-0.8,1.2-2.5,1.6-4,0.8c-1.4-0.8-2-2.4-1.2-3.6c0.8-1.2,2.5-1.6,4-0.8S-1.7,92.5-2.5,93.7z"/>
						<path class="st1" d="M19.6,57.7c-0.8,1.2-2.5,1.6-4,0.8s-2-2.4-1.2-3.6c0.8-1.2,2.5-1.6,4-0.8C19.8,54.8,20.4,56.5,19.6,57.7z
							"/>
						<path class="st1" d="M3.1,95.1c-0.4,1.4-2,2.2-3.6,1.8c-1.6-0.4-2.6-1.8-2.2-3.2c0.4-1.4,2-2.2,3.6-1.8
							C2.5,92.3,3.5,93.7,3.1,95.1z"/>
						<path class="st1" d="M14.6,54.9c-0.4,1.4-2,2.2-3.6,1.8c-1.6-0.4-2.6-1.8-2.2-3.2c0.4-1.4,2-2.2,3.6-1.8
							C14,52.1,15,53.6,14.6,54.9z"/>
					</g>
					<g>
						<path class="st5" d="M3.2,55c0-1.3,1.2-2.4,2.8-2.4s2.8,1.1,2.8,2.4c0,1.3-1.2,2.4-2.8,2.4S3.2,56.3,3.2,55z"/>
						<path class="st5" d="M3.2,93.6c0-1.3,1.2-2.4,2.8-2.4s2.8,1.1,2.8,2.4C8.7,94.9,7.5,96,6,96S3.2,94.9,3.2,93.6z"/>
						<path class="st5" d="M-2,56.3c-0.4-1.3,0.5-2.6,2-3C1.5,53,3,53.7,3.3,55c0.4,1.3-0.5,2.6-2,3C-0.2,58.3-1.7,57.6-2,56.3z"/>
						<path class="st5" d="M8.6,93.6c-0.4-1.3,0.5-2.6,2-3c1.5-0.4,3,0.4,3.4,1.6c0.4,1.3-0.5,2.6-2,3C10.4,95.6,8.9,94.9,8.6,93.6z
							"/>
						<path class="st5" d="M-6.7,58.9c-0.7-1.1-0.2-2.7,1.1-3.4s3-0.4,3.7,0.8c0.7,1.1,0.2,2.7-1.1,3.4C-4.4,60.4-6,60-6.7,58.9z"/>
						<path class="st5" d="M13.8,92.3c-0.7-1.1-0.2-2.7,1.1-3.4c1.3-0.7,3-0.4,3.7,0.8c0.7,1.1,0.2,2.7-1.1,3.4
							C16.2,93.8,14.5,93.4,13.8,92.3z"/>
						<path class="st5" d="M-10.5,62.5c-1-0.9-0.9-2.5,0.2-3.5c1.1-1,2.8-1.1,3.8-0.2c1,0.9,0.9,2.5-0.2,3.5
							C-7.8,63.4-9.5,63.4-10.5,62.5z"/>
						<path class="st5" d="M18.5,89.8c-1-0.9-0.9-2.5,0.2-3.5c1.1-1,2.8-1.1,3.8-0.2c1,0.9,0.9,2.5-0.2,3.5
							C21.2,90.6,19.5,90.7,18.5,89.8z"/>
						<path class="st5" d="M-13.2,66.9c-1.2-0.7-1.6-2.2-0.8-3.5s2.4-1.7,3.6-1.1c1.2,0.7,1.6,2.2,0.8,3.5
							C-10.4,67.1-12,67.6-13.2,66.9z"/>
						<path class="st5" d="M22.3,86.2c-1.2-0.7-1.6-2.2-0.8-3.5c0.8-1.3,2.4-1.7,3.6-1.1c1.2,0.7,1.6,2.2,0.8,3.5
							S23.6,86.9,22.3,86.2z"/>
						<path class="st5" d="M-14.6,71.8c-1.4-0.3-2.1-1.8-1.7-3.1c0.4-1.4,1.8-2.3,3.2-1.9c1.4,0.3,2.1,1.8,1.7,3.1
							C-11.8,71.3-13.2,72.2-14.6,71.8z"/>
						<path class="st5" d="M25.1,81.8c-1.4-0.3-2.1-1.8-1.7-3.1c0.4-1.4,1.8-2.3,3.2-1.9s2.1,1.8,1.7,3.1
							C27.9,81.3,26.4,82.1,25.1,81.8z"/>
						<ellipse class="st5" cx="-14.6" cy="74.3" rx="2.6" ry="2.6"/>
						<ellipse class="st5" cx="26.5" cy="74.3" rx="2.6" ry="2.6"/>
						<path class="st5" d="M-13.2,81.8c-1.4,0.3-2.8-0.5-3.2-1.9c-0.4-1.4,0.4-2.8,1.7-3.1s2.8,0.5,3.2,1.9
							C-11,80.1-11.8,81.5-13.2,81.8z"/>
						<path class="st5" d="M26.5,71.8c-1.4,0.3-2.8-0.5-3.2-1.9c-0.4-1.4,0.4-2.8,1.7-3.1c1.4-0.3,2.8,0.5,3.2,1.9
							C28.7,70.1,27.9,71.5,26.5,71.8z"/>
						<path class="st5" d="M-10.4,86.2c-1.2,0.7-2.8,0.2-3.6-1.1s-0.4-2.8,0.8-3.5c1.2-0.7,2.8-0.2,3.6,1.1
							C-8.8,84-9.2,85.5-10.4,86.2z"/>
						<path class="st5" d="M25.1,66.9c-1.2,0.7-2.8,0.2-3.6-1.1c-0.8-1.3-0.4-2.8,0.8-3.5c1.2-0.7,2.8-0.2,3.6,1.1
							S26.4,66.2,25.1,66.9z"/>
						<path class="st5" d="M-6.6,89.8c-1,0.9-2.7,0.9-3.8-0.2c-1.1-1-1.2-2.6-0.2-3.5c1-0.9,2.7-0.9,3.8,0.2
							C-5.7,87.3-5.6,88.8-6.6,89.8z"/>
						<path class="st5" d="M22.4,62.5c-1,0.9-2.7,0.9-3.8-0.2c-1.1-1-1.2-2.6-0.2-3.5c1-0.9,2.7-0.9,3.8,0.2
							C23.4,60,23.4,61.6,22.4,62.5z"/>
						<path class="st5" d="M-1.9,92.3c-0.7,1.1-2.4,1.5-3.7,0.8s-1.8-2.2-1.1-3.4c0.7-1.1,2.4-1.5,3.7-0.8
							C-1.7,89.6-1.2,91.2-1.9,92.3z"/>
						<path class="st5" d="M18.6,58.9c-0.7,1.1-2.4,1.5-3.7,0.8c-1.3-0.7-1.8-2.2-1.1-3.4c0.7-1.1,2.4-1.5,3.7-0.8
							C18.8,56.2,19.3,57.7,18.6,58.9z"/>
						<path class="st5" d="M3.3,93.6c-0.4,1.3-1.9,2-3.4,1.6c-1.5-0.4-2.4-1.7-2-3c0.4-1.3,1.9-2,3.4-1.6C2.8,91,3.7,92.3,3.3,93.6z
							"/>
						<path class="st5" d="M14,56.3c-0.4,1.3-1.9,2-3.4,1.6c-1.5-0.4-2.4-1.7-2-3c0.4-1.3,1.9-2,3.4-1.6
							C13.4,53.7,14.3,55.1,14,56.3z"/>
					</g>
					<ellipse class="st2" cx="6" cy="74.3" rx="21.3" ry="19.5"/>
				</g>
			</g>
			<path class="st2" d="M26.5,112.5l-7,4c-0.8,0.5-1.9,0.2-2.4-0.6l0,0c-0.5-0.8-0.2-1.9,0.6-2.4l7-4c0.8-0.5,1.9-0.2,2.4,0.6l0,0
				C27.6,110.9,27.4,112,26.5,112.5z"/>
		</g>
		<g id="왼쪽_손_1_">
			<path class="st6" d="M93.8,116.2c0,0-3.6,10.8-9.8,8.2c-1.6-0.7-2.5-2.5-1.8-4.1c0.3-0.8,1.1-1.8,2.3-2.7c0,0-1.5-3.6,4.3-4.9
				L93.8,116.2z"/>
			<g>
				<defs>
					<path id="SVGID_00000125576187529279631010000005038604441816288948_" d="M88.5,60.9c0,0,10.2-2.7,13.8,8.2
						c0,0,13.6,21.1,10.6,30.7c0,0-2.5,5.3-12.5,12.8c-1.8,1.3-4.1,1.6-6.1,0.7c-1.5-0.7-3.3-1.5-5.1-2.4c-1.9-0.9-2.6-3.2-1.7-5.1
						c0-0.1,0.1-0.1,0.1-0.2c4.6-9.3,4.6-20.2,0.3-29.7C85.1,69.7,82.8,61.8,88.5,60.9z"/>
				</defs>
				<clipPath id="SVGID_00000114061343599121661560000001284148672726055564_">
					<use xlink:href="#SVGID_00000125576187529279631010000005038604441816288948_"  style="overflow:visible;"/>
				</clipPath>
				<g style="clip-path:url(#SVGID_00000114061343599121661560000001284148672726055564_);">
					<path class="st2" d="M88.5,60.9c0,0,10.9-3.2,14.5,7.7c0,0,14.1,22.1,10,31.2c0,0-2.5,5.3-12.5,12.8c-1.8,1.3-4.1,1.6-6.1,0.7
						c-1.5-0.7-3.3-1.5-5.1-2.4c-1.9-0.9-2.6-3.2-1.7-5.1c0-0.1,0.1-0.1,0.1-0.2c4.6-9.3,4.6-20.2,0.3-29.7
						C85.1,69.7,82.8,61.8,88.5,60.9z"/>
				</g>
				<g style="clip-path:url(#SVGID_00000114061343599121661560000001284148672726055564_);">
					<g>
						<path class="st1" d="M109.4,60.2c0-1.4-1.3-2.6-3-2.6c-1.7,0-3,1.2-3,2.6c0,1.4,1.3,2.6,3,2.6
							C108.1,62.8,109.4,61.7,109.4,60.2z"/>
						<path class="st1" d="M109.4,101.8c0-1.4-1.3-2.6-3-2.6c-1.7,0-3,1.2-3,2.6c0,1.4,1.3,2.6,3,2.6
							C108.1,104.4,109.4,103.2,109.4,101.8z"/>
						<path class="st1" d="M115,61.7c0.4-1.4-0.6-2.8-2.2-3.2c-1.6-0.4-3.2,0.4-3.6,1.8c-0.4,1.4,0.6,2.8,2.2,3.2
							C113,63.8,114.7,63,115,61.7z"/>
						<path class="st1" d="M103.6,101.8c0.4-1.4-0.6-2.8-2.2-3.2c-1.6-0.4-3.2,0.4-3.6,1.8c-0.4,1.4,0.6,2.8,2.2,3.2
							S103.2,103.2,103.6,101.8z"/>
						<path class="st1" d="M120.1,64.4c0.8-1.2,0.2-2.9-1.2-3.6c-1.4-0.8-3.2-0.4-4,0.8c-0.8,1.2-0.2,2.9,1.2,3.6
							C117.5,66,119.3,65.7,120.1,64.4z"/>
						<path class="st1" d="M98,100.4c0.8-1.2,0.2-2.9-1.2-3.6c-1.4-0.8-3.2-0.4-4,0.8c-0.8,1.2-0.2,2.9,1.2,3.6
							C95.4,102,97.2,101.7,98,100.4z"/>
						<path class="st1" d="M124.2,68.3c1.1-1,1-2.7-0.2-3.8c-1.2-1.1-3-1.2-4.1-0.2c-1.1,1-1,2.7,0.2,3.8
							C121.3,69.2,123.1,69.3,124.2,68.3z"/>
						<path class="st1" d="M92.9,97.7c1.1-1,1-2.7-0.2-3.8c-1.2-1.1-3-1.2-4.1-0.2c-1.1,1-1,2.7,0.2,3.8
							C90,98.6,91.8,98.7,92.9,97.7z"/>
						<path class="st1" d="M127.1,73.1c1.3-0.7,1.7-2.4,0.9-3.7c-0.8-1.3-2.6-1.9-3.9-1.2c-1.3,0.7-1.7,2.4-0.9,3.7
							C124,73.3,125.8,73.8,127.1,73.1z"/>
						<path class="st1" d="M88.8,93.9c1.3-0.7,1.7-2.4,0.9-3.7c-0.8-1.3-2.6-1.9-3.9-1.2c-1.3,0.7-1.7,2.4-0.9,3.7
							C85.7,94,87.4,94.6,88.8,93.9z"/>
						<path class="st1" d="M128.6,78.4c1.5-0.4,2.3-1.9,1.9-3.4c-0.4-1.5-2-2.4-3.4-2.1c-1.5,0.4-2.3,1.9-1.9,3.4
							C125.6,77.8,127.1,78.7,128.6,78.4z"/>
						<path class="st1" d="M85.8,89.1c1.5-0.4,2.3-1.9,1.9-3.4c-0.4-1.5-2-2.4-3.4-2.1c-1.5,0.4-2.3,1.9-1.9,3.4
							C82.8,88.6,84.4,89.5,85.8,89.1z"/>
						<ellipse class="st1" cx="128.5" cy="81" rx="2.7" ry="2.8"/>
						<path class="st1" d="M84.3,83.8c1.5,0,2.7-1.3,2.7-2.8s-1.2-2.8-2.7-2.8c-1.5,0-2.7,1.3-2.7,2.8S82.8,83.8,84.3,83.8z"/>
						<path class="st1" d="M127,89.1c1.5,0.4,3-0.6,3.4-2.1c0.4-1.5-0.4-3-1.9-3.4c-1.5-0.4-3,0.6-3.4,2.1
							C124.7,87.2,125.5,88.8,127,89.1z"/>
						<path class="st1" d="M84.3,78.4c1.5,0.4,3-0.6,3.4-2.1c0.4-1.5-0.4-3-1.9-3.4s-3,0.6-3.4,2.1C82,76.5,82.8,78,84.3,78.4z"/>
						<path class="st1" d="M124.1,93.9c1.3,0.7,3.1,0.2,3.9-1.2c0.8-1.3,0.4-3-0.9-3.7c-1.3-0.7-3.1-0.2-3.9,1.2
							C122.4,91.5,122.8,93.1,124.1,93.9z"/>
						<path class="st1" d="M85.8,73.1c1.3,0.7,3.1,0.2,3.9-1.2c0.8-1.3,0.4-3-0.9-3.7c-1.3-0.7-3.1-0.2-3.9,1.2S84.4,72.4,85.8,73.1
							z"/>
						<path class="st1" d="M119.9,97.7c1.1,1,2.9,0.9,4.1-0.2c1.2-1.1,1.3-2.8,0.2-3.8s-2.9-0.9-4.1,0.2S118.9,96.7,119.9,97.7z"/>
						<path class="st1" d="M88.6,68.3c1.1,1,2.9,0.9,4.1-0.2c1.2-1.1,1.3-2.8,0.2-3.8c-1.1-1-2.9-0.9-4.1,0.2
							C87.7,65.6,87.6,67.3,88.6,68.3z"/>
						<path class="st1" d="M114.9,100.4c0.8,1.2,2.5,1.6,4,0.8c1.4-0.8,2-2.4,1.2-3.6c-0.8-1.2-2.5-1.6-4-0.8
							C114.7,97.6,114.1,99.2,114.9,100.4z"/>
						<path class="st1" d="M92.8,64.4c0.8,1.2,2.5,1.6,4,0.8c1.4-0.8,2-2.4,1.2-3.6c-0.8-1.2-2.5-1.6-4-0.8
							C92.5,61.6,92,63.2,92.8,64.4z"/>
						
							<ellipse transform="matrix(0.9882 -0.153 0.153 0.9882 -14.1433 18.3423)" class="st1" cx="112.1" cy="101.1" rx="3" ry="2.6"/>
						<path class="st1" d="M97.8,61.7c0.4,1.4,2,2.2,3.6,1.8c1.6-0.4,2.6-1.8,2.2-3.2s-2-2.2-3.6-1.8C98.4,58.8,97.4,60.3,97.8,61.7
							z"/>
					</g>
					<g>
						<path class="st5" d="M109.2,61.7c0-1.3-1.2-2.4-2.8-2.4c-1.5,0-2.8,1.1-2.8,2.4c0,1.3,1.2,2.4,2.8,2.4
							C108,64.1,109.2,63,109.2,61.7z"/>
						<path class="st5" d="M109.2,100.3c0-1.3-1.2-2.4-2.8-2.4c-1.5,0-2.8,1.1-2.8,2.4c0,1.3,1.2,2.4,2.8,2.4
							C108,102.7,109.2,101.6,109.2,100.3z"/>
						<path class="st5" d="M114.4,63.1c0.4-1.3-0.5-2.6-2-3c-1.5-0.4-3,0.4-3.4,1.6c-0.4,1.3,0.5,2.6,2,3
							C112.6,65.1,114.1,64.3,114.4,63.1z"/>
						<path class="st5" d="M103.8,100.3c0.4-1.3-0.5-2.6-2-3c-1.5-0.4-3,0.4-3.4,1.6c-0.4,1.3,0.5,2.6,2,3
							C101.9,102.3,103.4,101.6,103.8,100.3z"/>
						<path class="st5" d="M119.1,65.6c0.7-1.1,0.2-2.7-1.1-3.4c-1.3-0.7-3-0.4-3.7,0.8c-0.7,1.1-0.2,2.7,1.1,3.4
							C116.7,67.1,118.4,66.8,119.1,65.6z"/>
						<path class="st5" d="M98.6,99c0.7-1.1,0.2-2.7-1.1-3.4c-1.3-0.7-3-0.4-3.7,0.8c-0.7,1.1-0.2,2.7,1.1,3.4
							C96.2,100.5,97.9,100.2,98.6,99z"/>
						<path class="st5" d="M122.9,69.2c1-0.9,0.9-2.5-0.2-3.5c-1.1-1-2.8-1.1-3.8-0.2c-1,0.9-0.9,2.5,0.2,3.5
							C120.2,70.1,121.9,70.2,122.9,69.2z"/>
						<path class="st5" d="M93.9,96.5c1-0.9,0.9-2.5-0.2-3.5c-1.1-1-2.8-1.1-3.8-0.2c-1,0.9-0.9,2.5,0.2,3.5
							C91.2,97.4,92.9,97.4,93.9,96.5z"/>
						<path class="st5" d="M125.6,73.6c1.2-0.7,1.6-2.2,0.8-3.5c-0.8-1.3-2.4-1.7-3.6-1.1c-1.2,0.7-1.6,2.2-0.8,3.5
							C122.8,73.8,124.4,74.3,125.6,73.6z"/>
						<path class="st5" d="M90,92.9c1.2-0.7,1.6-2.2,0.8-3.5c-0.8-1.3-2.4-1.7-3.6-1.1c-1.2,0.7-1.6,2.2-0.8,3.5S88.8,93.6,90,92.9z
							"/>
						<path class="st5" d="M127,78.6c1.4-0.3,2.1-1.8,1.7-3.1c-0.4-1.4-1.8-2.3-3.2-1.9c-1.4,0.3-2.1,1.8-1.7,3.1
							C124.2,78,125.6,78.9,127,78.6z"/>
						<path class="st5" d="M87.3,88.5c1.4-0.3,2.1-1.8,1.7-3.1c-0.4-1.4-1.8-2.3-3.2-1.9c-1.4,0.3-2.1,1.8-1.7,3.1
							C84.5,88,85.9,88.9,87.3,88.5z"/>
						<ellipse class="st5" cx="127" cy="81" rx="2.6" ry="2.6"/>
						<path class="st5" d="M85.9,83.6c1.4,0,2.6-1.2,2.6-2.6c0-1.4-1.1-2.6-2.6-2.6c-1.4,0-2.6,1.2-2.6,2.6
							C83.3,82.5,84.5,83.6,85.9,83.6z"/>
						<path class="st5" d="M125.5,88.5c1.4,0.3,2.8-0.5,3.2-1.9c0.4-1.4-0.4-2.8-1.7-3.1c-1.4-0.3-2.8,0.5-3.2,1.9
							C123.4,86.8,124.2,88.2,125.5,88.5z"/>
						<path class="st5" d="M85.9,78.6c1.4,0.3,2.8-0.5,3.2-1.9c0.4-1.4-0.4-2.8-1.7-3.1c-1.4-0.3-2.8,0.5-3.2,1.9
							C83.7,76.8,84.5,78.2,85.9,78.6z"/>
						<path class="st5" d="M122.8,92.9c1.2,0.7,2.8,0.2,3.6-1.1c0.8-1.3,0.4-2.8-0.8-3.5c-1.2-0.7-2.8-0.2-3.6,1.1
							C121.2,90.7,121.6,92.3,122.8,92.9z"/>
						<path class="st5" d="M87.2,73.6c1.2,0.7,2.8,0.2,3.6-1.1c0.8-1.3,0.4-2.8-0.8-3.5c-1.2-0.7-2.8-0.2-3.6,1.1S86,73,87.2,73.6z"
							/>
						<path class="st5" d="M119,96.5c1,0.9,2.7,0.9,3.8-0.2c1.1-1,1.2-2.6,0.2-3.5c-1-0.9-2.7-0.9-3.8,0.2C118,94,118,95.6,119,96.5
							z"/>
						<path class="st5" d="M89.9,69.2c1,0.9,2.7,0.9,3.8-0.2c1.1-1,1.2-2.6,0.2-3.5c-1-0.9-2.7-0.9-3.8,0.2
							C89,66.7,88.9,68.3,89.9,69.2z"/>
						<path class="st5" d="M114.3,99c0.7,1.1,2.4,1.5,3.7,0.8c1.3-0.7,1.8-2.2,1.1-3.4c-0.7-1.1-2.4-1.5-3.7-0.8
							C114.1,96.4,113.6,97.9,114.3,99z"/>
						<path class="st5" d="M93.7,65.6c0.7,1.1,2.4,1.5,3.7,0.8c1.3-0.7,1.8-2.2,1.1-3.4c-0.7-1.1-2.4-1.5-3.7-0.8
							C93.5,63,93,64.5,93.7,65.6z"/>
						<path class="st5" d="M109,100.3c0.4,1.3,1.9,2,3.4,1.6c1.5-0.4,2.4-1.7,2-3c-0.4-1.3-1.9-2-3.4-1.6
							C109.6,97.7,108.7,99,109,100.3z"/>
						<path class="st5" d="M98.4,63.1c0.4,1.3,1.9,2,3.4,1.6c1.5-0.4,2.4-1.7,2-3c-0.4-1.3-1.9-2-3.4-1.6C99,60.4,98,61.8,98.4,63.1
							z"/>
					</g>
					<ellipse class="st2" cx="106.4" cy="81" rx="21.3" ry="19.5"/>
				</g>
				<g style="clip-path:url(#SVGID_00000114061343599121661560000001284148672726055564_);">
					<g>
						<path class="st1" d="M110.4,53.5c0-1.4-1.3-2.6-3-2.6c-1.7,0-3,1.2-3,2.6c0,1.4,1.3,2.6,3,2.6
							C109.1,56.1,110.4,54.9,110.4,53.5z"/>
						<path class="st1" d="M110.4,95.1c0-1.4-1.3-2.6-3-2.6c-1.7,0-3,1.2-3,2.6c0,1.4,1.3,2.6,3,2.6
							C109.1,97.7,110.4,96.5,110.4,95.1z"/>
						<path class="st1" d="M116,54.9c0.4-1.4-0.6-2.8-2.2-3.2c-1.6-0.4-3.2,0.4-3.6,1.8s0.6,2.8,2.2,3.2
							C114,57.1,115.7,56.3,116,54.9z"/>
						<path class="st1" d="M104.6,95.1c0.4-1.4-0.6-2.8-2.2-3.2c-1.6-0.4-3.2,0.4-3.6,1.8c-0.4,1.4,0.6,2.8,2.2,3.2
							C102.6,97.3,104.2,96.5,104.6,95.1z"/>
						<path class="st1" d="M121.1,57.7c0.8-1.2,0.2-2.9-1.2-3.6s-3.2-0.4-4,0.8c-0.8,1.2-0.2,2.9,1.2,3.6S120.3,58.9,121.1,57.7z"/>
						<path class="st1" d="M99,93.7c0.8-1.2,0.2-2.9-1.2-3.6c-1.4-0.8-3.2-0.4-4,0.8c-0.8,1.2-0.2,2.9,1.2,3.6
							C96.4,95.3,98.2,94.9,99,93.7z"/>
						<path class="st1" d="M125.2,61.6c1.1-1,1-2.7-0.2-3.8c-1.2-1.1-3-1.2-4.1-0.2c-1.1,1-1,2.7,0.2,3.8
							C122.3,62.5,124.1,62.6,125.2,61.6z"/>
						<path class="st1" d="M93.9,91c1.1-1,1-2.7-0.2-3.8c-1.2-1.1-3-1.2-4.1-0.2c-1.1,1-1,2.7,0.2,3.8C91,91.9,92.8,92,93.9,91z"/>
						<path class="st1" d="M128.1,66.3c1.3-0.7,1.7-2.4,0.9-3.7c-0.8-1.3-2.6-1.9-3.9-1.2c-1.3,0.7-1.7,2.4-0.9,3.7
							C125,66.5,126.8,67,128.1,66.3z"/>
						<path class="st1" d="M89.8,87.1c1.3-0.7,1.7-2.4,0.9-3.7c-0.8-1.3-2.6-1.9-3.9-1.2c-1.3,0.7-1.7,2.4-0.9,3.7
							C86.7,87.3,88.4,87.8,89.8,87.1z"/>
						<path class="st1" d="M129.6,71.6c1.5-0.4,2.3-1.9,1.9-3.4c-0.4-1.5-2-2.4-3.4-2.1c-1.5,0.4-2.3,1.9-1.9,3.4
							C126.6,71.1,128.1,72,129.6,71.6z"/>
						<path class="st1" d="M86.8,82.4c1.5-0.4,2.3-1.9,1.9-3.4c-0.4-1.5-2-2.4-3.4-2.1c-1.5,0.4-2.3,1.9-1.9,3.4
							C83.8,81.8,85.4,82.8,86.8,82.4z"/>
						<path class="st1" d="M129.5,77.1c1.5,0,2.7-1.3,2.7-2.8s-1.2-2.8-2.7-2.8c-1.5,0-2.7,1.3-2.7,2.8S128,77.1,129.5,77.1z"/>
						<ellipse class="st1" cx="85.3" cy="74.3" rx="2.7" ry="2.8"/>
						<path class="st1" d="M128,82.4c1.5,0.4,3-0.6,3.4-2.1c0.4-1.5-0.4-3-1.9-3.4c-1.5-0.4-3,0.6-3.4,2.1
							C125.7,80.5,126.6,82,128,82.4z"/>
						<path class="st1" d="M85.3,71.6c1.5,0.4,3-0.6,3.4-2.1c0.4-1.5-0.4-3-1.9-3.4c-1.5-0.4-3,0.6-3.4,2.1
							C83,69.7,83.8,71.3,85.3,71.6z"/>
						<path class="st1" d="M125.1,87.1c1.3,0.7,3.1,0.2,3.9-1.2c0.8-1.3,0.4-3-0.9-3.7c-1.3-0.7-3.1-0.2-3.9,1.2
							C123.4,84.7,123.8,86.4,125.1,87.1z"/>
						<path class="st1" d="M86.8,66.3c1.3,0.7,3.1,0.2,3.9-1.2c0.8-1.3,0.4-3-0.9-3.7c-1.3-0.7-3.1-0.2-3.9,1.2
							C85,63.9,85.4,65.6,86.8,66.3z"/>
						<path class="st1" d="M120.9,91c1.1,1,2.9,0.9,4.1-0.2c1.2-1.1,1.3-2.8,0.2-3.8c-1.1-1-2.9-0.9-4.1,0.2
							C120,88.3,119.9,90,120.9,91z"/>
						<path class="st1" d="M89.6,61.6c1.1,1,2.9,0.9,4.1-0.2c1.2-1.1,1.3-2.8,0.2-3.8c-1.1-1-2.9-0.9-4.1,0.2
							C88.7,58.9,88.6,60.6,89.6,61.6z"/>
						<path class="st1" d="M115.9,93.7c0.8,1.2,2.5,1.6,4,0.8c1.4-0.8,2-2.4,1.2-3.6c-0.8-1.2-2.5-1.6-4-0.8S115.1,92.5,115.9,93.7z
							"/>
						<path class="st1" d="M93.8,57.7c0.8,1.2,2.5,1.6,4,0.8c1.4-0.8,2-2.4,1.2-3.6c-0.8-1.2-2.5-1.6-4-0.8
							C93.5,54.8,93,56.5,93.8,57.7z"/>
						
							<ellipse transform="matrix(0.9882 -0.153 0.153 0.9882 -13.1021 18.4166)" class="st1" cx="113.1" cy="94.4" rx="3" ry="2.6"/>
						<path class="st1" d="M98.8,54.9c0.4,1.4,2,2.2,3.6,1.8c1.6-0.4,2.6-1.8,2.2-3.2c-0.4-1.4-2-2.2-3.6-1.8
							C99.4,52.1,98.4,53.6,98.8,54.9z"/>
					</g>
					<g>
						<path class="st5" d="M110.2,55c0-1.3-1.2-2.4-2.8-2.4c-1.5,0-2.8,1.1-2.8,2.4c0,1.3,1.2,2.4,2.8,2.4
							C109,57.4,110.2,56.3,110.2,55z"/>
						<path class="st5" d="M110.2,93.6c0-1.3-1.2-2.4-2.8-2.4c-1.5,0-2.8,1.1-2.8,2.4c0,1.3,1.2,2.4,2.8,2.4
							C109,96,110.2,94.9,110.2,93.6z"/>
						<path class="st5" d="M115.4,56.3c0.4-1.3-0.5-2.6-2-3c-1.5-0.4-3,0.4-3.4,1.6c-0.4,1.3,0.5,2.6,2,3
							C113.6,58.3,115.1,57.6,115.4,56.3z"/>
						<path class="st5" d="M104.8,93.6c0.4-1.3-0.5-2.6-2-3c-1.5-0.4-3,0.4-3.4,1.6c-0.4,1.3,0.5,2.6,2,3
							C102.9,95.6,104.4,94.9,104.8,93.6z"/>
						<path class="st5" d="M120.1,58.9c0.7-1.1,0.2-2.7-1.1-3.4s-3-0.4-3.7,0.8c-0.7,1.1-0.2,2.7,1.1,3.4
							C117.7,60.4,119.4,60,120.1,58.9z"/>
						<path class="st5" d="M99.6,92.3c0.7-1.1,0.2-2.7-1.1-3.4c-1.3-0.7-3-0.4-3.7,0.8c-0.7,1.1-0.2,2.7,1.1,3.4
							C97.2,93.8,98.9,93.4,99.6,92.3z"/>
						<path class="st5" d="M123.9,62.5c1-0.9,0.9-2.5-0.2-3.5c-1.1-1-2.8-1.1-3.8-0.2c-1,0.9-0.9,2.5,0.2,3.5
							C121.2,63.4,122.9,63.4,123.9,62.5z"/>
						<path class="st5" d="M94.9,89.8c1-0.9,0.9-2.5-0.2-3.5c-1.1-1-2.8-1.1-3.8-0.2s-0.9,2.5,0.2,3.5
							C92.2,90.6,93.9,90.7,94.9,89.8z"/>
						<path class="st5" d="M126.6,66.9c1.2-0.7,1.6-2.2,0.8-3.5c-0.8-1.3-2.4-1.7-3.6-1.1c-1.2,0.7-1.6,2.2-0.8,3.5
							C123.8,67.1,125.4,67.6,126.6,66.9z"/>
						<path class="st5" d="M91,86.2c1.2-0.7,1.6-2.2,0.8-3.5c-0.8-1.3-2.4-1.7-3.6-1.1c-1.2,0.7-1.6,2.2-0.8,3.5
							C88.2,86.4,89.8,86.9,91,86.2z"/>
						<path class="st5" d="M128,71.8c1.4-0.3,2.1-1.8,1.7-3.1c-0.4-1.4-1.8-2.3-3.2-1.9c-1.4,0.3-2.1,1.8-1.7,3.1
							C125.2,71.3,126.6,72.2,128,71.8z"/>
						<path class="st5" d="M88.3,81.8c1.4-0.3,2.1-1.8,1.7-3.1c-0.4-1.4-1.8-2.3-3.2-1.9c-1.4,0.3-2.1,1.8-1.7,3.1
							C85.5,81.3,86.9,82.1,88.3,81.8z"/>
						<path class="st5" d="M128,76.9c1.4,0,2.6-1.2,2.6-2.6s-1.1-2.6-2.6-2.6c-1.4,0-2.6,1.2-2.6,2.6S126.5,76.9,128,76.9z"/>
						<ellipse class="st5" cx="86.9" cy="74.3" rx="2.6" ry="2.6"/>
						<path class="st5" d="M126.5,81.8c1.4,0.3,2.8-0.5,3.2-1.9c0.4-1.4-0.4-2.8-1.7-3.1s-2.8,0.5-3.2,1.9
							C124.4,80.1,125.2,81.5,126.5,81.8z"/>
						<path class="st5" d="M86.9,71.8c1.4,0.3,2.8-0.5,3.2-1.9c0.4-1.4-0.4-2.8-1.7-3.1c-1.4-0.3-2.8,0.5-3.2,1.9
							C84.7,70.1,85.5,71.5,86.9,71.8z"/>
						<path class="st5" d="M123.8,86.2c1.2,0.7,2.8,0.2,3.6-1.1c0.8-1.3,0.4-2.8-0.8-3.5c-1.2-0.7-2.8-0.2-3.6,1.1
							C122.2,84,122.6,85.5,123.8,86.2z"/>
						<path class="st5" d="M88.2,66.9c1.2,0.7,2.8,0.2,3.6-1.1c0.8-1.3,0.4-2.8-0.8-3.5c-1.2-0.7-2.8-0.2-3.6,1.1
							C86.7,64.7,87,66.2,88.2,66.9z"/>
						<path class="st5" d="M120,89.8c1,0.9,2.7,0.9,3.8-0.2c1.1-1,1.2-2.6,0.2-3.5s-2.7-0.9-3.8,0.2C119,87.3,119,88.8,120,89.8z"/>
						<path class="st5" d="M90.9,62.5c1,0.9,2.7,0.9,3.8-0.2c1.1-1,1.2-2.6,0.2-3.5c-1-0.9-2.7-0.9-3.8,0.2
							C90,60,89.9,61.6,90.9,62.5z"/>
						<path class="st5" d="M115.3,92.3c0.7,1.1,2.4,1.5,3.7,0.8s1.8-2.2,1.1-3.4c-0.7-1.1-2.4-1.5-3.7-0.8
							C115.1,89.6,114.6,91.2,115.3,92.3z"/>
						<path class="st5" d="M94.7,58.9c0.7,1.1,2.4,1.5,3.7,0.8c1.3-0.7,1.8-2.2,1.1-3.4c-0.7-1.1-2.4-1.5-3.7-0.8
							C94.5,56.2,94,57.7,94.7,58.9z"/>
						<path class="st5" d="M110,93.6c0.4,1.3,1.9,2,3.4,1.6c1.5-0.4,2.4-1.7,2-3c-0.4-1.3-1.9-2-3.4-1.6
							C110.6,91,109.7,92.3,110,93.6z"/>
						<path class="st5" d="M99.4,56.3c0.4,1.3,1.9,2,3.4,1.6c1.5-0.4,2.4-1.7,2-3c-0.4-1.3-1.9-2-3.4-1.6
							C100,53.7,99,55.1,99.4,56.3z"/>
					</g>
					<ellipse class="st2" cx="107.4" cy="74.3" rx="21.3" ry="19.5"/>
				</g>
			</g>
			<path class="st2" d="M86.9,112.5l7,4c0.8,0.5,1.9,0.2,2.4-0.6l0,0c0.5-0.8,0.2-1.9-0.6-2.4l-7-4c-0.8-0.5-1.9-0.2-2.4,0.6l0,0
				C85.7,110.9,86,112,86.9,112.5z"/>
		</g>
		<g>
			<defs>
				<path id="SVGID_00000021118996090097614790000014263747279730664352_" d="M19.6,47.7c0,4.9-0.8,9.9-3.5,14.1l0,0.1
					C6.1,71.8,0,85.4,0,100.5c0,30.6,25.4,55.4,56.7,55.4c31.3,0,56.7-24.8,56.7-55.4c0-15-6.1-28.7-16.1-38.7l0-0.1
					c-2.7-4.1-3.5-9.2-3.5-14.1l-0.1-9l0-0.2c0-0.8,0-1.4,0-2.2c0-20-16.5-36.3-37-36.3c-20.5,0-37,16.2-37,36.2c0,0.8,0,1.6,0,2.5
					L19.6,47.7z"/>
			</defs>
			<clipPath id="SVGID_00000119808686342079176610000004671380803038360505_">
				<use xlink:href="#SVGID_00000021118996090097614790000014263747279730664352_"  style="overflow:visible;"/>
			</clipPath>
			<path style="clip-path:url(#SVGID_00000119808686342079176610000004671380803038360505_);fill:#658BC7;" d="M-0.5,90.2
				c-0.1,0.3,0.1,0.5,0.4,0.6c0,0,0.3,0.1,0.8,0.1c1.7,0,5.7-0.7,7.7-6.5c1.4,0.4,5.5,1.2,9.1-0.9c2.5-1.4,4.2-3.9,5.1-7.5
				c1.3,0.8,4.6,2.4,8.4,1.5c3.3-0.8,6.2-3.2,8.5-7.3c2,1.4,9.8,5.7,17.3-2.8C64.2,76,72,71.6,74,70.3c2.3,4.1,5.1,6.5,8.5,7.3
				c3.8,0.9,7.1-0.7,8.4-1.5c0.9,3.5,2.6,6,5.1,7.5c3.6,2,7.7,1.2,9.1,0.9c2,5.8,6,6.5,7.7,6.5c0.5,0,0.8-0.1,0.8-0.1V3H0L-0.5,90.2
				z"/>
			<path style="clip-path:url(#SVGID_00000119808686342079176610000004671380803038360505_);fill:#2554A3;" d="M-0.5,87.2
				c-0.1,0.3,0.1,0.5,0.4,0.6c0,0,0.3,0.1,0.8,0.1c1.7,0,5.7-0.7,7.7-6.5c1.4,0.4,5.5,1.2,9.1-0.9c2.5-1.4,4.2-3.9,5.1-7.5
				c1.3,0.8,4.6,2.4,8.4,1.5c3.3-0.8,6.2-3.2,8.5-7.3c2,1.4,9.8,5.7,17.3-2.8C64.2,73,72,68.6,74,67.3c2.3,4.1,5.1,6.5,8.5,7.3
				c3.8,0.9,7.1-0.7,8.4-1.5c0.9,3.5,2.6,6,5.1,7.5c3.6,2,7.7,1.2,9.1,0.9c2,5.8,6,6.5,7.7,6.5c0.5,0,0.8-0.1,0.8-0.1V0H0L-0.5,87.2
				z"/>
			<g style="clip-path:url(#SVGID_00000119808686342079176610000004671380803038360505_);">
				<g>
					<g>
						<path class="st2" d="M0,85.8c-0.1,0-0.1,0-0.2,0c-0.1,0-0.1-0.1-0.2-0.1c0,0-0.1-0.1-0.1-0.2c0-0.1,0-0.1,0-0.2
							c0-0.1,0-0.1,0-0.2c0-0.1,0.1-0.1,0.1-0.2c0.2-0.2,0.5-0.2,0.7,0c0,0.1,0.1,0.1,0.1,0.2c0,0.1,0,0.1,0,0.2
							c0,0.1,0,0.3-0.1,0.3c-0.1,0.1-0.1,0.1-0.2,0.1C0.1,85.7,0.1,85.8,0,85.8z"/>
						<path class="st2" d="M2.3,85.1c-0.1-0.3,0.1-0.5,0.3-0.6l0,0c0.3-0.1,0.5,0,0.6,0.3l0,0c0.1,0.3,0,0.5-0.3,0.6l0,0
							c-0.1,0-0.1,0-0.1,0l0,0C2.6,85.5,2.4,85.3,2.3,85.1z M4.8,83.9c-0.2-0.2-0.2-0.5,0-0.7l0,0l0,0l0,0c0.2-0.2,0.5-0.2,0.7,0
							l0,0c0.2,0.2,0.2,0.5,0,0.7l0,0C5.5,84,5.3,84,5.2,84l0,0C5.1,84,4.9,84,4.8,83.9z M6.7,81.8c-0.2-0.1-0.3-0.4-0.2-0.7l0,0
							l0,0l0,0c0.1-0.2,0.4-0.3,0.7-0.2l0,0c0.2,0.1,0.3,0.4,0.2,0.7l0,0c-0.1,0.2-0.3,0.2-0.4,0.2l0,0C6.9,81.8,6.8,81.8,6.7,81.8z
							"/>
						<path class="st2" d="M8.1,79.2c-0.1,0-0.3-0.1-0.4-0.2c-0.1-0.1-0.1-0.2-0.1-0.3c0-0.1,0.1-0.3,0.1-0.4c0,0,0.1-0.1,0.2-0.1
							c0.1,0,0.3,0,0.4,0c0.1,0,0.1,0.1,0.2,0.1c0.1,0.1,0.1,0.2,0.1,0.4c0,0.1,0,0.1,0,0.2c0,0.1-0.1,0.1-0.1,0.2
							C8.3,79.2,8.2,79.2,8.1,79.2z"/>
						<path class="st2" d="M10.7,79.2c0-0.3,0.3-0.5,0.5-0.5l0,0c0,0,0,0,0,0l0,0c0.3,0,0.5,0.3,0.5,0.5l0,0c0,0.3-0.2,0.5-0.5,0.5
							l0,0C10.9,79.8,10.7,79.5,10.7,79.2z M13.8,79.2c-0.1-0.3,0.1-0.5,0.4-0.6l0,0c0.3,0,0.5,0.1,0.6,0.4l0,0
							c0,0.3-0.1,0.5-0.4,0.6l0,0c0,0-0.1,0-0.1,0l0,0C14.1,79.6,13.9,79.4,13.8,79.2z M16.9,78.3c-0.1-0.2-0.1-0.5,0.2-0.7l0,0
							c0.2-0.1,0.6-0.1,0.7,0.2l0,0c0.1,0.2,0.1,0.5-0.2,0.7l0,0c-0.1,0-0.2,0.1-0.2,0.1l0,0C17.1,78.5,16.9,78.4,16.9,78.3z
							 M19.4,76.4c-0.2-0.2-0.2-0.5-0.1-0.7l0,0l0,0l0,0c0.2-0.2,0.5-0.2,0.7-0.1l0,0c0.2,0.2,0.2,0.5,0.1,0.7l0,0
							c-0.1,0.1-0.2,0.2-0.4,0.2l0,0C19.6,76.5,19.5,76.4,19.4,76.4z M21.1,73.7c-0.2-0.1-0.4-0.4-0.3-0.7l0,0
							c0.1-0.2,0.4-0.4,0.6-0.3l0,0c0.3,0.1,0.4,0.4,0.3,0.6l0,0c-0.1,0.2-0.3,0.3-0.5,0.3l0,0C21.2,73.8,21.2,73.7,21.1,73.7z"/>
						<path class="st2" d="M22.2,70.7c-0.1,0-0.1,0-0.2,0c-0.1,0-0.1-0.1-0.2-0.1c-0.1-0.1-0.1-0.2-0.1-0.3c0-0.1,0.1-0.3,0.1-0.4
							c0,0,0.1-0.1,0.2-0.1c0.2-0.1,0.4,0,0.5,0.1c0.1,0.1,0.1,0.2,0.1,0.4s-0.1,0.3-0.1,0.3C22.5,70.7,22.4,70.7,22.2,70.7z"/>
						<path class="st2" d="M27.7,72.7c-0.3,0-0.5-0.3-0.5-0.5l0,0c0-0.3,0.3-0.5,0.6-0.4l0,0c0.3,0,0.5,0.3,0.4,0.5l0,0
							C28.2,72.6,28,72.8,27.7,72.7L27.7,72.7C27.7,72.8,27.7,72.7,27.7,72.7z M30.2,72.2c0-0.3,0.1-0.5,0.4-0.6l0,0
							c0.3-0.1,0.5,0.1,0.6,0.4l0,0c0.1,0.3-0.1,0.5-0.4,0.6l0,0c0,0-0.1,0-0.1,0l0,0C30.4,72.6,30.2,72.5,30.2,72.2z M24.7,72
							c-0.3-0.1-0.4-0.4-0.3-0.6l0,0c0.1-0.3,0.4-0.4,0.6-0.3l0,0c0.3,0.1,0.4,0.4,0.3,0.6l0,0c-0.1,0.2-0.3,0.3-0.5,0.3l0,0
							C24.8,72.1,24.7,72.1,24.7,72z M33,71.3c-0.1-0.2,0-0.5,0.2-0.7l0,0c0.2-0.1,0.6,0,0.7,0.2l0,0c0.1,0.2,0,0.5-0.2,0.7v0
							c-0.1,0-0.2,0.1-0.2,0.1l0,0C33.2,71.6,33.1,71.5,33,71.3z M35.4,69.7c-0.2-0.2-0.2-0.5,0-0.7l0,0l0,0l0,0
							c0.2-0.2,0.5-0.2,0.7,0l0,0c0.2,0.2,0.2,0.5,0,0.7l0,0c-0.1,0.1-0.2,0.1-0.4,0.1l0,0C35.6,69.8,35.5,69.8,35.4,69.7z
							 M37.4,67.5c-0.2-0.2-0.3-0.5-0.1-0.7l0,0l0,0l0,0c0.2-0.2,0.5-0.3,0.7-0.1l0,0c0.2,0.2,0.3,0.5,0.1,0.7l0,0
							c-0.1,0.1-0.2,0.2-0.4,0.2l0,0C37.6,67.6,37.5,67.5,37.4,67.5z"/>
						<path class="st2" d="M39.2,65c-0.1,0-0.3-0.1-0.4-0.2c-0.1-0.1-0.1-0.2-0.1-0.3s0.1-0.3,0.1-0.4c0.1,0,0.1-0.1,0.2-0.1
							c0.2-0.1,0.4,0,0.6,0.1c0.1,0.1,0.1,0.2,0.1,0.4s0,0.3-0.1,0.3C39.5,65,39.4,65,39.2,65z"/>
						<path class="st2" d="M46.6,67.1c0-0.3,0.2-0.5,0.5-0.5l0,0c0.3,0,0.5,0.2,0.5,0.5l0,0c0,0.3-0.2,0.5-0.5,0.5l0,0c0,0,0,0,0,0
							l0,0C46.9,67.6,46.7,67.4,46.6,67.1z M44.2,67.4c-0.3-0.1-0.4-0.3-0.4-0.6l0,0c0-0.3,0.3-0.4,0.6-0.4l0,0
							c0.3,0.1,0.4,0.3,0.4,0.6l0,0c0,0.2-0.2,0.4-0.5,0.4l0,0C44.3,67.4,44.3,67.4,44.2,67.4z M49.4,66.8c-0.1-0.3,0.1-0.5,0.3-0.6
							l0,0c0.3-0.1,0.6,0.1,0.6,0.3l0,0c0.1,0.3-0.1,0.5-0.3,0.6l0,0c0,0-0.1,0-0.1,0l0,0C49.7,67.1,49.5,67,49.4,66.8z M41.5,66.4
							L41.5,66.4c-0.2-0.1-0.4-0.4-0.2-0.7l0,0c0.1-0.2,0.4-0.4,0.7-0.2l0,0l0,0l0,0c0.2,0.1,0.4,0.4,0.2,0.7l0,0
							c-0.1,0.2-0.3,0.3-0.5,0.3l0,0C41.6,66.5,41.5,66.5,41.5,66.4z M52.1,65.7c-0.1-0.2-0.1-0.5,0.2-0.7l0,0c0,0,0,0,0,0l0,0
							c0.2-0.1,0.5-0.1,0.7,0.2l0,0c0.1,0.2,0.1,0.5-0.2,0.7l0,0c-0.1,0-0.2,0.1-0.2,0.1l0,0C52.3,66,52.1,65.9,52.1,65.7z
							 M54.4,64.1c-0.2-0.2-0.2-0.5,0-0.7l0,0c0.2-0.2,0.5-0.2,0.7,0l0,0c0.2,0.2,0.2,0.5,0,0.7l0,0c-0.1,0.1-0.2,0.1-0.3,0.1l0,0
							C54.6,64.3,54.5,64.2,54.4,64.1z"/>
						<path class="st2" d="M56.7,62.2c-0.1,0-0.3-0.1-0.4-0.2c-0.1-0.1-0.1-0.2-0.1-0.3s0-0.3,0.1-0.4c0,0,0.1-0.1,0.2-0.1
							c0.1,0,0.3,0,0.4,0c0.1,0,0.1,0.1,0.2,0.1c0.1,0.1,0.1,0.2,0.1,0.4S57.1,62,57,62.1C57,62.2,56.8,62.2,56.7,62.2z"/>
					</g>
				</g>
			</g>
			<g style="clip-path:url(#SVGID_00000119808686342079176610000004671380803038360505_);">
				<g>
					<g>
						<path class="st2" d="M113.4,85.8c-0.1,0-0.3-0.1-0.4-0.2c-0.1-0.1-0.1-0.2-0.1-0.3c0-0.1,0-0.1,0-0.2c0-0.1,0.1-0.1,0.1-0.2
							c0.1-0.1,0.4-0.2,0.5-0.1c0.1,0,0.1,0.1,0.2,0.1c0,0.1,0.1,0.1,0.1,0.2c0,0.1,0,0.1,0,0.2c0,0.1,0,0.3-0.1,0.3
							c0,0.1-0.1,0.1-0.2,0.1C113.5,85.7,113.5,85.8,113.4,85.8z"/>
						<path class="st2" d="M110.4,85.5L110.4,85.5L110.4,85.5c-0.3-0.1-0.4-0.4-0.3-0.6l0,0c0.1-0.3,0.4-0.4,0.6-0.3l0,0
							c0.3,0.1,0.4,0.4,0.3,0.6l0,0c-0.1,0.2-0.3,0.3-0.5,0.3l0,0C110.5,85.5,110.5,85.5,110.4,85.5z M107.8,83.9
							c-0.2-0.2-0.2-0.5,0-0.7l0,0c0.2-0.2,0.5-0.2,0.7,0l0,0c0.2,0.2,0.2,0.5,0,0.7l0,0c-0.1,0.1-0.2,0.2-0.4,0.2l0,0
							C108.1,84,107.9,84,107.8,83.9z M106,81.6c-0.1-0.2,0-0.5,0.2-0.7l0,0c0.2-0.1,0.5,0,0.7,0.2l0,0c0.1,0.2,0,0.5-0.2,0.7l0,0
							c-0.1,0-0.2,0.1-0.2,0.1l0,0C106.3,81.8,106.1,81.7,106,81.6z"/>
						<path class="st2" d="M105.3,79.2c-0.1,0-0.3-0.1-0.4-0.2c-0.1-0.1-0.1-0.2-0.1-0.3c0-0.1,0-0.1,0-0.2c0-0.1,0.1-0.1,0.1-0.2
							c0,0,0.1-0.1,0.2-0.1c0.1,0,0.3,0,0.4,0c0.1,0,0.1,0.1,0.2,0.1c0,0.1,0.1,0.1,0.1,0.2c0,0.1,0,0.1,0,0.2c0,0.1,0,0.1,0,0.2
							c0,0.1-0.1,0.1-0.1,0.2C105.6,79.2,105.5,79.2,105.3,79.2z"/>
						<path class="st2" d="M101.7,79.3c0-0.3,0.2-0.5,0.5-0.5v0c0.3,0,0.5,0.2,0.5,0.5l0,0c0,0.3-0.2,0.5-0.5,0.5l0,0c0,0,0,0,0,0
							l0,0C101.9,79.8,101.7,79.6,101.7,79.3z M99,79.6L99,79.6L99,79.6c-0.3-0.1-0.4-0.3-0.4-0.6l0,0c0.1-0.3,0.3-0.5,0.6-0.4l0,0
							c0.3,0,0.5,0.3,0.4,0.6l0,0c-0.1,0.2-0.3,0.4-0.5,0.4l0,0C99,79.6,99,79.6,99,79.6z M95.8,78.4c-0.2-0.1-0.3-0.5-0.2-0.7l0,0
							c0.1-0.2,0.5-0.3,0.7-0.2l0,0c0.2,0.1,0.3,0.5,0.2,0.7l0,0c-0.1,0.2-0.3,0.2-0.4,0.2l0,0C96,78.5,95.9,78.5,95.8,78.4z
							 M93.3,76.3L93.3,76.3L93.3,76.3c-0.2-0.2-0.2-0.5,0.1-0.7l0,0c0.2-0.2,0.5-0.1,0.7,0.1l0,0c0.2,0.2,0.1,0.5-0.1,0.7l0,0
							c-0.1,0.1-0.2,0.1-0.3,0.1l0,0C93.6,76.5,93.4,76.4,93.3,76.3z M91.6,73.5c-0.1-0.3,0-0.6,0.3-0.7l0,0c0.2-0.1,0.5,0,0.7,0.3
							l0,0c0.1,0.2,0,0.5-0.3,0.7l0,0c-0.1,0-0.1,0-0.2,0l0,0C91.9,73.8,91.7,73.6,91.6,73.5z"/>
						<path class="st2" d="M91.1,70.7c-0.1,0-0.1,0-0.2,0c-0.1,0-0.1-0.1-0.2-0.1c-0.1-0.1-0.1-0.2-0.1-0.3c0-0.1,0.1-0.3,0.1-0.4
							c0.1,0,0.1-0.1,0.2-0.1c0.1,0,0.3,0,0.4,0c0.1,0,0.1,0.1,0.2,0.1c0.1,0.1,0.1,0.2,0.1,0.4c0,0.1,0,0.3-0.1,0.3
							C91.4,70.7,91.3,70.7,91.1,70.7z"/>
						<path class="st2" d="M85.2,72.3c0-0.3,0.2-0.5,0.5-0.5l0,0c0.3,0,0.5,0.2,0.5,0.4l0,0c0,0.3-0.2,0.5-0.4,0.5l0,0
							c0,0,0,0-0.1,0l0,0C85.4,72.8,85.2,72.6,85.2,72.3z M82.6,72.6c-0.3,0-0.4-0.3-0.4-0.6l0,0c0-0.3,0.3-0.4,0.6-0.4l0,0
							c0.3,0.1,0.4,0.3,0.4,0.6l0,0c-0.1,0.2-0.3,0.4-0.5,0.4l0,0C82.7,72.6,82.7,72.6,82.6,72.6z M88.1,71.7
							c-0.1-0.3,0-0.5,0.3-0.6l0,0c0.3-0.1,0.5,0,0.6,0.3l0,0c0.1,0.2,0,0.5-0.3,0.6l0,0c-0.1,0-0.1,0-0.2,0l0,0
							C88.3,72.1,88.1,71.9,88.1,71.7z M79.7,71.5c-0.2-0.1-0.3-0.5-0.2-0.7l0,0c0.1-0.2,0.4-0.3,0.7-0.2l0,0
							c0.2,0.1,0.3,0.4,0.2,0.7l0,0c-0.1,0.2-0.3,0.3-0.4,0.3l0,0C79.9,71.6,79.8,71.6,79.7,71.5z M77.3,69.7
							c-0.2-0.2-0.2-0.5,0-0.7l0,0c0.2-0.2,0.5-0.2,0.7,0l0,0c0.2,0.2,0.2,0.5,0,0.7l0,0c-0.1,0.1-0.2,0.1-0.4,0.1l0,0
							C77.5,69.8,77.4,69.8,77.3,69.7z M75.3,67.4c-0.2-0.2-0.1-0.5,0.1-0.7l0,0c0.2-0.2,0.5-0.1,0.7,0.1l0,0
							c0.2,0.2,0.1,0.5-0.1,0.7l0,0c-0.1,0.1-0.2,0.1-0.3,0.1l0,0C75.5,67.6,75.4,67.5,75.3,67.4z"/>
						<path class="st2" d="M74.1,65c-0.1,0-0.1,0-0.2,0c-0.1,0-0.1-0.1-0.2-0.1c0,0-0.1-0.1-0.1-0.2c0-0.1,0-0.1,0-0.2
							c0-0.1,0-0.3,0.1-0.4c0,0,0.1-0.1,0.2-0.1c0.1-0.1,0.3-0.1,0.4,0c0.1,0,0.1,0.1,0.2,0.1c0.1,0.1,0.1,0.2,0.1,0.4
							s0,0.3-0.1,0.3c0,0-0.1,0.1-0.2,0.1C74.3,65,74.2,65,74.1,65z"/>
						<path class="st2" d="M66.2,67.6L66.2,67.6L66.2,67.6c-0.3,0-0.5-0.2-0.5-0.5l0,0c0-0.3,0.2-0.5,0.5-0.5l0,0
							c0.3,0,0.5,0.2,0.5,0.5l0,0C66.7,67.4,66.5,67.6,66.2,67.6L66.2,67.6C66.2,67.6,66.2,67.6,66.2,67.6z M68.6,67
							c-0.1-0.3,0.1-0.5,0.4-0.6l0,0c0.3,0,0.5,0.1,0.6,0.4l0,0c0.1,0.3-0.1,0.5-0.4,0.6l0,0l0,0l0,0c0,0-0.1,0-0.1,0l0,0
							C68.8,67.4,68.6,67.2,68.6,67z M63.3,67.1C63,67,62.9,66.7,63,66.5l0,0c0.1-0.3,0.4-0.4,0.6-0.3l0,0c0.3,0.1,0.4,0.4,0.3,0.6
							l0,0c-0.1,0.2-0.3,0.4-0.5,0.4l0,0C63.4,67.1,63.4,67.1,63.3,67.1z M71.3,66.2c-0.1-0.3,0-0.6,0.2-0.7l0,0
							c0.3-0.1,0.5,0,0.7,0.2l0,0c0.1,0.2,0,0.6-0.2,0.7l0,0c-0.1,0-0.1,0-0.2,0l0,0C71.5,66.5,71.3,66.4,71.3,66.2z M60.6,65.9
							L60.6,65.9L60.6,65.9c-0.2-0.1-0.3-0.5-0.2-0.7l0,0c0.1-0.2,0.5-0.3,0.7-0.2v0c0.2,0.2,0.3,0.5,0.2,0.7l0,0
							c-0.1,0.2-0.3,0.2-0.4,0.2l0,0C60.8,66,60.7,65.9,60.6,65.9z M58.3,64.1c-0.2-0.2-0.2-0.5,0-0.7l0,0c0.2-0.2,0.5-0.2,0.7,0
							l0,0c0.2,0.2,0.2,0.5,0,0.7l0,0c-0.1,0.1-0.2,0.2-0.4,0.2l0,0C58.5,64.3,58.4,64.2,58.3,64.1z"/>
						<path class="st2" d="M56.7,62.2c-0.1,0-0.3-0.1-0.4-0.2c-0.1-0.1-0.1-0.2-0.1-0.3s0-0.3,0.1-0.4c0,0,0.1-0.1,0.2-0.1
							c0.1,0,0.3,0,0.4,0c0.1,0,0.1,0.1,0.2,0.1c0.1,0.1,0.1,0.2,0.1,0.4S57.1,62,57,62.1C57,62.2,56.8,62.2,56.7,62.2z"/>
					</g>
				</g>
			</g>
			<g style="clip-path:url(#SVGID_00000119808686342079176610000004671380803038360505_);">
				<path class="st2" d="M19,55c0,0,2.2,1.7,2.9,0c0,0,1-1.7,0-4.1c0,0-0.9-2.6-2.1-1.3c0,0,0.5-1.8,2.1-0.2
					c1.3,1.2,1.9,3.1,1.6,4.8c-0.2,0.8-0.5,1.6-1.2,2.2C22.2,56.4,20.2,58,19,55z"/>
				<path class="st2" d="M19.3,58.5c0,0,2.5,8.7-2.2,8.8c-0.8,0-1.9-0.5-0.8-2.9c0,0-0.2,1.8,0.9,1.6C17.2,66,19.2,66.1,19.3,58.5z"
					/>
				<path class="st2" d="M21.4,57.6c0,0,1.4,0.7,2.4-0.2c0,0,1-1.1,2-1.1c0,0,1.9-0.1,1.9,1.6c0,0,0.1,1.7-2.5,1.7
					C25.2,59.6,22.4,59.8,21.4,57.6z"/>
				<path class="st2" d="M21.6,59.8c0,0,4.5,1.4,4.5,3.7c0,0,0.1,1.7-1.6,1.7c0,0-1.4,0-1.6-1.7C23,63.6,23,61.4,21.6,59.8z"/>
				<path class="st2" d="M20.5,60.3c0,0,2.1,3.7,1.9,5.5c0,0,0,1.6-0.9,1.5c0,0-0.8,0-0.7-1.6C20.8,65.7,21.1,62.7,20.5,60.3z"/>
				<path class="st2" d="M32.4,54.6c0,0,2.9,2.9,0,5.5c0,0-2,2.4-6.9,0.5c0,0,2.8,2.8,6.2,1.6c1-0.4,1.9-1.2,2.5-2.1
					C35.1,58.5,35.5,56.3,32.4,54.6z"/>
				<path class="st2" d="M37.6,60.9c0,0-1,2-2.8,2.2c0,0-2.6,0.1-4.9-0.3c0,0,2.1,2.1,5.3,1.3C35.3,64,37.6,63.6,37.6,60.9z"/>
				<path class="st2" d="M28,62.9c0,0,5.8,1.8,5.3,4.4c0,0-0.2,1.2-1.2,1c0,0-1,0-1.4-1.4C30.7,67,29.2,63.4,28,62.9z"/>
				<path class="st2" d="M26.7,63.1c0,0,2.6,2.7,2.3,4.7c0,0-0.1,1.4-1,1.3c0,0-0.6,0-0.6-1.5C27.4,67.6,27.3,64,26.7,63.1z"/>
			</g>
			<g style="clip-path:url(#SVGID_00000119808686342079176610000004671380803038360505_);">
				<path class="st2" d="M94.5,55c0,0-2.2,1.7-2.9,0c0,0-1-1.7,0-4.1c0,0,0.9-2.6,2.1-1.3c0,0-0.5-1.8-2.1-0.2
					c-1.3,1.2-1.9,3.1-1.6,4.8c0.2,0.8,0.5,1.6,1.2,2.2C91.2,56.4,93.2,58,94.5,55z"/>
				<path class="st2" d="M94.2,58.5c0,0-2.5,8.7,2.2,8.8c0.8,0,1.9-0.5,0.8-2.9c0,0,0.2,1.8-0.9,1.6C96.3,66,94.2,66.1,94.2,58.5z"
					/>
				<path class="st2" d="M92.1,57.6c0,0-1.4,0.7-2.4-0.2c0,0-1-1.1-2-1.1c0,0-1.9-0.1-1.9,1.6c0,0-0.1,1.7,2.5,1.7
					C88.3,59.6,91.1,59.8,92.1,57.6z"/>
				<path class="st2" d="M91.9,59.8c0,0-4.5,1.4-4.5,3.7c0,0-0.1,1.7,1.6,1.7c0,0,1.4,0,1.6-1.7C90.5,63.6,90.5,61.4,91.9,59.8z"/>
				<path class="st2" d="M92.9,60.3c0,0-2.1,3.7-1.9,5.5c0,0,0,1.6,0.9,1.5c0,0,0.8,0,0.7-1.6C92.6,65.7,92.4,62.7,92.9,60.3z"/>
				<path class="st2" d="M81.1,54.6c0,0-2.9,2.9,0,5.5c0,0,2,2.4,6.9,0.5c0,0-2.8,2.8-6.2,1.6c-1-0.4-1.9-1.2-2.5-2.1
					C78.4,58.5,78,56.3,81.1,54.6z"/>
				<path class="st2" d="M75.8,60.9c0,0,1,2,2.8,2.2c0,0,2.6,0.1,4.9-0.3c0,0-2.1,2.1-5.3,1.3C78.2,64,75.9,63.6,75.8,60.9z"/>
				<path class="st2" d="M85.4,62.9c0,0-5.8,1.8-5.3,4.4c0,0,0.2,1.2,1.2,1c0,0,1,0,1.4-1.4C82.8,67,84.3,63.4,85.4,62.9z"/>
				<path class="st2" d="M86.8,63.1c0,0-2.6,2.7-2.3,4.7c0,0,0.1,1.4,1,1.3c0,0,0.6,0,0.6-1.5C86.1,67.6,86.2,64,86.8,63.1z"/>
			</g>
			<g style="clip-path:url(#SVGID_00000119808686342079176610000004671380803038360505_);">
				<path class="st2" d="M26.5,17.8c0,0-5.8,6.2-4.5,9.9c0,0,0.6,0.8,1.5-0.2c0,0-0.1,1.6-1.7,1.3c0,0-1.4-0.6-0.9-3.5
					c0.1-0.9,0.4-1.7,0.8-2.4C22.5,21.5,24,19.2,26.5,17.8z"/>
				<path class="st2" d="M21.6,29.2c0,0,0.6,3.2,1.4,3.9c0,0,1.3,1.4,0.9,2.8c0,0-0.7,1.6-1.8,0.4C22.1,36.2,20,34.9,21.6,29.2z"/>
				<path class="st2" d="M20.6,29.2c0,0-0.6,2.6-1.6,3.7c0,0-1.2,1.1-0.3,1.7c0,0,1.3,0.4,1.8-1.5C20.5,33.2,20.9,31.8,20.6,29.2z"
					/>
				<path class="st2" d="M20.7,33.8c0,0,0,2.9,0.7,4.1c0,0,1.7,3.2,0.3,4.4c-0.4,0.3-1,0.4-1.3,0.1c-0.4-0.3-0.8-0.9-0.8-2
					C19.5,40.4,18.8,36.9,20.7,33.8z"/>
				<path class="st2" d="M32.1,14.7c0,0-2.3,2.8-2.6,4.4c-0.3,1.7-1.7,2.3-2.4,1.9c-0.8-0.4-1.1-1.8,0.7-3.5
					C29.4,15.7,31.2,14.9,32.1,14.7z"/>
				<path class="st2" d="M29.4,13.7c0,0-1.9,1.9-2.3,2.7c0,0-1.8,2.4-3.4,1.6c-0.4-0.2-0.5-0.8-0.2-1.1C24,16.3,25.5,15.3,29.4,13.7
					z"/>
			</g>
			<g style="clip-path:url(#SVGID_00000119808686342079176610000004671380803038360505_);">
				<path class="st2" d="M86.9,17.8c0,0,5.8,6.2,4.5,9.9c0,0-0.6,0.8-1.5-0.2c0,0,0.1,1.6,1.7,1.3c0,0,1.4-0.6,0.9-3.5
					c-0.1-0.9-0.4-1.7-0.8-2.4C90.9,21.5,89.4,19.2,86.9,17.8z"/>
				<path class="st2" d="M91.8,29.2c0,0-0.6,3.2-1.4,3.9c0,0-1.3,1.4-0.9,2.8c0,0,0.7,1.6,1.8,0.4C91.3,36.2,93.4,34.9,91.8,29.2z"
					/>
				<path class="st2" d="M92.8,29.2c0,0,0.6,2.6,1.6,3.7c0,0,1.2,1.1,0.3,1.7c0,0-1.3,0.4-1.8-1.5C92.9,33.2,92.5,31.8,92.8,29.2z"
					/>
				<path class="st2" d="M92.7,33.8c0,0,0,2.9-0.7,4.1c0,0-1.7,3.2-0.3,4.4c0.4,0.3,1,0.4,1.3,0.1c0.4-0.3,0.8-0.9,0.8-2
					C93.9,40.4,94.6,36.9,92.7,33.8z"/>
				<path class="st2" d="M81.3,14.7c0,0,2.3,2.8,2.6,4.4c0.3,1.7,1.7,2.3,2.4,1.9c0.8-0.4,1.1-1.8-0.7-3.5
					C84,15.7,82.2,14.9,81.3,14.7z"/>
				<path class="st2" d="M84,13.7c0,0,1.9,1.9,2.3,2.7c0,0,1.8,2.4,3.4,1.6c0.4-0.2,0.5-0.8,0.2-1.1C89.4,16.3,87.9,15.3,84,13.7z"
					/>
			</g>
			<g style="clip-path:url(#SVGID_00000119808686342079176610000004671380803038360505_);">
				<path class="st2" d="M60.2,4.1c0,0.5-1.6,0.9-3.6,0.9c-2,0-3.6-0.4-3.6-0.9c0-0.5,1.6-0.9,3.6-0.9C58.6,3.2,60.2,3.6,60.2,4.1z"
					/>
				<path class="st2" d="M56.7,2.4c0,0-3.3-2.6-3.1-4c0,0-0.1-1.3,2.9-1.3c0,0,3.1-0.1,3.3,1.1C59.7-1.7,60.6-0.6,56.7,2.4z"/>
				<path class="st2" d="M60,2.4c0,0,1.9-5.6,7.8-3.1C67.8-0.7,73.8,2,60,2.4z"/>
				<path class="st2" d="M63,3.6c0,0,10-2.8,11.8,1c0.2,0.5,0,1.1-0.5,1.2C73.1,6.1,70.2,6,63,3.6z"/>
				<path class="st2" d="M53.4,2.4c0,0-1.9-5.6-7.8-3.1C45.6-0.7,39.6,2,53.4,2.4z"/>
				<path class="st2" d="M50.4,3.6c0,0-10-2.8-11.8,1c-0.2,0.5,0,1.1,0.5,1.2C40.3,6.1,43.1,6,50.4,3.6z"/>
				<path class="st2" d="M57.8,6.4c0,0.3-0.5,0.5-1.1,0.5s-1.1-0.2-1.1-0.5c0-0.3,0.5-0.5,1.1-0.5S57.8,6.1,57.8,6.4z"/>
				<path class="st2" d="M61.1,6.1c0,0.3-0.5,0.5-1.1,0.5c-0.6,0-1.1-0.2-1.1-0.5c0-0.3,0.5-0.5,1.1-0.5C60.6,5.6,61.1,5.8,61.1,6.1
					z"/>
				<path class="st2" d="M54.5,6.1c0,0.3-0.5,0.5-1.1,0.5c-0.6,0-1.1-0.2-1.1-0.5c0-0.3,0.5-0.5,1.1-0.5C54,5.6,54.5,5.8,54.5,6.1z"
					/>
				<path class="st2" d="M63.6,4.8c0,0.3-0.5,0.5-1.1,0.5c-0.6,0-1.1-0.2-1.1-0.5c0-0.3,0.5-0.5,1.1-0.5C63.1,4.4,63.6,4.6,63.6,4.8
					z"/>
				<path class="st2" d="M52,4.8c0,0.3-0.5,0.5-1.1,0.5s-1.1-0.2-1.1-0.5c0-0.3,0.5-0.5,1.1-0.5S52,4.6,52,4.8z"/>
			</g>
		</g>
	</g>
	<g>
		<path class="st2" d="M53.1,9.3c0-1.7,1.6-3.1,3.6-3.1c2,0,3.6,1.4,3.6,3.1s-1.6,3.1-3.6,3.1C54.7,12.3,53.1,11,53.1,9.3z"/>
		<ellipse class="st2" cx="56.7" cy="58.9" rx="3.6" ry="3.1"/>
		<path class="st2" d="M46.4,11c-0.5-1.6,0.7-3.4,2.6-3.9c1.9-0.5,3.8,0.5,4.3,2.1c0.5,1.6-0.7,3.4-2.6,3.9
			C48.8,13.6,46.9,12.6,46.4,11z"/>
		<path class="st2" d="M60.1,59c-0.5-1.6,0.7-3.4,2.6-3.9c1.9-0.5,3.8,0.5,4.3,2.1c0.5,1.6-0.7,3.4-2.6,3.9
			C62.5,61.5,60.5,60.6,60.1,59z"/>
		<path class="st2" d="M40.4,14.3c-0.9-1.5-0.3-3.4,1.5-4.4c1.7-0.9,3.8-0.5,4.7,1c0.9,1.5,0.3,3.4-1.5,4.4
			C43.4,16.2,41.3,15.8,40.4,14.3z"/>
		<path class="st2" d="M66.8,57.3c-0.9-1.5-0.3-3.4,1.5-4.4c1.7-0.9,3.8-0.5,4.7,1c0.9,1.5,0.3,3.4-1.5,4.4
			C69.8,59.2,67.7,58.8,66.8,57.3z"/>
		<path class="st2" d="M35.5,18.9c-1.3-1.2-1.2-3.2,0.2-4.6c1.4-1.3,3.6-1.4,4.9-0.2c1.3,1.2,1.2,3.2-0.2,4.6
			C38.9,20,36.7,20.1,35.5,18.9z"/>
		<path class="st2" d="M72.8,54c-1.3-1.2-1.2-3.2,0.2-4.6s3.6-1.4,4.9-0.2c1.3,1.2,1.2,3.2-0.2,4.6C76.3,55.1,74.1,55.2,72.8,54z"/>
		<path class="st2" d="M32,24.6c-1.6-0.9-2-2.8-1-4.5c1-1.6,3.1-2.2,4.6-1.4c1.6,0.9,2,2.8,1,4.5C35.7,24.8,33.6,25.4,32,24.6z"/>
		<path class="st2" d="M77.8,49.4c-1.6-0.9-2-2.8-1-4.5c1-1.6,3.1-2.2,4.6-1.4c1.6,0.9,2,2.8,1.1,4.5C81.4,49.7,79.4,50.3,77.8,49.4
			z"/>
		<path class="st2" d="M30.2,30.9c-1.8-0.4-2.8-2.3-2.2-4.1c0.5-1.8,2.3-2.9,4.1-2.5c1.8,0.4,2.8,2.3,2.2,4.1
			C33.8,30.3,32,31.4,30.2,30.9z"/>
		<path class="st2" d="M81.3,43.8c-1.8-0.4-2.8-2.3-2.2-4.1c0.5-1.8,2.3-2.9,4.1-2.5c1.8,0.4,2.8,2.3,2.2,4.1
			C84.9,43.1,83,44.2,81.3,43.8z"/>
		<ellipse class="st2" cx="30.3" cy="34.1" rx="3.3" ry="3.4"/>
		<ellipse class="st2" cx="83.1" cy="34.1" rx="3.3" ry="3.4"/>
		<path class="st2" d="M32.1,43.8c-1.8,0.4-3.6-0.7-4.1-2.5c-0.5-1.8,0.5-3.6,2.2-4.1c1.8-0.4,3.6,0.7,4.1,2.5
			C34.8,41.5,33.8,43.3,32.1,43.8z"/>
		<path class="st2" d="M83.2,30.9c-1.8,0.4-3.6-0.7-4.1-2.5c-0.5-1.8,0.5-3.6,2.2-4.1c1.8-0.4,3.6,0.7,4.1,2.5
			C85.9,28.7,84.9,30.5,83.2,30.9z"/>
		<path class="st2" d="M35.6,49.4c-1.6,0.9-3.6,0.2-4.6-1.4s-0.5-3.6,1-4.5c1.6-0.9,3.6-0.2,4.6,1.4C37.6,46.6,37.2,48.6,35.6,49.4z
			"/>
		<path class="st2" d="M81.4,24.6c-1.6,0.9-3.6,0.2-4.6-1.4c-1-1.6-0.5-3.6,1-4.5c1.6-0.9,3.6-0.2,4.6,1.4
			C83.4,21.7,82.9,23.7,81.4,24.6z"/>
		<path class="st2" d="M40.5,54c-1.3,1.2-3.5,1.1-4.9-0.2c-1.4-1.3-1.5-3.4-0.2-4.6s3.5-1.1,4.9,0.2S41.8,52.8,40.5,54z"/>
		<path class="st2" d="M77.9,18.9c-1.3,1.2-3.5,1.1-4.9-0.2c-1.4-1.3-1.5-3.4-0.2-4.6s3.5-1.1,4.9,0.2
			C79.1,15.7,79.2,17.7,77.9,18.9z"/>
		<path class="st2" d="M46.6,57.3c-0.9,1.5-3,1.9-4.7,1c-1.7-0.9-2.4-2.9-1.5-4.4c0.9-1.5,3-1.9,4.7-1
			C46.8,53.9,47.5,55.8,46.6,57.3z"/>
		<path class="st2" d="M73,14.3c-0.9,1.5-3,1.9-4.7,1c-1.7-0.9-2.4-2.9-1.5-4.4c0.9-1.5,3-1.9,4.7-1C73.3,10.9,73.9,12.8,73,14.3z"
			/>
		<path class="st2" d="M53.3,59c-0.5,1.6-2.4,2.6-4.3,2.1c-1.9-0.5-3.1-2.2-2.6-3.9c0.5-1.6,2.4-2.6,4.3-2.1
			C52.6,55.6,53.8,57.3,53.3,59z"/>
		<path class="st2" d="M67,11c-0.5,1.6-2.4,2.6-4.3,2.1c-1.9-0.5-3.1-2.2-2.6-3.9c0.5-1.6,2.4-2.6,4.3-2.1C66.3,7.6,67.5,9.3,67,11z
			"/>
	</g>
	<g>
		<ellipse class="st5" cx="56.7" cy="11.1" rx="3.3" ry="2.9"/>
		<ellipse class="st5" cx="56.7" cy="57.1" rx="3.3" ry="2.9"/>
		<path class="st5" d="M47.1,12.6c-0.4-1.5,0.7-3.1,2.4-3.6c1.8-0.4,3.6,0.4,4,2c0.4,1.5-0.7,3.1-2.4,3.6
			C49.4,15,47.6,14.2,47.1,12.6z"/>
		<path class="st5" d="M59.8,57.2c-0.4-1.5,0.7-3.1,2.4-3.6c1.8-0.4,3.6,0.4,4,2c0.4,1.5-0.7,3.1-2.4,3.6
			C62.1,59.6,60.3,58.7,59.8,57.2z"/>
		<path class="st5" d="M41.5,15.7c-0.8-1.4-0.2-3.2,1.4-4c1.6-0.9,3.6-0.5,4.4,0.9c0.8,1.4,0.2,3.2-1.4,4
			C44.4,17.5,42.4,17.1,41.5,15.7z"/>
		<path class="st5" d="M66.1,55.6c-0.8-1.4-0.2-3.2,1.4-4c1.6-0.9,3.6-0.5,4.4,0.9c0.8,1.4,0.2,3.2-1.4,4
			C68.9,57.4,66.9,57,66.1,55.6z"/>
		<path class="st5" d="M37,20c-1.2-1.1-1.1-3,0.2-4.2c1.3-1.2,3.3-1.3,4.5-0.2c1.2,1.1,1.1,3-0.2,4.2C40.2,21,38.2,21.1,37,20z"/>
		<path class="st5" d="M71.7,52.6c-1.2-1.1-1.1-3,0.2-4.2s3.3-1.3,4.5-0.2c1.2,1.1,1.1,3-0.2,4.2C74.9,53.6,72.9,53.7,71.7,52.6z"/>
		<path class="st5" d="M33.8,25.3c-1.5-0.8-1.9-2.6-1-4.1c0.9-1.5,2.8-2.1,4.3-1.3c1.5,0.8,1.9,2.6,1,4.1
			C37.2,25.5,35.2,26.1,33.8,25.3z"/>
		<path class="st5" d="M76.3,48.3c-1.5-0.8-1.9-2.6-1-4.1c0.9-1.5,2.8-2.1,4.3-1.3c1.5,0.8,1.9,2.6,1,4.1
			C79.7,48.5,77.7,49.1,76.3,48.3z"/>
		<path class="st5" d="M32.1,31.2c-1.6-0.4-2.6-2.1-2.1-3.8c0.5-1.7,2.2-2.7,3.8-2.3s2.6,2.1,2.1,3.8C35.5,30.5,33.8,31.6,32.1,31.2
			z"/>
		<path class="st5" d="M79.5,43.1c-1.6-0.4-2.6-2.1-2.1-3.8c0.5-1.7,2.2-2.7,3.8-2.3s2.6,2.1,2.1,3.8C82.9,42.5,81.1,43.5,79.5,43.1
			z"/>
		<ellipse class="st5" cx="32.2" cy="34.1" rx="3" ry="3.1"/>
		<ellipse class="st5" cx="81.2" cy="34.1" rx="3" ry="3.1"/>
		<path class="st5" d="M33.9,43.1c-1.6,0.4-3.3-0.6-3.8-2.3c-0.5-1.7,0.5-3.4,2.1-3.8c1.6-0.4,3.3,0.6,3.8,2.3
			C36.4,41,35.5,42.7,33.9,43.1z"/>
		<path class="st5" d="M81.2,31.2c-1.6,0.4-3.3-0.6-3.8-2.3c-0.5-1.7,0.5-3.4,2.1-3.8s3.3,0.6,3.8,2.3
			C83.8,29.1,82.9,30.7,81.2,31.2z"/>
		<path class="st5" d="M37.1,48.3c-1.5,0.8-3.4,0.2-4.3-1.3c-0.9-1.5-0.5-3.3,1-4.1c1.5-0.8,3.4-0.2,4.3,1.3
			C39,45.7,38.6,47.5,37.1,48.3z"/>
		<path class="st5" d="M79.6,25.3c-1.5,0.8-3.4,0.2-4.3-1.3c-0.9-1.5-0.5-3.3,1-4.1c1.5-0.8,3.4-0.2,4.3,1.3
			C81.5,22.6,81.1,24.5,79.6,25.3z"/>
		<path class="st5" d="M41.7,52.6c-1.2,1.1-3.2,1-4.5-0.2c-1.3-1.2-1.4-3.1-0.2-4.2c1.2-1.1,3.2-1,4.5,0.2
			C42.8,49.6,42.9,51.5,41.7,52.6z"/>
		<path class="st5" d="M76.4,20c-1.2,1.1-3.2,1-4.5-0.2c-1.3-1.2-1.4-3.1-0.2-4.2c1.2-1.1,3.2-1,4.5,0.2C77.5,17,77.6,18.9,76.4,20z
			"/>
		<path class="st5" d="M47.3,55.6c-0.8,1.4-2.8,1.8-4.4,0.9c-1.6-0.9-2.2-2.7-1.4-4c0.8-1.4,2.8-1.8,4.4-0.9
			C47.5,52.4,48.2,54.2,47.3,55.6z"/>
		<path class="st5" d="M71.8,15.7c-0.8,1.4-2.8,1.8-4.4,0.9c-1.6-0.9-2.2-2.7-1.4-4c0.8-1.4,2.8-1.8,4.4-0.9
			C72.1,12.5,72.7,14.3,71.8,15.7z"/>
		<path class="st5" d="M53.6,57.2c-0.4,1.5-2.2,2.4-4,2c-1.8-0.4-2.9-2-2.4-3.6c0.4-1.5,2.2-2.4,4-2C52.9,54,54,55.6,53.6,57.2z"/>
		<path class="st5" d="M66.3,12.6c-0.4,1.5-2.2,2.4-4,2c-1.8-0.4-2.9-2-2.4-3.6c0.4-1.5,2.2-2.4,4-2C65.6,9.5,66.7,11.1,66.3,12.6z"
			/>
	</g>
	<g>
		<defs>
			<ellipse id="SVGID_00000045577183437338355030000006073658236411842740_" cx="56.7" cy="34.1" rx="25.5" ry="23.3"/>
		</defs>
		<clipPath id="SVGID_00000067201810612277204120000007846757892705787560_">
			<use xlink:href="#SVGID_00000045577183437338355030000006073658236411842740_"  style="overflow:visible;"/>
		</clipPath>
		
			<ellipse style="clip-path:url(#SVGID_00000067201810612277204120000007846757892705787560_);fill:#FCE8D5;" cx="56.7" cy="34.1" rx="25.5" ry="23.3"/>
		<g style="clip-path:url(#SVGID_00000067201810612277204120000007846757892705787560_);">
			<path class="st2" d="M62.5,35.4c0,0,1.3,1.3,3.6,1.7c1,0.2,2.1,0,3.1-0.3c0.8-0.3,1.9-0.9,2.9-1.8c0,0-1.1-2.8-4.5-3.2
				C67.5,31.7,64.2,31.6,62.5,35.4z"/>
			<path class="st14" d="M70.2,34.4c0,1.5-1.2,2.7-2.7,2.7s-2.7-1.2-2.7-2.7c0-1.5,1.2-2.7,2.7-2.7S70.2,32.9,70.2,34.4z"/>
			<path class="st15" d="M69.8,34.4c0,1.3-1,2.3-2.3,2.3s-2.3-1-2.3-2.3c0-1.3,1-2.3,2.3-2.3S69.8,33.1,69.8,34.4z"/>
			<path class="st5" d="M69.4,34.4c0,1.1-0.9,1.9-1.9,1.9s-1.9-0.9-1.9-1.9c0-1.1,0.9-1.9,1.9-1.9S69.4,33.3,69.4,34.4z"/>
			<circle class="st16" cx="67.5" cy="34.4" r="1.1"/>
			<path class="st2" d="M68.7,33.7c0,0.2-0.2,0.4-0.4,0.4c-0.2,0-0.4-0.2-0.4-0.4s0.2-0.4,0.4-0.4C68.5,33.2,68.7,33.4,68.7,33.7z"
				/>
			<path class="st16" d="M64.5,36.6c0,0,1.1,0.9,3.1,0.7c0,0,1.5-0.1,2.9-1.2C70.4,36.1,67.6,37.7,64.5,36.6z"/>
			<path class="st16" d="M74.3,34.4c-0.8,0.5-1.4,0.4-1.4,0.4c0,0,0,0,0,0c0.5-0.2,0.8-0.5,0.8-0.5c-0.5,0.2-1,0.2-1.3,0.2
				c0.5-0.2,0.9-0.8,0.9-0.8c-0.5,0.3-0.9,0.4-1.2,0.4c0.5-0.2,1-0.8,1-0.8c-0.4,0.3-1,0.4-1.4,0.4l0.9-0.6
				c-0.5,0.3-0.9,0.3-1.2,0.3c0.4-0.2,0.8-0.7,0.8-0.7c-0.4,0.3-0.8,0.4-1.1,0.4c0.6-0.3,0.9-0.9,0.9-0.9c-0.4,0.4-0.9,0.5-1.3,0.5
				c0.5-0.3,0.8-0.8,0.8-0.8c-0.3,0.2-0.7,0.4-1.1,0.4c0.2-0.3,0.3-0.7,0.3-0.7c-0.2,0.2-0.5,0.3-0.8,0.4c0.3-0.3,0.4-0.8,0.4-0.8
				c-0.2,0.3-0.7,0.5-1.1,0.7c0,0,0,0,0,0c0.2-0.3,0.2-0.7,0.2-0.7c-0.2,0.2-0.5,0.4-0.7,0.6c-0.4-0.1-0.6-0.1-0.6-0.1
				c-4.4-0.2-5.6,4.5-5.6,4.5c2.7-4.2,5.6-3.9,5.6-3.9c1.7,0,4.3,2.9,4.3,2.9c0.8,0.4,1.6,0,1.6,0c0,0,0,0,0,0
				C74.2,34.8,74.3,34.4,74.3,34.4z"/>
			<path class="st2" d="M50.9,35.4c0,0-1.3,1.3-3.6,1.7c-1,0.2-2.1,0-3.1-0.3c-0.8-0.3-1.9-0.9-2.9-1.8c0,0,1.1-2.8,4.5-3.2
				C45.9,31.7,49.2,31.6,50.9,35.4z"/>
			<path class="st14" d="M43.2,34.4c0,1.5,1.2,2.7,2.7,2.7c1.5,0,2.7-1.2,2.7-2.7c0-1.5-1.2-2.7-2.7-2.7
				C44.4,31.6,43.2,32.8,43.2,34.4z"/>
			<path class="st15" d="M43.6,34.4c0,1.3,1,2.3,2.3,2.3c1.3,0,2.3-1,2.3-2.3c0-1.3-1-2.3-2.3-2.3C44.6,32.1,43.6,33.1,43.6,34.4z"
				/>
			<path class="st5" d="M44,34.4c0,1.1,0.9,1.9,1.9,1.9c1.1,0,1.9-0.9,1.9-1.9c0-1.1-0.9-1.9-1.9-1.9C44.8,32.4,44,33.3,44,34.4z"/>
			<path class="st16" d="M46.9,34.4c0,0.6-0.5,1-1.1,1c-0.6,0-1-0.5-1-1.1c0-0.6,0.5-1,1.1-1C46.5,33.3,46.9,33.8,46.9,34.4z"/>
			<circle class="st2" cx="46.6" cy="33.6" r="0.4"/>
			<path class="st16" d="M48.9,36.6c0,0-1.1,0.9-3.1,0.7c0,0-1.5-0.1-2.9-1.2C42.9,36.1,45.8,37.6,48.9,36.6z"/>
			<path class="st16" d="M45.6,31.4c0,0-0.2,0-0.6,0.1c-0.3-0.1-0.6-0.4-0.7-0.6c0,0,0,0.5,0.2,0.7c0,0,0,0,0,0
				c-0.4-0.1-1-0.4-1.1-0.7c0,0,0.1,0.5,0.4,0.8c-0.3-0.1-0.6-0.2-0.8-0.4c0,0,0.1,0.4,0.3,0.7c-0.4-0.1-0.9-0.2-1.1-0.4
				c0,0,0.2,0.6,0.8,0.8c-0.4,0-0.8-0.1-1.3-0.5c0,0,0.4,0.7,0.9,0.9c-0.3,0-0.7-0.2-1.1-0.4c0,0,0.3,0.5,0.8,0.7
				c-0.3,0-0.7,0-1.2-0.3l0.9,0.6c-0.4,0-1-0.1-1.4-0.4c0,0,0.5,0.6,1,0.8c-0.3,0-0.7-0.1-1.2-0.4c0,0,0.5,0.6,0.9,0.8
				c-0.3,0-0.8,0-1.3-0.2c0,0,0.4,0.4,0.8,0.5c0,0,0,0,0,0c-0.1,0-0.6,0.2-1.4-0.4c0,0,0.1,0.4,0.6,0.6c0,0,0,0,0,0
				c0,0,0.8,0.3,1.6,0c0,0,2.6-2.9,4.3-2.9c0,0,2.8-0.3,5.6,3.9C51.2,35.9,50,31.2,45.6,31.4z"/>
			<path class="st4" d="M64.1,27.5c-0.1-0.3,0.1-0.4,0.3-0.6c0.6-0.6,2.4-1.6,5.5,0.2c0,0-2-0.4-3.2-0.2c0,0-1.1,0.1-1.9,0.8
				C64.4,27.9,64.2,27.8,64.1,27.5z"/>
			<path class="st4" d="M49.6,27.5c0.1-0.3-0.1-0.4-0.3-0.6c-0.6-0.6-2.4-1.6-5.5,0.2c0,0,2-0.4,3.2-0.2c0,0,1.1,0.1,1.9,0.8
				C49.2,27.9,49.5,27.8,49.6,27.5z"/>
			<path class="st4" d="M55,42.5c0,0.2-0.2,0.4-0.5,0.4c-0.3,0-0.5-0.2-0.5-0.4c0-0.2,0.2-0.4,0.5-0.4C54.8,42.2,55,42.3,55,42.5z"
				/>
			<ellipse class="st4" cx="58.9" cy="42.5" rx="0.5" ry="0.4"/>
			<circle class="st17" cx="45.1" cy="44.4" r="3.8"/>
			<circle class="st17" cx="68.5" cy="44.4" r="3.8"/>
			<path class="st18" d="M62.4,46.4c-1.2,0.8-2.1,0.7-2.1,0.7c-0.9,0.1-1.9-1-1.9-1c-0.2-0.3-0.3-0.3-0.5-0.3c0,0-0.3,0-0.5,0.2
				c0,0-0.2,0.3-0.6,0.3c-0.4,0-0.6-0.3-0.6-0.3c-0.1-0.3-0.5-0.2-0.5-0.2c-0.1,0-0.3,0-0.5,0.3c0,0-1,1.1-1.9,1c0,0-0.9,0-2.1-0.7
				c0,0,2.8,3.6,5.4,3.6v0c0,0,0.1,0,0.1,0c0,0,0.1,0,0.1,0v0C59.5,50,62.4,46.4,62.4,46.4z"/>
			<path class="st19" d="M62.4,46.4c-1.2,0.8-2.1,0.7-2.1,0.7c-0.9,0.1-1.9-1-1.9-1c-0.2-0.3-0.3-0.3-0.5-0.3c0,0-0.3,0-0.5,0.2
				c0,0-0.2,0.3-0.6,0.3c-0.4,0-0.6-0.3-0.6-0.3c-0.1-0.3-0.5-0.2-0.5-0.2c-0.1,0-0.3,0-0.5,0.3c0,0-1,1.1-1.9,1c0,0-0.9,0-2.1-0.7
				c0,0,2.8,3.6,5.4,3.6v0c0,0,0.1,0,0.1,0c0,0,0.1,0,0.1,0v0C59.5,50,62.4,46.4,62.4,46.4z"/>
			<path class="st19" d="M51.1,46.4c0,0,6,4.3,11.3,0"/>
		</g>
		<path style="clip-path:url(#SVGID_00000067201810612277204120000007846757892705787560_);fill:#F1C40B;" d="M37.2,49.1H27v-19V0
			h63.4v41H81c-7.1-0.5-4.8-6.9-4.8-6.9c1.3-3.1,0.9-5.7,0.9-5.7c-0.6-5.6-9.4-3.3-9.4-3.3c-4,1-11.1-0.4-11.1-0.4
			c-8.6-1.1-11.4-10.8-11.4-10.8c-1,12.8-8.7,13.8-8.7,13.8s-1.9,0.6-1.1,3.2c0,0,0.4,1.3,0.5,3c0.1,1.6-0.2,3.2-0.7,4.7
			C34.7,40.2,34.2,43.7,37.2,49.1"/>
		<path style="clip-path:url(#SVGID_00000067201810612277204120000007846757892705787560_);fill:#F1C40B;" d="M37.2,49.1H27v-19V0
			h63.4v41H81c-7.1-0.5-4.8-6.9-4.8-6.9c1.3-3.1,0.9-5.7,0.9-5.7c-0.6-5.6-9.4-3.3-9.4-3.3c-4,1-11.1-0.4-11.1-0.4
			c-8.6-1.1-11.4-10.8-11.4-10.8c-1,12.8-8.7,13.8-8.7,13.8s-1.9,0.6-1.1,3.2c0,0,0.4,1.3,0.5,3c0.1,1.6-0.2,3.2-0.7,4.7
			C34.7,40.2,34.2,43.7,37.2,49.1"/>
		
			<path style="clip-path:url(#SVGID_00000067201810612277204120000007846757892705787560_);fill:none;stroke:#B2AB8F;stroke-miterlimit:10;" d="
			M37.2,46.1"/>
		
			<path style="clip-path:url(#SVGID_00000067201810612277204120000007846757892705787560_);fill:none;stroke:#C3970B;stroke-width:0.5;stroke-linecap:round;stroke-miterlimit:10;" d="
			M43.4,12.9c-1,12.8-8.7,13.8-8.7,13.8s-1.9,0.6-1.1,3.2c0,0,0.4,1.3,0.5,3c0.1,1.6-0.2,3.2-0.7,4.7c-0.6,1.6-1.1,5,1.8,10.4"/>
		
			<path style="clip-path:url(#SVGID_00000067201810612277204120000007846757892705787560_);fill:none;stroke:#C3970B;stroke-width:0.5;stroke-linecap:round;stroke-miterlimit:10;" d="
			M41.4,10.9c-1,12.8-8.7,13.8-8.7,13.8s-1.9,0.6-1.1,3.2c0,0,0.4,1.3,0.5,3c0.1,1.6-0.2,3.2-0.7,4.7c-0.6,1.6-1.1,5,1.8,10.4"/>
		<path style="clip-path:url(#SVGID_00000067201810612277204120000007846757892705787560_);fill:#C3970B;" d="M37.3,49.4
			c-0.1,0-0.3-0.1-0.3-0.2c-3.1-5.5-2.5-9.1-1.9-10.8c0.6-1.6,0.8-3.1,0.7-4.5c-0.1-1.6-0.5-2.9-0.5-2.9c-0.3-1-0.3-1.9,0.1-2.6
			c0.4-0.8,1.2-1,1.2-1.1c0.4-0.1,7.5-1.1,8.4-13.4l0.2-2l0.6,2c0,0.1,2.9,9.5,11.1,10.5c0.1,0,7.1,1.4,11,0.4
			c0.2-0.1,5.3-1.4,8.1,0.6c1,0.7,1.6,1.7,1.7,3c0,0.1,0.3,2.7-1,5.9c0,0-0.9,2.6,0.3,4.4c0.7,1.1,2.2,1.8,4.2,1.9
			c0.2,0,0.4,0.2,0.3,0.4s-0.2,0.4-0.4,0.3c-2.3-0.2-3.9-0.9-4.8-2.3c-1.4-2.2-0.4-5-0.4-5.1c1.2-3,0.9-5.5,0.9-5.5
			c-0.1-1.1-0.6-1.9-1.4-2.5C73,24.2,68,25.5,68,25.5c-4,1-11-0.4-11.3-0.4c-6.6-0.9-9.9-6.7-11.1-9.6C44.1,27,36.8,28,36.7,28
			c-0.1,0-1.4,0.5-0.8,2.7c0,0.1,0.4,1.4,0.5,3.1c0.1,1.5-0.1,3.2-0.8,4.9c-0.6,1.5-1.1,4.8,1.8,10.1c0.1,0.2,0,0.4-0.1,0.5
			C37.4,49.4,37.3,49.4,37.3,49.4z"/>
		<path style="clip-path:url(#SVGID_00000067201810612277204120000007846757892705787560_);fill:#C3970B;" d="M83.9,39.2
			C83.9,39.2,83.9,39.2,83.9,39.2c-2.3-0.2-3.8-0.9-4.7-2.2c-1.4-2.1-0.4-4.9-0.3-5c1.2-3,0.9-5.6,0.9-5.6c-0.1-1.1-0.6-2-1.5-2.6
			c-2.6-1.8-7.6-0.5-7.6-0.5c-4,1-10.9-0.4-11.2-0.4c-8.6-1.1-11.6-10.9-11.6-11c0-0.1,0-0.3,0.2-0.3c0.1,0,0.3,0,0.3,0.2
			c0,0.1,2.9,9.5,11.2,10.6c0.1,0,7.1,1.4,11,0.4c0.2-0.1,5.3-1.4,8,0.5c1,0.7,1.5,1.7,1.7,2.9c0,0.1,0.3,2.7-1,5.8
			c0,0-0.9,2.6,0.3,4.5c0.8,1.2,2.2,1.9,4.3,2c0.1,0,0.2,0.1,0.2,0.3C84.1,39.1,84,39.2,83.9,39.2z"/>
		<path style="clip-path:url(#SVGID_00000067201810612277204120000007846757892705787560_);fill:#C3970B;" d="M86.9,36.5
			C86.9,36.5,86.9,36.5,86.9,36.5c-2.3-0.2-3.8-0.9-4.7-2.2c-1.4-2.1-0.4-4.9-0.3-5c1.2-3,0.9-5.6,0.9-5.6c-0.1-1.1-0.6-2-1.5-2.6
			c-2.6-1.8-7.6-0.5-7.6-0.5c-4,1-10.9-0.4-11.2-0.4c-8.6-1.1-11.6-10.9-11.6-11c0-0.1,0-0.3,0.2-0.3c0.1,0,0.3,0,0.3,0.2
			c0,0.1,2.9,9.5,11.2,10.6c0.1,0,7.1,1.4,11,0.4c0.2-0.1,5.3-1.4,8,0.5c1,0.7,1.5,1.7,1.7,2.9c0,0.1,0.3,2.7-1,5.8
			c0,0-0.9,2.6,0.3,4.5c0.8,1.2,2.2,1.9,4.3,2c0.1,0,0.2,0.1,0.2,0.3C87.1,36.4,87,36.5,86.9,36.5z"/>
		<path style="clip-path:url(#SVGID_00000067201810612277204120000007846757892705787560_);fill:#C3970B;" d="M89.1,33.2
			C89.1,33.2,89.1,33.2,89.1,33.2c-2.3-0.2-3.8-0.9-4.7-2.2c-1.4-2.1-0.4-4.9-0.3-5c1.2-3,0.9-5.6,0.9-5.6c-0.1-1.1-0.6-2-1.5-2.6
			c-2.6-1.8-7.6-0.5-7.6-0.5c-4,1-10.9-0.4-11.2-0.4C56.1,15.8,53.1,6.1,53.1,6c0-0.1,0-0.3,0.2-0.3c0.1,0,0.3,0,0.3,0.2
			c0,0.1,2.9,9.5,11.2,10.6c0.1,0,7.1,1.4,11,0.4c0.2-0.1,5.3-1.4,8,0.5c1,0.7,1.5,1.7,1.7,2.9c0,0.1,0.3,2.7-1,5.8
			c0,0-0.9,2.6,0.3,4.5c0.8,1.2,2.2,1.9,4.3,2c0.1,0,0.2,0.1,0.2,0.3C89.4,33.1,89.3,33.2,89.1,33.2z"/>
		<path style="clip-path:url(#SVGID_00000067201810612277204120000007846757892705787560_);fill:#C3970B;" d="M92.1,30.2
			C92.1,30.2,92.1,30.2,92.1,30.2c-2.3-0.2-3.8-0.9-4.7-2.2c-1.4-2.1-0.4-4.9-0.3-5c1.2-3,0.9-5.6,0.9-5.6c-0.1-1.1-0.6-2-1.5-2.6
			c-2.6-1.8-7.6-0.5-7.6-0.5c-4,1-10.9-0.4-11.2-0.4C59.1,12.8,56.1,3.1,56.1,3c0-0.1,0-0.3,0.2-0.3c0.1,0,0.3,0,0.3,0.2
			c0,0.1,2.9,9.5,11.2,10.6c0.1,0,7.1,1.4,11,0.4c0.2-0.1,5.3-1.4,8,0.5c1,0.7,1.5,1.7,1.7,2.9c0,0.1,0.3,2.7-1,5.8
			c0,0-0.9,2.6,0.3,4.5c0.8,1.2,2.2,1.9,4.3,2c0.1,0,0.2,0.1,0.2,0.3C92.4,30.1,92.3,30.2,92.1,30.2z"/>
	</g>
	<path d="M56.7,57.9c-14.3,0-26-10.7-26-23.8c0-13.1,11.7-23.8,26-23.8s26,10.7,26,23.8C82.7,47.2,71,57.9,56.7,57.9z M56.7,11.3
		c-13.8,0-25,10.2-25,22.8s11.2,22.8,25,22.8s25-10.2,25-22.8S70.5,11.3,56.7,11.3z"/>
	<path class="st0" d="M68,76.6c0.2-5.3-4.7-8.4-8-9.8c0.5-0.5,0.8-1.2,0.8-2c0-1.7-1.4-3.1-3.1-3.1h-2c-1.7,0-3.1,1.4-3.1,3.1
		c0,0.7,0.3,1.4,0.7,1.9c-3,2.1-6.8,5.8-5.8,10.7c0,0,7.4-1.3,8.9-9.6h1C60,76.5,68,76.6,68,76.6z"/>
	<g>
		<path class="st5" d="M56.7,155.9c24.8,0,45.8-15.5,53.5-37.2c-53.6,45.3-106.4,0.6-107.1,0C10.9,140.4,31.9,155.9,56.7,155.9z"/>
	</g>
</g>
</svg>
