<?xml version="1.0" encoding="utf-8"?>
<!-- Generator: Adobe Illustrator 26.5.0, SVG Export Plug-In . SVG Version: 6.00 Build 0)  -->
<svg version="1.1" id="Layer_1" xmlns="http://www.w3.org/2000/svg" xmlns:xlink="http://www.w3.org/1999/xlink" x="0px" y="0px"
	 viewBox="0 0 127.6 113.4" style="enable-background:new 0 0 127.6 113.4;" xml:space="preserve">
<style type="text/css">
	.st0{fill:#FADBBB;}
	.st1{display:none;fill:#FCE8D5;}
	.st2{display:none;fill:#FFFFFF;}
	.st3{fill:#FFFFFF;}
	
		.st4{display:none;fill:none;stroke:#EEC7AB;stroke-width:0.75;stroke-linecap:round;stroke-linejoin:round;stroke-miterlimit:10;stroke-dasharray:1,3;}
	.st5{display:none;fill:none;stroke:#FFFFFF;stroke-miterlimit:10;}
	.st6{clip-path:url(#SVGID_00000054226876650312907210000017010674892713812910_);fill:#E2B892;}
	.st7{clip-path:url(#SVGID_00000054226876650312907210000017010674892713812910_);fill:#F3CBAD;}
	.st8{clip-path:url(#SVGID_00000054226876650312907210000017010674892713812910_);fill:#F7E2D5;}
	.st9{clip-path:url(#SVGID_00000054226876650312907210000017010674892713812910_);fill:#BB855E;}
	.st10{fill:#68482E;}
	.st11{fill:#FDFDF7;}
	.st12{fill:#F7CBD1;}
	.st13{fill:#E2B892;}
	.st14{fill:#D94154;}
	.st15{fill:#C99A78;}
</style>
<g>
	<circle class="st0" cx="56.7" cy="56.7" r="56.7"/>
	<g id="스칼럽_5_">
		<path class="st1" d="M56.7,0C25.4,0,0,25.4,0,56.7s25.4,56.7,56.7,56.7c31.3,0,56.7-25.4,56.7-56.7S88,0,56.7,0z M102.6,65.2
			c-0.3,1.6-1.3,2.8-2.6,3.5c0.8,1.3,1,2.8,0.5,4.3c-0.5,1.5-1.7,2.6-3.1,3c0.6,1.4,0.5,3-0.3,4.3c-0.8,1.4-2.2,2.2-3.6,2.4
			c0.3,1.4,0,3-1,4.2c-1,1.2-2.5,1.8-4,1.8c0.1,1.5-0.5,3-1.8,4c-1.2,1-2.8,1.3-4.2,1c-0.2,1.5-1,2.8-2.4,3.6
			c-1.4,0.8-3,0.9-4.3,0.3c-0.5,1.4-1.5,2.6-3,3.1c-1.5,0.5-3.1,0.3-4.3-0.5c-0.7,1.3-2,2.3-3.5,2.6c-1.6,0.3-3.1-0.2-4.2-1.2
			c-0.9,1.2-2.3,1.9-3.9,1.9c-1.6,0-3-0.8-3.9-1.9c-1.1,1-2.6,1.5-4.2,1.2c-1.6-0.3-2.8-1.3-3.5-2.6c-1.3,0.8-2.8,1-4.3,0.5
			c-1.5-0.5-2.6-1.7-3-3.1c-1.4,0.6-3,0.5-4.3-0.3c-1.4-0.8-2.2-2.2-2.4-3.6c-1.4,0.3-3,0-4.2-1c-1.2-1-1.8-2.5-1.8-4
			c-1.5,0.1-3-0.5-4-1.8c-1-1.2-1.3-2.8-1-4.2c-1.5-0.2-2.8-1.1-3.6-2.4c-0.8-1.4-0.9-3-0.3-4.3c-1.4-0.5-2.6-1.5-3.1-3
			c-0.5-1.5-0.3-3.1,0.5-4.3c-1.3-0.7-2.3-2-2.6-3.5C10.5,63.6,11,62.1,12,61c-1.2-0.9-1.9-2.3-1.9-3.9c0-1.6,0.8-3,1.9-3.9
			c-1-1.1-1.5-2.6-1.2-4.2c0.3-1.6,1.3-2.8,2.6-3.5c-0.8-1.3-1-2.8-0.5-4.3c0.5-1.5,1.7-2.6,3.1-3c-0.6-1.4-0.5-3,0.3-4.3
			c0.8-1.4,2.2-2.2,3.6-2.4c-0.3-1.4,0-3,1-4.2c1-1.2,2.5-1.8,4-1.8c-0.1-1.5,0.5-3,1.8-4c1.2-1,2.8-1.3,4.2-1
			c0.2-1.5,1-2.8,2.4-3.6c1.4-0.8,3-0.9,4.3-0.3c0.5-1.4,1.5-2.6,3-3.1c1.5-0.5,3.1-0.3,4.3,0.5c0.7-1.3,2-2.3,3.5-2.6
			c1.6-0.3,3.1,0.2,4.2,1.2c0.9-1.2,2.3-1.9,3.9-1.9c1.6,0,3,0.8,3.9,1.9c1.1-1,2.6-1.5,4.2-1.2c1.6,0.3,2.8,1.3,3.5,2.6
			c1.3-0.8,2.8-1,4.3-0.5c1.5,0.5,2.6,1.7,3,3.1c1.4-0.6,3-0.5,4.3,0.3c1.4,0.8,2.2,2.2,2.4,3.6c1.4-0.3,3,0,4.2,1
			c1.2,1,1.8,2.5,1.8,4c1.5-0.1,3,0.5,4,1.8c1,1.2,1.3,2.8,1,4.2c1.5,0.2,2.8,1,3.6,2.4c0.8,1.4,0.9,3,0.3,4.3
			c1.4,0.5,2.6,1.5,3.1,3c0.5,1.5,0.3,3.1-0.5,4.3c1.3,0.7,2.3,2,2.6,3.5c0.3,1.6-0.2,3.1-1.2,4.2c1.2,0.9,1.9,2.3,1.9,3.9
			c0,1.6-0.8,3-1.9,3.9C102.4,62.1,102.9,63.6,102.6,65.2z"/>
		<path class="st1" d="M92.9,50.7c-0.2-1.3,0.1-2.5,0.7-3.5c-1-0.6-1.9-1.5-2.3-2.7c-0.4-1.2-0.4-2.5,0.1-3.6
			c-1.1-0.4-2.1-1.1-2.8-2.2c-0.6-1.1-0.8-2.4-0.5-3.5c-1.2-0.2-2.3-0.7-3.1-1.7c-0.8-1-1.2-2.2-1.1-3.4c-1.2,0-2.4-0.3-3.4-1.1
			c-1-0.8-1.5-1.9-1.7-3.1c-1.2,0.3-2.4,0.1-3.5-0.5c-1.1-0.6-1.9-1.6-2.2-2.8c-1.1,0.4-2.4,0.5-3.6,0.1c-1.2-0.4-2.1-1.3-2.7-2.3
			c-1,0.6-2.2,0.9-3.5,0.7c-1.3-0.2-2.3-0.9-3.1-1.8c-0.9,0.8-2,1.3-3.3,1.3c-1.3,0-2.4-0.5-3.3-1.3c-0.7,0.9-1.8,1.6-3.1,1.8
			c-1.3,0.2-2.5-0.1-3.5-0.7c-0.6,1-1.5,1.9-2.7,2.3c-1.2,0.4-2.5,0.4-3.6-0.1c-0.4,1.1-1.1,2.1-2.2,2.8c-1.1,0.6-2.4,0.8-3.5,0.5
			c-0.2,1.2-0.7,2.3-1.7,3.1c-1,0.8-2.2,1.2-3.4,1.1c0,1.2-0.3,2.4-1.1,3.4c-0.8,1-1.9,1.5-3.1,1.7c0.3,1.2,0.1,2.4-0.5,3.5
			c-0.6,1.1-1.6,1.9-2.8,2.2c0.4,1.1,0.5,2.4,0.1,3.6c-0.4,1.2-1.3,2.1-2.3,2.7c0.6,1,0.9,2.2,0.7,3.5c-0.2,1.3-0.9,2.3-1.8,3.1
			c0.8,0.9,1.3,2,1.3,3.3c0,1.3-0.5,2.4-1.3,3.3c0.9,0.7,1.6,1.8,1.8,3.1c0.2,1.3-0.1,2.5-0.7,3.5c1,0.6,1.9,1.5,2.3,2.7
			c0.4,1.2,0.4,2.5-0.1,3.6c1.1,0.4,2.1,1.1,2.8,2.2c0.6,1.1,0.8,2.4,0.5,3.5c1.2,0.2,2.3,0.7,3.1,1.7c0.8,1,1.2,2.2,1.1,3.4
			c1.2,0,2.4,0.3,3.4,1.1c1,0.8,1.5,1.9,1.7,3.1c1.2-0.3,2.4-0.1,3.5,0.5c1.1,0.6,1.9,1.6,2.2,2.8c1.1-0.4,2.4-0.5,3.6-0.1
			c1.2,0.4,2.1,1.3,2.7,2.3c1-0.6,2.2-0.9,3.5-0.7c1.3,0.2,2.3,0.9,3.1,1.8c0.9-0.8,2-1.3,3.3-1.3c1.3,0,2.4,0.5,3.3,1.3
			c0.7-0.9,1.8-1.6,3.1-1.8c1.3-0.2,2.5,0.1,3.5,0.7c0.6-1,1.5-1.9,2.7-2.3c1.2-0.4,2.5-0.4,3.6,0.1c0.4-1.1,1.1-2.1,2.2-2.8
			c1.1-0.6,2.4-0.8,3.5-0.5c0.2-1.2,0.7-2.3,1.7-3.1c1-0.8,2.2-1.2,3.4-1.1c0-1.2,0.3-2.4,1.1-3.4c0.8-1,1.9-1.5,3.1-1.7
			c-0.3-1.2-0.1-2.4,0.5-3.5c0.6-1.1,1.6-1.9,2.8-2.2c-0.4-1.1-0.5-2.4-0.1-3.6c0.4-1.2,1.3-2.1,2.3-2.7c-0.6-1-0.9-2.2-0.7-3.5
			c0.2-1.3,0.9-2.3,1.8-3.1c-0.8-0.9-1.3-2-1.3-3.3c0-1.3,0.5-2.4,1.3-3.3C93.8,53,93.1,52,92.9,50.7z"/>
		<path class="st2" d="M103.3,57.1c0-1.6-0.8-3-1.9-3.9c1-1.1,1.5-2.6,1.2-4.2c-0.3-1.6-1.3-2.8-2.6-3.5c0.8-1.3,1-2.8,0.5-4.3
			c-0.5-1.5-1.7-2.6-3.1-3c0.6-1.4,0.5-3-0.3-4.3c-0.8-1.4-2.2-2.2-3.6-2.4c0.3-1.4,0-3-1-4.2c-1-1.2-2.5-1.8-4-1.8
			c0.1-1.5-0.5-3-1.8-4c-1.2-1-2.8-1.3-4.2-1c-0.2-1.5-1-2.8-2.4-3.6c-1.4-0.8-3-0.9-4.3-0.3c-0.5-1.4-1.5-2.6-3-3.1
			c-1.5-0.5-3.1-0.3-4.3,0.5c-0.7-1.3-2-2.3-3.5-2.6c-1.6-0.3-3.1,0.2-4.2,1.2c-0.9-1.2-2.3-1.9-3.9-1.9c-1.6,0-3,0.8-3.9,1.9
			c-1.1-1-2.6-1.5-4.2-1.2c-1.6,0.3-2.8,1.3-3.5,2.6c-1.3-0.8-2.8-1-4.3-0.5c-1.5,0.5-2.6,1.7-3,3.1c-1.4-0.6-3-0.5-4.3,0.3
			c-1.4,0.8-2.2,2.2-2.4,3.6c-1.4-0.3-3,0-4.2,1c-1.2,1-1.8,2.5-1.8,4c-1.5-0.1-3,0.5-4,1.8c-1,1.2-1.3,2.8-1,4.2
			c-1.5,0.2-2.8,1-3.6,2.4c-0.8,1.4-0.9,3-0.3,4.3c-1.4,0.5-2.6,1.5-3.1,3c-0.5,1.5-0.3,3.1,0.5,4.3c-1.3,0.7-2.3,2-2.6,3.5
			c-0.3,1.6,0.2,3.1,1.2,4.2c-1.2,0.9-1.9,2.3-1.9,3.9c0,1.6,0.8,3,1.9,3.9c-1,1.1-1.5,2.6-1.2,4.2c0.3,1.6,1.3,2.8,2.6,3.5
			c-0.8,1.3-1,2.8-0.5,4.3c0.5,1.5,1.7,2.6,3.1,3c-0.6,1.4-0.5,3,0.3,4.3c0.8,1.4,2.2,2.2,3.6,2.4c-0.3,1.4,0,3,1,4.2
			c1,1.2,2.5,1.8,4,1.8c-0.1,1.5,0.5,3,1.8,4c1.2,1,2.8,1.3,4.2,1c0.2,1.5,1,2.8,2.4,3.6c1.4,0.8,3,0.9,4.3,0.3
			c0.5,1.4,1.5,2.6,3,3.1c1.5,0.5,3.1,0.3,4.3-0.5c0.7,1.3,2,2.3,3.5,2.6c1.6,0.3,3.1-0.2,4.2-1.2c0.9,1.2,2.3,1.9,3.9,1.9
			c1.6,0,3-0.8,3.9-1.9c1.1,1,2.6,1.5,4.2,1.2c1.6-0.3,2.8-1.3,3.5-2.6c1.3,0.8,2.8,1,4.3,0.5c1.5-0.5,2.6-1.7,3-3.1
			c1.4,0.6,3,0.5,4.3-0.3c1.4-0.8,2.2-2.2,2.4-3.6c1.4,0.3,3,0,4.2-1c1.2-1,1.8-2.5,1.8-4c1.5,0.1,3-0.5,4-1.8c1-1.2,1.3-2.8,1-4.2
			c1.5-0.2,2.8-1.1,3.6-2.4c0.8-1.4,0.9-3,0.3-4.3c1.4-0.5,2.6-1.5,3.1-3c0.5-1.5,0.3-3.1-0.5-4.3c1.3-0.7,2.3-2,2.6-3.5
			c0.3-1.6-0.2-3.1-1.2-4.2C102.6,60.1,103.3,58.7,103.3,57.1z M94.7,60.4c-0.9,0.7-1.6,1.8-1.8,3.1c-0.2,1.3,0.1,2.5,0.7,3.5
			c-1,0.6-1.9,1.5-2.3,2.7c-0.4,1.2-0.4,2.5,0.1,3.6c-1.1,0.4-2.1,1.1-2.8,2.2c-0.6,1.1-0.8,2.4-0.5,3.5c-1.2,0.2-2.3,0.7-3.1,1.7
			c-0.8,1-1.2,2.2-1.1,3.4c-1.2,0-2.4,0.3-3.4,1.1c-1,0.8-1.5,1.9-1.7,3.1c-1.2-0.3-2.4-0.1-3.5,0.5c-1.1,0.6-1.9,1.6-2.2,2.8
			c-1.1-0.4-2.4-0.5-3.6-0.1c-1.2,0.4-2.1,1.3-2.7,2.3c-1-0.6-2.2-0.9-3.5-0.7c-1.3,0.2-2.3,0.9-3.1,1.8c-0.9-0.8-2-1.3-3.3-1.3
			c-1.3,0-2.4,0.5-3.3,1.3c-0.7-0.9-1.8-1.6-3.1-1.8c-1.3-0.2-2.5,0.1-3.5,0.7c-0.6-1-1.5-1.9-2.7-2.3c-1.2-0.4-2.5-0.4-3.6,0.1
			c-0.4-1.1-1.1-2.1-2.2-2.8c-1.1-0.6-2.4-0.8-3.5-0.5c-0.2-1.2-0.7-2.3-1.7-3.1c-1-0.8-2.2-1.2-3.4-1.1c0-1.2-0.3-2.4-1.1-3.4
			c-0.8-1-1.9-1.5-3.1-1.7c0.3-1.2,0.1-2.4-0.5-3.5c-0.6-1.1-1.6-1.9-2.8-2.2c0.4-1.1,0.5-2.4,0.1-3.6c-0.4-1.2-1.3-2.1-2.3-2.7
			c0.6-1,0.9-2.2,0.7-3.5c-0.2-1.3-0.9-2.3-1.8-3.1c0.8-0.9,1.3-2,1.3-3.3c0-1.3-0.5-2.4-1.3-3.3c0.9-0.7,1.6-1.8,1.8-3.1
			c0.2-1.3-0.1-2.5-0.7-3.5c1-0.6,1.9-1.5,2.3-2.7c0.4-1.2,0.4-2.5-0.1-3.6c1.1-0.4,2.1-1.1,2.8-2.2c0.6-1.1,0.8-2.4,0.5-3.5
			c1.2-0.2,2.3-0.7,3.1-1.7c0.8-1,1.2-2.2,1.1-3.4c1.2,0,2.4-0.3,3.4-1.1c1-0.8,1.5-1.9,1.7-3.1c1.2,0.3,2.4,0.1,3.5-0.5
			c1.1-0.6,1.9-1.6,2.2-2.8c1.1,0.4,2.4,0.5,3.6,0.1c1.2-0.4,2.1-1.3,2.7-2.3c1,0.6,2.2,0.9,3.5,0.7c1.3-0.2,2.3-0.9,3.1-1.8
			c0.9,0.8,2,1.3,3.3,1.3c1.3,0,2.4-0.5,3.3-1.3c0.7,0.9,1.8,1.6,3.1,1.8c1.3,0.2,2.5-0.1,3.5-0.7c0.6,1,1.5,1.9,2.7,2.3
			c1.2,0.4,2.5,0.4,3.6-0.1c0.4,1.1,1.1,2.1,2.2,2.8c1.1,0.6,2.4,0.8,3.5,0.5c0.2,1.2,0.7,2.3,1.7,3.1c1,0.8,2.2,1.2,3.4,1.1
			c0,1.2,0.3,2.4,1.1,3.4c0.8,1,1.9,1.5,3.1,1.7c-0.3,1.2-0.1,2.4,0.5,3.5c0.6,1.1,1.6,1.9,2.8,2.2c-0.4,1.1-0.5,2.4-0.1,3.6
			c0.4,1.2,1.3,2.1,2.3,2.7c-0.6,1-0.9,2.2-0.7,3.5c0.2,1.3,0.9,2.3,1.8,3.1c-0.8,0.9-1.3,2-1.3,3.3C93.4,58.4,93.9,59.5,94.7,60.4z
			"/>
		<path class="st3" d="M103.3,57.1c0-1.6-0.8-3-1.9-3.9c1-1.1,1.5-2.6,1.2-4.2c-0.3-1.6-1.3-2.8-2.6-3.5c0.8-1.3,1-2.8,0.5-4.3
			c-0.5-1.5-1.7-2.6-3.1-3c0.6-1.4,0.5-3-0.3-4.3c-0.8-1.4-2.2-2.2-3.6-2.4c0.3-1.4,0-3-1-4.2c-1-1.2-2.5-1.8-4-1.8
			c0.1-1.5-0.5-3-1.8-4c-1.2-1-2.8-1.3-4.2-1c-0.2-1.5-1-2.8-2.4-3.6c-1.4-0.8-3-0.9-4.3-0.3c-0.5-1.4-1.5-2.6-3-3.1
			c-1.5-0.5-3.1-0.3-4.3,0.5c-0.7-1.3-2-2.3-3.5-2.6c-1.6-0.3-3.1,0.2-4.2,1.2c-0.9-1.2-2.3-1.9-3.9-1.9c-1.6,0-3,0.8-3.9,1.9
			c-1.1-1-2.6-1.5-4.2-1.2c-1.6,0.3-2.8,1.3-3.5,2.6c-1.3-0.8-2.8-1-4.3-0.5c-1.5,0.5-2.6,1.7-3,3.1c-1.4-0.6-3-0.5-4.3,0.3
			c-1.4,0.8-2.2,2.2-2.4,3.6c-1.4-0.3-3,0-4.2,1c-1.2,1-1.8,2.5-1.8,4c-1.5-0.1-3,0.5-4,1.8c-1,1.2-1.3,2.8-1,4.2
			c-1.5,0.2-2.8,1-3.6,2.4c-0.8,1.4-0.9,3-0.3,4.3c-1.4,0.5-2.6,1.5-3.1,3c-0.5,1.5-0.3,3.1,0.5,4.3c-1.3,0.7-2.3,2-2.6,3.5
			c-0.3,1.6,0.2,3.1,1.2,4.2c-1.2,0.9-1.9,2.3-1.9,3.9c0,1.6,0.8,3,1.9,3.9c-1,1.1-1.5,2.6-1.2,4.2c0.3,1.6,1.3,2.8,2.6,3.5
			c-0.8,1.3-1,2.8-0.5,4.3c0.5,1.5,1.7,2.6,3.1,3c-0.6,1.4-0.5,3,0.3,4.3c0.8,1.4,2.2,2.2,3.6,2.4c-0.3,1.4,0,3,1,4.2
			c1,1.2,2.5,1.8,4,1.8c-0.1,1.5,0.5,3,1.8,4c1.2,1,2.8,1.3,4.2,1c0.2,1.5,1,2.8,2.4,3.6c1.4,0.8,3,0.9,4.3,0.3
			c0.5,1.4,1.5,2.6,3,3.1c1.5,0.5,3.1,0.3,4.3-0.5c0.7,1.3,2,2.3,3.5,2.6c1.6,0.3,3.1-0.2,4.2-1.2c0.9,1.2,2.3,1.9,3.9,1.9
			c1.6,0,3-0.8,3.9-1.9c1.1,1,2.6,1.5,4.2,1.2c1.6-0.3,2.8-1.3,3.5-2.6c1.3,0.8,2.8,1,4.3,0.5c1.5-0.5,2.6-1.7,3-3.1
			c1.4,0.6,3,0.5,4.3-0.3c1.4-0.8,2.2-2.2,2.4-3.6c1.4,0.3,3,0,4.2-1c1.2-1,1.8-2.5,1.8-4c1.5,0.1,3-0.5,4-1.8c1-1.2,1.3-2.8,1-4.2
			c1.5-0.2,2.8-1.1,3.6-2.4c0.8-1.4,0.9-3,0.3-4.3c1.4-0.5,2.6-1.5,3.1-3c0.5-1.5,0.3-3.1-0.5-4.3c1.3-0.7,2.3-2,2.6-3.5
			c0.3-1.6-0.2-3.1-1.2-4.2C102.6,60.1,103.3,58.7,103.3,57.1z"/>
		<path class="st4" d="M56.7,105.2c-1.5,0-2.9-0.5-4.1-1.5c-1,0.5-2,0.8-3.2,0.8c-0.4,0-0.7,0-1.1-0.1c-1.5-0.3-2.8-1-3.8-2.2
			c-0.7,0.2-1.4,0.4-2.2,0.4c-0.7,0-1.5-0.1-2.2-0.4c-1.4-0.5-2.6-1.5-3.3-2.8c-0.4,0.1-0.7,0.1-1.1,0.1c-1.1,0-2.2-0.3-3.2-0.9
			c-1.3-0.8-2.3-1.9-2.8-3.3c-1.5,0-2.9-0.5-4.1-1.5c-1.2-1-1.9-2.3-2.2-3.8c-1.5-0.3-2.8-1-3.8-2.2c-1-1.2-1.5-2.6-1.5-4.1
			c-1.4-0.5-2.6-1.5-3.3-2.8c-0.8-1.3-1-2.8-0.8-4.3C13,76.1,12,75,11.5,73.5c-0.5-1.4-0.5-2.9,0-4.3c-1.1-1-1.9-2.3-2.2-3.8
			c-0.3-1.5,0-3,0.7-4.3c-0.9-1.1-1.5-2.6-1.5-4.1c0-1.5,0.5-2.9,1.5-4.1c-0.7-1.3-1-2.8-0.7-4.3c0.3-1.5,1-2.8,2.2-3.8
			c-0.5-1.4-0.5-2.9,0-4.3c0.5-1.4,1.5-2.6,2.8-3.3c-0.3-1.5,0-3,0.8-4.3c0.8-1.3,1.9-2.3,3.3-2.8c0-1.5,0.5-2.9,1.5-4.1
			c1-1.1,2.3-1.9,3.8-2.2c0.3-1.5,1-2.8,2.2-3.8c1.1-1,2.6-1.5,4.1-1.5c0.5-1.4,1.5-2.6,2.8-3.3c1-0.6,2.1-0.9,3.2-0.9
			c0.4,0,0.7,0,1.1,0.1c0.7-1.3,1.9-2.3,3.3-2.8c0.7-0.3,1.4-0.4,2.2-0.4c0.7,0,1.5,0.1,2.2,0.4c1-1.1,2.3-1.9,3.8-2.2
			c0.4-0.1,0.7-0.1,1.1-0.1c1.1,0,2.2,0.3,3.2,0.8C53.8,9.6,55.2,9,56.7,9c1.5,0,2.9,0.5,4.1,1.5c1-0.5,2-0.8,3.2-0.8
			c0.4,0,0.7,0,1.1,0.1c1.5,0.3,2.8,1,3.8,2.2c0.7-0.2,1.4-0.4,2.2-0.4c0.7,0,1.5,0.1,2.2,0.4c1.4,0.5,2.6,1.5,3.3,2.8
			c0.4-0.1,0.7-0.1,1.1-0.1c1.1,0,2.2,0.3,3.2,0.9c1.3,0.8,2.3,1.9,2.8,3.3c1.5,0,2.9,0.5,4.1,1.5c1.2,1,1.9,2.3,2.2,3.8
			c1.5,0.3,2.8,1,3.8,2.2c1,1.2,1.5,2.6,1.5,4.1c1.4,0.5,2.6,1.5,3.3,2.8c0.8,1.3,1,2.8,0.8,4.3c1.3,0.7,2.3,1.9,2.8,3.3
			c0.5,1.4,0.5,2.9,0,4.3c1.1,1,1.9,2.3,2.2,3.8c0.3,1.5,0,3-0.7,4.3c0.9,1.1,1.5,2.6,1.5,4.1c0,1.5-0.5,2.9-1.5,4.1
			c0.7,1.3,1,2.8,0.7,4.3c-0.3,1.5-1,2.8-2.2,3.8c0.5,1.4,0.5,2.9,0,4.3c-0.5,1.4-1.5,2.6-2.8,3.3c0.3,1.5,0,3-0.8,4.3
			c-0.8,1.3-1.9,2.3-3.3,2.8c0,1.5-0.5,2.9-1.5,4.1c-1,1.1-2.3,1.9-3.8,2.2c-0.3,1.5-1,2.8-2.2,3.8c-1.1,1-2.6,1.5-4.1,1.5
			C83,96.8,82,98,80.7,98.7c-1,0.6-2.1,0.9-3.2,0.9c-0.4,0-0.7,0-1.1-0.1c-0.7,1.3-1.9,2.3-3.3,2.8c-0.7,0.3-1.4,0.4-2.2,0.4
			c-0.7,0-1.5-0.1-2.2-0.4c-1,1.1-2.3,1.9-3.8,2.2c-0.4,0.1-0.7,0.1-1.1,0.1c-1.1,0-2.2-0.3-3.2-0.8
			C59.6,104.6,58.2,105.2,56.7,105.2z"/>
		<path class="st5" d="M103.3,57.1c0-1.6-0.8-3-1.9-3.9c1-1.1,1.5-2.6,1.2-4.2c-0.3-1.6-1.3-2.8-2.6-3.5c0.8-1.3,1-2.8,0.5-4.3
			c-0.5-1.5-1.7-2.6-3.1-3c0.6-1.4,0.5-3-0.3-4.3c-0.8-1.4-2.2-2.2-3.6-2.4c0.3-1.4,0-3-1-4.2c-1-1.2-2.5-1.8-4-1.8
			c0.1-1.5-0.5-3-1.8-4c-1.2-1-2.8-1.3-4.2-1c-0.2-1.5-1-2.8-2.4-3.6c-1.4-0.8-3-0.9-4.3-0.3c-0.5-1.4-1.5-2.6-3-3.1
			c-1.5-0.5-3.1-0.3-4.3,0.5c-0.7-1.3-2-2.3-3.5-2.6c-1.6-0.3-3.1,0.2-4.2,1.2c-0.9-1.2-2.3-1.9-3.9-1.9c-1.6,0-3,0.8-3.9,1.9
			c-1.1-1-2.6-1.5-4.2-1.2c-1.6,0.3-2.8,1.3-3.5,2.6c-1.3-0.8-2.8-1-4.3-0.5c-1.5,0.5-2.6,1.7-3,3.1c-1.4-0.6-3-0.5-4.3,0.3
			c-1.4,0.8-2.2,2.2-2.4,3.6c-1.4-0.3-3,0-4.2,1c-1.2,1-1.8,2.5-1.8,4c-1.5-0.1-3,0.5-4,1.8c-1,1.2-1.3,2.8-1,4.2
			c-1.5,0.2-2.8,1-3.6,2.4c-0.8,1.4-0.9,3-0.3,4.3c-1.4,0.5-2.6,1.5-3.1,3c-0.5,1.5-0.3,3.1,0.5,4.3c-1.3,0.7-2.3,2-2.6,3.5
			c-0.3,1.6,0.2,3.1,1.2,4.2c-1.2,0.9-1.9,2.3-1.9,3.9c0,1.6,0.8,3,1.9,3.9c-1,1.1-1.5,2.6-1.2,4.2c0.3,1.6,1.3,2.8,2.6,3.5
			c-0.8,1.3-1,2.8-0.5,4.3c0.5,1.5,1.7,2.6,3.1,3c-0.6,1.4-0.5,3,0.3,4.3c0.8,1.4,2.2,2.2,3.6,2.4c-0.3,1.4,0,3,1,4.2
			c1,1.2,2.5,1.8,4,1.8c-0.1,1.5,0.5,3,1.8,4c1.2,1,2.8,1.3,4.2,1c0.2,1.5,1,2.8,2.4,3.6c1.4,0.8,3,0.9,4.3,0.3
			c0.5,1.4,1.5,2.6,3,3.1c1.5,0.5,3.1,0.3,4.3-0.5c0.7,1.3,2,2.3,3.5,2.6c1.6,0.3,3.1-0.2,4.2-1.2c0.9,1.2,2.3,1.9,3.9,1.9
			c1.6,0,3-0.8,3.9-1.9c1.1,1,2.6,1.5,4.2,1.2c1.6-0.3,2.8-1.3,3.5-2.6c1.3,0.8,2.8,1,4.3,0.5c1.5-0.5,2.6-1.7,3-3.1
			c1.4,0.6,3,0.5,4.3-0.3c1.4-0.8,2.2-2.2,2.4-3.6c1.4,0.3,3,0,4.2-1c1.2-1,1.8-2.5,1.8-4c1.5,0.1,3-0.5,4-1.8c1-1.2,1.3-2.8,1-4.2
			c1.5-0.2,2.8-1.1,3.6-2.4c0.8-1.4,0.9-3,0.3-4.3c1.4-0.5,2.6-1.5,3.1-3c0.5-1.5,0.3-3.1-0.5-4.3c1.3-0.7,2.3-2,2.6-3.5
			c0.3-1.6-0.2-3.1-1.2-4.2C102.6,60.1,103.3,58.7,103.3,57.1z"/>
	</g>
	<g id="얼굴_및_몸통_5_">
		<defs>
			<circle id="SVGID_1_" cx="56.7" cy="56.7" r="56.7"/>
		</defs>
		<clipPath id="SVGID_00000107550573709360738150000017841786248875722896_">
			<use xlink:href="#SVGID_1_"  style="overflow:visible;"/>
		</clipPath>
		<path style="clip-path:url(#SVGID_00000107550573709360738150000017841786248875722896_);fill:#E2B892;" d="M34.1,77.2l-16,28.6
			c0,0,37.3,20.2,62,10.7l-7.7-42L34.1,77.2z"/>
		<path style="clip-path:url(#SVGID_00000107550573709360738150000017841786248875722896_);fill:#E2B892;" d="M89.5,45.5
			c-1-4.3-3-8.1-5.7-11.3c2.7-3.1,4-7.3,3.1-11.5c-1.6-7.2-9.2-11.6-17-9.9c-5.4,1.2-9.5,5.2-10.8,10c-3.4-0.1-7,0.2-10.5,1
			c-3.9,0.9-7.5,2.3-10.7,4.1c-3.3-3.9-8.7-5.8-14.3-4.5c-7.7,1.8-12.7,9-11,16.2c1,4.5,4.3,7.9,8.6,9.4c-0.9,3.9-1,8-0.1,12.1
			c1.7,7.3,6.2,13.2,12.4,17.2l-15.5,27.6c0,0,37.3,20.2,62,10.7l-7-38.1C85.4,71.3,92.4,58.3,89.5,45.5z"/>
		<path style="clip-path:url(#SVGID_00000107550573709360738150000017841786248875722896_);fill:#F3CBAD;" d="M59.1,22.7
			c0,0-12-0.5-21.2,5.1c0,0-4.6,18.2,7.3,28.9l6.3,2.7l9.8-2.2l4.4-5.4C65.7,51.8,71.8,37.8,59.1,22.7z"/>
		<path style="clip-path:url(#SVGID_00000107550573709360738150000017841786248875722896_);fill:#F7E2D5;" d="M30.1,35.3
			c0,2.5-2,4.5-4.5,4.5s-4.5-2-4.5-4.5c0-2.5,2-4.5,4.5-4.5S30.1,32.8,30.1,35.3z"/>
		
			<circle style="clip-path:url(#SVGID_00000107550573709360738150000017841786248875722896_);fill:#F7E2D5;" cx="73.9" cy="24.8" r="4.5"/>
		<path style="clip-path:url(#SVGID_00000107550573709360738150000017841786248875722896_);fill:#BB855E;" d="M44.9,57
			c-0.3-0.3-0.6-0.6-0.9-0.9l0.5-0.5c0.3,0.3,0.6,0.6,0.9,0.9L44.9,57z M42,53.7c-0.4-0.5-0.8-1.1-1.2-1.7l0.6-0.4
			c0.4,0.5,0.7,1.1,1.1,1.6L42,53.7z M39.4,49.4c-0.3-0.6-0.6-1.2-0.8-1.9l0.7-0.3c0.2,0.6,0.5,1.2,0.8,1.8L39.4,49.4z M37.6,44.7
			c-0.2-0.6-0.3-1.3-0.5-2l0.7-0.2c0.1,0.6,0.3,1.3,0.5,1.9L37.6,44.7z M36.6,39.7c-0.1-0.7-0.1-1.3-0.1-2l0.7,0
			c0,0.6,0.1,1.3,0.1,2L36.6,39.7z M37.2,34.7l-0.7,0c0-0.7,0.1-1.4,0.2-2l0.7,0.1C37.3,33.4,37.3,34,37.2,34.7z M37.8,29.8
			l-0.7-0.1c0.2-1.2,0.5-2,0.5-2l0.7,0.2C38.3,27.9,38,28.6,37.8,29.8z"/>
		<path style="clip-path:url(#SVGID_00000107550573709360738150000017841786248875722896_);fill:#BB855E;" d="M66.1,51.9l-0.7-0.2
			c0.1-0.4,0.2-0.8,0.3-1.1l0.7,0.2C66.3,51.1,66.2,51.5,66.1,51.9z M67.1,47.8l-0.7-0.1c0.1-0.6,0.2-1.3,0.3-2l0.7,0.1
			C67.3,46.4,67.2,47.1,67.1,47.8z M66.7,42.7c0-0.7,0-1.3-0.1-2l0.7-0.1c0.1,0.7,0.1,1.4,0.1,2L66.7,42.7z M66.2,37.8
			c-0.1-0.6-0.3-1.3-0.4-1.9l0.7-0.2c0.2,0.7,0.3,1.3,0.4,2L66.2,37.8z M64.9,33.1c-0.2-0.6-0.5-1.2-0.7-1.8l0.7-0.3
			c0.3,0.6,0.5,1.2,0.8,1.9L64.9,33.1z M62.8,28.6c-0.3-0.6-0.7-1.2-1-1.7l0.6-0.4c0.3,0.5,0.7,1.1,1,1.7L62.8,28.6z M60.1,24.5
			c-0.8-1-1.3-1.5-1.3-1.5l0.5-0.5c0,0,0.6,0.6,1.3,1.6L60.1,24.5z"/>
	</g>
	<g id="표정_4_">
		<path class="st10" d="M50.7,56.9c0.3,1.5-0.6,3-2.1,3.4c-1.5,0.3-3-0.6-3.4-2.1c-0.3-1.5,0.6-3,2.1-3.4
			C48.9,54.4,50.4,55.4,50.7,56.9z"/>
		<path class="st10" d="M66.3,53.3c0.3,1.5-0.6,3-2.1,3.4c-1.5,0.3-3-0.6-3.4-2.1c-0.3-1.5,0.6-3,2.1-3.4
			C64.4,50.8,65.9,51.8,66.3,53.3z"/>
		<ellipse transform="matrix(0.9751 -0.2218 0.2218 0.9751 -11.4934 13.944)" class="st11" cx="56.4" cy="58.2" rx="5" ry="4.6"/>
		<path class="st10" d="M59.2,57.5c-0.6,0.4-1.1,0.6-1.5,0.5c-0.2-0.1-0.4-0.2-0.6-0.4c0.4-0.3,0.6-0.6,0.5-1
			c-0.1-0.6-0.9-0.9-1.8-0.8c-0.9,0.2-1.5,0.8-1.4,1.3c0.1,0.4,0.5,0.7,1.1,0.8c0,0.3-0.1,0.6-0.3,0.8c-0.3,0.3-0.8,0.5-1.5,0.5l0,1
			c0.1,0,0.1,0,0.2,0c1,0,1.7-0.3,2.1-0.9c0.2-0.3,0.4-0.6,0.4-0.9c0.2,0.2,0.5,0.4,0.9,0.5c0.2,0.1,0.4,0.1,0.6,0.1
			c0.6,0,1.2-0.2,1.8-0.7L59.2,57.5z"/>
		<path class="st12" d="M46.4,65.7c0,3-2.4,5.4-5.4,5.4c-3,0-5.4-2.4-5.4-5.4c0-3,2.4-5.4,5.4-5.4C44,60.3,46.4,62.7,46.4,65.7z"/>
		<path class="st12" d="M78.3,58.7c0,3-2.4,5.4-5.4,5.4c-3,0-5.4-2.4-5.4-5.4c0-3,2.4-5.4,5.4-5.4C75.9,53.3,78.3,55.7,78.3,58.7z"
			/>
	</g>
	<path class="st10" d="M79,70.7c-0.1-0.4-0.5-0.6-0.8-0.4c-0.7,0.5-1.9,1.3-3.3,2.2c-3.9,2.6-8.3,4.4-13,5.2l-4.8,0.9c0,0,0,0,0,0
		l-4.9,0.9c-4.6,0.9-9.4,0.8-14-0.2c-1.5-0.3-3-0.7-3.8-0.9c-0.4-0.1-0.7,0.2-0.7,0.6c2.4,12,17.4,4.4,23.5,0.7
		C64.2,80.9,81,82.8,79,70.7z"/>
	<path id="뒷_손_5_" class="st13" d="M70.2,103.2c0,0,14.6-2.7,20.2-8.6c3.2-3.4,1.5-9-3-9.9c-1.1-0.2-2.5-0.2-4.2,0.1L66.3,91
		L70.2,103.2z"/>
	<path id="heart" class="st14" d="M118.4,44.7c0,0-7-3.7-14.6,1.3c-4.1-8.1-12-8.5-12-8.5c-15.6-1-18.9,17.3-18.9,17.3
		c-4.1,20.1,8.9,30.9,15.4,34.9c2.1,1.3,4.6,2,7.1,1.9c7.5-0.3,24.2-3.1,30.7-22.5C126.1,69.1,132.5,51.7,118.4,44.7z"/>
	<g id="앞_손_4_">
		<path class="st13" d="M72.2,77.2c0,0,8.6-3.9,12.6,2.2c0,0,4,6.9-2.7,12.2c0,0-15.8,10.9-23.2,10.6l-2-19.3L72.2,77.2z"/>
	</g>
	<path class="st15" d="M58.9,102.2c0,0,25.7-8.4,27.1-18.9C86,83.3,88.6,97.7,58.9,102.2z"/>
</g>
</svg>
