<?xml version="1.0" encoding="utf-8"?>
<!-- Generator: Adobe Illustrator 26.5.0, SVG Export Plug-In . SVG Version: 6.00 Build 0)  -->
<svg version="1.1" id="Layer_1" xmlns="http://www.w3.org/2000/svg" xmlns:xlink="http://www.w3.org/1999/xlink" x="0px" y="0px"
	 viewBox="0 0 127.6 113.4" style="enable-background:new 0 0 127.6 113.4;" xml:space="preserve">
<style type="text/css">
	.st0{fill:#D99E88;}
	.st1{display:none;fill:#FCE8D5;}
	.st2{display:none;fill:#FFFFFF;}
	.st3{fill:#FFFFFF;}
	
		.st4{display:none;fill:none;stroke:#EEC7AB;stroke-width:0.75;stroke-linecap:round;stroke-linejoin:round;stroke-miterlimit:10;stroke-dasharray:1,3;}
	.st5{display:none;fill:none;stroke:#FFFFFF;stroke-miterlimit:10;}
	.st6{clip-path:url(#SVGID_00000000917100186539567940000018113940661653828257_);fill:#A86540;}
	.st7{clip-path:url(#SVGID_00000000917100186539567940000018113940661653828257_);}
	.st8{fill:#965537;}
	.st9{fill:#FCE2AA;}
	.st10{fill:#68482E;}
	.st11{fill:#FDFDF7;}
	.st12{fill:#F3ADB2;}
	.st13{fill:#A86540;}
	.st14{fill:#852A27;}
	.st15{fill:#C78D44;}
	.st16{clip-path:url(#SVGID_00000081617842941359413540000006892850976278269343_);fill:#AC7538;}
	.st17{display:none;clip-path:url(#도토리_00000049204140002119740560000008102831784572269192_);}
	.st18{display:inline;fill:none;stroke:#701F20;stroke-linecap:round;stroke-linejoin:round;stroke-miterlimit:10;}
	.st19{clip-path:url(#도토리_00000049204140002119740560000008102831784572269192_);}
	.st20{fill:#701F20;}
	.st21{fill:#894D32;}
</style>
<circle class="st0" cx="56.7" cy="56.7" r="56.7"/>
<g id="스칼럽_4_">
	<path class="st1" d="M57,0C25.7,0,0.3,25.4,0.3,56.7s25.4,56.7,56.7,56.7c31.3,0,56.7-25.4,56.7-56.7S88.3,0,57,0z M102.9,65.2
		c-0.3,1.6-1.3,2.8-2.6,3.5c0.8,1.3,1,2.8,0.5,4.3c-0.5,1.5-1.7,2.6-3.1,3c0.6,1.4,0.5,3-0.3,4.3c-0.8,1.4-2.2,2.2-3.6,2.4
		c0.3,1.4,0,3-1,4.2c-1,1.2-2.5,1.8-4,1.8c0.1,1.5-0.5,3-1.8,4c-1.2,1-2.8,1.3-4.2,1c-0.2,1.5-1,2.8-2.4,3.6c-1.4,0.8-3,0.9-4.3,0.3
		c-0.5,1.4-1.5,2.6-3,3.1c-1.5,0.5-3.1,0.3-4.3-0.5c-0.7,1.3-2,2.3-3.5,2.6c-1.6,0.3-3.1-0.2-4.2-1.2c-0.9,1.2-2.3,1.9-3.9,1.9
		c-1.6,0-3-0.8-3.9-1.9c-1.1,1-2.6,1.5-4.2,1.2c-1.6-0.3-2.8-1.3-3.5-2.6c-1.3,0.8-2.8,1-4.3,0.5c-1.5-0.5-2.6-1.7-3-3.1
		c-1.4,0.6-3,0.5-4.3-0.3c-1.4-0.8-2.2-2.2-2.4-3.6c-1.4,0.3-3,0-4.2-1c-1.2-1-1.8-2.5-1.8-4c-1.5,0.1-3-0.5-4-1.8
		c-1-1.2-1.3-2.8-1-4.2c-1.5-0.2-2.8-1-3.6-2.4c-0.8-1.4-0.9-3-0.3-4.3c-1.4-0.5-2.6-1.5-3.1-3c-0.5-1.5-0.3-3.1,0.5-4.3
		c-1.3-0.7-2.3-2-2.6-3.5c-0.3-1.6,0.2-3.1,1.2-4.2c-1.2-0.9-1.9-2.3-1.9-3.9c0-1.6,0.8-3,1.9-3.9c-1-1.1-1.5-2.6-1.2-4.2
		c0.3-1.6,1.3-2.8,2.6-3.5c-0.8-1.3-1-2.8-0.5-4.3c0.5-1.5,1.7-2.6,3.1-3c-0.6-1.4-0.5-3,0.3-4.3c0.8-1.4,2.2-2.2,3.6-2.4
		c-0.3-1.4,0-3,1-4.2c1-1.2,2.5-1.8,4-1.8c-0.1-1.5,0.5-3,1.8-4c1.2-1,2.8-1.3,4.2-1c0.2-1.5,1-2.8,2.4-3.6c1.4-0.8,3-0.9,4.3-0.3
		c0.5-1.4,1.5-2.6,3-3.1c1.5-0.5,3.1-0.3,4.3,0.5c0.7-1.3,2-2.3,3.5-2.6c1.6-0.3,3.1,0.2,4.2,1.2c0.9-1.2,2.3-1.9,3.9-1.9
		c1.6,0,3,0.8,3.9,1.9c1.1-1,2.6-1.5,4.2-1.2c1.6,0.3,2.8,1.3,3.5,2.6c1.3-0.8,2.8-1,4.3-0.5c1.5,0.5,2.6,1.7,3,3.1
		c1.4-0.6,3-0.5,4.3,0.3c1.4,0.8,2.2,2.2,2.4,3.6c1.4-0.3,3,0,4.2,1c1.2,1,1.8,2.5,1.8,4c1.5-0.1,3,0.5,4,1.8c1,1.2,1.3,2.8,1,4.2
		c1.5,0.2,2.8,1,3.6,2.4c0.8,1.4,0.9,3,0.3,4.3c1.4,0.5,2.6,1.5,3.1,3c0.5,1.5,0.3,3.1-0.5,4.3c1.3,0.7,2.3,2,2.6,3.5
		c0.3,1.6-0.2,3.1-1.2,4.2c1.2,0.9,1.9,2.3,1.9,3.9c0,1.6-0.8,3-1.9,3.9C102.7,62.1,103.2,63.6,102.9,65.2z"/>
	<path class="st1" d="M93.1,50.7c-0.2-1.3,0.1-2.5,0.7-3.5c-1-0.6-1.9-1.5-2.3-2.7c-0.4-1.2-0.4-2.5,0.1-3.6
		c-1.1-0.4-2.1-1.1-2.8-2.2c-0.6-1.1-0.8-2.4-0.5-3.5c-1.2-0.2-2.3-0.7-3.1-1.7c-0.8-1-1.2-2.2-1.1-3.4c-1.2,0-2.4-0.3-3.4-1.1
		c-1-0.8-1.5-1.9-1.7-3.1c-1.2,0.3-2.4,0.1-3.5-0.5c-1.1-0.6-1.9-1.6-2.2-2.8C72,23,70.7,23,69.5,22.6c-1.2-0.4-2.1-1.3-2.7-2.3
		c-1,0.6-2.2,0.9-3.5,0.7c-1.3-0.2-2.3-0.9-3.1-1.8c-0.9,0.8-2,1.3-3.3,1.3c-1.3,0-2.4-0.5-3.3-1.3c-0.7,0.9-1.8,1.6-3.1,1.8
		c-1.3,0.2-2.5-0.1-3.5-0.7c-0.6,1-1.5,1.9-2.7,2.3C43.2,23,42,23,40.9,22.5c-0.4,1.1-1.1,2.1-2.2,2.8c-1.1,0.6-2.4,0.8-3.5,0.5
		c-0.2,1.2-0.7,2.3-1.7,3.1c-1,0.8-2.2,1.2-3.4,1.1c0,1.2-0.3,2.4-1.1,3.4c-0.8,1-1.9,1.5-3.1,1.7c0.3,1.2,0.1,2.4-0.5,3.5
		c-0.6,1.1-1.6,1.9-2.8,2.2c0.4,1.1,0.5,2.4,0.1,3.6c-0.4,1.2-1.3,2.1-2.3,2.7c0.6,1,0.9,2.2,0.7,3.5C20.6,52,19.9,53,19,53.8
		c0.8,0.9,1.3,2,1.3,3.3c0,1.3-0.5,2.4-1.3,3.3c0.9,0.7,1.6,1.8,1.8,3.1c0.2,1.3-0.1,2.5-0.7,3.5c1,0.6,1.9,1.5,2.3,2.7
		c0.4,1.2,0.4,2.5-0.1,3.6c1.1,0.4,2.1,1.1,2.8,2.2c0.6,1.1,0.8,2.4,0.5,3.5c1.2,0.2,2.3,0.7,3.1,1.7c0.8,1,1.2,2.2,1.1,3.4
		c1.2,0,2.4,0.3,3.4,1.1c1,0.8,1.5,1.9,1.7,3.1c1.2-0.3,2.4-0.1,3.5,0.5c1.1,0.6,1.9,1.6,2.2,2.8c1.1-0.4,2.4-0.5,3.6-0.1
		c1.2,0.4,2.1,1.3,2.7,2.3c1-0.6,2.2-0.9,3.5-0.7c1.3,0.2,2.3,0.9,3.1,1.8c0.9-0.8,2-1.3,3.3-1.3c1.3,0,2.4,0.5,3.3,1.3
		c0.7-0.9,1.8-1.6,3.1-1.8c1.3-0.2,2.5,0.1,3.5,0.7c0.6-1,1.5-1.9,2.7-2.3c1.2-0.4,2.5-0.4,3.6,0.1c0.4-1.1,1.1-2.1,2.2-2.8
		c1.1-0.6,2.4-0.8,3.5-0.5c0.2-1.2,0.7-2.3,1.7-3.1c1-0.8,2.2-1.2,3.4-1.1c0-1.2,0.3-2.4,1.1-3.4c0.8-1,1.9-1.5,3.1-1.7
		c-0.3-1.2-0.1-2.4,0.5-3.5c0.6-1.1,1.6-1.9,2.8-2.2c-0.4-1.1-0.5-2.4-0.1-3.6c0.4-1.2,1.3-2.1,2.3-2.7c-0.6-1-0.9-2.2-0.7-3.5
		c0.2-1.3,0.9-2.3,1.8-3.1c-0.8-0.9-1.3-2-1.3-3.3c0-1.3,0.5-2.4,1.3-3.3C94,53,93.4,52,93.1,50.7z"/>
	<path class="st2" d="M103.6,57.1c0-1.6-0.8-3-1.9-3.9c1-1.1,1.5-2.6,1.2-4.2c-0.3-1.6-1.3-2.8-2.6-3.5c0.8-1.3,1-2.8,0.5-4.3
		c-0.5-1.5-1.7-2.6-3.1-3c0.6-1.4,0.5-3-0.3-4.3c-0.8-1.4-2.2-2.2-3.6-2.4c0.3-1.4,0-3-1-4.2c-1-1.2-2.5-1.8-4-1.8
		c0.1-1.5-0.5-3-1.8-4c-1.2-1-2.8-1.3-4.2-1c-0.2-1.5-1-2.8-2.4-3.6c-1.4-0.8-3-0.9-4.3-0.3c-0.5-1.4-1.5-2.6-3-3.1
		c-1.5-0.5-3.1-0.3-4.3,0.5c-0.7-1.3-2-2.3-3.5-2.6c-1.6-0.3-3.1,0.2-4.2,1.2c-0.9-1.2-2.3-1.9-3.9-1.9c-1.6,0-3,0.8-3.9,1.9
		c-1.1-1-2.6-1.5-4.2-1.2c-1.6,0.3-2.8,1.3-3.5,2.6c-1.3-0.8-2.8-1-4.3-0.5c-1.5,0.5-2.6,1.7-3,3.1c-1.4-0.6-3-0.5-4.3,0.3
		c-1.4,0.8-2.2,2.2-2.4,3.6c-1.4-0.3-3,0-4.2,1c-1.2,1-1.8,2.5-1.8,4c-1.5-0.1-3,0.5-4,1.8c-1,1.2-1.3,2.8-1,4.2
		c-1.5,0.2-2.8,1-3.6,2.4c-0.8,1.4-0.9,3-0.3,4.3c-1.4,0.5-2.6,1.5-3.1,3c-0.5,1.5-0.3,3.1,0.5,4.3c-1.3,0.7-2.3,2-2.6,3.5
		c-0.3,1.6,0.2,3.1,1.2,4.2c-1.2,0.9-1.9,2.3-1.9,3.9c0,1.6,0.8,3,1.9,3.9c-1,1.1-1.5,2.6-1.2,4.2c0.3,1.6,1.3,2.8,2.6,3.5
		c-0.8,1.3-1,2.8-0.5,4.3c0.5,1.5,1.7,2.6,3.1,3c-0.6,1.4-0.5,3,0.3,4.3c0.8,1.4,2.2,2.2,3.6,2.4c-0.3,1.4,0,3,1,4.2
		c1,1.2,2.5,1.8,4,1.8c-0.1,1.5,0.5,3,1.8,4c1.2,1,2.8,1.3,4.2,1c0.2,1.5,1,2.8,2.4,3.6c1.4,0.8,3,0.9,4.3,0.3
		c0.5,1.4,1.5,2.6,3,3.1c1.5,0.5,3.1,0.3,4.3-0.5c0.7,1.3,2,2.3,3.5,2.6c1.6,0.3,3.1-0.2,4.2-1.2c0.9,1.2,2.3,1.9,3.9,1.9
		c1.6,0,3-0.8,3.9-1.9c1.1,1,2.6,1.5,4.2,1.2c1.6-0.3,2.8-1.3,3.5-2.6c1.3,0.8,2.8,1,4.3,0.5c1.5-0.5,2.6-1.7,3-3.1
		c1.4,0.6,3,0.5,4.3-0.3c1.4-0.8,2.2-2.2,2.4-3.6c1.4,0.3,3,0,4.2-1c1.2-1,1.8-2.5,1.8-4c1.5,0.1,3-0.5,4-1.8c1-1.2,1.3-2.8,1-4.2
		c1.5-0.2,2.8-1,3.6-2.4c0.8-1.4,0.9-3,0.3-4.3c1.4-0.5,2.6-1.5,3.1-3c0.5-1.5,0.3-3.1-0.5-4.3c1.3-0.7,2.3-2,2.6-3.5
		c0.3-1.6-0.2-3.1-1.2-4.2C102.9,60.1,103.6,58.7,103.6,57.1z M95,60.4c-0.9,0.7-1.6,1.8-1.8,3.1c-0.2,1.3,0.1,2.5,0.7,3.5
		c-1,0.6-1.9,1.5-2.3,2.7c-0.4,1.2-0.4,2.5,0.1,3.6c-1.1,0.4-2.1,1.1-2.8,2.2c-0.6,1.1-0.8,2.4-0.5,3.5c-1.2,0.2-2.3,0.7-3.1,1.7
		c-0.8,1-1.2,2.2-1.1,3.4c-1.2,0-2.4,0.3-3.4,1.1c-1,0.8-1.5,1.9-1.7,3.1c-1.2-0.3-2.4-0.1-3.5,0.5c-1.1,0.6-1.9,1.6-2.2,2.8
		c-1.1-0.4-2.4-0.5-3.6-0.1c-1.2,0.4-2.1,1.3-2.7,2.3c-1-0.6-2.2-0.9-3.5-0.7c-1.3,0.2-2.3,0.9-3.1,1.8c-0.9-0.8-2-1.3-3.3-1.3
		c-1.3,0-2.4,0.5-3.3,1.3c-0.7-0.9-1.8-1.6-3.1-1.8c-1.3-0.2-2.5,0.1-3.5,0.7c-0.6-1-1.5-1.9-2.7-2.3c-1.2-0.4-2.5-0.4-3.6,0.1
		c-0.4-1.1-1.1-2.1-2.2-2.8c-1.1-0.6-2.4-0.8-3.5-0.5c-0.2-1.2-0.7-2.3-1.7-3.1c-1-0.8-2.2-1.2-3.4-1.1c0-1.2-0.3-2.4-1.1-3.4
		c-0.8-1-1.9-1.5-3.1-1.7c0.3-1.2,0.1-2.4-0.5-3.5c-0.6-1.1-1.6-1.9-2.8-2.2c0.4-1.1,0.5-2.4,0.1-3.6c-0.4-1.2-1.3-2.1-2.3-2.7
		c0.6-1,0.9-2.2,0.7-3.5c-0.2-1.3-0.9-2.3-1.8-3.1c0.8-0.9,1.3-2,1.3-3.3c0-1.3-0.5-2.4-1.3-3.3c0.9-0.7,1.6-1.8,1.8-3.1
		c0.2-1.3-0.1-2.5-0.7-3.5c1-0.6,1.9-1.5,2.3-2.7c0.4-1.2,0.4-2.5-0.1-3.6c1.1-0.4,2.1-1.1,2.8-2.2c0.6-1.1,0.8-2.4,0.5-3.5
		c1.2-0.2,2.3-0.7,3.1-1.7c0.8-1,1.2-2.2,1.1-3.4c1.2,0,2.4-0.3,3.4-1.1c1-0.8,1.5-1.9,1.7-3.1c1.2,0.3,2.4,0.1,3.5-0.5
		c1.1-0.6,1.9-1.6,2.2-2.8c1.1,0.4,2.4,0.5,3.6,0.1c1.2-0.4,2.1-1.3,2.7-2.3c1,0.6,2.2,0.9,3.5,0.7c1.3-0.2,2.3-0.9,3.1-1.8
		c0.9,0.8,2,1.3,3.3,1.3c1.3,0,2.4-0.5,3.3-1.3c0.7,0.9,1.8,1.6,3.1,1.8c1.3,0.2,2.5-0.1,3.5-0.7c0.6,1,1.5,1.9,2.7,2.3
		c1.2,0.4,2.5,0.4,3.6-0.1c0.4,1.1,1.1,2.1,2.2,2.8c1.1,0.6,2.4,0.8,3.5,0.5c0.2,1.2,0.7,2.3,1.7,3.1c1,0.8,2.2,1.2,3.4,1.1
		c0,1.2,0.3,2.4,1.1,3.4c0.8,1,1.9,1.5,3.1,1.7c-0.3,1.2-0.1,2.4,0.5,3.5c0.6,1.1,1.6,1.9,2.8,2.2c-0.4,1.1-0.5,2.4-0.1,3.6
		c0.4,1.2,1.3,2.1,2.3,2.7c-0.6,1-0.9,2.2-0.7,3.5C93.4,52,94,53,95,53.8c-0.8,0.9-1.3,2-1.3,3.3C93.7,58.4,94.2,59.5,95,60.4z"/>
	<path class="st3" d="M103.6,57.1c0-1.6-0.8-3-1.9-3.9c1-1.1,1.5-2.6,1.2-4.2c-0.3-1.6-1.3-2.8-2.6-3.5c0.8-1.3,1-2.8,0.5-4.3
		c-0.5-1.5-1.7-2.6-3.1-3c0.6-1.4,0.5-3-0.3-4.3c-0.8-1.4-2.2-2.2-3.6-2.4c0.3-1.4,0-3-1-4.2c-1-1.2-2.5-1.8-4-1.8
		c0.1-1.5-0.5-3-1.8-4c-1.2-1-2.8-1.3-4.2-1c-0.2-1.5-1-2.8-2.4-3.6c-1.4-0.8-3-0.9-4.3-0.3c-0.5-1.4-1.5-2.6-3-3.1
		c-1.5-0.5-3.1-0.3-4.3,0.5c-0.7-1.3-2-2.3-3.5-2.6c-1.6-0.3-3.1,0.2-4.2,1.2c-0.9-1.2-2.3-1.9-3.9-1.9c-1.6,0-3,0.8-3.9,1.9
		c-1.1-1-2.6-1.5-4.2-1.2c-1.6,0.3-2.8,1.3-3.5,2.6c-1.3-0.8-2.8-1-4.3-0.5c-1.5,0.5-2.6,1.7-3,3.1c-1.4-0.6-3-0.5-4.3,0.3
		c-1.4,0.8-2.2,2.2-2.4,3.6c-1.4-0.3-3,0-4.2,1c-1.2,1-1.8,2.5-1.8,4c-1.5-0.1-3,0.5-4,1.8c-1,1.2-1.3,2.8-1,4.2
		c-1.5,0.2-2.8,1-3.6,2.4c-0.8,1.4-0.9,3-0.3,4.3c-1.4,0.5-2.6,1.5-3.1,3c-0.5,1.5-0.3,3.1,0.5,4.3c-1.3,0.7-2.3,2-2.6,3.5
		c-0.3,1.6,0.2,3.1,1.2,4.2c-1.2,0.9-1.9,2.3-1.9,3.9c0,1.6,0.8,3,1.9,3.9c-1,1.1-1.5,2.6-1.2,4.2c0.3,1.6,1.3,2.8,2.6,3.5
		c-0.8,1.3-1,2.8-0.5,4.3c0.5,1.5,1.7,2.6,3.1,3c-0.6,1.4-0.5,3,0.3,4.3c0.8,1.4,2.2,2.2,3.6,2.4c-0.3,1.4,0,3,1,4.2
		c1,1.2,2.5,1.8,4,1.8c-0.1,1.5,0.5,3,1.8,4c1.2,1,2.8,1.3,4.2,1c0.2,1.5,1,2.8,2.4,3.6c1.4,0.8,3,0.9,4.3,0.3
		c0.5,1.4,1.5,2.6,3,3.1c1.5,0.5,3.1,0.3,4.3-0.5c0.7,1.3,2,2.3,3.5,2.6c1.6,0.3,3.1-0.2,4.2-1.2c0.9,1.2,2.3,1.9,3.9,1.9
		c1.6,0,3-0.8,3.9-1.9c1.1,1,2.6,1.5,4.2,1.2c1.6-0.3,2.8-1.3,3.5-2.6c1.3,0.8,2.8,1,4.3,0.5c1.5-0.5,2.6-1.7,3-3.1
		c1.4,0.6,3,0.5,4.3-0.3c1.4-0.8,2.2-2.2,2.4-3.6c1.4,0.3,3,0,4.2-1c1.2-1,1.8-2.5,1.8-4c1.5,0.1,3-0.5,4-1.8c1-1.2,1.3-2.8,1-4.2
		c1.5-0.2,2.8-1,3.6-2.4c0.8-1.4,0.9-3,0.3-4.3c1.4-0.5,2.6-1.5,3.1-3c0.5-1.5,0.3-3.1-0.5-4.3c1.3-0.7,2.3-2,2.6-3.5
		c0.3-1.6-0.2-3.1-1.2-4.2C102.9,60.1,103.6,58.7,103.6,57.1z"/>
	<path class="st4" d="M57,105.2c-1.5,0-2.9-0.5-4.1-1.5c-1,0.5-2,0.8-3.2,0.8c-0.4,0-0.7,0-1.1-0.1c-1.5-0.3-2.8-1-3.8-2.2
		c-0.7,0.2-1.4,0.4-2.2,0.4c-0.7,0-1.5-0.1-2.2-0.4c-1.4-0.5-2.6-1.5-3.3-2.8c-0.4,0.1-0.7,0.1-1.1,0.1c-1.1,0-2.2-0.3-3.2-0.9
		c-1.3-0.8-2.3-1.9-2.8-3.3c-1.5,0-2.9-0.5-4.1-1.5c-1.2-1-1.9-2.3-2.2-3.8c-1.5-0.3-2.8-1-3.8-2.2c-1-1.2-1.5-2.6-1.5-4.1
		c-1.4-0.5-2.6-1.5-3.3-2.8c-0.8-1.3-1-2.8-0.8-4.3c-1.3-0.7-2.3-1.9-2.8-3.3c-0.5-1.4-0.5-2.9,0-4.3c-1.1-1-1.9-2.3-2.2-3.8
		c-0.3-1.5,0-3,0.7-4.3c-0.9-1.1-1.5-2.6-1.5-4.1c0-1.5,0.5-2.9,1.5-4.1c-0.7-1.3-1-2.8-0.7-4.3c0.3-1.5,1-2.8,2.2-3.8
		c-0.5-1.4-0.5-2.9,0-4.3c0.5-1.4,1.5-2.6,2.8-3.3c-0.3-1.5,0-3,0.8-4.3c0.8-1.3,1.9-2.3,3.3-2.8c0-1.5,0.5-2.9,1.5-4.1
		c1-1.1,2.3-1.9,3.8-2.2c0.3-1.5,1-2.8,2.2-3.8c1.1-1,2.6-1.5,4.1-1.5c0.5-1.4,1.5-2.6,2.8-3.3c1-0.6,2.1-0.9,3.2-0.9
		c0.4,0,0.7,0,1.1,0.1c0.7-1.3,1.9-2.3,3.3-2.8c0.7-0.3,1.4-0.4,2.2-0.4c0.7,0,1.5,0.1,2.2,0.4c1-1.1,2.3-1.9,3.8-2.2
		c0.4-0.1,0.7-0.1,1.1-0.1c1.1,0,2.2,0.3,3.2,0.8C54,9.6,55.5,9,57,9c1.5,0,2.9,0.5,4.1,1.5c1-0.5,2-0.8,3.2-0.8
		c0.4,0,0.7,0,1.1,0.1c1.5,0.3,2.8,1,3.8,2.2c0.7-0.2,1.4-0.4,2.2-0.4c0.7,0,1.5,0.1,2.2,0.4c1.4,0.5,2.6,1.5,3.3,2.8
		c0.4-0.1,0.7-0.1,1.1-0.1c1.1,0,2.2,0.3,3.2,0.9c1.3,0.8,2.3,1.9,2.8,3.3c1.5,0,2.9,0.5,4.1,1.5c1.2,1,1.9,2.3,2.2,3.8
		c1.5,0.3,2.8,1,3.8,2.2c1,1.2,1.5,2.6,1.5,4.1c1.4,0.5,2.6,1.5,3.3,2.8c0.8,1.3,1,2.8,0.8,4.3c1.3,0.7,2.3,1.9,2.8,3.3
		c0.5,1.4,0.5,2.9,0,4.3c1.1,1,1.9,2.3,2.2,3.8c0.3,1.5,0,3-0.7,4.3c0.9,1.1,1.5,2.6,1.5,4.1c0,1.5-0.5,2.9-1.5,4.1
		c0.7,1.3,1,2.8,0.7,4.3c-0.3,1.5-1,2.8-2.2,3.8c0.5,1.4,0.5,2.9,0,4.3c-0.5,1.4-1.5,2.6-2.8,3.3c0.3,1.5,0,3-0.8,4.3
		c-0.8,1.3-1.9,2.3-3.3,2.8c0,1.5-0.5,2.9-1.5,4.1c-1,1.1-2.3,1.9-3.8,2.2c-0.3,1.5-1,2.8-2.2,3.8c-1.1,1-2.6,1.5-4.1,1.5
		c-0.5,1.4-1.5,2.6-2.8,3.3c-1,0.6-2.1,0.9-3.2,0.9c-0.4,0-0.7,0-1.1-0.1c-0.7,1.3-1.9,2.3-3.3,2.8c-0.7,0.3-1.4,0.4-2.2,0.4
		c-0.7,0-1.5-0.1-2.2-0.4c-1,1.1-2.3,1.9-3.8,2.2c-0.4,0.1-0.7,0.1-1.1,0.1c-1.1,0-2.2-0.3-3.2-0.8C59.9,104.6,58.5,105.2,57,105.2z
		"/>
	<path class="st5" d="M103.6,57.1c0-1.6-0.8-3-1.9-3.9c1-1.1,1.5-2.6,1.2-4.2c-0.3-1.6-1.3-2.8-2.6-3.5c0.8-1.3,1-2.8,0.5-4.3
		c-0.5-1.5-1.7-2.6-3.1-3c0.6-1.4,0.5-3-0.3-4.3c-0.8-1.4-2.2-2.2-3.6-2.4c0.3-1.4,0-3-1-4.2c-1-1.2-2.5-1.8-4-1.8
		c0.1-1.5-0.5-3-1.8-4c-1.2-1-2.8-1.3-4.2-1c-0.2-1.5-1-2.8-2.4-3.6c-1.4-0.8-3-0.9-4.3-0.3c-0.5-1.4-1.5-2.6-3-3.1
		c-1.5-0.5-3.1-0.3-4.3,0.5c-0.7-1.3-2-2.3-3.5-2.6c-1.6-0.3-3.1,0.2-4.2,1.2c-0.9-1.2-2.3-1.9-3.9-1.9c-1.6,0-3,0.8-3.9,1.9
		c-1.1-1-2.6-1.5-4.2-1.2c-1.6,0.3-2.8,1.3-3.5,2.6c-1.3-0.8-2.8-1-4.3-0.5c-1.5,0.5-2.6,1.7-3,3.1c-1.4-0.6-3-0.5-4.3,0.3
		c-1.4,0.8-2.2,2.2-2.4,3.6c-1.4-0.3-3,0-4.2,1c-1.2,1-1.8,2.5-1.8,4c-1.5-0.1-3,0.5-4,1.8c-1,1.2-1.3,2.8-1,4.2
		c-1.5,0.2-2.8,1-3.6,2.4c-0.8,1.4-0.9,3-0.3,4.3c-1.4,0.5-2.6,1.5-3.1,3c-0.5,1.5-0.3,3.1,0.5,4.3c-1.3,0.7-2.3,2-2.6,3.5
		c-0.3,1.6,0.2,3.1,1.2,4.2c-1.2,0.9-1.9,2.3-1.9,3.9c0,1.6,0.8,3,1.9,3.9c-1,1.1-1.5,2.6-1.2,4.2c0.3,1.6,1.3,2.8,2.6,3.5
		c-0.8,1.3-1,2.8-0.5,4.3c0.5,1.5,1.7,2.6,3.1,3c-0.6,1.4-0.5,3,0.3,4.3c0.8,1.4,2.2,2.2,3.6,2.4c-0.3,1.4,0,3,1,4.2
		c1,1.2,2.5,1.8,4,1.8c-0.1,1.5,0.5,3,1.8,4c1.2,1,2.8,1.3,4.2,1c0.2,1.5,1,2.8,2.4,3.6c1.4,0.8,3,0.9,4.3,0.3
		c0.5,1.4,1.5,2.6,3,3.1c1.5,0.5,3.1,0.3,4.3-0.5c0.7,1.3,2,2.3,3.5,2.6c1.6,0.3,3.1-0.2,4.2-1.2c0.9,1.2,2.3,1.9,3.9,1.9
		c1.6,0,3-0.8,3.9-1.9c1.1,1,2.6,1.5,4.2,1.2c1.6-0.3,2.8-1.3,3.5-2.6c1.3,0.8,2.8,1,4.3,0.5c1.5-0.5,2.6-1.7,3-3.1
		c1.4,0.6,3,0.5,4.3-0.3c1.4-0.8,2.2-2.2,2.4-3.6c1.4,0.3,3,0,4.2-1c1.2-1,1.8-2.5,1.8-4c1.5,0.1,3-0.5,4-1.8c1-1.2,1.3-2.8,1-4.2
		c1.5-0.2,2.8-1,3.6-2.4c0.8-1.4,0.9-3,0.3-4.3c1.4-0.5,2.6-1.5,3.1-3c0.5-1.5,0.3-3.1-0.5-4.3c1.3-0.7,2.3-2,2.6-3.5
		c0.3-1.6-0.2-3.1-1.2-4.2C102.9,60.1,103.6,58.7,103.6,57.1z"/>
</g>
<g>
	<defs>
		<circle id="SVGID_1_" cx="56.7" cy="56.7" r="56.7"/>
	</defs>
	<clipPath id="SVGID_00000043430245983437419040000012343180252472572060_">
		<use xlink:href="#SVGID_1_"  style="overflow:visible;"/>
	</clipPath>
	<path style="clip-path:url(#SVGID_00000043430245983437419040000012343180252472572060_);fill:#A86540;" d="M80.7,39.9
		c-3-4.6-6.2-8.8-10-11.9c3.2-3.3,4.5-8.4,3.2-12.7c-0.4-1.2-1-2.3-1.7-3.2c-1.2-1.5-3.5-1.3-4.4,0.3l-6.4,11
		c-3.5-0.8-7.6-0.8-12.4,0.3c-4.1,0.9-7.5,2.2-10.4,3.9l-8.9-8.9c-1.3-1.3-3.4-1-4.3,0.6c-0.5,1.1-0.9,2.3-0.9,3.7
		c-0.2,4.5,2.4,9.1,6.3,11.5c-4.3,5.8-5.4,13.3-4.3,21c-2.6,2.5-4.3,6-4.4,10c-1.5-0.9-3.1-1.4-5-1.4c-5.3,0-9.6,4.3-9.6,9.6
		c0,5.3,4.3,9.6,9.6,9.6c0.7,0,1.4-0.1,2.1-0.2l0,0c0-0.1-2.8,14.5,2.1,17.8l0,0l-2.8,5c0,0,37.3,20.2,62,10.7l-7.7-42l-0.3,0
		c3.8-1.6,7.7-3.7,11.3-6.3c0.9-0.6,1.8-1.2,2.7-1.6c4.8-2.2,8.2-7.1,8.2-12.7C94.6,46.2,88.4,39.9,80.7,39.9z M30.3,78.5
		c0.9,0.4,1.9,0.7,2.9,0.9l-2,3.6C31,81.8,30.8,80.3,30.3,78.5z"/>
	<g style="clip-path:url(#SVGID_00000043430245983437419040000012343180252472572060_);">
		<path class="st8" d="M22.3,72c0.8,1.6,1.2,3.4,1.1,4.3c-0.1,0.7-0.1,1.5,0,2.2c0.9,5,5.8,5.8,5.8,5.8c-3.8-2.8-3.9-5.9-3.9-7.3
			c0-0.8,0.3-1.6,0.3-2.4c0-1.9-1.1-3.6-1.1-3.6c-0.9-2.2-2.5-3.3-3.9-4c-1.9-1-4.4-1-6.3-0.4c0,0-5.2,1.9-4.7,6.2
			c0,0,1.6-3,4.8-4.1C17.6,67.5,20.9,69,22.3,72z"/>
		<path class="st8" d="M10.9,74.3c0,0,1.8-2.7,4.8-2.8c2-0.1,3.9,0.8,4.5,2.7c0.3,0.8,0.4,1.8,0.3,3.2c0,0-0.2,10.2,7.3,11.8
			c0,0-5.9-5-5.5-11.8c0,0,0.2-7.2-5-7.6C17.3,69.7,12.2,68.8,10.9,74.3z"/>
		<g>
			<path class="st8" d="M18.4,83.2c0.2,0,0.5-0.1,0.7-0.1l0,0c0,0-0.2,0.9-0.3,2.3c0.8,3.3,2.4,7.6,5.7,9.1c0,0-4.9-8.9-5.1-17.1
				c-0.1-5.6-4.3-4.7-4.3-4.7s-4.2,0.8-3.1,4.9c0,0,0.6,2.9,2.9,2.8c0.9-0.1,1.7-1.3,1.7-1.3c-0.9,0.6-1.7,0.1-2.2-0.4
				c-0.5-0.6-0.8-1.3-0.7-2c0-0.3,0.1-0.6,0.3-0.9c0.4-0.7,1.1-1.1,1.9-1c0.1,0,0.1,0,0.2,0c1,0.3,2.2,1.4,2,5.7
				C18.1,80.4,17.9,81.6,18.4,83.2z"/>
		</g>
	</g>
</g>
<g>
	<path class="st9" d="M83.7,68.3c0.8-0.7,1.8-1.2,2.7-1.6c4.8-2.2,8.2-7.1,8.2-12.7c0-7.7-6.2-14-14-14C67.2,41.1,61,55.7,61,55.7
		l-9.3,2.2c-13.5-12-25.4-2.4-25.4-2.4c-2.7,2.6-4.4,6.2-4.4,10.2c0,7.7,6.3,14,14,14C35.9,79.7,69.1,82,83.7,68.3z"/>
</g>
<g id="왼쪽_귀">
	<path class="st9" d="M28,24.3l6.7,7.3L32,33.8c0,0-5.3-3-5.5-8.9C26.5,24.1,27.5,23.7,28,24.3z"/>
</g>
<g id="오른쪽_귀">
	<path class="st9" d="M70.9,17.1l-5.1,8.6l3.1,1.6c0,0,4.6-4.1,3.5-10C72.2,16.7,71.2,16.5,70.9,17.1z"/>
</g>
<g>
	<path class="st8" d="M51.6,36.1c0,0,3.5-4.4,0.1-12.9c-0.9,0.1-1.9,0.3-2.9,0.5c-0.8,0.2-1.5,0.3-2.2,0.5
		C46.7,25.3,46.6,33,51.6,36.1z"/>
	<path class="st8" d="M57.3,32.4c0,0,3.4-4.4,2.2-9.3c-1.2-0.2-2.5-0.3-3.9-0.3C55.6,23.3,54,29.2,57.3,32.4z"/>
	<path class="st8" d="M45.2,34.9c0,0,1.6-5.6-1.6-9.7c-1.2,0.4-2.4,0.9-3.5,1.5C40.1,27,40.9,33.2,45.2,34.9z"/>
</g>
<g id="표정_3_">
	<path class="st10" d="M51,56.9c0.3,1.5-0.6,3-2.1,3.4c-1.5,0.3-3-0.6-3.4-2.1c-0.3-1.5,0.6-3,2.1-3.4C49.2,54.4,50.7,55.4,51,56.9z
		"/>
	<path class="st10" d="M66.5,53.3c0.3,1.5-0.6,3-2.1,3.4c-1.5,0.3-3-0.6-3.4-2.1c-0.3-1.5,0.6-3,2.1-3.4
		C64.7,50.8,66.2,51.8,66.5,53.3z"/>
	<ellipse transform="matrix(0.9751 -0.2218 0.2218 0.9751 -11.4886 14.0073)" class="st11" cx="56.6" cy="58.2" rx="5" ry="4.6"/>
	<path class="st10" d="M59.5,57.5c-0.6,0.4-1.1,0.6-1.5,0.5c-0.2-0.1-0.4-0.2-0.6-0.4c0.4-0.3,0.6-0.6,0.5-1
		c-0.1-0.6-0.9-0.9-1.8-0.8c-0.9,0.2-1.5,0.8-1.4,1.3c0.1,0.4,0.5,0.7,1.1,0.8c0,0.3-0.1,0.6-0.3,0.8c-0.3,0.3-0.8,0.5-1.5,0.5l0,1
		c0.1,0,0.1,0,0.2,0c1,0,1.7-0.3,2.1-0.9c0.2-0.3,0.4-0.6,0.4-0.9c0.2,0.2,0.5,0.4,0.9,0.5c0.2,0.1,0.4,0.1,0.6,0.1
		c0.6,0,1.2-0.2,1.8-0.7L59.5,57.5z"/>
	<path class="st12" d="M46.7,65.7c0,3-2.4,5.4-5.4,5.4c-3,0-5.4-2.4-5.4-5.4c0-3,2.4-5.4,5.4-5.4C44.3,60.3,46.7,62.7,46.7,65.7z"/>
	<path class="st12" d="M78.5,58.7c0,3-2.4,5.4-5.4,5.4c-3,0-5.4-2.4-5.4-5.4c0-3,2.4-5.4,5.4-5.4C76.1,53.3,78.5,55.7,78.5,58.7z"/>
</g>
<path id="뒷_손_4_" class="st13" d="M70.5,103.2c0,0,14.6-2.7,20.2-8.6c3.2-3.4,1.5-9-3-9.9c-1.1-0.2-2.5-0.2-4.2,0.1L66.6,91
	L70.5,103.2z"/>
<g id="도토리_1_">
	<path id="도토리" class="st14" d="M118.4,44.7c13.8,6.9,7.9,24.2,7.9,24.2c-6.5,19.4-23.8,16.7-30.7,21.3
		c-3.2,2.1-5.2,0.6-6.2-1.6C86.8,82.5,68.9,74.9,73,54.9c0,0,3.2-18.2,18.8-17.3L118.4,44.7z"/>
	<path class="st15" d="M111.5,37.9l2.2-2.9c0.4-0.6,0.2-1.3-0.5-1.6l-6-2.2c-0.6-0.2-1.3,0.2-1.4,0.8l-0.5,3.4
		c-0.6-0.2-1.2-0.3-1.8-0.4c-6.5-1.3-22.6,1.3-27.8,12.4c0,0,9.2-0.9,18.3,0.1c5.9,0.6,11.7,2.2,17.1,4.8c0,0,14.2,6.5,16.1,11.4
		C127.3,63.6,130.8,47.8,111.5,37.9z"/>
	<g>
		<defs>
			<path id="SVGID_00000167360327530085019350000005818575858455280778_" d="M108.7,36.5c-1.6-0.7-3.3-1.2-5.1-1.6
				c-6.5-1.3-22.6,1.3-27.8,12.4c0,0,9.2-0.9,18.3,0.1c5.9,0.6,11.7,2.2,17.1,4.8c0,0,14.2,6.5,16.1,11.4c0,0,0.1-0.5,0.1-0.6
				c0-0.1,0-0.3,0.1-0.5C127.9,58.7,127.9,44.9,108.7,36.5z"/>
		</defs>
		<clipPath id="SVGID_00000013905596749812248220000007838262041027069591_">
			<use xlink:href="#SVGID_00000167360327530085019350000005818575858455280778_"  style="overflow:visible;"/>
		</clipPath>
		<path style="clip-path:url(#SVGID_00000013905596749812248220000007838262041027069591_);fill:#AC7538;" d="M127.1,63.7l0.9-0.4
			l-4.4-9.3l2.5-5.3l-0.9-0.4l-2.2,4.6l-2.2-4.6l2.1-4.5l-0.9-0.4l-1.8,3.8l-2.2-4.6l1-2.2l-0.9-0.4l-0.7,1.5l-3.8-8l-0.9,0.4
			l4.1,8.7l-1.9,4l-2-4.3l1.4-2.8l-0.9-0.4l-1.1,2.1l-2.4-5l0.1-0.3l-0.4-0.2l-0.7-1.6l-0.9,0.4l0.8,1.6l-1.9,4l-2.2-4.6l0.6-1.2
			l-0.9-0.4l-0.5,1.1l-0.4,0.2l0.2,0.3l-1.9,4l-2.2-4.6l0.1-0.1l-0.1-0.1l-0.9-1.9L97.8,33l0.8,1.7l-1.9,4l-2.2-4.6l0.9-1.8
			l-0.9-0.4l-3,6.3l-2-4.2L89,34.1l2-4.3l-0.9-0.4l-3.8,8l-0.1-0.1l-0.9,0.4l0.4,0.9l-1.9,4L81.6,38l-0.9,0.4l2.6,5.4L81,48.6
			l-4.6-9.8l-0.9,0.4l5,10.5l-0.3,0.7l0.8,0.4l1.1,2.3l0.9-0.4l-1.4-2.9l2.3-4.8l2.2,4.6l-0.7,1.5l0.9,0.4l0.4-0.8l0.7,1.5l0.9-0.4
			l-1.1-2.2l1.9-4l2.2,4.6l-1.2,2.4l0.9,0.4l0.8-1.7l0.1,0.2l0.9-0.4l-0.4-0.9l1.9-4l2.2,4.6L95,53.9l0.9,0.4l3.6-7.5l2.2,4.6
			l-1.7,3.7l0.9,0.4l1.7-3.6l0.4-0.2l-0.2-0.4l1.9-4l2.3,4.8l-2.6,5.2l0.9,0.4l2.2-4.5l2.6,5.4l0.9-0.4l-0.3-0.6l0.1,0.1l1.9-3.9
			l2.2,4.6l-0.6,1.2l0.9,0.4l2.7-5.6l2.2,4.6l-1.4,2.9l0.9,0.4l1.6-3.3l0,0l0,0l1.9-4L127.1,63.7z M117.5,43.5l2.2,4.6l-1.9,4
			l-2.2-4.6L117.5,43.5z M114.5,47.5l-1.9,4l-2.1-4.4l1.9-3.9L114.5,47.5z M109.6,37.1l2.4,5L110,46l-2.3-4.9L109.6,37.1z
			 M104.4,36.5l2.2,4.6l-1.9,4l-2.2-4.6L104.4,36.5z M99.2,35.9l2.2,4.6l-1.9,4l-2.2-4.6L99.2,35.9z M93.9,35.2l2.2,4.6l-1.9,4
			L92,39.2L93.9,35.2z M88.7,34.6l2.2,4.6l-1.9,4l-2.2-4.6L88.7,34.6z M86.6,48.4l-2.2-4.6l1.9-4l2.2,4.6L86.6,48.4z M91.8,49.1
			l-2.2-4.6l1.9-4l2.2,4.6L91.8,49.1z M97,49.7L94.8,45l1.9-4l2.2,4.6L97,49.7z M102.2,50.3l-2.2-4.6l1.9-4l2.2,4.6L102.2,50.3z
			 M105.2,46.3l1.9-4l2.3,4.9l-1.9,3.9L105.2,46.3z M110.2,56.7l-2.1-4.5l1.9-3.9l2.1,4.4L110.2,56.7z M115.4,57.4l-2.2-4.6l1.9-4
			l2.2,4.6L115.4,57.4z M120.6,58l-2.2-4.6l1.9-4l2.2,4.6L120.6,58z"/>
	</g>
	<g>
		<defs>
			<path id="도토리_2_" d="M118.4,44.7c14,7,7.7,24.4,7.7,24.4c-6.5,19.4-23.6,16.5-30.5,21.1c-3.2,2.1-5.2,0.6-6.2-1.6
				C86.8,82.5,68.9,74.9,73,54.9c0,0,3.2-18.2,18.8-17.3L118.4,44.7z"/>
		</defs>
		<clipPath id="도토리_00000084508612839942954620000012587936098032712076_">
			<use xlink:href="#도토리_2_"  style="overflow:visible;"/>
		</clipPath>
		<g style="display:none;clip-path:url(#도토리_00000084508612839942954620000012587936098032712076_);">
			<path class="st18" d="M73.2,54.9c0,0,7.8-0.5,13.1,1.8"/>
			<path class="st18" d="M72.9,58.2c0,0,3.8-0.6,10.1,1.3"/>
			<path class="st18" d="M72.4,61.5c0,0,2.1-0.6,7.3,0.6"/>
		</g>
		<g style="display:none;clip-path:url(#도토리_00000084508612839942954620000012587936098032712076_);">
			<path class="st18" d="M120.7,79c0,0-6.5-4.5-12.1-5.2"/>
			<path class="st18" d="M119.2,81.9c0,0-2.9-2.5-9.3-4.1"/>
			<path class="st18" d="M117.9,85.1c0,0-1.5-1.7-6.6-3.3"/>
		</g>
		<g style="clip-path:url(#도토리_00000084508612839942954620000012587936098032712076_);">
			<path class="st20" d="M86.1,57.2c-0.1,0-0.1,0-0.2,0c-5.1-2.2-12.8-1.8-12.8-1.8c-0.3,0-0.5-0.2-0.5-0.5c0-0.3,0.2-0.5,0.5-0.5
				c0.3,0,8-0.4,13.3,1.9c0.3,0.1,0.4,0.4,0.3,0.7C86.4,57.1,86.2,57.2,86.1,57.2z"/>
			<path class="st20" d="M82.7,60c0,0-0.1,0-0.1,0c-6.1-1.9-9.8-1.3-9.8-1.3c-0.3,0-0.5-0.1-0.6-0.4c0-0.3,0.1-0.5,0.4-0.6
				c0.2,0,4-0.6,10.3,1.3c0.3,0.1,0.4,0.4,0.3,0.6C83.2,59.9,83,60,82.7,60z"/>
			<path class="st20" d="M79.5,62.6c0,0-0.1,0-0.1,0c-4.9-1.1-7-0.6-7.1-0.6c-0.3,0.1-0.5-0.1-0.6-0.3c-0.1-0.3,0.1-0.5,0.3-0.6
				c0.1,0,2.3-0.6,7.6,0.6c0.3,0.1,0.4,0.3,0.4,0.6C80,62.4,79.8,62.6,79.5,62.6z"/>
		</g>
		<g style="clip-path:url(#도토리_00000084508612839942954620000012587936098032712076_);">
			<path class="st20" d="M120.3,79.5c-0.1,0-0.2,0-0.3-0.1c-0.1,0-6.4-4.4-11.9-5.2c-0.3,0-0.5-0.3-0.4-0.6c0-0.3,0.3-0.5,0.6-0.4
				c5.7,0.8,12.1,5.1,12.3,5.3c0.2,0.2,0.5,0.4,0.1,0.7C120.6,79.3,120.5,79.5,120.3,79.5z"/>
			<path class="st20" d="M118.9,82.4c-0.1,0-0.2,0-0.3-0.1c0,0-2.9-2.5-9.1-4c-0.3-0.1-0.4-0.3-0.4-0.6c0.1-0.3,0.3-0.4,0.6-0.4
				c6.4,1.6,9.3,4.1,9.5,4.2c0.2,0.2,0.2,0.5,0.1,0.7C119.1,82.4,119,82.4,118.9,82.4z"/>
			<path class="st20" d="M117.6,85.6c-0.1,0-0.3-0.1-0.4-0.2l0,0c0,0-1.5-1.6-6.3-3.2c-0.3-0.1-0.4-0.4-0.3-0.6
				c0.1-0.3,0.4-0.4,0.6-0.3c5.1,1.7,6.7,3.4,6.7,3.5c0.2,0.2,0.2,0.5,0,0.7C117.8,85.5,117.7,85.6,117.6,85.6z"/>
		</g>
	</g>
</g>
<g id="앞_손_3_">
	<path class="st13" d="M72.5,77.2c0,0,8.6-3.9,12.6,2.2c0,0,4,6.9-2.7,12.2c0,0-15.8,10.9-23.2,10.6l-2-19.3L72.5,77.2z"/>
	<path class="st21" d="M59.2,102.2c0,0,25.7-8.4,27.1-18.9C86.3,83.3,88.9,97.8,59.2,102.2z"/>
</g>
</svg>
