<?xml version="1.0" encoding="utf-8"?>
<!-- Generator: Adobe Illustrator 26.5.0, SVG Export Plug-In . SVG Version: 6.00 Build 0)  -->
<svg version="1.1" id="Layer_1" xmlns="http://www.w3.org/2000/svg" xmlns:xlink="http://www.w3.org/1999/xlink" x="0px" y="0px"
	 viewBox="0 0 127.6 113.4" style="enable-background:new 0 0 127.6 113.4;" xml:space="preserve">
<style type="text/css">
	.st0{fill:#F9D8DC;}
	.st1{display:none;fill:#FCE8D5;}
	.st2{display:none;fill:#FFFFFF;}
	.st3{fill:#FFFFFF;}
	
		.st4{display:none;fill:none;stroke:#EEC7AB;stroke-width:0.75;stroke-linecap:round;stroke-linejoin:round;stroke-miterlimit:10;stroke-dasharray:1,3;}
	.st5{display:none;fill:none;stroke:#FFFFFF;stroke-miterlimit:10;}
	.st6{clip-path:url(#SVGID_00000061442431771213705940000011950315577086990234_);fill:#F6C0C4;}
	.st7{clip-path:url(#SVGID_00000061442431771213705940000011950315577086990234_);fill:#FBE7EB;}
	.st8{clip-path:url(#SVGID_00000061442431771213705940000011950315577086990234_);fill:#68482E;}
	.st9{clip-path:url(#SVGID_00000061442431771213705940000011950315577086990234_);fill:#FDFDF7;}
	.st10{clip-path:url(#SVGID_00000061442431771213705940000011950315577086990234_);fill:#F6D8CB;}
	.st11{fill:#EE7D3F;}
	.st12{fill:#4B9437;}
	.st13{fill:#D36936;}
	.st14{fill:#E595A2;}
	.st15{fill:#D94154;}
	.st16{fill:#BA2E44;}
	.st17{fill:#F6C0C4;}
</style>
<g>
	<circle class="st0" cx="56.7" cy="56.7" r="56.7"/>
	<g id="스칼럽_1_">
		<path class="st1" d="M63.7,0C32.4,0,7,25.4,7,56.7s25.4,56.7,56.7,56.7c31.3,0,56.7-25.4,56.7-56.7S95,0,63.7,0z M109.6,65.2
			c-0.3,1.6-1.3,2.8-2.6,3.5c0.8,1.3,1,2.8,0.5,4.3c-0.5,1.5-1.7,2.6-3.1,3c0.6,1.4,0.5,3-0.3,4.3c-0.8,1.4-2.2,2.2-3.6,2.4
			c0.3,1.4,0,3-1,4.2c-1,1.2-2.5,1.8-4,1.8c0.1,1.5-0.5,3-1.8,4c-1.2,1-2.8,1.3-4.2,1c-0.2,1.5-1,2.8-2.4,3.6
			c-1.4,0.8-3,0.9-4.3,0.3c-0.5,1.4-1.5,2.6-3,3.1c-1.5,0.5-3.1,0.3-4.3-0.5c-0.7,1.3-2,2.3-3.5,2.6c-1.6,0.3-3.1-0.2-4.2-1.2
			c-0.9,1.2-2.3,1.9-3.9,1.9c-1.6,0-3-0.8-3.9-1.9c-1.1,1-2.6,1.5-4.2,1.2c-1.6-0.3-2.8-1.3-3.5-2.6c-1.3,0.8-2.8,1-4.3,0.5
			c-1.5-0.5-2.6-1.7-3-3.1c-1.4,0.6-3,0.5-4.3-0.3c-1.4-0.8-2.2-2.2-2.4-3.6c-1.4,0.3-3,0-4.2-1c-1.2-1-1.8-2.5-1.8-4
			c-1.5,0.1-3-0.5-4-1.8c-1-1.2-1.3-2.8-1-4.2c-1.5-0.2-2.8-1.1-3.6-2.4c-0.8-1.4-0.9-3-0.3-4.3c-1.4-0.5-2.6-1.5-3.1-3
			c-0.5-1.5-0.3-3.1,0.5-4.3c-1.3-0.7-2.3-2-2.6-3.5C17.5,63.6,18,62.1,19,61c-1.2-0.9-1.9-2.3-1.9-3.9c0-1.6,0.8-3,1.9-3.9
			c-1-1.1-1.5-2.6-1.2-4.2c0.3-1.6,1.3-2.8,2.6-3.5c-0.8-1.3-1-2.8-0.5-4.3c0.5-1.5,1.7-2.6,3.1-3c-0.6-1.4-0.5-3,0.3-4.3
			c0.8-1.4,2.2-2.2,3.6-2.4c-0.3-1.4,0-3,1-4.2c1-1.2,2.5-1.8,4-1.8c-0.1-1.5,0.5-3,1.8-4c1.2-1,2.8-1.3,4.2-1
			c0.2-1.5,1-2.8,2.4-3.6c1.4-0.8,3-0.9,4.3-0.3c0.5-1.4,1.5-2.6,3-3.1c1.5-0.5,3.1-0.3,4.3,0.5c0.7-1.3,2-2.3,3.5-2.6
			c1.6-0.3,3.1,0.2,4.2,1.2c0.9-1.2,2.3-1.9,3.9-1.9c1.6,0,3,0.8,3.9,1.9c1.1-1,2.6-1.5,4.2-1.2c1.6,0.3,2.8,1.3,3.5,2.6
			c1.3-0.8,2.8-1,4.3-0.5c1.5,0.5,2.6,1.7,3,3.1c1.4-0.6,3-0.5,4.3,0.3c1.4,0.8,2.2,2.2,2.4,3.6c1.4-0.3,3,0,4.2,1
			c1.2,1,1.8,2.5,1.8,4c1.5-0.1,3,0.5,4,1.8c1,1.2,1.3,2.8,1,4.2c1.5,0.2,2.8,1,3.6,2.4c0.8,1.4,0.9,3,0.3,4.3
			c1.4,0.5,2.6,1.5,3.1,3c0.5,1.5,0.3,3.1-0.5,4.3c1.3,0.7,2.3,2,2.6,3.5c0.3,1.6-0.2,3.1-1.2,4.2c1.2,0.9,1.9,2.3,1.9,3.9
			c0,1.6-0.8,3-1.9,3.9C109.4,62.1,109.9,63.6,109.6,65.2z"/>
		<path class="st1" d="M99.9,50.7c-0.2-1.3,0.1-2.5,0.7-3.5c-1-0.6-1.9-1.5-2.3-2.7c-0.4-1.2-0.4-2.5,0.1-3.6
			c-1.1-0.4-2.1-1.1-2.8-2.2c-0.6-1.1-0.8-2.4-0.5-3.5c-1.2-0.2-2.3-0.7-3.1-1.7c-0.8-1-1.2-2.2-1.1-3.4c-1.2,0-2.4-0.3-3.4-1.1
			c-1-0.8-1.5-1.9-1.7-3.1c-1.2,0.3-2.4,0.1-3.5-0.5c-1.1-0.6-1.9-1.6-2.2-2.8c-1.1,0.4-2.4,0.5-3.6,0.1c-1.2-0.4-2.1-1.3-2.7-2.3
			c-1,0.6-2.2,0.9-3.5,0.7c-1.3-0.2-2.3-0.9-3.1-1.8c-0.9,0.8-2,1.3-3.3,1.3c-1.3,0-2.4-0.5-3.3-1.3c-0.7,0.9-1.8,1.6-3.1,1.8
			c-1.3,0.2-2.5-0.1-3.5-0.7c-0.6,1-1.5,1.9-2.7,2.3c-1.2,0.4-2.5,0.4-3.6-0.1c-0.4,1.1-1.1,2.1-2.2,2.8c-1.1,0.6-2.4,0.8-3.5,0.5
			c-0.2,1.2-0.7,2.3-1.7,3.1c-1,0.8-2.2,1.2-3.4,1.1c0,1.2-0.3,2.4-1.1,3.4c-0.8,1-1.9,1.5-3.1,1.7c0.3,1.2,0.1,2.4-0.5,3.5
			c-0.6,1.1-1.6,1.9-2.8,2.2c0.4,1.1,0.5,2.4,0.1,3.6c-0.4,1.2-1.3,2.1-2.3,2.7c0.6,1,0.9,2.2,0.7,3.5c-0.2,1.3-0.9,2.3-1.8,3.1
			c0.8,0.9,1.3,2,1.3,3.3c0,1.3-0.5,2.4-1.3,3.3c0.9,0.7,1.6,1.8,1.8,3.1c0.2,1.3-0.1,2.5-0.7,3.5c1,0.6,1.9,1.5,2.3,2.7
			c0.4,1.2,0.4,2.5-0.1,3.6c1.1,0.4,2.1,1.1,2.8,2.2c0.6,1.1,0.8,2.4,0.5,3.5c1.2,0.2,2.3,0.7,3.1,1.7c0.8,1,1.2,2.2,1.1,3.4
			c1.2,0,2.4,0.3,3.4,1.1c1,0.8,1.5,1.9,1.7,3.1c1.2-0.3,2.4-0.1,3.5,0.5c1.1,0.6,1.9,1.6,2.2,2.8c1.1-0.4,2.4-0.5,3.6-0.1
			c1.2,0.4,2.1,1.3,2.7,2.3c1-0.6,2.2-0.9,3.5-0.7c1.3,0.2,2.3,0.9,3.1,1.8c0.9-0.8,2-1.3,3.3-1.3c1.3,0,2.4,0.5,3.3,1.3
			c0.7-0.9,1.8-1.6,3.1-1.8c1.3-0.2,2.5,0.1,3.5,0.7c0.6-1,1.5-1.9,2.7-2.3c1.2-0.4,2.5-0.4,3.6,0.1c0.4-1.1,1.1-2.1,2.2-2.8
			c1.1-0.6,2.4-0.8,3.5-0.5c0.2-1.2,0.7-2.3,1.7-3.1c1-0.8,2.2-1.2,3.4-1.1c0-1.2,0.3-2.4,1.1-3.4c0.8-1,1.9-1.5,3.1-1.7
			c-0.3-1.2-0.1-2.4,0.5-3.5c0.6-1.1,1.6-1.9,2.8-2.2c-0.4-1.1-0.5-2.4-0.1-3.6c0.4-1.2,1.3-2.1,2.3-2.7c-0.6-1-0.9-2.2-0.7-3.5
			c0.2-1.3,0.9-2.3,1.8-3.1c-0.8-0.9-1.3-2-1.3-3.3c0-1.3,0.5-2.4,1.3-3.3C100.8,53,100.1,52,99.9,50.7z"/>
		<path class="st2" d="M110.3,57.1c0-1.6-0.8-3-1.9-3.9c1-1.1,1.5-2.6,1.2-4.2c-0.3-1.6-1.3-2.8-2.6-3.5c0.8-1.3,1-2.8,0.5-4.3
			c-0.5-1.5-1.7-2.6-3.1-3c0.6-1.4,0.5-3-0.3-4.3c-0.8-1.4-2.2-2.2-3.6-2.4c0.3-1.4,0-3-1-4.2c-1-1.2-2.5-1.8-4-1.8
			c0.1-1.5-0.5-3-1.8-4c-1.2-1-2.8-1.3-4.2-1c-0.2-1.5-1-2.8-2.4-3.6c-1.4-0.8-3-0.9-4.3-0.3c-0.5-1.4-1.5-2.6-3-3.1
			c-1.5-0.5-3.1-0.3-4.3,0.5c-0.7-1.3-2-2.3-3.5-2.6c-1.6-0.3-3.1,0.2-4.2,1.2c-0.9-1.2-2.3-1.9-3.9-1.9c-1.6,0-3,0.8-3.9,1.9
			c-1.1-1-2.6-1.5-4.2-1.2c-1.6,0.3-2.8,1.3-3.5,2.6c-1.3-0.8-2.8-1-4.3-0.5c-1.5,0.5-2.6,1.7-3,3.1c-1.4-0.6-3-0.5-4.3,0.3
			c-1.4,0.8-2.2,2.2-2.4,3.6c-1.4-0.3-3,0-4.2,1c-1.2,1-1.8,2.5-1.8,4c-1.5-0.1-3,0.5-4,1.8c-1,1.2-1.3,2.8-1,4.2
			c-1.5,0.2-2.8,1-3.6,2.4c-0.8,1.4-0.9,3-0.3,4.3c-1.4,0.5-2.6,1.5-3.1,3c-0.5,1.5-0.3,3.1,0.5,4.3c-1.3,0.7-2.3,2-2.6,3.5
			c-0.3,1.6,0.2,3.1,1.2,4.2c-1.2,0.9-1.9,2.3-1.9,3.9c0,1.6,0.8,3,1.9,3.9c-1,1.1-1.5,2.6-1.2,4.2c0.3,1.6,1.3,2.8,2.6,3.5
			c-0.8,1.3-1,2.8-0.5,4.3c0.5,1.5,1.7,2.6,3.1,3c-0.6,1.4-0.5,3,0.3,4.3c0.8,1.4,2.2,2.2,3.6,2.4c-0.3,1.4,0,3,1,4.2
			c1,1.2,2.5,1.8,4,1.8c-0.1,1.5,0.5,3,1.8,4c1.2,1,2.8,1.3,4.2,1c0.2,1.5,1,2.8,2.4,3.6c1.4,0.8,3,0.9,4.3,0.3
			c0.5,1.4,1.5,2.6,3,3.1c1.5,0.5,3.1,0.3,4.3-0.5c0.7,1.3,2,2.3,3.5,2.6c1.6,0.3,3.1-0.2,4.2-1.2c0.9,1.2,2.3,1.9,3.9,1.9
			c1.6,0,3-0.8,3.9-1.9c1.1,1,2.6,1.5,4.2,1.2c1.6-0.3,2.8-1.3,3.5-2.6c1.3,0.8,2.8,1,4.3,0.5c1.5-0.5,2.6-1.7,3-3.1
			c1.4,0.6,3,0.5,4.3-0.3c1.4-0.8,2.2-2.2,2.4-3.6c1.4,0.3,3,0,4.2-1c1.2-1,1.8-2.5,1.8-4c1.5,0.1,3-0.5,4-1.8c1-1.2,1.3-2.8,1-4.2
			c1.5-0.2,2.8-1.1,3.6-2.4c0.8-1.4,0.9-3,0.3-4.3c1.4-0.5,2.6-1.5,3.1-3c0.5-1.5,0.3-3.1-0.5-4.3c1.3-0.7,2.3-2,2.6-3.5
			c0.3-1.6-0.2-3.1-1.2-4.2C109.6,60.1,110.3,58.7,110.3,57.1z M101.7,60.4c-0.9,0.7-1.6,1.8-1.8,3.1c-0.2,1.3,0.1,2.5,0.7,3.5
			c-1,0.6-1.9,1.5-2.3,2.7c-0.4,1.2-0.4,2.5,0.1,3.6c-1.1,0.4-2.1,1.1-2.8,2.2c-0.6,1.1-0.8,2.4-0.5,3.5c-1.2,0.2-2.3,0.7-3.1,1.7
			c-0.8,1-1.2,2.2-1.1,3.4c-1.2,0-2.4,0.3-3.4,1.1c-1,0.8-1.5,1.9-1.7,3.1c-1.2-0.3-2.4-0.1-3.5,0.5c-1.1,0.6-1.9,1.6-2.2,2.8
			c-1.1-0.4-2.4-0.5-3.6-0.1c-1.2,0.4-2.1,1.3-2.7,2.3c-1-0.6-2.2-0.9-3.5-0.7c-1.3,0.2-2.3,0.9-3.1,1.8c-0.9-0.8-2-1.3-3.3-1.3
			c-1.3,0-2.4,0.5-3.3,1.3c-0.7-0.9-1.8-1.6-3.1-1.8c-1.3-0.2-2.5,0.1-3.5,0.7c-0.6-1-1.5-1.9-2.7-2.3c-1.2-0.4-2.5-0.4-3.6,0.1
			c-0.4-1.1-1.1-2.1-2.2-2.8c-1.1-0.6-2.4-0.8-3.5-0.5c-0.2-1.2-0.7-2.3-1.7-3.1c-1-0.8-2.2-1.2-3.4-1.1c0-1.2-0.3-2.4-1.1-3.4
			c-0.8-1-1.9-1.5-3.1-1.7c0.3-1.2,0.1-2.4-0.5-3.5c-0.6-1.1-1.6-1.9-2.8-2.2c0.4-1.1,0.5-2.4,0.1-3.6c-0.4-1.2-1.3-2.1-2.3-2.7
			c0.6-1,0.9-2.2,0.7-3.5c-0.2-1.3-0.9-2.3-1.8-3.1c0.8-0.9,1.3-2,1.3-3.3c0-1.3-0.5-2.4-1.3-3.3c0.9-0.7,1.6-1.8,1.8-3.1
			c0.2-1.3-0.1-2.5-0.7-3.5c1-0.6,1.9-1.5,2.3-2.7c0.4-1.2,0.4-2.5-0.1-3.6c1.1-0.4,2.1-1.1,2.8-2.2c0.6-1.1,0.8-2.4,0.5-3.5
			c1.2-0.2,2.3-0.7,3.1-1.7c0.8-1,1.2-2.2,1.1-3.4c1.2,0,2.4-0.3,3.4-1.1c1-0.8,1.5-1.9,1.7-3.1c1.2,0.3,2.4,0.1,3.5-0.5
			c1.1-0.6,1.9-1.6,2.2-2.8c1.1,0.4,2.4,0.5,3.6,0.1c1.2-0.4,2.1-1.3,2.7-2.3c1,0.6,2.2,0.9,3.5,0.7c1.3-0.2,2.3-0.9,3.1-1.8
			c0.9,0.8,2,1.3,3.3,1.3c1.3,0,2.4-0.5,3.3-1.3c0.7,0.9,1.8,1.6,3.1,1.8c1.3,0.2,2.5-0.1,3.5-0.7c0.6,1,1.5,1.9,2.7,2.3
			c1.2,0.4,2.5,0.4,3.6-0.1c0.4,1.1,1.1,2.1,2.2,2.8c1.1,0.6,2.4,0.8,3.5,0.5c0.2,1.2,0.7,2.3,1.7,3.1c1,0.8,2.2,1.2,3.4,1.1
			c0,1.2,0.3,2.4,1.1,3.4c0.8,1,1.9,1.5,3.1,1.7c-0.3,1.2-0.1,2.4,0.5,3.5c0.6,1.1,1.6,1.9,2.8,2.2c-0.4,1.1-0.5,2.4-0.1,3.6
			c0.4,1.2,1.3,2.1,2.3,2.7c-0.6,1-0.9,2.2-0.7,3.5c0.2,1.3,0.9,2.3,1.8,3.1c-0.8,0.9-1.3,2-1.3,3.3
			C100.4,58.4,100.9,59.5,101.7,60.4z"/>
		<path class="st3" d="M103.3,57.1c0-1.6-0.8-3-1.9-3.9c1-1.1,1.5-2.6,1.2-4.2c-0.3-1.6-1.3-2.8-2.6-3.5c0.8-1.3,1-2.8,0.5-4.3
			c-0.5-1.5-1.7-2.6-3.1-3c0.6-1.4,0.5-3-0.3-4.3c-0.8-1.4-2.2-2.2-3.6-2.4c0.3-1.4,0-3-1-4.2c-1-1.2-2.5-1.8-4-1.8
			c0.1-1.5-0.5-3-1.8-4c-1.2-1-2.8-1.3-4.2-1c-0.2-1.5-1-2.8-2.4-3.6c-1.4-0.8-3-0.9-4.3-0.3c-0.5-1.4-1.5-2.6-3-3.1
			c-1.5-0.5-3.1-0.3-4.3,0.5c-0.7-1.3-2-2.3-3.5-2.6c-1.6-0.3-3.1,0.2-4.2,1.2c-0.9-1.2-2.3-1.9-3.9-1.9c-1.6,0-3,0.8-3.9,1.9
			c-1.1-1-2.6-1.5-4.2-1.2c-1.6,0.3-2.8,1.3-3.5,2.6c-1.3-0.8-2.8-1-4.3-0.5c-1.5,0.5-2.6,1.7-3,3.1c-1.4-0.6-3-0.5-4.3,0.3
			c-1.4,0.8-2.2,2.2-2.4,3.6c-1.4-0.3-3,0-4.2,1c-1.2,1-1.8,2.5-1.8,4c-1.5-0.1-3,0.5-4,1.8c-1,1.2-1.3,2.8-1,4.2
			c-1.5,0.2-2.8,1-3.6,2.4c-0.8,1.4-0.9,3-0.3,4.3c-1.4,0.5-2.6,1.5-3.1,3c-0.5,1.5-0.3,3.1,0.5,4.3c-1.3,0.7-2.3,2-2.6,3.5
			c-0.3,1.6,0.2,3.1,1.2,4.2c-1.2,0.9-1.9,2.3-1.9,3.9c0,1.6,0.8,3,1.9,3.9c-1,1.1-1.5,2.6-1.2,4.2c0.3,1.6,1.3,2.8,2.6,3.5
			c-0.8,1.3-1,2.8-0.5,4.3c0.5,1.5,1.7,2.6,3.1,3c-0.6,1.4-0.5,3,0.3,4.3c0.8,1.4,2.2,2.2,3.6,2.4c-0.3,1.4,0,3,1,4.2
			c1,1.2,2.5,1.8,4,1.8c-0.1,1.5,0.5,3,1.8,4c1.2,1,2.8,1.3,4.2,1c0.2,1.5,1,2.8,2.4,3.6c1.4,0.8,3,0.9,4.3,0.3
			c0.5,1.4,1.5,2.6,3,3.1c1.5,0.5,3.1,0.3,4.3-0.5c0.7,1.3,2,2.3,3.5,2.6c1.6,0.3,3.1-0.2,4.2-1.2c0.9,1.2,2.3,1.9,3.9,1.9
			c1.6,0,3-0.8,3.9-1.9c1.1,1,2.6,1.5,4.2,1.2c1.6-0.3,2.8-1.3,3.5-2.6c1.3,0.8,2.8,1,4.3,0.5c1.5-0.5,2.6-1.7,3-3.1
			c1.4,0.6,3,0.5,4.3-0.3c1.4-0.8,2.2-2.2,2.4-3.6c1.4,0.3,3,0,4.2-1c1.2-1,1.8-2.5,1.8-4c1.5,0.1,3-0.5,4-1.8c1-1.2,1.3-2.8,1-4.2
			c1.5-0.2,2.8-1.1,3.6-2.4c0.8-1.4,0.9-3,0.3-4.3c1.4-0.5,2.6-1.5,3.1-3c0.5-1.5,0.3-3.1-0.5-4.3c1.3-0.7,2.3-2,2.6-3.5
			c0.3-1.6-0.2-3.1-1.2-4.2C102.6,60.1,103.3,58.7,103.3,57.1z"/>
		<path class="st4" d="M63.7,105.2c-1.5,0-2.9-0.5-4.1-1.5c-1,0.5-2,0.8-3.2,0.8c-0.4,0-0.7,0-1.1-0.1c-1.5-0.3-2.8-1-3.8-2.2
			c-0.7,0.2-1.4,0.4-2.2,0.4c-0.7,0-1.5-0.1-2.2-0.4c-1.4-0.5-2.6-1.5-3.3-2.8c-0.4,0.1-0.7,0.1-1.1,0.1c-1.1,0-2.2-0.3-3.2-0.9
			c-1.3-0.8-2.3-1.9-2.8-3.3c-1.5,0-2.9-0.5-4.1-1.5c-1.2-1-1.9-2.3-2.2-3.8c-1.5-0.3-2.8-1-3.8-2.2c-1-1.2-1.5-2.6-1.5-4.1
			c-1.4-0.5-2.6-1.5-3.3-2.8c-0.8-1.3-1-2.8-0.8-4.3C20,76.1,19,75,18.5,73.5c-0.5-1.4-0.5-2.9,0-4.3c-1.1-1-1.9-2.3-2.2-3.8
			c-0.3-1.5,0-3,0.7-4.3c-0.9-1.1-1.5-2.6-1.5-4.1c0-1.5,0.5-2.9,1.5-4.1c-0.7-1.3-1-2.8-0.7-4.3c0.3-1.5,1-2.8,2.2-3.8
			c-0.5-1.4-0.5-2.9,0-4.3c0.5-1.4,1.5-2.6,2.8-3.3c-0.3-1.5,0-3,0.8-4.3c0.8-1.3,1.9-2.3,3.3-2.8c0-1.5,0.5-2.9,1.5-4.1
			c1-1.1,2.3-1.9,3.8-2.2c0.3-1.5,1-2.8,2.2-3.8c1.1-1,2.6-1.5,4.1-1.5c0.5-1.4,1.5-2.6,2.8-3.3c1-0.6,2.1-0.9,3.2-0.9
			c0.4,0,0.7,0,1.1,0.1c0.7-1.3,1.9-2.3,3.3-2.8c0.7-0.3,1.4-0.4,2.2-0.4c0.7,0,1.5,0.1,2.2,0.4c1-1.1,2.3-1.9,3.8-2.2
			c0.4-0.1,0.7-0.1,1.1-0.1c1.1,0,2.2,0.3,3.2,0.8C60.8,9.6,62.2,9,63.7,9c1.5,0,2.9,0.5,4.1,1.5c1-0.5,2-0.8,3.2-0.8
			c0.4,0,0.7,0,1.1,0.1c1.5,0.3,2.8,1,3.8,2.2c0.7-0.2,1.4-0.4,2.2-0.4c0.7,0,1.5,0.1,2.2,0.4c1.4,0.5,2.6,1.5,3.3,2.8
			c0.4-0.1,0.7-0.1,1.1-0.1c1.1,0,2.2,0.3,3.2,0.9c1.3,0.8,2.3,1.9,2.8,3.3c1.5,0,2.9,0.5,4.1,1.5c1.2,1,1.9,2.3,2.2,3.8
			c1.5,0.3,2.8,1,3.8,2.2c1,1.2,1.5,2.6,1.5,4.1c1.4,0.5,2.6,1.5,3.3,2.8c0.8,1.3,1,2.8,0.8,4.3c1.3,0.7,2.3,1.9,2.8,3.3
			c0.5,1.4,0.5,2.9,0,4.3c1.1,1,1.9,2.3,2.2,3.8c0.3,1.5,0,3-0.7,4.3c0.9,1.1,1.5,2.6,1.5,4.1c0,1.5-0.5,2.9-1.5,4.1
			c0.7,1.3,1,2.8,0.7,4.3c-0.3,1.5-1,2.8-2.2,3.8c0.5,1.4,0.5,2.9,0,4.3c-0.5,1.4-1.5,2.6-2.8,3.3c0.3,1.5,0,3-0.8,4.3
			c-0.8,1.3-1.9,2.3-3.3,2.8c0,1.5-0.5,2.9-1.5,4.1c-1,1.1-2.3,1.9-3.8,2.2c-0.3,1.5-1,2.8-2.2,3.8c-1.1,1-2.6,1.5-4.1,1.5
			C90,96.8,89,98,87.7,98.7c-1,0.6-2.1,0.9-3.2,0.9c-0.4,0-0.7,0-1.1-0.1c-0.7,1.3-1.9,2.3-3.3,2.8c-0.7,0.3-1.4,0.4-2.2,0.4
			c-0.7,0-1.5-0.1-2.2-0.4c-1,1.1-2.3,1.9-3.8,2.2c-0.4,0.1-0.7,0.1-1.1,0.1c-1.1,0-2.2-0.3-3.2-0.8
			C66.6,104.6,65.2,105.2,63.7,105.2z"/>
		<path class="st5" d="M110.3,57.1c0-1.6-0.8-3-1.9-3.9c1-1.1,1.5-2.6,1.2-4.2c-0.3-1.6-1.3-2.8-2.6-3.5c0.8-1.3,1-2.8,0.5-4.3
			c-0.5-1.5-1.7-2.6-3.1-3c0.6-1.4,0.5-3-0.3-4.3c-0.8-1.4-2.2-2.2-3.6-2.4c0.3-1.4,0-3-1-4.2c-1-1.2-2.5-1.8-4-1.8
			c0.1-1.5-0.5-3-1.8-4c-1.2-1-2.8-1.3-4.2-1c-0.2-1.5-1-2.8-2.4-3.6c-1.4-0.8-3-0.9-4.3-0.3c-0.5-1.4-1.5-2.6-3-3.1
			c-1.5-0.5-3.1-0.3-4.3,0.5c-0.7-1.3-2-2.3-3.5-2.6c-1.6-0.3-3.1,0.2-4.2,1.2c-0.9-1.2-2.3-1.9-3.9-1.9c-1.6,0-3,0.8-3.9,1.9
			c-1.1-1-2.6-1.5-4.2-1.2c-1.6,0.3-2.8,1.3-3.5,2.6c-1.3-0.8-2.8-1-4.3-0.5c-1.5,0.5-2.6,1.7-3,3.1c-1.4-0.6-3-0.5-4.3,0.3
			c-1.4,0.8-2.2,2.2-2.4,3.6c-1.4-0.3-3,0-4.2,1c-1.2,1-1.8,2.5-1.8,4c-1.5-0.1-3,0.5-4,1.8c-1,1.2-1.3,2.8-1,4.2
			c-1.5,0.2-2.8,1-3.6,2.4c-0.8,1.4-0.9,3-0.3,4.3c-1.4,0.5-2.6,1.5-3.1,3c-0.5,1.5-0.3,3.1,0.5,4.3c-1.3,0.7-2.3,2-2.6,3.5
			c-0.3,1.6,0.2,3.1,1.2,4.2c-1.2,0.9-1.9,2.3-1.9,3.9c0,1.6,0.8,3,1.9,3.9c-1,1.1-1.5,2.6-1.2,4.2c0.3,1.6,1.3,2.8,2.6,3.5
			c-0.8,1.3-1,2.8-0.5,4.3c0.5,1.5,1.7,2.6,3.1,3c-0.6,1.4-0.5,3,0.3,4.3c0.8,1.4,2.2,2.2,3.6,2.4c-0.3,1.4,0,3,1,4.2
			c1,1.2,2.5,1.8,4,1.8c-0.1,1.5,0.5,3,1.8,4c1.2,1,2.8,1.3,4.2,1c0.2,1.5,1,2.8,2.4,3.6c1.4,0.8,3,0.9,4.3,0.3
			c0.5,1.4,1.5,2.6,3,3.1c1.5,0.5,3.1,0.3,4.3-0.5c0.7,1.3,2,2.3,3.5,2.6c1.6,0.3,3.1-0.2,4.2-1.2c0.9,1.2,2.3,1.9,3.9,1.9
			c1.6,0,3-0.8,3.9-1.9c1.1,1,2.6,1.5,4.2,1.2c1.6-0.3,2.8-1.3,3.5-2.6c1.3,0.8,2.8,1,4.3,0.5c1.5-0.5,2.6-1.7,3-3.1
			c1.4,0.6,3,0.5,4.3-0.3c1.4-0.8,2.2-2.2,2.4-3.6c1.4,0.3,3,0,4.2-1c1.2-1,1.8-2.5,1.8-4c1.5,0.1,3-0.5,4-1.8c1-1.2,1.3-2.8,1-4.2
			c1.5-0.2,2.8-1.1,3.6-2.4c0.8-1.4,0.9-3,0.3-4.3c1.4-0.5,2.6-1.5,3.1-3c0.5-1.5,0.3-3.1-0.5-4.3c1.3-0.7,2.3-2,2.6-3.5
			c0.3-1.6-0.2-3.1-1.2-4.2C109.6,60.1,110.3,58.7,110.3,57.1z"/>
	</g>
	<g id="얼굴_및_몸통_1_">
		<defs>
			<circle id="SVGID_1_" cx="56.7" cy="56.7" r="56.7"/>
		</defs>
		<clipPath id="SVGID_00000137839900524338926920000016860365086981931943_">
			<use xlink:href="#SVGID_1_"  style="overflow:visible;"/>
		</clipPath>
		<path style="clip-path:url(#SVGID_00000137839900524338926920000016860365086981931943_);fill:#F6C0C4;" d="M87.4,84.8
			c-1.1-0.2-2.5-0.2-4.2,0.1l-8.3,3.1l-1.9-10.4c3.1-1.6,6.4-3.6,8.9-5.2c1.8-2.4,3.4-4.5,4.8-6.6c0.6-0.4,1-0.7,1.3-1.1
			c0.2-0.6,0.2-1.2,0.3-1.8c0.3-0.7,0.6-1.5,0.8-2.3c0.6-2.6,0.6-5.4-0.7-8.9c-2.4-7-7.6-9.6-13.5-13.9c-2.4-1.8-5.1-4-7.9-6.2
			c-1.1-0.9-2.3-1.7-3.5-2.5c1.7-5.5,1-12-2.2-16.7c-2.2-3.2-5-5.1-8-4.9c-2.5,0.2-4.7,1.7-6.4,4.2c-2,3-2.9,6.9-2.7,10.8
			c-2-3.4-4.8-6.1-8.2-7.6c-2.8-1.2-5.5-1.3-7.7-0.1c-2.6,1.5-4,4.6-4.1,8.5c-0.1,6.3,3.6,12.9,8.9,16.4l0.8-0.5
			c-1.3,2.4-2.5,4.8-3.7,6.9c-3.7,6.4-7.3,10.8-6.7,18.2c0.3,3.8,1.4,6.3,3,8.5c1.7,2.3,4.1,3.9,7,5.6l-15.5,27.6
			c0,0,37.3,20.2,62,10.7l-2.8-15.1c4.5-1.4,10.1-3.6,13-6.8C93.5,91.3,91.9,85.7,87.4,84.8z"/>
		<path style="clip-path:url(#SVGID_00000137839900524338926920000016860365086981931943_);fill:#FBE7EB;" d="M38.8,27.7
			c-0.1-2.6-1.7-5.2-4-6.2c-1-0.4-2-0.5-2.8,0c-0.9,0.5-1.4,1.7-1.5,3.1c0,2.3,1.3,4.7,3.2,5.9L38.8,27.7z"/>
		<path style="clip-path:url(#SVGID_00000137839900524338926920000016860365086981931943_);fill:#FBE7EB;" d="M51.3,24.2
			c-1.4-2.3-1.5-5.6,0-7.7c0.6-1,1.5-1.5,2.4-1.6c1.1-0.1,2.2,0.6,3,1.8c1.3,2,1.5,4.8,0.6,7.1L51.3,24.2z"/>
		<path style="clip-path:url(#SVGID_00000137839900524338926920000016860365086981931943_);fill:#68482E;" d="M50.7,56.9
			c0.3,1.5-0.6,3-2.1,3.4c-1.5,0.3-3-0.6-3.4-2.1c-0.3-1.5,0.6-3,2.1-3.4C48.9,54.4,50.4,55.4,50.7,56.9z"/>
		<path style="clip-path:url(#SVGID_00000137839900524338926920000016860365086981931943_);fill:#68482E;" d="M66.3,53.3
			c0.3,1.5-0.6,3-2.1,3.4c-1.5,0.3-3-0.6-3.4-2.1c-0.3-1.5,0.6-3,2.1-3.4C64.4,50.8,65.9,51.8,66.3,53.3z"/>
		
			<ellipse transform="matrix(0.9751 -0.2218 0.2218 0.9751 -11.4934 13.944)" style="clip-path:url(#SVGID_00000137839900524338926920000016860365086981931943_);fill:#FDFDF7;" cx="56.4" cy="58.2" rx="5" ry="4.6"/>
		<path style="clip-path:url(#SVGID_00000137839900524338926920000016860365086981931943_);fill:#68482E;" d="M59.2,57.5
			c-0.6,0.4-1.1,0.6-1.5,0.5c-0.2-0.1-0.4-0.2-0.6-0.4c0.4-0.3,0.6-0.6,0.5-1c-0.1-0.6-0.9-0.9-1.8-0.8c-0.9,0.2-1.5,0.8-1.4,1.3
			c0.1,0.4,0.5,0.7,1.1,0.8c0,0.3-0.1,0.6-0.3,0.8c-0.3,0.3-0.8,0.5-1.5,0.5l0,1c0.1,0,0.1,0,0.2,0c1,0,1.7-0.3,2.1-0.9
			c0.2-0.3,0.4-0.6,0.4-0.9c0.2,0.2,0.5,0.4,0.9,0.5c0.2,0.1,0.4,0.1,0.6,0.1c0.6,0,1.2-0.2,1.8-0.7L59.2,57.5z"/>
		<path style="clip-path:url(#SVGID_00000137839900524338926920000016860365086981931943_);fill:#F6D8CB;" d="M46.4,65.7
			c0,3-2.4,5.4-5.4,5.4c-3,0-5.4-2.4-5.4-5.4c0-3,2.4-5.4,5.4-5.4C44,60.3,46.4,62.7,46.4,65.7z"/>
		<path style="clip-path:url(#SVGID_00000137839900524338926920000016860365086981931943_);fill:#F6D8CB;" d="M78.3,58.7
			c0,3-2.4,5.4-5.4,5.4c-3,0-5.4-2.4-5.4-5.4c0-3,2.4-5.4,5.4-5.4C75.9,53.3,78.3,55.7,78.3,58.7z"/>
	</g>
	<path id="몸통" class="st11" d="M118.4,44.7c14,7,7.7,24.4,7.7,24.4c-6.5,19.4-23.2,22.3-30.7,22.5c-2.5,0.1-5-0.6-7.1-1.9
		c-6.4-4-19.5-14.8-15.4-34.9c0,0,3.2-18.2,18.9-17.3L118.4,44.7z"/>
	<path class="st12" d="M91.8,37.6l26.6,7.1l3.7-5.5c1.2-1.8-0.1-4.2-2.3-4.2h-3.6c-1.3,0-2.5-1-2.7-2.3l-0.7-4.5
		c-0.3-2.2-3-3.1-4.6-1.5l-4.6,4.4c-1,1-2.6,1-3.7,0.1l-2.9-2.5c-1.6-1.4-4.2-0.4-4.5,1.7L91.8,37.6z"/>
	<path class="st13" d="M112.6,59.4c-0.5-0.2-1.1,0.2-1.2,0.7c-0.2,0.5,0.2,1.1,0.7,1.2l14.9,4.3c0,0,0.1,0,0.1,0
		c0.1-0.6,0.2-1.3,0.3-2L112.6,59.4z"/>
	<path class="st13" d="M109.8,66.5c-0.2,0.5,0.2,1.1,0.7,1.2l14.6,4.2c0.3-0.6,0.5-1.2,0.7-1.9l-14.7-4.2
		C110.5,65.6,110,65.9,109.8,66.5z"/>
	<path class="st13" d="M108.3,72.9c-0.2,0.5,0.2,1.1,0.7,1.2l12.9,3.7c0.4-0.6,0.8-1.2,1.1-1.8l-13.5-3.9
		C109,72.1,108.5,72.4,108.3,72.9z"/>
	<path class="st14" d="M58.9,102.2c0,0,25.7-8.4,27.1-18.9C86,83.3,88.6,97.7,58.9,102.2z"/>
	<g>
		<path class="st15" d="M31.6,42c8.7-5.2,16.4-6.3,16.4-6.3L45.8,29c-0.3,0-12.1-7.5-19-1.2c-0.6,0.5-0.8,1.3-0.6,2
			c0.4,1.5,1.2,4,3,5.9c0,0-0.4,3.6,0.1,5.7c0.2,0.7,0.7,1.3,1.4,1.5c1.2,0.3,3.5,0.8,6.3,0.2c-2.6,0.3-4.3-0.1-5.3-0.3
			C31.2,42.8,31.2,42.2,31.6,42z"/>
		<path class="st16" d="M31.6,42c-0.4,0.2-0.3,0.8,0.1,1c1,0.3,2.8,0.6,5.3,0.3c3.3-0.6,7.2-2.6,10.9-7.6
			C47.9,35.7,40.2,36.8,31.6,42z"/>
		<path class="st16" d="M43.9,32.7c0,0-6.7-2.2-7.1,0c0,0,0.1,1.5,2.4,0.8c0.1,0,0.2-0.1,0.3-0.1C39.9,33.2,41.2,32.7,43.9,32.7z"/>
		<path class="st15" d="M67.9,31.7c-10.1,0-17.3,3-17.3,3L49,27.9c0.3-0.1,6.6-12.6,15.7-10.8c0.7,0.2,1.3,0.7,1.6,1.4
			c0.4,1.4,1,4,0.5,6.6c0,0,2.2,2.9,2.9,4.9c0.2,0.7,0.1,1.5-0.4,2c-0.9,0.9-2.6,2.5-5.3,3.4c2.3-1.1,3.7-2.3,4.4-3
			C68.6,32.3,68.4,31.7,67.9,31.7z"/>
		<path class="st16" d="M67.9,31.7c0.5,0,0.7,0.5,0.4,0.9c-0.7,0.8-2.1,1.9-4.4,3c-3.1,1.1-7.5,1.5-13.3-0.9
			C50.6,34.7,57.8,31.7,67.9,31.7z"/>
		<path class="st16" d="M52.6,30.1c0,0,4.7-5.3,6.1-3.6c0,0,0.6,1.4-1.7,1.9c-0.1,0-0.2,0-0.3,0C56.3,28.5,54.9,28.8,52.6,30.1z"/>
		<path class="st16" d="M48.5,27.8c-0.8-0.1-2.1,0.2-2.8,0.7c-0.8,0.6-1.6,1.4-0.9,4c0,0,0.9,4.2,4.3,3.1c0,0,3.5-0.5,2.2-4.9
			C51.3,30.6,50.7,28.1,48.5,27.8z"/>
	</g>
	<g>
		<path id="목리본" class="st15" d="M33.6,78.2L30,84.6c0,0,30.7-0.4,46.5-8.5C76.5,76.1,46.2,82.9,33.6,78.2z"/>
		<path class="st15" d="M14.4,77.3c9.8,2.6,16,7.3,16,7.3l3.3-6.2c-0.2-0.2-3.1-13.9-12.4-14.4c-0.8,0-1.5,0.4-1.9,1
			c-0.8,1.3-2,3.7-2.1,6.3c0,0-2.8,2.3-4.1,4c-0.4,0.6-0.4,1.4-0.1,2.1c0.6,1.1,1.9,3,4.2,4.7c-2-1.6-3-3.1-3.5-4.1
			C13.6,77.7,14,77.2,14.4,77.3z"/>
		<path class="st16" d="M14.4,77.3c-0.4-0.1-0.8,0.3-0.6,0.7c0.5,0.9,1.5,2.4,3.5,4.1c2.7,1.9,6.9,3.3,13.1,2.5
			C30.4,84.6,24.2,79.9,14.4,77.3z"/>
		<path class="st16" d="M29.7,79.7c0,0-3.2-6.3-5-5.1c0,0-1,1.2,1.1,2.3c0.1,0,0.2,0.1,0.3,0.1C26.5,77.2,27.8,77.8,29.7,79.7z"/>
		<path class="st16" d="M23.7,88.3c0,0-2.9,2.5-5.8,1.6l2.9,2.4l-2.4,1.9c0,0,5.4,2.5,9.6-2.8c0,0,2-2.8,2.4-6.7c0,0-2.6,0-3.3,0
			C27.1,84.6,24.9,87.6,23.7,88.3z"/>
	</g>
	<path class="st17" d="M72.2,77.2c0,0,8.6-3.9,12.6,2.2c0,0,4,6.9-2.7,12.2c0,0-15.8,10.9-23.2,10.6l-0.1-20.4L72.2,77.2z"/>
</g>
</svg>
