<?xml version="1.0" encoding="utf-8"?>
<!-- Generator: Adobe Illustrator 24.2.1, SVG Export Plug-In . SVG Version: 6.00 Build 0)  -->
<svg version="1.1" id="Layer_1" xmlns="http://www.w3.org/2000/svg" xmlns:xlink="http://www.w3.org/1999/xlink" x="0px" y="0px"
	 viewBox="0 0 375 812" style="enable-background:new 0 0 375 812;" xml:space="preserve">
<style type="text/css">
	.st0{fill:#030303;}
	.st1{fill:#FFFFFF;}
	.st2{opacity:0.5;fill:#4E4E50;}
	.st3{fill:#4E4E50;}
</style>
<path class="st0" d="M315.8,0H59.2C28.2,0,3.1,27,3.1,60.4v691.3C3.1,785,28.2,812,59.2,812h256.7c31,0,56.1-27,56.1-60.4V60.4
	C371.9,27,346.8,0,315.8,0z"/>
<g>
	<path class="st1" d="M315.5,21.1c20.4,0,37,17.8,37,39.8v690.2c0,22-16.6,39.8-37,39.8H59.5c-20.4,0-37-17.8-37-39.8V60.9
		c0-22,16.6-39.8,37-39.8H315.5z"/>
	<path class="st1" d="M315.5,21.1c20.4,0,37,17.8,37,39.8v690.2c0,22-16.6,39.8-37,39.8H59.5c-20.4,0-37-17.8-37-39.8V60.9
		c0-22,16.6-39.8,37-39.8H315.5z"/>
</g>
<path class="st2" d="M350.9,19.2c-5.7-5.2-12.4-9.1-19.5-11.3c-3.5-1.1-7.2-1.8-10.8-2.1c-1.8-0.1-3.6-0.1-5.5-0.1L309.4,6
	c-15,0.3-29.9,0.7-44.9,0.9c-15,0.3-29.9,0.3-44.9,0.5l-44.9,0.2l-44.9-0.2c-15-0.2-29.9-0.2-44.9-0.5L62.4,6.5l-2.8-0.1
	c-0.9,0-1.8,0-2.7,0c-1.8,0-3.6,0.3-5.4,0.4c-0.9,0.1-1.8,0.3-2.7,0.5C47.9,7.5,47,7.7,46.1,8l-2.6,0.7l-2.6,1
	c-0.4,0.2-0.9,0.3-1.3,0.5l-1.3,0.6c-0.8,0.4-1.7,0.8-2.5,1.2c-1.6,0.9-3.3,1.8-4.8,2.9c-1.6,1-3,2.2-4.5,3.4
	c-0.7,0.6-1.4,1.3-2.1,1.9l-1.1,1l-1,1C17.1,27.7,13,34.5,10.2,42c1.2-3.8,2.6-7.6,4.5-11.1c1.9-3.5,4.1-6.9,6.7-9.9l1-1.1l1-1.1
	c0.7-0.7,1.4-1.4,2.1-2.1c1.5-1.3,2.9-2.7,4.5-3.8c1.5-1.2,3.2-2.2,4.8-3.3c0.8-0.5,1.7-0.9,2.6-1.4l1.3-0.7
	c0.4-0.2,0.9-0.4,1.3-0.6c0.9-0.4,1.8-0.8,2.7-1.1l2.8-0.9c0.9-0.3,1.9-0.6,2.8-0.8C49.1,3.9,50,3.6,51,3.5c1.9-0.3,3.8-0.7,5.8-0.7
	c1-0.1,1.9-0.1,2.9-0.2l2.8-0.1l22.5-0.4c15-0.3,29.9-0.3,44.9-0.5l44.9-0.2l44.9,0.2c15,0.2,29.9,0.2,44.9,0.5
	c15,0.2,29.9,0.5,44.9,0.9l5.6,0.2c1.9,0,3.8,0.2,5.7,0.4c3.8,0.5,7.5,1.4,11.1,2.8c3.6,1.4,7,3.1,10.2,5.3
	C345.2,13.8,348.2,16.4,350.9,19.2z"/>
<path class="st0" d="M373.3,270.3c0.9,0,1.7-0.8,1.7-1.8v-99.2c0-1-0.8-1.8-1.7-1.8h-1.4v102.8H373.3z"/>
<g>
	<g>
		<path class="st0" d="M1.7,100.5c-0.9,0-1.7,0.8-1.7,1.8V130c0,1,0.8,1.8,1.7,1.8h1.4v-31.3H1.7z"/>
		<path class="st0" d="M1.7,154.2C0.8,154.2,0,155,0,156v48.2c0,1,0.8,1.8,1.7,1.8h1.4v-51.9H1.7z"/>
		<path class="st0" d="M1.7,222.6c-0.9,0-1.7,0.8-1.7,1.8v48.2c0,1,0.8,1.8,1.7,1.8h1.4v-51.9H1.7z"/>
	</g>
</g>
<g>
	<path class="st0" d="M96.7,20c6.1,0,6.9,6.8,6.9,6.8c0,12.8,9.6,23.2,21.5,23.2h125.2c11.9,0,21.5-10.4,21.5-23.2
		c0,0,0.4-6.8,6.5-6.8L96.7,20z M226.5,29.3c2.3,0,4.2,2,4.2,4.6c0,2.5-1.9,4.6-4.2,4.6c-2.3,0-4.2-2-4.2-4.6
		C222.3,31.3,224.2,29.3,226.5,29.3z M167.9,30.6h39.6c1.7,0,3,1.4,3,3.2c0,1.8-1.3,3.2-3,3.2h-39.6c-1.7,0-3-1.4-3-3.2
		C164.9,32,166.3,30.6,167.9,30.6z"/>
	<g>
		<path class="st3" d="M207.6,30.6h-39.6c-1.7,0-3,1.4-3,3.2c0,1.8,1.3,3.2,3,3.2h39.6c1.7,0,3-1.4,3-3.2
			C210.6,32,209.2,30.6,207.6,30.6z"/>
		<path class="st3" d="M230.8,33.8c0,2.5-1.9,4.6-4.2,4.6c-2.3,0-4.2-2-4.2-4.6c0-2.5,1.9-4.6,4.2-4.6
			C228.9,29.3,230.8,31.3,230.8,33.8z"/>
	</g>
</g>
</svg>
