<?xml version="1.0" encoding="utf-8"?>
<!-- Generator: Adobe Illustrator 26.5.0, SVG Export Plug-In . SVG Version: 6.00 Build 0)  -->
<svg version="1.1" id="Layer_1" xmlns="http://www.w3.org/2000/svg" xmlns:xlink="http://www.w3.org/1999/xlink" x="0px" y="0px"
	 viewBox="0 0 30 181.6" style="enable-background:new 0 0 30 181.6;" xml:space="preserve">
<style type="text/css">
	.st0{fill:#030303;}
	.st1{fill:#4E4E50;}
</style>
<g>
	<path class="st0" d="M30,0c0,6.1-6.8,6.9-6.8,6.9C10.4,6.9,0,16.5,0,28.4v125.2c0,11.9,10.4,21.5,23.2,21.5c0,0,6.8,0.4,6.8,6.5
		C30,181.6,30,0,30,0z M20.7,129.8c0,2.3-2,4.2-4.6,4.2c-2.5,0-4.6-1.9-4.6-4.2s2-4.2,4.6-4.2S20.7,127.5,20.7,129.8z M19.4,71.2
		v39.6c0,1.7-1.4,3-3.2,3c-1.8,0-3.2-1.3-3.2-3V71.2c0-1.7,1.4-3,3.2-3C18,68.2,19.4,69.6,19.4,71.2z"/>
	<g>
		<path class="st1" d="M19.4,110.9V71.3c0-1.7-1.4-3-3.2-3c-1.8,0-3.2,1.3-3.2,3v39.6c0,1.7,1.4,3,3.2,3
			C18,113.9,19.4,112.5,19.4,110.9z"/>
		<path class="st1" d="M16.2,134.1c-2.5,0-4.6-1.9-4.6-4.2s2-4.2,4.6-4.2c2.5,0,4.6,1.9,4.6,4.2C20.7,132.2,18.7,134.1,16.2,134.1z"
			/>
	</g>
</g>
</svg>
