<?xml version="1.0" encoding="utf-8"?>
<!-- Generator: Adobe Illustrator 24.2.1, SVG Export Plug-In . SVG Version: 6.00 Build 0)  -->
<svg version="1.1" id="Layer_1" xmlns="http://www.w3.org/2000/svg" xmlns:xlink="http://www.w3.org/1999/xlink" x="0px" y="0px"
	 viewBox="0 0 375 812" style="enable-background:new 0 0 375 812;" xml:space="preserve">
<style type="text/css">
	.st0{fill:#FFFFFF;}
</style>
<g>
	<path class="st0" d="M315.5,21.1c20.4,0,37,17.8,37,39.8v690.2c0,22-16.6,39.8-37,39.8h-256c-20.4,0-37-17.8-37-39.8V60.9
		c0-22,16.6-39.8,37-39.8C59.5,21.1,315.5,21.1,315.5,21.1z"/>
	<path class="st0" d="M315.5,21.1c20.4,0,37,17.8,37,39.8v690.2c0,22-16.6,39.8-37,39.8h-256c-20.4,0-37-17.8-37-39.8V60.9
		c0-22,16.6-39.8,37-39.8C59.5,21.1,315.5,21.1,315.5,21.1z"/>
</g>
</svg>
