<?xml version="1.0" encoding="utf-8"?>
<!-- Generator: Adobe Illustrator 26.5.0, SVG Export Plug-In . SVG Version: 6.00 Build 0)  -->
<svg version="1.1" id="Layer_1" xmlns="http://www.w3.org/2000/svg" xmlns:xlink="http://www.w3.org/1999/xlink" x="0px" y="0px"
	 viewBox="0 0 812 375" style="enable-background:new 0 0 812 375;" xml:space="preserve">
<style type="text/css">
	.st0{fill:#030303;}
	.st1{opacity:0.5;fill:#4E4E50;enable-background:new    ;}
</style>
<g>
	<path class="st0" d="M812,315.8V59.2c0-31-27-56.1-60.4-56.1H60.3C27,3.1,0,28.2,0,59.2v256.7c0,31,27,56.1,60.4,56.1h691.2
		C785,371.9,812,346.8,812,315.8z"/>
	<path class="st1" d="M792.8,350.9c5.2-5.7,9.1-12.4,11.3-19.5c1.1-3.5,1.8-7.2,2.1-10.8c0.1-1.8,0.1-3.6,0.1-5.5l-0.3-5.7
		c-0.3-15-0.7-29.9-0.9-44.9c-0.3-15-0.3-29.9-0.5-44.9l-0.2-44.9l0.2-44.9c0.2-15,0.2-29.9,0.5-44.9l0.4-22.5l0.1-2.8
		c0-0.9,0-1.8,0-2.7c0-1.8-0.3-3.6-0.4-5.4c-0.1-0.9-0.3-1.8-0.5-2.7c-0.2-0.9-0.4-1.8-0.7-2.7l-0.7-2.6l-1-2.6
		c-0.2-0.4-0.3-0.9-0.5-1.3l-0.6-1.3c-0.4-0.8-0.8-1.7-1.2-2.5c-0.9-1.6-1.8-3.3-2.9-4.8c-1-1.6-2.2-3-3.4-4.5
		c-0.6-0.7-1.3-1.4-1.9-2.1l-1-1.1l-1-1c-5.5-5.2-12.3-9.3-19.8-12.1c3.8,1.2,7.6,2.6,11.1,4.5s6.9,4.1,9.9,6.7l1.1,1l1.1,1
		c0.7,0.7,1.4,1.4,2.1,2.1c1.3,1.5,2.7,2.9,3.8,4.5c1.2,1.5,2.2,3.2,3.3,4.8c0.5,0.8,0.9,1.7,1.4,2.6l0.7,1.3
		c0.2,0.4,0.4,0.9,0.6,1.3c0.4,0.9,0.8,1.8,1.1,2.7l0.9,2.8c0.3,0.9,0.6,1.9,0.8,2.8c0.2,0.8,0.5,1.7,0.6,2.7
		c0.3,1.9,0.7,3.8,0.7,5.8c0.1,1,0.1,1.9,0.2,2.9l0.1,2.8l0.4,22.5c0.3,15,0.3,29.9,0.5,44.9l0.2,44.9l-0.2,44.9
		c-0.2,15-0.2,29.9-0.5,44.9c-0.2,15-0.5,29.9-0.9,44.9l-0.2,5.6c0,1.9-0.2,3.8-0.4,5.7c-0.5,3.8-1.4,7.5-2.8,11.1
		c-1.4,3.6-3.1,7-5.3,10.2C798.2,345.2,795.6,348.2,792.8,350.9z"/>
	<path class="st0" d="M541.7,373.3c0,0.9,0.8,1.7,1.8,1.7h99.2c1,0,1.8-0.8,1.8-1.7v-1.4H541.7V373.3z"/>
	<g>
		<g>
			<path class="st0" d="M711.5,1.7c0-0.9-0.8-1.7-1.8-1.7H682c-1,0-1.8,0.8-1.8,1.7v1.4h31.3V1.7z"/>
			<path class="st0" d="M657.8,1.7c0-0.9-0.8-1.7-1.8-1.7h-48.2c-1,0-1.8,0.8-1.8,1.7v1.4h51.9L657.8,1.7L657.8,1.7z"/>
			<path class="st0" d="M589.4,1.7c0-0.9-0.8-1.7-1.8-1.7h-48.2c-1,0-1.8,0.8-1.8,1.7v1.4h51.9L589.4,1.7L589.4,1.7z"/>
		</g>
	</g>
</g>
</svg>
