<?xml version="1.0" encoding="utf-8"?>
<!-- Generator: Adobe Illustrator 24.2.1, SVG Export Plug-In . SVG Version: 6.00 Build 0)  -->
<svg version="1.1" id="Layer_1" xmlns="http://www.w3.org/2000/svg" xmlns:xlink="http://www.w3.org/1999/xlink" x="0px" y="0px"
	 viewBox="0 0 181.6 30" style="enable-background:new 0 0 181.6 30;" xml:space="preserve">
<style type="text/css">
	.st0{fill:#030303;}
	.st1{fill:#4E4E50;}
</style>
<g>
	<path class="st0" d="M0,0c6.1,0,6.9,6.8,6.9,6.8C6.9,19.6,16.5,30,28.4,30h125.2c11.9,0,21.5-10.4,21.5-23.2c0,0,0.4-6.8,6.5-6.8H0
		z M129.8,9.3c2.3,0,4.2,2,4.2,4.6c0,2.5-1.9,4.6-4.2,4.6s-4.2-2-4.2-4.6S127.5,9.3,129.8,9.3z M71.2,10.6h39.6c1.7,0,3,1.4,3,3.2
		s-1.3,3.2-3,3.2H71.2c-1.7,0-3-1.4-3-3.2S69.6,10.6,71.2,10.6z"/>
	<g>
		<path class="st1" d="M110.9,10.6H71.3c-1.7,0-3,1.4-3,3.2s1.3,3.2,3,3.2h39.6c1.7,0,3-1.4,3-3.2S112.5,10.6,110.9,10.6z"/>
		<path class="st1" d="M134.1,13.8c0,2.5-1.9,4.6-4.2,4.6s-4.2-2-4.2-4.6c0-2.5,1.9-4.6,4.2-4.6C132.2,9.3,134.1,11.3,134.1,13.8z"
			/>
	</g>
</g>
</svg>
