<?xml version="1.0" encoding="utf-8"?>
<!-- Generator: Adobe Illustrator 24.2.1, SVG Export Plug-In . SVG Version: 6.00 Build 0)  -->
<svg version="1.1" id="Layer_1" xmlns="http://www.w3.org/2000/svg" xmlns:xlink="http://www.w3.org/1999/xlink" x="0px" y="0px"
	 viewBox="0 0 292.4 107.8" style="enable-background:new 0 0 292.4 107.8;" xml:space="preserve">
<style type="text/css">
	.st0{fill:#EDEDED;}
	.st1{opacity:0.4;fill:url(#XMLID_11_);}
	.st2{fill:#C4C4C4;}
	.st3{fill:#C5C5C5;}
	.st4{fill:#C6C6C6;}
	.st5{fill:#C7C7C7;}
	.st6{fill:#C8C8C8;}
	.st7{fill:#C9C9C9;}
	.st8{fill:#CACACA;}
	.st9{fill:#CBCBCB;}
	.st10{fill:#CCCCCC;}
	.st11{fill:#CDCDCD;}
	.st12{fill:#CECECE;}
	.st13{fill:#CFCFCF;}
	.st14{fill:#D0D0D0;}
	.st15{fill:#D1D1D1;}
	.st16{fill:#D2D2D2;}
	.st17{fill:#D3D3D3;}
	.st18{fill:#D4D4D4;}
	.st19{fill:#D5D5D5;}
	.st20{fill:#D6D6D6;}
	.st21{fill:#D7D7D7;}
	.st22{fill:#D8D8D8;}
	.st23{fill:#D9D9D9;}
	.st24{fill:#DADADA;}
	.st25{fill:#DBDBDB;}
	.st26{fill:#DCDCDC;}
	.st27{fill:#DDDDDD;}
	.st28{fill:#DEDEDE;}
	.st29{fill:#DFDFDF;}
	.st30{fill:#E0E0E0;}
	.st31{fill:#E1E1E1;}
	.st32{fill:#E2E2E2;}
	.st33{fill:#E3E3E3;}
	.st34{fill:#E4E4E4;}
	.st35{fill:#E5E5E5;}
	.st36{fill:#E6E6E6;}
	.st37{fill:#E7E7E7;}
	.st38{fill:#E8E8E8;}
	.st39{fill:#E9E9E9;}
	.st40{fill:#EAEAEA;}
	.st41{fill:#EBEBEB;}
	.st42{fill:#ECECEC;}
	.st43{fill:#F6F3F3;}
	.st44{fill:#BEBCBC;}
	.st45{fill:#BFBDBD;}
	.st46{fill:#C0BEBE;}
	.st47{fill:#C1BFBF;}
	.st48{fill:#C2C0C0;}
	.st49{fill:#C3C1C1;}
	.st50{fill:#C4C2C2;}
	.st51{fill:#C5C3C3;}
	.st52{fill:#C5C4C4;}
	.st53{fill:#C6C5C5;}
	.st54{fill:#C7C6C6;}
	.st55{fill:#C8C7C7;}
	.st56{fill:#C9C8C8;}
	.st57{fill:#CAC9C9;}
	.st58{fill:#CBCACA;}
	.st59{fill:#CCCBCB;}
	.st60{fill:#CDCCCC;}
	.st61{fill:#CECDCD;}
	.st62{fill:#CFCECE;}
	.st63{fill:#D0CFCF;}
	.st64{fill:#D1D0D0;}
	.st65{fill:#D2D1D1;}
	.st66{fill:#D3D2D2;}
	.st67{fill:#D4D3D3;}
	.st68{fill:#D5D4D4;}
	.st69{fill:#D6D5D5;}
	.st70{fill:#D7D6D6;}
	.st71{fill:#D8D7D7;}
	.st72{fill:#D9D8D8;}
	.st73{fill:#DAD9D9;}
	.st74{fill:#DBDADA;}
	.st75{fill:#DCDBDB;}
	.st76{fill:#DDDCDC;}
	.st77{fill:#DEDDDD;}
	.st78{fill:#DFDEDE;}
	.st79{fill:#E0DFDF;}
	.st80{fill:#E1E0E0;}
	.st81{fill:#E2E1E1;}
	.st82{fill:#E3E2E2;}
</style>
<g>
	<polygon id="XMLID_10_" class="st0" points="47.9,0 245.7,0.4 262.6,93.9 29.8,93.5 	"/>
	<linearGradient id="XMLID_11_" gradientUnits="userSpaceOnUse" x1="146.1745" y1="131.0775" x2="146.1745" y2="1.3883">
		<stop  offset="0.6207" style="stop-color:#FFFFFF;stop-opacity:0"/>
		<stop  offset="1" style="stop-color:#000000"/>
	</linearGradient>
	<polygon id="XMLID_9_" class="st1" points="47.9,0 245.7,0.4 262.6,93.9 29.8,93.5 	"/>
	<g id="XMLID_5_">
		<polygon id="XMLID_7_" class="st2" points="32.5,80.2 29.9,93.7 262.6,93.7 258.3,79.3 		"/>
		<polygon class="st3" points="32.5,80 29.9,93.6 262.6,93.6 258.3,79.2 		"/>
		<polygon class="st4" points="32.5,79.8 29.9,93.5 262.6,93.4 258.3,79 		"/>
		<polygon class="st5" points="32.6,79.6 29.9,93.4 262.6,93.3 258.3,78.8 		"/>
		<polygon class="st6" points="32.6,79.4 30,93.2 262.5,93.2 258.3,78.7 		"/>
		<polygon class="st7" points="32.7,79.2 30,93.1 262.5,93 258.3,78.5 		"/>
		<polygon class="st8" points="32.7,79 30,93 262.5,92.9 258.3,78.3 		"/>
		<polygon class="st9" points="32.7,78.7 30,92.8 262.5,92.7 258.3,78.1 		"/>
		<polygon class="st10" points="32.8,78.5 30,92.7 262.4,92.6 258.3,77.9 		"/>
		<polygon class="st11" points="32.8,78.3 30.1,92.6 262.4,92.4 258.4,77.7 		"/>
		<polygon class="st12" points="32.8,78.1 30.1,92.5 262.4,92.3 258.4,77.6 		"/>
		<polygon class="st13" points="32.9,77.8 30.1,92.3 262.4,92.1 258.4,77.4 		"/>
		<polygon class="st14" points="32.9,77.6 30.1,92.2 262.3,92 258.4,77.2 		"/>
		<polygon class="st15" points="33,77.4 30.2,92.1 262.3,91.8 258.4,77 		"/>
		<polygon class="st16" points="33,77.2 30.2,92 262.3,91.7 258.4,76.9 		"/>
		<polygon class="st17" points="33,77 30.2,91.8 262.3,91.5 258.4,76.7 		"/>
		<polygon class="st18" points="33.1,76.8 30.2,91.7 262.2,91.4 258.4,76.5 		"/>
		<polygon class="st19" points="33.1,76.6 30.2,91.6 262.2,91.2 258.4,76.3 		"/>
		<polygon class="st20" points="33.2,76.4 30.3,91.5 262.2,91.1 258.5,76.1 		"/>
		<polygon class="st21" points="33.2,76.1 30.3,91.3 262.2,91 258.5,76 		"/>
		<polygon class="st22" points="33.2,75.9 30.3,91.2 262.1,90.8 258.5,75.8 		"/>
		<polygon class="st23" points="33.3,75.7 30.3,91.1 262.1,90.7 258.5,75.6 		"/>
		<polygon class="st23" points="33.3,75.5 30.4,91 262.1,90.5 258.5,75.4 		"/>
		<polygon class="st24" points="33.4,75.3 30.4,90.8 262.1,90.4 258.5,75.3 		"/>
		<polygon class="st25" points="33.4,75.1 30.4,90.7 262,90.2 258.5,75.1 		"/>
		<polygon class="st26" points="33.4,74.9 30.4,90.6 262,90.1 258.5,74.9 		"/>
		<polygon class="st27" points="33.5,74.7 30.4,90.5 262,90 258.5,74.8 		"/>
		<polygon class="st28" points="33.5,74.5 30.5,90.4 262,89.8 258.5,74.6 		"/>
		<polygon class="st29" points="33.6,74.3 30.5,90.3 261.9,89.7 258.6,74.4 		"/>
		<polygon class="st30" points="33.6,74.1 30.5,90.2 261.9,89.6 258.6,74.3 		"/>
		<polygon class="st31" points="33.6,73.9 30.5,90.1 261.9,89.5 258.6,74.1 		"/>
		<polygon class="st32" points="33.7,73.7 30.6,90 261.9,89.3 258.6,74 		"/>
		<polygon class="st33" points="33.7,73.5 30.6,89.9 261.8,89.2 258.6,73.8 		"/>
		<polygon class="st34" points="33.8,73.3 30.6,89.7 261.8,89.1 258.6,73.7 		"/>
		<polygon class="st35" points="33.8,73.1 30.6,89.6 261.8,89 258.6,73.5 		"/>
		<polygon class="st36" points="33.8,72.9 30.6,89.5 261.8,88.8 258.6,73.3 		"/>
		<polygon class="st37" points="33.9,72.7 30.7,89.4 261.7,88.7 258.6,73.2 		"/>
		<polygon class="st38" points="33.9,72.6 30.7,89.3 261.7,88.6 258.7,73 		"/>
		<polygon class="st39" points="33.9,72.4 30.7,89.2 261.7,88.5 258.7,72.9 		"/>
		<polygon class="st40" points="34,72.2 30.7,89.1 261.7,88.4 258.7,72.7 		"/>
		<polygon class="st41" points="34,72 30.8,89 261.6,88.2 258.7,72.6 		"/>
		<polygon class="st42" points="34.1,71.8 30.8,88.9 261.6,88.1 258.7,72.4 		"/>
		<polygon id="XMLID_6_" class="st0" points="34.1,71.6 30.8,88.8 261.6,87.9 258.7,72.2 		"/>
	</g>
	<path id="XMLID_4_" class="st43" d="M290.9,98.8l-28.3-5H29.9l-28.3,5c-0.9,0.2-1.5,0.9-1.5,1.8v5.6c0,0.7,0.6,1.3,1.3,1.3h289.6
		c0.7,0,1.3-0.6,1.3-1.3v-5.6C292.4,99.7,291.8,98.9,290.9,98.8z"/>
	<g id="XMLID_1_">
		<polygon id="XMLID_3_" class="st44" points="283.6,97.7 262.6,93.9 29.8,93.5 8.8,97.2 		"/>
		<path class="st45" d="M29.2,93.6c0,0-5.1,0.9-5.1,0.9l-11.3,2.1c0,0-4.2,0.8-4.2,0.8c0,0,275.1,0.5,275.2,0.5l-14.2-2.7
			c0,0-6.4-1.2-6.4-1.2l-2.1,0C261.1,94,29.2,93.6,29.2,93.6z"/>
		<path class="st46" d="M28.6,93.7c0,0-5,0.9-5,1l-11.1,2.2c0,0-4.1,0.8-4,0.8c0,0,275.5,0.5,275.5,0.5l-13.9-2.7
			c0,0-6.3-1.2-6.3-1.2l-2.1,0C261.7,94.1,28.7,93.7,28.6,93.7z"/>
		<path class="st47" d="M28,93.8c-0.1,0-5,0.9-5,1l-10.8,2.3c0,0-4,0.8-3.9,0.8c0,0,275.8,0.5,275.9,0.4l-13.6-2.8
			c0-0.1-6.1-1.2-6.2-1.2l-2.1,0C262.3,94.2,28.1,93.8,28,93.8z"/>
		<path class="st48" d="M27.3,94c-0.1,0-4.9,0.9-4.9,1l-10.6,2.4c0,0.1-3.9,0.8-3.8,0.8c0,0,276.1,0.5,276.2,0.4L271,95.6
			c0-0.1-6-1.2-6.1-1.2l-2.1,0C262.8,94.4,27.5,93.9,27.3,94z"/>
		<path class="st49" d="M26.7,94.1c-0.1,0-4.8,0.9-4.8,1l-10.3,2.4c0,0.1-3.8,0.8-3.7,0.8c0,0,276.4,0.5,276.5,0.4l-13-2.9
			c0-0.1-5.9-1.2-6-1.2l-2.1-0.1C263.4,94.5,27,94,26.7,94.1z"/>
		<path class="st50" d="M26.1,94.2c-0.1,0-4.7,0.9-4.7,1l-10.1,2.5c0,0.1-3.7,0.8-3.6,0.8c0,0,276.7,0.5,276.9,0.3l-12.7-3
			c0-0.1-5.8-1.2-5.9-1.3l-2.1-0.1C263.9,94.6,26.4,94.1,26.1,94.2z"/>
		<path class="st51" d="M25.5,94.3c-0.1,0-4.6,0.9-4.6,1L11,97.9c0,0.1-3.6,0.8-3.4,0.8c0,0,277,0.5,277.2,0.3L272.4,96
			c0-0.1-5.6-1.2-5.8-1.3l-2.2-0.1C264.5,94.7,25.9,94.2,25.5,94.3z"/>
		<path class="st52" d="M24.9,94.4c-0.1,0-4.6,0.9-4.6,1.1l-9.6,2.7c0,0.1-3.4,0.9-3.3,0.9c0,0,277.3,0.5,277.6,0.3l-12-3.1
			c0-0.2-5.5-1.3-5.7-1.3l-2.2-0.1C265.1,94.8,25.3,94.3,24.9,94.4z"/>
		<path class="st53" d="M24.3,94.5c-0.2,0-4.5,0.9-4.5,1.1l-9.4,2.7c0,0.1-3.3,0.9-3.2,0.9c0,0,277.7,0.5,277.9,0.3l-11.7-3.2
			c0-0.2-5.4-1.3-5.6-1.3l-2.2-0.1C265.7,94.9,24.7,94.4,24.3,94.5z"/>
		<path class="st54" d="M23.6,94.6c-0.2,0-4.4,0.9-4.4,1.1l-9.1,2.8c0,0.2-3.2,0.9-3.1,0.9c0,0,278,0.5,278.3,0.2l-11.4-3.3
			c0-0.2-5.3-1.3-5.4-1.3l-2.2-0.1C266.2,95,24.2,94.5,23.6,94.6z"/>
		<path class="st55" d="M23,94.7c-0.2,0-4.3,0.9-4.3,1.1l-8.9,2.9c0,0.2-3.1,0.9-3,0.9c0,0,278.3,0.5,278.6,0.2l-11.1-3.3
			c0-0.2-5.1-1.3-5.3-1.3l-2.2-0.1C266.8,95.1,23.6,94.6,23,94.7z"/>
		<path class="st56" d="M22.4,94.8c-0.2,0-4.2,0.9-4.2,1.1l-8.6,3c0,0.2-3,0.9-2.8,0.9c0,0,278.6,0.5,278.9,0.2l-10.8-3.4
			c0-0.2-5-1.3-5.2-1.3l-2.2-0.1C267.4,95.2,23.1,94.7,22.4,94.8z"/>
		<path class="st57" d="M21.8,94.9c-0.2,0-4.2,0.9-4.2,1.2l-8.4,3c0,0.2-2.9,0.9-2.7,0.9c0,0,278.9,0.5,279.3,0.1l-10.5-3.5
			c0-0.2-4.9-1.3-5.1-1.3l-2.2-0.1C268,95.3,22.5,94.8,21.8,94.9z"/>
		<path class="st58" d="M21.2,95.1c-0.3,0-4.1,0.9-4.1,1.2L9,99.3c0,0.2-2.8,0.9-2.6,0.9c0,0,279.2,0.5,279.6,0.1l-10.2-3.5
			c0-0.3-4.8-1.3-5-1.4l-2.2-0.1C268.6,95.4,21.9,94.9,21.2,95.1z"/>
		<path class="st59" d="M20.6,95.2c-0.3,0-4,0.9-4,1.2l-7.9,3.2c0,0.2-2.7,0.9-2.5,0.9c0,0,279.6,0.5,280,0.1l-9.9-3.6
			c0-0.3-4.6-1.3-4.9-1.4l-2.2-0.2C269.1,95.5,21.4,95,20.6,95.2z"/>
		<path class="st60" d="M19.9,95.3c-0.3,0.1-3.9,0.9-3.9,1.2l-7.6,3.3c0,0.3-2.6,1-2.4,1c0,0,279.9,0.5,280.3,0.1l-9.6-3.6
			c0-0.3-4.5-1.3-4.8-1.4l-2.3-0.2C269.7,95.6,20.8,95.1,19.9,95.3z"/>
		<path class="st61" d="M19.3,95.4c-0.3,0.1-3.9,0.9-3.9,1.2L8.1,100c0,0.3-2.5,1-2.2,1c0,0,280.2,0.5,280.7,0l-9.3-3.7
			c0-0.3-4.4-1.3-4.7-1.4l-2.3-0.2C270.3,95.7,20.3,95.2,19.3,95.4z"/>
		<path class="st62" d="M18.7,95.5c-0.3,0.1-3.8,0.9-3.8,1.3l-7.1,3.4c0,0.3-2.4,1-2.1,1c0,0,280.5,0.5,281,0l-8.9-3.8
			c0-0.3-4.3-1.4-4.6-1.4l-2.3-0.2C270.9,95.8,19.7,95.3,18.7,95.5z"/>
		<path class="st63" d="M18.1,95.6c-0.4,0.1-3.7,0.9-3.7,1.3l-6.9,3.5c0,0.3-2.3,1-2,1c0,0,280.8,0.5,281.4,0l-8.6-3.8
			c0-0.4-4.1-1.4-4.5-1.4l-2.3-0.2C271.4,95.9,19.2,95.4,18.1,95.6z"/>
		<path class="st64" d="M17.5,95.7c-0.4,0.1-3.6,0.9-3.6,1.3l-6.7,3.6c0,0.3-2.2,1-1.9,1c0,0,281.1,0.5,281.7,0l-8.3-3.9
			c0-0.4-4-1.4-4.4-1.4L272,96C272,96,18.6,95.5,17.5,95.7z"/>
		<path class="st65" d="M16.9,95.8c-0.4,0.1-3.5,0.9-3.5,1.3l-6.4,3.7c0,0.3-2.1,1-1.8,1c0,0,281.4,0.5,282-0.1l-8-4
			c0-0.4-3.9-1.4-4.3-1.5l-2.3-0.2C272.6,96.1,18,95.6,16.9,95.8z"/>
		<path class="st66" d="M16.3,95.9c-0.4,0.1-3.5,0.9-3.5,1.3L6.6,101c0,0.3-2,1-1.7,1c0,0,281.8,0.5,282.4-0.1l-7.7-4
			c0-0.4-3.8-1.4-4.2-1.5l-2.3-0.2C273.2,96.2,17.5,95.7,16.3,95.9z"/>
		<path class="st67" d="M15.7,96c-0.4,0.1-3.4,0.9-3.4,1.3l-5.9,3.8c0,0.4-1.9,1-1.5,1c0,0,282.1,0.5,282.7-0.1l-7.4-4.1
			c0-0.4-3.6-1.4-4.1-1.5l-2.3-0.2C273.8,96.3,16.9,95.8,15.7,96z"/>
		<path class="st67" d="M15,96.1c-0.4,0.1-3.3,0.9-3.3,1.4l-5.7,3.9c0,0.4-1.8,1.1-1.4,1.1c0,0,282.4,0.5,283.1-0.2l-7.1-4.2
			c0-0.5-3.5-1.4-4-1.5l-2.3-0.2C274.3,96.4,16.4,95.9,15,96.1z"/>
		<path class="st68" d="M14.4,96.2c-0.5,0.1-3.2,0.9-3.2,1.4l-5.4,4c0,0.4-1.7,1.1-1.3,1.1c0,0,282.7,0.5,283.4-0.2l-6.8-4.2
			c0-0.5-3.4-1.4-3.8-1.5l-2.4-0.3C274.9,96.5,15.8,96,14.4,96.2z"/>
		<path class="st69" d="M13.8,96.3c-0.5,0.1-3.2,0.9-3.2,1.4l-5.2,4c0,0.4-1.6,1.1-1.2,1.1c0,0,283,0.5,283.8-0.2l-6.5-4.3
			c0-0.5-3.3-1.4-3.7-1.5l-2.4-0.3C275.5,96.6,15.3,96.1,13.8,96.3z"/>
		<path class="st70" d="M13.2,96.4c-0.5,0.1-3.1,0.9-3.1,1.4L5.2,102c0,0.4-1.5,1.1-1.1,1.1c0,0,283.3,0.5,284.1-0.2l-6.2-4.4
			c0-0.5-3.1-1.4-3.6-1.5l-2.4-0.3C276.1,96.7,14.7,96.2,13.2,96.4z"/>
		<path class="st71" d="M12.6,96.6c-0.5,0.1-3,0.9-3,1.4l-4.7,4.2c0,0.4-1.4,1.1-0.9,1.1c0,0,283.6,0.5,284.4-0.3l-5.9-4.4
			c0-0.5-3-1.5-3.5-1.5l-2.4-0.3C276.7,96.8,14.1,96.3,12.6,96.6z"/>
		<path class="st72" d="M12,96.7c-0.5,0.1-2.9,0.9-2.9,1.5l-4.4,4.3c0,0.5-1.3,1.1-0.8,1.1c0,0,284,0.5,284.8-0.3l-5.5-4.5
			c0-0.5-2.9-1.5-3.4-1.6l-2.4-0.3C277.2,96.9,13.6,96.4,12,96.7z"/>
		<path class="st73" d="M11.4,96.8c-0.6,0.1-2.8,0.9-2.8,1.5l-4.2,4.3c0,0.5-1.2,1.1-0.7,1.1c0,0,284.3,0.5,285.1-0.3l-5.2-4.5
			c0-0.6-2.8-1.5-3.3-1.6l-2.4-0.3C277.8,97,13,96.5,11.4,96.8z"/>
		<path class="st74" d="M10.8,96.9C10.2,97,8,97.8,8,98.4l-3.9,4.4c0,0.5-1.1,1.1-0.6,1.1c0,0,284.6,0.5,285.5-0.4L284,99
			c0-0.6-2.6-1.5-3.2-1.6l-2.4-0.3C278.4,97.1,12.5,96.6,10.8,96.9z"/>
		<path class="st75" d="M10.2,97c-0.6,0.1-2.7,0.9-2.7,1.5L3.8,103c0,0.5-1,1.1-0.5,1.2c0,0,284.9,0.5,285.8-0.4l-4.6-4.7
			c0-0.6-2.5-1.5-3.1-1.6l-2.4-0.3C279,97.2,11.9,96.7,10.2,97z"/>
		<path class="st76" d="M9.6,97.1C8.9,97.2,7,98,7,98.6l-3.5,4.6c0,0.5-0.9,1.2-0.3,1.2c0,0,285.2,0.5,286.2-0.4l-4.3-4.7
			c0-0.6-2.4-1.5-3-1.6l-2.4-0.3C279.6,97.3,11.4,96.8,9.6,97.1z"/>
		<path class="st77" d="M9,97.2c-0.6,0.1-2.5,0.9-2.5,1.6l-3.2,4.6c0,0.5-0.8,1.2-0.2,1.2c0,0,285.5,0.5,286.5-0.4l-4-4.8
			c0-0.6-2.3-1.5-2.9-1.6l-2.4-0.3C280.2,97.4,10.8,96.9,9,97.2z"/>
		<path class="st78" d="M8.4,97.3c-0.6,0.1-2.4,0.9-2.4,1.6l-3,4.7c0,0.5-0.6,1.2-0.1,1.2c0,0,285.9,0.5,286.8-0.5l-3.7-4.9
			c0-0.7-2.1-1.5-2.8-1.6l-2.5-0.3C280.8,97.5,10.3,97,8.4,97.3z"/>
		<path class="st79" d="M7.8,97.4c-0.7,0.1-2.4,0.9-2.4,1.6l-2.7,4.8c0,0.6-0.5,1.2,0,1.2c0,0,286.2,0.5,287.2-0.5l-3.4-4.9
			c0-0.7-2-1.5-2.7-1.7l-2.5-0.4C281.3,97.6,9.7,97.1,7.8,97.4z"/>
		<path class="st80" d="M7.2,97.5c-0.7,0.1-2.3,0.9-2.3,1.6L2.4,104c0,0.6-0.4,1.2,0.1,1.2c0,0,286.5,0.5,287.5-0.5l-3.1-5
			c0-0.7-1.9-1.5-2.6-1.7l-2.5-0.4C281.9,97.7,9.2,97.1,7.2,97.5z"/>
		<path class="st81" d="M6.6,97.6c-0.7,0.1-2.2,0.9-2.2,1.6l-2.2,5c0,0.6-0.3,1.2,0.3,1.2c0,0,286.8,0.5,287.9-0.5l-2.8-5.1
			c0-0.7-1.8-1.6-2.5-1.7l-2.5-0.4C282.6,97.8,8.7,97.2,6.6,97.6z"/>
		<path class="st82" d="M6,97.7c-0.7,0.1-2.1,0.9-2.1,1.6l-2,5c0,0.6-0.2,1.2,0.4,1.2c0,0,287.1,0.5,288.2-0.6l-2.5-5.1
			c0-0.7-1.6-1.6-2.4-1.7l-2.5-0.4C283.2,97.9,8.1,97.3,6,97.7z"/>
		<path class="st33" d="M5.4,97.8c-0.7,0.1-2.1,0.9-2.1,1.7l-1.7,5.1c0,0.6-0.1,1.2,0.5,1.2c0,0,287.4,0.5,288.6-0.6l-2.2-5.2
			c0-0.8-1.5-1.6-2.2-1.7l-2.5-0.4C283.8,97.9,7.6,97.4,5.4,97.8z"/>
		<path class="st34" d="M4.9,97.9c-0.8,0.1-2,0.9-2,1.7l-1.5,5.2c0,0.6,0,1.3,0.6,1.3c0,0,287.7,0.5,288.9-0.6l-1.8-5.3
			c0-0.8-1.4-1.6-2.1-1.7l-2.5-0.4C284.4,98,7.1,97.5,4.9,97.9z"/>
		<path class="st35" d="M4.3,98c-0.8,0.1-1.9,0.9-1.9,1.7L1.2,105c0,0.7,0.1,1.3,0.7,1.3c0,0,288.1,0.5,289.2-0.7l-1.5-5.3
			c0-0.8-1.3-1.6-2-1.7l-2.5-0.4C285,98.1,6.6,97.6,4.3,98z"/>
		<path class="st36" d="M3.7,98.1c-0.8,0.1-1.8,0.9-1.8,1.7l-1,5.3c0,0.7,0.2,1.3,0.9,1.3c0,0,288.4,0.5,289.6-0.7l-1.2-5.4
			c0-0.8-1.1-1.6-1.9-1.7l-2.5-0.4C285.7,98.2,6.1,97.7,3.7,98.1z"/>
		<path class="st37" d="M3.2,98.3c-0.8,0.1-1.7,0.9-1.7,1.7l-0.7,5.4c0,0.7,0.3,1.3,1,1.3c0,0,288.7,0.5,289.9-0.7l-0.9-5.5
			c0-0.8-1-1.6-1.8-1.8l-2.6-0.4C286.3,98.3,5.6,97.8,3.2,98.3z"/>
		<path class="st38" d="M2.6,98.4C1.8,98.5,1,99.3,1,100.1l-0.5,5.5c0,0.7,0.4,1.3,1.1,1.3c0,0,289,0.5,290.3-0.7l-0.6-5.5
			c0-0.8-0.9-1.6-1.7-1.8l-2.6-0.4C287,98.4,5.1,97.9,2.6,98.4z"/>
		<path class="st39" d="M2.1,98.5c-0.9,0.2-1.6,0.9-1.6,1.8l-0.3,5.6c0,0.7,0.5,1.3,1.2,1.3c0,0,289.3,0.5,290.6-0.8l-0.3-5.6
			c0-0.9-0.8-1.6-1.6-1.8l-2.6-0.5C287.6,98.5,4.6,98,2.1,98.5z"/>
		<path id="XMLID_2_" class="st40" d="M290.8,99l-2.6-0.5L4.1,98l-2.6,0.5C0.7,98.6,0,99.4,0,100.3l0,5.6c0,0.7,0.6,1.3,1.3,1.3
			l289.6,0.5c0.7,0,1.3-0.6,1.3-1.3l0-5.6C292.3,99.9,291.7,99.2,290.8,99z"/>
	</g>
</g>
</svg>
