<?xml version="1.0" encoding="utf-8"?>
<!-- Generator: Adobe Illustrator 26.5.0, SVG Export Plug-In . SVG Version: 6.00 Build 0)  -->
<svg version="1.1" id="Layer_1" xmlns="http://www.w3.org/2000/svg" xmlns:xlink="http://www.w3.org/1999/xlink" x="0px" y="0px"
	 viewBox="0 0 240 234" style="enable-background:new 0 0 240 234;" xml:space="preserve">
<style type="text/css">
	.st0{fill:#00005B;}
	.st1{fill:#9999FF;}
</style>
<g id="Layer_2_00000085219462688512177670000011988101813094673032_">
	<g id="Surfaces">
		<g id="Video_Audio_Surface">
			<g id="Outline_no_shadow">
				<path class="st0" d="M3,194.5v-155C3,16,22-3,45.5-3h149C218-3,237,16,237,39.5v155c0,23.5-19,42.5-42.5,42.5h-149
					C22,237,3,218,3,194.5z"/>
			</g>
		</g>
	</g>
	<g id="Outlined_Mnemonics_Logos">
		<g id="Ae">
			<path class="st1" d="M143,140.6v37.2l23.6,7.6c0.9,0.2,1.5,1,1.4,1.9v18.8c0,1.1-0.6,1.4-1.8,1.1L73.9,175c-1-0.3-1.9-0.6-3.1-1
				c-2.1-0.4-4.3-0.6-6.5-0.6c-0.5,0.1-1-0.3-1.1-0.8c0-0.1,0-0.2,0-0.3v-25.6c0-0.7,0.3-1.2,0.8-1.3l102.5-36.5
				c1.1-0.3,1.6,0,1.6,1v20.9c0.1,0.7-0.4,1.4-1.1,1.6L143,140.6z M123.1,172v-25.4c-2.1,0.6-4.6,1.4-7.2,2.3
				c-2.7,0.9-5.6,1.8-8.6,2.7c-3.1,1-6.1,1.9-9.2,2.9c-3.1,1-6,1.9-8.9,2.7c-2.8,0.8-5.4,1.5-7.8,2.2v0.2c4.3,0.9,8.6,2,12.9,3.4
				c4.8,1.5,9.8,3,14.8,4.6C114.2,168.9,118.9,170.5,123.1,172z"/>
			<path class="st1" d="M133.8,49.6v31.7c3.1-0.4,6.2-1.4,8.9-3.1c2.7-1.8,4.8-4.3,6-7.3c1.7-4,2.6-8.4,2.5-12.8
				c-0.1-3.5-0.4-7-1.1-10.4c-0.4-3.1-1.2-6.1-2.3-8.9c-0.4-0.5-0.2-0.8,0.8-0.8h15.3c0.4,0,0.8,0.1,1.2,0.2
				c0.3,0.2,0.5,0.4,0.7,0.7c1.4,3.2,2.4,6.5,3,10c0.9,4.7,1.3,9.4,1.2,14.2c0,7.6-1.2,14-3.5,19.2c-2.1,4.9-5.4,9.2-9.5,12.6
				c-3.9,3.2-8.3,5.5-13.1,6.9c-4.7,1.4-9.6,2.1-14.6,2.1c-5.4,0-10.7-0.8-15.9-2.5c-5-1.6-9.6-4.1-13.7-7.5
				c-4-3.3-7.2-7.4-9.5-12.1c-2.3-4.7-3.1-10.3-3.1-16.7c-0.1-5.3,0.9-10.6,3.1-15.5c1.8-4.1,4.5-7.7,8-10.5c3.4-2.6,7.2-4.7,11.4-6
				c4-1.3,8.1-1.9,12.2-1.9c2.4,0,4.5,0.1,6.4,0.2c1.9,0.2,3.3,0.3,4.2,0.4c0.7,0.1,1.3,0.7,1.3,1.4c0,0.6,0.1,1.7,0.2,3.3
				c0.2,1.6,0.3,3.5,0.3,5.8C134.2,44.6,133.8,47,133.8,49.6z M119.2,81.3V60.2c0-2.6,0-4.5-0.1-5.7c-0.1-0.8-0.3-1.6-0.8-2.3h-1
				c-1.3,0-2.5,0.2-3.7,0.6c-5.6,1.8-9.4,7.1-9.2,13c-0.3,5.5,2.6,10.7,7.6,13.3C114.3,80.3,116.7,81,119.2,81.3z"/>
		</g>
	</g>
</g>
</svg>
