<?xml version="1.0" encoding="utf-8"?>
<!-- Generator: Adobe Illustrator 24.2.1, SVG Export Plug-In . SVG Version: 6.00 Build 0)  -->
<svg version="1.1" id="Layer_1" xmlns="http://www.w3.org/2000/svg" xmlns:xlink="http://www.w3.org/1999/xlink" x="0px" y="0px"
	 viewBox="0 0 375.6 160.3" style="enable-background:new 0 0 375.6 160.3;" xml:space="preserve">
<style type="text/css">
	.st0{fill-rule:evenodd;clip-rule:evenodd;fill:url(#SVGID_1_);stroke:#0C4C75;stroke-width:0.5;}
</style>
<linearGradient id="SVGID_1_" gradientUnits="userSpaceOnUse" x1="187.7536" y1="164.0668" x2="187.7536" y2="3.4847" gradientTransform="matrix(1 0 0 -1 0 163.0391)">
	<stop  offset="0" style="stop-color:#70B0DF"/>
	<stop  offset="0.5" style="stop-color:#1B81C5"/>
	<stop  offset="1" style="stop-color:#4A98CE"/>
</linearGradient>
<path class="st0" d="M124.7,0.3c-14,0-25.3,11.3-25.3,25.3v62.7l-0.8,0L86.1,77.7l-9.7,10.1l32,32l32.6-32l-11.2-10.1l-10.6,10.7
	l-1.2,0V27.2c0-7.8,6.3-14,14-14h11.1c7.8,0,14,6.3,14,14v6.5h21.7v-8.1c0-14-11.3-25.3-25.3-25.3H124.7z M168.1,40.4l-32.6,32
	l11.2,10.1L157.4,72l1.2,0v61.2c0,7.8-6.3,14-14,14h-11.1c-7.8,0-14-6.3-14-14v-6.5H97.7v8.1c0,14,11.3,25.3,25.3,25.3h28.8
	c14,0,25.3-11.3,25.3-25.3V72l0.8,0l12.4,10.6l9.7-10.1L168.1,40.4L168.1,40.4z M283.2,75.2l31.6,40.1l-35,42.4h29l19.4-27.9
	l19.7,27.9h27.2l-34.4-42.8L373,75.2h-26.8l-18.4,26.2l-17.4-26.2H283.2z M37,75.4l-36.6,82h23.9l7.1-17.4h36.8l7.1,17.4h23.9
	l-36.7-82H37z M214.6,75.4l-36.6,82h23.9l7.1-17.4h36.8l7.1,17.4h23.9l-36.7-82C240.2,75.4,214.6,75.4,214.6,75.4z M50,94.8
	l6.2,15.6l6.2,15.6L50,126l-12.4,0l6.2-15.6L50,94.8L50,94.8z M227.6,94.8l6.2,15.6L240,126l-12.4,0l-12.4,0l6.2-15.6L227.6,94.8
	L227.6,94.8z"/>
</svg>
