<?xml version="1.0" encoding="utf-8"?>
<!-- Generator: Adobe Illustrator 26.5.0, SVG Export Plug-In . SVG Version: 6.00 Build 0)  -->
<svg version="1.1" id="Layer_1" xmlns="http://www.w3.org/2000/svg" xmlns:xlink="http://www.w3.org/1999/xlink" x="0px" y="0px"
	 viewBox="0 0 120 120" style="enable-background:new 0 0 120 120;" xml:space="preserve">
<style type="text/css">
	.st0{fill:url(#SVGID_1_);}
	.st1{fill:#115A91;}
	.st2{fill:#FFFFFF;}
	.st3{fill:#4D4D4D;}
</style>
<g>
	
		<linearGradient id="SVGID_1_" gradientUnits="userSpaceOnUse" x1="60" y1="121.8898" x2="60" y2="11.8898" gradientTransform="matrix(1 0 0 -1 0 121.8898)">
		<stop  offset="0" style="stop-color:#29ABE2"/>
		<stop  offset="0.4757" style="stop-color:#28A9E1"/>
		<stop  offset="0.6639" style="stop-color:#23A2DC"/>
		<stop  offset="0.8012" style="stop-color:#1A96D4"/>
		<stop  offset="0.913" style="stop-color:#0E85C9"/>
		<stop  offset="1" style="stop-color:#0071BC"/>
	</linearGradient>
	<path class="st0" d="M120,86c0,13.2-10.8,24-24,24H24C10.8,110,0,99.2,0,86V24C0,10.8,10.8,0,24,0H96c13.2,0,24,10.8,24,24V86z"/>
</g>
<g>
	<path class="st1" d="M96,110H24C10.8,110,0,99.2,0,86v10c0,13.2,10.8,24,24,24H96c13.2,0,24-10.8,24-24V86
		C120,99.2,109.2,110,96,110z"/>
</g>
<g>
	<path class="st2" d="M106,84c0,6.6-5.4,12-12,12H26c-6.6,0-12-5.4-12-12V26c0-6.6,5.4-12,12-12H94c6.6,0,12,5.4,12,12V84z"/>
</g>
<g>
	
		<image style="overflow:visible;opacity:0.25;enable-background:new    ;" width="49" height="79" xlink:href="AACD0F3D.png"  transform="matrix(0.9796 0 0 0.9796 15.3203 19.6259)">
	</image>
	<g>
		<g>
			<path class="st3" d="M55,24v14H38v32h17v15H23V24H55z"/>
		</g>
	</g>
</g>
<g>
	
		<image style="overflow:visible;opacity:0.25;enable-background:new    ;" width="49" height="79" xlink:href="AACD0F3F.png"  transform="matrix(0.9796 0 0 0.9796 55.3203 19.6259)">
	</image>
	<g>
		<g>
			<path class="st3" d="M95,24v61H63V70h18V38H63V24H95z"/>
		</g>
	</g>
</g>
</svg>
