<?xml version="1.0" encoding="utf-8"?>
<!-- Generator: Adobe Illustrator 24.2.1, SVG Export Plug-In . SVG Version: 6.00 Build 0)  -->
<svg version="1.1" id="Layer_1" xmlns="http://www.w3.org/2000/svg" xmlns:xlink="http://www.w3.org/1999/xlink" x="0px" y="0px"
	 viewBox="0 0 69.2 68" style="enable-background:new 0 0 69.2 68;" xml:space="preserve">
<style type="text/css">
	.st0{fill:url(#SVGID_1_);}
</style>
<g>
	<radialGradient id="SVGID_1_" cx="34.6245" cy="34.0195" r="34.3234" gradientUnits="userSpaceOnUse">
		<stop  offset="0" style="stop-color:#FFFFFF"/>
		<stop  offset="2.988374e-02" style="stop-color:#FFF9FB"/>
		<stop  offset="0.2143" style="stop-color:#FDD7E3"/>
		<stop  offset="0.4026" style="stop-color:#FCBCD1"/>
		<stop  offset="0.5941" style="stop-color:#FBA9C4"/>
		<stop  offset="0.7907" style="stop-color:#FA9EBD"/>
		<stop  offset="1" style="stop-color:#FA9ABA"/>
	</radialGradient>
	<path class="st0" d="M69.2,33.9c0,0.6-0.4,1-1.2,1.3c-0.8,0.2-1.5,0.4-2,0.6c-3.4,0.7-6.8,1.9-10,3.6c-3.3,1.6-6.4,4-9.4,7
		c-6,6-9.3,12.4-9.9,19.2c-0.1,0.5-0.4,1.1-0.7,1.7c-0.3,0.6-0.8,0.9-1.3,0.9c-0.7,0-1.2-0.3-1.5-0.9c-0.3-0.6-0.5-1.2-0.5-1.8
		c-0.5-6.5-3.8-12.9-10.1-19.2c-3.1-3-6.2-5.4-9.5-7c-3.2-1.6-6.6-2.8-10-3.6c-0.5-0.1-1.2-0.3-2-0.5C0.4,35,0,34.6,0,34
		c0-0.7,0.4-1.1,1.2-1.3c0.8-0.2,1.4-0.3,2-0.4c6.9-1,13.3-4.6,19.5-10.7C28.8,15.3,32.2,9,32.7,2.5c0-0.5,0.2-1.1,0.6-1.7
		C33.6,0.3,34.1,0,34.7,0c0.5,0,1,0.3,1.4,0.9c0.4,0.6,0.6,1.1,0.7,1.7c0.5,6.7,3.8,13,9.9,19.1c6,6.1,12.5,9.7,19.5,10.7
		c0.5,0.1,1.2,0.2,2,0.5C68.8,32.9,69.2,33.3,69.2,33.9z"/>
</g>
</svg>
