<?xml version="1.0" encoding="utf-8"?>
<!-- Generator: Adobe Illustrator 24.2.1, SVG Export Plug-In . SVG Version: 6.00 Build 0)  -->
<svg version="1.1" id="Layer_1" xmlns="http://www.w3.org/2000/svg" xmlns:xlink="http://www.w3.org/1999/xlink" x="0px" y="0px"
	 viewBox="0 0 1920 400" style="enable-background:new 0 0 1920 400;" xml:space="preserve">
<style type="text/css">
	.st0{display:none;}
	.st1{display:inline;fill:#FA9ABA;}
	.st2{clip-path:url(#SVGID_2_);}
</style>
<g class="st0">
	<rect y="-53.1" class="st1" width="1920" height="453.1"/>
	<rect y="-53.1" class="st1" width="1920" height="453.1"/>
</g>
<g>
	<g>
		<g>
			<defs>
				<path id="SVGID_1_" d="M1888.6,27.6c-12.4,3.8-23,10.8-31.1,19.9c-19.7-27.7-55.2-41.1-89-30.6c-29.9,9.3-50.3,34.6-55,63.9
					c-10.3-12.1-25.6-19.7-42.5-19.3c-9.4,0.2-18.2,2.7-25.8,7.1c-12.7-18.4-33.9-30.2-57.6-29.8c-20.5,0.4-38.7,9.8-51,24.5
					c-13.5-15-33-24.3-54.6-23.9c-22,0.4-41.5,10.8-54.4,26.8c-6.5-2.1-13.4-3.3-20.6-3.6c-6.2-27.2-26.1-50.3-54.4-58.9
					c-33.8-10.3-69.3,3.3-88.9,31.1c-8.2-9-18.8-15.9-31.2-19.7c-33.6-10.2-69.1,6.2-84.3,37.2c-2.7-1.4-5.6-2.5-8.6-3.5
					c-28.9-8.8-59.7,7.9-68.6,37.2c-0.1,0.3-0.2,0.6-0.3,1c-0.6-0.4-1.2-0.7-1.8-1.1c-17.8-10.2-38.2-11.5-56.3-5.2
					c-3.8-19.8-15.8-37.8-34.5-48.5C959,21,937,19.8,917.6,26.9c-5.6-6.3-12.3-11.9-20-16.3c-38.3-22-87.5-8.3-109.9,30.6
					c-5.1,8.9-8.4,18.4-9.9,28c-9.8-9.5-22.2-16.6-36.5-20.1c-34.4-8.3-69,7.3-86.9,36.2c-8.7-8.5-19.7-14.8-32.3-17.8
					c-8.4-2-16.9-2.4-25-1.4c-1.3-5.4-3.4-10.8-6.4-15.9c-15.7-26.4-49.5-35.2-75.5-19.8c-8.1,4.8-14.4,11.4-18.9,18.9
					c-20.1-9.7-44.4-9.5-64.8,2.6c-12.2,7.2-21.2,17.7-26.8,29.7c-3.6-1.8-7.5-3.3-11.6-4.3c-9.1-2.2-18.3-1.9-26.8,0.3
					c-7.6-21-25.1-37.8-48.2-43.4c-19.9-4.8-39.9-0.3-55.5,10.8c-9.2-17.9-25.8-31.8-46.8-36.9c-21.4-5.2-42.9-0.1-59.4,12.2
					c-7.1-4.5-15.1-8-23.8-10c-24.7-6-49.4,0.4-68.1,15.1C47.1,9.5,23.4,2.3,0,5.3v256.8V400h1920V217.7V25.2
					C1909.8,23.7,1899.1,24.3,1888.6,27.6z"/>
			</defs>
			<clipPath id="SVGID_2_">
				<use xlink:href="#SVGID_1_"  style="overflow:visible;"/>
			</clipPath>
			<g class="st2">
				<g>
					<defs>
						<rect id="SVGID_3_" x="-5" y="-5" width="1930" height="410"/>
					</defs>
					<clipPath id="SVGID_4_">
						<use xlink:href="#SVGID_3_"  style="overflow:visible;"/>
					</clipPath>
					<g style="clip-path:url(#SVGID_4_);">
						
							<image style="overflow:visible;" width="4022" height="855" xlink:href="9A71A6FA.jpg"  transform="matrix(0.48 0 0 0.48 -5.28 -5.12)">
						</image>
					</g>
				</g>
			</g>
		</g>
	</g>
</g>
</svg>
