<?xml version="1.0" encoding="utf-8"?>
<!-- Generator: Adobe Illustrator 24.2.1, SVG Export Plug-In . SVG Version: 6.00 Build 0)  -->
<svg version="1.1" id="Layer_1" xmlns="http://www.w3.org/2000/svg" xmlns:xlink="http://www.w3.org/1999/xlink" x="0px" y="0px"
	 viewBox="0 0 1920 350" style="enable-background:new 0 0 1920 350;" xml:space="preserve">
<style type="text/css">
	.st0{fill:none;}
	.st1{fill:#FFFFFF;}
</style>
<g>
	<path class="st0" d="M0,184.1v4.5h0.1C0,187.1,0,185.6,0,184.1z"/>
</g>
<path class="st1" d="M1920,147.7c-28.1-21.4-62.8-34.6-100.6-35.9c-13.2-41.5-51.5-71.5-96.7-71.5c-44.9,0-83,29.6-96.4,70.6
	c-13.3-7.9-28.7-12.4-45.2-12.4c-21.2,0-40.7,7.5-56.1,20c-18.6-24.7-47.9-40.7-80.9-40.7c-0.7,0-1.4,0-2.1,0
	c-12.5-42.6-51.4-73.6-97.4-73.6c-44.9,0-83,29.6-96.4,70.6c-13.3-7.9-28.7-12.4-45.2-12.4c-37.8,0-70.1,23.7-83.3,57.2
	c-16.2-16.1-38.3-26-62.7-26c-16.5,0-31.9,4.5-45.2,12.4c-13.4-41-51.5-70.6-96.4-70.6c-45.8,0-84.4,30.7-97.1,72.9
	c-18.6-21.2-45.7-34.6-75.9-34.6c-0.7,0-1.4,0-2.1,0C727.6,31.1,688.7,0,642.7,0c-44.9,0-83,29.6-96.4,70.6
	c-13.3-7.9-28.7-12.4-45.2-12.4c-35.8,0-66.7,21.3-81.1,52.1c-15.6-26.8-44.4-44.7-77.3-44.7c-16.5,0-31.9,4.5-45.2,12.4
	C284.1,37,246,7.4,201.1,7.4c-45.9,0-84.8,31-97.3,73.4c-0.6,0-1.1,0-1.7,0C64,80.8,28.8,92.9,0,113.4V350h251.3h1397.4H1920V147.7z
	"/>
</svg>
