<?xml version="1.0" encoding="utf-8"?>
<!-- Generator: Adobe Illustrator 26.5.0, SVG Export Plug-In . SVG Version: 6.00 Build 0)  -->
<svg version="1.1" id="Layer_1" xmlns="http://www.w3.org/2000/svg" xmlns:xlink="http://www.w3.org/1999/xlink" x="0px" y="0px"
	 viewBox="0 0 89 125.6" style="enable-background:new 0 0 89 125.6;" xml:space="preserve">
<style type="text/css">
	.st0{fill:#131313;}
	.st1{fill:#1572B6;}
	.st2{fill:#33A9DC;}
	.st3{fill:#FFFFFF;}
	.st4{fill:#EBEBEB;}
</style>
<path class="st0" d="M69.7,4.6h-7.4L70,13v4H54.2v-4.6h7.7L54.2,4V0h15.5C69.7,0,69.7,4.6,69.7,4.6z M51.1,4.6h-7.4l7.7,8.3v4H35.5
	v-4.6h7.7L35.5,4V0h15.5V4.6z M32.6,4.8h-8v7.3h8v4.8H19V0h13.6C32.6,0,32.6,4.8,32.6,4.8z"/>
<path class="st1" d="M8.1,115.5L0,24.7h89l-8.1,90.8l-36.4,10.1C44.4,125.6,8.1,115.5,8.1,115.5z"/>
<path class="st2" d="M44.5,117.9l29.4-8.2l6.9-77.6H44.5C44.5,32.1,44.5,117.9,44.5,117.9z"/>
<path class="st3" d="M44.5,65h14.7l1-11.4H44.5V42.5h27.9l-0.3,3l-2.7,30.7H44.5V65z"/>
<path class="st4" d="M44.6,93.9L44.6,93.9l-12.5-3.3l-0.8-8.9H20.1l1.6,17.5l22.8,6.3l0.1,0L44.6,93.9L44.6,93.9z"/>
<path class="st3" d="M58.3,75.7l-1.3,14.9l-12.4,3.4v11.6l22.8-6.3l0.2-1.9l1.9-21.6L58.3,75.7L58.3,75.7z"/>
<path class="st4" d="M44.5,42.5v11.1H17.6l-0.2-2.5l-0.5-5.6l-0.3-3C16.6,42.5,44.5,42.5,44.5,42.5z M44.5,65v11.1H32.2L32,73.6
	L31.5,68l-0.3-3H44.5z"/>
</svg>
