<?xml version="1.0" encoding="utf-8"?>
<!-- Generator: Adobe Illustrator 24.2.1, SVG Export Plug-In . SVG Version: 6.00 Build 0)  -->
<svg version="1.1" id="Layer_1" xmlns="http://www.w3.org/2000/svg" xmlns:xlink="http://www.w3.org/1999/xlink" x="0px" y="0px"
	 viewBox="0 0 20 20" style="enable-background:new 0 0 20 20;" xml:space="preserve">
<path d="M10,20c-1.4,0-2.7-0.3-3.9-0.8c-1.2-0.5-2.3-1.2-3.2-2.1s-1.6-2-2.2-3.2S0,11.4,0,10c0-1.4,0.3-2.7,0.8-3.9S2.1,3.8,3,2.9
	s2-1.6,3.3-2.1S8.8,0,10.2,0c1.3,0,2.6,0.2,3.8,0.7s2.2,1.1,3.1,1.8s1.6,1.7,2.1,2.8C19.7,6.4,20,7.6,20,8.9c0,1.8-0.5,3.2-1.6,4.3
	s-2.4,1.6-4.2,1.6h-1.9c-0.3,0-0.6,0.1-0.8,0.4s-0.3,0.5-0.3,0.8c0,0.4,0.1,0.8,0.4,1.1s0.4,0.7,0.4,1.1c0,0.6-0.2,1.1-0.5,1.5
	C11.1,19.9,10.6,20,10,20z M4.2,10.7c0.3,0,0.6-0.1,0.9-0.4c0.3-0.3,0.4-0.5,0.4-0.9c0-0.3-0.1-0.6-0.4-0.9C4.8,8.3,4.5,8.2,4.2,8.2
	S3.6,8.3,3.3,8.6C3.1,8.8,2.9,9.1,2.9,9.4c0,0.3,0.1,0.6,0.4,0.9C3.6,10.6,3.8,10.7,4.2,10.7z M7.3,6.4c0.3,0,0.6-0.1,0.9-0.4
	s0.4-0.5,0.4-0.9S8.5,4.6,8.2,4.3S7.7,3.9,7.3,3.9S6.7,4.1,6.5,4.3S6.1,4.9,6.1,5.2s0.1,0.6,0.4,0.9S7,6.4,7.3,6.4z M12.7,6.4
	c0.3,0,0.6-0.1,0.9-0.4c0.2-0.3,0.4-0.5,0.4-0.9c0-0.3-0.1-0.6-0.4-0.9c-0.3-0.3-0.5-0.4-0.9-0.4c-0.3,0-0.6,0.1-0.9,0.4
	c-0.3,0.3-0.4,0.5-0.4,0.9c0,0.3,0.1,0.6,0.4,0.9C12.1,6.3,12.3,6.4,12.7,6.4z M16,10.7c0.3,0,0.6-0.1,0.9-0.4
	c0.3-0.3,0.4-0.5,0.4-0.9c0-0.3-0.1-0.6-0.4-0.9c-0.3-0.3-0.5-0.4-0.9-0.4c-0.3,0-0.6,0.1-0.9,0.4c-0.3,0.2-0.4,0.5-0.4,0.9
	c0,0.3,0.1,0.6,0.4,0.9C15.3,10.6,15.6,10.7,16,10.7z M10,18.5c0.2,0,0.3,0,0.4-0.1c0.1-0.1,0.1-0.2,0.1-0.4c0-0.2-0.1-0.4-0.4-0.6
	c-0.2-0.2-0.4-0.6-0.4-1.3c0-0.8,0.2-1.4,0.8-2c0.5-0.6,1.1-0.9,1.9-0.9h1.8c1.3,0,2.3-0.4,3.1-1.1c0.8-0.7,1.2-1.8,1.2-3.2
	c0-2.2-0.8-4-2.5-5.3s-3.6-2-5.8-2C7.8,1.5,5.7,2.4,4,4s-2.5,3.7-2.5,6c0,2.3,0.8,4.4,2.5,6C5.6,17.7,7.7,18.5,10,18.5z"/>
</svg>
