<?xml version="1.0" encoding="utf-8"?>
<!-- Generator: Adobe Illustrator 24.2.1, SVG Export Plug-In . SVG Version: 6.00 Build 0)  -->
<svg version="1.1" id="Layer_1" xmlns="http://www.w3.org/2000/svg" xmlns:xlink="http://www.w3.org/1999/xlink" x="0px" y="0px"
	 viewBox="0 0 16 20" style="enable-background:new 0 0 16 20;" xml:space="preserve">
<path d="M4,15.8h8v-1.5H4L4,15.8z M4,11.5h8V10H4L4,11.5z M1.5,20c-0.4,0-0.8-0.1-1.1-0.5c-0.3-0.3-0.4-0.6-0.4-1v-17
	c0-0.4,0.2-0.8,0.4-1C0.8,0.1,1.1,0,1.5,0h9L16,5.5v13c0,0.4-0.1,0.8-0.5,1c-0.3,0.3-0.6,0.5-1,0.5H1.5z M9.8,6.1V1.5H1.5v17h13V6.1
	H9.8z M1.5,1.5v4.6V1.5v17V1.5z"/>
</svg>
