<?xml version="1.0" encoding="utf-8"?>
<!-- Generator: Adobe Illustrator 26.5.0, SVG Export Plug-In . SVG Version: 6.00 Build 0)  -->
<svg version="1.1" id="Layer_1" xmlns="http://www.w3.org/2000/svg" xmlns:xlink="http://www.w3.org/1999/xlink" x="0px" y="0px"
	 viewBox="0 0 128 128" style="enable-background:new 0 0 128 128;" xml:space="preserve">
<style type="text/css">
	.st0{fill:url(#SVGID_1_);}
</style>
<g>
	
		<radialGradient id="SVGID_1_" cx="64" cy="64" r="34.3234" gradientTransform="matrix(1.8484 0 0 1.8813 -54.2977 -56.4014)" gradientUnits="userSpaceOnUse">
		<stop  offset="0.2" style="stop-color:#FFFFFF"/>
		<stop  offset="0.2456" style="stop-color:#FFFCE6"/>
		<stop  offset="0.3471" style="stop-color:#FFF6B5"/>
		<stop  offset="0.4513" style="stop-color:#FFF18B"/>
		<stop  offset="0.5564" style="stop-color:#FFEC69"/>
		<stop  offset="0.6628" style="stop-color:#FFE94E"/>
		<stop  offset="0.7709" style="stop-color:#FFE73B"/>
		<stop  offset="0.8819" style="stop-color:#FFE530"/>
		<stop  offset="1" style="stop-color:#FFE52C"/>
	</radialGradient>
	<path class="st0" d="M128,63.7c0,1.1-0.7,1.9-2.2,2.4c-1.5,0.4-2.7,0.8-3.7,1c-6.3,1.4-12.5,3.6-18.5,6.7
		c-6,3.1-11.8,7.5-17.4,13.2c-11.2,11.4-17.3,23.4-18.3,36c-0.3,1-0.7,2.1-1.3,3.2c-0.6,1.1-1.4,1.7-2.4,1.7c-1.2,0-2.2-0.5-2.8-1.6
		c-0.6-1.1-0.9-2.2-0.9-3.3c-0.9-12.3-7.1-24.3-18.6-36C36,81.4,30.2,77,24.2,73.9c-6-3.1-12.1-5.3-18.4-6.7c-1-0.3-2.2-0.6-3.6-0.9
		C0.7,65.8,0,65,0,63.9c0-1.3,0.7-2.1,2.1-2.5c1.4-0.4,2.6-0.6,3.6-0.8c12.7-1.9,24.7-8.6,36-20.1C53.3,28.8,59.5,16.9,60.4,4.7
		c0-1,0.3-2.1,1-3.1C62.1,0.5,63,0,64.1,0c1,0,1.8,0.5,2.5,1.6c0.7,1.1,1.1,2.1,1.2,3.1c1,12.5,7.1,24.5,18.3,35.8
		c11.2,11.5,23.2,18.2,36,20.1c1,0.1,2.2,0.4,3.7,0.9C127.3,62,128,62.7,128,63.7z"/>
</g>
</svg>
