<?xml version="1.0" encoding="utf-8"?>
<!-- Generator: Adobe Illustrator 24.2.1, SVG Export Plug-In . SVG Version: 6.00 Build 0)  -->
<svg version="1.1" id="Layer_1" xmlns="http://www.w3.org/2000/svg" xmlns:xlink="http://www.w3.org/1999/xlink" x="0px" y="0px"
	 viewBox="0 0 85.1 83" style="enable-background:new 0 0 85.1 83;" xml:space="preserve">
<style type="text/css">
	.st0{fill-rule:evenodd;clip-rule:evenodd;fill:#181616;}
	.st1{fill:#181616;}
</style>
<g>
	<path class="st0" d="M42.5,0C19.1,0,0,19,0,42.5c0,18.8,12.2,34.7,29.1,40.4c2.1,0.4,2.9-0.9,2.9-2c0-1,0-4.4-0.1-7.9
		c-11.8,2.6-14.3-5-14.3-5c-1.9-4.9-4.7-6.2-4.7-6.2c-3.9-2.6,0.3-2.6,0.3-2.6c4.3,0.3,6.5,4.4,6.5,4.4c3.8,6.5,10,4.6,12.4,3.5
		c0.4-2.8,1.5-4.6,2.7-5.7c-9.5-1.1-19.4-4.7-19.4-21c0-4.6,1.7-8.4,4.4-11.4c-0.4-1.1-1.9-5.4,0.4-11.3c0,0,3.6-1.1,11.7,4.4
		c3.4-0.9,7-1.4,10.6-1.4c3.6,0,7.3,0.5,10.7,1.4c8.1-5.5,11.7-4.4,11.7-4.4c2.3,5.9,0.9,10.2,0.4,11.3c2.7,3,4.4,6.8,4.4,11.4
		c0,16.3-10,19.9-19.4,21c1.5,1.3,2.9,3.9,2.9,7.9c0,5.7,0,10.3,0,11.7c0,1.1,0.8,2.5,2.9,2c16.9-5.6,29.1-21.6,29.1-40.4
		C85.1,19,66,0,42.5,0z"/>
	<path class="st1" d="M16.1,61.1c-0.1,0.2-0.4,0.3-0.7,0.1c-0.3-0.1-0.5-0.4-0.4-0.6c0.1-0.2,0.4-0.3,0.7-0.1
		C16,60.6,16.2,60.9,16.1,61.1L16.1,61.1z M17.8,63c-0.2,0.2-0.6,0.1-0.9-0.2c-0.3-0.3-0.3-0.7-0.1-0.9c0.2-0.2,0.6-0.1,0.9,0.2
		C18,62.4,18,62.8,17.8,63L17.8,63z M19.5,65.5c-0.3,0.2-0.7,0-1-0.4c-0.3-0.4-0.3-0.8,0-1c0.3-0.2,0.7,0,1,0.4
		C19.8,64.8,19.8,65.3,19.5,65.5L19.5,65.5z M21.8,67.8c-0.2,0.3-0.7,0.2-1.1-0.2c-0.4-0.3-0.5-0.8-0.2-1.1c0.2-0.3,0.7-0.2,1.1,0.2
		C22,67.1,22.1,67.6,21.8,67.8L21.8,67.8z M25,69.2c-0.1,0.3-0.6,0.5-1.1,0.3c-0.5-0.1-0.8-0.5-0.7-0.9c0.1-0.3,0.6-0.5,1.1-0.3
		C24.8,68.5,25.1,68.9,25,69.2L25,69.2z M28.5,69.5c0,0.3-0.4,0.6-0.9,0.6c-0.5,0-0.9-0.3-0.9-0.6c0-0.4,0.4-0.6,0.9-0.7
		C28.1,68.8,28.5,69.1,28.5,69.5z M31.7,68.9c0.1,0.3-0.3,0.7-0.8,0.8c-0.5,0.1-1-0.1-1-0.5c-0.1-0.3,0.3-0.7,0.8-0.8
		C31.2,68.3,31.6,68.6,31.7,68.9L31.7,68.9z"/>
</g>
</svg>
