<?xml version="1.0" encoding="utf-8"?>
<!-- Generator: Adobe Illustrator 24.2.1, SVG Export Plug-In . SVG Version: 6.00 Build 0)  -->
<svg version="1.1" id="Layer_1" xmlns="http://www.w3.org/2000/svg" xmlns:xlink="http://www.w3.org/1999/xlink" x="0px" y="0px"
	 viewBox="0 0 20 20" style="enable-background:new 0 0 20 20;" xml:space="preserve">
<style type="text/css">
	.st0{fill-rule:evenodd;clip-rule:evenodd;fill:#181616;}
	.st1{fill:#181616;}
</style>
<g>
	<path class="st0" d="M10,0C4.5,0,0,4.6,0,10.2c0,4.5,2.9,8.4,6.8,9.7c0.5,0.1,0.7-0.2,0.7-0.5c0-0.2,0-1.1,0-1.9
		c-2.8,0.6-3.4-1.2-3.4-1.2C3.7,15.2,3,14.9,3,14.9c-0.9-0.6,0.1-0.6,0.1-0.6c1,0.1,1.5,1.1,1.5,1.1c0.9,1.6,2.3,1.1,2.9,0.8
		c0.1-0.7,0.4-1.1,0.6-1.4c-2.2-0.3-4.6-1.1-4.6-5.1c0-1.1,0.4-2,1-2.7C4.6,6.7,4.2,5.7,4.7,4.3c0,0,0.8-0.3,2.7,1.1
		C8.3,5.1,9.1,5,10,5c0.8,0,1.7,0.1,2.5,0.3c1.9-1.3,2.7-1.1,2.7-1.1c0.5,1.4,0.2,2.5,0.1,2.7c0.6,0.7,1,1.6,1,2.7
		c0,3.9-2.3,4.8-4.6,5.1c0.4,0.3,0.7,0.9,0.7,1.9c0,1.4,0,2.5,0,2.8c0,0.3,0.2,0.6,0.7,0.5c4-1.3,6.8-5.2,6.8-9.7
		C20,4.6,15.5,0,10,0z"/>
	<path class="st1" d="M3.8,14.7c0,0-0.1,0.1-0.2,0c-0.1,0-0.1-0.1-0.1-0.1c0,0,0.1-0.1,0.2,0C3.8,14.6,3.8,14.7,3.8,14.7L3.8,14.7z
		 M4.2,15.2c0,0-0.1,0-0.2,0c-0.1-0.1-0.1-0.2,0-0.2c0,0,0.1,0,0.2,0C4.2,15,4.2,15.1,4.2,15.2L4.2,15.2z M4.6,15.8
		c-0.1,0-0.2,0-0.2-0.1c-0.1-0.1-0.1-0.2,0-0.2c0.1,0,0.2,0,0.2,0.1C4.6,15.6,4.6,15.7,4.6,15.8L4.6,15.8z M5.1,16.3
		c0,0.1-0.2,0-0.3,0c-0.1-0.1-0.1-0.2,0-0.3c0-0.1,0.2,0,0.3,0C5.2,16.1,5.2,16.3,5.1,16.3L5.1,16.3z M5.9,16.7
		c0,0.1-0.1,0.1-0.3,0.1c-0.1,0-0.2-0.1-0.2-0.2c0-0.1,0.1-0.1,0.3-0.1C5.8,16.5,5.9,16.6,5.9,16.7L5.9,16.7z M6.7,16.7
		c0,0.1-0.1,0.1-0.2,0.1s-0.2-0.1-0.2-0.1c0-0.1,0.1-0.1,0.2-0.2C6.6,16.6,6.7,16.6,6.7,16.7z M7.4,16.6c0,0.1-0.1,0.2-0.2,0.2
		c-0.1,0-0.2,0-0.2-0.1c0-0.1,0.1-0.2,0.2-0.2C7.3,16.4,7.4,16.5,7.4,16.6L7.4,16.6z"/>
</g>
</svg>
