<?xml version="1.0" encoding="utf-8"?>
<!-- Generator: Adobe Illustrator 26.5.0, SVG Export Plug-In . SVG Version: 6.00 Build 0)  -->
<svg version="1.1" id="Layer_1" xmlns="http://www.w3.org/2000/svg" xmlns:xlink="http://www.w3.org/1999/xlink" x="0px" y="0px"
	 viewBox="0 0 88.4 124.7" style="enable-background:new 0 0 88.4 124.7;" xml:space="preserve">
<style type="text/css">
	.st0{fill:#E44D26;}
	.st1{fill:#F16529;}
	.st2{fill:#EBEBEB;}
	.st3{fill:#FFFFFF;}
</style>
<path class="st0" d="M8,114.7L0,24.5h88.4l-8.1,90.2l-36.2,10L8,114.7z"/>
<path class="st1" d="M44.2,117.1l29.2-8.1l6.9-77.1H44.2V117.1z"/>
<path class="st2" d="M44.2,65.4H29.5l-1-11.3h15.7V43H16.4l0.3,3l2.7,30.5h24.8V65.4z M44.2,94.1L44.2,94.1l-12.4-3.3L31,81.9H19.9
	l1.5,17.4l22.7,6.3l0.1,0L44.2,94.1z"/>
<path d="M8.2,0h5.6v5.6H19V0h5.6v16.8H19v-5.6h-5.1v5.6H8.2C8.2,16.8,8.2,0,8.2,0z M32,5.6h-5V0h15.5v5.6h-5v11.2H32
	C32,16.8,32,5.6,32,5.6z M45,0h5.9l3.6,5.9L58.1,0H64v16.8h-5.6V8.5l-3.9,6h-0.1l-3.9-6v8.3H45L45,0L45,0z M66.8,0h5.6v11.3h7.9v5.6
	H66.8C66.8,16.8,66.8,0,66.8,0z"/>
<path class="st3" d="M44.2,65.4v11.1h13.6l-1.3,14.3l-12.3,3.3v11.5l22.7-6.3l0.2-1.9l2.6-29.1l0.3-3h-3H44.2z M44.2,43V54h26.7
	l0.2-2.5l0.5-5.6l0.3-3L44.2,43z"/>
</svg>
