<?xml version="1.0" encoding="utf-8"?>
<!-- Generator: Adobe Illustrator 26.5.0, SVG Export Plug-In . SVG Version: 6.00 Build 0)  -->
<svg version="1.1" id="Layer_1" xmlns="http://www.w3.org/2000/svg" xmlns:xlink="http://www.w3.org/1999/xlink" x="0px" y="0px"
	 viewBox="0 0 240 234" style="enable-background:new 0 0 240 234;" xml:space="preserve">
<style type="text/css">
	.st0{fill:#330000;}
	.st1{fill:#FF9A00;}
</style>
<g id="Layer_2_00000178919153105828043630000012294198666280793009_">
	<g id="Surfaces">
		<g id="Drawing_Surface">
			<g id="Outline_no_shadow">
				<path class="st0" d="M3,194.5v-155C3,16,22-3,45.5-3h149C218-3,237,16,237,39.5v155c0,23.5-19,42.5-42.5,42.5h-149
					C22,237,3,218,3,194.5z"/>
			</g>
		</g>
	</g>
	<g id="Outlined_Mnemonics_Logos">
		<g id="Ai">
			<path class="st1" d="M143.4,120.7v37.2l23.5,7.6c0.9,0.2,1.5,1,1.4,1.9v18.8c0,1.1-0.6,1.4-1.8,1.1l-92.7-32.2
				c-1-0.3-2.1-0.6-3.3-1c-2.1-0.4-4.3-0.6-6.5-0.6c-0.5,0.1-1-0.3-1.1-0.8c0-0.1,0-0.2,0-0.3v-25.6c0-0.8,0.3-1.2,0.8-1.3l103-36.5
				c1.1-0.3,1.6,0,1.6,1v20.9c0.1,0.7-0.4,1.4-1.1,1.6L143.4,120.7z M123.1,152.1v-25.4c-2.1,0.6-4.6,1.4-7.2,2.3
				c-2.7,0.9-5.6,1.8-8.6,2.7c-3.1,1-6.1,1.9-9.2,2.9c-3.1,1-6,1.9-8.9,2.7c-2.8,0.8-5.4,1.5-7.8,2.2v0.2c4.3,0.9,8.6,2,12.9,3.4
				c4.8,1.5,9.8,3,14.8,4.6C114.2,149.1,118.9,150.6,123.1,152.1L123.1,152.1z"/>
			<path class="st1" d="M80,67.2c0.1,3.3-1.2,6.5-3.5,8.9c-2.5,2.3-5.8,3.5-9.2,3.4c-3.4,0.1-6.6-1.2-8.9-3.6
				c-2.3-2.4-3.5-5.6-3.5-8.9c0-3.9,1.2-6.9,3.5-9.1c2.4-2.2,5.6-3.4,8.9-3.3c3.4-0.1,6.7,1.1,9.2,3.5C78.9,60.4,80.2,63.8,80,67.2z
				 M166.8,78.4h-77c-1,0-1.4-0.4-1.4-1.3V57.3c0-0.9,0.5-1.3,1.4-1.3h77c1.1,0,1.6,0.4,1.6,1.3v19.6
				C168.4,77.9,167.8,78.4,166.8,78.4z"/>
		</g>
	</g>
</g>
</svg>
