<?xml version="1.0" encoding="utf-8"?>
<!-- Generator: Adobe Illustrator 26.5.0, SVG Export Plug-In . SVG Version: 6.00 Build 0)  -->
<svg version="1.1" id="Layer_1" xmlns="http://www.w3.org/2000/svg" xmlns:xlink="http://www.w3.org/1999/xlink" x="0px" y="0px"
	 viewBox="0 0 240 234" style="enable-background:new 0 0 240 234;" xml:space="preserve">
<style type="text/css">
	.st0{fill:#49021F;}
	.st1{fill:#FF3366;}
</style>
<g id="Layer_2_00000062177189652729642760000004850145710439482504_">
	<g id="Surfaces">
		<g id="Publishing_Surface">
			<g id="Outline_no_shadow">
				<path class="st0" d="M3,194.5v-155C3,16,22-3,45.5-3h149C218-3,237,16,237,39.5v155c0,23.5-19,42.5-42.5,42.5h-149
					C22,237,3,218,3,194.5z"/>
			</g>
		</g>
	</g>
	<g id="Outlined_Mnemonics_Logos">
		<g id="Id">
			<path class="st1" d="M64.2,149.8h102.6c1.1,0,1.6,0.5,1.6,1.4v19.5c0,0.9-0.5,1.3-1.6,1.3H64.2c-0.9,0-1.3-0.5-1.3-1.4v-19.5
				c-0.1-0.6,0.3-1.2,1-1.3C64,149.8,64.1,149.8,64.2,149.8z"/>
			<path class="st1" d="M170,92.2c0.1,7.4-1.4,14.8-4.5,21.5c-2.9,6.3-7.7,11.5-13.6,15.1c-6.1,3.7-13.7,5.5-22.8,5.5
				c-7.4,0.1-14.7-1.8-21.1-5.5c-6.5-3.8-11.9-9.3-15.5-15.9c-3.9-7-5.8-15.4-5.8-25.3c0-0.5,0-1.2,0.1-2.1c0.1-0.9,0.1-1.9,0.2-3.1
				H55.4c-0.7,0-1.1-0.3-1.1-1V61.1c-0.1-0.5,0.3-0.9,0.7-1c0.1,0,0.2,0,0.2,0h95.2c1.8,0,3.8-0.1,6-0.2c2.1-0.2,4.1-0.3,5.8-0.4
				c0.7,0,1.3,0.3,1.6,1c2.2,5.2,3.8,10.7,4.8,16.3C169.5,81.8,170,87,170,92.2z M150,82.4h-44c-0.2,0.9-0.4,1.8-0.5,2.7
				c-0.1,1.1-0.2,2.2-0.2,3.3c0,3.9,0.8,7.8,2.6,11.3c1.7,3.4,4.2,6.3,7.4,8.5c3.2,2.2,7.5,3.3,12.7,3.3c3.5,0.1,7-0.5,10.3-1.7
				c2.7-1,5.1-2.5,7.1-4.5c1.8-1.9,3.2-4.2,4-6.8c0.9-2.7,1.3-5.5,1.3-8.3c0-1.5-0.1-2.9-0.2-4.2C150.6,84.7,150.4,83.5,150,82.4z"
				/>
		</g>
	</g>
</g>
</svg>
