<?xml version="1.0" encoding="utf-8"?>
<!-- Generator: Adobe Illustrator 26.5.0, SVG Export Plug-In . SVG Version: 6.00 Build 0)  -->
<svg version="1.1" id="Layer_1" xmlns="http://www.w3.org/2000/svg" xmlns:xlink="http://www.w3.org/1999/xlink" x="0px" y="0px"
	 viewBox="0 0 67.4 125.4" style="enable-background:new 0 0 67.4 125.4;" xml:space="preserve">
<style type="text/css">
	.st0{fill:#0074BD;}
	.st1{fill:#EA2D2E;}
</style>
<path class="st0" d="M22.3,66.5c0,0-3.3,1.9,2.3,2.6c6.8,0.8,10.3,0.7,17.8-0.8c0,0,2,1.2,4.7,2.3C30.3,77.8,9.1,70.2,22.3,66.5z
	 M20.2,57.1c0,0-3.7,2.7,1.9,3.3c7.3,0.8,13,0.8,23-1.1c0,0,1.4,1.4,3.5,2.2C28.3,67.4,5.7,61.9,20.2,57.1z"/>
<path class="st1" d="M37.6,41.1c4.2,4.8-1.1,9.1-1.1,9.1s10.5-5.4,5.7-12.2c-4.5-6.3-8-9.5,10.8-20.4C52.9,17.6,23.5,24.9,37.6,41.1
	z"/>
<path class="st0" d="M59.8,73.5c0,0,2.4,2-2.7,3.6c-9.7,2.9-40.4,3.8-49,0.1c-3.1-1.3,2.7-3.2,4.5-3.6c1.9-0.4,3-0.3,3-0.3
	c-3.4-2.4-22.1,4.7-9.5,6.8C40.5,85.6,68.7,77.5,59.8,73.5z M23.9,47.3c0,0-15.6,3.7-5.5,5.1c4.3,0.6,12.8,0.4,20.7-0.2
	c6.5-0.5,13-1.7,13-1.7s-2.3,1-3.9,2.1c-15.9,4.2-46.5,2.2-37.7-2C17.8,46.9,23.9,47.3,23.9,47.3z M51.9,63
	c16.1-8.4,8.7-16.4,3.5-15.4c-1.3,0.3-1.8,0.5-1.8,0.5s0.5-0.7,1.4-1.1c10.3-3.6,18.2,10.7-3.3,16.3C51.6,63.4,51.8,63.2,51.9,63z"
	/>
<path class="st1" d="M42.2,0c0,0,8.9,8.9-8.5,22.7c-14,11-3.2,17.3,0,24.5c-8.1-7.4-14.1-13.8-10.1-19.9C29.5,18.5,45.8,14.2,42.2,0
	z"/>
<path class="st0" d="M25.5,85.7c15.5,1,39.3-0.6,39.8-7.9c0,0-1.1,2.8-12.8,5C39.3,85.3,23,85,13.3,83.4
	C13.3,83.4,15.3,85.1,25.5,85.7z"/>
<path class="st1" d="M64.6,98.9h-0.5v-0.3h1.3v0.3h-0.5v1.3h-0.3C64.6,100.2,64.6,98.9,64.6,98.9z M67.1,98.9L67.1,98.9l-0.5,1.3
	h-0.2L66,98.9h0v1.3h-0.3v-1.6h0.5l0.4,1.1l0.4-1.1h0.5v1.6h-0.3C67.1,100.2,67.1,98.9,67.1,98.9z M22.9,113.7c-1.5,1.3-3,2-4.4,2
	c-2,0-3-1.2-3-3.1c0-2.1,1.1-3.6,5.7-3.6h1.7L22.9,113.7C22.9,113.7,22.9,113.7,22.9,113.7z M26.9,118.3v-14.1c0-3.6-2.1-6-7-6
	c-2.9,0-5.4,0.7-7.5,1.6l0.6,2.5c1.6-0.6,3.7-1.1,5.8-1.1c2.8,0,4.1,1.1,4.1,3.5v1.8h-1.4c-6.9,0-10,2.7-10,6.7
	c0,3.5,2.1,5.5,5.9,5.5c2.5,0,4.4-1,6.1-2.5l0.3,2.1L26.9,118.3C26.9,118.3,26.9,118.3,26.9,118.3z M40.4,118.3h-5l-6.1-19.7h4.4
	l3.8,12.1l0.8,3.6c1.9-5.3,3.2-10.6,3.9-15.7h4.3C45.3,105.1,43.3,112.2,40.4,118.3z M59.7,113.7c-1.5,1.3-3,2-4.4,2
	c-2,0-3-1.2-3-3.1c0-2.1,1.1-3.6,5.7-3.6h1.7L59.7,113.7L59.7,113.7z M63.7,118.3v-14.1c0-3.6-2.1-6-7-6c-2.9,0-5.4,0.7-7.5,1.6
	l0.6,2.5c1.6-0.6,3.7-1.1,5.8-1.1c2.8,0,4.1,1.1,4.1,3.5v1.8h-1.4c-6.9,0-10,2.7-10,6.7c0,3.5,2.1,5.5,5.9,5.5c2.5,0,4.3-1,6.1-2.5
	l0.3,2.1L63.7,118.3C63.7,118.3,63.7,118.3,63.7,118.3z M7,121.6c-1.1,1.7-3,3-5,3.8L0,123c1.5-0.8,2.9-2.1,3.5-3.3
	c0.5-1.1,0.8-2.4,0.8-5.7V91.6h4.3v22.2C8.5,118.1,8.2,119.9,7,121.6z"/>
</svg>
