<?xml version="1.0" encoding="utf-8"?>
<!-- Generator: Adobe Illustrator 26.5.0, SVG Export Plug-In . SVG Version: 6.00 Build 0)  -->
<svg version="1.1" id="Layer_1" xmlns="http://www.w3.org/2000/svg" xmlns:xlink="http://www.w3.org/1999/xlink" x="0px" y="0px"
	 viewBox="0 0 87.3 85" style="enable-background:new 0 0 87.3 85;" xml:space="preserve">
<style type="text/css">
	.st0{fill:#0868AC;}
	.st1{fill:#131B28;}
</style>
<g transform="matrix(.945094 0 0 .945094 6.301403 4.347014)">
	<path class="st0" d="M13.6,9.2C8.3,16.9,9,26.9,13,35.2l0.3,0.6l0.2,0.4c0,0.1,0.1,0.1,0.1,0.2c0.1,0.1,0.1,0.3,0.2,0.4l0.4,0.7
		l0.2,0.4l0.4,0.7l0.2,0.3c0.2,0.3,0.4,0.6,0.6,1c0,0,0,0,0,0c0,0,0.1,0.1,0.1,0.2c0.2,0.3,0.4,0.5,0.6,0.8l0.2,0.3l0.5,0.7l0.2,0.3
		c0.2,0.3,0.5,0.6,0.8,0.9l0,0c0,0,0,0,0,0c0.3,0.3,0.5,0.6,0.8,0.8l0.2,0.3l0.6,0.6l0.3,0.2c0.3,0.3,0.6,0.5,0.8,0.8l0.2,0.1
		l0.8,0.7l0.3,0.3l0.6,0.5l0.3,0.3l1,0.7c0,0,0,0,0.1,0.1c0.2,0.2,0.5,0.3,0.7,0.5l0.3,0.2l1.1,0.7l0.3,0.2l0.8,0.5
		c0.2,0.1,0.3,0.2,0.5,0.2l0.6,0.3l0.1,0.1l0.2,0.1l0.9,0.4l0.2,0.1c0.4,0.2,0.7,0.3,1.1,0.5l0.3,0.1l1,0.4l0.1,0
		c0.4,0.1,0.8,0.3,1.1,0.4l0.3,0.1c0.4,0.1,0.8,0.3,1.2,0.3C60.6,58,68,37.6,68,37.6c-6.2,8.3-17.3,10.5-27.8,8
		c-0.4-0.1-0.8-0.2-1.2-0.3l-0.3-0.1c-0.4-0.1-0.8-0.2-1.1-0.4l-0.2-0.1c-0.3-0.1-0.7-0.2-1-0.4l-0.3-0.1c-0.4-0.1-0.7-0.3-1.1-0.5
		l-0.2-0.1L34,43.3l-0.3-0.1c-0.2-0.1-0.5-0.2-0.7-0.4l-0.5-0.2c-0.3-0.2-0.6-0.3-0.8-0.5l-0.3-0.2c-0.4-0.2-0.7-0.5-1.1-0.7
		c-0.1-0.1-0.2-0.1-0.3-0.2l-0.8-0.5l-0.2-0.2l-0.7-0.5L28,39.5L27.4,39l-0.3-0.2l-0.8-0.7c0,0-0.1,0-0.1-0.1
		c-0.3-0.3-0.6-0.5-0.9-0.8L25,36.9l-0.6-0.6l-0.2-0.2c-0.3-0.3-0.5-0.5-0.8-0.8c0,0,0,0,0,0c-0.3-0.3-0.5-0.6-0.8-0.9l-0.2-0.2
		l-0.6-0.7l-0.2-0.3L21,32.2c-5.8-8.1-7.9-19.2-3.3-28.4 M30,2.6c-3.8,5.6-3.6,13.1-0.6,19c0.5,1,1.1,2,1.7,2.9
		c0.6,0.8,1.2,1.8,2,2.5c0.3,0.3,0.6,0.6,0.9,0.9c0.1,0.1,0.2,0.2,0.2,0.2c0.3,0.3,0.6,0.6,0.9,0.8c0,0,0,0,0,0
		c0.3,0.3,0.7,0.6,1,0.9l0.2,0.2c0.3,0.3,0.7,0.5,1.1,0.8c0,0,0,0,0,0c0.2,0.1,0.3,0.2,0.5,0.3c0.1,0.1,0.2,0.1,0.2,0.2
		c0.3,0.2,0.5,0.3,0.8,0.5l0.1,0.1l0.7,0.4c0.1,0,0.2,0.1,0.2,0.1l0.5,0.3c0,0,0,0,0.1,0c0.3,0.2,0.7,0.3,1,0.5
		c0.1,0,0.2,0.1,0.2,0.1c0.3,0.1,0.6,0.2,0.8,0.3l0.4,0.1c0.3,0.1,0.5,0.2,0.8,0.3l0.3,0.1c0.4,0.1,0.7,0.3,1.1,0.3
		c19.7,3.3,24.3-12.1,24.3-12.1c-4.1,6-12.1,8.9-20.5,6.7c-0.4-0.1-0.7-0.2-1.1-0.3c-0.1,0-0.2-0.1-0.3-0.1
		c-0.3-0.1-0.5-0.2-0.8-0.3l-0.4-0.1c-0.3-0.1-0.6-0.2-0.8-0.3c-0.1,0-0.2-0.1-0.2-0.1c-0.3-0.2-0.7-0.3-1-0.5
		c-0.2-0.1-0.3-0.2-0.5-0.3l-0.3-0.2c-0.2-0.1-0.4-0.2-0.7-0.4l-0.2-0.1c-0.3-0.2-0.5-0.3-0.8-0.5c-0.1-0.1-0.2-0.1-0.2-0.2
		l-0.5-0.3c-0.4-0.3-0.7-0.5-1.1-0.8l-0.2-0.2c-3.7-3-6.7-7.1-8.1-11.7c-1.5-4.8-1.2-10.2,1.4-14.6 M43.8-2.2
		c-2.3,3.4-2.5,7.6-0.9,11.3c1.6,4,5,7.1,9,8.5c0.2,0.1,0.3,0.1,0.5,0.2l0.2,0.1c0.2,0.1,0.5,0.2,0.7,0.2
		c10.9,2.1,13.8-5.7,14.6-6.8c-2.6,3.8-6.9,4.7-12.3,3.4c-0.4-0.1-0.9-0.3-1.3-0.4c-0.5-0.2-1-0.4-1.5-0.6c-0.9-0.5-1.9-1-2.7-1.7
		c-4.8-3.7-7.8-10.7-4.6-16.5"/>
	<g>
		<path class="st1" d="M19.7,69.4L19,72L19.7,69.4L19.7,69.4z M23.5,75.1l-0.8,0L23.5,75.1z M23.3,79l-4.9,0L23.3,79z M24.3,75.1
			l-0.8,0L24.3,75.1z M23.8,78.7l0.9-3.2L23.8,78.7z M41.7,63.8l-1.6,7.4L41.7,63.8z M37.6,63.8l-1.2,5.6L37.6,63.8z"/>
		<path class="st1" d="M41.4,63.4H38c-0.2,0-0.4,0.2-0.4,0.3l-2.4,11.1c0,0.2-0.2,0.3-0.4,0.3h-2.4c-2.4,0-2.1-1.6-1.6-3.9l0-0.1
			l0.3-1.5l0.1-0.6l1.1-5.3c0-0.2-0.1-0.3-0.3-0.3h-3.5c-0.2,0-0.4,0.1-0.4,0.3l-1.6,7.4c-0.9,3.9-0.6,7.7,4,7.8l0.1,0h7.3
			c0.2,0,0.4-0.2,0.4-0.3l3.2-14.9C41.7,63.6,41.6,63.4,41.4,63.4L41.4,63.4z M54.9,75.3c0.2,0,0.3,0.2,0.3,0.3l-0.3,1.6 M54.5,78.8
			l0.3-1.6L54.5,78.8z M54.1,79.1l-6.2,0L54.1,79.1z"/>
		<path class="st1" d="M45.8,73.2c0-0.2,0.2-0.5,0.4-0.5l-0.4,0C45.6,74.6,45.8,73.2,45.8,73.2z M48.2,79.2L48.2,79.2L48.2,79.2z
			 M54.9,75.3c0.2,0,0.3,0.2,0.3,0.3l-0.4,1.9 M49.8,79.2L49.8,79.2L49.8,79.2z M48.9,79.2L48.9,79.2L48.9,79.2z M48.7,79.2
			L48.7,79.2L48.7,79.2z M48.4,79.2L48.4,79.2L48.4,79.2z M48.9,79.2h-0.2H48.9z"/>
		<path class="st1" d="M49.8,79.2l-0.8,0C48.9,79.2,49.8,79.2,49.8,79.2z M54.1,79.1l-4.3,0L54.1,79.1z M54.5,78.8l0.3-1.3
			L54.5,78.8L54.5,78.8z M48.6,79.2h-0.2H48.6L48.6,79.2z M48.1,79.2h-0.2H48.1z M48.4,79.2h-0.2H48.4z M-1.1,73.2l0.5-2.3l-0.6,2.7
			l-0.1,0.3L-1.1,73.2L-1.1,73.2z M5.2,63.4H1.5c-0.2,0-0.4,0.1-0.4,0.3l-0.7,3.1c0,0.1,0,0.3,0.2,0.3c0,0,0.1,0,0.1,0h3.7
			c0.2,0,0.4-0.2,0.4-0.3l0.7-3.1C5.5,63.5,5.4,63.4,5.2,63.4L5.2,63.4z M4.4,68.6l-1.1,5L4.4,68.6z M-6.4,85.3l3.1,0
			C-4.2,85.3-5.7,85.3-6.4,85.3L-6.4,85.3z"/>
		<path class="st1" d="M-0.1,68.6l-0.5,2.3L-0.1,68.6z M4.1,68.2H0.4c-0.2,0-0.4,0.1-0.4,0.3l-1.1,4.7l-0.1,0.7l-1,4.8
			c0,0.2-0.1,0.4-0.2,0.7c0,0-0.7,2.1-1.9,2.1l-1.2,0c-0.2,0-0.4,0.1-0.4,0.3l-0.8,3.3c0,0.1,0,0.3,0.2,0.3c0,0,0.1,0,0.1,0l3.1,0
			c2.9,0,4.5-1.6,5.5-6.3l2.2-10.4C4.4,68.4,4.3,68.2,4.1,68.2L4.1,68.2z M57.3,79c-0.2,0-0.3-0.2-0.3-0.3l2.8-13.2 M61.2,78.6
			l1.1-5.6L61.2,78.6z"/>
		<path class="st1" d="M57,78.8c0-0.1,0-0.3,0-0.5l1.3-6.3L57,78.6c0,0.2,0.1,0.3,0.3,0.3h0.3C57.4,79,57.1,78.9,57,78.8z M61,78.9
			c-0.1,0-0.3,0.1-0.5,0.1h0.3c0.2,0,0.4-0.1,0.4-0.3l0.1-0.3C61.2,78.5,61.1,78.9,61,78.9L61,78.9z M61.8,75.8l0.5-2.5L61.8,75.8z
			 M72.9,66.3L73,67c0,0.2-0.1,0.3-0.3,0.3"/>
		<path class="st1" d="M61.3,78.3l0.5-2.5L61.3,78.3z M72.7,65.7l0.2,0.7L72.7,65.7z M62.3,73.3l0.1-0.7l0.5-2.5L62.3,73L62.3,73.3
			L62.3,73.3z M59.9,65.2l-0.1,0.6L58.4,72l1.4-6.6L59.9,65.2L59.9,65.2z"/>
		<path class="st1" d="M73,67l-0.2-0.6l-0.2-1c-0.3-1.2-1.2-1.9-3.1-1.9l-8.9,0c-0.2,0-0.4,0.1-0.4,0.3L60,64.5l-0.2,1l-2.7,12.9
			c0,0.2-0.1,0.4,0,0.5s0.4,0.2,0.6,0.2h2.8c0.2,0,0.4,0,0.5-0.1s0.3-0.4,0.3-0.6l1.1-5.3l1.1-5.4c0-0.2,0.2-0.3,0.4-0.3l8.9,0
			C73,67.3,73.1,67.1,73,67L73,67z M84.4,61.2l-0.7,0h-2.8c-0.2,0-0.4,0.1-0.5,0.3l-6.3,9.2c-0.1,0.2-0.2,0.1-0.3-0.1l-0.5-2
			c-0.1-0.2-0.2-0.3-0.4-0.3h-4c-0.2,0-0.3,0.1-0.2,0.3l1.8,6.3c0.1,0.2,0.1,0.5,0,0.7l-0.8,3.1c0,0.1,0,0.3,0.2,0.3
			c0,0,0.1,0,0.1,0h4c0.2,0,0.4-0.2,0.4-0.3l0.8-3.1c0.1-0.2,0.2-0.4,0.3-0.6l10.2-13.5c0.1-0.2,0.1-0.3-0.1-0.3L84.4,61.2
			L84.4,61.2z M52.4,69.1c0,0.2-0.2,0.3-0.4,0.3h-5.1c-0.2,0-0.3-0.1-0.2-0.3l0,0l0-0.1c0.5-1.3,1.5-2.2,3.4-2.2
			C52.1,66.9,52.5,68,52.4,69.1L52.4,69.1z M50.9,63.2c-6.6,0-8.1,4-9,8c-0.9,4.1-0.8,7.9,6,7.9h1.1l0.8,0l4.3,0
			c0.2,0,0.4-0.1,0.4-0.3l0.7-3.2c0-0.2-0.1-0.3-0.3-0.3h-6.1c-2.4,0-3.2-0.6-2.9-2.5h9.8c0.2,0,0.3-0.1,0.4-0.3c0,0,0-0.1,0-0.1
			C57.5,66.9,57.1,63.2,50.9,63.2L50.9,63.2z M19.8,69.1l-0.1,0.3c0,0-0.7,2.6-0.7,2.6l-0.7,2.6C18.2,74.8,18,75,17.8,75h-3.9
			c-3,0-3.7-2.3-3-5.7c0.7-3.5,2.1-5.7,5-5.9C20,63.1,20.8,65.9,19.8,69.1L19.8,69.1z M22.5,74.8c0,0,1.8-4.5,2.3-7.1
			c0.6-3.5-1.2-8.5-7.8-8.5c-6.6,0-9.5,4.8-10.6,10c-1.1,5.2,0.3,9.8,7,9.8l10.1,0c0.2,0,0.4-0.1,0.4-0.3l0.9-3.2
			c0-0.1,0-0.3-0.2-0.3c0,0-0.1,0-0.1,0l-1.6,0C22.5,75.1,22.5,75,22.5,74.8C22.5,74.8,22.5,74.8,22.5,74.8L22.5,74.8z"/>
		<path class="st1" d="M55.4,71.8c0,0.1-0.1,0.2-0.2,0.2s-0.2-0.1-0.2-0.2s0.1-0.2,0.2-0.2S55.4,71.7,55.4,71.8z"/>
	</g>
</g>
</svg>
