<?xml version="1.0" encoding="utf-8"?>
<!-- Generator: Adobe Illustrator 26.5.0, SVG Export Plug-In . SVG Version: 6.00 Build 0)  -->
<svg version="1.1" id="Layer_1" xmlns="http://www.w3.org/2000/svg" xmlns:xlink="http://www.w3.org/1999/xlink" x="0px" y="0px"
	 viewBox="0 0 240 234" style="enable-background:new 0 0 240 234;" xml:space="preserve">
<style type="text/css">
	.st0{fill:#001E36;}
	.st1{fill:#31A8FF;}
</style>
<g id="Layer_2_00000077295055459697444920000000214830258800638633_">
	<g id="Surfaces">
		<g id="Photo_Surface">
			<g id="Outline_no_shadow">
				<path class="st0" d="M3,194.5v-155C3,16,22-3,45.5-3h149C218-3,237,16,237,39.5v155c0,23.5-19,42.5-42.5,42.5h-149
					C22,237,3,218,3,194.5z"/>
			</g>
		</g>
	</g>
	<g id="Outlined_Mnemonics_Logos">
		<g id="Lr">
			<path class="st1" d="M168.4,111v63.4c0,1.1-0.6,1.6-1.8,1.6H64.4c-0.7,0.1-1.3-0.4-1.4-1.1c0-0.1,0-0.2,0-0.4v-19.6
				c-0.1-0.5,0.3-1.1,0.8-1.1c0.1,0,0.2,0,0.3,0h84v-46.2c0-1,0.5-1.3,1.4-1.1l17.4,2.9c0.5,0,0.9,0.3,1.2,0.6
				C168.3,110.3,168.4,110.6,168.4,111z"/>
			<path class="st1" d="M88.4,95V77.5c0-1,0.7-1.8,1.6-2.1c0.7-0.4,1.5-0.7,2.3-0.8c1-0.2,2.1-0.4,3.1-0.5c1.1-0.1,2.3-0.2,3.6-0.2
				c-3.5-3-6.4-6.6-8.6-10.7c-2.5-4.6-3.7-9.7-3.6-14.9c-0.1-0.7,0.4-1.3,1.1-1.4c0.1,0,0.2,0,0.4,0h19.5c0.8,0,1.1,0.5,1.1,1.6
				c-0.4,6.5,0.8,13,3.4,18.9c0.9,2,2.1,3.9,3.7,5.4h51c1,0,1.4,0.4,1.4,1.3v19.5c0.1,0.8-0.4,1.5-1.2,1.6c-0.1,0-0.3,0-0.4,0h-55.4
				c-2.4,0-4.9,0-7.5,0.1c-2.6,0.1-5.2,0.1-7.8,0.2c-2.2,0.1-4.4,0.3-6.6,0.6c-0.5,0.1-1-0.2-1.1-0.7C88.3,95.3,88.3,95.2,88.4,95
				L88.4,95z"/>
		</g>
	</g>
</g>
</svg>
