<?xml version="1.0" encoding="utf-8"?>
<!-- Generator: Adobe Illustrator 24.2.1, SVG Export Plug-In . SVG Version: 6.00 Build 0)  -->
<svg version="1.1" id="Layer_1" xmlns="http://www.w3.org/2000/svg" xmlns:xlink="http://www.w3.org/1999/xlink" x="0px" y="0px"
	 viewBox="0 0 389.8 201.3" style="enable-background:new 0 0 389.8 201.3;" xml:space="preserve">
<style type="text/css">
	.st0{fill:#00678F;}
	.st1{fill:#E48D1A;}
	.st2{fill-rule:evenodd;clip-rule:evenodd;fill:#00678F;}
	.st3{fill-rule:evenodd;clip-rule:evenodd;fill:#E48D1A;}
</style>
<g>
	<path class="st0" d="M0,183.4h12.8v-50.7l19.9,44.2c2.3,5.4,5.6,7.2,11.9,7.2s9.4-1.9,11.7-7.2l19.9-44.2v50.7H89v-50.6
		c0-4.9-2-7.3-6.1-8.6c-9.8-3-16.3-0.4-19.3,6.2L44.2,174l-18.9-43.6c-2.8-6.6-9.5-9.2-19.3-6.2C2,125.4,0,127.8,0,132.7V183.4
		L0,183.4z"/>
	<path class="st0" d="M99.7,142.1h12.8V170c-0.1,1.5,0.5,5.1,7.5,5.2c3.6,0.1,27.7,0,27.9,0v-33.3h12.9c0.1,0,0,45.4,0,45.6
		c0.1,11.2-13.9,13.6-20.3,13.8H100v-8.6c0.1,0,40.5,0,40.6,0c8.3-0.9,7.3-5,7.3-6.4v-3.4h-27.3c-12.7-0.1-20.8-5.7-20.9-12
		C99.7,170.3,100,142.4,99.7,142.1L99.7,142.1z"/>
	<path class="st1" d="M170.8,183.4h36.9c4.3,0,8.5-0.9,11.9-2.5c5.6-2.6,8.3-6,8.3-10.5V161c0-3.7-3.1-7.2-9.1-9.5
		c-3.2-1.2-7.2-1.9-11-1.9h-15.6c-5.2,0-7.7-1.6-8.3-5c-0.1-0.4-0.1-0.7-0.1-1.2v-5.8c0-0.3,0-0.7,0.1-1.1c0.6-2.6,2-3.4,6.5-3.8
		c0.4,0,0.9-0.1,1.2-0.1h36.7v-8.6h-36.1c-5.2,0-7.9,0.3-10.4,1.1c-7.7,2.4-11,6.2-11,12.8v7.5c0,5.8,6.5,10.7,17.5,11.9
		c1.2,0.1,2.5,0.2,3.7,0.2h13.3c0.5,0,1,0,1.4,0.1c4.1,0.3,5.8,1.1,7,2.6c0.7,0.7,1,1.5,1,2.3v7.5c0,0.9-0.6,2.1-1.9,3
		c-1.1,1-3,1.6-5.4,1.8c-0.5,0-0.9,0.1-1.4,0.1h-35.4V183.4L170.8,183.4z"/>
	<path class="st1" d="M307.9,168.5c0,8.8,6.5,13.7,19.8,14.7c1.2,0.1,2.5,0.2,3.7,0.2h33.5v-8.6h-33.7c-7.5,0-10.4-1.9-10.4-6.4
		v-44.3h-12.8V168.5L307.9,168.5z"/>
	<path class="st1" d="M236,168.9v-30.5c0-7.8,5.4-12.5,16.2-13.9c1.1-0.2,2.4-0.2,3.5-0.2h24.4c1.2,0,2.4,0.1,3.6,0.2
		c10.8,1.5,16.2,6.2,16.2,13.9v30.5c0,6.3-2.3,9.7-7.6,11.9l12.6,11.4h-14.9l-10.2-9.2l-10.3,0.7h-13.7c-2.4,0-4.8-0.3-7.5-1.1
		C240,180.3,236,176,236,168.9L236,168.9z M249.9,168.2c0,0.4,0.1,0.8,0.2,1.3c0.7,3.5,4.1,5.5,9.2,5.5h11.7l-10.7-9.7h14.9l9.3,8.4
		c1.7-0.9,2.9-2.3,3.3-4.1c0.1-0.4,0.1-0.8,0.1-1.2v-29.3c0-0.3,0-0.7-0.1-1.2c-0.7-3.3-4.1-5.2-9-5.2h-19.4c-5.7,0-9.4,2.5-9.4,6.4
		V168.2L249.9,168.2z"/>
	<path class="st0" d="M376.1,109.9c-7.9-0.2-13.9,0.5-19.1,2.7c-1.5,0.6-3.8,0.6-4,2.5c0.8,0.8,0.9,2.1,1.6,3.1
		c1.2,2,3.3,4.7,5.2,6.1c2,1.5,4.1,3.2,6.3,4.5c3.9,2.4,8.2,3.7,11.9,6.1c2.2,1.4,4.4,3.1,6.5,4.7c1.1,0.8,1.8,2,3.1,2.5
		c0-0.1,0-0.1,0-0.2c-0.7-0.9-0.9-2.2-1.6-3.1c-1-1-1.9-1.9-2.9-2.9c-2.9-3.8-6.5-7.1-10.3-9.9c-3.1-2.2-9.9-5.2-11.2-8.8
		c-0.1-0.1-0.1-0.1-0.2-0.2c2.2-0.2,4.7-1,6.7-1.6c3.4-0.9,6.4-0.7,9.9-1.6c1.6-0.4,3.1-0.9,4.7-1.3c0-0.3,0-0.6,0-0.9
		c-1.8-1.8-3-4.2-4.9-5.8c-5-4.3-10.5-8.6-16.2-12.1c-3.1-2-7-3.3-10.3-4.9c-1.1-0.6-3.1-0.9-3.8-1.8c-1.7-2.2-2.7-5-4-7.6
		c-2.8-5.4-5.6-11.4-8.1-17.1c-1.7-3.9-2.8-7.7-4.9-11.2C320.2,34.1,309.2,24,292.2,14c-3.6-2.1-8-2.9-12.6-4
		c-2.5-0.1-4.9-0.3-7.4-0.4c-1.5-0.6-3.1-2.5-4.5-3.4c-5.6-3.6-20.1-11.3-24.2-1.1c-2.6,6.4,3.9,12.7,6.3,15.9
		c1.6,2.3,3.8,4.8,4.9,7.4c0.8,1.7,0.9,3.4,1.6,5.2c1.6,4.4,3.1,9.2,5.2,13.2c1.1,2.1,2.2,4.2,3.6,6.1c0.8,1.1,2.2,1.6,2.5,3.4
		c-1.4,1.9-1.5,5-2.2,7.4c-3.5,11.1-2.2,24.8,2.9,33c1.6,2.5,5.3,7.9,10.3,5.8c4.4-1.8,3.4-7.4,4.7-12.3c0.3-1.1,0.1-1.9,0.7-2.7
		c0,0.1,0,0.1,0,0.2c1.3,2.7,2.7,5.4,4,8.1c3,4.8,8.3,9.8,12.8,13.2c2.3,1.8,4.2,4.8,7.2,5.8c0-0.1,0-0.1,0-0.2c-0.1,0-0.1,0-0.2,0
		c-0.6-0.9-1.5-1.3-2.2-2c-1.8-1.7-3.7-3.9-5.2-5.8c-4.1-5.6-7.7-11.6-11-18c-1.6-3-2.9-6.4-4.3-9.4c-0.5-1.2-0.5-3-1.6-3.6
		c-1.5,2.3-3.6,4.1-4.7,6.7c-1.8,4.3-2,9.4-2.7,14.8c-0.4,0.1-0.2,0-0.4,0.2c-3.1-0.8-4.2-4-5.4-6.7c-2.9-7-3.5-18.2-0.9-26.3
		c0.7-2.1,3.7-8.6,2.5-10.5c-0.6-1.9-2.5-3-3.6-4.5c-1.3-1.8-2.7-4.2-3.6-6.3c-2.4-5.4-3.5-11.6-6.1-17.1c-1.2-2.6-3.3-5.3-4.9-7.6
		c-1.9-2.6-3.9-4.5-5.4-7.6c-0.5-1.1-1.2-2.9-0.4-4c0.2-0.8,0.6-1.1,1.3-1.3c1.3-1,4.9,0.3,6.3,0.9c3.6,1.5,6.6,2.9,9.7,4.9
		c1.5,1,2.9,2.8,4.7,3.4c0.7,0,1.3,0,2,0c3.2,0.7,6.7,0.2,9.7,1.1c5.2,1.6,9.9,4.1,14.1,6.7c12.9,8.2,23.5,19.8,30.8,33.7
		c1.2,2.2,1.7,4.4,2.7,6.7c2.1,4.8,4.7,9.7,6.7,14.4c2.1,4.7,4.1,9.4,7,13.2c1.5,2,7.4,3.1,10.1,4.3c1.9,0.8,5,1.6,6.7,2.7
		c3.4,2,6.7,4.5,9.9,6.7C371,105.4,375.9,107.9,376.1,109.9L376.1,109.9z"/>
	<path class="st2" d="M275.8,24.4c-1.6,0-2.8,0.2-4,0.4c0,0.1,0,0.1,0,0.2c0.1,0,0.1,0,0.2,0c0.8,1.6,2.2,2.7,3.1,4
		c0.7,1.6,1.5,3.1,2.2,4.7c0.1-0.1,0.1-0.1,0.2-0.2c1.4-1,2-2.5,2-4.9c-0.6-0.6-0.6-1.3-1.1-2C277.9,25.7,276.6,25.1,275.8,24.4
		L275.8,24.4z"/>
	<path class="st3" d="M370.9,174.5c0,5.7,4.5,9.5,9.5,9.5c5,0,9.5-3.8,9.5-9.5c0-5.7-4.5-9.5-9.5-9.5
		C375.3,165.1,370.9,168.9,370.9,174.5L370.9,174.5z M387.7,174.5c0,4.3-3.3,7.5-7.3,7.5c-4.1,0-7.3-3.2-7.3-7.5
		c0-4.3,3.2-7.5,7.3-7.5C384.4,167.1,387.7,170.3,387.7,174.5L387.7,174.5z M382.9,180h2.1l-3.1-4.7c1.7-0.2,2.9-1,2.9-3
		c0-2.2-1.4-3.1-4.1-3.1h-4.2V180h1.8v-4.7h1.7L382.9,180L382.9,180z M378.4,173.8v-3.1h2.1c1.1,0,2.4,0.2,2.4,1.5
		c0,1.5-1.2,1.6-2.5,1.6H378.4L378.4,173.8z"/>
</g>
</svg>
