<?xml version="1.0" encoding="utf-8"?>
<!-- Generator: Adobe Illustrator 26.5.0, SVG Export Plug-In . SVG Version: 6.00 Build 0)  -->
<svg version="1.1" id="Layer_1" xmlns="http://www.w3.org/2000/svg" xmlns:xlink="http://www.w3.org/1999/xlink" x="0px" y="0px"
	 viewBox="0 0 105.7 100.7" style="enable-background:new 0 0 105.7 100.7;" xml:space="preserve">
<path d="M44.6,0l25,0c0.4,0,0.7,0.1,0.9,0.4c0.2,0.2,0.4,0.6,0.4,0.9C70.5,22.2,50,25.5,49.8,25.6c-0.1,0-0.1,0-0.2,0H23.2
	c-0.4,0-0.7-0.2-1-0.4c-0.2-0.3-0.4-0.6-0.3-1C23.7,3.2,44.4,0,44.6,0z M90.1,67H79.7c-2,11.1-9.8,33.7-39.5,33.7
	C0.8,100.7,0,61,0,61V37.2c0-0.7,0.6-1.3,1.3-1.3h64.8h13h11c8.6,0,15.6,7,15.6,15.6C105.7,60,98.7,67,90.1,67z M89.8,43.8
	c-4.2,0-7.6,3.4-7.6,7.6c0,4.2,3.4,7.6,7.6,7.6c4.2,0,7.6-3.4,7.6-7.6C97.3,47.2,93.9,43.8,89.8,43.8z"/>
</svg>
