<?xml version="1.0" encoding="utf-8"?>
<!-- Generator: Adobe Illustrator 26.5.0, SVG Export Plug-In . SVG Version: 6.00 Build 0)  -->
<svg version="1.1" id="Layer_1" xmlns="http://www.w3.org/2000/svg" xmlns:xlink="http://www.w3.org/1999/xlink" x="0px" y="0px"
	 viewBox="0 0 240 234" style="enable-background:new 0 0 240 234;" xml:space="preserve">
<style type="text/css">
	.st0{fill:#001E36;}
	.st1{fill:#31A8FF;}
</style>
<g id="Layer_2_00000167376964144625501660000013599141929568117179_">
	<g id="Surfaces">
		<g id="Photo_Surface">
			<g id="Outline_no_shadow">
				<path class="st0" d="M3,194.5v-155C3,16,22-3,45.5-3h149C218-3,237,16,237,39.5v155c0,23.5-19,42.5-42.5,42.5h-149
					C22,237,3,218,3,194.5z"/>
			</g>
		</g>
	</g>
	<g id="Outlined_Mnemonics_Logos">
		<g id="Ps">
			<path class="st1" d="M167.1,183H64.2c-0.7,0-1.1-0.3-1.1-1c0-1.7,0-3.3-0.1-5.6c-0.1-2.4-0.1-4.9-0.2-7.6
				c-0.1-2.7-0.1-5.6-0.2-8.7c-0.1-3.1-0.1-6.1-0.1-9.1c0-8.2,1-15,3.1-20.6c1.7-5,4.5-9.6,8.2-13.4c3.2-3.2,7.1-5.7,11.4-7.3
				c4.2-1.5,8.5-2.3,13-2.3c8.6,0,15.7,2,21.3,6c5.6,4,9.8,9.6,12.2,16.1c2.5,6.8,3.4,14.3,3.4,22.5c0,2.4,0,4-0.1,5
				c-0.1,1-0.1,2.4-0.1,4.3h32.1c0.7-0.1,1.3,0.4,1.4,1.1c0,0.1,0,0.2,0,0.4v19.2C168.4,182.6,168,183,167.1,183z M82.4,161.2H116
				c0.1-1.4,0.2-2.7,0.2-3.9V152c0-3.9-0.6-7.8-1.8-11.5c-0.9-3.2-2.8-6-5.3-8.2c-2.5-2.1-5.9-3.1-10.3-3.1
				c-3.1-0.1-6.2,0.7-8.9,2.3c-2.6,1.7-4.6,4.1-5.7,7c-1.5,3.7-2.1,7.7-2,11.8c0,2.6,0,4.9,0.1,6.8
				C82.2,159.1,82.3,160.5,82.4,161.2L82.4,161.2z"/>
			<path class="st1" d="M109.9,45c-1.6,3-2.7,6.2-3.4,9.6c-0.8,3.7-1.3,7.4-1.3,11.2c-0.1,2,0.2,4.1,0.7,6c0.3,1.3,1,2.4,2,3.1
				c0.8,0.5,1.8,0.8,2.7,0.8c0.9,0,1.8-0.4,2.6-1c1.1-0.9,2-2.1,2.7-3.4c1.2-2.3,2.3-4.7,3.3-7.1c1.8-5.4,4.3-10.6,7.3-15.4
				c2.1-3.3,4.9-6,8.3-7.9c3.2-1.6,6.7-2.4,10.3-2.3c4.7-0.1,9.4,1.3,13.3,3.9c4,2.8,7.1,6.7,8.9,11.2c2.1,4.9,3.2,10.9,3.2,18.1
				c0,4.6-0.4,9.1-1.3,13.6c-0.6,3.5-1.7,7-3.2,10.2c-0.4,0.7-1.1,1.2-1.9,1.1h-17.4c-0.3,0-0.7-0.1-0.9-0.4
				c-0.2-0.3-0.1-0.6,0.1-0.9c2.3-3.9,3.9-8,4.9-12.4c1-3.8,1.5-7.8,1.5-11.8c0-3.8-0.5-6.5-1.4-8.3c-0.7-1.6-2.4-2.7-4.2-2.7
				c-1.4,0-2.7,0.8-4,2.4c-1.3,1.6-2.8,4.9-4.7,9.8c-1.8,5.1-4.2,9.8-7.2,14.2c-2.2,3.1-5.1,5.7-8.5,7.6c-3.2,1.6-6.7,2.4-10.2,2.3
				c-4.3,0-8.4-1.2-12.1-3.4c-4-2.5-7.2-6.2-9.2-10.5c-2.4-4.7-3.5-10.6-3.5-17.7c0-4.1,0.3-8.3,0.9-12.4c0.4-3,1.2-5.9,2.3-8.6
				c0.1-0.4,0.5-0.8,0.9-1c0.4-0.1,0.8-0.2,1.2-0.2h16.3c0.4,0,0.8,0.2,1,0.5C110.1,44.1,110.1,44.6,109.9,45z"/>
		</g>
	</g>
</g>
</svg>
