<?xml version="1.0" encoding="utf-8"?>
<!-- Generator: Adobe Illustrator 26.5.0, SVG Export Plug-In . SVG Version: 6.00 Build 0)  -->
<svg version="1.1" id="Layer_1" xmlns="http://www.w3.org/2000/svg" xmlns:xlink="http://www.w3.org/1999/xlink" x="0px" y="0px"
	 viewBox="0 0 101.8 124.2" style="enable-background:new 0 0 101.8 124.2;" xml:space="preserve">
<style type="text/css">
	.st0{fill:#61DAFB;}
</style>
<g>
	<circle class="st0" cx="50.9" cy="45.4" r="9.3"/>
	<path class="st0" d="M50.9,79.6c7.3,7.1,14.5,11.3,20.3,11.3c1.9,0,3.7-0.4,5.2-1.3c5.2-3,7.1-10.5,5.3-21.2
		c-0.3-1.9-0.7-3.8-1.2-5.8c2-0.6,3.8-1.2,5.6-1.8c10.1-3.9,15.7-9.3,15.7-15.2c0-6-5.6-11.4-15.7-15.2c-1.8-0.7-3.6-1.3-5.6-1.8
		c0.5-2,0.9-3.9,1.2-5.8c1.7-10.9-0.2-18.5-5.4-21.5C74.8,0.4,73,0,71.1,0c-5.7,0-13,4.2-20.3,11.3C43.6,4.2,36.4,0,30.6,0
		c-1.9,0-3.7,0.4-5.2,1.3c-5.2,3-7.1,10.5-5.3,21.2c0.3,1.9,0.7,3.8,1.2,5.8c-2,0.6-3.8,1.2-5.6,1.8C5.6,34,0,39.4,0,45.3
		c0,6,5.6,11.4,15.7,15.2c1.8,0.7,3.6,1.3,5.6,1.8c-0.5,2-0.9,3.9-1.2,5.8c-1.7,10.7,0.2,18.3,5.3,21.2c1.5,0.9,3.3,1.3,5.2,1.3
		C36.4,90.8,43.6,86.6,50.9,79.6L50.9,79.6z M45.3,66.1c1.8,0.1,3.7,0.1,5.6,0.1c1.9,0,3.8,0,5.6-0.1c-1.8,2.4-3.7,4.6-5.6,6.7
		C49,70.7,47.1,68.5,45.3,66.1z M32.9,55.8c1,1.7,1.9,3.3,3,4.9c-3.1-0.4-6-0.9-8.8-1.5c0.9-2.7,1.9-5.5,3.1-8.3
		C31,52.5,31.9,54.2,32.9,55.8z M27.1,31.7c2.8-0.6,5.7-1.1,8.8-1.5c-1,1.6-2,3.2-3,4.9s-1.9,3.3-2.7,5
		C28.9,37.2,27.9,34.4,27.1,31.7z M32.6,45.4c1.3-2.7,2.7-5.4,4.3-8.1c1.5-2.6,3.2-5.2,4.9-7.8c3-0.2,6-0.3,9.1-0.3
		c3.2,0,6.2,0.1,9.1,0.3c1.8,2.6,3.4,5.2,4.9,7.8c1.6,2.7,3,5.4,4.3,8.1c-1.3,2.7-2.7,5.4-4.3,8.1c-1.5,2.6-3.2,5.2-4.9,7.8
		c-3,0.2-6,0.3-9.1,0.3c-3.2,0-6.2-0.1-9.1-0.3c-1.8-2.6-3.4-5.2-4.9-7.8C35.3,50.8,33.9,48.1,32.6,45.4z M71.7,40L69,35
		c-1-1.7-1.9-3.3-3-4.9c3.1,0.4,6,0.9,8.8,1.5C73.9,34.4,72.9,37.2,71.7,40z M71.7,50.8c1.2,2.8,2.2,5.6,3.1,8.3
		c-2.8,0.6-5.7,1.1-8.8,1.5c1-1.6,2-3.2,3-4.9C69.9,54.2,70.8,52.5,71.7,50.8z M74,85.5c-0.8,0.5-1.8,0.7-2.9,0.7c-4.9,0-11-4-17-10
		c2.9-3.1,5.7-6.6,8.5-10.5c4.7-0.4,9.2-1.1,13.4-2.1c0.5,1.8,0.8,3.6,1.1,5.4C78.5,77.5,77.4,83.6,74,85.5z M79.2,32.8
		c11.2,3.2,17.9,8.1,17.9,12.6c0,3.9-4.6,7.8-12.7,10.9c-1.6,0.6-3.4,1.2-5.2,1.7c-1.3-4.1-2.9-8.3-4.9-12.6
		C76.3,41.1,78,36.9,79.2,32.8z M71.2,4.6c1.1,0,2,0.2,2.9,0.7c3.3,1.9,4.5,7.9,3.1,16.5c-0.3,1.7-0.7,3.5-1.1,5.4
		c-4.2-0.9-8.7-1.6-13.4-2.1c-2.7-3.9-5.6-7.4-8.5-10.5C60.2,8.7,66.3,4.6,71.2,4.6z M56.5,24.7c-1.8-0.1-3.7-0.1-5.6-0.1
		s-3.8,0-5.6,0.1c1.8-2.4,3.7-4.6,5.6-6.7C52.8,20.1,54.7,22.4,56.5,24.7z M27.8,5.3c0.8-0.5,1.8-0.7,2.9-0.7c4.9,0,11,4,17,10
		c-2.9,3.1-5.7,6.6-8.5,10.5c-4.7,0.4-9.2,1.1-13.4,2.1c-0.5-1.8-0.8-3.6-1.1-5.4C23.3,13.3,24.4,7.3,27.8,5.3z M22.6,58
		C11.4,54.8,4.7,49.9,4.7,45.4c0-3.9,4.6-7.8,12.7-10.9c1.6-0.6,3.4-1.2,5.2-1.7c1.3,4.1,2.9,8.3,4.9,12.6
		C25.5,49.7,23.8,54,22.6,58z M24.7,69c0.3-1.7,0.7-3.5,1.1-5.4c4.2,0.9,8.7,1.6,13.4,2.1c2.7,3.9,5.6,7.4,8.5,10.5
		c-6,5.9-12.1,10-17,10c-1.1,0-2-0.2-2.9-0.7C24.4,83.6,23.3,77.5,24.7,69z M20.5,110.2c2.2-2.7,2.3-5.7,1.1-8.7s-3.7-4.4-6.8-4.5
		c-3.7-0.1-7.5,0-11.2,0H2.9v25.9h3v-9.8h4.7c0.6,0,1.1,0.2,1.4,0.7l6,9.3c0.1,0.2,0.4,0.5,0.6,0.5h3.9c-2.4-3.7-4.7-7.2-7.1-10.8
		C17.5,112.5,19.3,111.8,20.5,110.2z M5.9,110v-9.9H7c2.3,0,4.7-0.1,7,0.1c2.7,0.1,4.6,2.2,4.6,4.9s-2.2,4.8-4.9,4.9
		C11.3,110.1,8.9,110,5.9,110z M44.6,111.3c-1.6-7-8-8.8-12.9-6.6c-3.8,1.7-5.5,5-5.6,9.1c-0.1,3.1,0.8,5.9,3.2,8
		c2.7,2.4,6,2.7,9.4,2.1c1.9-0.4,3.6-1.3,4.9-2.7c-0.5-0.7-1-1.4-1.5-2c-2.8,2.4-5.9,3.2-9.3,1.6c-2.2-1.1-3.3-3.8-3.5-5.8h15.5
		v-1.3C44.9,112.8,44.8,112,44.6,111.3z M29.5,112.9c-0.3-3,2.7-6.2,6-6.2c3.8-0.1,6.2,2.2,6.3,6.2H29.5z M60.2,104.2
		c-1.5-0.3-3.1-0.4-4.6-0.3c-2.4,0.2-4.5,1.3-6.2,3.1c0.5,0.7,0.9,1.4,1.5,2.2c0.2-0.2,0.4-0.4,0.6-0.5c1.6-1.5,3.5-2.3,5.8-2.1
		c1.8,0.1,3.5,0.7,4,2.5c0.4,1.4,0.3,2.9,0.4,4.4c-0.3,0-0.4-0.1-0.5-0.2c-2.4-2-5.1-2.4-8-1.7c-2.7,0.7-4.4,2.8-4.6,5.5
		c-0.2,3.1,1.2,5.4,3.9,6.5c1.7,0.7,3.6,0.7,5.4,0.3c1.4-0.3,2-1.1,4-2.2v1.3h2.8c0-4,0.1-8.9,0-13.5
		C64.7,106.6,63,104.8,60.2,104.2z M61.6,116.8c-0.1,0.3,0,0.6,0,0.9c0,2.1-0.5,2.8-2.5,3.6c-1.4,0.5-2.9,0.7-4.4,0.2
		c-1.7-0.5-2.9-2-2.9-3.7c-0.1-1.7,1-3.4,2.7-3.9c2.3-0.8,4.4-0.3,6.3,1.1C61.4,115.5,61.8,116,61.6,116.8z M77.2,106.9
		c2.6-0.8,5-0.3,6.8,1.9l0.3,0.2c0.7-0.6,1.3-1.2,2.1-1.9c-0.3-0.3-0.4-0.5-0.6-0.8c-2.9-3.1-8.6-3.5-12.1-1
		c-4.9,3.6-4.8,10.6-2.4,14.3c2.3,3.5,5.6,4.7,9.5,4.2c2.3-0.3,4.2-1.4,5.7-3.3c-0.7-0.6-1.4-1.2-2.1-1.9c-0.2,0.2-0.3,0.3-0.4,0.5
		c-2.7,3-7.2,2.7-9.6-0.5c-1.4-1.9-1.7-4.1-1.3-6.3C73.3,109.8,74.6,107.8,77.2,106.9L77.2,106.9z M98,120.5
		c-0.2,0.1-0.3,0.2-0.3,0.2c-0.8,0.6-1.6,0.7-2.5,0.4c-0.9-0.4-1-1.2-1.1-2v-11.4c0-0.2,0,0.2,0.1-0.8H98v-3h-4v-5h-3v5.4h-2.6
		c-0.2,0-0.5,0.2-0.5,0.4c-0.1,0.7,0,1.2,0,2.2h3.2v12.8c0,1.6,0.4,3,1.8,3.8c1.5,0.9,4.4,0.7,5.7-0.4c0.2-0.1,0.3-0.5,0.3-0.6
		C98.6,121.9,98.3,121.2,98,120.5z"/>
</g>
</svg>
