<?xml version="1.0" encoding="utf-8"?>
<!-- Generator: Adobe Illustrator 26.5.0, SVG Export Plug-In . SVG Version: 6.00 Build 0)  -->
<svg version="1.1" id="Layer_1" xmlns="http://www.w3.org/2000/svg" xmlns:xlink="http://www.w3.org/1999/xlink" x="0px" y="0px"
	 viewBox="0 0 566.9 566.9" style="enable-background:new 0 0 566.9 566.9;" xml:space="preserve">
<style type="text/css">
	.st0{clip-path:url(#SVGID_00000174563398916229505410000000975539544800802978_);}
	.st1{fill:#FFFFFF;}
</style>
<g>
	<defs>
		<path id="SVGID_1_" d="M0,486.9V80C0,35.8,35.8,0,80,0h406.9c44.2,0,80,35.8,80,80v406.9c0,44.2-35.8,80-80,80H80
			C35.8,566.9,0,531.1,0,486.9z"/>
	</defs>
	<clipPath id="SVGID_00000064312481595585262810000002024800821327070370_">
		<use xlink:href="#SVGID_1_"  style="overflow:visible;"/>
	</clipPath>
	<rect y="0" style="clip-path:url(#SVGID_00000064312481595585262810000002024800821327070370_);" width="566.9" height="566.9"/>
	<g style="clip-path:url(#SVGID_00000064312481595585262810000002024800821327070370_);">
		<g>
			<g>
				<path class="st1" d="M289.7,594.5c-20.2-63.3,0.2-136.1,101.9-191.7c9.8-5,7.3-11.5-2.6-11.1c-10.3-1.2-53.5,0.4-91.8,27.4
					c-2,0.9-3.1-0.1-4.5-1.5c-4.7-6.3-14.7-53.2-52.1-105.5c-2.8-4-11.1-21.5-35.9-18.6c-61.3,8.7-102.8,57.6-111.2,71.2
					s6.3,12.1,8.5,11.9c47.4,2.4,116.9,16.7,164.4,67.3c-5.1,18.1-17.9,24.5-17.9,24.5s-89.1-68.3-160.3-50.6
					c-20,4.7-27.1,10.1-22.6,32.5c4.5,22.3,21.3,75.4,21.3,75.4s3.1,8.3,11.5,1.7c8.4-6.5,40-37.9,128.5-12.3
					c-7.9,23.3-17.7,74.5-3.7,79.6C237.1,599.6,289,617.3,289.7,594.5z"/>
				<path class="st1" d="M323.9,376.1c3.7,0.7,25.1-3.1,42.9,0c13.3,5.2,21.3,7,29.3-3.3c8-10.3,44.3-87.3,92.7-132.5
					c17.6-17.3-4.2-26-14.4-13.3c-3.8,3.5-18.5,19.9-23.6,19.5s4.7-9.8,8.4-13.3c-19,9.4-43.3-11.2-15.9-33.2c8.7-9,29.1-2.7,34.7,5
					c-8.4-8.4-29.4,6.2-17.7,17.9c5.8,6.1,19-10.6,22.2-14.3c3.3-3.7-7.8-17-15.5-21.6c-4.8-3.4-8.8-8.3-39.6-15.5
					c-8-2.3-10.9-5.2-18-12.3c-7.1-7.1-94.2-111-130.8-122.5c-19.1-6.7-25.8-3.5-12.2,10.8c13.6,14.3,73,93.5,81.3,123.6
					c8.4,30-6.8,35.3-10.5,30.9c-2.7-2.7-74.8-69.4-36,4.8c10,27.2-12.1,53.7-31.9,59.3c-37.7,11.8-45.1,11.4-22.1,38.2
					c11.9,14.4,24.7,40,28.2,49.8c7,29.3,39.8,41,43.1,17.2c3.3-23.7-0.5-36.6,6.3-30.1s12.9,16.1,18.8,5.2
					c5.9-10.8,20.6-31.5,22-32.7c1.4-1.2,2.6-10.8-4.4-13.6c-7-2.8-8.9-0.3-9.9,1.6s-4.2-0.2-3.7-4.7s-3.7-15.4-5.6-18
					s-7-33.3,3.7-40.8c2.7,8.5-2.9,11,1.4,23c2.6,6.6,4.6,22.6,21.6,30.2c12.7,5.6,39,7.7,31.6,30.8c-7.4,23-14.5,46.7-37.7,43
					C339.8,361.6,324.8,363.2,323.9,376.1z"/>
				<path d="M342.1,334.7c6.2-11.1,10.2-14.8,11.8-16.2c1.5-1.4,2.2-9.1-5-8.3c-5.9,3.3-14.1,15-14.2,18
					C334.5,331.3,335.3,337.2,342.1,334.7z"/>
			</g>
		</g>
	</g>
</g>
</svg>
