<?xml version="1.0" encoding="utf-8"?>
<!-- Generator: Adobe Illustrator 24.2.1, SVG Export Plug-In . SVG Version: 6.00 Build 0)  -->
<svg version="1.1" id="Layer_1" xmlns="http://www.w3.org/2000/svg" xmlns:xlink="http://www.w3.org/1999/xlink" x="0px" y="0px"
	 viewBox="0 0 28 20" style="enable-background:new 0 0 28 20;" xml:space="preserve">
<path d="M4.1,20c-1.3-1.3-2.3-2.8-3-4.5S0,12,0,10s0.4-3.8,1.1-5.5s1.7-3.2,3-4.5l1.5,1.5C4.5,2.6,3.7,3.9,3,5.3s-0.9,3-0.9,4.7
	c0,1.7,0.3,3.2,0.9,4.7s1.5,2.7,2.6,3.8L4.1,20z M8,16c-0.7-0.8-1.3-1.6-1.8-2.7c-0.4-1-0.7-2.1-0.7-3.3s0.2-2.3,0.7-3.3
	c0.4-1,1-1.9,1.8-2.7l1.5,1.5c-0.6,0.6-1,1.2-1.3,2C7.9,8.3,7.7,9.1,7.7,10s0.2,1.7,0.5,2.5c0.3,0.8,0.8,1.4,1.4,2L8,16z M14,12.8
	c-0.8,0-1.4-0.3-2-0.8c-0.5-0.6-0.8-1.2-0.8-2s0.3-1.4,0.8-2c0.5-0.6,1.2-0.8,2-0.8c0.8,0,1.4,0.3,2,0.8c0.5,0.6,0.8,1.2,0.8,2
	s-0.3,1.4-0.8,2C15.4,12.6,14.8,12.8,14,12.8z M19.9,16l-1.5-1.5c0.6-0.6,1-1.2,1.3-2c0.3-0.8,0.5-1.6,0.5-2.5s-0.2-1.7-0.5-2.5
	c-0.3-0.8-0.8-1.4-1.4-2L19.9,4c0.7,0.8,1.3,1.6,1.8,2.7c0.4,1,0.7,2.1,0.7,3.3c0,1.2-0.2,2.3-0.7,3.3C21.3,14.3,20.7,15.2,19.9,16z
	 M23.9,20l-1.5-1.5c1.1-1.1,1.9-2.3,2.6-3.8c0.6-1.4,0.9-3,0.9-4.7c0-1.7-0.3-3.2-0.9-4.7c-0.6-1.4-1.5-2.7-2.6-3.8L23.9,0
	c1.3,1.3,2.3,2.8,3,4.5C27.6,6.2,28,8,28,10s-0.4,3.8-1.1,5.5C26.2,17.2,25.2,18.7,23.9,20z"/>
</svg>
