<?xml version="1.0" encoding="utf-8"?>
<!-- Generator: Adobe Illustrator 24.2.1, SVG Export Plug-In . SVG Version: 6.00 Build 0)  -->
<svg version="1.1" id="spring-original-wordmark-Layer_1"
	 xmlns="http://www.w3.org/2000/svg" xmlns:xlink="http://www.w3.org/1999/xlink" x="0px" y="0px" viewBox="0 0 48.3 47"
	 style="enable-background:new 0 0 48.3 47;" xml:space="preserve">
<style type="text/css">
	.st0{fill:#5FB832;}
</style>
<g id="spring-original-wordmark-surface1">
	<path class="st0" d="M43.9,33.9c-5.9,7.8-18.6,5.2-26.8,5.5c0,0-1.4,0.1-2.9,0.3c0,0,0.6-0.2,1.2-0.5c5.7-1.9,8.4-2.3,11.9-4.1
		c6.5-3.3,13-10.4,14.3-17.8c-2.5,7.1-10,13.2-16.9,15.7c-4.7,1.7-13.2,3.3-13.2,3.3l-0.3-0.2c-5.8-2.7-6-15,4.6-18.9
		c4.6-1.7,9-0.8,14-1.9c5.3-1.2,11.5-5.1,14-10.2C46.6,13.4,50,26.1,43.9,33.9z M44,2.7c-0.7,1.6-1.6,3.1-2.6,4.4
		C37,2.7,30.9,0,24.1,0C10.8,0,0,10.6,0,23.5c0,6.8,3,12.9,7.7,17.2l0.5,0.5c-0.9-0.7-1-2-0.3-2.8c0.7-0.9,2-1,2.9-0.3s1,2,0.3,2.8
		c-0.7,0.9-2,1-2.9,0.3l0.4,0.3c4.2,3.4,9.6,5.5,15.5,5.5c12.7,0,23.1-9.7,24-21.8C48.9,19.3,47.1,11.7,44,2.7"/>
</g>
</svg>
